<?xml version="1.0" encoding="UTF-8" standalone="no"?>
<!-- Created with Inkscape (http://www.inkscape.org/) -->

<svg
   width="400mm"
   height="400mm"
   viewBox="0 0 400 400"
   version="1.1"
   id="svg5"
   inkscape:version="1.1.2 (b8e25be833, 2022-02-05)"
   sodipodi:docname="Tool_bottom.svg"
   xmlns:inkscape="http://www.inkscape.org/namespaces/inkscape"
   xmlns:sodipodi="http://sodipodi.sourceforge.net/DTD/sodipodi-0.dtd"
   xmlns="http://www.w3.org/2000/svg"
   xmlns:svg="http://www.w3.org/2000/svg">
  <sodipodi:namedview
     id="namedview7"
     pagecolor="#ffffff"
     bordercolor="#666666"
     borderopacity="1.0"
     inkscape:pageshadow="2"
     inkscape:pageopacity="0.0"
     inkscape:pagecheckerboard="0"
     inkscape:document-units="mm"
     showgrid="false"
     inkscape:zoom="0.35355339"
     inkscape:cx="958.83679"
     inkscape:cy="1073.3881"
     inkscape:window-width="1920"
     inkscape:window-height="1009"
     inkscape:window-x="-8"
     inkscape:window-y="-8"
     inkscape:window-maximized="1"
     inkscape:current-layer="layer1"
     inkscape:object-paths="false" />
  <defs
     id="defs2">
    <rect
       x="128.09534"
       y="134.8372"
       width="1203.422"
       height="1075.3267"
       id="rect3488" />
  </defs>
  <g
     inkscape:label="Layer 1"
     inkscape:groupmode="layer"
     id="layer1">
    <rect
       style="fill:none;stroke:#ff0000;stroke-width:1;stroke-miterlimit:4;stroke-dasharray:none"
       id="rect43697"
       width="290"
       height="190"
       x="55"
       y="105" />
    <text
       xml:space="preserve"
       style="font-size:18px;line-height:1.25;font-family:Tool;-inkscape-font-specification:Tool;display:none;stroke-width:0.264583"
       x="71.685806"
       y="280.27704"
       id="text13589"><tspan
         sodipodi:role="line"
         id="tspan13587"
         style="stroke-width:0.264583"
         x="0"
         y="0">Mootrie  2025</tspan></text>
    <path
       id="path39439"
       style="font-size:18px;line-height:1.25;font-family:Tool;-inkscape-font-specification:Tool;fill:#0000ff;fill-opacity:1;stroke:#0000ff;stroke-width:0.1;stroke-miterlimit:4;stroke-dasharray:none;stroke-opacity:1"
       d="m 143.09182,279.24999 c -0.306,0 -0.55811,0.25212 -0.55811,0.55811 v 0.84596 h 3.37499 l 0.27905,0.14417 0.13539,0.13488 0.14367,0.28784 v 1.6831 l -0.14367,0.27905 -0.13539,0.14417 -0.27905,0.14367 h -4.40077 -3.37498 l -0.28784,-0.14367 -0.13539,-0.14417 v -0.41394 l 0.13539,-0.14417 2.53783,-1.26865 0.13487,-0.13539 0.27906,-0.56689 v -0.55812 l -0.13488,-0.28784 -0.27905,-0.27905 -0.56689,-0.27906 h -3.93309 v 0.27906 h 2.80809 l 0.27905,0.14417 0.14366,0.13488 v 0.42273 l -0.14366,0.14417 -2.52904,1.26918 -0.14418,0.13486 -0.27905,0.56689 v 0.55812 l 0.14418,0.27905 0.27905,0.28784 h -1.66243 c 0.0494,-0.0843 0.0786,-0.18238 0.0786,-0.28784 v -3.375 c 0,-0.30599 -0.25241,-0.55811 -0.56741,-0.55811 h -4.49998 c -0.306,0 -0.55811,0.25212 -0.55811,0.55811 v 3.09595 l 0.13539,0.27905 0.14366,0.14417 0.27906,0.14367 h -1.58389 -3.37498 l -0.28784,-0.14367 -0.13488,-0.14417 v -0.41394 l 0.13488,-0.14417 2.53783,-1.26865 0.13487,-0.13539 0.27906,-0.56689 v -0.55812 l -0.13488,-0.28784 -0.27905,-0.27905 -0.56689,-0.27906 h -3.93309 v 0.27906 h 2.80809 l 0.27905,0.14417 0.14366,0.13488 v 0.42273 l -0.14366,0.14417 -2.52904,1.26918 -0.14418,0.13486 -0.27905,0.56689 v 0.55812 l 0.14418,0.27905 0.27905,0.28784 h -5.88594 -4.49999 l -0.28835,-0.14367 -0.13488,-0.14417 -0.14366,-0.27905 v -0.27906 h 3.94188 l 0.5581,-0.27906 0.27906,-0.28784 0.28784,-0.55811 V 280.375 l -0.28784,-0.5669 -0.27906,-0.27905 -0.5581,-0.27906 h -4.49998 l -0.5669,0.27906 -0.27905,0.27905 -0.27905,0.5669 v 2.24999 l 0.27905,0.55811 0.27905,0.28784 h -1.58439 l -0.28784,-0.14367 -0.13488,-0.14417 -0.14418,-0.27905 V 280.375 l -0.27905,-0.5669 -0.27905,-0.27905 -0.56689,-0.27906 h -1.6831 v 0.27906 h 0.5581 l 0.27905,0.14417 0.14418,0.13488 0.14366,0.28784 v 2.80811 l -0.14366,0.27905 -0.14418,0.14417 -0.27905,0.14367 h -7.21454 l 0.28473,-0.14367 0.14366,-0.14417 0.14418,-0.27905 v -2.80811 l 0.13488,-0.28784 0.14417,-0.13488 0.27906,-0.14417 h 3.09593 l 0.27906,0.14417 0.14417,0.13488 v 0.28784 l -0.14417,0.27906 -0.27906,0.14417 H 103.393 l -0.28784,0.13489 -0.13488,0.27905 0.13488,0.28784 0.28784,0.13539 h 0.83716 l 0.28783,-0.13539 0.27906,-0.28784 0.13487,-0.27905 v -0.55812 l -0.13487,-0.28784 -0.27906,-0.27905 -0.56688,-0.27906 h -6.74998 v 0.27906 h 0.56689 l 0.27905,0.14417 0.13488,0.13488 0.14418,0.28784 v 2.80811 l -0.14418,0.27905 -0.13488,0.14417 -0.27905,0.14367 h -1.58388 l -0.287845,-0.14367 -0.13539,-0.14417 -0.14366,-0.27905 v -2.80811 l 0.14366,-0.28784 0.13539,-0.13488 0.287845,-0.14417 h 0.5581 v -0.27906 h -0.5581 c -0.315005,0 -0.566895,-0.25188 -0.566895,-0.56687 v -0.55811 l -0.279057,-0.5669 -0.279053,-0.27905 h 10.016965 4.40077 7.77627 10.95281 7.20887 6.09316 6.65076 l 0.27906,0.14417 0.14366,0.13486 0.13487,0.28784 v 0.83716 l -0.13487,0.28784 -0.14366,0.13489 -0.27911,0.14417 z m -77.831948,-1.97093 h 10.305314 1.233001 7.208861 7.775752 1.584399 l 0.279053,0.14417 0.143661,0.13488 0.144177,0.28784 v 0.83717 c 0,0.31499 -0.251891,0.56687 -0.566891,0.56687 h -0.558104 v 0.27906 h 0.558104 l 0.279053,0.14417 0.143661,0.13488 0.144177,0.28784 v 2.80811 l -0.144177,0.27905 -0.143661,0.14417 -0.279053,0.14367 h -2.15129 l 0.279053,-0.28784 0.287838,-0.55811 V 280.375 l -0.287838,-0.5669 -0.279053,-0.27905 -0.558104,-0.27906 h -4.499983 l -0.566891,0.27906 -0.279054,0.27905 -0.279053,0.5669 v 2.52905 l 0.135393,0.27905 0.14366,0.14417 0.279054,0.14367 h -2.150774 l 0.279053,-0.28784 0.287838,-0.55811 V 280.375 l -0.287838,-0.5669 -0.279053,-0.27905 -0.558104,-0.27906 h -4.499986 l -0.566888,0.27906 -0.279054,0.27905 -0.279053,0.5669 v 2.52905 l 0.134877,0.27905 0.144176,0.14417 0.279054,0.14367 h -1.016992 -1.124998 l -0.288354,-0.14367 -0.134876,-0.14417 -0.143661,-0.27905 V 280.375 l -0.279051,-0.5669 -0.279053,-0.27905 -0.566891,-0.27906 h -8.721431 l -0.279054,-0.14417 -0.143661,-0.13486 -0.134874,-0.28784 v -0.83717 l 0.134874,-0.28784 0.143661,-0.13488 z m 14.247193,2.24999 h 2.24999 l 0.279053,0.14417 0.134877,0.13488 0.144177,0.28784 v 2.80811 l -0.144177,0.27905 -0.134877,0.14417 -0.279053,0.14367 h -2.24999 l -0.287838,-0.14367 -0.135392,-0.14417 -0.143661,-0.27905 v -2.80811 l 0.143661,-0.28784 0.135392,-0.13488 z m 7.775752,0 h 2.249993 l 0.27905,0.14417 0.135393,0.13488 0.143661,0.28784 v 2.80811 l -0.143661,0.27905 -0.135393,0.14417 -0.27905,0.14367 h -2.249993 l -0.287838,-0.14367 -0.134876,-0.14417 -0.144177,-0.27905 v -2.80811 l 0.144177,-0.28784 0.134876,-0.13488 z m 25.470283,0 h 2.24999 l 0.27906,0.14417 0.13487,0.13488 0.14418,0.28784 v 1.6831 l -0.14418,0.27905 -0.13487,0.14417 -0.27906,0.14367 h -2.24999 l -0.28835,-0.14367 -0.13488,-0.14417 -0.14366,-0.27905 v -1.6831 l 0.14366,-0.28784 0.13488,-0.13488 z m 18.72909,0 h 1.125 l 0.27853,0.14417 0.13539,0.13488 0.14367,0.28784 v 2.80811 l -0.14367,0.27905 -0.13539,0.14417 -0.27853,0.14367 h -1.125 l -0.28835,-0.14367 -0.13488,-0.14417 -0.14418,-0.27905 v -2.80811 l 0.14418,-0.28784 0.13488,-0.13488 z m -23.69726,5.34593 c -0.306,0 -0.55811,0.25209 -0.55811,0.55811 0,0.31499 0.24311,0.5669 0.55811,0.5669 0.315,0 0.56689,-0.25191 0.56689,-0.5669 0,-0.30602 -0.25189,-0.55811 -0.56689,-0.55811 z m 41.21045,-5.62499 0.28836,-0.27906 0.13487,-0.28784 v -0.83716 l -0.13487,-0.28784 -0.28836,-0.27903 L 148.4378,277 h -6.92982 -6.09316 -7.20887 -10.95281 -7.77627 H 105.0761 94.492247 91.78285 84.007098 76.798237 75.565236 64.980818 l -0.557588,0.27906 -0.288354,0.27905 L 64,277.84595 v 0.83717 l 0.134876,0.28784 0.288354,0.27903 0.557588,0.27906 h 1.124998 l 0.279051,0.14417 0.144179,0.13488 0.144177,0.28784 v 2.52905 l 0.279053,0.55811 0.279051,0.28784 0.566891,0.27906 h 1.683102 v -0.27906 h -0.558107 l -0.288354,-0.14367 -0.134874,-0.14417 -0.14366,-0.27905 v -2.80811 l 0.14366,-0.28784 0.134874,-0.13488 0.288354,-0.14417 h 0.558107 l 0.278535,0.14417 0.144179,0.13488 0.144177,0.28784 v 2.52905 l 0.27905,0.55811 0.279054,0.28784 0.566891,0.27906 h 1.683102 v -0.27906 h -0.558107 l -0.288354,-0.14367 -0.134876,-0.14417 -0.143658,-0.27905 v -2.80811 l 0.143658,-0.28784 0.134876,-0.13488 0.288354,-0.14417 h 0.558107 l 0.278534,0.14417 0.14418,0.13488 0.144177,0.28784 v 2.52905 l 0.27905,0.55811 0.279054,0.28784 0.566891,0.27906 h 0.458885 1.791108 6.083866 7.775752 6.084385 2.15078 11.14195 7.21817 10.95281 6.08387 7.21816 6.08387 c 0.315,0 0.56689,-0.25191 0.56689,-0.5669 v -2.24999 c 0,-0.30602 -0.25189,-0.55811 -0.56689,-0.55811 h -3.37499 v -0.27906 l 0.14418,-0.28784 0.13488,-0.13488 0.28783,-0.14417 h 3.6541 z"
       sodipodi:nodetypes="ssccccccccccccccccccccccccccccccccccccsssssccccccccccccccccccccccccccccccccccccccccccccccccccccccccccccccccccccccccccccccccccccccccccccccccccccccccccccccccccccsscccccccccccccccccscccccccccsscccccccccccccccccccccccccccccccccccccccccccccccccccccccccccccccccccccccccccccccccccccccccccccccccccccccccccccccccccccccccccccssssscccccccccccccccccccccccccccccccccccccccccccccccccccccccccccccccccccccccccccccccccssssccccccc" />
  </g>
</svg>
