<?xml version="1.0" encoding="UTF-8" standalone="no"?>
<!-- Created with Inkscape (http://www.inkscape.org/) -->

<svg
   width="400mm"
   height="400mm"
   viewBox="0 0 400 400"
   version="1.1"
   id="svg5"
   inkscape:version="1.1.2 (b8e25be833, 2022-02-05)"
   sodipodi:docname="Tool_cover.svg"
   xmlns:inkscape="http://www.inkscape.org/namespaces/inkscape"
   xmlns:sodipodi="http://sodipodi.sourceforge.net/DTD/sodipodi-0.dtd"
   xmlns="http://www.w3.org/2000/svg"
   xmlns:svg="http://www.w3.org/2000/svg">
  <sodipodi:namedview
     id="namedview7"
     pagecolor="#ffffff"
     bordercolor="#666666"
     borderopacity="1.0"
     inkscape:pageshadow="2"
     inkscape:pageopacity="0.0"
     inkscape:pagecheckerboard="0"
     inkscape:document-units="mm"
     showgrid="false"
     inkscape:zoom="0.59330808"
     inkscape:cx="632.04937"
     inkscape:cy="944.70313"
     inkscape:window-width="1920"
     inkscape:window-height="1009"
     inkscape:window-x="-8"
     inkscape:window-y="-8"
     inkscape:window-maximized="1"
     inkscape:current-layer="layer1"
     inkscape:object-paths="false" />
  <defs
     id="defs2">
    <rect
       x="128.09534"
       y="134.8372"
       width="1203.422"
       height="1075.3267"
       id="rect3488" />
  </defs>
  <g
     inkscape:label="Layer 1"
     inkscape:groupmode="layer"
     id="layer1">
    <text
       xml:space="preserve"
       style="font-size:86.7932px;line-height:0.65;font-family:sans-serif;display:none;stroke-width:1.27578"
       x="201.79454"
       y="130.5554"
       id="text9199"><tspan
         sodipodi:role="line"
         id="tspan9197"
         style="font-style:normal;font-variant:normal;font-weight:normal;font-stretch:normal;font-family:Tool;-inkscape-font-specification:Tool;text-align:center;text-anchor:middle;stroke-width:1.27578"
         x="0"
         y="0">Tims</tspan><tspan
         sodipodi:role="line"
         style="font-style:normal;font-variant:normal;font-weight:normal;font-stretch:normal;font-family:Tool;-inkscape-font-specification:Tool;text-align:center;text-anchor:middle;stroke-width:1.27578"
         x="0"
         y="0"
         id="tspan29877">ToolBox</tspan></text>
    <rect
       style="fill:none;stroke:#ff0000;stroke-width:1;stroke-miterlimit:4;stroke-dasharray:none"
       id="rect43697"
       width="290"
       height="190"
       x="55"
       y="105" />
    <g
       aria-label="TimS
ToolBoX"
       id="text59681"
       style="font-size:86.7932px;line-height:0.65;display:none;stroke-width:1.27578"
       inkscape:groupmode="layer">
      <path
         d="m 144.46776,130.5554 -1.3453,-0.69434 -2.03964,-2.03964 -0.69434,-1.3453 v -13.53973 l -0.69435,-1.3887 -0.65095,-0.65094 -1.34529,-0.69435 h -2.73399 v -1.34529 h 2.73399 c 1.47548,0 2.69059,-1.21511 2.69059,-2.73399 v -4.03588 l 0.69434,-1.3887 2.03964,-1.996239 1.3453,-0.694345 h 12.19444 v 1.345294 h -5.42457 l -1.3453,0.69435 -0.69434,0.65094 -0.65095,1.3887 v 4.03588 c 0,1.51888 1.2151,2.73399 2.69059,2.73399 h 2.73398 v 1.34529 h -2.73398 l -1.3453,0.69435 -0.69434,0.65094 -0.65095,1.3887 v 13.53973 l 0.65095,1.3453 0.69434,0.69434 1.3453,0.69435 h 5.42457 v 1.34529 z"
         style="font-family:Tool;-inkscape-font-specification:Tool;text-align:center;text-anchor:middle"
         id="path59749" />
      <path
         d="m 167.03392,141.40455 c -1.51888,0 -2.69059,-1.2151 -2.69059,-2.73398 0,-1.47549 1.21511,-2.69059 2.69059,-2.69059 1.51888,0 2.73399,1.2151 2.73399,2.69059 0,1.51888 -1.21511,2.73398 -2.73399,2.73398 z M 148.06961,130.5554 v -1.34529 h 13.53974 l 1.34529,-0.69435 0.69435,-0.69434 0.69434,-1.3453 v -13.53973 l -0.69434,-1.3887 -0.69435,-0.65094 -1.34529,-0.69435 h -2.69059 v -1.34529 h 8.11516 l 2.73399,1.34529 1.34529,1.34529 1.3453,2.73399 v 12.19444 l 0.69434,1.3453 0.65095,0.69434 1.38869,0.69435 h 2.69059 v 1.34529 z m 2.69059,-31.20215 v -1.345294 h 24.43228 v 1.345294 z"
         style="font-family:Tool;-inkscape-font-specification:Tool;text-align:center;text-anchor:middle"
         id="path59751" />
      <path
         d="m 201.83792,129.21011 -1.38869,-1.38869 -1.34529,-2.69059 v -12.19444 l -0.69435,-1.3887 -0.65095,-0.65094 -1.34529,-0.69435 h -2.73399 l -1.34529,0.69435 -0.69435,0.65094 -0.65095,1.3887 v 13.53973 l 0.65095,1.3453 0.69435,0.69434 1.34529,0.69435 z m 16.27373,0 -1.38869,-1.38869 -1.3453,-2.69059 v -12.19444 l -0.69434,-1.3887 -0.65095,-0.65094 -1.3453,-0.69435 h -2.73398 l -1.3453,0.69435 -0.69434,0.65094 -0.65095,1.3887 v 13.53973 l 0.65095,1.3453 0.69434,0.69434 1.3453,0.69435 z m -48.82117,1.34529 v -1.34529 h 16.27372 l -1.38869,-1.38869 -1.3453,-2.69059 v -12.19444 l -0.69434,-1.3887 -0.65095,-0.65094 -1.34529,-0.69435 h -2.73399 v -1.34529 h 40.70601 l 2.69059,1.34529 1.34529,1.34529 1.38869,2.73399 v 12.19444 l 0.65095,1.3453 0.69435,0.69434 1.34529,0.69435 h 2.73399 v 1.34529 z m 2.69058,-31.20215 v -1.345294 h 56.97974 v 1.345294 z"
         style="font-family:Tool;-inkscape-font-specification:Tool;text-align:center;text-anchor:middle"
         id="path59753" />
      <path
         d="m 242.02311,129.21011 1.3453,-0.69435 0.65095,-0.69434 v -1.3453 h -10.15481 c -0.73774,0 -1.34529,0.60756 -1.34529,1.3453 0,0.78114 0.60755,1.38869 1.34529,1.38869 z m -10.84915,1.34529 c -1.51888,0 -2.73398,-1.2151 -2.73398,-2.73398 0,-1.47549 1.2151,-2.69059 2.73398,-2.69059 h 12.19445 l -12.19445,-6.11892 -0.69434,-0.65095 -1.3453,-2.73399 v -2.69058 l 0.65095,-1.3887 1.38869,-1.34529 2.69059,-1.34529 h 19.00771 c 1.47549,0 2.69059,-1.21511 2.69059,-2.73399 0,-1.47548 -1.2151,-2.69059 -2.69059,-2.69059 h -5.42457 c -1.51888,0 -2.73399,-1.2151 -2.73399,-2.73399 0,-1.47548 1.21511,-2.690584 2.73399,-2.690584 h 16.27372 v 1.345294 h -13.58313 c -0.73774,0 -1.3453,0.607552 -1.3453,1.34529 0,0.78114 0.60756,1.3887 1.3453,1.3887 h 5.42457 l 1.3453,0.65094 0.69434,0.69435 0.69435,1.34529 v 2.73399 l -0.69435,1.3453 -0.69434,0.69434 -1.3453,0.65095 h -16.27372 l -1.3453,0.69435 -0.69434,0.65094 v 2.03964 l 0.69434,0.69435 12.19445,6.11892 0.69434,0.65095 1.3453,2.73399 v 2.69058 l -0.69435,1.3453 -1.34529,1.38869 h 13.58313 v 1.34529 z"
         style="font-family:Tool;-inkscape-font-specification:Tool;text-align:center;text-anchor:middle"
         id="path59755" />
      <path
         d="m 90.938158,200.46605 -1.345295,-0.69435 -2.03964,-2.03964 -0.694345,-1.34529 v -13.53974 l -0.694346,-1.38869 -0.650949,-0.65095 -1.345295,-0.69434 h -2.733985 v -1.3453 h 2.733985 c 1.475485,0 2.69059,-1.2151 2.69059,-2.73399 v -4.03588 l 0.694345,-1.38869 2.03964,-1.99624 1.345295,-0.69435 H 103.1326 v 1.3453 h -5.424573 l -1.345294,0.69434 -0.694346,0.65095 -0.650949,1.38869 v 4.03588 c 0,1.51889 1.215105,2.73399 2.690589,2.73399 h 2.733983 v 1.3453 h -2.733983 l -1.345294,0.69434 -0.694346,0.65095 -0.650949,1.38869 v 13.53974 l 0.650949,1.34529 0.694346,0.69435 1.345294,0.69435 h 5.424573 v 1.34529 z"
         style="font-family:Tool;-inkscape-font-specification:Tool;text-align:center;text-anchor:middle"
         id="path59757" />
      <path
         d="m 127.08746,199.12076 1.34529,-0.69435 0.65095,-0.69435 0.69435,-1.34529 v -13.53974 l -0.69435,-1.38869 -0.65095,-0.65095 -1.34529,-0.69434 h -10.84915 l -1.38869,0.69434 -0.65095,0.65095 -0.69435,1.38869 v 13.53974 l 0.69435,1.34529 0.65095,0.69435 1.38869,0.69435 z m -32.547453,1.34529 v -1.34529 h 13.539743 l -1.3453,-0.69435 -0.69434,-0.69435 -0.65095,-1.34529 v -12.19444 l 1.34529,-2.73399 1.3453,-1.34529 2.73398,-1.3453 h 21.6983 l 2.69059,1.3453 1.34529,1.34529 1.3887,2.73399 v 10.84915 l -1.3887,2.69058 -1.34529,1.3887 -2.69059,1.34529 z m 2.690589,-31.20215 v -1.3453 h 40.706014 v 1.3453 z"
         style="font-family:Tool;-inkscape-font-specification:Tool;text-align:center;text-anchor:middle"
         id="path59759" />
      <path
         d="m 164.58204,199.12076 1.3453,-0.69435 0.65095,-0.69435 0.69434,-1.34529 v -13.53974 l -0.69434,-1.38869 -0.65095,-0.65095 -1.3453,-0.69434 h -10.84915 l -1.38869,0.69434 -0.65095,0.65095 -0.69434,1.38869 v 13.53974 l 0.69434,1.34529 0.65095,0.69435 1.38869,0.69435 z m -32.54745,1.34529 v -1.34529 h 13.53974 l -1.34529,-0.69435 -0.69435,-0.69435 -0.65095,-1.34529 v -12.19444 l 1.3453,-2.73399 1.34529,-1.34529 2.73399,-1.3453 h 21.6983 l 2.69059,1.3453 1.34529,1.34529 1.38869,2.73399 v 10.84915 l -1.38869,2.69058 -1.34529,1.3887 -2.69059,1.34529 z m 2.69059,-31.20215 v -1.3453 h 40.70601 v 1.3453 z"
         style="font-family:Tool;-inkscape-font-specification:Tool;text-align:center;text-anchor:middle"
         id="path59761" />
      <path
         d="m 169.52919,200.46605 v -1.34529 h 10.84915 l 1.3453,-0.69435 0.65095,-0.69435 0.69434,-1.34529 v -24.38889 l -0.69434,-1.38869 -0.65095,-0.65095 -1.3453,-0.69434 h -8.15856 v -1.3453 h 13.58314 l 2.69059,1.3453 1.34529,1.34529 1.38869,2.73399 v 23.04359 l 0.65095,1.34529 0.69435,0.69435 1.34529,0.69435 h 2.73399 v 1.34529 z"
         style="font-family:Tool;-inkscape-font-specification:Tool;text-align:center;text-anchor:middle"
         id="path59763" />
      <path
         d="m 223.25412,199.12076 1.3453,-0.69435 0.69434,-0.69435 0.69435,-1.34529 v -13.53974 l -0.69435,-1.38869 -0.69434,-0.65095 -1.3453,-0.69434 h -10.84915 l -1.34529,0.69434 -0.69435,0.65095 -0.65095,1.38869 v 13.53974 l 0.65095,1.34529 0.69435,0.69435 1.34529,0.69435 z m -27.12287,1.34529 v -1.34529 h 2.73398 l 1.3453,-0.69435 0.65095,-0.69435 0.69434,-1.34529 v -23.04359 l 1.3453,-2.73399 1.38869,-1.34529 2.69059,-1.3453 h 32.54745 v 1.3453 h -27.12288 l -1.34529,0.69434 -0.69435,0.65095 -0.65095,1.38869 v 6.76987 h 18.96432 l 2.73398,1.3453 1.3453,1.34529 1.34529,2.73399 v 12.19444 l -0.69434,1.34529 -0.65095,0.69435 -1.3453,0.69435 h 8.11517 v 1.34529 z"
         style="font-family:Tool;-inkscape-font-specification:Tool;text-align:center;text-anchor:middle"
         id="path59765" />
      <path
         d="m 263.48269,199.12076 1.3453,-0.69435 0.65095,-0.69435 0.69434,-1.34529 v -13.53974 l -0.69434,-1.38869 -0.65095,-0.65095 -1.3453,-0.69434 h -10.84915 l -1.38869,0.69434 -0.65095,0.65095 -0.69434,1.38869 v 13.53974 l 0.69434,1.34529 0.65095,0.69435 1.38869,0.69435 z m -32.54745,1.34529 v -1.34529 h 13.53974 l -1.34529,-0.69435 -0.69435,-0.69435 -0.65095,-1.34529 v -12.19444 l 1.3453,-2.73399 1.34529,-1.34529 2.73399,-1.3453 h 21.6983 l 2.69059,1.3453 1.34529,1.34529 1.38869,2.73399 v 10.84915 l -1.38869,2.69058 -1.34529,1.3887 -2.69059,1.34529 z m 2.69059,-31.20215 v -1.3453 h 40.70601 v 1.3453 z"
         style="font-family:Tool;-inkscape-font-specification:Tool;text-align:center;text-anchor:middle"
         id="path59767" />
      <path
         d="m 296.07079,200.46605 2.73398,-1.34529 1.3453,-1.3887 0.69434,-1.34529 v -2.69059 l -0.69434,-1.38869 -4.07928,-4.03588 5.42457,-5.42458 5.42458,-2.73398 h 8.15856 l 2.69059,-1.3453 1.38869,-1.34529 0.65095,-1.3887 v -4.03588 l -0.65095,-1.38869 -1.38869,-1.34529 -2.69059,-1.3453 h -43.3966 v 1.3453 h 42.0513 l 1.3453,0.69434 0.69434,0.65095 0.65095,1.38869 v 4.03588 l -0.65095,1.3887 -0.69434,0.65094 -1.3453,0.69435 h -13.58313 l -5.42458,2.69059 -5.16419,5.20759 c -0.95473,-0.43396 -1.60568,-1.38869 -1.60568,-2.4736 v -1.3453 l 0.69435,-1.38869 0.65095,-0.65095 1.34529,-0.69434 h 2.73399 v -1.3453 h -8.15856 l -2.69059,1.3453 -1.34529,1.34529 -0.69435,1.38869 v 2.69059 l 0.69435,1.34529 4.03588,4.07928 -5.42458,5.42458 -5.42457,2.73399 h -5.46522 v 1.34529 h 12.27849 l 5.42457,-2.73399 5.1642,-5.16419 c 0.95472,0.43396 1.60567,1.38869 1.60567,2.47361 v 1.34529 l -0.69435,1.34529 -0.65095,0.69435 -1.38869,0.69435 h -2.69059 v 1.34529 z"
         style="font-family:Tool;-inkscape-font-specification:Tool;text-align:center;text-anchor:middle"
         id="path59769"
         sodipodi:nodetypes="ccccccccccccccccccccccccccccccsccccccccccccccccccccsccccccc" />
    </g>
    <g
       aria-label="Tims
ToolBox"
       id="text69735"
       style="font-size:86.7932px;line-height:0.65;display:none;stroke-width:1.27578">
      <path
         d="m 147.18005,130.5554 -1.3453,-0.69434 -2.03964,-2.03964 -0.69434,-1.3453 v -13.53973 l -0.69435,-1.3887 -0.65095,-0.65094 -1.34529,-0.69435 h -2.73399 v -1.34529 h 2.73399 c 1.47548,0 2.69059,-1.21511 2.69059,-2.73399 v -4.03588 l 0.69434,-1.3887 2.03964,-1.996239 1.3453,-0.694345 h 12.19444 v 1.345294 h -5.42457 l -1.3453,0.69435 -0.69434,0.65094 -0.65095,1.3887 v 4.03588 c 0,1.51888 1.2151,2.73399 2.69059,2.73399 h 2.73398 v 1.34529 h -2.73398 l -1.3453,0.69435 -0.69434,0.65094 -0.65095,1.3887 v 13.53973 l 0.65095,1.3453 0.69434,0.69434 1.3453,0.69435 h 5.42457 v 1.34529 z"
         style="font-family:Tool;-inkscape-font-specification:Tool;text-align:center;text-anchor:middle"
         id="path69871" />
      <path
         d="m 169.74621,141.40455 c -1.51888,0 -2.69059,-1.2151 -2.69059,-2.73398 0,-1.47549 1.2151,-2.69059 2.69059,-2.69059 1.51888,0 2.73399,1.2151 2.73399,2.69059 0,1.51888 -1.21511,2.73398 -2.73399,2.73398 z M 150.7819,130.5554 v -1.34529 h 13.53973 l 1.3453,-0.69435 0.69434,-0.69434 0.69435,-1.3453 v -13.53973 l -0.69435,-1.3887 -0.69434,-0.65094 -1.3453,-0.69435 h -2.69058 v -1.34529 h 8.11516 l 2.73399,1.34529 1.34529,1.34529 1.34529,2.73399 v 12.19444 l 0.69435,1.3453 0.65095,0.69434 1.38869,0.69435 h 2.69059 v 1.34529 z m 2.69058,-31.20215 v -1.345294 h 24.43229 v 1.345294 z"
         style="font-family:Tool;-inkscape-font-specification:Tool;text-align:center;text-anchor:middle"
         id="path69873" />
      <path
         d="m 204.55021,129.21011 -1.38869,-1.38869 -1.34529,-2.69059 v -12.19444 l -0.69435,-1.3887 -0.65095,-0.65094 -1.34529,-0.69435 h -2.73399 l -1.34529,0.69435 -0.69435,0.65094 -0.65095,1.3887 v 13.53973 l 0.65095,1.3453 0.69435,0.69434 1.34529,0.69435 z m 16.27373,0 -1.38869,-1.38869 -1.3453,-2.69059 v -12.19444 l -0.69434,-1.3887 -0.65095,-0.65094 -1.3453,-0.69435 h -2.73398 l -1.3453,0.69435 -0.69434,0.65094 -0.65095,1.3887 v 13.53973 l 0.65095,1.3453 0.69434,0.69434 1.3453,0.69435 z m -48.82118,1.34529 v -1.34529 h 16.27373 l -1.38869,-1.38869 -1.3453,-2.69059 v -12.19444 l -0.69434,-1.3887 -0.65095,-0.65094 -1.3453,-0.69435 h -2.73398 v -1.34529 h 40.70601 l 2.69059,1.34529 1.34529,1.34529 1.38869,2.73399 v 12.19444 l 0.65095,1.3453 0.69435,0.69434 1.34529,0.69435 h 2.73399 v 1.34529 z m 2.69059,-31.20215 v -1.345294 h 56.97974 v 1.345294 z"
         style="font-family:Tool;-inkscape-font-specification:Tool;text-align:center;text-anchor:middle"
         id="path69875" />
      <path
         d="m 244.7354,110.2024 -1.38869,0.69435 -0.65095,0.65094 v 2.03964 l 0.65095,0.69435 12.23784,6.11892 0.65095,0.65095 1.3453,2.73399 v 2.69058 l -0.65095,1.3453 -1.3453,1.38869 -2.73398,1.34529 H 223.0371 v -1.34529 h 24.38889 l 1.3453,-0.69435 0.69434,-0.69434 v -1.99624 l -0.69434,-0.69435 -12.19445,-6.11892 -0.69434,-0.65095 -1.3453,-2.73399 v -2.69058 l 0.69435,-1.3887 1.34529,-1.34529 2.73399,-1.34529 11.55501,-1e-5 4.08559,0 1.3453,-0.69435 0.69435,-0.65094 0.65095,-1.3887 v -4.03588 l -0.65095,-1.38868 -0.69435,-0.65096 -1.3453,-0.694334 -29.22374,-6e-6 v -1.345294 h 30.56904 l 2.6906,1.3453 1.38867,1.345294 0.65095,1.38868 v 4.03588 l -0.65095,1.3887 -1.38867,1.34529 -2.6906,1.3453 -5.43089,0 z"
         style="font-family:Tool;-inkscape-font-specification:Tool;text-align:center;text-anchor:middle"
         id="path69877"
         sodipodi:nodetypes="ccccccccccccccccccccccccccccccccccccccccccccccc" />
      <path
         d="m 92.283458,200.46605 -1.345294,-0.69435 -2.03964,-2.03964 -0.694346,-1.34529 v -13.53974 l -0.694346,-1.38869 -0.650948,-0.65095 -1.345295,-0.69434 h -2.733986 v -1.3453 h 2.733986 c 1.475484,0 2.690589,-1.2151 2.690589,-2.73399 v -4.03588 l 0.694346,-1.38869 2.03964,-1.99624 1.345294,-0.69435 H 104.4779 v 1.3453 h -5.424572 l -1.345295,0.69434 -0.694345,0.65095 -0.650949,1.38869 v 4.03588 c 0,1.51889 1.215104,2.73399 2.690589,2.73399 h 2.733982 v 1.3453 h -2.733982 l -1.345295,0.69434 -0.694345,0.65095 -0.650949,1.38869 v 13.53974 l 0.650949,1.34529 0.694345,0.69435 1.345295,0.69435 h 5.424572 v 1.34529 z"
         style="font-family:Tool;-inkscape-font-specification:Tool;text-align:center;text-anchor:middle"
         id="path69879" />
      <path
         d="m 128.43276,199.12076 1.34529,-0.69435 0.65095,-0.69435 0.69435,-1.34529 v -13.53974 l -0.69435,-1.38869 -0.65095,-0.65095 -1.34529,-0.69434 h -10.84915 l -1.38869,0.69434 -0.65095,0.65095 -0.69435,1.38869 v 13.53974 l 0.69435,1.34529 0.65095,0.69435 1.38869,0.69435 z m -32.547453,1.34529 v -1.34529 h 13.539743 l -1.3453,-0.69435 -0.69434,-0.69435 -0.65095,-1.34529 v -12.19444 l 1.34529,-2.73399 1.3453,-1.34529 2.73398,-1.3453 h 21.6983 l 2.69059,1.3453 1.3453,1.34529 1.38869,2.73399 v 10.84915 l -1.38869,2.69058 -1.3453,1.3887 -2.69059,1.34529 z m 2.690589,-31.20215 v -1.3453 h 40.706014 v 1.3453 z"
         style="font-family:Tool;-inkscape-font-specification:Tool;text-align:center;text-anchor:middle"
         id="path69881" />
      <path
         d="m 165.92734,199.12076 1.3453,-0.69435 0.65095,-0.69435 0.69434,-1.34529 v -13.53974 l -0.69434,-1.38869 -0.65095,-0.65095 -1.3453,-0.69434 h -10.84915 l -1.38869,0.69434 -0.65095,0.65095 -0.69434,1.38869 v 13.53974 l 0.69434,1.34529 0.65095,0.69435 1.38869,0.69435 z m -32.54745,1.34529 v -1.34529 h 13.53974 l -1.34529,-0.69435 -0.69435,-0.69435 -0.65095,-1.34529 v -12.19444 l 1.3453,-2.73399 1.34529,-1.34529 2.73399,-1.3453 h 21.6983 l 2.69059,1.3453 1.34529,1.34529 1.38869,2.73399 v 10.84915 l -1.38869,2.69058 -1.34529,1.3887 -2.69059,1.34529 z m 2.69059,-31.20215 v -1.3453 h 40.70601 v 1.3453 z"
         style="font-family:Tool;-inkscape-font-specification:Tool;text-align:center;text-anchor:middle"
         id="path69883" />
      <path
         d="m 170.87449,200.46605 v -1.34529 h 10.84915 l 1.3453,-0.69435 0.65095,-0.69435 0.69434,-1.34529 v -24.38889 l -0.69434,-1.38869 -0.65095,-0.65095 -1.3453,-0.69434 h -8.15856 v -1.3453 h 13.58314 l 2.69059,1.3453 1.34529,1.34529 1.38869,2.73399 v 23.04359 l 0.65095,1.34529 0.69435,0.69435 1.34529,0.69435 h 2.73399 v 1.34529 z"
         style="font-family:Tool;-inkscape-font-specification:Tool;text-align:center;text-anchor:middle"
         id="path69885" />
      <path
         d="m 224.59942,199.12076 1.3453,-0.69435 0.69434,-0.69435 0.69435,-1.34529 v -13.53974 l -0.69435,-1.38869 -0.69434,-0.65095 -1.3453,-0.69434 h -10.84915 l -1.34529,0.69434 -0.69435,0.65095 -0.65095,1.38869 v 13.53974 l 0.65095,1.34529 0.69435,0.69435 1.34529,0.69435 z m -27.12287,1.34529 v -1.34529 h 2.73399 l 1.34529,-0.69435 0.65095,-0.69435 0.69434,-1.34529 v -23.04359 l 1.3453,-2.73399 1.38869,-1.34529 2.69059,-1.3453 h 32.54745 v 1.3453 h -27.12288 l -1.34529,0.69434 -0.69435,0.65095 -0.65095,1.38869 v 6.76987 H 230.024 l 2.73398,1.3453 1.3453,1.34529 1.34529,2.73399 v 12.19444 l -0.69434,1.34529 -0.65095,0.69435 -1.3453,0.69435 h 8.11517 v 1.34529 z"
         style="font-family:Tool;-inkscape-font-specification:Tool;text-align:center;text-anchor:middle"
         id="path69887" />
      <path
         d="m 264.82799,199.12076 1.3453,-0.69435 0.65095,-0.69435 0.69434,-1.34529 v -13.53974 l -0.69434,-1.38869 -0.65095,-0.65095 -1.3453,-0.69434 h -10.84915 l -1.38869,0.69434 -0.65095,0.65095 -0.69434,1.38869 v 13.53974 l 0.69434,1.34529 0.65095,0.69435 1.38869,0.69435 z m -32.54745,1.34529 v -1.34529 h 13.53974 l -1.34529,-0.69435 -0.69435,-0.69435 -0.65095,-1.34529 v -12.19444 l 1.3453,-2.73399 1.34529,-1.34529 2.73399,-1.3453 h 21.6983 l 2.69059,1.3453 1.34529,1.34529 1.38869,2.73399 v 10.84915 l -1.38869,2.69058 -1.34529,1.3887 -2.69059,1.34529 z m 2.69059,-31.20215 v -1.3453 h 40.70601 v 1.3453 z"
         style="font-family:Tool;-inkscape-font-specification:Tool;text-align:center;text-anchor:middle"
         id="path69889" />
      <path
         d="m 303.66789,199.12076 -2.73399,-1.3887 -5.16419,-5.16419 c -0.95473,0.43396 -1.60568,1.38869 -1.60568,2.47361 v 1.34529 l 0.69435,1.34529 0.65095,0.69435 1.38869,0.69435 z m 13.34423,-1e-5 1.3453,-0.69435 0.69435,-0.65094 0.65095,-1.3887 v -24.38888 l -0.65095,-1.38868 -0.69435,-0.65096 -1.3453,-0.69434 h -1.91724 -1.92314 -40.70601 v -1.3453 h 40.70601 1.92314 3.26254 l 2.6906,1.3453 1.38867,1.3453 0.65095,1.38868 v 24.38888 l -0.65095,1.3887 -1.38867,1.34529 -2.6906,1.3453 h -5.18568 -43.3966 v -1.34529 h 18.96432 l -1.3453,-1.3887 -0.69434,-1.34529 v -2.69059 l 0.69434,-1.38869 4.07928,-4.03588 -5.42457,-5.42458 -5.42458,-2.73398 h -2.73398 v -1.3453 h 9.50385 l 5.42458,2.69059 5.16419,5.20759 c 0.95473,-0.43396 1.60568,-1.38869 1.60568,-2.4736 v -1.3453 l -0.69435,-1.38869 -0.65095,-0.65095 -1.34529,-0.69434 h -2.73399 v -1.3453 h 8.15856 l 2.69059,1.3453 1.3453,1.34529 0.69434,1.38869 v 2.69059 l -0.69434,1.34529 -4.03589,4.07928 5.42458,5.42458 5.42457,2.73399 z"
         style="font-family:Tool;-inkscape-font-specification:Tool;text-align:center;text-anchor:middle;stroke:#ff0000;stroke-width:0.176;stroke-miterlimit:4;stroke-dasharray:none;stroke-opacity:1"
         id="path69891"
         sodipodi:nodetypes="cccsccccccccccccccccccccsccccccccccccccccccccccccccccccccccccccc" />
    </g>
    <path
       id="path73668"
       style="font-size:86.7932px;line-height:0.65;font-family:Tool;-inkscape-font-specification:Tool;text-align:center;text-anchor:middle;display:none;stroke-width:1.27578"
       d="m 147.18016,98.00797 -1.34565,0.694532 -2.03915,1.996258 -0.69453,1.38855 v 4.03593 c 0,1.51888 -1.21532,2.73368 -2.6908,2.73368 h -2.73368 v 1.34565 h 2.73368 l 1.34566,0.69402 0.6506,0.65112 0.69454,1.38855 V 126.476 l 0.69453,1.34565 2.03915,2.03916 1.34565,0.69453 h 3.60185 8.59224 21.22093 51.07801 21.17752 l 2.73369,-1.34514 1.34565,-1.38855 0.65061,-1.34565 v -2.69028 l -1.34514,-2.7342 -0.65112,-0.65112 -12.2375,-6.11849 -0.65112,-0.69453 v -2.03967 l 0.65112,-0.65112 1.38855,-0.69402 h 6.13037 5.43068 l 2.69079,-1.34565 1.38855,-1.34514 0.65112,-1.38854 v -4.03593 l -0.65112,-1.38855 -1.38855,-1.345653 -2.69079,-1.345137 h -24.62331 -53.76829 -18.53065 -5.90197 z m 6.76961,1.345137 h 5.42448 18.53065 53.76829 23.27817 l 1.34514,0.694533 0.69453,0.65112 0.65112,1.38855 v 4.03593 l -0.65112,1.38854 -0.69453,0.65113 -1.34514,0.69401 h -4.08554 -11.55485 l -2.7342,1.34565 -1.34514,1.34514 -0.69453,1.38855 v 2.69079 l 1.34514,2.73368 0.69453,0.65112 12.19461,6.11901 0.69401,0.69453 v 1.99626 l -0.69401,0.69402 -1.34514,0.69453 h -18.48725 l -1.34513,-0.69453 -0.69453,-0.69402 -0.65061,-1.34565 v -12.19409 l -1.38906,-2.7342 -1.34514,-1.34514 -2.69079,-1.34565 h -40.70604 v 1.34565 h 2.7342 l 1.34513,0.69402 0.65113,0.65112 0.69453,1.38855 v 12.1946 l 1.34514,2.69079 1.38854,1.38855 H 177.9049 l -1.38906,-0.69453 -0.65061,-0.69402 -0.69453,-1.34565 v -12.19409 l -1.34514,-2.7342 -1.34513,-1.34514 -2.7342,-1.34565 h -8.11527 v 1.34565 h 2.69079 l 1.34514,0.69402 0.69453,0.65112 0.69401,1.38855 V 126.476 l -0.69401,1.34565 -0.69453,0.69402 -1.34514,0.69453 h -4.9475 -5.42448 l -1.34513,-0.69453 -0.69453,-0.69402 -0.65061,-1.34565 v -13.53974 l 0.65061,-1.38855 0.69453,-0.65112 1.34513,-0.69402 h 2.73421 v -1.34565 h -2.73421 c -1.47548,0 -2.69027,-1.2148 -2.69027,-2.73368 v -4.03593 l 0.65061,-1.38855 0.69453,-0.65112 z m 42.44186,10.849463 h 2.7342 l 1.34514,0.69402 0.65112,0.65112 0.69401,1.38855 v 12.1946 l 1.34566,2.69079 1.38854,1.38855 h -8.15867 l -1.34514,-0.69453 -0.69453,-0.69402 -0.65112,-1.34565 v -13.53974 l 0.65112,-1.38855 0.69453,-0.65112 z m 16.27394,0 h 2.73368 l 1.34566,0.69402 0.6506,0.65112 0.69453,1.38855 v 12.1946 l 1.34514,2.69079 1.38855,1.38855 h -8.15816 l -1.34566,-0.69453 -0.69401,-0.69402 -0.65112,-1.34565 v -13.53974 l 0.65112,-1.38855 0.69401,-0.65112 z m -42.91934,25.77724 c -1.47549,0 -2.6908,1.2153 -2.6908,2.6908 0,1.51887 1.17192,2.73419 2.6908,2.73419 1.51888,0 2.7342,-1.21532 2.7342,-2.73419 0,-1.4755 -1.21532,-2.6908 -2.7342,-2.6908 z m -77.462975,31.93862 -1.345139,0.69453 -2.039668,1.99626 -0.694015,1.38855 v 4.03593 c 0,1.51889 -1.215308,2.7342 -2.690791,2.7342 h -2.734199 v 1.34514 h 2.734199 l 1.345139,0.69453 0.651121,0.6506 0.694531,1.38906 v 13.53975 l 0.694015,1.34513 2.039668,2.03967 1.345139,0.69402 h 12.194605 29.3796 37.49435 26.6454 42.87594 29.37959 42.91883 5.18573 l 2.69081,-1.34514 1.38853,-1.34514 0.65112,-1.38854 v -24.38921 l -0.65112,-1.38855 -1.38853,-1.34514 -2.69081,-1.34565 h -3.26231 -1.92342 -37.49434 -34.80408 -32.54737 l -2.69079,1.34565 -1.38854,1.34514 -1.34514,2.7342 v 23.04356 l -0.69453,1.34513 -0.65113,0.69453 -1.34513,0.69402 h -2.21331 -2.73368 l -1.34565,-0.69402 -0.69402,-0.69453 -0.65112,-1.34513 v -23.04356 l -1.38855,-2.7342 -1.34513,-1.34514 -2.6908,-1.34565 h -10.37197 -37.49435 -34.80408 z m 6.770129,1.34565 h 40.228556 37.49435 4.9475 l 1.34514,0.69402 0.65112,0.65112 0.69402,1.38855 v 24.38921 l -0.69402,1.34513 -0.65112,0.69453 -1.34514,0.69402 h -7.68119 l 1.34514,-1.38855 1.38855,-2.69079 v -10.84895 l -1.38855,-2.7342 -1.34514,-1.34513 -2.69079,-1.34514 H 149.6534 l -2.73369,1.34514 -1.34514,1.34513 -1.34565,2.7342 v 12.19461 l 0.65112,1.34513 0.69453,0.69453 1.34514,0.69402 h -10.37197 l 1.34565,-1.38855 1.38855,-2.69079 v -10.84895 l -1.38855,-2.7342 -1.34565,-1.34513 -2.69028,-1.34514 h -21.69842 l -2.7342,1.34514 -1.34513,1.34513 -1.34514,2.7342 v 12.19461 l 0.6506,1.34513 0.69454,0.69453 1.34513,0.69402 H 99.053384 l -1.345136,-0.69402 -0.694531,-0.69453 -0.651124,-1.34513 v -13.53975 l 0.651124,-1.38906 0.694531,-0.6506 1.345136,-0.69453 h 2.733686 v -1.34514 h -2.733686 c -1.475486,0 -2.690791,-1.21531 -2.690791,-2.7342 v -4.03593 l 0.651124,-1.38855 0.694531,-0.65112 z m 114.696876,0 h 27.12289 34.80408 37.49434 1.92342 1.91717 l 1.34514,0.69402 0.69453,0.65112 0.65114,1.38855 v 24.38921 l -0.65114,1.38854 -0.69453,0.65112 -1.34514,0.69402 h -3.84059 l -5.42446,-2.73368 -5.42449,-5.425 4.03593,-4.07882 0.69403,-1.34565 v -2.69028 l -0.69403,-1.38906 -1.34514,-1.34513 -2.69079,-1.34514 h -8.15866 v 1.34514 h 2.7342 l 1.34514,0.69453 0.65112,0.6506 0.694,1.38906 v 1.34514 c 0,1.08491 -0.65085,2.03979 -1.60557,2.47375 l -5.16403,-5.20795 -5.42449,-2.69027 h -9.50381 v 1.34514 h 2.7337 l 5.42446,2.73419 5.42499,5.42448 -4.07934,4.03593 -0.69453,1.38855 v 2.69079 l 0.69453,1.34513 1.34514,1.38855 h -15.79644 l 1.34564,-1.38855 1.38856,-2.69079 v -10.84895 l -1.38856,-2.7342 -1.34564,-1.34513 -2.69029,-1.34514 h -21.69841 l -2.7342,1.34514 -1.34513,1.34513 -1.34514,2.7342 v 12.19461 l 0.65061,1.34513 0.69453,0.69453 1.34513,0.69402 h -13.06225 l 1.34514,-0.69402 0.65112,-0.69453 0.69454,-1.34513 v -12.19461 l -1.34566,-2.7342 -1.34514,-1.34513 -2.73368,-1.34514 h -18.96473 v -6.77013 l 0.65112,-1.38855 0.69453,-0.65112 z m -96.16674,10.84896 h 10.84947 l 1.34513,0.69453 0.65113,0.6506 0.69401,1.38906 v 13.53975 l -0.69401,1.34513 -0.65113,0.69453 -1.34513,0.69402 h -10.84947 l -1.38855,-0.69402 -0.65112,-0.69453 -0.69402,-1.34513 v -13.53975 l 0.69402,-1.38906 0.65112,-0.6506 z m 37.49487,0 h 10.84895 l 1.34514,0.69453 0.65112,0.6506 0.69453,1.38906 v 13.53975 l -0.69453,1.34513 -0.65112,0.69453 -1.34514,0.69402 h -10.84895 l -1.38906,-0.69402 -0.65061,-0.69453 -0.69453,-1.34513 v -13.53975 l 0.69453,-1.38906 0.65061,-0.6506 z m 58.67187,0 h 10.84895 l 1.34565,0.69453 0.69402,0.6506 0.69453,1.38906 v 13.53975 l -0.69453,1.34513 -0.69402,0.69453 -1.34565,0.69402 h -10.84895 l -1.34514,-0.69402 -0.69453,-0.69453 -0.65112,-1.34513 v -13.53975 l 0.65112,-1.38906 0.69453,-0.6506 z m 40.22855,0 h 10.84894 l 1.34567,0.69453 0.65061,0.6506 0.69453,1.38906 v 13.53975 l -0.69453,1.34513 -0.65061,0.69453 -1.34567,0.69402 h -10.84894 l -1.38854,-0.69402 -0.65113,-0.69453 -0.69453,-1.34513 v -13.53975 l 0.69453,-1.38906 0.65113,-0.6506 z m 41.79072,12.45505 5.16456,5.16402 2.73367,1.38855 h -6.7696 l -1.38906,-0.69402 -0.65061,-0.69453 -0.69453,-1.34513 v -1.34566 c 0,-1.08492 0.65085,-2.03927 1.60557,-2.47323 z" />
    <path
       id="path73918"
       style="font-size:86.7932px;line-height:0.65;font-family:Tool;-inkscape-font-specification:Tool;text-align:center;text-anchor:middle;display:none;stroke-width:1.27578"
       d="m 147.18016,98.00797 c -0.44855,0.231511 -0.8971,0.463021 -1.34565,0.694532 -0.67972,0.665419 -1.35943,1.330838 -2.03915,1.996258 -0.23151,0.46285 -0.46302,0.9257 -0.69453,1.38855 v 4.03593 c 0,1.51888 -1.21532,2.73368 -2.6908,2.73368 h -2.73368 v 1.34565 h 2.73368 c 0.44855,0.23134 0.89711,0.46268 1.34566,0.69402 0.21687,0.21704 0.43373,0.43408 0.6506,0.65112 0.23151,0.46285 0.46303,0.9257 0.69454,1.38855 V 126.476 c 0.23151,0.44855 0.46302,0.8971 0.69453,1.34565 0.67972,0.67972 1.35943,1.35944 2.03915,2.03916 0.44855,0.23151 0.8971,0.46302 1.34565,0.69453 h 3.60185 8.59224 21.22093 51.07801 21.17752 c 0.91123,-0.44838 1.82246,-0.89676 2.73369,-1.34514 0.44855,-0.46285 0.8971,-0.9257 1.34565,-1.38855 0.21687,-0.44855 0.43374,-0.8971 0.65061,-1.34565 0,-0.89676 0,-1.79352 0,-2.69028 -0.44838,-0.9114 -0.89676,-1.8228 -1.34514,-2.7342 -0.21704,-0.21704 -0.43408,-0.43408 -0.65112,-0.65112 l -12.2375,-6.11849 c -0.21704,-0.23151 -0.43408,-0.46302 -0.65112,-0.69453 0,-0.67989 0,-1.35978 0,-2.03967 0.21704,-0.21704 0.43408,-0.43408 0.65112,-0.65112 0.46285,-0.23134 0.9257,-0.46268 1.38855,-0.69402 h 6.13037 5.43068 c 0.89693,-0.44855 1.79386,-0.8971 2.69079,-1.34565 0.46285,-0.44838 0.9257,-0.89676 1.38855,-1.34514 0.21704,-0.46285 0.43408,-0.92569 0.65112,-1.38854 v -4.03593 c -0.21704,-0.46285 -0.43408,-0.9257 -0.65112,-1.38855 -0.46285,-0.44855 -0.9257,-0.897102 -1.38855,-1.345653 -0.89693,-0.448379 -1.79386,-0.896758 -2.69079,-1.345137 h -24.62331 -53.76829 -18.53065 -5.90197 z m 6.76961,1.345137 h 5.42448 18.53065 53.76829 23.27817 c 0.44838,0.231511 0.89676,0.463022 1.34514,0.694533 0.23151,0.21704 0.46302,0.43408 0.69453,0.65112 0.21704,0.46285 0.43408,0.9257 0.65112,1.38855 v 4.03593 c -0.21704,0.46285 -0.43408,0.92569 -0.65112,1.38854 -0.23151,0.21704 -0.46302,0.43409 -0.69453,0.65113 -0.44838,0.23134 -0.89676,0.46267 -1.34514,0.69401 h -4.08554 -11.55485 c -0.9114,0.44855 -1.8228,0.8971 -2.7342,1.34565 -0.44838,0.44838 -0.89676,0.89676 -1.34514,1.34514 -0.23151,0.46285 -0.46302,0.9257 -0.69453,1.38855 0,0.89693 0,1.79386 0,2.69079 0.44838,0.91123 0.89676,1.82245 1.34514,2.73368 0.23151,0.21704 0.46302,0.43408 0.69453,0.65112 l 12.19461,6.11901 c 0.23134,0.23151 0.46267,0.46302 0.69401,0.69453 0,0.66542 0,1.33084 0,1.99626 -0.23134,0.23134 -0.46267,0.46268 -0.69401,0.69402 -0.44838,0.23151 -0.89676,0.46302 -1.34514,0.69453 h -18.48725 c -0.44838,-0.23151 -0.89675,-0.46302 -1.34513,-0.69453 -0.23151,-0.23134 -0.46302,-0.46268 -0.69453,-0.69402 -0.21687,-0.44855 -0.43374,-0.8971 -0.65061,-1.34565 v -12.19409 c -0.46302,-0.9114 -0.92604,-1.8228 -1.38906,-2.7342 -0.44838,-0.44838 -0.89676,-0.89676 -1.34514,-1.34514 -0.89693,-0.44855 -1.79386,-0.8971 -2.69079,-1.34565 h -40.70604 v 1.34565 h 2.7342 c 0.44838,0.23134 0.89675,0.46268 1.34513,0.69402 0.21704,0.21704 0.43409,0.43408 0.65113,0.65112 0.23151,0.46285 0.46302,0.9257 0.69453,1.38855 v 12.1946 c 0.44838,0.89693 0.89676,1.79386 1.34514,2.69079 0.46285,0.46285 0.92569,0.9257 1.38854,1.38855 H 177.9049 c -0.46302,-0.23151 -0.92604,-0.46302 -1.38906,-0.69453 -0.21687,-0.23134 -0.43374,-0.46268 -0.65061,-0.69402 -0.23151,-0.44855 -0.46302,-0.8971 -0.69453,-1.34565 v -12.19409 c -0.44838,-0.9114 -0.89676,-1.8228 -1.34514,-2.7342 -0.44838,-0.44838 -0.89675,-0.89676 -1.34513,-1.34514 -0.9114,-0.44855 -1.8228,-0.8971 -2.7342,-1.34565 h -8.11527 v 1.34565 h 2.69079 c 0.44838,0.23134 0.89676,0.46268 1.34514,0.69402 0.23151,0.21704 0.46302,0.43408 0.69453,0.65112 0.23134,0.46285 0.46267,0.9257 0.69401,1.38855 V 126.476 c -0.23134,0.44855 -0.46267,0.8971 -0.69401,1.34565 -0.23151,0.23134 -0.46302,0.46268 -0.69453,0.69402 -0.44838,0.23151 -0.89676,0.46302 -1.34514,0.69453 h -4.9475 -5.42448 c -0.44838,-0.23151 -0.89675,-0.46302 -1.34513,-0.69453 -0.23151,-0.23134 -0.46302,-0.46268 -0.69453,-0.69402 -0.21687,-0.44855 -0.43374,-0.8971 -0.65061,-1.34565 v -13.53974 c 0.21687,-0.46285 0.43374,-0.9257 0.65061,-1.38855 0.23151,-0.21704 0.46302,-0.43408 0.69453,-0.65112 0.44838,-0.23134 0.89675,-0.46268 1.34513,-0.69402 h 2.73421 v -1.34565 h -2.73421 c -1.47548,0 -2.69027,-1.2148 -2.69027,-2.73368 v -4.03593 c 0.21687,-0.46285 0.43374,-0.9257 0.65061,-1.38855 0.23151,-0.21704 0.46302,-0.43408 0.69453,-0.65112 0.44838,-0.231511 0.89675,-0.463022 1.34513,-0.694533 z m 42.44186,10.849463 h 2.7342 c 0.44838,0.23134 0.89676,0.46268 1.34514,0.69402 0.21704,0.21704 0.43408,0.43408 0.65112,0.65112 0.23134,0.46285 0.46267,0.9257 0.69401,1.38855 v 12.1946 c 0.44855,0.89693 0.89711,1.79386 1.34566,2.69079 0.46285,0.46285 0.92569,0.9257 1.38854,1.38855 h -8.15867 c -0.44838,-0.23151 -0.89676,-0.46302 -1.34514,-0.69453 -0.23151,-0.23134 -0.46302,-0.46268 -0.69453,-0.69402 -0.21704,-0.44855 -0.43408,-0.8971 -0.65112,-1.34565 v -13.53974 c 0.21704,-0.46285 0.43408,-0.9257 0.65112,-1.38855 0.23151,-0.21704 0.46302,-0.43408 0.69453,-0.65112 0.44838,-0.23134 0.89676,-0.46268 1.34514,-0.69402 z m 16.27394,0 h 2.73368 c 0.44855,0.23134 0.89711,0.46268 1.34566,0.69402 0.21687,0.21704 0.43373,0.43408 0.6506,0.65112 0.23151,0.46285 0.46302,0.9257 0.69453,1.38855 v 12.1946 c 0.44838,0.89693 0.89676,1.79386 1.34514,2.69079 0.46285,0.46285 0.9257,0.9257 1.38855,1.38855 -2.71939,0 -5.43877,0 -8.15816,0 -0.44855,-0.23151 -0.89711,-0.46302 -1.34566,-0.69453 -0.23134,-0.23134 -0.46267,-0.46268 -0.69401,-0.69402 -0.21704,-0.44855 -0.43408,-0.8971 -0.65112,-1.34565 v -13.53974 c 0.21704,-0.46285 0.43408,-0.9257 0.65112,-1.38855 0.23134,-0.21704 0.46267,-0.43408 0.69401,-0.65112 0.44855,-0.23134 0.89711,-0.46268 1.34566,-0.69402 z m -42.91934,25.77724 c -1.47549,0 -2.6908,1.2153 -2.6908,2.6908 0,1.51887 1.17192,2.73419 2.6908,2.73419 1.51888,0 2.7342,-1.21532 2.7342,-2.73419 0,-1.4755 -1.21532,-2.6908 -2.7342,-2.6908 z m -77.462975,31.93862 -1.345139,0.69453 -2.039668,1.99626 -0.694015,1.38855 v 4.03593 c 0,1.51889 -1.215308,2.7342 -2.690791,2.7342 h -2.734199 v 1.34514 h 2.734199 l 1.345139,0.69453 0.651121,0.6506 0.694531,1.38906 v 13.53975 l 0.694015,1.34513 2.039668,2.03967 1.345139,0.69402 h 12.194605 29.3796 37.49435 26.6454 42.87594 29.37959 42.91883 5.18573 l 2.69081,-1.34514 1.38853,-1.34514 0.65112,-1.38854 v -24.38921 l -0.65112,-1.38855 -1.38853,-1.34514 -2.69081,-1.34565 h -3.26231 -1.92342 -37.49434 -34.80408 -32.54737 l -2.69079,1.34565 -1.38854,1.34514 -1.34514,2.7342 v 23.04356 l -0.69453,1.34513 -0.65113,0.69453 -1.34513,0.69402 h -2.21331 -2.73368 l -1.34565,-0.69402 -0.69402,-0.69453 -0.65112,-1.34513 v -23.04356 l -1.38855,-2.7342 -1.34513,-1.34514 -2.6908,-1.34565 h -10.37197 -37.49435 -34.80408 z m 6.770129,1.34565 h 40.228556 37.49435 4.9475 l 1.34514,0.69402 0.65112,0.65112 0.69402,1.38855 v 24.38921 l -0.69402,1.34513 -0.65112,0.69453 -1.34514,0.69402 h -7.68119 l 1.34514,-1.38855 1.38855,-2.69079 v -10.84895 l -1.38855,-2.7342 -1.34514,-1.34513 -2.69079,-1.34514 H 149.6534 l -2.73369,1.34514 -1.34514,1.34513 -1.34565,2.7342 v 12.19461 l 0.65112,1.34513 0.69453,0.69453 1.34514,0.69402 h -10.37197 l 1.34565,-1.38855 1.38855,-2.69079 v -10.84895 l -1.38855,-2.7342 -1.34565,-1.34513 -2.69028,-1.34514 h -21.69842 l -2.7342,1.34514 -1.34513,1.34513 -1.34514,2.7342 v 12.19461 l 0.6506,1.34513 0.69454,0.69453 1.34513,0.69402 H 99.053384 l -1.345136,-0.69402 -0.694531,-0.69453 -0.651124,-1.34513 v -13.53975 l 0.651124,-1.38906 0.694531,-0.6506 1.345136,-0.69453 h 2.733686 v -1.34514 h -2.733686 c -1.475486,0 -2.690791,-1.21531 -2.690791,-2.7342 v -4.03593 l 0.651124,-1.38855 0.694531,-0.65112 z m 114.696876,0 h 27.12289 34.80408 37.49434 1.92342 1.91717 l 1.34514,0.69402 0.69453,0.65112 0.65114,1.38855 v 24.38921 l -0.65114,1.38854 -0.69453,0.65112 -1.34514,0.69402 h -3.84059 l -5.42446,-2.73368 -5.42449,-5.425 4.03593,-4.07882 0.69403,-1.34565 v -2.69028 l -0.69403,-1.38906 -1.34514,-1.34513 -2.69079,-1.34514 h -8.15866 v 1.34514 h 2.7342 l 1.34514,0.69453 0.65112,0.6506 0.694,1.38906 v 1.34514 c 0,1.08491 -0.65085,2.03979 -1.60557,2.47375 l -5.16403,-5.20795 -5.42449,-2.69027 h -9.50381 v 1.34514 h 2.7337 l 5.42446,2.73419 5.42499,5.42448 -4.07934,4.03593 -0.69453,1.38855 v 2.69079 l 0.69453,1.34513 1.34514,1.38855 h -15.79644 l 1.34564,-1.38855 1.38856,-2.69079 v -10.84895 l -1.38856,-2.7342 -1.34564,-1.34513 -2.69029,-1.34514 h -21.69841 l -2.7342,1.34514 -1.34513,1.34513 -1.34514,2.7342 v 12.19461 l 0.65061,1.34513 0.69453,0.69453 1.34513,0.69402 h -13.06225 l 1.34514,-0.69402 0.65112,-0.69453 0.69454,-1.34513 v -12.19461 l -1.34566,-2.7342 -1.34514,-1.34513 -2.73368,-1.34514 h -18.96473 v -6.77013 l 0.65112,-1.38855 0.69453,-0.65112 z m -96.16674,10.84896 h 10.84947 l 1.34513,0.69453 0.65113,0.6506 0.69401,1.38906 v 13.53975 l -0.69401,1.34513 -0.65113,0.69453 -1.34513,0.69402 h -10.84947 l -1.38855,-0.69402 -0.65112,-0.69453 -0.69402,-1.34513 v -13.53975 l 0.69402,-1.38906 0.65112,-0.6506 z m 37.49487,0 h 10.84895 l 1.34514,0.69453 0.65112,0.6506 0.69453,1.38906 v 13.53975 l -0.69453,1.34513 -0.65112,0.69453 -1.34514,0.69402 h -10.84895 l -1.38906,-0.69402 -0.65061,-0.69453 -0.69453,-1.34513 v -13.53975 l 0.69453,-1.38906 0.65061,-0.6506 z m 58.67187,0 h 10.84895 l 1.34565,0.69453 0.69402,0.6506 0.69453,1.38906 v 13.53975 l -0.69453,1.34513 -0.69402,0.69453 -1.34565,0.69402 h -10.84895 l -1.34514,-0.69402 -0.69453,-0.69453 -0.65112,-1.34513 v -13.53975 l 0.65112,-1.38906 0.69453,-0.6506 z m 40.22855,0 h 10.84894 l 1.34567,0.69453 0.65061,0.6506 0.69453,1.38906 v 13.53975 l -0.69453,1.34513 -0.65061,0.69453 -1.34567,0.69402 h -10.84894 l -1.38854,-0.69402 -0.65113,-0.69453 -0.69453,-1.34513 v -13.53975 l 0.69453,-1.38906 0.65113,-0.6506 z m 41.79072,12.45505 5.16456,5.16402 2.73367,1.38855 h -6.7696 l -1.38906,-0.69402 -0.65061,-0.69453 -0.69453,-1.34513 v -1.34566 c 0,-1.08492 0.65085,-2.03927 1.60557,-2.47323 z"
       sodipodi:nodetypes="ccccsscccccccccccccccccccccccccccccccccccccccccccccccccccccccccccccccccccccccccccccccccccccccccccccccccccccccccccccccssccccccccccccccccccccccccccccccccccccsssssccccsscccccccccccccccccccccccccccccccccccccccccccccccccccccccccccccccccccccccccccccccccccccccccccccccccccccssccccccccccccccccccccccccccccccccsccccccccccccccccccccccccccccccccccccccccccccccccccccccccccccccccccccccccccccccccccccccccccccccccccccccccccccccccccccsc" />
    <path
       id="path103424"
       style="font-size:86.7932px;line-height:0.65;font-family:Tool;-inkscape-font-specification:Tool;text-align:center;text-anchor:middle;display:inline;stroke:#000000;stroke-width:0.276;stroke-miterlimit:4;stroke-dasharray:none;stroke-opacity:1"
       d="m 89.349653,220.81946 c -0.504621,0 -1.347094,0.32404 -1.759066,0.61546 -0.776658,0.54938 -1.173015,0.83992 -1.724443,1.64176 -0.293204,0.42635 -0.595313,1.30467 -0.595313,1.82211 v 4.03593 c 0,1.51889 -1.215308,2.7342 -2.690791,2.7342 h -2.734199 v 1.34514 h 2.734199 c 0.504621,0 1.149382,0.28698 1.567862,0.56896 0.254448,0.17145 0.482161,0.39451 0.651124,0.6506 0.285078,0.43211 0.471805,0.99697 0.471805,1.51464 V 249.288 c 0,0.50454 0.206417,1.37564 0.471289,1.80506 0.485963,0.78785 0.905732,1.17599 1.83038,1.74718 0.429246,0.26516 1.272611,0.52659 1.777153,0.52659 h 12.194607 29.3796 37.49435 26.6454 42.87594 29.37959 42.91883 5.18573 c 1.00277,0 2.10431,-0.26339 2.94142,-0.81546 0.53798,-0.35478 0.82233,-0.57802 1.2077,-1.09451 0.45402,-0.60854 0.58134,-1.65765 0.58134,-2.16886 v -24.38921 c 0,-0.51121 -0.12729,-1.56032 -0.58134,-2.16885 -0.38534,-0.5165 -0.66972,-0.73973 -1.2077,-1.09451 -0.83708,-0.55207 -1.93865,-0.81571 -2.94142,-0.81597 h -3.26231 -1.92342 -37.49434 -34.80408 -32.54737 c -1.00284,0 -2.16889,0.41882 -3.00602,0.971 -0.53792,0.35483 -1.0298,0.80981 -1.38854,1.34513 -0.56544,0.8438 -1.02991,2.09314 -1.02991,3.10886 V 249.288 c 0,0.50462 -0.18978,1.11617 -0.46767,1.53738 -0.17475,0.26488 -0.39061,0.51332 -0.65113,0.69453 -0.41419,0.2881 -1.06746,0.50178 -1.57199,0.50178 h -2.21331 -2.73368 c -0.50469,0 -1.12535,-0.2622 -1.54254,-0.54622 -0.27055,-0.18418 -0.51383,-0.42131 -0.69402,-0.69453 -0.27424,-0.41586 -0.45423,-0.9948 -0.45423,-1.49294 v -23.04355 c 0,-1.02219 -0.40557,-2.10208 -0.97462,-2.95124 -0.353,-0.52676 -0.81754,-0.99339 -1.34513,-1.34514 -0.83439,-0.5563 -2.10189,-1.12861 -3.10473,-1.12861 h -10.37197 -37.49435 -34.80408 z m 46.998687,1.34565 h 37.49435 4.9475 c 0.50454,0 1.14376,0.29374 1.56218,0.57568 0.25453,0.17152 0.48214,0.39488 0.65112,0.65112 0.28488,0.43197 0.47698,0.98944 0.47698,1.50688 V 249.288 c 0,0.50454 -0.23899,1.16063 -0.51677,1.58182 -0.17471,0.26491 -0.3906,0.51332 -0.65112,0.69453 -0.41419,0.2881 -1.01785,0.45734 -1.52239,0.45734 H 171.109 c 0.74103,-0.23988 1.32075,-0.65788 1.67949,-1.19321 0.56187,-0.83846 1.0542,-1.87682 1.0542,-2.88613 V 237.0934 c 0,-1.02219 -0.31772,-2.38682 -0.88677,-3.23598 -0.353,-0.52676 -0.81751,-0.99343 -1.34514,-1.34514 -0.83438,-0.55618 -2.18981,-0.84336 -3.19257,-0.84336 H 146.7198 c -1.01557,0 -2.28022,0.45112 -3.12798,1.01028 -0.52934,0.34913 -0.996,0.81582 -1.34514,1.34514 -0.55931,0.84795 -0.95136,2.05326 -0.95136,3.06906 v 12.1946 c 0,0.49814 0.20937,0.99806 0.48369,1.41387 0.1803,0.27329 0.50244,0.52063 0.77308,0.70487 0.41707,0.28393 0.90681,0.51171 1.43402,0.61495 h -10.37197 c 0.51823,-0.33743 1.23336,-0.91489 1.63814,-1.41645 0.63163,-0.78268 1.09606,-1.65358 1.09606,-2.66289 V 237.0934 c 0,-1.02219 -0.36623,-2.20032 -0.93535,-3.04943 -0.35311,-0.52683 -0.81792,-0.99336 -1.34565,-1.34514 -0.83425,-0.55609 -2.14087,-1.02991 -3.14348,-1.02991 h -21.69842 c -1.01572,0 -2.18185,0.47072 -3.02979,1.02991 -0.52934,0.3491 -0.99603,0.81579 -1.34513,1.34514 -0.5592,0.84793 -1.04955,2.03371 -1.04955,3.04943 v 12.1946 c 0,0.49807 0.16951,0.95881 0.49299,1.3746 0.20104,0.25841 0.51278,0.52009 0.78342,0.70435 0.41707,0.28393 0.87679,0.49238 1.41386,0.65474 H 96.119782 c -0.504542,0 -1.124974,-0.19356 -1.542023,-0.47749 -0.270645,-0.18425 -0.51425,-0.42073 -0.694531,-0.69402 -0.274328,-0.41581 -0.454237,-1.06403 -0.454237,-1.56218 v -13.53974 c 0,-0.51137 0.270814,-1.15911 0.552421,-1.58595 0.174691,-0.26479 0.429715,-0.47597 0.694531,-0.6506 0.421259,-0.27782 0.939221,-0.49765 1.443839,-0.49765 h 2.733686 v -1.34514 h -2.733686 c -1.475486,0 -2.690791,-1.21531 -2.690791,-2.7342 v -4.03593 c 0,-0.51121 0.221808,-1.1489 0.503327,-1.57561 0.17475,-0.26488 0.429612,-0.47641 0.694532,-0.65112 0.42119,-0.27777 0.988393,-0.50695 1.492932,-0.50695 z m 74.46832,0 h 27.12289 34.80408 37.49434 1.92342 1.91717 c 0.50453,1e-5 1.18853,0.22091 1.60972,0.49868 0.26493,0.17471 0.51978,0.38624 0.69453,0.65112 0.28152,0.42671 0.38656,1.07267 0.38656,1.58388 V 249.288 c 0,0.51121 -0.10504,1.15718 -0.38656,1.58389 -0.17475,0.26488 -0.4296,0.47641 -0.69453,0.65112 -0.42119,0.27777 -1.10516,0.49868 -1.60972,0.49868 h -3.84059 c -2.02478,0 -3.9928,-1.30188 -5.42446,-2.73369 l -5.42449,-5.42499 4.03593,-4.07882 c 0.35499,-0.35875 0.67829,-1.07099 0.76377,-1.56838 0.15201,-0.88379 0.17831,-1.51373 0.0279,-2.39779 -0.0868,-0.51027 -0.36709,-1.2361 -0.65215,-1.66811 -0.34925,-0.52926 -0.67813,-1.02093 -1.3312,-1.47019 -0.82613,-0.56833 -1.8415,-1.0108 -2.84427,-1.0108 h -8.15866 v 1.34514 h 2.7342 c 0.50462,0 1.045,0.16864 1.46347,0.45062 0.25445,0.17145 0.60777,0.47819 0.77671,0.73432 0.28495,0.43209 0.45008,1.03167 0.45008,1.54926 v 1.34514 c 0,1.08491 -0.65085,2.03979 -1.60557,2.47375 l -5.16403,-5.20795 c -1.42111,-1.4332 -3.40617,-2.69028 -5.42449,-2.69028 h -9.50381 v 1.34514 h 2.7337 c 2.02486,0 3.99262,1.30247 5.42446,2.7342 l 5.42499,5.42447 -4.07934,4.03594 c -0.36788,0.36397 -0.89519,1.31743 -1.00976,1.82211 -0.20965,0.92362 -0.31004,1.13668 -0.079,2.00091 0.13028,0.48751 0.6768,1.22272 1.01028,1.60145 0.38537,0.43766 0.83733,0.84687 1.42367,1.38855 h -15.79644 c 0.74101,-0.23988 1.32074,-0.65787 1.67949,-1.19321 0.56187,-0.83845 1.05445,-1.87681 1.05471,-2.88613 V 237.0934 c 0,-1.0158 -0.32642,-2.23455 -0.88575,-3.0825 -0.34914,-0.52932 -0.81579,-0.996 -1.34514,-1.34514 -0.84775,-0.55916 -2.17802,-0.99684 -3.1936,-0.99684 h -21.69841 c -1.01557,0 -2.34583,0.43767 -3.1936,0.99684 -0.52933,0.34913 -0.99599,0.81582 -1.34514,1.34514 -0.55932,0.84794 -0.88573,2.0667 -0.88573,3.0825 v 12.1946 c 0,0.49807 0.18933,1.05751 0.46354,1.4733 0.18025,0.27332 0.42389,0.51029 0.69453,0.69453 0.41707,0.28393 0.96557,0.45277 1.5322,0.56586 h -13.06225 c 0.44838,-0.23134 0.93094,-0.40592 1.34514,-0.69402 0.26051,-0.18121 0.6438,-0.42965 0.81856,-0.69453 0.27788,-0.42121 0.5271,-0.84052 0.5271,-1.34514 v -12.1946 c 0,-1.0158 -0.32642,-2.23455 -0.88574,-3.0825 -0.34915,-0.52932 -0.81581,-0.996 -1.34514,-1.34514 -0.84776,-0.55916 -2.17803,-0.99684 -3.1936,-0.99684 H 208.1259 v -6.77013 c 0,-0.51121 0.2218,-1.1489 0.50332,-1.57561 0.17475,-0.26488 0.42962,-0.47641 0.69454,-0.65112 0.42119,-0.27777 0.98839,-0.50695 1.49293,-0.50695 z m -96.16674,10.84895 h 10.84947 c 0.50462,0 1.03517,0.22549 1.45365,0.50746 0.25444,0.17145 0.58039,0.48285 0.74931,0.73898 0.28496,0.43209 0.48731,0.97017 0.48731,1.48776 V 249.288 c 0,0.50454 -0.11084,1.14099 -0.38861,1.56218 -0.17471,0.26492 -0.39061,0.51281 -0.65112,0.69402 -0.4142,0.2881 -1.146,0.47749 -1.65054,0.47749 h -10.84947 c -0.51744,0 -1.09878,-0.24521 -1.52652,-0.5364 -0.26231,-0.17858 -0.53533,-0.49835 -0.71004,-0.76327 -0.27777,-0.42119 -0.49713,-0.92948 -0.49713,-1.43402 v -13.53974 c 0,-0.5176 0.25145,-1.07531 0.53641,-1.5074 0.16892,-0.25613 0.49369,-0.5804 0.74982,-0.74931 0.43203,-0.28491 0.92994,-0.47749 1.44746,-0.47749 z m 37.49487,0 h 10.84895 c 0.50462,0 1.09409,0.28697 1.51257,0.56896 0.25444,0.17145 0.48216,0.3945 0.65112,0.6506 0.28508,0.43211 0.5271,0.99697 0.5271,1.51464 V 249.288 c 0,0.50462 -0.13811,1.10532 -0.416,1.52652 -0.17476,0.26488 -0.39061,0.51333 -0.65112,0.69454 -0.4142,0.2881 -1.11913,0.51263 -1.62367,0.51263 h -10.84895 c -0.5176,0 -1.22579,-0.22136 -1.65365,-0.51263 -0.26223,-0.17852 -0.47596,-0.42972 -0.65061,-0.69454 -0.27782,-0.42125 -0.42994,-1.0219 -0.42994,-1.52652 v -13.53974 c 0,-0.51767 0.23227,-1.18377 0.51728,-1.61592 0.16885,-0.25604 0.39457,-0.48176 0.6506,-0.65061 0.43216,-0.285 1.04865,-0.46767 1.56632,-0.46767 z m 58.67187,0 h 10.84895 c 0.50477,0 1.147,0.2213 1.56838,0.4992 0.26472,0.17457 0.51557,0.38848 0.69401,0.6506 0.29132,0.42792 0.47181,1.06673 0.47181,1.5844 V 249.288 c 0,0.50462 -0.14598,1.15074 -0.42995,1.56787 -0.18418,0.27055 -0.42347,0.51035 -0.69402,0.69453 -0.41719,0.28402 -1.10554,0.47129 -1.61023,0.47129 h -10.84895 c -0.50454,0 -1.1942,-0.12432 -1.61127,-0.40825 -0.27064,-0.18425 -0.51423,-0.42124 -0.69453,-0.69453 -0.27432,-0.41581 -0.38499,-1.13277 -0.38499,-1.63091 v -13.53974 c 0,-0.51136 0.21603,-1.17151 0.49764,-1.59835 0.17469,-0.26478 0.42971,-0.47596 0.69453,-0.65061 0.42126,-0.27781 0.994,-0.48524 1.49862,-0.48524 z m 40.20685,0 h 10.84895 c 0.48307,0 1.1253,0.2213 1.54667,0.4992 0.26472,0.17457 0.51557,0.38848 0.694,0.6506 0.29134,0.42792 0.47181,1.06673 0.47183,1.5844 V 249.288 c 0,0.50462 -0.10257,1.15074 -0.38655,1.56787 -0.18418,0.27055 -0.42347,0.51035 -0.694,0.69453 -0.4172,0.28402 -1.10557,0.47129 -1.61026,0.47129 h -10.84894 c -0.50454,0 -1.1942,-0.12432 -1.61127,-0.40825 -0.27064,-0.18425 -0.51423,-0.42124 -0.69453,-0.69453 -0.27432,-0.41581 -0.4284,-1.13277 -0.4284,-1.63091 v -13.53974 c 0,-0.51136 0.21602,-1.17151 0.49764,-1.59835 0.17468,-0.26478 0.42972,-0.47596 0.69454,-0.65061 0.42125,-0.27781 0.99398,-0.48524 1.52032,-0.48524 z m 41.81242,12.45506 5.16456,5.16402 c 0.72271,0.72265 1.52979,1.10687 2.73367,1.38855 h -6.7696 c -0.5176,0 -1.21753,-0.22549 -1.64539,-0.51677 -0.26223,-0.17851 -0.47596,-0.42971 -0.65061,-0.69453 -0.27781,-0.42125 -0.4382,-1.01777 -0.4382,-1.52239 v -1.34565 c 0,-1.08492 0.65087,-2.03928 1.60557,-2.47323 z"
       sodipodi:nodetypes="ssssssccsssssssscccccccssssssscccccsssssssscsssssssscccsccsssssssscsssssssssssssccssssssssssssscssssssssccsscssccsccccsssssssssscccssssccssssscssccssccsssccscsssssssssssccssssssscssssssssssssssssssssssssssssssssssssssssssssssssssssssssssscsssssssssssscccsssssc" />
    <path
       id="path74563"
       style="font-size:86.7932px;line-height:0.65;font-family:Tool;-inkscape-font-specification:Tool;text-align:center;text-anchor:middle;display:inline;stroke:#000000;stroke-width:0.276;stroke-miterlimit:4;stroke-dasharray:none;stroke-opacity:1"
       d="m 144.24656,146.63319 c -0.50477,0 -1.42943,0.23598 -1.87777,0.46789 -1.02052,0.52787 -1.52033,1.15771 -1.82236,1.81888 -0.21504,0.47073 -0.3792,1.27505 -0.3792,1.79257 v 4.03593 c 0,1.51888 -1.21532,2.73368 -2.6908,2.73368 h -2.73368 v 1.34565 h 2.73368 c 0.50469,0 1.06508,0.21491 1.48362,0.49694 0.25445,0.17145 0.56051,0.44425 0.72943,0.70039 0.28492,0.43203 0.47775,1.01884 0.47775,1.53636 v 13.53974 c 0,0.50477 0.274,1.60506 0.56911,2.01457 0.57442,0.7971 0.68461,0.91477 1.48172,1.43992 0.42151,0.2777 1.52373,0.62485 2.0285,0.62485 h 3.60185 8.59224 21.22093 51.07801 21.17752 c 1.01557,0 1.98857,-0.54328 2.83223,-1.10864 0.53543,-0.35881 0.94588,-0.74974 1.32594,-1.2703 0.29379,-0.40239 0.57178,-1.20217 0.57178,-1.7004 v -2.69028 c 0,-1.01572 -0.17884,-1.7016 -0.87214,-2.57653 -0.19063,-0.24058 -0.84958,-0.67153 -1.12412,-0.80879 l -12.2375,-6.11849 c -0.28384,-0.14191 -0.65112,-0.35747 -0.65112,-1.09854 v -1.39916 c 0,-0.39563 0.26041,-0.94508 0.62156,-1.18324 0.43197,-0.28487 0.90067,-0.3984 1.41811,-0.3984 h 6.13037 5.43068 c 1.00284,0 2.15913,-0.5077 2.94699,-1.119 0.50914,-0.39504 0.87678,-0.75588 1.26215,-1.27237 0.30571,-0.40973 0.52132,-1.17675 0.52132,-1.68796 v -4.03593 c 0,-0.51121 -0.14851,-1.46058 -0.40575,-1.90237 -0.30656,-0.52647 -0.69286,-0.92755 -1.23089,-1.28244 -0.83706,-0.55214 -2.09106,-0.89453 -3.09382,-0.89453 h -24.62331 -53.76829 -18.53065 -5.90197 z m 6.76961,1.34514 h 5.42448 18.53065 53.76829 23.27817 c 0.50462,0 1.06329,0.23547 1.4845,0.51336 0.26488,0.17476 0.60339,0.51167 0.77814,0.77655 0.28152,0.42671 0.42815,0.93308 0.42815,1.44429 v 4.03593 c 0,0.51121 -0.23024,1.05938 -0.51176,1.48609 -0.17475,0.26488 -0.44355,0.51823 -0.70847,0.69294 -0.42119,0.27777 -0.96602,0.55465 -1.47056,0.55465 h -4.08554 -11.55485 c -1.0158,0 -2.02561,0.54942 -2.87356,1.10874 -0.52932,0.34915 -0.91019,0.80904 -1.28939,1.31727 -0.30948,0.41479 -0.61092,1.13581 -0.61092,1.65333 v 2.69079 c 0,1.01557 0.38896,1.55724 0.91313,2.42709 0.16379,0.2718 0.84291,0.81539 1.12654,0.95771 l 12.19461,6.11901 c 0.4457,0.22365 0.69401,0.57629 0.69401,1.01505 v 1.67574 c 0,0.32716 -0.3121,0.7886 -0.58252,0.97274 -0.4171,0.28402 -0.95201,0.41581 -1.45663,0.41581 h -18.48725 c -0.50462,0 -1.09523,-0.18759 -1.51236,-0.47156 -0.27054,-0.18418 -0.59796,-0.44867 -0.77814,-0.72189 -0.2743,-0.41592 -0.39977,-1.04252 -0.39977,-1.54075 v -12.19409 c 0,-1.02227 -0.33763,-2.23133 -0.90679,-3.0805 -0.35305,-0.52673 -1.10471,-1.11472 -1.63231,-1.46647 -0.83439,-0.5563 -1.88305,-0.87802 -2.88589,-0.87802 h -40.70604 v 1.34565 h 2.7342 c 0.50454,0 1.05213,0.16821 1.48448,0.42924 0.26277,0.15865 0.64961,0.5302 0.81309,0.78999 0.28499,0.45288 0.39322,0.99694 0.39322,1.51446 v 12.1946 c 0,1.00276 0.34096,1.94139 0.89919,2.7744 0.36439,0.54376 1.07734,0.97988 1.83449,1.30494 H 174.9713 c -0.51767,0 -1.18411,-0.30566 -1.61203,-0.59698 -0.26212,-0.17845 -0.47603,-0.42931 -0.65061,-0.69402 -0.2779,-0.42139 -0.47156,-0.93843 -0.47156,-1.4432 v -12.19409 c 0,-1.01572 -0.25638,-2.12318 -0.81558,-2.97111 -0.3491,-0.52935 -1.10846,-1.16322 -1.63778,-1.51237 -0.84795,-0.55932 -1.95531,-0.94151 -2.97111,-0.94151 h -8.11527 v 1.34565 h 2.69079 c 0.50454,0 1.06993,0.21396 1.47056,0.54769 0.29188,0.24314 0.52292,0.46545 0.7015,0.72777 0.29119,0.42773 0.56162,0.94079 0.56162,1.45823 v 13.53974 c 0,0.50469 -0.24277,1.01207 -0.52678,1.42926 -0.18418,0.27054 -0.42399,0.50984 -0.69453,0.69402 -0.41713,0.28397 -1.00775,0.61092 -1.51237,0.61092 h -4.9475 -5.42448 c -0.50462,0 -1.1231,-0.2712 -1.54023,-0.55517 -0.27054,-0.18418 -0.51435,-0.4208 -0.69453,-0.69402 -0.2743,-0.41592 -0.45551,-0.98678 -0.45551,-1.48501 v -13.53974 c 0,-0.51114 0.19184,-1.0801 0.47324,-1.5068 0.17471,-0.26492 0.54786,-0.55524 0.81278,-0.72995 0.42119,-0.27777 0.89971,-0.49694 1.40425,-0.49694 h 2.73421 v -1.34565 h -2.73421 c -1.47548,0 -2.69027,-1.2148 -2.69027,-2.73368 v -4.03593 c 0,-0.51114 0.17889,-1.03899 0.46029,-1.46569 0.17471,-0.26492 0.48201,-0.61164 0.74689,-0.7864 0.42121,-0.27789 0.97847,-0.48211 1.48309,-0.48211 z m 42.44186,10.84946 h 2.7342 c 0.50454,0 1.11943,0.16432 1.53785,0.44626 0.25455,0.17152 0.60109,0.45979 0.77007,0.71603 0.28488,0.43197 0.38235,1.05396 0.38235,1.5714 v 12.1946 c 0,1.00284 0.28489,2.01055 0.9515,2.75977 0.49254,0.55358 0.65368,0.6692 1.7827,1.31957 h -8.15867 c -0.50462,0 -1.11524,-0.29231 -1.53237,-0.57628 -0.27054,-0.18418 -0.48474,-0.41098 -0.66497,-0.68417 -0.27441,-0.41594 -0.49345,-0.97545 -0.49345,-1.47375 v -13.53974 c 0,-0.51121 0.15331,-1.13823 0.43483,-1.56494 0.17475,-0.26488 0.51541,-0.54369 0.78033,-0.7184 0.42119,-0.27777 0.97109,-0.45035 1.47563,-0.45035 z m 16.27394,0 h 2.73368 c 0.50469,0 1.15347,0.084 1.57201,0.36603 0.25445,0.17145 0.56122,0.46705 0.73014,0.72319 0.28492,0.43203 0.38864,1.12695 0.38864,1.64447 v 12.1946 c 0,1.00276 0.1728,1.85093 0.56667,2.53312 0.43097,0.74647 1.07803,1.04016 2.16702,1.54622 h -8.15816 c -0.50477,0 -1.07621,-0.2528 -1.49347,-0.53686 -0.27044,-0.18411 -0.56316,-0.4012 -0.74328,-0.67432 -0.27434,-0.41598 -0.45404,-1.02472 -0.45404,-1.52302 v -13.53974 c 0,-0.51121 0.21012,-1.15021 0.49156,-1.57697 0.17464,-0.26481 0.39267,-0.48893 0.65748,-0.66357 0.42132,-0.27786 1.03706,-0.49315 1.54175,-0.49315 z m -42.91934,25.77724 c -1.47549,0 -2.6908,1.2153 -2.6908,2.6908 0,1.51887 1.17192,2.73419 2.6908,2.73419 1.51888,0 2.7342,-1.21532 2.7342,-2.73419 0,-1.4755 -1.21532,-2.6908 -2.7342,-2.6908 z" />
    <path
       style="fill:none;stroke:#000000;stroke-width:0.264583px;stroke-linecap:butt;stroke-linejoin:miter;stroke-opacity:1"
       d="M 54.999999,105 H 345"
       id="path104473" />
    <path
       style="fill:none;stroke:#000000;stroke-width:0.264583px;stroke-linecap:butt;stroke-linejoin:miter;stroke-opacity:1"
       d="M 54.999999,295.00001 H 345"
       id="path104475" />
  </g>
</svg>
