<?xml version="1.0" encoding="UTF-8" standalone="no"?>
<!-- Created with Inkscape (http://www.inkscape.org/) -->

<svg
   width="297mm"
   height="210mm"
   viewBox="0 0 297 210"
   version="1.1"
   id="svg5"
   inkscape:version="1.4.2 (f4327f4, 2025-05-13)"
   sodipodi:docname="Borrelafscheid Iris.svg"
   xmlns:inkscape="http://www.inkscape.org/namespaces/inkscape"
   xmlns:sodipodi="http://sodipodi.sourceforge.net/DTD/sodipodi-0.dtd"
   xmlns="http://www.w3.org/2000/svg"
   xmlns:svg="http://www.w3.org/2000/svg">
  <sodipodi:namedview
     id="namedview7"
     pagecolor="#ffffff"
     bordercolor="#999999"
     borderopacity="1"
     inkscape:showpageshadow="0"
     inkscape:pageopacity="0"
     inkscape:pagecheckerboard="0"
     inkscape:deskcolor="#d1d1d1"
     inkscape:document-units="mm"
     showgrid="false"
     inkscape:zoom="2.025849"
     inkscape:cx="573.09306"
     inkscape:cy="410.19839"
     inkscape:window-width="2560"
     inkscape:window-height="1494"
     inkscape:window-x="-11"
     inkscape:window-y="-11"
     inkscape:window-maximized="1"
     inkscape:current-layer="layer1">
    <inkscape:grid
       type="xygrid"
       id="grid4842"
       originx="0"
       originy="0"
       spacingy="1"
       spacingx="1"
       units="mm" />
  </sodipodi:namedview>
  <defs
     id="defs2" />
  <g
     inkscape:label="Layer 1"
     inkscape:groupmode="layer"
     id="layer1">
    <rect
       style="fill:#e1cc8a;fill-opacity:0.997881;stroke:#ff0000;stroke-width:1"
       id="rect6"
       width="180"
       height="50"
       x="58.5"
       y="80"
       rx="5" />
    <path
       id="rect4840"
       style="opacity:1;fill-rule:evenodd;stroke-width:0.264999"
       d="m 217.09282,108.38415 c -0.40494,-0.0127 -0.87621,-0.006 -1.32601,0.01 -0.0621,0.002 -0.12392,0.004 -0.18501,0.007 H 81.090272 c -0.405625,-0.012 -0.820314,-0.0165 -1.182873,-0.005 v 5.2e-4 c -0.40494,0.0127 -0.736902,0.0395 -0.949296,0.11524 -0.769375,0.27425 -1.186027,1.0988 -0.919841,1.8433 0.266182,0.7445 1.106779,1.12041 1.836064,0.86351 0.199616,-0.0703 0.348589,-0.21527 0.496093,-0.38861 0.147503,-0.17333 0.298272,-0.38159 0.498161,-0.60926 0.139518,-0.15891 0.303412,-0.32782 0.506429,-0.50023 H 215.63968 c 0.19666,0.16825 0.35613,0.33304 0.49248,0.48834 0.19989,0.22767 0.34858,0.43593 0.49609,0.60927 0.1475,0.17333 0.29649,0.31829 0.4961,0.3886 0.72929,0.2569 1.57143,-0.11849 1.83761,-0.86299 0.26619,-0.7445 -0.15253,-1.56956 -0.92191,-1.84382 -0.2124,-0.0757 -0.54228,-0.10253 -0.94723,-0.11524 z m -99.48409,14.1199 h -5.69081 v -0.15689 q 2.6172,-3.1164 3.17345,-4.19323 0.56337,-1.07683 0.56337,-2.10375 0,-0.74879 -0.46353,-1.24085 -0.46354,-0.4992 -1.13389,-0.4992 -1.09823,0 -1.70439,1.09823 l -0.26386,-0.0927 q 0.38509,-1.36922 1.16954,-2.0253 0.78445,-0.65609 1.81136,-0.65609 0.73453,0 1.3407,0.34231 0.60616,0.3423 0.94847,0.94134 0.3423,0.5919 0.3423,1.11249 0,0.94847 -0.52772,1.92546 -0.72027,1.3193 -3.14492,3.67978 h 2.08948 q 0.77019,0 0.99839,-0.0642 0.23533,-0.0642 0.38509,-0.21395 0.14976,-0.15688 0.39223,-0.64895 h 0.25673 z m 8.02277,-4.83505 q 0,1.44766 -0.40649,2.70278 -0.24246,0.77018 -0.65608,1.26225 -0.40649,0.49206 -0.92708,0.78445 -0.52059,0.28525 -1.13388,0.28525 -0.69887,0 -1.26225,-0.35657 -0.56338,-0.35657 -0.99839,-1.01978 -0.31378,-0.48493 -0.54911,-1.29077 -0.30665,-1.0911 -0.30665,-2.25351 0,-1.57603 0.44214,-2.89533 0.3637,-1.09109 1.10536,-1.66873 0.74166,-0.58477 1.5689,-0.58477 0.8415,0 1.5689,0.57764 0.73452,0.5705 1.07683,1.54037 0.4778,1.33356 0.4778,2.91672 z m -2.19646,-0.0143 q 0,-2.53876 -0.0285,-2.95951 -0.0713,-0.99126 -0.34231,-1.3407 -0.17828,-0.2282 -0.57764,-0.2282 -0.30664,0 -0.48493,0.17115 -0.26386,0.2496 -0.35656,0.88429 -0.0927,0.62756 -0.0927,4.40004 0,2.05383 0.14263,2.7527 0.10697,0.50633 0.30664,0.67748 0.19968,0.17115 0.52772,0.17115 0.35657,0 0.53485,-0.2282 0.29952,-0.39935 0.34231,-1.23372 z m 8.77869,4.84931 h -5.69081 v -0.15689 q 2.6172,-3.1164 3.17345,-4.19323 0.56337,-1.07683 0.56337,-2.10375 0,-0.74879 -0.46353,-1.24085 -0.46354,-0.49919 -1.13389,-0.49919 -1.09823,0 -1.70439,1.09822 l -0.26386,-0.0927 q 0.38509,-1.36922 1.16954,-2.0253 0.78445,-0.65608 1.81136,-0.65608 0.73453,0 1.3407,0.3423 0.60616,0.3423 0.94847,0.94134 0.3423,0.5919 0.3423,1.11249 0,0.94847 -0.52772,1.92546 -0.72027,1.3193 -3.14492,3.67978 h 2.08948 q 0.77019,0 0.99839,-0.0642 0.23533,-0.0642 0.38509,-0.21394 0.14976,-0.15689 0.39223,-0.64896 h 0.25673 z m 6.01173,-9.86978 v 7.90866 q 0,0.89142 0.0784,1.14102 0.0785,0.24246 0.32805,0.39935 0.24959,0.15689 0.79871,0.15689 h 0.22107 v 0.26386 h -5.09178 v -0.26386 h 0.25672 q 0.62043,0 0.88429,-0.14262 0.26386,-0.14263 0.35657,-0.39223 0.0927,-0.24959 0.0927,-1.16241 v -5.01334 q 0,-0.67034 -0.0642,-0.83436 -0.0642,-0.17116 -0.24246,-0.28526 -0.17115,-0.12123 -0.39936,-0.12123 -0.3637,0 -0.88428,0.2282 l -0.12837,-0.25673 3.55854,-1.62594 z m 7.06003,7.25258 h -4.15757 v -1.47619 h 4.15757 z m 6.39682,2.6172 h -5.69081 v -0.15689 q 2.6172,-3.1164 3.17345,-4.19323 0.56337,-1.07683 0.56337,-2.10375 0,-0.74879 -0.46354,-1.24085 -0.46353,-0.49919 -1.13388,-0.49919 -1.09823,0 -1.70439,1.09822 l -0.26386,-0.0927 q 0.38509,-1.36922 1.16954,-2.0253 0.78445,-0.65608 1.81136,-0.65608 0.73453,0 1.34069,0.3423 0.60617,0.3423 0.94847,0.94134 0.34231,0.5919 0.34231,1.11249 0,0.94847 -0.52772,1.92546 -0.72027,1.3193 -3.14493,3.67978 h 2.08949 q 0.77019,0 0.99839,-0.0642 0.23533,-0.0642 0.38509,-0.21394 0.14976,-0.15689 0.39223,-0.64896 h 0.25672 z m 8.02277,-4.83505 q 0,1.44766 -0.40649,2.70278 -0.24247,0.77019 -0.65609,1.26225 -0.40648,0.49206 -0.92707,0.78445 -0.52059,0.28525 -1.13389,0.28525 -0.69887,0 -1.26224,-0.35657 -0.56338,-0.35656 -0.99839,-1.01978 -0.31378,-0.48493 -0.54912,-1.29077 -0.30664,-1.0911 -0.30664,-2.25351 0,-1.57603 0.44214,-2.89533 0.3637,-1.09109 1.10536,-1.66873 0.74166,-0.58477 1.56889,-0.58477 0.8415,0 1.5689,0.57764 0.73453,0.57051 1.07683,1.54037 0.47781,1.33356 0.47781,2.91672 z m -2.19646,-0.0143 q 0,-2.53876 -0.0285,-2.95951 -0.0713,-0.99126 -0.3423,-1.34069 -0.17828,-0.22821 -0.57764,-0.22821 -0.30665,0 -0.48493,0.17116 -0.26386,0.24959 -0.35657,0.88428 -0.0927,0.62756 -0.0927,4.40005 0,2.05382 0.14263,2.7527 0.10697,0.50632 0.30665,0.67747 0.19968,0.17116 0.52772,0.17116 0.35657,0 0.53485,-0.22821 0.29952,-0.39935 0.3423,-1.23372 z m 8.77869,4.84932 h -5.69081 v -0.15689 q 2.6172,-3.1164 3.17345,-4.19324 0.56337,-1.07683 0.56337,-2.10374 0,-0.74879 -0.46354,-1.24086 -0.46353,-0.49919 -1.13388,-0.49919 -1.09823,0 -1.70439,1.09822 l -0.26386,-0.0927 q 0.38509,-1.36921 1.16954,-2.0253 0.78445,-0.65608 1.81136,-0.65608 0.73453,0 1.34069,0.3423 0.60617,0.34231 0.94847,0.94134 0.34231,0.5919 0.34231,1.11249 0,0.94847 -0.52772,1.92546 -0.72027,1.3193 -3.14493,3.67978 h 2.08949 q 0.77018,0 0.99839,-0.0642 0.23533,-0.0642 0.38509,-0.21394 0.14976,-0.15689 0.39222,-0.64895 h 0.25673 z m 3.4801,-9.67011 h 4.52841 l -0.72027,1.83989 h -3.80814 l -0.3637,0.96273 q 2.46032,0.0927 3.78675,1.22659 1.09109,0.93421 1.09109,2.32482 0,0.89142 -0.50632,1.74718 -0.50633,0.84863 -1.42627,1.31217 -0.91995,0.4564 -2.01817,0.4564 -1.18381,0 -1.8185,-0.44214 -0.44214,-0.31378 -0.44214,-0.71313 0,-0.30665 0.2282,-0.54199 0.23534,-0.23533 0.54198,-0.23533 0.27813,0 0.56338,0.1141 0.28526,0.1141 0.977,0.59903 0.43501,0.29952 0.74879,0.41362 0.22107,0.0856 0.49919,0.0856 0.58477,0 0.99126,-0.42788 0.41362,-0.42788 0.41362,-1.02691 0,-1.25512 -1.25512,-2.03957 -1.25512,-0.78445 -3.16632,-0.78445 -0.19254,0 -0.57764,0.007 z m -57.1958,-7.64474 v 0.478 h -7.506 v -0.478 h 0.62012 q 1.0852,0 1.57613,-0.63304 0.31006,-0.41341 0.31006,-1.98954 V 91.249508 q 0,-1.330667 -0.16795,-1.756997 -0.12919,-0.322977 -0.52968,-0.555521 -0.56844,-0.310058 -1.18856,-0.310058 h -0.62012 v -0.478006 h 7.506 v 0.478006 h -0.63304 q -1.07228,0 -1.56321,0.633036 -0.32298,0.413411 -0.32298,1.98954 v 11.317122 q 0,1.33067 0.16795,1.757 0.12919,0.32298 0.5426,0.55552 0.55552,0.31006 1.17564,0.31006 z m 4.93509,-11.704699 v 2.661333 q 1.4857,-2.661333 3.04891,-2.661333 0.71055,0 1.17563,0.439249 0.46509,0.42633 0.46509,0.99477 0,0.503844 -0.3359,0.85266 -0.33589,0.348815 -0.80098,0.348815 -0.45217,0 -1.02061,-0.439249 -0.55552,-0.452168 -0.82682,-0.452168 -0.23254,0 -0.50384,0.258382 -0.58136,0.529683 -1.20148,1.744077 v 5.671483 q 0,0.98185 0.24546,1.48569 0.16795,0.34882 0.59428,0.58136 0.42633,0.23255 1.22731,0.23255 v 0.46508 h -6.05905 v -0.46508 q 0.90434,0 1.34359,-0.28422 0.32297,-0.20671 0.45216,-0.65888 0.0646,-0.21962 0.0646,-1.25315 v -4.586276 q 0,-2.067055 -0.0904,-2.454628 -0.0775,-0.400492 -0.31006,-0.581359 -0.21963,-0.180867 -0.55552,-0.180867 -0.40049,0 -0.90434,0.193786 l -0.12919,-0.465087 3.57859,-1.446938 z m 8.35865,-6.188245 q 0.5426,0 0.91726,0.387573 0.38757,0.374653 0.38757,0.917255 0,0.542602 -0.38757,0.930175 -0.37466,0.387572 -0.91726,0.387572 -0.5426,0 -0.93017,-0.387572 -0.38758,-0.387573 -0.38758,-0.930175 0,-0.542602 0.37466,-0.917255 0.38757,-0.387573 0.94309,-0.387573 z m 1.07229,6.188245 v 9.508449 q 0,1.11104 0.15503,1.4857 0.16794,0.36173 0.478,0.5426 0.32298,0.18087 1.16272,0.18087 v 0.46508 h -5.749 v -0.46508 q 0.86558,0 1.16272,-0.16795 0.29714,-0.16795 0.46509,-0.55552 0.18087,-0.38757 0.18087,-1.4857 v -4.560437 q 0,-1.924945 -0.11627,-2.493385 -0.0904,-0.413411 -0.28422,-0.56844 -0.19379,-0.167948 -0.52969,-0.167948 -0.36173,0 -0.8785,0.193786 l -0.18086,-0.465087 3.56567,-1.446938 z m 10.91663,0 v 4.030756 h -0.42633 q -0.49093,-1.899106 -1.26607,-2.583818 -0.76223,-0.684712 -1.95078,-0.684712 -0.90434,0 -1.45986,0.478006 -0.55552,0.478007 -0.55552,1.059366 0,0.723469 0.41341,1.240233 0.40049,0.529683 1.6278,1.123961 l 1.88619,0.917255 q 2.62258,1.278992 2.62258,3.371882 0,1.61489 -1.22732,2.60966 -1.21439,0.98185 -2.72592,0.98185 -1.08521,0 -2.48047,-0.38757 -0.42633,-0.1292 -0.69763,-0.1292 -0.29714,0 -0.46509,0.3359 h -0.42633 v -4.22454 h 0.42633 q 0.36174,1.80867 1.38234,2.72593 1.02061,0.91725 2.28668,0.91725 0.89142,0 1.44694,-0.51676 0.56844,-0.52968 0.56844,-1.26607 0,-0.89142 -0.63303,-1.49862 -0.62012,-0.60719 -2.49339,-1.53737 -1.87327,-0.930174 -2.45463,-1.679481 -0.58136,-0.736388 -0.58136,-1.860349 0,-1.459857 0.99477,-2.441708 1.00769,-0.981851 2.59674,-0.981851 0.69763,0 1.6924,0.297139 0.65888,0.193786 0.8785,0.193786 0.20671,0 0.32298,-0.09043 0.11627,-0.09043 0.2713,-0.400492 z m 20.65763,3.242692 q 1.82159,0.387572 2.72593,1.240232 1.25315,1.188557 1.25315,2.906795 0,1.30483 -0.82682,2.50631 -0.82682,1.18855 -2.27376,1.74407 -1.43402,0.5426 -4.39249,0.5426 h -8.26822 v -0.478 h 0.65887 q 1.09812,0 1.57613,-0.69763 0.29714,-0.45217 0.29714,-1.92495 V 91.249508 q 0,-1.627806 -0.37465,-2.054136 -0.50385,-0.56844 -1.49862,-0.56844 h -0.65887 v -0.478006 h 7.57059 q 2.11873,0 3.39772,0.310058 1.93786,0.465087 2.95847,1.653644 1.02061,1.175637 1.02061,2.713009 0,1.317747 -0.80099,2.364194 -0.80098,1.033527 -2.36419,1.537372 z m -6.7696,-0.697631 q 0.478,0.09043 1.0852,0.14211 0.62012,0.03876 1.3565,0.03876 1.88619,0 2.82928,-0.400492 0.95602,-0.413411 1.45986,-1.253152 0.50385,-0.839741 0.50385,-1.834511 0,-1.537372 -1.25316,-2.622575 -1.25315,-1.085204 -3.6561,-1.085204 -1.29191,0 -2.32543,0.28422 z m 0,8.371568 q 1.49861,0.34882 2.95847,0.34882 2.33835,0 3.56567,-1.04645 1.22731,-1.05936 1.22731,-2.60965 0,-1.02061 -0.55552,-1.963706 -0.55552,-0.943094 -1.80867,-1.485696 -1.25316,-0.542602 -3.10059,-0.542602 -0.80098,0 -1.36942,0.02584 -0.56844,0.02584 -0.91725,0.09043 z m 18.81019,-10.916629 q 2.68717,0 4.31498,2.041216 1.38234,1.744078 1.38234,4.004919 0,1.589044 -0.76223,3.216854 -0.76222,1.62781 -2.10581,2.45463 -1.33067,0.82682 -2.97139,0.82682 -2.67425,0 -4.25038,-2.13165 -1.33067,-1.79575 -1.33067,-4.030758 0,-1.627806 0.80099,-3.229773 0.8139,-1.614886 2.13165,-2.377113 1.31774,-0.775145 2.79052,-0.775145 z m -0.40049,0.839741 q -0.68471,0 -1.38235,0.413411 -0.68471,0.400491 -1.11104,1.4211 -0.42633,1.020608 -0.42633,2.622575 0,2.583822 1.02061,4.457082 1.03353,1.87327 2.71301,1.87327 1.25315,0 2.06706,-1.03352 0.8139,-1.03353 0.8139,-3.55275 0,-3.152263 -1.35651,-4.960936 -0.91725,-1.240232 -2.33835,-1.240232 z m 7.36388,-0.490926 h 5.56813 v 0.478007 q -0.52969,0 -0.74931,0.180867 -0.20671,0.180867 -0.20671,0.478006 0,0.310058 0.45217,0.956013 0.14211,0.206705 0.42633,0.645955 l 0.83974,1.343585 0.96894,-1.343585 q 0.93017,-1.27899 0.93017,-1.614887 0,-0.271301 -0.21962,-0.452168 -0.21963,-0.193786 -0.71055,-0.193786 v -0.478007 h 4.00491 v 0.478007 q -0.63303,0.03876 -1.09812,0.348815 -0.63303,0.439249 -1.73116,1.912026 l -1.61488,2.157488 2.94555,4.237458 q 1.0852,1.56321 1.55029,1.88619 0.46509,0.31006 1.20148,0.34882 v 0.46508 h -5.58105 v -0.46508 q 0.58136,0 0.90433,-0.25838 0.24547,-0.18087 0.24547,-0.47801 0,-0.29714 -0.82682,-1.49862 l -1.73116,-2.53214 -1.89911,2.53214 q -0.8785,1.17564 -0.8785,1.39527 0,0.31005 0.28422,0.56844 0.29714,0.24546 0.8785,0.2713 v 0.46508 h -3.86281 v -0.46508 q 0.46509,-0.0646 0.81391,-0.32298 0.49092,-0.37465 1.65364,-1.91203 l 2.48046,-3.294364 -2.24792,-3.255612 q -0.95601,-1.395261 -1.48569,-1.744077 -0.51677,-0.361734 -1.30483,-0.361734 z" />
    <g
       id="path4943"
       style="opacity:1" />
    <g
       id="path4943-8"
       style="opacity:1" />
  </g>
</svg>
