<?xml version="1.0" encoding="UTF-8" standalone="no"?>
<!-- Uploaded to: SVG Repo, www.svgrepo.com, Generator: SVG Repo Mixer Tools -->

<svg
   fill="#000000"
   width="800px"
   height="800px"
   viewBox="0 0 24 24"
   version="1.1"
   id="svg1"
   sodipodi:docname="Heart Magnet.svg"
   inkscape:version="1.4.2 (f4327f4, 2025-05-13)"
   xmlns:inkscape="http://www.inkscape.org/namespaces/inkscape"
   xmlns:sodipodi="http://sodipodi.sourceforge.net/DTD/sodipodi-0.dtd"
   xmlns="http://www.w3.org/2000/svg"
   xmlns:svg="http://www.w3.org/2000/svg">
  <defs
     id="defs1" />
  <sodipodi:namedview
     id="namedview1"
     pagecolor="#ffffff"
     bordercolor="#000000"
     borderopacity="0.25"
     inkscape:showpageshadow="2"
     inkscape:pageopacity="0.0"
     inkscape:pagecheckerboard="0"
     inkscape:deskcolor="#d1d1d1"
     inkscape:document-units="mm"
     inkscape:zoom="1.51625"
     inkscape:cx="216.32317"
     inkscape:cy="564.88046"
     inkscape:window-width="2560"
     inkscape:window-height="1494"
     inkscape:window-x="-11"
     inkscape:window-y="-11"
     inkscape:window-maximized="1"
     inkscape:current-layer="svg1" />
  <path
     id="path10"
     style="fill:none;stroke:#ff0000;stroke-width:0.113386"
     d="M 10.252053,8.9305744 H 9.696462 v -0.555591 h 0.555591 l 5e-6,-2.8366282 H 9.696467 V 4.9827647 h 0.555591 l -3e-6,-2.5673315 c 0,-0.2243461 -0.04598,-0.3183244 -0.149386,-0.4099791 C 9.2514055,1.2509341 8.0738979,0.96896625 6.9663861,1.2657233 5.7925296,1.5802573 4.8756433,2.4971435 4.5611094,3.671 4.2465755,4.8448567 4.5821794,6.0973468 5.4415021,6.9566694 L 9.851846,11.367013 c 0.139119,0.139119 0.274325,0.130892 0.40021,0.130892 z"
     sodipodi:nodetypes="cccccccccssscscc" />
  <path
     id="path14"
     style="fill:none;stroke:#ff0000;stroke-width:0.113386"
     d="m 13.54655,8.8910034 h 0.555591 V 8.3354124 H 13.54655 l -5e-6,-2.8366285 h 0.555591 V 4.9431934 h -0.555591 l 3e-6,-2.5673315 c 0,-0.2243461 0.04598,-0.3183244 0.149386,-0.4099791 0.851264,-0.75452 2.028771,-1.03648785 3.136283,-0.7397308 1.173857,0.314534 2.090742,1.2314202 2.405276,2.4052767 0.314534,1.1738567 -0.02107,2.4263468 -0.880392,3.2856694 l -4.410344,4.4103439 c -0.139119,0.139119 -0.274325,0.130892 -0.40021,0.130892 z"
     sodipodi:nodetypes="cccccccccssscscc" />
  <path
     id="path15"
     style="fill:none;stroke:#ff0000;stroke-width:0.113386"
     d="m 10.252055,13.515003 c 0,-0.224346 -0.04598,-0.318324 -0.149386,-0.409979 -0.8512635,-0.75452 -2.0287711,-1.036488 -3.1362829,-0.739731 -1.1738565,0.314534 -2.0907428,1.231421 -2.4052767,2.405277 -0.3145339,1.173857 0.02107,2.426347 0.8803927,3.285669 l 4.4103439,4.410344 c 0.139119,0.139119 0.274325,0.130892 0.40021,0.130892 z"
     sodipodi:nodetypes="cssscscc" />
  <path
     id="path16"
     style="fill:none;stroke:#ff0000;stroke-width:0.113386"
     d="m 13.594978,13.710871 c 0,-0.224346 0.04598,-0.318324 0.149386,-0.409979 0.851264,-0.75452 2.028771,-1.036488 3.136283,-0.739731 1.173856,0.314534 2.090742,1.231421 2.405276,2.405277 0.314534,1.173857 -0.02107,2.426347 -0.880392,3.285669 l -4.410344,4.410344 c -0.139119,0.139119 -0.274325,0.130892 -0.40021,0.130892 z"
     sodipodi:nodetypes="cssscscc" />
</svg>
