<?xml version="1.0" encoding="UTF-8" standalone="no"?>
<!-- Created with Inkscape (http://www.inkscape.org/) -->

<svg
   width="400mm"
   height="400mm"
   viewBox="0 0 400 400"
   version="1.1"
   id="svg1"
   inkscape:version="1.4.2 (f4327f4, 2025-05-13)"
   sodipodi:docname="Inner Cube.svg"
   xmlns:inkscape="http://www.inkscape.org/namespaces/inkscape"
   xmlns:sodipodi="http://sodipodi.sourceforge.net/DTD/sodipodi-0.dtd"
   xmlns="http://www.w3.org/2000/svg"
   xmlns:svg="http://www.w3.org/2000/svg">
  <sodipodi:namedview
     id="namedview1"
     pagecolor="#ffffff"
     bordercolor="#000000"
     borderopacity="0.25"
     inkscape:showpageshadow="2"
     inkscape:pageopacity="0.0"
     inkscape:pagecheckerboard="0"
     inkscape:deskcolor="#d1d1d1"
     inkscape:document-units="mm"
     inkscape:zoom="0.54030233"
     inkscape:cx="636.68058"
     inkscape:cy="628.35191"
     inkscape:window-width="2560"
     inkscape:window-height="1494"
     inkscape:window-x="-11"
     inkscape:window-y="-11"
     inkscape:window-maximized="1"
     inkscape:current-layer="layer1" />
  <defs
     id="defs1" />
  <g
     inkscape:label="Layer 1"
     inkscape:groupmode="layer"
     id="layer1">
    <path
       id="rect42-1"
       style="fill:none;stroke:#ff0000;stroke-width:0.499999"
       transform="rotate(90)"
       d="m 159.94167,-254.11664 h 8 c 1.108,0 2,0.892 2,2 v 4 c 0,1.108 -0.892,2 -2,2 h -8 c -1.108,0 -2,-0.892 -2,-2 v -4 c 0,-1.108 0.892,-2 2,-2 z m 0,-44.00006 h 8 c 1.108,0 2,0.892 2,2 v 4 c 0,1.108 -0.892,2 -2,2 h -8 c -1.108,0 -2,-0.892 -2,-2 v -4 c 0,-1.108 0.892,-2 2,-2 z m 22,30 v -8 c 0,-1.108 0.892,-2 2,-2 h 4 c 1.108,0 2,0.892 2,2 v 8 c 0,1.108 -0.892,2 -2,2 h -4 c -1.108,0 -2,-0.892 -2,-2 z m -44,0 v -8 c 0,-1.108 0.892,-2 2,-2 h 4 c 1.108,0 2,0.892 2,2 v 8 c 0,1.108 -0.892,2 -2,2 h -4 c -1.108,0 -2,-0.892 -2,-2 z m 10.44364,8.02087 3.53553,3.53554 -3.53553,3.53553 -3.53554,-3.53553 z m 31.1127,-31.11269 3.53553,3.53553 -3.53553,3.53553 -3.53554,-3.53553 z m -3.53554,34.64823 3.53554,-3.53554 3.53553,3.53554 -3.53553,3.53553 z m -31.11271,-31.11272 3.53553,-3.53553 3.53554,3.53553 -3.53554,3.53554 z m 30.75857,46.75633 v 3.8 h -23.33334 v -3.8 h -23.33333 v -19.53333 h 3.8 v -23.33334 h -3.8 v -19.53333 h 23.33333 v -3.8 h 23.33334 v 3.8 h 23.33333 v 19.53333 h -3.8 v 23.33334 h 3.8 l 0,11.66666 h -11.66667 v 7.86667 z"
       sodipodi:nodetypes="ssssssssssssssssssssssssssssssssssssccccccccccccccccccccccccccccccccccccccccccc" />
    <path
       id="rect42-7"
       style="fill:none;stroke:#ff0000;stroke-width:0.499999"
       transform="rotate(90)"
       d="m 159.94167,-109.88335 h 8 c 1.108,0 2,0.892 2,2 v 4 c 0,1.108 -0.892,2 -2,2 h -8 c -1.108,0 -2,-0.892 -2,-2 v -4 c 0,-1.108 0.892,-2 2,-2 z m 0,-44.00001 h 8 c 1.108,0 2,0.892 2,2 v 4 c 0,1.108 -0.892,2 -2,2 h -8 c -1.108,0 -2,-0.892 -2,-2 v -4 c 0,-1.108 0.892,-2 2,-2 z m 22,30.00001 v -8 c 0,-1.108 0.892,-2 2,-2 h 4 c 1.108,0 2,0.892 2,2 v 8 c 0,1.108 -0.892,2 -2,2 h -4 c -1.108,0 -2,-0.892 -2,-2 z m -44,0 v -8 c 0,-1.108 0.892,-2 2,-2 h 4 c 1.108,0 2,0.892 2,2 v 8 c 0,1.108 -0.892,2 -2,2 h -4 c -1.108,0 -2,-0.892 -2,-2 z m 10.44364,8.02083 3.53553,3.53554 -3.53553,3.53553 -3.53553,-3.53553 z m 31.1127,-31.11269 3.53553,3.53553 -3.53553,3.53553 -3.53553,-3.53553 z m -3.53553,34.64823 3.53553,-3.53554 3.53553,3.53554 -3.53553,3.53553 z m -31.11271,-31.1127 3.53554,-3.53554 3.53553,3.53554 -3.53553,3.53553 z m 54.09189,3.88969 h -3.8 v 23.33334 h 3.8 v 19.533321 h -23.33333 v 3.8 h -23.33334 v -3.8 h -23.33333 v -19.533321 h 3.8 v -23.33334 h -3.8 v -19.53333 h 23.33333 v -3.8 h 23.33334 v 3.8 h 23.33333 z"
       sodipodi:nodetypes="ssssssssssssssssssssssssssssssssssssccccccccccccccccccccccccccccccccccccccccc" />
    <path
       id="rect42-9"
       style="fill:none;stroke:#ff0000;stroke-width:0.499999"
       transform="rotate(90)"
       d="m 232.05826,-109.88333 h 8 c 1.108,0 2,0.892 2,2 v 4 c 0,1.108 -0.892,2 -2,2 h -8 c -1.108,0 -2,-0.892 -2,-2 v -4 c 0,-1.108 0.892,-2 2,-2 z m 0,-43.99999 h 8 c 1.108,0 2,0.892 2,2 v 4 c 0,1.108 -0.892,2 -2,2 h -8 c -1.108,0 -2,-0.892 -2,-2 v -4 c 0,-1.108 0.892,-2 2,-2 z m 22,29.99999 v -8 c 0,-1.108 0.892,-2 2,-2 h 4 c 1.108,0 2,0.892 2,2 v 8 c 0,1.108 -0.892,2 -2,2 h -4 c -1.108,0 -2,-0.892 -2,-2 z m -44,0 v -8 c 0,-1.108 0.892,-2 2,-2 h 4 c 1.108,0 2,0.892 2,2 v 8 c 0,1.108 -0.892,2 -2,2 h -4 c -1.108,0 -2,-0.892 -2,-2 z m 10.4437,8.02082 3.53554,3.53553 -3.53554,3.53554 -3.53553,-3.53554 z m 31.11271,-31.11271 3.53553,3.53554 -3.53553,3.53553 -3.53554,-3.53553 z m -3.53555,34.64823 3.53553,-3.53553 3.53553,3.53553 -3.53553,3.53554 z m -31.1127,-31.11269 3.53554,-3.53554 3.53553,3.53554 -3.53553,3.53553 z m 30.75859,-19.44365 v 3.8 h -23.33334 v -3.8 h -23.33333 l 0,23.33333 h 3.8 v 23.33334 h -3.8 l 0,23.333337 h 23.33333 v -3.8 h 23.33334 v 3.8 h 23.33333 v -23.333337 h -3.8 V -139.55 h 3.8 v -23.33333 z"
       sodipodi:nodetypes="ssssssssssssssssssssssssssssssssssssccccccccccccccccccccccccccccccccccccccccc" />
    <path
       id="rect42-8"
       style="fill:none;stroke:#ff0000;stroke-width:0.499999"
       transform="rotate(90)"
       d="m 232.05832,-254.11668 h 8 c 1.108,0 2,0.892 2,2 v 4 c 0,1.108 -0.892,2 -2,2 h -8 c -1.108,0 -2,-0.892 -2,-2 v -4 c 0,-1.108 0.892,-2 2,-2 z m 0,-43.99999 h 8 c 1.108,0 2,0.892 2,2 v 4 c 0,1.108 -0.892,2 -2,2 h -8 c -1.108,0 -2,-0.892 -2,-2 v -4 c 0,-1.108 0.892,-2 2,-2 z m 22,30 v -8 c 0,-1.108 0.892,-2 2,-2 h 4 c 1.108,0 2,0.892 2,2 v 8 c 0,1.108 -0.892,2 -2,2 h -4 c -1.108,0 -2,-0.892 -2,-2 z m -44,0 v -8 c 0,-1.108 0.892,-2 2,-2 h 4 c 1.108,0 2,0.892 2,2 v 8 c 0,1.108 -0.892,2 -2,2 h -4 c -1.108,0 -2,-0.892 -2,-2 z m 10.44363,8.02079 3.53553,3.53554 -3.53553,3.53553 -3.53554,-3.53553 z m 31.11269,-31.1127 3.53554,3.53554 -3.53554,3.53553 -3.53553,-3.53553 z m -3.53552,34.64824 3.53553,-3.53553 3.53554,3.53553 -3.53554,3.53554 z m -31.1127,-31.1127 3.53553,-3.53553 3.53553,3.53553 -3.53553,3.53554 z m 30.75859,46.75636 v 3.8 h -23.33334 v -3.8 h -19.53333 v -19.53333 h -3.8 v -23.33334 h 3.8 v -19.53333 h 19.53333 v -3.8 h 23.33334 v 3.8 h 19.53333 v 19.53333 h 3.8 v 23.33334 h -3.8 v 19.53333 z"
       sodipodi:nodetypes="ssssssssssssssssssssssssssssssssssssccccccccccccccccccccccccccccccccccccccccc" />
    <path
       id="path42"
       style="fill:none;fill-opacity:1;stroke:#ff0000;stroke-width:0.499999;stroke-dasharray:none;stroke-opacity:1"
       d="M 223.33333,187.27499 H 235 v -11.66666 h -3.8 v -23.33334 h 3.8 v -23.33333 h -23.33333 v 3.8 h -23.33334 v -3.8 H 165 v 23.33333 h 3.8 v 23.33334 H 165 v 23.33333 h 23.33333 v -3.8 h 23.33334 v 3.8 h 11.66666 z M 182,159.94167 v 8 c 0,1.108 -0.892,2 -2,2 h -4 c -1.108,0 -2,-0.892 -2,-2 v -8 c 0,-1.108 0.892,-2 2,-2 h 4 c 1.108,0 2,0.892 2,2 z m 44,0 v 8 c 0,1.108 -0.892,2 -2,2 h -4 c -1.108,0 -2,-0.892 -2,-2 v -8 c 0,-1.108 0.892,-2 2,-2 h 4 c 1.108,0 2,0.892 2,2 z m -30,22 h 8 c 1.108,0 2,0.892 2,2 v 4 c 0,1.108 -0.892,2 -2,2 h -8 c -1.108,0 -2,-0.892 -2,-2 v -4 c 0,-1.108 0.892,-2 2,-2 z m 0,-44 h 8 c 1.108,0 2,0.892 2,2 v 4 c 0,1.108 -0.892,2 -2,2 h -8 c -1.108,0 -2,-0.892 -2,-2 v -4 c 0,-1.108 0.892,-2 2,-2 z m -8.02082,10.44364 -3.53553,3.53553 -3.53554,-3.53553 3.53554,-3.53554 z m 31.1127,31.11269 -3.53553,3.53554 -3.53554,-3.53554 3.53554,-3.53553 z m -34.64824,-3.53552 3.53554,3.53553 -3.53554,3.53553 -3.53553,-3.53553 z m 31.11271,-31.11271 3.53553,3.53553 -3.53553,3.53554 -3.53554,-3.53554 z"
       sodipodi:nodetypes="cccccccccccccccccccccccsssssssssssssssssssssssssssssssssssscccccccccccccccccccc" />
    <path
       id="path45"
       style="fill:none;fill-opacity:1;stroke:#ff0000;stroke-width:0.499999;stroke-dasharray:none;stroke-opacity:1"
       d="m 231.2,267.25834 h -19.53333 v 3.8 h -23.33334 v -3.8 H 168.8 V 247.72501 H 165 v -23.33334 h 3.8 v -19.53333 h 19.53333 v -3.8 h 23.33334 v 3.8 h 11.66666 v 7.86667 H 231.2 v 11.66666 h 3.8 v 23.33334 h -3.8 v 19.53333 M 182,232.0583 v 8 c 0,1.108 -0.892,2 -2,2 h -4 c -1.108,0 -2,-0.892 -2,-2 v -8 c 0,-1.108 0.892,-2 2,-2 h 4 c 1.108,0 2,0.892 2,2 z m 44,0 v 8 c 0,1.108 -0.892,2 -2,2 h -4 c -1.108,0 -2,-0.892 -2,-2 v -8 c 0,-1.108 0.892,-2 2,-2 h 4 c 1.108,0 2,0.892 2,2 z m -30,22 h 8 c 1.108,0 2,0.892 2,2 v 4 c 0,1.108 -0.892,2 -2,2 h -8 c -1.108,0 -2,-0.892 -2,-2 v -4 c 0,-1.108 0.892,-2 2,-2 z m 0,-44 h 8 c 1.108,0 2,0.892 2,2 v 4 c 0,1.108 -0.892,2 -2,2 h -8 c -1.108,0 -2,-0.892 -2,-2 v -4 c 0,-1.108 0.892,-2 2,-2 z m -8.02081,10.44369 -3.53554,3.53553 -3.53553,-3.53553 3.53553,-3.53553 z m 31.11267,31.11268 -3.53553,3.53553 -3.53553,-3.53553 3.53553,-3.53554 z m -34.64823,-3.53554 3.53553,3.53554 -3.53553,3.53553 -3.53553,-3.53553 z m 31.1127,-31.1127 3.53554,3.53554 -3.53554,3.53553 -3.53553,-3.53553 z"
       sodipodi:nodetypes="cccccccccccccccccccccccsssssssssssssssssssssssssssssssssssscccccccccccccccccccc" />
    <path
       id="rect42-1-8"
       style="fill:none;stroke:#ff0000;stroke-width:0.499999"
       d="m 254.11664,324.25849 v 8 c 0,1.108 -0.892,2 -2,2 h -4 c -1.108,0 -2,-0.892 -2,-2 v -8 c 0,-1.108 0.892,-2 2,-2 h 4 c 1.108,0 2,0.892 2,2 z m 44.00006,0 v 8 c 0,1.108 -0.892,2 -2,2 h -4 c -1.108,0 -2,-0.892 -2,-2 v -8 c 0,-1.108 0.892,-2 2,-2 h 4 c 1.108,0 2,0.892 2,2 z m -30,22 h 8 c 1.108,0 2,0.892 2,2 v 4 c 0,1.108 -0.892,2 -2,2 h -8 c -1.108,0 -2,-0.892 -2,-2 v -4 c 0,-1.108 0.892,-2 2,-2 z m 0,-44 h 8 c 1.108,0 2,0.892 2,2 v 4 c 0,1.108 -0.892,2 -2,2 h -8 c -1.108,0 -2,-0.892 -2,-2 v -4 c 0,-1.108 0.892,-2 2,-2 z m -8.02087,10.44364 -3.53554,3.53553 -3.53553,-3.53553 3.53553,-3.53554 z m 31.11269,31.1127 -3.53553,3.53553 -3.53553,-3.53553 3.53553,-3.53554 z m -34.64823,-3.53554 3.53554,3.53554 -3.53554,3.53553 -3.53553,-3.53553 z m 31.11272,-31.11271 3.53553,3.53553 -3.53553,3.53554 -3.53554,-3.53554 z m -46.75633,30.75857 h -3.8 v -23.33334 h 3.8 v -23.33333 h 19.53333 v 3.8 h 23.33334 v -3.8 h 19.53333 v 23.33333 h 3.8 v 23.33334 h -3.8 v 23.33333 h -19.53333 v -3.8 h -23.33334 v 3.8 h -11.66666 v -11.66667 h -7.86667 z"
       sodipodi:nodetypes="ssssssssssssssssssssssssssssssssssssccccccccccccccccccccccccccccccccccccccccccc" />
    <path
       id="path42-4"
       style="fill:none;fill-opacity:1;stroke:#ff0000;stroke-width:0.499999;stroke-dasharray:none;stroke-opacity:1"
       d="M 223.33333,351.59181 H 235 v -11.66666 h -3.8 v -23.33334 h 3.8 v -23.33333 h -23.33333 v 3.8 h -23.33334 v -3.8 H 165 v 23.33333 h 3.8 v 23.33334 H 165 v 23.33333 h 23.33333 v -3.8 h 23.33334 v 3.8 h 11.66666 z M 182,324.25849 v 8 c 0,1.108 -0.892,2 -2,2 h -4 c -1.108,0 -2,-0.892 -2,-2 v -8 c 0,-1.108 0.892,-2 2,-2 h 4 c 1.108,0 2,0.892 2,2 z m 44,0 v 8 c 0,1.108 -0.892,2 -2,2 h -4 c -1.108,0 -2,-0.892 -2,-2 v -8 c 0,-1.108 0.892,-2 2,-2 h 4 c 1.108,0 2,0.892 2,2 z m -30,22 h 8 c 1.108,0 2,0.892 2,2 v 4 c 0,1.108 -0.892,2 -2,2 h -8 c -1.108,0 -2,-0.892 -2,-2 v -4 c 0,-1.108 0.892,-2 2,-2 z m 0,-44 h 8 c 1.108,0 2,0.892 2,2 v 4 c 0,1.108 -0.892,2 -2,2 h -8 c -1.108,0 -2,-0.892 -2,-2 v -4 c 0,-1.108 0.892,-2 2,-2 z m -8.02082,10.44364 -3.53553,3.53553 -3.53554,-3.53553 3.53554,-3.53554 z m 31.1127,31.11269 -3.53553,3.53554 -3.53554,-3.53554 3.53554,-3.53553 z m -34.64824,-3.53552 3.53554,3.53553 -3.53554,3.53553 -3.53553,-3.53553 z m 31.11271,-31.11271 3.53553,3.53553 -3.53553,3.53554 -3.53554,-3.53554 z"
       sodipodi:nodetypes="cccccccccccccccccccccccsssssssssssssssssssssssssssssssssssscccccccccccccccccccc" />
    <path
       id="path45-0"
       style="fill:none;fill-opacity:1;stroke:#ff0000;stroke-width:0.499999;stroke-dasharray:none;stroke-opacity:1"
       d="M 159.08333,359.45848 H 139.55 v 3.8 h -23.33334 v -3.8 H 96.68333 v -19.53333 h -3.8 v -23.33334 h 3.8 v -19.53333 h 19.53333 v -3.8 H 139.55 v 3.8 h 11.66666 v 7.86667 h 7.86667 v 11.66666 h 3.8 v 23.33334 h -3.8 v 19.53333 m -49.2,-35.20004 v 8 c 0,1.108 -0.892,2 -2,2 h -4 c -1.108,0 -2,-0.892 -2,-2 v -8 c 0,-1.108 0.892,-2 2,-2 h 4 c 1.108,0 2,0.892 2,2 z m 44,0 v 8 c 0,1.108 -0.892,2 -2,2 h -4 c -1.108,0 -2,-0.892 -2,-2 v -8 c 0,-1.108 0.892,-2 2,-2 h 4 c 1.108,0 2,0.892 2,2 z m -30,22 h 8 c 1.108,0 2,0.892 2,2 v 4 c 0,1.108 -0.892,2 -2,2 h -8 c -1.108,0 -2,-0.892 -2,-2 v -4 c 0,-1.108 0.892,-2 2,-2 z m 0,-44 h 8 c 1.108,0 2,0.892 2,2 v 4 c 0,1.108 -0.892,2 -2,2 h -8 c -1.108,0 -2,-0.892 -2,-2 v -4 c 0,-1.108 0.892,-2 2,-2 z m -8.02081,10.44369 -3.53554,3.53553 -3.53553,-3.53553 3.53553,-3.53553 z m 31.11267,31.11268 -3.53553,3.53553 -3.53553,-3.53553 3.53553,-3.53554 z m -34.64823,-3.53554 3.53553,3.53554 -3.53553,3.53553 -3.53553,-3.53553 z m 31.1127,-31.1127 3.53554,3.53554 -3.53554,3.53553 -3.53553,-3.53553 z"
       sodipodi:nodetypes="cccccccccccccccccccccccsssssssssssssssssssssssssssssssssssscccccccccccccccccccc" />
    <path
       style="fill:none;stroke:#ff0000;stroke-width:0.499999"
       d="m 196,145.94167 v 36"
       id="path1" />
    <path
       style="fill:none;stroke:#ff0000;stroke-width:0.499999"
       d="m 196,137.94167 v -5.20001"
       id="path2" />
  </g>
</svg>
