<?xml version="1.0" encoding="UTF-8" standalone="no"?>
<!-- Created with Inkscape (http://www.inkscape.org/) -->

<svg
   width="400mm"
   height="400mm"
   viewBox="0 0 400 400"
   version="1.1"
   id="svg1"
   inkscape:version="1.4.2 (f4327f4, 2025-05-13)"
   sodipodi:docname="IOU.svg"
   xmlns:inkscape="http://www.inkscape.org/namespaces/inkscape"
   xmlns:sodipodi="http://sodipodi.sourceforge.net/DTD/sodipodi-0.dtd"
   xmlns="http://www.w3.org/2000/svg"
   xmlns:svg="http://www.w3.org/2000/svg">
  <sodipodi:namedview
     id="namedview1"
     pagecolor="#ffffff"
     bordercolor="#000000"
     borderopacity="0.25"
     inkscape:showpageshadow="2"
     inkscape:pageopacity="0.0"
     inkscape:pagecheckerboard="0"
     inkscape:deskcolor="#d1d1d1"
     inkscape:document-units="mm"
     inkscape:zoom="4.3224186"
     inkscape:cx="702.84724"
     inkscape:cy="802.2129"
     inkscape:window-width="2560"
     inkscape:window-height="1494"
     inkscape:window-x="-11"
     inkscape:window-y="-11"
     inkscape:window-maximized="1"
     inkscape:current-layer="layer1" />
  <defs
     id="defs1">
    <rect
       x="519.56354"
       y="570.60379"
       width="598.087"
       height="340.26832"
       id="rect45" />
  </defs>
  <g
     inkscape:label="Layer 1"
     inkscape:groupmode="layer"
     id="layer1">
    <path
       id="text45"
       style="font-size:53.3333px;line-height:2;font-family:'Catchland PERSONAL USE ONLY';-inkscape-font-specification:'Catchland PERSONAL USE ONLY';text-align:center;text-anchor:middle;white-space:pre;fill:none;stroke:#ff0000;stroke-width:0.727458;stroke-opacity:1"
       d="m 189.70376,221.19236 c -0.2942,-0.0131 -0.61907,0.0145 -0.97514,0.0871 0.39008,0.26691 0.59529,0.59502 0.67741,0.90298 -3.34647,0.84174 -2.36103,4.45484 0.73908,3.57203 2.38153,-0.6698 2.4026,-4.44146 -0.44135,-4.56222 z m 8.07638,6.07645 c -2.24041,0.0237 -4.47211,1.75837 -5.89,3.92691 -0.59839,0.92479 -1.03622,1.95457 -1.26611,2.97357 -0.71907,1.78883 -1.6745,3.10113 -2.61419,2.95927 -0.49272,-0.0821 -0.82117,-0.69747 -0.47215,-1.99089 0.36955,-1.4166 1.1087,-2.68949 2.60742,-7.43203 -0.78017,-0.18478 -2.68895,0.0611 -3.53069,0.51275 0,0 -1.82782,5.93325 -2.15631,7.10348 -0.84174,2.9564 -0.10228,4.90699 1.97134,5.07124 1.75935,0.13981 3.20781,-1.26065 4.28932,-2.96005 0.38573,1.06411 1.18874,1.90193 2.50591,2.28262 3.4286,1.00599 6.52922,-2.29953 7.72,-5.74864 0.46234,-0.007 0.87343,-0.0241 1.24129,-0.0527 -0.003,0.0102 -0.007,0.022 -0.0102,0.0323 -0.61591,1.82722 -0.84167,2.42234 -0.94433,3.83895 -0.14375,1.6835 0.80054,2.60741 2.15556,2.60741 1.76562,0 3.12067,-0.9029 4.1472,-2.11421 0.18478,1.19078 0.84199,2.05261 2.0533,2.11421 2.75109,0.14375 5.09116,-3.53139 6.2614,-6.81627 -0.26689,-0.45167 -1.1903,-0.36933 -1.58038,-0.28722 -0.71857,2.19677 -1.78616,3.81842 -3.07958,3.83895 -0.49274,0 -0.67758,-0.51327 -0.32856,-1.80669 0.39007,-1.4166 1.10869,-2.8737 2.60741,-7.61624 -0.78015,-0.18477 -2.71022,0.0611 -3.53143,0.51276 -0.34902,1.04706 -1.06765,3.40861 -1.60145,5.17423 -0.71856,2.15571 -1.76579,3.51016 -2.99762,3.53069 -0.69804,0 -0.75935,-0.75965 -0.22556,-2.34051 0.36955,-1.43714 1.10893,-3.14062 2.58712,-6.87717 -0.78015,-0.18477 -2.71045,0.0611 -3.51114,0.51276 0,0 -0.77842,2.14336 -1.38189,3.86527 -0.40672,0.0676 -0.87381,0.10795 -1.43078,0.11799 0.28743,-2.09412 -0.26714,-3.98321 -2.0533,-4.66071 -0.50813,-0.19249 -1.02502,-0.27766 -1.54204,-0.27217 z m -0.42179,1.85857 c 0.24811,-0.003 0.51702,0.0578 0.77365,0.17969 0.9444,0.43115 1.37548,1.53926 1.21124,2.79162 -1.56032,-0.26689 -2.97733,-1.02602 -2.97733,-2.05255 0,-0.60692 0.4466,-0.91346 0.99244,-0.91876 z m -2.38863,2.35555 c 0.75963,1.29342 2.23832,2.07338 3.83971,2.3608 -0.71857,1.53979 -2.05342,2.77206 -3.4495,2.50517 -1.78616,-0.36955 -1.51938,-2.97717 -0.39021,-4.86597 z" />
    <rect
       style="fill:none;fill-opacity:1;stroke:#ff0000;stroke-width:0.499999;stroke-dasharray:none;stroke-opacity:1"
       id="rect46"
       width="50"
       height="30"
       x="175"
       y="185"
       rx="10"
       ry="10" />
  </g>
</svg>
