<?xml version="1.0" encoding="UTF-8" standalone="no"?>
<!-- Created with Inkscape (http://www.inkscape.org/) -->

<svg
   width="400mm"
   height="400mm"
   viewBox="0 0 400 400"
   version="1.1"
   id="svg5"
   inkscape:version="1.1.2 (b8e25be833, 2022-02-05)"
   sodipodi:docname="Box_Mechanism.svg"
   xmlns:inkscape="http://www.inkscape.org/namespaces/inkscape"
   xmlns:sodipodi="http://sodipodi.sourceforge.net/DTD/sodipodi-0.dtd"
   xmlns="http://www.w3.org/2000/svg"
   xmlns:svg="http://www.w3.org/2000/svg">
  <sodipodi:namedview
     id="namedview7"
     pagecolor="#ffffff"
     bordercolor="#666666"
     borderopacity="1.0"
     inkscape:pageshadow="2"
     inkscape:pageopacity="0.0"
     inkscape:pagecheckerboard="0"
     inkscape:document-units="mm"
     showgrid="false"
     inkscape:zoom="0.1767767"
     inkscape:cx="1595.2329"
     inkscape:cy="738.21948"
     inkscape:window-width="1920"
     inkscape:window-height="1009"
     inkscape:window-x="-8"
     inkscape:window-y="-8"
     inkscape:window-maximized="1"
     inkscape:current-layer="layer4"
     inkscape:snap-smooth-nodes="true"
     inkscape:snap-intersection-paths="true"
     inkscape:snap-global="true"
     inkscape:snap-center="true"
     inkscape:snap-bbox="false"
     inkscape:object-paths="true" />
  <defs
     id="defs2" />
  <g
     inkscape:label="Sketch 1"
     inkscape:groupmode="layer"
     id="layer1">
    <rect
       style="fill:none;stroke:#ff0000;stroke-width:0.264999"
       id="rect853"
       width="160"
       height="60"
       x="481.71313"
       y="135.55441" />
    <path
       id="rect935"
       style="fill:none;stroke:#ff0000;stroke-width:0.264999"
       d="m 481.71313,95.554433 h 80 80 v 20.000007 19.99999 h -80 -80 v -19.99999 z"
       sodipodi:nodetypes="ccccccccc" />
    <path
       id="rect1141"
       style="fill:none;stroke:#ff0000;stroke-width:0.264999"
       d="M 441.71313,195.55444 V 115.55445 35.554448 h 20 20 v 80.000002 79.99999 h -20 z"
       sodipodi:nodetypes="ccccccccc" />
    <path
       style="fill:none;stroke:#82807e;stroke-width:0.265;stroke-linecap:butt;stroke-linejoin:miter;stroke-miterlimit:4;stroke-dasharray:0.265, 0.53;stroke-dashoffset:0;stroke-opacity:1"
       d="m 441.71313,115.55445 200,-1e-5"
       id="path1650" />
    <path
       style="fill:none;stroke:#82807e;stroke-width:0.265;stroke-linecap:butt;stroke-linejoin:miter;stroke-miterlimit:4;stroke-dasharray:0.265, 0.53;stroke-dashoffset:0;stroke-opacity:1"
       d="M 461.71313,35.554448 V 195.55444"
       id="path1652" />
    <path
       style="fill:none;stroke:#82807e;stroke-width:0.265;stroke-linecap:butt;stroke-linejoin:miter;stroke-miterlimit:4;stroke-dasharray:0.265, 0.53;stroke-dashoffset:0;stroke-opacity:1"
       d="M 561.71313,95.554433 V 135.55443"
       id="path1820" />
    <path
       style="fill:none;stroke:#82807e;stroke-width:0.265;stroke-linecap:butt;stroke-linejoin:miter;stroke-miterlimit:4;stroke-dasharray:0.265, 0.53;stroke-dashoffset:0;stroke-opacity:1"
       d="M 501.71313,95.554433 V 135.55443"
       id="path1822"
       sodipodi:nodetypes="cc" />
    <path
       style="fill:none;stroke:#82807e;stroke-width:0.265;stroke-linecap:butt;stroke-linejoin:miter;stroke-miterlimit:4;stroke-dasharray:0.265, 0.53;stroke-dashoffset:0;stroke-opacity:1"
       d="m 441.71313,175.55444 h 40"
       id="path2188"
       sodipodi:nodetypes="cc" />
    <path
       style="fill:none;stroke:#82807e;stroke-width:0.265;stroke-linecap:butt;stroke-linejoin:miter;stroke-miterlimit:4;stroke-dasharray:0.265, 0.53;stroke-dashoffset:0;stroke-opacity:1"
       d="m 501.71313,115.55445 -20,29.99999 -20,30"
       id="path2280"
       sodipodi:nodetypes="ccc" />
    <path
       style="fill:none;stroke:#82807e;stroke-width:0.265;stroke-linecap:butt;stroke-linejoin:miter;stroke-miterlimit:4;stroke-dasharray:0.265, 0.53;stroke-dashoffset:0;stroke-opacity:1"
       d="m 496.71313,155.55444 -15,-10"
       id="path2419"
       sodipodi:nodetypes="cc" />
    <path
       style="fill:none;stroke:#0000ff;stroke-width:0.264583px;stroke-linecap:butt;stroke-linejoin:miter;stroke-opacity:1"
       d="m 501.71313,115.55445 -5,39.99999"
       id="path2587"
       sodipodi:nodetypes="cc" />
    <path
       id="path2611"
       style="fill:none;stroke:#ff0000;stroke-width:0.264999"
       d="m 501.71313,155.55444 c 0,2.76142 -2.23858,5 -5,5 -2.76143,0 -5,-2.23858 -5,-5 0,-2.76142 2.23857,-5 5,-5 2.76142,0 5,2.23858 5,5 z"
       sodipodi:nodetypes="sssss" />
    <circle
       style="fill:none;stroke:#ff0000;stroke-width:0.264999"
       id="circle4612"
       cx="501.71313"
       cy="115.55443"
       r="5" />
    <path
       style="fill:none;stroke:#0000ff;stroke-width:0.264583px;stroke-linecap:butt;stroke-linejoin:miter;stroke-opacity:1"
       d="m 461.71313,115.55445 50,24.99999 50,-25"
       id="path4865"
       sodipodi:nodetypes="ccc" />
    <path
       style="fill:none;stroke:#82807e;stroke-width:0.265;stroke-linecap:butt;stroke-linejoin:miter;stroke-miterlimit:4;stroke-dasharray:0.265, 0.53;stroke-dashoffset:0;stroke-opacity:1"
       d="m 511.71313,115.55445 v 24.99999"
       id="path4938"
       sodipodi:nodetypes="cc" />
    <path
       id="path5381"
       style="fill:none;stroke:#ff0000;stroke-width:0.264999"
       d="m 516.71313,140.55444 c 0,2.76142 -2.23858,5 -5,5 -2.76143,0 -5,-2.23858 -5,-5 0,-2.76142 2.23857,-5 5,-5 2.76142,0 5,2.23858 5,5 z"
       sodipodi:nodetypes="sssss" />
    <path
       id="path6351"
       style="fill:none;stroke:#ff0000;stroke-width:0.264999"
       d="m 566.71312,115.55444 c 0,2.76141 -2.23857,4.99999 -5,4.99999 -2.76142,0 -5,-2.23858 -5,-4.99999 0,-2.76142 2.23858,-5 5,-5 2.76143,0 5,2.23858 5,5 z"
       sodipodi:nodetypes="sssss" />
    <path
       style="fill:none;stroke:#0000ff;stroke-width:0.264583px;stroke-linecap:butt;stroke-linejoin:miter;stroke-opacity:1"
       d="m 461.71313,175.55444 35,-20"
       id="path6855"
       sodipodi:nodetypes="cc" />
    <circle
       style="fill:none;stroke:#ff0000;stroke-width:0.264999"
       id="circle6857"
       cx="461.71313"
       cy="175.55443"
       r="5" />
    <path
       id="path6960"
       style="fill:none;stroke:#ff0000;stroke-width:0.264999"
       d="m 466.71312,115.55445 c 0,2.76141 -2.23857,4.99999 -5,4.99999 -2.76142,0 -5,-2.23858 -5,-4.99999 0,-2.76142 2.23858,-5 5,-5 2.76143,0 5,2.23858 5,5 z"
       sodipodi:nodetypes="sssss" />
  </g>
  <g
     inkscape:label="Sketch 2"
     inkscape:groupmode="layer"
     id="g16347">
    <rect
       style="fill:none;stroke:#ff0000;stroke-width:0.264999"
       id="rect16307"
       width="160"
       height="60"
       x="481.71313"
       y="321.95981" />
    <path
       id="path16309"
       style="fill:none;stroke:#ff0000;stroke-width:0.264999"
       d="m 481.71313,281.95984 h 80 80 v 20.00001 19.99999 h -80 -80 v -19.99999 z"
       sodipodi:nodetypes="ccccccccc" />
    <path
       id="path16311"
       style="fill:none;stroke:#ff0000;stroke-width:0.264999"
       d="m 441.71313,381.95985 v -79.99999 -80.00001 h 20 20 v 80.00001 79.99999 h -20 z"
       sodipodi:nodetypes="ccccccccc" />
    <path
       style="fill:none;stroke:#82807e;stroke-width:0.265;stroke-linecap:butt;stroke-linejoin:miter;stroke-miterlimit:4;stroke-dasharray:0.265, 0.53;stroke-dashoffset:0;stroke-opacity:1"
       d="m 481.71313,301.95986 160,-10e-6"
       id="path16313"
       sodipodi:nodetypes="cc" />
    <path
       style="fill:none;stroke:#82807e;stroke-width:0.265;stroke-linecap:butt;stroke-linejoin:miter;stroke-miterlimit:4;stroke-dasharray:0.265, 0.53;stroke-dashoffset:0;stroke-opacity:1"
       d="m 461.71313,221.95985 v 160"
       id="path16315" />
    <path
       style="fill:none;stroke:#82807e;stroke-width:0.265;stroke-linecap:butt;stroke-linejoin:miter;stroke-miterlimit:4;stroke-dasharray:0.265, 0.53;stroke-dashoffset:0;stroke-opacity:1"
       d="m 581.71313,281.95985 v 20 20"
       id="path16317"
       sodipodi:nodetypes="ccc" />
    <path
       style="fill:none;stroke:#82807e;stroke-width:0.265;stroke-linecap:butt;stroke-linejoin:miter;stroke-miterlimit:4;stroke-dasharray:0.265, 0.53;stroke-dashoffset:0;stroke-opacity:1"
       d="m 501.71313,281.95984 v 40"
       id="path16319"
       sodipodi:nodetypes="cc" />
    <path
       style="fill:none;stroke:#82807e;stroke-width:0.265;stroke-linecap:butt;stroke-linejoin:miter;stroke-miterlimit:4;stroke-dasharray:0.265, 0.53;stroke-dashoffset:0;stroke-opacity:1"
       d="m 441.71313,361.95985 h 40"
       id="path16321"
       sodipodi:nodetypes="cc" />
    <path
       style="fill:none;stroke:#82807e;stroke-width:0.265;stroke-linecap:butt;stroke-linejoin:miter;stroke-miterlimit:4;stroke-dasharray:0.265, 0.53;stroke-dashoffset:0;stroke-opacity:1"
       d="m 501.71313,301.95986 -20,29.99999 -20,30"
       id="path16323"
       sodipodi:nodetypes="ccc" />
    <path
       style="fill:none;stroke:#82807e;stroke-width:0.265;stroke-linecap:butt;stroke-linejoin:miter;stroke-miterlimit:4;stroke-dasharray:0.265, 0.53;stroke-dashoffset:0;stroke-opacity:1"
       d="m 496.71313,341.95985 -3.75,-2.5 -3.75,-2.5 -3.75,-2.5 -3.75,-2.5"
       id="path16325"
       sodipodi:nodetypes="ccccc" />
    <path
       id="path16329"
       style="fill:none;stroke:#ff0000;stroke-width:0.264999"
       d="m 494.21313,336.95985 c 0,2.76142 -2.23858,5 -5,5 -2.76143,0 -5,-2.23858 -5,-5 0,-2.76142 2.23857,-5 5,-5 2.76142,0 5,2.23858 5,5 z"
       sodipodi:nodetypes="sssss" />
    <path
       id="circle16331"
       style="fill:none;stroke:#ff0000;stroke-width:0.264999"
       d="m 506.71313,301.95984 a 5,5 0 0 1 -5,5 5,5 0 0 1 -5,-5 5,5 0 0 1 5,-5 5,5 0 0 1 5,5 z" />
    <path
       style="fill:none;stroke:#0000ff;stroke-width:0.264583px;stroke-linecap:butt;stroke-linejoin:miter;stroke-opacity:1"
       d="m 461.71313,281.95986 52.50001,54.99999 67.49999,-35"
       id="path16333"
       sodipodi:nodetypes="ccc" />
    <path
       id="path16337"
       style="fill:none;stroke:#ff0000;stroke-width:0.264999"
       d="m 519.21314,336.95985 c 0,2.76142 -2.23858,5 -5,5 -2.76143,0 -5,-2.23858 -5,-5 0,-2.76142 2.23857,-5 5,-5 2.76142,0 5,2.23858 5,5 z"
       sodipodi:nodetypes="sssss" />
    <path
       id="path16339"
       style="fill:none;stroke:#ff0000;stroke-width:0.264999"
       d="m 586.71312,301.95985 c 0,2.76141 -2.23857,4.99999 -5,4.99999 -2.76142,0 -5,-2.23858 -5,-4.99999 0,-2.76142 2.23858,-5 5,-5 2.76143,0 5,2.23858 5,5 z"
       sodipodi:nodetypes="sssss" />
    <path
       id="path16341"
       style="fill:none;stroke:#0000ff;stroke-width:0.264583px;stroke-linecap:butt;stroke-linejoin:miter;stroke-opacity:1"
       d="m 461.71313,361.95985 27.5,-25 12.5,-34.99999"
       sodipodi:nodetypes="ccc" />
    <circle
       style="fill:none;stroke:#ff0000;stroke-width:0.264999"
       id="circle16343"
       cx="461.71313"
       cy="361.95984"
       r="5" />
    <path
       id="path16345"
       style="fill:none;stroke:#ff0000;stroke-width:0.264999"
       d="m 466.71312,281.95986 c 0,2.76141 -2.23857,4.99999 -5,4.99999 -2.76142,0 -5,-2.23858 -5,-4.99999 0,-2.76142 2.23858,-5 5,-5 2.76143,0 5,2.23858 5,5 z"
       sodipodi:nodetypes="sssss" />
    <path
       style="fill:none;stroke:#82807e;stroke-width:0.265;stroke-linecap:butt;stroke-linejoin:miter;stroke-miterlimit:4;stroke-dasharray:0.265, 0.53;stroke-dashoffset:0;stroke-opacity:1"
       d="m 461.71313,261.95986 v 20 20"
       id="path16426"
       sodipodi:nodetypes="ccc" />
    <path
       style="fill:none;stroke:#82807e;stroke-width:0.265;stroke-linecap:butt;stroke-linejoin:miter;stroke-miterlimit:4;stroke-dasharray:0.265, 0.53;stroke-dashoffset:0;stroke-opacity:1"
       d="m 601.71313,301.95985 h -20 -20"
       id="path16580"
       sodipodi:nodetypes="ccc" />
    <path
       style="fill:none;stroke:#82807e;stroke-width:0.265;stroke-linecap:butt;stroke-linejoin:miter;stroke-miterlimit:4;stroke-dasharray:0.265, 0.53;stroke-dashoffset:0;stroke-opacity:1"
       d="m 481.71313,281.95986 h -20 -20"
       id="path16734"
       sodipodi:nodetypes="ccc" />
    <path
       style="fill:none;stroke:#82807e;stroke-width:0.265;stroke-linecap:butt;stroke-linejoin:miter;stroke-miterlimit:4;stroke-dasharray:0.265, 0.53;stroke-dashoffset:0;stroke-opacity:1"
       d="m 581.71313,301.95985 -60,-10 -60,-9.99999"
       id="path16774"
       sodipodi:nodetypes="ccc" />
    <path
       style="fill:none;stroke:#82807e;stroke-width:0.265;stroke-linecap:butt;stroke-linejoin:miter;stroke-miterlimit:4;stroke-dasharray:0.265, 0.53;stroke-dashoffset:0;stroke-opacity:1"
       d="m 511.71314,351.95985 10,-60"
       id="path16852"
       sodipodi:nodetypes="cc" />
    <path
       style="fill:none;stroke:#000000;stroke-width:0.264583px;stroke-linecap:butt;stroke-linejoin:miter;stroke-opacity:1"
       d="M 514.21314,336.95985 H 489.21313"
       id="path18103"
       sodipodi:nodetypes="cc" />
  </g>
  <g
     inkscape:groupmode="layer"
     id="layer2"
     inkscape:label="Closed">
    <path
       id="rect853-3"
       style="fill:#8a5c1b;fill-opacity:1;stroke:#000000;stroke-width:0.499999;stroke-miterlimit:4;stroke-dasharray:none;stroke-opacity:1"
       d="m -268.86488,231.83788 v 59.99996 h 160.00004 v -59.99996 z m 29.99971,3.00033 a 1.9999999,1.9999999 0 0 1 1.99988,1.99987 1.9999999,1.9999999 0 0 1 -1.99988,1.99988 1.9999999,1.9999999 0 0 1 -1.99988,-1.99988 1.9999999,1.9999999 0 0 1 1.99988,-1.99987 z m -15.00012,14.99959 a 1.9999999,1.9999999 0 0 1 2.0004,2.00041 1.9999999,1.9999999 0 0 1 -2.0004,1.99988 1.9999999,1.9999999 0 0 1 -1.99987,-1.99988 1.9999999,1.9999999 0 0 1 1.99987,-2.00041 z" />
    <path
       id="rect935-2"
       style="fill:#b3653e;fill-opacity:1;stroke:#000000;stroke-width:0.499999;stroke-miterlimit:4;stroke-dasharray:none;stroke-opacity:1"
       d="m -268.86488,191.83825 v 19.99981 19.99982 h 79.99976 80.00028 v -19.99982 -19.99981 h -80.00027 z m 19.99981,17.99994 a 1.9999999,1.9999999 0 0 1 1.99987,1.99987 1.9999999,1.9999999 0 0 1 -1.99987,1.99988 1.9999999,1.9999999 0 0 1 -1.99987,-1.99988 1.9999999,1.9999999 0 0 1 1.99987,-1.99987 z m 59.99995,0 a 1.9999999,1.9999999 0 0 1 1.99988,1.99987 1.9999999,1.9999999 0 0 1 -1.99988,1.99988 1.9999999,1.9999999 0 0 1 -1.99988,-1.99988 1.9999999,1.9999999 0 0 1 1.99988,-1.99987 z" />
    <path
       id="path2611-2"
       style="fill:#ce8f54;fill-opacity:1;stroke:#000000;stroke-width:0.499999;stroke-miterlimit:4;stroke-dasharray:none;stroke-opacity:1"
       d="m -248.86507,206.83785 a 5,5 0 0 0 -4.95784,4.38061 l -0.004,-5.3e-4 -4.99814,39.98311 -0.002,0.0164 c -0.0252,0.20322 -0.0382,0.41055 -0.0382,0.62063 0,2.7614 2.23827,4.9997 4.9997,4.9997 2.55137,0 4.65649,-1.91087 4.96197,-4.37959 l 4.99969,-40.00015 -0.003,-5.3e-4 a 5,5 0 0 0 0.0419,-0.6196 5,5 0 0 0 -5.00021,-5.00022 z m 0,3.00034 a 1.9999999,1.9999999 0 0 1 1.99987,1.99987 1.9999999,1.9999999 0 0 1 -1.99987,1.99988 1.9999999,1.9999999 0 0 1 -1.99987,-1.99988 1.9999999,1.9999999 0 0 1 1.99987,-1.99987 z m -5.00022,39.99961 a 2,2 0 0 1 2.0004,2.00041 2,2 0 0 1 -2.0004,1.99988 2,2 0 0 1 -1.99987,-1.99988 2,2 0 0 1 1.99987,-2.00041 z" />
    <path
       id="path5381-4"
       style="display:inline;fill:#ce8f54;fill-opacity:1;stroke:#000000;stroke-width:0.499999;stroke-miterlimit:4;stroke-dasharray:none;stroke-opacity:1"
       d="m -188.86512,206.83734 v 5.3e-4 c -0.80393,0 -1.56359,0.18996 -2.23656,0.5271 -0.0133,0.007 -0.0266,0.0134 -0.0398,0.0202 l -49.89152,24.94577 -0.0687,0.0341 c -1.63859,0.82087 -2.76313,2.51563 -2.76313,4.4731 0,2.76143 2.23826,4.9997 4.99969,4.9997 0.80399,0 1.56356,-0.18992 2.23656,-0.5271 l 0.0398,-0.0201 49.96026,-24.97986 v -5.3e-4 c 1.63852,-0.82091 2.76365,-2.51516 2.76365,-4.47259 0,-2.76142 -2.23878,-5.00022 -5.00021,-5.00022 z m 0,3.00085 a 2,2 0 0 1 1.99988,1.99987 2,2 0 0 1 -1.99988,1.99988 2,2 0 0 1 -1.99988,-1.99988 2,2 0 0 1 1.99988,-1.99987 z m -50.00005,25.00002 a 1.9999999,1.9999999 0 0 1 1.99988,1.99987 1.9999999,1.9999999 0 0 1 -1.99988,1.99988 1.9999999,1.9999999 0 0 1 -1.99988,-1.99988 1.9999999,1.9999999 0 0 1 1.99988,-1.99987 z" />
  </g>
  <g
     inkscape:groupmode="layer"
     id="layer3"
     inkscape:label="Open">
    <path
       id="rect935-2-6"
       style="fill:#b3653e;fill-opacity:1;stroke:#000000;stroke-width:0.499999;stroke-miterlimit:4;stroke-dasharray:none;stroke-opacity:1"
       d="m -308.86452,171.83791 h 19.99981 19.99981 V 91.838138 11.837843 h -19.99981 -19.99981 v 80.000295 z m 17.99993,-19.99982 a 1.9999999,1.9999999 0 0 1 1.99988,-1.99988 1.9999999,1.9999999 0 0 1 1.99987,1.99988 1.9999999,1.9999999 0 0 1 -1.99987,1.99988 1.9999999,1.9999999 0 0 1 -1.99988,-1.99988 z m 0,-59.999952 a 1.9999999,1.9999999 0 0 1 1.99988,-1.99988 1.9999999,1.9999999 0 0 1 1.99987,1.99988 1.9999999,1.9999999 0 0 1 -1.99987,1.99988 1.9999999,1.9999999 0 0 1 -1.99988,-1.99988 z" />
    <path
       id="rect853-3-9"
       style="fill:#8a5c1b;fill-opacity:1;stroke:#000000;stroke-width:0.499999;stroke-miterlimit:4;stroke-dasharray:none;stroke-opacity:1"
       d="m -268.8649,111.83795 v 59.99996 h 160.00006 v -59.99996 z m 29.99972,3.00033 a 1.9999999,1.9999999 0 0 1 1.99988,1.99988 1.9999999,1.9999999 0 0 1 -1.99988,1.99988 1.9999999,1.9999999 0 0 1 -1.99988,-1.99988 1.9999999,1.9999999 0 0 1 1.99988,-1.99988 z m -15.00011,14.9996 a 1.9999999,1.9999999 0 0 1 2.00039,2.00041 1.9999999,1.9999999 0 0 1 -2.00039,1.99987 1.9999999,1.9999999 0 0 1 -1.99988,-1.99987 1.9999999,1.9999999 0 0 1 1.99988,-2.00041 z" />
    <path
       id="path2611-9"
       style="fill:#ce8f54;fill-opacity:1;stroke:#000000;stroke-width:0.499999;stroke-miterlimit:4;stroke-dasharray:none;stroke-opacity:1"
       d="m -253.86514,126.83799 c -0.90287,0 -1.74987,0.23921 -2.48098,0.65786 -0.003,0.003 -0.005,0.003 -0.008,0.004 l -34.99166,19.9962 a 5,5 0 0 0 -2.51923,4.34084 5,5 0 0 0 4.99969,4.99967 5,5 0 0 0 2.48047,-0.65937 h 5.3e-4 l 0.0176,-0.01 h 0.002 a 5,5 0 0 0 10e-4,0 l 34.96892,-19.98067 0.0114,-0.007 c 1.50487,-0.86183 2.51871,-2.48341 2.51871,-4.34187 0,-2.7614 -2.23879,-4.9997 -5.00021,-4.9997 z m 0,2.99982 a 2,2 0 0 1 2.0004,1.99988 2,2 0 0 1 -2.0004,1.99988 2,2 0 0 1 -1.99987,-1.99988 2,2 0 0 1 1.99987,-1.99988 z m -34.99993,19.99983 a 1.9999999,1.9999999 0 0 1 2.0004,2.00038 1.9999999,1.9999999 0 0 1 -2.0004,1.99988 1.9999999,1.9999999 0 0 1 -1.99987,-1.99988 1.9999999,1.9999999 0 0 1 1.99987,-2.00038 z" />
    <path
       id="path5381-8"
       style="fill:#ce8f54;fill-opacity:1;stroke:#000000;stroke-width:0.499999;stroke-miterlimit:4;stroke-dasharray:none;stroke-opacity:1"
       d="m -288.86507,86.837328 c -2.76142,0 -4.99969,2.23883 -4.99969,5.00023 0,1.95736 1.12469,3.65168 2.76314,4.4726 l 49.95199,24.976242 c 0.003,0.003 0.006,0.003 0.008,0.004 l 0.0398,0.0196 c 0.67301,0.33719 1.43257,0.52708 2.23656,0.52708 2.76142,0 5.00021,-2.2388 5.00021,-5.0002 0,-1.95752 -1.12501,-3.65226 -2.76365,-4.4731 h -5.3e-4 l -49.95147,-24.975742 -0.008,-0.004 c -0.0132,-0.007 -0.0266,-0.013 -0.0398,-0.0196 -0.673,-0.33719 -1.43256,-0.52711 -2.23655,-0.52711 z m 0,3.00035 a 2,2 0 0 1 2.0004,2.00038 2,2 0 0 1 -2.0004,1.99988 2,2 0 0 1 -1.99987,-1.99988 2,2 0 0 1 1.99987,-2.00038 z m 50.00005,25.000032 a 1.9999999,1.9999999 0 0 1 1.99988,1.99988 1.9999999,1.9999999 0 0 1 -1.99988,2.00038 1.9999999,1.9999999 0 0 1 -1.99988,-2.00038 1.9999999,1.9999999 0 0 1 1.99988,-1.99988 z" />
  </g>
  <g
     inkscape:groupmode="layer"
     id="g15988"
     inkscape:label="Open colision test">
    <path
       id="path15980"
       style="fill:#b3653e;fill-opacity:1;stroke:#000000;stroke-width:0.499999;stroke-miterlimit:4;stroke-dasharray:none;stroke-opacity:1"
       d="m -292.67991,442.29741 5.17633,19.31834 5.17633,19.31833 77.27383,-20.70547 77.27436,-20.70559 -5.17633,-19.31834 -5.17633,-19.31833 -77.27436,20.7056 z m 23.97706,12.21026 a 1.9999999,1.9999999 0 0 1 2.44935,1.41413 1.9999999,1.9999999 0 0 1 -1.41414,2.44934 1.9999999,1.9999999 0 0 1 -2.44934,-1.41412 1.9999999,1.9999999 0 0 1 1.41413,-2.44935 z m 57.9555,-15.52913 a 1.9999999,1.9999999 0 0 1 2.44934,1.41413 1.9999999,1.9999999 0 0 1 -1.41413,2.44933 1.9999999,1.9999999 0 0 1 -2.44934,-1.41411 1.9999999,1.9999999 0 0 1 1.41413,-2.44935 z" />
    <path
       id="path15982"
       style="fill:#8a5c1b;fill-opacity:1;stroke:#000000;stroke-width:0.499999;stroke-miterlimit:4;stroke-dasharray:none;stroke-opacity:1"
       d="m -278.82874,476.3828 v 59.99996 h 160.00007 V 476.3828 Z m 29.99973,3.00033 a 1.9999999,1.9999999 0 0 1 1.99988,1.99988 1.9999999,1.9999999 0 0 1 -1.99988,1.99988 1.9999999,1.9999999 0 0 1 -1.99988,-1.99988 1.9999999,1.9999999 0 0 1 1.99988,-1.99988 z m -15.00011,14.9996 a 1.9999999,1.9999999 0 0 1 2.00039,2.00041 1.9999999,1.9999999 0 0 1 -2.00039,1.99987 1.9999999,1.9999999 0 0 1 -1.99989,-1.99987 1.9999999,1.9999999 0 0 1 1.99989,-2.00041 z" />
    <path
       id="path15984"
       style="fill:#ce8f54;fill-opacity:1;stroke:#000000;stroke-width:0.499999;stroke-miterlimit:4;stroke-dasharray:none;stroke-opacity:1"
       d="m -259.25869,498.36994 c 0.36219,-0.82705 0.48281,-1.69887 0.39265,-2.53652 -0.002,-0.004 -1.5e-4,-0.006 -3e-5,-0.008 l -4.28025,-40.07423 a 5,5 0 0 0 -2.96573,-4.04892 5,5 0 0 0 -6.58537,2.57422 5,5 0 0 0 -0.39106,2.53665 l -2e-4,4.8e-4 0.001,0.0203 -4e-5,0.001 a 5,5 0 0 0 -4.2e-4,9e-4 l 4.27515,40.04718 0.002,0.0136 c 0.18579,1.72421 1.26449,3.30337 2.96684,4.0489 2.52948,1.10772 5.47788,-0.0452 6.5856,-2.57467 z m -2.74789,-1.20334 a 2,2 0 0 1 -2.63436,1.03015 2,2 0 0 1 -1.02948,-2.63462 2,2 0 0 1 2.63416,-1.02968 2,2 0 0 1 1.02968,2.63415 z m -4.28024,-40.08328 a 1.9999999,1.9999999 0 0 1 -2.63482,1.02996 1.9999999,1.9999999 0 0 1 -1.02949,-2.63462 1.9999999,1.9999999 0 0 1 2.63415,-1.02969 1.9999999,1.9999999 0 0 1 1.03016,2.63435 z"
       inkscape:transform-center-x="2.1493451"
       inkscape:transform-center-y="-20.04578" />
    <path
       id="path15986"
       style="fill:#ce8f54;fill-opacity:1;stroke:#000000;stroke-width:0.499999;stroke-miterlimit:4;stroke-dasharray:none;stroke-opacity:1"
       d="m -205.13825,442.69398 c 0.83168,-2.63318 -0.62908,-5.44182 -3.26225,-6.2735 -1.86647,-0.58956 -3.82086,-0.0273 -5.09712,1.28778 l -38.86112,40.11019 c -0.003,0.002 -0.005,0.005 -0.006,0.007 l -0.03,0.0325 c -0.52422,0.54021 -0.934,1.20735 -1.17621,1.97396 -0.8317,2.6332 0.62888,5.44233 3.26205,6.27401 1.86664,0.58951 3.82152,0.0272 5.09774,-1.28816 l 1.7e-4,-5e-4 38.86049,-40.10986 0.006,-0.007 c 0.0104,-0.0102 0.021,-0.021 0.03,-0.0325 0.5242,-0.5402 0.93407,-1.2073 1.17624,-1.97393 z m -2.86104,-0.90365 a 2,2 0 0 1 -2.50997,1.30504 2,2 0 0 1 -1.30454,-2.50983 2,2 0 0 1 2.50932,-1.30469 2,2 0 0 1 1.30519,2.50948 z m -38.89828,40.14886 a 1.9999999,1.9999999 0 0 1 -2.50936,1.30469 1.9999999,1.9999999 0 0 1 -1.30515,-2.50949 1.9999999,1.9999999 0 0 1 2.50982,-1.30455 1.9999999,1.9999999 0 0 1 1.30469,2.50935 z"
       inkscape:transform-center-x="-19.445415"
       inkscape:transform-center-y="-20.105365" />
  </g>
  <g
     inkscape:groupmode="layer"
     id="layer4"
     inkscape:label="Open Colision Test">
    <rect
       style="fill:none;stroke:#ff0000;stroke-width:0.264999"
       id="rect16307-5"
       width="160"
       height="60"
       x="120.84647"
       y="251.32433" />
    <path
       id="path16329-5"
       style="fill:none;stroke:#ff0000;stroke-width:0.264999"
       d="m 133.34646,266.32434 c 0,2.76142 -2.23858,5 -5,5 -2.76143,0 -5,-2.23858 -5,-5 0,-2.76142 2.23857,-5 5,-5 2.76142,0 5,2.23858 5,5 z"
       sodipodi:nodetypes="sssss" />
    <path
       id="path16337-9"
       style="fill:none;stroke:#ff0000;stroke-width:0.264999"
       d="m 158.34647,266.32434 c 0,2.76142 -2.23858,5 -5,5 -2.76143,0 -5,-2.23858 -5,-5 0,-2.76142 2.23857,-5 5,-5 2.76142,0 5,2.23858 5,5 z"
       sodipodi:nodetypes="sssss" />
    <path
       id="path16341-3"
       style="fill:none;stroke:#0000ff;stroke-width:0.264583px;stroke-linecap:butt;stroke-linejoin:miter;stroke-opacity:1"
       d="m 128.34646,266.32434 h 37.16516"
       sodipodi:nodetypes="cc"
       inkscape:transform-center-x="-18.58258" />
    <path
       style="fill:none;stroke:#000000;stroke-width:0.264583px;stroke-linecap:butt;stroke-linejoin:miter;stroke-opacity:1"
       d="M 153.34647,266.32434 H 229.381"
       id="path20427"
       inkscape:transform-center-x="-38.017265" />
    <circle
       style="fill:none;fill-opacity:1;stroke:#0000ff;stroke-width:0.25;stroke-miterlimit:4;stroke-dasharray:none;stroke-dashoffset:0;stroke-opacity:1"
       id="path21020"
       cx="153.34647"
       cy="266.32434"
       r="76.035004" />
    <circle
       style="fill:none;fill-opacity:1;stroke:#0000ff;stroke-width:0.25;stroke-miterlimit:4;stroke-dasharray:none;stroke-dashoffset:0;stroke-opacity:1"
       id="path21366"
       cx="128.34647"
       cy="266.32434"
       r="37.165001" />
    <path
       id="path19319"
       style="display:inline;fill:none;stroke:#000000;stroke-width:0.264583px;stroke-linecap:butt;stroke-linejoin:miter;stroke-opacity:1"
       d="m 215.84646,231.32434 h 5 v 5.00002 m 5,-5.00002 h -5 v -5.00002 m -85,5.00003 h 5 v 5.00002 m 5,-5.00002 h -5 v -5.00002 m 84.99999,5.00001 c 0,2.76141 -2.23857,4.99999 -5,4.99999 -2.76142,0 -5,-2.23858 -5,-4.99999 0,-2.76142 2.23858,-5 5,-5 2.76143,0 5,2.23858 5,5 z m -79.99999,-1e-5 a 5,5 0 0 1 -5,5 5,5 0 0 1 -5,-5 5,5 0 0 1 5,-5 5,5 0 0 1 5,5 z m -25,-20 h 80 80 v 20.00001 19.99999 h -80 -80 v -19.99999 z" />
    <path
       id="path19535"
       style="display:inline;fill:none;stroke:#008700;stroke-width:0.264583px;stroke-linecap:butt;stroke-linejoin:miter;stroke-opacity:1"
       d="m 204.83467,216.22872 4.92404,-0.86824 0.86824,4.92405 m 4.0558,-5.79229 -4.92404,0.86824 -0.86825,-4.92406 m -82.84041,19.68416 4.92404,-0.86824 0.86824,4.92406 m 4.0558,-5.7923 -4.92404,0.86824 -0.86825,-4.92406 m 84.5769,-9.83604 c 0.47951,2.71946 -1.33633,5.31275 -4.0558,5.79227 -2.71947,0.47951 -5.31277,-1.33633 -5.79228,-4.05579 -0.47952,-2.71947 1.33633,-5.31277 4.0558,-5.79228 2.71947,-0.47952 5.31276,1.33633 5.79228,4.0558 z m -78.78462,13.89184 c 0.47951,2.71947 -1.33633,5.31276 -4.05579,5.79228 -2.71948,0.47952 -5.31277,-1.33632 -5.79228,-4.0558 -0.47952,-2.71946 1.33632,-5.31276 4.05579,-5.79228 2.71947,-0.47951 5.31276,1.33633 5.79228,4.0558 z m -28.09315,-15.35495 78.78462,-13.89186 78.78462,-13.89185 3.47296,19.69617 3.47296,19.69614 -78.78462,13.89186 -78.78462,13.89185 -3.47296,-19.69615 z"
       sodipodi:nodetypes="ccccccccccccssssssssssccccccccc" />
    <path
       id="path19681"
       style="display:inline;fill:none;stroke:#ff8700;stroke-width:0.264583px;stroke-linecap:butt;stroke-linejoin:miter;stroke-opacity:1"
       d="m 190.3922,204.4768 4.69846,-1.7101 1.7101,4.69847 m 2.98836,-6.40857 -4.69846,1.7101 -1.71011,-4.69848 m -78.16376,33.7702 4.69846,-1.7101 1.7101,4.69848 m 2.98837,-6.40858 -4.69847,1.7101 -1.71011,-4.69849 m 81.58397,-24.37323 c 0.94446,2.59488 -0.39347,5.46409 -2.98836,6.40856 -2.59489,0.94445 -5.46411,-0.39348 -6.40856,-2.98836 -0.94447,-2.59489 0.39347,-5.46411 2.98836,-6.40856 2.59489,-0.94447 5.4641,0.39347 6.40856,2.98836 z m -75.17541,27.3616 c 0.94446,2.59489 -0.39347,5.46409 -2.98835,6.40856 -2.59489,0.94447 -5.46411,-0.39347 -6.40857,-2.98836 -0.94447,-2.59489 0.39347,-5.46411 2.98836,-6.40857 2.59489,-0.94446 5.4641,0.39348 6.40856,2.98837 z m -30.332717,-10.24335 75.175417,-27.36162 75.17541,-27.36161 6.8404,18.79387 6.8404,18.79384 -75.17541,27.36162 -75.17541,27.36161 -6.8404,-18.79385 z"
       sodipodi:nodetypes="ccccccccccccssssssssssccccccccc" />
    <path
       id="path24405"
       style="display:inline;fill:none;stroke:#ff0600;stroke-width:0.265;stroke-linecap:butt;stroke-linejoin:miter;stroke-miterlimit:4;stroke-dasharray:none;stroke-opacity:1"
       d="m 174.07079,197.01965 4.33013,-2.5 2.5,4.33013 m 1.83012,-6.83013 -4.33012,2.5 -2.50001,-4.33014 m -71.11215,46.83015 4.33013,-2.5 2.5,4.33014 m 1.83013,-6.83014 -4.33013,2.5 -2.50002,-4.33015 m 76.11216,-38.16986 c 1.38071,2.39146 0.56134,5.44941 -1.83012,6.83013 -2.39147,1.3807 -5.44943,0.56133 -6.83013,-1.83013 -1.38072,-2.39146 -0.56134,-5.44942 1.83013,-6.83012 2.39146,-1.38072 5.44941,-0.56134 6.83012,1.83012 z M 113.449,232.01964 c 1.38071,2.39147 0.56133,5.44941 -1.83012,6.83012 -2.39146,1.38072 -5.44942,0.56134 -6.83013,-1.83012 -1.38072,-2.39146 -0.56134,-5.44942 1.83012,-6.83013 2.39147,-1.38071 5.44942,-0.56133 6.83013,1.83013 z m -31.650642,-4.82051 69.282042,-40.00001 69.28203,-40 10,17.32053 10,17.3205 -69.28203,40.00001 -69.28203,39.99999 -10.000005,-17.3205 z"
       sodipodi:nodetypes="ccccccccccccssssssssssccccccccc" />
  </g>
</svg>
