<?xml version="1.0" encoding="UTF-8" standalone="no"?>
<!-- Created with Inkscape (http://www.inkscape.org/) -->

<svg
   width="400mm"
   height="400mm"
   viewBox="0 0 400 400"
   version="1.1"
   id="svg5"
   inkscape:version="1.1.2 (b8e25be833, 2022-02-05)"
   sodipodi:docname="Box_Mechanism.svg"
   xmlns:inkscape="http://www.inkscape.org/namespaces/inkscape"
   xmlns:sodipodi="http://sodipodi.sourceforge.net/DTD/sodipodi-0.dtd"
   xmlns="http://www.w3.org/2000/svg"
   xmlns:svg="http://www.w3.org/2000/svg">
  <sodipodi:namedview
     id="namedview7"
     pagecolor="#ffffff"
     bordercolor="#666666"
     borderopacity="1.0"
     inkscape:pageshadow="2"
     inkscape:pageopacity="0.0"
     inkscape:pagecheckerboard="0"
     inkscape:document-units="mm"
     showgrid="false"
     inkscape:zoom="0.41953217"
     inkscape:cx="1002.3069"
     inkscape:cy="825.91998"
     inkscape:window-width="1920"
     inkscape:window-height="1009"
     inkscape:window-x="-8"
     inkscape:window-y="-8"
     inkscape:window-maximized="1"
     inkscape:current-layer="layer3"
     inkscape:snap-smooth-nodes="true"
     inkscape:snap-intersection-paths="true" />
  <defs
     id="defs2" />
  <g
     inkscape:label="Layer 1"
     inkscape:groupmode="layer"
     id="layer1">
    <rect
       style="fill:none;stroke:#ff0000;stroke-width:0.264999"
       id="rect853"
       width="160"
       height="60"
       x="481.71313"
       y="135.55441" />
    <path
       id="rect935"
       style="fill:none;stroke:#ff0000;stroke-width:0.264999"
       d="m 481.71313,95.554433 h 80 80 v 20.000007 19.99999 h -80 -80 v -19.99999 z"
       sodipodi:nodetypes="ccccccccc" />
    <path
       id="rect1141"
       style="fill:none;stroke:#ff0000;stroke-width:0.264999"
       d="M 441.71313,195.55444 V 115.55445 35.554448 h 20 20 v 80.000002 79.99999 h -20 z"
       sodipodi:nodetypes="ccccccccc" />
    <path
       style="fill:none;stroke:#82807e;stroke-width:0.265;stroke-linecap:butt;stroke-linejoin:miter;stroke-miterlimit:4;stroke-dasharray:0.265, 0.53;stroke-dashoffset:0;stroke-opacity:1"
       d="m 441.71313,115.55445 200,-1e-5"
       id="path1650" />
    <path
       style="fill:none;stroke:#82807e;stroke-width:0.265;stroke-linecap:butt;stroke-linejoin:miter;stroke-miterlimit:4;stroke-dasharray:0.265, 0.53;stroke-dashoffset:0;stroke-opacity:1"
       d="M 461.71313,35.554448 V 195.55444"
       id="path1652" />
    <path
       style="fill:none;stroke:#82807e;stroke-width:0.265;stroke-linecap:butt;stroke-linejoin:miter;stroke-miterlimit:4;stroke-dasharray:0.265, 0.53;stroke-dashoffset:0;stroke-opacity:1"
       d="M 561.71313,95.554433 V 135.55443"
       id="path1820" />
    <path
       style="fill:none;stroke:#82807e;stroke-width:0.265;stroke-linecap:butt;stroke-linejoin:miter;stroke-miterlimit:4;stroke-dasharray:0.265, 0.53;stroke-dashoffset:0;stroke-opacity:1"
       d="M 501.71313,95.554433 V 135.55443"
       id="path1822"
       sodipodi:nodetypes="cc" />
    <path
       style="fill:none;stroke:#82807e;stroke-width:0.265;stroke-linecap:butt;stroke-linejoin:miter;stroke-miterlimit:4;stroke-dasharray:0.265, 0.53;stroke-dashoffset:0;stroke-opacity:1"
       d="m 441.71313,175.55444 h 40"
       id="path2188"
       sodipodi:nodetypes="cc" />
    <path
       style="fill:none;stroke:#82807e;stroke-width:0.265;stroke-linecap:butt;stroke-linejoin:miter;stroke-miterlimit:4;stroke-dasharray:0.265, 0.53;stroke-dashoffset:0;stroke-opacity:1"
       d="m 501.71313,115.55445 -20,29.99999 -20,30"
       id="path2280"
       sodipodi:nodetypes="ccc" />
    <path
       style="fill:none;stroke:#82807e;stroke-width:0.265;stroke-linecap:butt;stroke-linejoin:miter;stroke-miterlimit:4;stroke-dasharray:0.265, 0.53;stroke-dashoffset:0;stroke-opacity:1"
       d="m 496.71313,155.55444 -15,-10"
       id="path2419"
       sodipodi:nodetypes="cc" />
    <path
       style="fill:none;stroke:#0000ff;stroke-width:0.264583px;stroke-linecap:butt;stroke-linejoin:miter;stroke-opacity:1"
       d="m 501.71313,115.55445 -5,39.99999"
       id="path2587"
       sodipodi:nodetypes="cc" />
    <path
       id="path2611"
       style="fill:none;stroke:#ff0000;stroke-width:0.264999"
       d="m 501.71313,155.55444 c 0,2.76142 -2.23858,5 -5,5 -2.76143,0 -5,-2.23858 -5,-5 0,-2.76142 2.23857,-5 5,-5 2.76142,0 5,2.23858 5,5 z"
       sodipodi:nodetypes="sssss" />
    <circle
       style="fill:none;stroke:#ff0000;stroke-width:0.264999"
       id="circle4612"
       cx="501.71313"
       cy="115.55443"
       r="5" />
    <path
       style="fill:none;stroke:#0000ff;stroke-width:0.264583px;stroke-linecap:butt;stroke-linejoin:miter;stroke-opacity:1"
       d="m 461.71313,115.55445 50,24.99999 50,-25"
       id="path4865"
       sodipodi:nodetypes="ccc" />
    <path
       style="fill:none;stroke:#82807e;stroke-width:0.265;stroke-linecap:butt;stroke-linejoin:miter;stroke-miterlimit:4;stroke-dasharray:0.265, 0.53;stroke-dashoffset:0;stroke-opacity:1"
       d="m 511.71313,115.55445 v 24.99999"
       id="path4938"
       sodipodi:nodetypes="cc" />
    <path
       id="path5381"
       style="fill:none;stroke:#ff0000;stroke-width:0.264999"
       d="m 516.71313,140.55444 c 0,2.76142 -2.23858,5 -5,5 -2.76143,0 -5,-2.23858 -5,-5 0,-2.76142 2.23857,-5 5,-5 2.76142,0 5,2.23858 5,5 z"
       sodipodi:nodetypes="sssss" />
    <path
       id="path6351"
       style="fill:none;stroke:#ff0000;stroke-width:0.264999"
       d="m 566.71312,115.55444 c 0,2.76141 -2.23857,4.99999 -5,4.99999 -2.76142,0 -5,-2.23858 -5,-4.99999 0,-2.76142 2.23858,-5 5,-5 2.76143,0 5,2.23858 5,5 z"
       sodipodi:nodetypes="sssss" />
    <path
       style="fill:none;stroke:#0000ff;stroke-width:0.264583px;stroke-linecap:butt;stroke-linejoin:miter;stroke-opacity:1"
       d="m 461.71313,175.55444 35,-20"
       id="path6855"
       sodipodi:nodetypes="cc" />
    <circle
       style="fill:none;stroke:#ff0000;stroke-width:0.264999"
       id="circle6857"
       cx="461.71313"
       cy="175.55443"
       r="5" />
    <path
       id="path6960"
       style="fill:none;stroke:#ff0000;stroke-width:0.264999"
       d="m 466.71312,115.55445 c 0,2.76141 -2.23857,4.99999 -5,4.99999 -2.76142,0 -5,-2.23858 -5,-4.99999 0,-2.76142 2.23858,-5 5,-5 2.76143,0 5,2.23858 5,5 z"
       sodipodi:nodetypes="sssss" />
  </g>
  <g
     inkscape:groupmode="layer"
     id="layer2"
     inkscape:label="Closed">
    <path
       id="rect853-3"
       style="fill:#8a5c1b;fill-opacity:1;stroke:#000000;stroke-width:0.499999;stroke-miterlimit:4;stroke-dasharray:none;stroke-opacity:1"
       d="m 170.30077,201.56896 v 59.99996 h 160.00005 v -59.99996 z m 29.99972,3.00033 a 1.9999999,1.9999999 0 0 1 1.99988,1.99987 1.9999999,1.9999999 0 0 1 -1.99988,1.99988 1.9999999,1.9999999 0 0 1 -1.99988,-1.99988 1.9999999,1.9999999 0 0 1 1.99988,-1.99987 z m -15.00012,14.99959 a 1.9999999,1.9999999 0 0 1 2.0004,2.00041 1.9999999,1.9999999 0 0 1 -2.0004,1.99988 1.9999999,1.9999999 0 0 1 -1.99987,-1.99988 1.9999999,1.9999999 0 0 1 1.99987,-2.00041 z" />
    <path
       id="rect935-2"
       style="fill:#b3653e;fill-opacity:1;stroke:#000000;stroke-width:0.499999;stroke-miterlimit:4;stroke-dasharray:none;stroke-opacity:1"
       d="m 170.30077,161.56933 v 19.99981 19.99982 h 79.99977 80.00028 v -19.99982 -19.99981 h -80.00028 z m 19.99982,17.99994 a 1.9999999,1.9999999 0 0 1 1.99987,1.99987 1.9999999,1.9999999 0 0 1 -1.99987,1.99988 1.9999999,1.9999999 0 0 1 -1.99988,-1.99988 1.9999999,1.9999999 0 0 1 1.99988,-1.99987 z m 59.99995,0 a 1.9999999,1.9999999 0 0 1 1.99988,1.99987 1.9999999,1.9999999 0 0 1 -1.99988,1.99988 1.9999999,1.9999999 0 0 1 -1.99988,-1.99988 1.9999999,1.9999999 0 0 1 1.99988,-1.99987 z" />
    <path
       id="path2611-2"
       style="fill:#ce8f54;fill-opacity:1;stroke:#000000;stroke-width:0.499999;stroke-miterlimit:4;stroke-dasharray:none;stroke-opacity:1"
       d="m 190.30059,176.56893 a 5,5 0 0 0 -4.95784,4.38061 l -0.004,-5.3e-4 -4.99814,39.98311 -0.002,0.0164 c -0.0252,0.20322 -0.0382,0.41055 -0.0382,0.62063 0,2.7614 2.23827,4.9997 4.9997,4.9997 2.55137,0 4.65649,-1.91087 4.96197,-4.37959 l 4.99969,-40.00015 -0.003,-5.3e-4 a 5,5 0 0 0 0.0419,-0.6196 5,5 0 0 0 -5.00021,-5.00022 z m 0,3.00034 a 1.9999999,1.9999999 0 0 1 1.99987,1.99987 1.9999999,1.9999999 0 0 1 -1.99987,1.99988 1.9999999,1.9999999 0 0 1 -1.99988,-1.99988 1.9999999,1.9999999 0 0 1 1.99988,-1.99987 z m -5.00022,39.99961 a 2,2 0 0 1 2.0004,2.00041 2,2 0 0 1 -2.0004,1.99988 2,2 0 0 1 -1.99987,-1.99988 2,2 0 0 1 1.99987,-2.00041 z" />
    <path
       id="path5381-4"
       style="display:inline;fill:#ce8f54;fill-opacity:1;stroke:#000000;stroke-width:0.499999;stroke-miterlimit:4;stroke-dasharray:none;stroke-opacity:1"
       d="m 250.30054,176.56842 v 5.3e-4 c -0.80393,0 -1.56359,0.18996 -2.23656,0.5271 -0.0133,0.007 -0.0266,0.0134 -0.0398,0.0202 l -49.89152,24.94577 -0.0687,0.0341 c -1.63859,0.82087 -2.76313,2.51563 -2.76313,4.4731 0,2.76143 2.23826,4.9997 4.99969,4.9997 0.80399,0 1.56356,-0.18992 2.23656,-0.5271 l 0.0398,-0.0201 49.96026,-24.97986 v -5.3e-4 c 1.63852,-0.82091 2.76365,-2.51516 2.76365,-4.47259 0,-2.76142 -2.23878,-5.00022 -5.00021,-5.00022 z m 0,3.00085 a 2,2 0 0 1 1.99988,1.99987 2,2 0 0 1 -1.99988,1.99988 2,2 0 0 1 -1.99988,-1.99988 2,2 0 0 1 1.99988,-1.99987 z m -50.00005,25.00002 a 1.9999999,1.9999999 0 0 1 1.99988,1.99987 1.9999999,1.9999999 0 0 1 -1.99988,1.99988 1.9999999,1.9999999 0 0 1 -1.99988,-1.99988 1.9999999,1.9999999 0 0 1 1.99988,-1.99987 z" />
  </g>
  <g
     inkscape:groupmode="layer"
     id="layer3"
     inkscape:label="Open">
    <path
       id="rect935-2-6"
       style="fill:#b3653e;fill-opacity:1;stroke:#000000;stroke-width:0.499999;stroke-miterlimit:4;stroke-dasharray:none;stroke-opacity:1"
       d="m 101.18953,351.9052 h 19.99981 19.99981 v -79.99977 -80.00029 h -19.99981 -19.99981 v 80.00029 z m 17.99993,-19.99982 a 1.9999999,1.9999999 0 0 1 1.99988,-1.99988 1.9999999,1.9999999 0 0 1 1.99987,1.99988 1.9999999,1.9999999 0 0 1 -1.99987,1.99988 1.9999999,1.9999999 0 0 1 -1.99988,-1.99988 z m 0,-59.99995 a 1.9999999,1.9999999 0 0 1 1.99988,-1.99988 1.9999999,1.9999999 0 0 1 1.99987,1.99988 1.9999999,1.9999999 0 0 1 -1.99987,1.99988 1.9999999,1.9999999 0 0 1 -1.99988,-1.99988 z" />
    <path
       id="rect853-3-9"
       style="fill:#8a5c1b;fill-opacity:1;stroke:#000000;stroke-width:0.499999;stroke-miterlimit:4;stroke-dasharray:none;stroke-opacity:1"
       d="m 141.18915,291.90524 v 59.99996 h 160.00006 v -59.99996 z m 29.99972,3.00033 a 1.9999999,1.9999999 0 0 1 1.99988,1.99988 1.9999999,1.9999999 0 0 1 -1.99988,1.99988 1.9999999,1.9999999 0 0 1 -1.99988,-1.99988 1.9999999,1.9999999 0 0 1 1.99988,-1.99988 z m -15.00011,14.9996 a 1.9999999,1.9999999 0 0 1 2.00039,2.00041 1.9999999,1.9999999 0 0 1 -2.00039,1.99987 1.9999999,1.9999999 0 0 1 -1.99988,-1.99987 1.9999999,1.9999999 0 0 1 1.99988,-2.00041 z" />
    <path
       id="path2611-9"
       style="fill:#ce8f54;fill-opacity:1;stroke:#000000;stroke-width:1.88976;stroke-miterlimit:4;stroke-dasharray:none;stroke-opacity:1"
       d="m 590.32031,1159.957 c -3.41243,0 -6.61368,0.9041 -9.37695,2.4864 -0.01,0.01 -0.0195,0.012 -0.0293,0.017 l -132.25195,75.5762 a 18.897638,18.897638 0 0 0 -9.52149,16.4063 18.897638,18.897638 0 0 0 18.89649,18.8964 18.897638,18.897638 0 0 0 9.375,-2.4921 h 0.002 l 0.0664,-0.037 h 0.006 a 18.897638,18.897638 0 0 0 0.004,0 l 132.16602,-75.5175 0.043,-0.025 c 5.68769,-3.2573 9.51953,-9.3861 9.51953,-16.4102 0,-10.4368 -8.46157,-18.8965 -18.89844,-18.8965 z m 0,11.3379 a 7.5590551,7.5590551 0 0 1 7.56055,7.5586 7.5590551,7.5590551 0 0 1 -7.56055,7.5586 7.5590551,7.5590551 0 0 1 -7.55859,-7.5586 7.5590551,7.5590551 0 0 1 7.55859,-7.5586 z m -132.2832,75.5899 a 7.559055,7.559055 0 0 1 7.56055,7.5605 7.559055,7.559055 0 0 1 -7.56055,7.5586 7.559055,7.559055 0 0 1 -7.55859,-7.5586 7.559055,7.559055 0 0 1 7.55859,-7.5605 z"
       transform="scale(0.26458333)" />
    <path
       id="path5381-8"
       style="fill:#ce8f54;fill-opacity:1;stroke:#000000;stroke-width:1.88976;stroke-miterlimit:4;stroke-dasharray:none;stroke-opacity:1"
       d="m 458.03711,1008.7734 c -10.43686,0 -18.89649,8.4617 -18.89649,18.8985 0,7.3979 4.25081,13.8016 10.44336,16.9043 l 188.79493,94.3984 c 0.0104,0.01 0.0209,0.01 0.0312,0.016 l 0.15039,0.074 c 2.54363,1.2744 5.41442,1.9921 8.45312,1.9921 10.43686,0 18.89844,-8.4616 18.89844,-18.8984 0,-7.3985 -4.25201,-13.8038 -10.44531,-16.9062 h -0.002 l -188.79296,-94.3965 -0.0313,-0.016 c -0.0498,-0.026 -0.10037,-0.049 -0.15039,-0.074 -2.54362,-1.2744 -5.41442,-1.9922 -8.45312,-1.9922 z m 0,11.3399 a 7.5590551,7.5590551 0 0 1 7.56055,7.5605 7.5590551,7.5590551 0 0 1 -7.56055,7.5586 7.5590551,7.5590551 0 0 1 -7.55859,-7.5586 7.5590551,7.5590551 0 0 1 7.55859,-7.5605 z m 188.97656,94.4883 a 7.559055,7.559055 0 0 1 7.5586,7.5586 7.559055,7.559055 0 0 1 -7.5586,7.5605 7.559055,7.559055 0 0 1 -7.55859,-7.5605 7.559055,7.559055 0 0 1 7.55859,-7.5586 z"
       transform="scale(0.26458333)" />
  </g>
</svg>
