<?xml version="1.0" encoding="UTF-8" standalone="no"?>
<!-- Created with Inkscape (http://www.inkscape.org/) -->

<svg
   sodipodi:docname="Box_Mechanism.svg"
   inkscape:version="1.1.2 (b8e25be833, 2022-02-05)"
   id="svg5"
   version="1.1"
   viewBox="0 0 400 400"
   height="400mm"
   width="400mm"
   xmlns:inkscape="http://www.inkscape.org/namespaces/inkscape"
   xmlns:sodipodi="http://sodipodi.sourceforge.net/DTD/sodipodi-0.dtd"
   xmlns="http://www.w3.org/2000/svg"
   xmlns:svg="http://www.w3.org/2000/svg">
  <sodipodi:namedview
     id="namedview7"
     pagecolor="#ffffff"
     bordercolor="#666666"
     borderopacity="1.0"
     inkscape:pageshadow="2"
     inkscape:pageopacity="0.0"
     inkscape:pagecheckerboard="0"
     inkscape:document-units="mm"
     showgrid="false"
     inkscape:zoom="1.4142136"
     inkscape:cx="484.7217"
     inkscape:cy="620.4862"
     inkscape:window-width="1920"
     inkscape:window-height="1009"
     inkscape:window-x="-8"
     inkscape:window-y="-8"
     inkscape:window-maximized="1"
     inkscape:current-layer="g18813"
     inkscape:snap-smooth-nodes="true"
     inkscape:snap-intersection-paths="true"
     inkscape:snap-global="true"
     inkscape:snap-center="true"
     inkscape:snap-bbox="false"
     inkscape:object-paths="true"
     inkscape:lockguides="true" />
  <defs
     id="defs2" />
  <g
     inkscape:label="Sketch 1"
     inkscape:groupmode="layer"
     id="layer1">
    <rect
       style="fill:none;stroke:#ff0000;stroke-width:0.264999"
       id="rect853"
       width="160"
       height="60"
       x="481.71313"
       y="135.55441" />
    <path
       id="rect935"
       style="fill:none;stroke:#ff0000;stroke-width:0.264999"
       d="m 481.71313,95.554433 h 80 80 v 20.000007 19.99999 h -80 -80 v -19.99999 z"
       sodipodi:nodetypes="ccccccccc" />
    <path
       id="rect1141"
       style="fill:none;stroke:#ff0000;stroke-width:0.264999"
       d="M 441.71313,195.55444 V 115.55445 35.554448 h 20 20 v 80.000002 79.99999 h -20 z"
       sodipodi:nodetypes="ccccccccc" />
    <path
       style="fill:none;stroke:#82807e;stroke-width:0.265;stroke-linecap:butt;stroke-linejoin:miter;stroke-miterlimit:4;stroke-dasharray:0.265, 0.53;stroke-dashoffset:0;stroke-opacity:1"
       d="m 441.71313,115.55445 200,-1e-5"
       id="path1650" />
    <path
       style="fill:none;stroke:#82807e;stroke-width:0.265;stroke-linecap:butt;stroke-linejoin:miter;stroke-miterlimit:4;stroke-dasharray:0.265, 0.53;stroke-dashoffset:0;stroke-opacity:1"
       d="M 461.71313,35.554448 V 195.55444"
       id="path1652" />
    <path
       style="fill:none;stroke:#82807e;stroke-width:0.265;stroke-linecap:butt;stroke-linejoin:miter;stroke-miterlimit:4;stroke-dasharray:0.265, 0.53;stroke-dashoffset:0;stroke-opacity:1"
       d="M 561.71313,95.554433 V 135.55443"
       id="path1820" />
    <path
       style="fill:none;stroke:#82807e;stroke-width:0.265;stroke-linecap:butt;stroke-linejoin:miter;stroke-miterlimit:4;stroke-dasharray:0.265, 0.53;stroke-dashoffset:0;stroke-opacity:1"
       d="M 501.71313,95.554433 V 135.55443"
       id="path1822"
       sodipodi:nodetypes="cc" />
    <path
       style="fill:none;stroke:#82807e;stroke-width:0.265;stroke-linecap:butt;stroke-linejoin:miter;stroke-miterlimit:4;stroke-dasharray:0.265, 0.53;stroke-dashoffset:0;stroke-opacity:1"
       d="m 441.71313,175.55444 h 40"
       id="path2188"
       sodipodi:nodetypes="cc" />
    <path
       style="fill:none;stroke:#82807e;stroke-width:0.265;stroke-linecap:butt;stroke-linejoin:miter;stroke-miterlimit:4;stroke-dasharray:0.265, 0.53;stroke-dashoffset:0;stroke-opacity:1"
       d="m 501.71313,115.55445 -20,29.99999 -20,30"
       id="path2280"
       sodipodi:nodetypes="ccc" />
    <path
       style="fill:none;stroke:#82807e;stroke-width:0.265;stroke-linecap:butt;stroke-linejoin:miter;stroke-miterlimit:4;stroke-dasharray:0.265, 0.53;stroke-dashoffset:0;stroke-opacity:1"
       d="m 496.71313,155.55444 -15,-10"
       id="path2419"
       sodipodi:nodetypes="cc" />
    <path
       style="fill:none;stroke:#0000ff;stroke-width:0.264583px;stroke-linecap:butt;stroke-linejoin:miter;stroke-opacity:1"
       d="m 501.71313,115.55445 -5,39.99999"
       id="path2587"
       sodipodi:nodetypes="cc" />
    <path
       id="path2611"
       style="fill:none;stroke:#ff0000;stroke-width:0.264999"
       d="m 501.71313,155.55444 c 0,2.76142 -2.23858,5 -5,5 -2.76143,0 -5,-2.23858 -5,-5 0,-2.76142 2.23857,-5 5,-5 2.76142,0 5,2.23858 5,5 z"
       sodipodi:nodetypes="sssss" />
    <circle
       style="fill:none;stroke:#ff0000;stroke-width:0.264999"
       id="circle4612"
       cx="501.71313"
       cy="115.55443"
       r="5" />
    <path
       style="fill:none;stroke:#0000ff;stroke-width:0.264583px;stroke-linecap:butt;stroke-linejoin:miter;stroke-opacity:1"
       d="m 461.71313,115.55445 50,24.99999 50,-25"
       id="path4865"
       sodipodi:nodetypes="ccc" />
    <path
       style="fill:none;stroke:#82807e;stroke-width:0.265;stroke-linecap:butt;stroke-linejoin:miter;stroke-miterlimit:4;stroke-dasharray:0.265, 0.53;stroke-dashoffset:0;stroke-opacity:1"
       d="m 511.71313,115.55445 v 24.99999"
       id="path4938"
       sodipodi:nodetypes="cc" />
    <path
       id="path5381"
       style="fill:none;stroke:#ff0000;stroke-width:0.264999"
       d="m 516.71313,140.55444 c 0,2.76142 -2.23858,5 -5,5 -2.76143,0 -5,-2.23858 -5,-5 0,-2.76142 2.23857,-5 5,-5 2.76142,0 5,2.23858 5,5 z"
       sodipodi:nodetypes="sssss" />
    <path
       id="path6351"
       style="fill:none;stroke:#ff0000;stroke-width:0.264999"
       d="m 566.71312,115.55444 c 0,2.76141 -2.23857,4.99999 -5,4.99999 -2.76142,0 -5,-2.23858 -5,-4.99999 0,-2.76142 2.23858,-5 5,-5 2.76143,0 5,2.23858 5,5 z"
       sodipodi:nodetypes="sssss" />
    <path
       style="fill:none;stroke:#0000ff;stroke-width:0.264583px;stroke-linecap:butt;stroke-linejoin:miter;stroke-opacity:1"
       d="m 461.71313,175.55444 35,-20"
       id="path6855"
       sodipodi:nodetypes="cc" />
    <circle
       style="fill:none;stroke:#ff0000;stroke-width:0.264999"
       id="circle6857"
       cx="461.71313"
       cy="175.55443"
       r="5" />
    <path
       id="path6960"
       style="fill:none;stroke:#ff0000;stroke-width:0.264999"
       d="m 466.71312,115.55445 c 0,2.76141 -2.23857,4.99999 -5,4.99999 -2.76142,0 -5,-2.23858 -5,-4.99999 0,-2.76142 2.23858,-5 5,-5 2.76143,0 5,2.23858 5,5 z"
       sodipodi:nodetypes="sssss" />
  </g>
  <g
     inkscape:label="Sketch 2"
     inkscape:groupmode="layer"
     id="g16347">
    <rect
       style="fill:none;stroke:#ff0000;stroke-width:0.264999"
       id="rect16307"
       width="160"
       height="60"
       x="481.71313"
       y="321.95981" />
    <path
       id="path16309"
       style="fill:none;stroke:#ff0000;stroke-width:0.264999"
       d="m 481.71313,281.95984 h 80 80 v 20.00001 19.99999 h -80 -80 v -19.99999 z"
       sodipodi:nodetypes="ccccccccc" />
    <path
       id="path16311"
       style="fill:none;stroke:#ff0000;stroke-width:0.264999"
       d="m 441.71313,381.95985 v -79.99999 -80.00001 h 20 20 v 80.00001 79.99999 h -20 z"
       sodipodi:nodetypes="ccccccccc" />
    <path
       style="fill:none;stroke:#82807e;stroke-width:0.265;stroke-linecap:butt;stroke-linejoin:miter;stroke-miterlimit:4;stroke-dasharray:0.265, 0.53;stroke-dashoffset:0;stroke-opacity:1"
       d="m 481.71313,301.95986 160,-10e-6"
       id="path16313"
       sodipodi:nodetypes="cc" />
    <path
       style="fill:none;stroke:#82807e;stroke-width:0.265;stroke-linecap:butt;stroke-linejoin:miter;stroke-miterlimit:4;stroke-dasharray:0.265, 0.53;stroke-dashoffset:0;stroke-opacity:1"
       d="m 461.71313,221.95985 v 160"
       id="path16315" />
    <path
       style="fill:none;stroke:#82807e;stroke-width:0.265;stroke-linecap:butt;stroke-linejoin:miter;stroke-miterlimit:4;stroke-dasharray:0.265, 0.53;stroke-dashoffset:0;stroke-opacity:1"
       d="m 581.71313,281.95985 v 20 20"
       id="path16317"
       sodipodi:nodetypes="ccc" />
    <path
       style="fill:none;stroke:#82807e;stroke-width:0.265;stroke-linecap:butt;stroke-linejoin:miter;stroke-miterlimit:4;stroke-dasharray:0.265, 0.53;stroke-dashoffset:0;stroke-opacity:1"
       d="m 501.71313,281.95984 v 40"
       id="path16319"
       sodipodi:nodetypes="cc" />
    <path
       style="fill:none;stroke:#82807e;stroke-width:0.265;stroke-linecap:butt;stroke-linejoin:miter;stroke-miterlimit:4;stroke-dasharray:0.265, 0.53;stroke-dashoffset:0;stroke-opacity:1"
       d="m 441.71313,361.95985 h 40"
       id="path16321"
       sodipodi:nodetypes="cc" />
    <path
       style="fill:none;stroke:#82807e;stroke-width:0.265;stroke-linecap:butt;stroke-linejoin:miter;stroke-miterlimit:4;stroke-dasharray:0.265, 0.53;stroke-dashoffset:0;stroke-opacity:1"
       d="m 501.71313,301.95986 -20,29.99999 -20,30"
       id="path16323"
       sodipodi:nodetypes="ccc" />
    <path
       style="fill:none;stroke:#82807e;stroke-width:0.265;stroke-linecap:butt;stroke-linejoin:miter;stroke-miterlimit:4;stroke-dasharray:0.265, 0.53;stroke-dashoffset:0;stroke-opacity:1"
       d="m 496.71313,341.95985 -3.75,-2.5 -3.75,-2.5 -3.75,-2.5 -3.75,-2.5"
       id="path16325"
       sodipodi:nodetypes="ccccc" />
    <path
       id="path16329"
       style="fill:none;stroke:#ff0000;stroke-width:0.264999"
       d="m 494.21313,336.95985 c 0,2.76142 -2.23858,5 -5,5 -2.76143,0 -5,-2.23858 -5,-5 0,-2.76142 2.23857,-5 5,-5 2.76142,0 5,2.23858 5,5 z"
       sodipodi:nodetypes="sssss" />
    <path
       id="circle16331"
       style="fill:none;stroke:#ff0000;stroke-width:0.264999"
       d="m 506.71313,301.95984 a 5,5 0 0 1 -5,5 5,5 0 0 1 -5,-5 5,5 0 0 1 5,-5 5,5 0 0 1 5,5 z" />
    <path
       style="fill:none;stroke:#0000ff;stroke-width:0.264583px;stroke-linecap:butt;stroke-linejoin:miter;stroke-opacity:1"
       d="m 461.71313,281.95986 52.50001,54.99999 67.49999,-35"
       id="path16333"
       sodipodi:nodetypes="ccc" />
    <path
       id="path16337"
       style="fill:none;stroke:#ff0000;stroke-width:0.264999"
       d="m 519.21314,336.95985 c 0,2.76142 -2.23858,5 -5,5 -2.76143,0 -5,-2.23858 -5,-5 0,-2.76142 2.23857,-5 5,-5 2.76142,0 5,2.23858 5,5 z"
       sodipodi:nodetypes="sssss" />
    <path
       id="path16339"
       style="fill:none;stroke:#ff0000;stroke-width:0.264999"
       d="m 586.71312,301.95985 c 0,2.76141 -2.23857,4.99999 -5,4.99999 -2.76142,0 -5,-2.23858 -5,-4.99999 0,-2.76142 2.23858,-5 5,-5 2.76143,0 5,2.23858 5,5 z"
       sodipodi:nodetypes="sssss" />
    <path
       id="path16341"
       style="fill:none;stroke:#0000ff;stroke-width:0.264583px;stroke-linecap:butt;stroke-linejoin:miter;stroke-opacity:1"
       d="m 461.71313,361.95985 27.5,-25 12.5,-34.99999"
       sodipodi:nodetypes="ccc" />
    <circle
       style="fill:none;stroke:#ff0000;stroke-width:0.264999"
       id="circle16343"
       cx="461.71313"
       cy="361.95984"
       r="5" />
    <path
       id="path16345"
       style="fill:none;stroke:#ff0000;stroke-width:0.264999"
       d="m 466.71312,281.95986 c 0,2.76141 -2.23857,4.99999 -5,4.99999 -2.76142,0 -5,-2.23858 -5,-4.99999 0,-2.76142 2.23858,-5 5,-5 2.76143,0 5,2.23858 5,5 z"
       sodipodi:nodetypes="sssss" />
    <path
       style="fill:none;stroke:#82807e;stroke-width:0.265;stroke-linecap:butt;stroke-linejoin:miter;stroke-miterlimit:4;stroke-dasharray:0.265, 0.53;stroke-dashoffset:0;stroke-opacity:1"
       d="m 461.71313,261.95986 v 20 20"
       id="path16426"
       sodipodi:nodetypes="ccc" />
    <path
       style="fill:none;stroke:#82807e;stroke-width:0.265;stroke-linecap:butt;stroke-linejoin:miter;stroke-miterlimit:4;stroke-dasharray:0.265, 0.53;stroke-dashoffset:0;stroke-opacity:1"
       d="m 601.71313,301.95985 h -20 -20"
       id="path16580"
       sodipodi:nodetypes="ccc" />
    <path
       style="fill:none;stroke:#82807e;stroke-width:0.265;stroke-linecap:butt;stroke-linejoin:miter;stroke-miterlimit:4;stroke-dasharray:0.265, 0.53;stroke-dashoffset:0;stroke-opacity:1"
       d="m 481.71313,281.95986 h -20 -20"
       id="path16734"
       sodipodi:nodetypes="ccc" />
    <path
       style="fill:none;stroke:#82807e;stroke-width:0.265;stroke-linecap:butt;stroke-linejoin:miter;stroke-miterlimit:4;stroke-dasharray:0.265, 0.53;stroke-dashoffset:0;stroke-opacity:1"
       d="m 581.71313,301.95985 -60,-10 -60,-9.99999"
       id="path16774"
       sodipodi:nodetypes="ccc" />
    <path
       style="fill:none;stroke:#82807e;stroke-width:0.265;stroke-linecap:butt;stroke-linejoin:miter;stroke-miterlimit:4;stroke-dasharray:0.265, 0.53;stroke-dashoffset:0;stroke-opacity:1"
       d="m 511.71314,351.95985 10,-60"
       id="path16852"
       sodipodi:nodetypes="cc" />
    <path
       style="fill:none;stroke:#000000;stroke-width:0.264583px;stroke-linecap:butt;stroke-linejoin:miter;stroke-opacity:1"
       d="M 514.21314,336.95985 H 489.21313"
       id="path18103"
       sodipodi:nodetypes="cc" />
  </g>
  <g
     inkscape:label="Sketch 3"
     id="g948"
     transform="translate(-413.09177,-139.19397)"
     inkscape:groupmode="layer">
    <rect
       style="fill:none;stroke:#ff0000;stroke-width:0.264999"
       id="rect900"
       width="160"
       height="70"
       x="894.05658"
       y="648.24243" />
    <path
       id="path902"
       style="fill:none;stroke:#ff0000;stroke-width:0.264999"
       d="m 894.05655,618.2426 h 80 79.99995 v 14.99994 14.99993 h -79.99995 -80 v -14.99993 z"
       sodipodi:nodetypes="ccccccccc" />
    <path
       style="fill:none;stroke:#82807e;stroke-width:0.265;stroke-linecap:butt;stroke-linejoin:miter;stroke-miterlimit:4;stroke-dasharray:0.265, 0.53;stroke-dashoffset:0;stroke-opacity:1"
       d="M 894.05655,633.24254 H 1054.0565"
       id="path906"
       sodipodi:nodetypes="cc" />
    <path
       style="fill:none;stroke:#82807e;stroke-width:0.265;stroke-linecap:butt;stroke-linejoin:miter;stroke-miterlimit:4;stroke-dasharray:0.265, 0.53;stroke-dashoffset:0;stroke-opacity:1"
       d="m 1034.0567,618.2426 v 29.99987"
       id="path912"
       sodipodi:nodetypes="cc" />
    <path
       style="fill:none;stroke:#82807e;stroke-width:0.265;stroke-linecap:butt;stroke-linejoin:miter;stroke-miterlimit:4;stroke-dasharray:0.265, 0.53;stroke-dashoffset:0;stroke-opacity:1"
       d="m 944.05669,618.2426 v 29.99987"
       id="path3153"
       sodipodi:nodetypes="cc" />
    <path
       style="fill:none;stroke:#82807e;stroke-width:0.265;stroke-linecap:butt;stroke-linejoin:miter;stroke-miterlimit:4;stroke-dasharray:0.265, 0.53;stroke-dashoffset:0;stroke-opacity:1"
       d="m 869.05663,718.24244 v -160"
       id="path3155"
       sodipodi:nodetypes="cc" />
    <path
       style="fill:none;stroke:#82807e;stroke-width:0.265;stroke-linecap:butt;stroke-linejoin:miter;stroke-miterlimit:4;stroke-dasharray:0.265, 0.53;stroke-dashoffset:0;stroke-opacity:1"
       d="m 854.05669,578.2423 h 29.99987"
       id="path3157"
       sodipodi:nodetypes="cc" />
    <path
       style="fill:none;stroke:#82807e;stroke-width:0.265;stroke-linecap:butt;stroke-linejoin:miter;stroke-miterlimit:4;stroke-dasharray:0.265, 0.53;stroke-dashoffset:0;stroke-opacity:1"
       d="m 854.05669,668.2423 h 29.99987"
       id="path3159"
       sodipodi:nodetypes="cc" />
    <path
       id="path3161"
       style="fill:none;stroke:#ff0000;stroke-width:0.264999"
       d="m 854.05669,718.24244 v -80 -80 h 14.99994 14.99993 v 80 80 h -14.99993 z"
       sodipodi:nodetypes="ccccccccc" />
    <path
       style="fill:none;stroke:#88ccff;stroke-width:0.1;stroke-linecap:butt;stroke-linejoin:miter;stroke-miterlimit:4;stroke-dasharray:none;stroke-opacity:1"
       d="m 869.05663,668.2423 75.00006,-34.99976"
       id="path3196" />
    <path
       style="fill:none;stroke:#88ccff;stroke-width:0.1;stroke-linecap:butt;stroke-linejoin:miter;stroke-miterlimit:4;stroke-dasharray:none;stroke-opacity:1"
       d="m 906.55666,650.74242 17.49988,37.50003"
       id="path3330"
       sodipodi:nodetypes="cc" />
    <path
       style="fill:none;stroke:#88ccff;stroke-width:0.1;stroke-linecap:butt;stroke-linejoin:miter;stroke-miterlimit:4;stroke-dasharray:none;stroke-opacity:1"
       d="m 869.05663,578.2423 165.00007,55.00024"
       id="path3427"
       sodipodi:nodetypes="cc" />
    <path
       style="fill:none;stroke:#88ccff;stroke-width:0.1;stroke-linecap:butt;stroke-linejoin:miter;stroke-miterlimit:4;stroke-dasharray:none;stroke-opacity:1"
       d="m 951.55666,605.74242 -27.50012,82.50003 m 0,0 -27.50012,82.50003"
       id="path3467"
       sodipodi:nodetypes="cccc" />
    <path
       style="fill:none;stroke:#000000;stroke-width:0.264583px;stroke-linecap:butt;stroke-linejoin:miter;stroke-opacity:1"
       d="m 910.05672,648.2426 v 10"
       id="path3692"
       sodipodi:nodetypes="cc" />
    <path
       style="fill:none;stroke:#000000;stroke-width:0.264583px;stroke-linecap:butt;stroke-linejoin:miter;stroke-opacity:1"
       d="M 910.05672,658.2426 V 643.24244 H 889.05655 L 869.05663,668.2423"
       id="path6128"
       sodipodi:nodetypes="cccc" />
    <path
       id="path6902"
       style="fill:#d29200;fill-opacity:1;stroke:#000000;stroke-width:0.3;stroke-linecap:butt;stroke-linejoin:miter;stroke-miterlimit:4;stroke-dasharray:none;stroke-opacity:1"
       d="m 885.15521,640.12096 c 0.94777,-1.18623 2.38321,-1.87796 3.90157,-1.87896 l 21.00009,1.6e-4 c 2.76142,0 5,2.23858 5,5 l -1.5e-4,15.00044 c 0,2.76142 -2.23858,5 -5,5 -2.76142,0 -5,-2.23858 -5,-5 v -10.00016 h -13.59704 l -18.50387,23.11923 c -0.95012,1.18214 -2.3824,1.87554 -3.89899,1.88054 -2.76139,1.2e-4 -5.00005,-2.23831 -5.00022,-4.99969 0.005,-1.13388 0.39465,-2.23249 1.10079,-3.11964 l 19.99482,-25.00392"
       sodipodi:nodetypes="cccccscccccccc" />
    <path
       id="path9620"
       style="fill:none;stroke:#000000;stroke-width:0.3;stroke-linecap:butt;stroke-linejoin:miter;stroke-miterlimit:4;stroke-dasharray:none;stroke-opacity:1"
       d="m 940.01266,665.39249 c -0.41861,1.45951 -1.47757,2.65013 -2.87875,3.23505 l -19.38468,8.07699 c -2.549,1.06211 -5.47638,-0.14325 -6.53849,-2.69225 l -5.76939,-13.84656 c -1.0621,-2.54899 0.14326,-5.47638 2.69225,-6.53849 2.54899,-1.0621 5.47638,0.14326 6.53849,2.69225 l 3.8463,9.23088 12.55106,-5.22974 8.18823,-28.45778 c 0.42235,-1.45664 1.47775,-2.64759 2.87575,-3.23552 2.54892,-1.06221 5.47632,0.14299 6.53857,2.69188 0.4315,1.04858 0.49438,2.21254 0.18378,3.30304 l -8.83959,30.77094"
       inkscape:transform-center-x="-16.995919"
       inkscape:transform-center-y="-5.5767166"
       sodipodi:nodetypes="cccccssccccccc" />
    <path
       style="fill:none;stroke:#000000;stroke-width:0.264583px;stroke-linecap:butt;stroke-linejoin:miter;stroke-opacity:1"
       d="M 924.05654,688.24245 H 869.05663"
       id="path11794" />
    <path
       style="fill:none;stroke:#000000;stroke-width:0.264583px;stroke-linecap:butt;stroke-linejoin:miter;stroke-opacity:1"
       d="M 879.07337,568.22556 869.05663,578.2423 858.8678,588.43113"
       id="path12118" />
    <path
       style="fill:none;stroke:#000000;stroke-width:0.264583px;stroke-linecap:butt;stroke-linejoin:miter;stroke-opacity:1"
       d="m 869.05663,578.2423 70.00017,70.00017 -15.00026,39.99998"
       id="path12120"
       inkscape:transform-center-x="19.999825"
       inkscape:transform-center-y="-55.000075" />
    <path
       style="fill:none;stroke:#000000;stroke-width:0.264583px;stroke-linecap:butt;stroke-linejoin:miter;stroke-opacity:1"
       d="m 1034.0567,633.24254 -70.00018,70.00017 -39.99998,-15.00026"
       id="path12202"
       inkscape:transform-center-x="-55.000075"
       inkscape:transform-center-y="-19.999825" />
    <path
       id="path12303"
       style="fill:#d29200;stroke:#000000;stroke-width:0.3"
       d="m 869.05681,573.24211 c -1.27961,0 -2.55939,0.4882 -3.5357,1.46451 -1.95263,1.95262 -1.95262,5.11879 0,7.07141 l 67.72351,67.72299 -13.86995,36.98586 c -0.96962,2.5856 0.34084,5.46771 2.92644,6.43733 2.5856,0.96962 5.46719,-0.34032 6.43681,-2.92592 l 15.00064,-40.00014 c 0.0369,-0.0984 0.0694,-0.19748 0.0997,-0.29662 0.009,-0.028 0.0163,-0.0561 0.0243,-0.0842 0.0383,-0.13333 0.0714,-0.267 0.0982,-0.40101 0.003,-0.0162 0.006,-0.0324 0.009,-0.0486 0.0282,-0.14866 0.0502,-0.29731 0.0646,-0.44597 0.0312,-0.32165 0.0306,-0.64239 0,-0.95808 -2e-5,-1.7e-4 10e-6,-2.6e-4 0,-5.3e-4 -4e-5,-2.6e-4 3e-5,-7.9e-4 0,-10e-4 -0.0153,-0.15743 -0.0377,-0.31375 -0.0677,-0.46818 -0.001,-0.007 -0.003,-0.0134 -0.005,-0.0202 -0.0295,-0.14848 -0.0649,-0.29502 -0.10748,-0.43976 -0.005,-0.0163 -0.0106,-0.0323 -0.0155,-0.0486 -0.0415,-0.13592 -0.0878,-0.27031 -0.14056,-0.40204 -0.009,-0.0227 -0.0195,-0.045 -0.0289,-0.0677 -0.0515,-0.1233 -0.10727,-0.24497 -0.16846,-0.3638 -0.0155,-0.0301 -0.0324,-0.0595 -0.0486,-0.0894 -0.0633,-0.11704 -0.13056,-0.23182 -0.20309,-0.34365 -0.0139,-0.0213 -0.0281,-0.0424 -0.0424,-0.0636 -0.0822,-0.12256 -0.17001,-0.24185 -0.26304,-0.35708 -0.007,-0.008 -0.0134,-0.0166 -0.0202,-0.0248 -0.10336,-0.12638 -0.21315,-0.248 -0.32918,-0.36432 -7.9e-4,-8e-4 -10e-4,-0.001 -0.002,-0.002 l -0.0955,-0.095 -69.90477,-69.9053 c -0.97631,-0.97631 -2.25558,-1.4645 -3.53519,-1.46451 z" />
  </g>
  <g
     inkscape:label="Sketch 4"
     id="g18813"
     transform="translate(-413.092,-139.194)"
     inkscape:groupmode="layer">
    <rect
       style="fill:none;stroke:#ff0000;stroke-width:0.264999"
       id="rect18769"
       width="160"
       height="70"
       x="538.0144"
       y="299.55219" />
    <path
       id="path18771"
       style="fill:none;stroke:#ff0000;stroke-width:0.264999"
       d="m 538.0144,269.55235 h 80 79.99995 v 14.99994 14.99993 h -79.99995 -80 v -14.99993 z"
       sodipodi:nodetypes="ccccccccc" />
    <path
       style="display:none;fill:none;stroke:#82807e;stroke-width:0.265;stroke-linecap:butt;stroke-linejoin:miter;stroke-miterlimit:4;stroke-dasharray:0.265, 0.53;stroke-dashoffset:0;stroke-opacity:1"
       d="M 538.0144,284.55229 H 698.01435"
       id="path18773"
       sodipodi:nodetypes="cc" />
    <path
       style="fill:none;stroke:#82807e;stroke-width:0.265;stroke-linecap:butt;stroke-linejoin:miter;stroke-miterlimit:4;stroke-dasharray:0.265, 0.53;stroke-dashoffset:0;stroke-opacity:1"
       d="m 678.01455,269.55235 v 29.99987"
       id="path18775"
       sodipodi:nodetypes="cc" />
    <path
       style="display:none;fill:none;stroke:#82807e;stroke-width:0.265;stroke-linecap:butt;stroke-linejoin:miter;stroke-miterlimit:4;stroke-dasharray:0.265, 0.53;stroke-dashoffset:0;stroke-opacity:1"
       d="m 588.01454,269.55235 v 29.99987"
       id="path18777"
       sodipodi:nodetypes="cc" />
    <path
       style="fill:none;stroke:#82807e;stroke-width:0.265;stroke-linecap:butt;stroke-linejoin:miter;stroke-miterlimit:4;stroke-dasharray:0.265, 0.53;stroke-dashoffset:0;stroke-opacity:1"
       d="m 513.01448,369.55219 v -160"
       id="path18779"
       sodipodi:nodetypes="cc" />
    <path
       style="fill:none;stroke:#82807e;stroke-width:0.265;stroke-linecap:butt;stroke-linejoin:miter;stroke-miterlimit:4;stroke-dasharray:0.265, 0.53;stroke-dashoffset:0;stroke-opacity:1"
       d="m 498.01454,229.55205 h 29.99987"
       id="path18781"
       sodipodi:nodetypes="cc" />
    <path
       style="fill:none;stroke:#82807e;stroke-width:0.265;stroke-linecap:butt;stroke-linejoin:miter;stroke-miterlimit:4;stroke-dasharray:0.265, 0.53;stroke-dashoffset:0;stroke-opacity:1"
       d="m 498.01454,319.55205 h 29.99987"
       id="path18783"
       sodipodi:nodetypes="cc" />
    <path
       id="path18785"
       style="fill:none;stroke:#ff0000;stroke-width:0.264999"
       d="m 498.01454,369.55219 v -80 -80 h 14.99994 14.99993 v 80 80 h -14.99993 z"
       sodipodi:nodetypes="ccccccccc" />
    <path
       style="display:none;fill:none;stroke:#88ccff;stroke-width:0.1;stroke-linecap:butt;stroke-linejoin:miter;stroke-miterlimit:4;stroke-dasharray:none;stroke-opacity:1"
       d="m 513.01448,319.55205 75.00006,-34.99976"
       id="path18787" />
    <path
       style="fill:none;stroke:#88ccff;stroke-width:0.1;stroke-linecap:butt;stroke-linejoin:miter;stroke-miterlimit:4;stroke-dasharray:none;stroke-opacity:1"
       d="m 550.51451,302.05217 17.49988,37.50003"
       id="path18789"
       sodipodi:nodetypes="cc" />
    <path
       style="fill:none;stroke:#88ccff;stroke-width:0.1;stroke-linecap:butt;stroke-linejoin:miter;stroke-miterlimit:4;stroke-dasharray:none;stroke-opacity:1"
       d="m 513.01448,229.55205 165.00007,55.00024"
       id="path18791"
       sodipodi:nodetypes="cc" />
    <path
       style="display:none;fill:none;stroke:#88ccff;stroke-width:0.1;stroke-linecap:butt;stroke-linejoin:miter;stroke-miterlimit:4;stroke-dasharray:none;stroke-opacity:1"
       d="m 595.51451,257.05217 -27.50012,82.50003 m 0,0 -27.50012,82.50003"
       id="path18793"
       sodipodi:nodetypes="cccc" />
    <path
       style="fill:none;stroke:#000000;stroke-width:0.264583px;stroke-linecap:butt;stroke-linejoin:miter;stroke-opacity:1"
       d="m 554.01457,299.55235 v 10"
       id="path18795"
       sodipodi:nodetypes="cc" />
    <path
       style="fill:none;stroke:#000000;stroke-width:0.264583px;stroke-linecap:butt;stroke-linejoin:miter;stroke-opacity:1"
       d="M 554.01457,309.55235 V 294.55219 H 533.0144 l -19.99992,24.99986"
       id="path18797"
       sodipodi:nodetypes="cccc" />
    <path
       id="path18799"
       style="fill:#d29200;fill-opacity:1;stroke:#000000;stroke-width:0.3;stroke-linecap:butt;stroke-linejoin:miter;stroke-miterlimit:4;stroke-dasharray:none;stroke-opacity:1"
       d="m 529.11306,291.43071 c 0.94777,-1.18623 2.38321,-1.87796 3.90157,-1.87896 l 21.00009,1.6e-4 c 2.76142,0 5,2.23858 5,5 l -1.5e-4,15.00044 c 0,2.76142 -2.23858,5 -5,5 -2.76142,0 -5,-2.23858 -5,-5 v -10.00016 h -13.59704 l -18.50387,23.11923 c -0.95012,1.18214 -2.3824,1.87554 -3.89899,1.88054 -2.76139,1.2e-4 -5.00005,-2.23831 -5.00022,-4.99969 0.005,-1.13388 0.39465,-2.23249 1.10079,-3.11964 l 19.99482,-25.00392"
       sodipodi:nodetypes="cccccscccccccc" />
    <path
       id="path18801"
       style="display:none;fill:none;stroke:#000000;stroke-width:0.3;stroke-linecap:butt;stroke-linejoin:miter;stroke-miterlimit:4;stroke-dasharray:none;stroke-opacity:1"
       d="m 583.97051,316.70224 c -0.41861,1.45951 -1.47757,2.65013 -2.87875,3.23505 l -19.38468,8.07699 c -2.549,1.06211 -5.47638,-0.14325 -6.53849,-2.69225 l -5.76939,-13.84656 c -1.0621,-2.54899 0.14326,-5.47638 2.69225,-6.53849 2.54899,-1.0621 5.47638,0.14326 6.53849,2.69225 l 3.8463,9.23088 12.55106,-5.22974 8.18823,-28.45778 c 0.42235,-1.45664 1.47775,-2.64759 2.87575,-3.23552 2.54892,-1.06221 5.47632,0.14299 6.53857,2.69188 0.4315,1.04858 0.49438,2.21254 0.18378,3.30304 l -8.83959,30.77094"
       inkscape:transform-center-x="-16.995919"
       inkscape:transform-center-y="-5.5767166"
       sodipodi:nodetypes="cccccssccccccc" />
    <path
       style="fill:none;stroke:#000000;stroke-width:0.264583px;stroke-linecap:butt;stroke-linejoin:miter;stroke-opacity:1"
       d="M 568.01439,339.5522 H 513.01448"
       id="path18803" />
    <path
       style="fill:none;stroke:#000000;stroke-width:0.264583px;stroke-linecap:butt;stroke-linejoin:miter;stroke-opacity:1"
       d="m 513.01448,229.55205 70.00017,70.00017 -15.00026,39.99998"
       id="path18807" />
    <path
       style="display:none;fill:none;stroke:#000000;stroke-width:0.264583px;stroke-linecap:butt;stroke-linejoin:miter;stroke-opacity:1"
       d="M 678.01455,284.55229 608.01437,354.55246 568.01439,339.5522"
       id="path18809"
       inkscape:transform-center-x="-55.000075"
       inkscape:transform-center-y="-19.999825" />
    <path
       id="path18811"
       style="display:none;fill:#d29200;stroke:#000000;stroke-width:0.3"
       d="m 513.01466,224.55186 c -1.27961,0 -2.55939,0.4882 -3.5357,1.46451 -1.95263,1.95262 -1.95262,5.11879 0,7.07141 l 67.72351,67.72299 -13.86995,36.98586 c -0.96962,2.5856 0.34084,5.46771 2.92644,6.43733 2.5856,0.96962 5.46719,-0.34032 6.43681,-2.92592 l 15.00064,-40.00014 c 0.0369,-0.0984 0.0694,-0.19748 0.0997,-0.29662 0.009,-0.028 0.0163,-0.0561 0.0243,-0.0842 0.0383,-0.13333 0.0714,-0.267 0.0982,-0.40101 0.003,-0.0162 0.006,-0.0324 0.009,-0.0486 0.0282,-0.14866 0.0502,-0.29731 0.0646,-0.44597 0.0312,-0.32165 0.0306,-0.64239 0,-0.95808 -2e-5,-1.7e-4 10e-6,-2.6e-4 0,-5.3e-4 -4e-5,-2.6e-4 3e-5,-7.9e-4 0,-10e-4 -0.0153,-0.15743 -0.0377,-0.31375 -0.0677,-0.46818 -0.001,-0.007 -0.003,-0.0134 -0.005,-0.0202 -0.0295,-0.14848 -0.0649,-0.29502 -0.10748,-0.43976 -0.005,-0.0163 -0.0106,-0.0323 -0.0155,-0.0486 -0.0415,-0.13592 -0.0878,-0.27031 -0.14056,-0.40204 -0.009,-0.0227 -0.0195,-0.045 -0.0289,-0.0677 -0.0515,-0.1233 -0.10727,-0.24497 -0.16846,-0.3638 -0.0155,-0.0301 -0.0324,-0.0595 -0.0486,-0.0894 -0.0633,-0.11704 -0.13056,-0.23182 -0.20309,-0.34365 -0.0139,-0.0213 -0.0281,-0.0424 -0.0424,-0.0636 -0.0822,-0.12256 -0.17001,-0.24185 -0.26304,-0.35708 -0.007,-0.008 -0.0134,-0.0166 -0.0202,-0.0248 -0.10336,-0.12638 -0.21315,-0.248 -0.32918,-0.36432 -7.9e-4,-8e-4 -10e-4,-10e-4 -0.002,-0.002 l -0.0955,-0.095 -69.90477,-69.9053 c -0.97631,-0.97631 -2.25558,-1.4645 -3.53519,-1.46451 z" />
    <path
       id="path1065"
       style="fill:#ae7100;fill-opacity:1;stroke:#000000;stroke-width:0.2;stroke-miterlimit:4;stroke-dasharray:none"
       d="m 643.91495,172.96663 -1.21233,0.0543 -0.58859,1.66708 -0.24546,1.64848 -1.59422,0.21601 -0.67593,-1.52343 -1.01079,-1.45055 -1.18288,0.27026 -0.28112,1.74512 0.0522,1.66553 -1.53013,0.49713 -0.93638,-1.37822 -1.25367,-1.24643 -1.1157,0.47646 0.0351,1.76785 0.34882,1.62935 -1.41697,0.76275 -1.16737,-1.18908 -1.45624,-1.00303 -1.01234,0.66869 0.34985,1.73271 0.63407,1.54099 -1.25781,1.00304 -1.36115,-0.96118 -1.61179,-0.72657 -0.87695,0.83819 0.65371,1.64279 0.89917,1.40302 -1.05834,1.21129 -1.51102,-0.7028 -1.71565,-0.42736 -0.71314,0.98185 0.9369,1.49965 1.13533,1.21956 -0.82528,1.38132 -1.6123,-0.42168 -1.76423,-0.11421 -0.52659,1.09296 1.18908,1.30845 1.33532,0.99735 -0.56534,1.50637 -1.66192,-0.12713 -1.75596,0.20309 -0.32298,1.16944 1.40353,1.07487 1.4919,0.74311 -0.28732,1.58285 -1.65778,0.17156 -1.69189,0.51315 -0.10852,1.20871 1.57303,0.80667 1.60042,0.46509 v 1.60869 l -1.60042,0.46508 -1.57303,0.80667 0.10852,1.2082 1.69189,0.51315 1.65778,0.17208 0.28732,1.58285 -1.4919,0.7431 -1.40353,1.07487 0.32298,1.16944 1.75596,0.20257 1.66192,-0.12661 0.56534,1.50586 -1.33532,0.99787 -1.18908,1.30793 0.52659,1.09347 1.76423,-0.1142 1.6123,-0.42168 0.82528,1.38079 -1.13533,1.22008 -0.9369,1.49965 0.71314,0.98134 1.71565,-0.42737 1.51102,-0.7028 1.05834,1.21182 -0.89917,1.40301 -0.65371,1.6428 0.87695,0.83819 1.61179,-0.72657 1.36115,-0.9617 1.25781,1.00304 -0.63407,1.54099 -0.34985,1.73323 1.01234,0.66869 1.45624,-1.00304 1.16737,-1.18908 1.41697,0.76223 -0.34882,1.62988 -0.0351,1.76733 1.1157,0.47697 1.25367,-1.24695 0.93638,-1.37821 1.53013,0.49713 -0.0522,1.66605 0.28112,1.74511 1.18288,0.27027 1.01079,-1.45056 0.67593,-1.52342 1.59422,0.21601 0.24546,1.64796 0.58859,1.66708 1.21233,0.0548 0.73536,-1.60766 0.39274,-1.62005 1.60713,-0.0718 0.53641,1.57768 0.87643,1.5353 1.20251,-0.16278 0.43667,-1.71307 0.0971,-1.66398 1.56838,-0.3576 0.80925,1.45676 1.13688,1.35392 1.15394,-0.37517 0.1235,-1.76372 -0.20153,-1.65416 1.47949,-0.632 1.05627,1.28881 1.36064,1.12913 1.06815,-0.57464 -0.19327,-1.75752 -0.49351,-1.59163 1.34255,-0.88625 1.26969,1.079 1.53996,0.86868 0.94878,-0.75654 -0.50384,-1.69447 -0.76998,-1.47795 1.16272,-1.11208 1.44228,0.83561 1.67019,0.57929 0.7984,-0.91364 -0.7984,-1.57768 -1.02164,-1.31671 0.94567,-1.30121 1.56787,0.5643 1.74718,0.27182 0.62218,-1.0418 -1.06712,-1.40921 -1.24023,-1.11311 0.69815,-1.44953 1.64382,0.27544 1.76734,-0.0444 0.42633,-1.13585 -1.30173,-1.19683 -1.41904,-0.87385 0.42788,-1.5508 1.66657,-0.0222 1.73064,-0.35915 0.21704,-1.19424 -1.49448,-0.94465 -1.55236,-0.60616 0.14418,-1.60249 1.63556,-0.31936 1.63917,-0.66301 v -1.21336 l -1.63917,-0.66249 -1.63556,-0.31936 -0.14418,-1.60249 1.55236,-0.60668 1.49448,-0.94465 -0.21704,-1.19372 -1.73064,-0.35915 -1.66657,-0.0227 -0.42788,-1.55081 1.41904,-0.87385 1.30173,-1.19631 -0.42633,-1.13584 -1.76734,-0.0444 -1.64382,0.27544 -0.69815,-1.44952 1.24023,-1.11311 1.06712,-1.40974 -0.62218,-1.04128 -1.74718,0.27182 -1.56787,0.56431 -0.94567,-1.30173 1.02164,-1.31672 0.7984,-1.57716 -0.7984,-0.91364 -1.67019,0.57929 -1.44228,0.83561 -1.16272,-1.11208 0.76998,-1.47794 0.50384,-1.69448 -0.94878,-0.75654 -1.53996,0.86817 -1.26969,1.07952 -1.34255,-0.88625 0.49351,-1.59164 0.19327,-1.75751 -1.06815,-0.57464 -1.36064,1.12913 -1.05627,1.28881 -1.47949,-0.63253 0.20153,-1.65416 -0.1235,-1.76371 -1.15394,-0.37466 -1.13688,1.35393 -0.80925,1.45675 -1.56838,-0.35811 -0.0971,-1.66347 -0.43667,-1.71307 -1.20251,-0.16278 -0.87643,1.53479 -0.53641,1.57819 -1.60713,-0.0723 -0.39274,-1.61954 z m -0.73432,6.01565 v 4.76612 l -1.30896,1.30844 v 0.0522 a 17.999999,17.999999 0 0 0 -7.74269,3.23391 l -0.0558,-0.0558 h -1.85053 l -3.38222,-3.38274 a 23.999999,23.999999 0 0 1 14.34021,-5.92212 z m 3.00033,0.005 a 23.999999,23.999999 0 0 1 14.31231,5.94537 l -3.35484,3.35483 -1.85053,-5.2e-4 -0.0811,0.0811 a 17.999999,17.999999 0 0 0 -7.71736,-3.25355 v -0.0574 l -1.30845,-1.30845 z m -19.46444,8.03672 3.3848,3.3848 -5.3e-4,1.85105 0.0506,0.0506 a 17.999999,17.999999 0 0 0 -3.25561,7.74733 h -0.0248 l -1.30845,1.30844 h -4.79402 a 23.999999,23.999999 0 0 1 5.94795,-14.34227 z m 35.896,0.0325 a 23.999999,23.999999 0 0 1 5.91953,14.30972 h -4.73356 l -1.30845,-1.30844 h -0.0853 a 17.999999,17.999999 0 0 0 -3.23133,-7.7122 l 0.0863,-0.0863 v -1.85002 z m -20.71863,2.0867 1.28674,1.28622 v 4.63021 a 7.9999998,7.9999998 0 0 0 -2.96985,1.21543 l -3.26388,-3.26388 v -1.8247 a 13.999999,13.999999 0 0 1 4.94699,-2.04328 z m 5.55935,0.0139 a 13.999999,13.999999 0 0 1 4.96093,2.06189 v 1.79265 l -3.25561,3.25614 a 7.9999998,7.9999998 0 0 0 -2.9776,-1.25109 v -4.58732 z m -12.62766,5.97586 3.25975,3.25975 a 7.9999998,7.9999998 0 0 0 -1.23765,2.97346 h -4.60437 l -1.30225,-1.30225 a 13.999999,13.999999 0 0 1 2.04432,-4.93044 z m 19.71043,0 h 1.7787 a 13.999999,13.999999 0 0 1 2.05879,4.97747 l -1.25574,1.25574 h -4.61108 a 7.9999998,7.9999998 0 0 0 -1.23249,-2.97139 z m -9.8857,5.194 a 2.5394779,2.5394779 0 0 1 2.53938,2.53938 2.5394779,2.5394779 0 0 1 -2.53938,2.5399 2.5394779,2.5394779 0 0 1 -2.53938,-2.5399 2.5394779,2.5394779 0 0 1 2.53938,-2.53938 z m -23.88175,4.03954 h 4.79402 l 1.30845,1.30897 h 0.0248 a 17.999999,17.999999 0 0 0 3.25613,7.74733 l -0.0512,0.0512 5.3e-4,1.85053 -3.3848,3.38481 a 23.999999,23.999999 0 0 1 -5.94796,-14.3428 z m 11.47475,0 h 4.60437 a 7.9999998,7.9999998 0 0 0 1.23765,2.97398 l -3.25975,3.26027 -1.83968,-5.3e-4 a 13.999999,13.999999 0 0 1 -2.04484,-4.93097 z m 20.26337,0 h 4.61108 l 1.25316,1.25367 a 13.999999,13.999999 0 0 1 -2.05724,4.98006 h -1.77767 l -3.26234,-3.26232 a 7.9999998,7.9999998 0 0 0 1.23301,-2.9714 z m 11.29181,0 h 4.80023 a 23.999999,23.999999 0 0 1 -5.94124,14.3552 l -3.39721,-3.39721 v -1.85053 l -0.0868,-0.0868 a 17.999999,17.999999 0 0 0 3.23133,-7.71167 h 0.0853 z m -23.58719,5.09117 a 7.9999998,7.9999998 0 0 0 2.96933,1.21543 v 4.63072 l -1.28623,1.28571 a 13.999999,13.999999 0 0 1 -4.9475,-2.04225 v -1.82521 z m 8.94674,0.008 3.25665,3.25665 -5.3e-4,1.78645 a 13.999999,13.999999 0 0 1 -4.95939,2.06913 l -1.27382,-1.27383 v -4.58783 a 7.9999998,7.9999998 0 0 0 2.97708,-1.25057 z m 6.04873,7.89978 0.0811,0.0811 1.85053,-5.3e-4 3.39876,3.39876 a 23.999999,23.999999 0 0 1 -14.35623,5.96811 v -4.82761 l 1.30845,-1.30845 v -0.0584 a 17.999999,17.999999 0 0 0 7.71736,-3.25303 z m -21.07727,0.0248 a 17.999999,17.999999 0 0 0 7.74217,3.23339 v 0.0532 l 1.30896,1.30845 v 4.76559 a 23.999999,23.999999 0 0 1 -14.34021,-5.92211 l 3.38222,-3.38223 h 1.85053 z" />
    <path
       id="path25762"
       style="fill:none;stroke:#00ff00;stroke-width:1.37953;stroke-linecap:butt;stroke-linejoin:miter;stroke-miterlimit:4;stroke-dasharray:none;stroke-opacity:1"
       d="m 377.66016,322.61328 c -4.83634,0 -9.6733,1.84515 -13.36328,5.53516 -7.38002,7.37998 -7.38002,19.34463 0,26.72461 l 247.43164,247.43164 -4.84766,2.19336 v 3.16015 l 5.32031,2.40821 1.88477,0.18359 3.21679,-0.47266 1.39844,5.2168 -0.23242,0.61914 -2.66211,1.05664 -1.54102,1.10156 -3.40234,4.7461 1.58008,2.73633 2.50195,-0.24805 -47.10547,125.61719 c -3.66466,9.77234 1.28625,20.66542 11.0586,24.33007 9.77234,3.66467 20.66541,-1.28624 24.33008,-11.05859 l 49.50586,-132.01758 0.35351,0.89063 1.10352,1.54297 4.74414,3.40234 2.73828,-1.58008 -0.57422,-5.81054 -0.78516,-1.72657 -2.01562,-2.54882 4.16797,-4.16797 2.54882,2.01757 1.72461,0.78321 5.81055,0.57422 1.58008,-2.73633 -3.40234,-4.7461 -1.54102,-1.10156 -3.02148,-1.19922 1.52539,-5.69336 3.21484,0.47266 1.88672,-0.18359 5.32031,-2.40821 v -3.16015 l -5.32031,-2.40821 -1.88672,-0.18359 -3.21484,0.47266 -1.52539,-5.69336 3.02148,-1.19922 1.54102,-1.10156 3.40234,-4.7461 -1.58008,-2.73633 -5.81055,0.57422 -1.72461,0.78321 -2.54882,2.01757 -4.16797,-4.16796 2.01562,-2.54883 0.78516,-1.72461 0.57422,-5.81055 -2.73828,-1.58203 -4.74414,3.40234 -1.10352,1.54297 -1.19727,3.02149 -5.69335,-1.52735 0.4707,-3.21484 -0.18359,-1.88672 -2.40626,-5.31836 h -3.1621 l -2.36133,5.2168 -247.53321,-247.53125 c -3.68999,-3.69001 -8.52498,-5.53516 -13.36132,-5.53516 z"
       transform="matrix(0.26458333,0,0,0.26458333,413.092,139.194)" />
  </g>
  <g
     inkscape:label="Laser Test"
     id="g13787"
     transform="translate(-413.092,-139.194)"
     inkscape:groupmode="layer">
    <path
       id="rect13743"
       style="fill:#965a00;fill-opacity:1;stroke:#000000;stroke-width:1;stroke-miterlimit:4;stroke-dasharray:none;stroke-opacity:1"
       d="m 147.27958,840.54288 v 70.00037 h 160.00005 v -70.00037 z m 16.00057,9.50019 a 0.5,0.5 0 0 1 0.49971,0.50023 0.5,0.5 0 0 1 -0.49971,0.50023 0.5,0.5 0 0 1 -0.50023,-0.50023 0.5,0.5 0 0 1 0.50023,-0.50023 z m 13.99967,30.00024 a 0.5,0.5 0 0 1 0.50022,0.49971 0.5,0.5 0 0 1 -0.50022,0.50022 0.5,0.5 0 0 1 -0.50023,-0.50022 0.5,0.5 0 0 1 0.50023,-0.49971 z" />
    <path
       id="path13759"
       style="fill:#965a00;fill-opacity:1;stroke:#000000;stroke-width:1;stroke-miterlimit:4;stroke-dasharray:none;stroke-opacity:1"
       d="m 107.27995,750.5432 v 79.99977 80.00028 h 15.00012 14.9996 V 830.54297 750.5432 h -14.9996 z m 15.00012,19.49959 a 0.5,0.5 0 0 1 0.49971,0.50022 0.5,0.5 0 0 1 -0.49971,0.50023 0.5,0.5 0 0 1 -0.50022,-0.50023 0.5,0.5 0 0 1 0.50022,-0.50022 z m 0,90.00019 a 0.5,0.5 0 0 1 0.49971,0.50023 0.5,0.5 0 0 1 -0.49971,0.49971 0.5,0.5 0 0 1 -0.50022,-0.49971 0.5,0.5 0 0 1 0.50022,-0.50023 z" />
    <path
       id="path13773"
       style="fill:#d29200;fill-opacity:1;stroke:#000000;stroke-width:1;stroke-linecap:butt;stroke-linejoin:miter;stroke-miterlimit:4;stroke-dasharray:none;stroke-opacity:1"
       d="m 142.28012,830.54245 c -1.51836,10e-4 -2.9538,0.69273 -3.90157,1.87896 l -0.003,-0.002 -19.99464,25.00364 c -0.70614,0.88715 -1.09571,1.98583 -1.10071,3.11971 1.7e-4,2.76137 2.23882,4.99981 5.00021,4.99969 1.51659,-0.005 2.94887,-0.69836 3.89899,-1.8805 l 18.50378,-23.11952 h 13.5971 v 10.00042 c 0,2.76142 2.23879,5.00021 5.00021,5.00021 2.76142,0 4.9997,-2.23879 4.9997,-5.00021 l 5.2e-4,-15.00063 c 0,-2.76142 -2.23879,-4.9997 -5.00021,-4.9997 z m 21.00027,19.50062 a 0.5,0.5 0 0 1 0.49971,0.50023 0.5,0.5 0 0 1 -0.49971,0.50023 0.5,0.5 0 0 1 -0.50023,-0.50023 0.5,0.5 0 0 1 0.50023,-0.50023 z m -41.00009,9.99991 a 0.5,0.5 0 0 1 0.49972,0.50022 0.5,0.5 0 0 1 -0.49972,0.49972 0.5,0.5 0 0 1 -0.50022,-0.49972 0.5,0.5 0 0 1 0.50022,-0.50022 z" />
    <path
       id="path13785"
       style="fill:#d29200;stroke:#000000;stroke-width:1;stroke-miterlimit:4;stroke-dasharray:none"
       d="m 122.2803,765.5428 c -1.27961,0 -2.55939,0.4882 -3.5357,1.46451 -1.95263,1.95262 -1.95262,5.11878 0,7.0714 l 67.72351,67.723 -13.86995,36.98586 c -0.96962,2.5856 0.34084,5.46771 2.92644,6.43733 2.5856,0.96962 5.46719,-0.34032 6.43681,-2.92592 l 15.00064,-40.00014 c 0.0369,-0.0984 0.0694,-0.19748 0.0997,-0.29662 0.009,-0.028 0.0163,-0.0561 0.0243,-0.0842 0.0383,-0.13332 0.0714,-0.26699 0.0982,-0.401 0.003,-0.0162 0.006,-0.0324 0.009,-0.0486 0.0282,-0.14865 0.0502,-0.29731 0.0646,-0.44597 0.0312,-0.32165 0.0306,-0.64239 0,-0.95808 v -5.3e-4 c -3e-5,-2.6e-4 4e-5,-7.9e-4 0,-10e-4 -0.0153,-0.15743 -0.0377,-0.31375 -0.0677,-0.46819 -10e-4,-0.007 -0.003,-0.0134 -0.005,-0.0202 -0.0295,-0.14848 -0.0649,-0.29502 -0.10749,-0.43976 -0.005,-0.0163 -0.0106,-0.0323 -0.0155,-0.0486 -0.0415,-0.13592 -0.0877,-0.27031 -0.14056,-0.40204 -0.009,-0.0228 -0.0195,-0.045 -0.0289,-0.0677 -0.0515,-0.1233 -0.10727,-0.24498 -0.16847,-0.3638 -0.0155,-0.0301 -0.0324,-0.0595 -0.0486,-0.0894 -0.0633,-0.11704 -0.13056,-0.23183 -0.20309,-0.34365 -0.0139,-0.0213 -0.0281,-0.0424 -0.0424,-0.0636 -0.0822,-0.12257 -0.17,-0.24185 -0.26303,-0.35708 -0.007,-0.008 -0.0134,-0.0166 -0.0202,-0.0248 -0.10336,-0.12637 -0.21315,-0.24799 -0.32918,-0.36432 l -0.002,-0.002 -0.0956,-0.0951 -69.90477,-69.90529 c -0.97631,-0.97632 -2.25558,-1.46451 -3.53519,-1.46451 z m 0,4.49999 a 0.5,0.5 0 0 1 0.49971,0.50022 0.5,0.5 0 0 1 -0.49971,0.50023 0.5,0.5 0 0 1 -0.50023,-0.50023 0.5,0.5 0 0 1 0.50023,-0.50022 z m 54.99974,110.00052 a 0.5,0.5 0 0 1 0.50023,0.49971 0.5,0.5 0 0 1 -0.50023,0.50022 0.5,0.5 0 0 1 -0.50022,-0.50022 0.5,0.5 0 0 1 0.50022,-0.49971 z" />
    <path
       id="path15543"
       style="fill:#965a00;fill-opacity:1;stroke:#000000;stroke-width:1;stroke-miterlimit:4;stroke-dasharray:none;stroke-opacity:1"
       d="m 147.27958,961.77633 v 70.00037 h 160.00005 v -70.00037 z m 16.00058,9.50019 a 0.5,0.5 0 0 1 0.49971,0.50023 0.5,0.5 0 0 1 -0.49971,0.50023 0.5,0.5 0 0 1 -0.50023,-0.50023 0.5,0.5 0 0 1 0.50023,-0.50023 z m 13.99966,30.00028 a 0.5,0.5 0 0 1 0.50023,0.4997 0.5,0.5 0 0 1 -0.50023,0.5002 0.5,0.5 0 0 1 -0.50023,-0.5002 0.5,0.5 0 0 1 0.50023,-0.4997 z" />
    <path
       id="path15545"
       style="fill:#965a00;fill-opacity:1;stroke:#000000;stroke-width:1;stroke-miterlimit:4;stroke-dasharray:none;stroke-opacity:1"
       d="m 307.27963,931.77662 h -79.99976 -80.00029 v 15.00011 14.9996 h 80.00029 79.99976 v -14.9996 z m -19.49958,15.00011 a 0.5,0.5 0 0 1 -0.50023,0.49971 0.5,0.5 0 0 1 -0.50023,-0.49971 0.5,0.5 0 0 1 0.50023,-0.50022 0.5,0.5 0 0 1 0.50023,0.50022 z m -90.00019,0 a 0.5,0.5 0 0 1 -0.50023,0.49971 0.5,0.5 0 0 1 -0.49971,-0.49971 0.5,0.5 0 0 1 0.49971,-0.50022 0.5,0.5 0 0 1 0.50023,0.50022 z" />
    <path
       id="path15547"
       style="fill:#d29200;fill-opacity:1;stroke:#000000;stroke-width:1;stroke-linecap:butt;stroke-linejoin:miter;stroke-miterlimit:4;stroke-dasharray:none;stroke-opacity:1"
       d="m 190.35768,982.16595 c 1.40126,-0.58473 2.46039,-1.7752 2.87921,-3.23465 l 0.004,6.9e-4 8.84392,-30.76935 c 0.31075,-1.09046 0.24794,-2.25447 -0.18341,-3.30311 -1.06188,-2.54903 -3.98911,-3.75465 -6.53818,-2.69281 -1.39809,0.58773 -2.45367,1.7785 -2.87623,3.23508 l -8.19209,28.45683 -12.55186,5.22799 -3.84509,-9.23168 c -1.06174,-2.54914 -3.98923,-3.75503 -6.53837,-2.69329 -2.54915,1.06175 -3.75457,3.98903 -2.69283,6.53818 l 5.76715,13.8477 c 1.06175,2.54916 3.98903,3.75458 6.53818,2.69283 z m -26.88377,-9.92714 a 0.5,0.5 0 0 1 -0.65364,-0.26964 0.5,0.5 0 0 1 0.26896,-0.65391 0.5,0.5 0 0 1 0.65411,0.26944 0.5,0.5 0 0 1 -0.26943,0.65411 z m 34.00344,-24.99541 a 0.5,0.5 0 0 1 -0.65363,-0.26963 0.5,0.5 0 0 1 0.26917,-0.65345 0.5,0.5 0 0 1 0.6539,0.26898 0.5,0.5 0 0 1 -0.26944,0.6541 z"
       inkscape:transform-center-x="-16.999092"
       inkscape:transform-center-y="-5.5734814" />
    <path
       id="path15549"
       style="fill:#d29200;stroke:#000000;stroke-width:1;stroke-miterlimit:4;stroke-dasharray:none"
       d="m 291.51062,945.19962 c -0.0176,-1.27949 -0.52341,-2.55243 -1.51308,-3.5152 -1.97933,-1.92555 -5.14518,-1.88193 -7.07073,0.0974 l -66.78375,68.64988 -37.17339,-13.35916 c -2.59871,-0.93392 -5.4625,0.41611 -6.39641,3.01486 -0.93392,2.5986 0.41559,5.462 3.0143,6.3958 l 40.20297,14.4483 c 0.0989,0.036 0.1984,0.066 0.29796,0.096 0.0281,0.01 0.0563,0.015 0.0845,0.023 0.13384,0.036 0.26795,0.067 0.40232,0.092 0.0162,-3e-4 0.0325,0.01 0.0487,0.01 0.14903,0.026 0.29797,0.046 0.44682,0.059 0.32205,0.027 0.64276,0.022 0.95799,-0.013 h 5.3e-4 c 2.6e-4,-10e-5 7.9e-4,0 0.001,-10e-5 0.15721,-0.017 0.3132,-0.042 0.46721,-0.074 0.007,0 0.0134,-2e-4 0.0202,-3e-4 0.14807,-0.031 0.2941,-0.069 0.43823,-0.1136 0.0163,-2e-4 0.0322,-0.011 0.0484,-0.017 0.13534,-0.043 0.26908,-0.092 0.40007,-0.1461 0.0227,-0.01 0.0447,-0.02 0.0673,-0.03 0.12258,-0.053 0.24348,-0.1107 0.36145,-0.1735 0.0299,-0.015 0.0591,-0.033 0.0887,-0.05 0.11616,-0.065 0.23001,-0.1336 0.34082,-0.2077 0.0211,-0.014 0.042,-0.029 0.063,-0.043 0.12144,-0.084 0.23949,-0.1733 0.35343,-0.268 0.008,-0.01 0.0164,-0.013 0.0245,-0.02 0.12493,-0.1051 0.24503,-0.2165 0.35974,-0.3341 h 0.002 l 0.0938,-0.097 68.9358,-70.86098 c 0.96278,-0.98966 1.4333,-2.27553 1.41567,-3.55501 z m -4.49957,0.062 a 0.5,0.5 0 0 1 -0.49328,0.50655 0.5,0.5 0 0 1 -0.50707,-0.49277 0.5,0.5 0 0 1 0.4933,-0.50708 0.5,0.5 0 0 1 0.50705,0.4933 z m -109.23252,56.50968 a 0.5,0.5 0 0 1 -0.49276,0.507 0.5,0.5 0 0 1 -0.50707,-0.4933 0.5,0.5 0 0 1 0.49329,-0.5071 0.5,0.5 0 0 1 0.50654,0.4934 z"
       inkscape:transform-center-x="-54.615592"
       inkscape:transform-center-y="-21.02882" />
  </g>
  <g
     inkscape:groupmode="layer"
     id="layer2"
     inkscape:label="Closed">
    <path
       id="rect853-3"
       style="fill:#8a5c1b;fill-opacity:1;stroke:#000000;stroke-width:0.499999;stroke-miterlimit:4;stroke-dasharray:none;stroke-opacity:1"
       d="m -268.86488,231.83788 v 59.99996 h 160.00004 v -59.99996 z m 29.99971,3.00033 a 1.9999999,1.9999999 0 0 1 1.99988,1.99987 1.9999999,1.9999999 0 0 1 -1.99988,1.99988 1.9999999,1.9999999 0 0 1 -1.99988,-1.99988 1.9999999,1.9999999 0 0 1 1.99988,-1.99987 z m -15.00012,14.99959 a 1.9999999,1.9999999 0 0 1 2.0004,2.00041 1.9999999,1.9999999 0 0 1 -2.0004,1.99988 1.9999999,1.9999999 0 0 1 -1.99987,-1.99988 1.9999999,1.9999999 0 0 1 1.99987,-2.00041 z" />
    <path
       id="rect935-2"
       style="fill:#b3653e;fill-opacity:1;stroke:#000000;stroke-width:0.499999;stroke-miterlimit:4;stroke-dasharray:none;stroke-opacity:1"
       d="m -268.86488,191.83825 v 19.99981 19.99982 h 79.99976 80.00028 v -19.99982 -19.99981 h -80.00027 z m 19.99981,17.99994 a 1.9999999,1.9999999 0 0 1 1.99987,1.99987 1.9999999,1.9999999 0 0 1 -1.99987,1.99988 1.9999999,1.9999999 0 0 1 -1.99987,-1.99988 1.9999999,1.9999999 0 0 1 1.99987,-1.99987 z m 59.99995,0 a 1.9999999,1.9999999 0 0 1 1.99988,1.99987 1.9999999,1.9999999 0 0 1 -1.99988,1.99988 1.9999999,1.9999999 0 0 1 -1.99988,-1.99988 1.9999999,1.9999999 0 0 1 1.99988,-1.99987 z" />
    <path
       id="path2611-2"
       style="fill:#ce8f54;fill-opacity:1;stroke:#000000;stroke-width:0.499999;stroke-miterlimit:4;stroke-dasharray:none;stroke-opacity:1"
       d="m -248.86507,206.83785 a 5,5 0 0 0 -4.95784,4.38061 l -0.004,-5.3e-4 -4.99814,39.98311 -0.002,0.0164 c -0.0252,0.20322 -0.0382,0.41055 -0.0382,0.62063 0,2.7614 2.23827,4.9997 4.9997,4.9997 2.55137,0 4.65649,-1.91087 4.96197,-4.37959 l 4.99969,-40.00015 -0.003,-5.3e-4 a 5,5 0 0 0 0.0419,-0.6196 5,5 0 0 0 -5.00021,-5.00022 z m 0,3.00034 a 1.9999999,1.9999999 0 0 1 1.99987,1.99987 1.9999999,1.9999999 0 0 1 -1.99987,1.99988 1.9999999,1.9999999 0 0 1 -1.99987,-1.99988 1.9999999,1.9999999 0 0 1 1.99987,-1.99987 z m -5.00022,39.99961 a 2,2 0 0 1 2.0004,2.00041 2,2 0 0 1 -2.0004,1.99988 2,2 0 0 1 -1.99987,-1.99988 2,2 0 0 1 1.99987,-2.00041 z" />
    <path
       id="path5381-4"
       style="display:inline;fill:#ce8f54;fill-opacity:1;stroke:#000000;stroke-width:0.499999;stroke-miterlimit:4;stroke-dasharray:none;stroke-opacity:1"
       d="m -188.86512,206.83734 v 5.3e-4 c -0.80393,0 -1.56359,0.18996 -2.23656,0.5271 -0.0133,0.007 -0.0266,0.0134 -0.0398,0.0202 l -49.89152,24.94577 -0.0687,0.0341 c -1.63859,0.82087 -2.76313,2.51563 -2.76313,4.4731 0,2.76143 2.23826,4.9997 4.99969,4.9997 0.80399,0 1.56356,-0.18992 2.23656,-0.5271 l 0.0398,-0.0201 49.96026,-24.97986 v -5.3e-4 c 1.63852,-0.82091 2.76365,-2.51516 2.76365,-4.47259 0,-2.76142 -2.23878,-5.00022 -5.00021,-5.00022 z m 0,3.00085 a 2,2 0 0 1 1.99988,1.99987 2,2 0 0 1 -1.99988,1.99988 2,2 0 0 1 -1.99988,-1.99988 2,2 0 0 1 1.99988,-1.99987 z m -50.00005,25.00002 a 1.9999999,1.9999999 0 0 1 1.99988,1.99987 1.9999999,1.9999999 0 0 1 -1.99988,1.99988 1.9999999,1.9999999 0 0 1 -1.99988,-1.99988 1.9999999,1.9999999 0 0 1 1.99988,-1.99987 z" />
  </g>
  <g
     inkscape:groupmode="layer"
     id="layer3"
     inkscape:label="Open">
    <path
       id="rect935-2-6"
       style="fill:#b3653e;fill-opacity:1;stroke:#000000;stroke-width:0.499999;stroke-miterlimit:4;stroke-dasharray:none;stroke-opacity:1"
       d="m -308.86452,171.83791 h 19.99981 19.99981 V 91.838138 11.837843 h -19.99981 -19.99981 v 80.000295 z m 17.99993,-19.99982 a 1.9999999,1.9999999 0 0 1 1.99988,-1.99988 1.9999999,1.9999999 0 0 1 1.99987,1.99988 1.9999999,1.9999999 0 0 1 -1.99987,1.99988 1.9999999,1.9999999 0 0 1 -1.99988,-1.99988 z m 0,-59.999952 a 1.9999999,1.9999999 0 0 1 1.99988,-1.99988 1.9999999,1.9999999 0 0 1 1.99987,1.99988 1.9999999,1.9999999 0 0 1 -1.99987,1.99988 1.9999999,1.9999999 0 0 1 -1.99988,-1.99988 z" />
    <path
       id="rect853-3-9"
       style="fill:#8a5c1b;fill-opacity:1;stroke:#000000;stroke-width:0.499999;stroke-miterlimit:4;stroke-dasharray:none;stroke-opacity:1"
       d="m -268.8649,111.83795 v 59.99996 h 160.00006 v -59.99996 z m 29.99972,3.00033 a 1.9999999,1.9999999 0 0 1 1.99988,1.99988 1.9999999,1.9999999 0 0 1 -1.99988,1.99988 1.9999999,1.9999999 0 0 1 -1.99988,-1.99988 1.9999999,1.9999999 0 0 1 1.99988,-1.99988 z m -15.00011,14.9996 a 1.9999999,1.9999999 0 0 1 2.00039,2.00041 1.9999999,1.9999999 0 0 1 -2.00039,1.99987 1.9999999,1.9999999 0 0 1 -1.99988,-1.99987 1.9999999,1.9999999 0 0 1 1.99988,-2.00041 z" />
    <path
       id="path2611-9"
       style="fill:#ce8f54;fill-opacity:1;stroke:#000000;stroke-width:0.499999;stroke-miterlimit:4;stroke-dasharray:none;stroke-opacity:1"
       d="m -253.86514,126.83799 c -0.90287,0 -1.74987,0.23921 -2.48098,0.65786 -0.003,0.003 -0.005,0.003 -0.008,0.004 l -34.99166,19.9962 a 5,5 0 0 0 -2.51923,4.34084 5,5 0 0 0 4.99969,4.99967 5,5 0 0 0 2.48047,-0.65937 h 5.3e-4 l 0.0176,-0.01 h 0.002 a 5,5 0 0 0 10e-4,0 l 34.96892,-19.98067 0.0114,-0.007 c 1.50487,-0.86183 2.51871,-2.48341 2.51871,-4.34187 0,-2.7614 -2.23879,-4.9997 -5.00021,-4.9997 z m 0,2.99982 a 2,2 0 0 1 2.0004,1.99988 2,2 0 0 1 -2.0004,1.99988 2,2 0 0 1 -1.99987,-1.99988 2,2 0 0 1 1.99987,-1.99988 z m -34.99993,19.99983 a 1.9999999,1.9999999 0 0 1 2.0004,2.00038 1.9999999,1.9999999 0 0 1 -2.0004,1.99988 1.9999999,1.9999999 0 0 1 -1.99987,-1.99988 1.9999999,1.9999999 0 0 1 1.99987,-2.00038 z" />
    <path
       id="path5381-8"
       style="fill:#ce8f54;fill-opacity:1;stroke:#000000;stroke-width:0.499999;stroke-miterlimit:4;stroke-dasharray:none;stroke-opacity:1"
       d="m -288.86507,86.837328 c -2.76142,0 -4.99969,2.23883 -4.99969,5.00023 0,1.95736 1.12469,3.65168 2.76314,4.4726 l 49.95199,24.976242 c 0.003,0.003 0.006,0.003 0.008,0.004 l 0.0398,0.0196 c 0.67301,0.33719 1.43257,0.52708 2.23656,0.52708 2.76142,0 5.00021,-2.2388 5.00021,-5.0002 0,-1.95752 -1.12501,-3.65226 -2.76365,-4.4731 h -5.3e-4 l -49.95147,-24.975742 -0.008,-0.004 c -0.0132,-0.007 -0.0266,-0.013 -0.0398,-0.0196 -0.673,-0.33719 -1.43256,-0.52711 -2.23655,-0.52711 z m 0,3.00035 a 2,2 0 0 1 2.0004,2.00038 2,2 0 0 1 -2.0004,1.99988 2,2 0 0 1 -1.99987,-1.99988 2,2 0 0 1 1.99987,-2.00038 z m 50.00005,25.000032 a 1.9999999,1.9999999 0 0 1 1.99988,1.99988 1.9999999,1.9999999 0 0 1 -1.99988,2.00038 1.9999999,1.9999999 0 0 1 -1.99988,-2.00038 1.9999999,1.9999999 0 0 1 1.99988,-1.99988 z" />
  </g>
  <g
     inkscape:groupmode="layer"
     id="g15988"
     inkscape:label="Open colision test">
    <path
       id="path15980"
       style="fill:#b3653e;fill-opacity:1;stroke:#000000;stroke-width:0.499999;stroke-miterlimit:4;stroke-dasharray:none;stroke-opacity:1"
       d="m -292.67991,442.29741 5.17633,19.31834 5.17633,19.31833 77.27383,-20.70547 77.27436,-20.70559 -5.17633,-19.31834 -5.17633,-19.31833 -77.27436,20.7056 z m 23.97706,12.21026 a 1.9999999,1.9999999 0 0 1 2.44935,1.41413 1.9999999,1.9999999 0 0 1 -1.41414,2.44934 1.9999999,1.9999999 0 0 1 -2.44934,-1.41412 1.9999999,1.9999999 0 0 1 1.41413,-2.44935 z m 57.9555,-15.52913 a 1.9999999,1.9999999 0 0 1 2.44934,1.41413 1.9999999,1.9999999 0 0 1 -1.41413,2.44933 1.9999999,1.9999999 0 0 1 -2.44934,-1.41411 1.9999999,1.9999999 0 0 1 1.41413,-2.44935 z" />
    <path
       id="path15982"
       style="fill:#8a5c1b;fill-opacity:1;stroke:#000000;stroke-width:0.499999;stroke-miterlimit:4;stroke-dasharray:none;stroke-opacity:1"
       d="m -278.82874,476.3828 v 59.99996 h 160.00007 V 476.3828 Z m 29.99973,3.00033 a 1.9999999,1.9999999 0 0 1 1.99988,1.99988 1.9999999,1.9999999 0 0 1 -1.99988,1.99988 1.9999999,1.9999999 0 0 1 -1.99988,-1.99988 1.9999999,1.9999999 0 0 1 1.99988,-1.99988 z m -15.00011,14.9996 a 1.9999999,1.9999999 0 0 1 2.00039,2.00041 1.9999999,1.9999999 0 0 1 -2.00039,1.99987 1.9999999,1.9999999 0 0 1 -1.99989,-1.99987 1.9999999,1.9999999 0 0 1 1.99989,-2.00041 z" />
    <path
       id="path15984"
       style="fill:#ce8f54;fill-opacity:1;stroke:#000000;stroke-width:0.499999;stroke-miterlimit:4;stroke-dasharray:none;stroke-opacity:1"
       d="m -259.25869,498.36994 c 0.36219,-0.82705 0.48281,-1.69887 0.39265,-2.53652 -0.002,-0.004 -1.5e-4,-0.006 -3e-5,-0.008 l -4.28025,-40.07423 a 5,5 0 0 0 -2.96573,-4.04892 5,5 0 0 0 -6.58537,2.57422 5,5 0 0 0 -0.39106,2.53665 l -2e-4,4.8e-4 0.001,0.0203 -4e-5,0.001 a 5,5 0 0 0 -4.2e-4,9e-4 l 4.27515,40.04718 0.002,0.0136 c 0.18579,1.72421 1.26449,3.30337 2.96684,4.0489 2.52948,1.10772 5.47788,-0.0452 6.5856,-2.57467 z m -2.74789,-1.20334 a 2,2 0 0 1 -2.63436,1.03015 2,2 0 0 1 -1.02948,-2.63462 2,2 0 0 1 2.63416,-1.02968 2,2 0 0 1 1.02968,2.63415 z m -4.28024,-40.08328 a 1.9999999,1.9999999 0 0 1 -2.63482,1.02996 1.9999999,1.9999999 0 0 1 -1.02949,-2.63462 1.9999999,1.9999999 0 0 1 2.63415,-1.02969 1.9999999,1.9999999 0 0 1 1.03016,2.63435 z"
       inkscape:transform-center-x="2.1493451"
       inkscape:transform-center-y="-20.04578" />
    <path
       id="path15986"
       style="fill:#ce8f54;fill-opacity:1;stroke:#000000;stroke-width:0.499999;stroke-miterlimit:4;stroke-dasharray:none;stroke-opacity:1"
       d="m -205.13825,442.69398 c 0.83168,-2.63318 -0.62908,-5.44182 -3.26225,-6.2735 -1.86647,-0.58956 -3.82086,-0.0273 -5.09712,1.28778 l -38.86112,40.11019 c -0.003,0.002 -0.005,0.005 -0.006,0.007 l -0.03,0.0325 c -0.52422,0.54021 -0.934,1.20735 -1.17621,1.97396 -0.8317,2.6332 0.62888,5.44233 3.26205,6.27401 1.86664,0.58951 3.82152,0.0272 5.09774,-1.28816 l 1.7e-4,-5e-4 38.86049,-40.10986 0.006,-0.007 c 0.0104,-0.0102 0.021,-0.021 0.03,-0.0325 0.5242,-0.5402 0.93407,-1.2073 1.17624,-1.97393 z m -2.86104,-0.90365 a 2,2 0 0 1 -2.50997,1.30504 2,2 0 0 1 -1.30454,-2.50983 2,2 0 0 1 2.50932,-1.30469 2,2 0 0 1 1.30519,2.50948 z m -38.89828,40.14886 a 1.9999999,1.9999999 0 0 1 -2.50936,1.30469 1.9999999,1.9999999 0 0 1 -1.30515,-2.50949 1.9999999,1.9999999 0 0 1 2.50982,-1.30455 1.9999999,1.9999999 0 0 1 1.30469,2.50935 z"
       inkscape:transform-center-x="-19.445415"
       inkscape:transform-center-y="-20.105365" />
  </g>
  <g
     inkscape:groupmode="layer"
     id="layer4"
     inkscape:label="Open Colision Test">
    <rect
       style="fill:none;stroke:#ff0000;stroke-width:0.264999"
       id="rect16307-5"
       width="160"
       height="60"
       x="98.395836"
       y="632.98523" />
    <path
       id="path16329-5"
       style="fill:none;stroke:#ff0000;stroke-width:0.264999"
       d="m 110.89582,647.98521 c 0,2.76142 -2.23858,5 -5,5 -2.76143,0 -5,-2.23858 -5,-5 0,-2.76142 2.23857,-5 5,-5 2.76142,0 5,2.23858 5,5 z"
       sodipodi:nodetypes="sssss" />
    <path
       id="path16337-9"
       style="fill:none;stroke:#ff0000;stroke-width:0.264999"
       d="m 135.89583,647.98521 c 0,2.76142 -2.23858,5 -5,5 -2.76143,0 -5,-2.23858 -5,-5 0,-2.76142 2.23857,-5 5,-5 2.76142,0 5,2.23858 5,5 z"
       sodipodi:nodetypes="sssss" />
    <path
       id="path16341-3"
       style="fill:none;stroke:#0000ff;stroke-width:0.264583px;stroke-linecap:butt;stroke-linejoin:miter;stroke-opacity:1"
       d="m 105.89582,647.98521 h 37.16516"
       sodipodi:nodetypes="cc"
       inkscape:transform-center-x="-18.58258" />
    <path
       style="fill:none;stroke:#000000;stroke-width:0.264583px;stroke-linecap:butt;stroke-linejoin:miter;stroke-opacity:1"
       d="m 130.89583,647.98521 h 76.03453"
       id="path20427"
       inkscape:transform-center-x="-38.017265" />
    <circle
       style="fill:none;fill-opacity:1;stroke:#0000ff;stroke-width:0.25;stroke-miterlimit:4;stroke-dasharray:none;stroke-dashoffset:0;stroke-opacity:1"
       id="path21020"
       cx="130.89583"
       cy="647.98523"
       r="76.035004" />
    <circle
       style="fill:none;fill-opacity:1;stroke:#0000ff;stroke-width:0.25;stroke-miterlimit:4;stroke-dasharray:none;stroke-dashoffset:0;stroke-opacity:1"
       id="path21366"
       cx="105.89583"
       cy="647.98523"
       r="37.165001" />
    <path
       id="path19319"
       style="display:inline;fill:none;stroke:#000000;stroke-width:0.264583px;stroke-linecap:butt;stroke-linejoin:miter;stroke-opacity:1"
       d="m 193.39582,612.98521 h 5 v 5.00002 m 5,-5.00002 h -5 v -5.00002 m -85,5.00003 h 5 v 5.00002 m 5,-5.00002 h -5 v -5.00002 m 84.99999,5.00001 c 0,2.76141 -2.23857,4.99999 -5,4.99999 -2.76142,0 -5,-2.23858 -5,-4.99999 0,-2.76142 2.23858,-5 5,-5 2.76143,0 5,2.23858 5,5 z m -79.99999,-1e-5 a 5,5 0 0 1 -5,5 5,5 0 0 1 -5,-5 5,5 0 0 1 5,-5 5,5 0 0 1 5,5 z m -25,-20 h 80 80 v 20.00001 19.99999 h -80 -80 v -19.99999 z" />
    <path
       id="path19535"
       style="display:inline;fill:none;stroke:#008700;stroke-width:0.264583px;stroke-linecap:butt;stroke-linejoin:miter;stroke-opacity:1"
       d="m 182.38403,597.88959 4.92404,-0.86824 0.86824,4.92405 m 4.0558,-5.79229 -4.92404,0.86824 -0.86825,-4.92406 m -82.84041,19.68416 4.92404,-0.86824 0.86824,4.92406 m 4.0558,-5.7923 -4.92404,0.86824 -0.86825,-4.92406 m 84.5769,-9.83604 c 0.47951,2.71946 -1.33633,5.31275 -4.0558,5.79227 -2.71947,0.47951 -5.31277,-1.33633 -5.79228,-4.05579 -0.47952,-2.71947 1.33633,-5.31277 4.0558,-5.79228 2.71947,-0.47952 5.31276,1.33633 5.79228,4.0558 z m -78.78462,13.89184 c 0.47951,2.71947 -1.33633,5.31276 -4.05579,5.79228 -2.71948,0.47952 -5.31277,-1.33632 -5.79228,-4.0558 -0.47952,-2.71946 1.33632,-5.31276 4.05579,-5.79228 2.71947,-0.47951 5.31276,1.33633 5.79228,4.0558 z M 85.35433,594.69 l 78.78462,-13.89186 78.78462,-13.89185 3.47296,19.69617 3.47296,19.69614 -78.78462,13.89186 -78.78462,13.89185 -3.47296,-19.69615 z"
       sodipodi:nodetypes="ccccccccccccssssssssssccccccccc" />
    <path
       id="path19681"
       style="display:inline;fill:none;stroke:#ff8700;stroke-width:0.264583px;stroke-linecap:butt;stroke-linejoin:miter;stroke-opacity:1"
       d="m 167.94156,586.13767 4.69846,-1.7101 1.7101,4.69847 m 2.98836,-6.40857 -4.69846,1.7101 -1.71011,-4.69848 m -78.16376,33.7702 4.69846,-1.7101 1.7101,4.69848 m 2.98837,-6.40858 -4.69847,1.7101 -1.71011,-4.69849 m 81.58397,-24.37323 c 0.94446,2.59488 -0.39347,5.46409 -2.98836,6.40856 -2.59489,0.94445 -5.46411,-0.39348 -6.40856,-2.98836 -0.94447,-2.59489 0.39347,-5.46411 2.98836,-6.40856 2.59489,-0.94447 5.4641,0.39347 6.40856,2.98836 z m -75.17541,27.3616 c 0.94446,2.59489 -0.39347,5.46409 -2.98835,6.40856 -2.59489,0.94447 -5.46411,-0.39347 -6.40857,-2.98836 -0.94447,-2.59489 0.39347,-5.46411 2.98836,-6.40857 2.59489,-0.94446 5.4641,0.39348 6.40856,2.98837 z m -30.332717,-10.24335 75.175417,-27.36162 75.17541,-27.36161 6.8404,18.79387 6.8404,18.79384 -75.17541,27.36162 -75.17541,27.36161 -6.8404,-18.79385 z"
       sodipodi:nodetypes="ccccccccccccssssssssssccccccccc" />
    <path
       id="path24405"
       style="display:inline;fill:none;stroke:#ff0600;stroke-width:0.265;stroke-linecap:butt;stroke-linejoin:miter;stroke-miterlimit:4;stroke-dasharray:none;stroke-opacity:1"
       d="m 151.62015,578.68052 4.33013,-2.5 2.5,4.33013 m 1.83012,-6.83013 -4.33012,2.5 -2.50001,-4.33014 m -71.11215,46.83015 4.33013,-2.5 2.5,4.33014 m 1.83013,-6.83014 -4.33013,2.5 -2.50002,-4.33015 m 76.11216,-38.16986 c 1.38071,2.39146 0.56134,5.44941 -1.83012,6.83013 -2.39147,1.3807 -5.44943,0.56133 -6.83013,-1.83013 -1.38072,-2.39146 -0.56134,-5.44942 1.83013,-6.83012 2.39146,-1.38072 5.44941,-0.56134 6.83012,1.83012 z m -69.28203,39.99999 c 1.38071,2.39147 0.56133,5.44941 -1.83012,6.83012 -2.39146,1.38072 -5.44942,0.56134 -6.83013,-1.83012 -1.38072,-2.39146 -0.56134,-5.44942 1.83012,-6.83013 2.39147,-1.38071 5.44942,-0.56133 6.83013,1.83013 z M 59.347718,608.86 l 69.282042,-40.00001 69.28203,-40 10,17.32053 10,17.3205 -69.28203,40.00001 -69.28203,39.99999 -10.000005,-17.3205 z"
       sodipodi:nodetypes="ccccccccccccssssssssssccccccccc" />
  </g>
  <path
     style="display:none;fill:none;stroke:#000000;stroke-width:0.264583"
     d="m 176.65999,159.37933 0.8508,-0.12493 0.49903,0.0485 1.40741,0.63711 v 0.8364 l -1.40741,0.63711 -0.49903,0.0485 -0.8508,-0.12493 -0.40364,1.5064 0.79928,0.31721 0.40792,0.29152 0.90029,1.25546 -0.41819,0.72434 -1.53741,-0.15194 -0.45643,-0.20751 -0.67435,-0.53359 -1.10276,1.10276 0.53359,0.67435 0.20751,0.45643 0.15194,1.53741 -0.72434,0.41819 -1.25546,-0.90029 -0.29152,-0.40792 -0.31721,-0.79928 -1.5064,0.40364 0.12493,0.8508 -0.0485,0.49903 -0.63711,1.40741 h -0.8364 l -0.63711,-1.40741 -0.0485,-0.49903 0.12493,-0.8508 -1.5064,-0.40364 -0.31721,0.79928 -0.29152,0.40792 -1.25546,0.90029 -0.72434,-0.41819 0.15194,-1.53741 0.20751,-0.45643 0.53359,-0.67435 -1.10276,-1.10276 -0.67435,0.53359 -0.45643,0.20751 -1.53741,0.15194 -0.41819,-0.72434 0.90029,-1.25546 0.40792,-0.29152 0.79928,-0.31721 -0.40364,-1.5064 -0.8508,0.12493 -0.49903,-0.0485 -1.40741,-0.63711 v -0.8364 l 1.40741,-0.63711 0.49903,-0.0485 0.8508,0.12493 0.40364,-1.5064 -0.79928,-0.31721 -0.40792,-0.29152 -0.90029,-1.25546 0.41819,-0.72434 1.53741,0.15194 0.45643,0.20751 0.67435,0.53359 1.10276,-1.10276 -0.53359,-0.67435 -0.20751,-0.45643 -0.15194,-1.53741 0.72434,-0.41819 1.25546,0.90029 0.29152,0.40792 0.31721,0.79928 1.5064,-0.40364 -0.12493,-0.8508 0.0485,-0.49903 0.63711,-1.40741 h 0.8364 l 0.63711,1.40741 0.0485,0.49903 -0.12493,0.8508 1.5064,0.40364 0.31721,-0.79928 0.29152,-0.40792 1.25546,-0.90029 0.72434,0.41819 -0.15194,1.53741 -0.20751,0.45643 -0.53359,0.67435 1.10276,1.10276 0.67435,-0.53359 0.45643,-0.20751 1.53741,-0.15194 0.41819,0.72434 -0.90029,1.25546 -0.40792,0.29152 -0.79928,0.31721 z"
     id="path24033" />
  <circle
     style="fill:none;stroke:#000000;stroke-width:0.264583"
     id="path24035"
     cx="169.99393"
     cy="160.35822"
     r="5" />
  <path
     style="display:none;fill:none;stroke:#000000;stroke-width:0.264583"
     d="m 124.29475,104.27842 0.69296,-0.0787 0.6629,0.0864 1.3911,0.60821 v 0.89684 l -1.3911,0.60821 -0.6629,0.0864 -0.69296,-0.0787 -0.30611,1.53894 0.6703,0.19248 0.57937,0.33352 1.0525,1.09428 -0.3432,0.82856 -1.51801,0.0296 -0.64551,-0.17384 -0.61008,-0.33788 -0.87174,1.30465 0.54563,0.43434 0.40764,0.52985 0.5536,1.41375 -0.63416,0.63416 -1.41375,-0.5536 -0.52985,-0.40764 -0.43434,-0.54563 -1.30465,0.87174 0.33788,0.61008 0.17384,0.64551 -0.0296,1.51801 -0.82856,0.3432 -1.09428,-1.0525 -0.33352,-0.57937 -0.19248,-0.6703 -1.53894,0.30611 0.0787,0.69296 -0.0864,0.6629 -0.60821,1.3911 h -0.89684 l -0.60821,-1.3911 -0.0864,-0.6629 0.0787,-0.69296 -1.53894,-0.30611 -0.19248,0.6703 -0.33352,0.57937 -1.09428,1.0525 -0.82856,-0.3432 -0.0296,-1.51801 0.17384,-0.64551 0.33788,-0.61008 -1.30465,-0.87174 -0.43434,0.54563 -0.52985,0.40764 -1.41375,0.5536 -0.63416,-0.63416 0.5536,-1.41375 0.40764,-0.52985 0.54563,-0.43434 -0.87174,-1.30465 -0.61008,0.33788 -0.64551,0.17384 -1.51801,-0.0296 -0.3432,-0.82856 1.0525,-1.09428 0.57937,-0.33352 0.6703,-0.19248 -0.30611,-1.53894 -0.69296,0.0787 -0.6629,-0.0864 -1.3911,-0.60821 v -0.89684 l 1.3911,-0.60821 0.6629,-0.0864 0.69296,0.0787 0.30611,-1.53894 -0.6703,-0.19248 -0.57937,-0.33352 -1.0525,-1.09428 0.3432,-0.82856 1.51801,-0.0296 0.64551,0.17384 0.61008,0.33788 0.87174,-1.30465 -0.54563,-0.43434 -0.40764,-0.52985 -0.5536,-1.41375 0.63416,-0.63416 1.41375,0.5536 0.52985,0.40764 0.43434,0.54563 1.30465,-0.87174 -0.33788,-0.61008 -0.17384,-0.64551 0.0296,-1.51801 0.82856,-0.3432 1.09428,1.0525 0.33352,0.57937 0.19248,0.6703 1.53894,-0.30611 -0.0787,-0.69296 0.0864,-0.6629 0.60821,-1.3911 h 0.89684 l 0.60821,1.3911 0.0864,0.6629 -0.0787,0.69296 1.53894,0.30611 0.19248,-0.6703 0.33352,-0.57937 1.09428,-1.0525 0.82856,0.3432 0.0296,1.51801 -0.17384,0.64551 -0.33788,0.61008 1.30465,0.87174 0.43434,-0.54563 0.52985,-0.40764 1.41375,-0.5536 0.63416,0.63416 -0.5536,1.41375 -0.40764,0.52985 -0.54563,0.43434 0.87174,1.30465 0.61008,-0.33788 0.64551,-0.17384 1.51801,0.0296 0.3432,0.82856 -1.0525,1.09428 -0.57937,0.33352 -0.6703,0.19248 z"
     id="path24342" />
  <circle
     style="fill:none;stroke:#000000;stroke-width:0.264583"
     id="path24344"
     cx="114.92241"
     cy="105.34278"
     r="7" />
  <path
     style="fill:none;stroke:#000000;stroke-width:0.264583"
     d="m 117.52567,114.40899 -1.53894,0.30611 0.0787,0.69296 -0.0864,0.6629 -0.60821,1.3911 h -0.89684 l -0.60821,-1.3911 -0.0864,-0.6629 0.0787,-0.69296 -1.53894,-0.30611 -0.19248,0.6703 -0.33352,0.57937 -1.09428,1.0525 -0.82856,-0.3432 -0.0296,-1.51801 0.17384,-0.64551 0.33788,-0.61008 -1.30465,-0.87174 -0.43434,0.54563 -0.52985,0.40764 -1.41375,0.5536 -0.63416,-0.63416 0.5536,-1.41375 0.40764,-0.52985 0.54563,-0.43434 -0.87174,-1.30465 -0.61008,0.33788 -0.64551,0.17384 -1.51801,-0.0296 -0.3432,-0.82856 1.0525,-1.09428 0.57937,-0.33352 0.6703,-0.19248 -0.30611,-1.53894 -0.69296,0.0787 -0.6629,-0.0864 -1.3911,-0.60821 v -0.89684 l 1.3911,-0.60821 0.6629,-0.0864 0.69296,0.0787 0.30611,-1.53894 6.46297,-6.46297 1.53894,-0.30611 -0.0787,-0.69296 0.0864,-0.6629 0.60821,-1.3911 h 0.89684 l 0.60821,1.3911 0.0864,0.6629 -0.0787,0.69296 1.53894,0.30611 0.19248,-0.6703 0.33352,-0.57937 1.09428,-1.0525 0.82856,0.3432 0.0296,1.51801 -0.17384,0.64551 -0.33788,0.61008 1.30465,0.87174 0.43434,-0.54563 0.52985,-0.40764 1.41375,-0.5536 0.63416,0.63416 -0.5536,1.41375 -0.40764,0.52985 -0.54563,0.43434 0.87174,1.30465 0.61008,-0.33788 0.64551,-0.17384 1.51801,0.0296 0.3432,0.82856 -1.0525,1.09428 -0.57937,0.33352 -0.6703,0.19248 0.30611,1.53894 0.69296,-0.0787 0.6629,0.0864 1.3911,0.60821 v 0.89684 l -1.3911,0.60821 -0.6629,0.0864 -0.69296,-0.0787 -0.30611,1.53894 z"
     id="path25844"
     sodipodi:nodetypes="ccccccccccccccccccccccccccccccccccccccccccccccccccccccccccccccccccccccccccccccccccccc" />
</svg>
