<?xml version="1.0" encoding="UTF-8" standalone="no"?>
<!-- Created with Inkscape (http://www.inkscape.org/) -->

<svg
   width="210mm"
   height="297mm"
   viewBox="0 0 210 297"
   version="1.1"
   id="svg5"
   inkscape:version="1.1.2 (b8e25be833, 2022-02-05)"
   sodipodi:docname="Box_Cover.svg"
   xmlns:inkscape="http://www.inkscape.org/namespaces/inkscape"
   xmlns:sodipodi="http://sodipodi.sourceforge.net/DTD/sodipodi-0.dtd"
   xmlns="http://www.w3.org/2000/svg"
   xmlns:svg="http://www.w3.org/2000/svg">
  <sodipodi:namedview
     id="namedview7"
     pagecolor="#ffffff"
     bordercolor="#666666"
     borderopacity="1.0"
     inkscape:pageshadow="2"
     inkscape:pageopacity="0.0"
     inkscape:pagecheckerboard="0"
     inkscape:document-units="mm"
     showgrid="false"
     inkscape:zoom="0.83906433"
     inkscape:cx="351.5821"
     inkscape:cy="398.65835"
     inkscape:window-width="1920"
     inkscape:window-height="1009"
     inkscape:window-x="-8"
     inkscape:window-y="-8"
     inkscape:window-maximized="1"
     inkscape:current-layer="g1681" />
  <defs
     id="defs2" />
  <g
     inkscape:label="Layer 1"
     inkscape:groupmode="layer"
     id="layer1">
    <g
       id="g1902"
       transform="translate(3.8925357,-63.340507)">
      <g
         stroke="#4ca2a8"
         id="g1683">
        <path
           d="m 68.568,140.22 q 0.254,0 0.47977,-0.0988 0.22577,-0.0988 0.39511,-0.26811 0.16933,-0.16933 0.26811,-0.39511 0.09878,-0.22577 0.09878,-0.47977 0,-0.26811 -0.09878,-0.49388 -0.09878,-0.22578 -0.26811,-0.39511 -0.16933,-0.16933 -0.39511,-0.26811 -0.22578,-0.0988 -0.47977,-0.0988 H 52.256 q -0.86077,0 -1.6228,-0.32455 -0.76199,-0.33867 -1.3264,-0.90311 -0.56441,-0.56444 -0.9031,-1.3264 -0.32455,-0.76199 -0.32455,-1.6369 0,-0.86077 0.32455,-1.6228 0.33866,-0.76199 0.9031,-1.3264 0.56444,-0.56441 1.3264,-0.889 0.76199,-0.33862 1.6228,-0.33862 h 20.546 v 2.9774 H 52.256 q -0.49388,0 -0.84666,0.35277 -0.33866,0.35278 -0.33866,0.84666 0,0.508 0.33866,0.86078 0.35278,0.35277 0.84666,0.35277 h 16.312 q 0.87488,0 1.6369,0.33866 0.7761,0.32456 1.3547,0.90311 0.57855,0.56444 0.9031,1.3405 0.33866,0.77611 0.33866,1.651 0,0.87489 -0.33866,1.651 -0.32455,0.76199 -0.9031,1.3405 -0.57855,0.57851 -1.3547,0.91722 -0.76199,0.32455 -1.6369,0.32455 H 48.079 v -2.9915 z m 6.9426,2.9633 v -13.829 h 2.9774 v 8.2973 l 12.643,-8.2973 h 5.4468 q -0.60677,0.39511 -1.2559,0.83255 -0.635,0.42333 -1.3405,0.87488 -1.1994,0.80433 -2.7658,1.8344 -1.5663,1.016 -3.3443,2.1731 l 9.4403,8.142 h -4.572 l -7.4788,-6.4346 z m 41.599,-8.4384 h 19.939 v 2.9774 h -16.947 v 2.4976 h 18.147 v 2.9915 h -21.138 z m -17.596,-2.413 v -2.9774 h 15.056 v 13.857 h -2.9774 v -10.88 z m 17.596,-2.9774 h 21.138 v 2.9774 h -21.138 z m 23.89,13.829 v -13.829 h 2.9774 v 8.2973 l 12.643,-8.2973 h 5.4468 q -0.60677,0.39511 -1.2559,0.83255 -0.63499,0.42333 -1.3405,0.87488 -1.1994,0.80433 -2.7658,1.8344 -1.5663,1.016 -3.3443,2.1731 l 9.4403,8.142 h -4.572 l -7.4788,-6.4346 z"
           fill="#4378cd"
           stroke-width="0.26458"
           aria-label="SKTEK"
           id="path1287" />
        <g
           fill="none"
           stroke-width="1.5"
           id="g1681"
           inkscape:groupmode="layer">
          <path
             d="m 54.547,115.16 v 5.5562"
             stroke-linecap="round"
             stroke-linejoin="round"
             id="path1289" />
          <circle
             cx="54.539997"
             cy="112.784"
             r="1.6368001"
             id="circle1291" />
          <path
             d="m 54.546,120.716 h 3.9687"
             stroke-linecap="round"
             stroke-linejoin="round"
             id="path1293" />
          <path
             d="m 58.542,120.743 v 5.5562"
             stroke-linecap="round"
             stroke-linejoin="round"
             id="path1295" />
          <path
             d="m 83.977,123.594 v 2.6789"
             stroke-linecap="round"
             stroke-linejoin="round"
             id="path1299" />
          <circle
             cx="83.935997"
             cy="121.846"
             r="1.6368001"
             id="circle1301" />
          <path
             d="m 83.977,148.745 v -2.6789"
             stroke-linecap="round"
             stroke-linejoin="round"
             id="path1303" />
          <circle
             transform="scale(1,-1)"
             cx="83.935997"
             cy="-150.49501"
             r="1.6368001"
             id="circle1305" />
          <path
             d="M 99.76,97.948 V 109.21"
             stroke-linecap="round"
             stroke-linejoin="round"
             id="path1309" />
          <circle
             cx="-99.766998"
             cy="95.945999"
             r="1.6368001"
             id="circle1311"
             transform="scale(-1,1)" />
          <g
             stroke-linecap="round"
             stroke-linejoin="round"
             id="g1319"
             transform="matrix(-1,0,0,1,82.497,31.816)">
            <path
               d="m -17.264,77.394 3.9687,0.09354"
               id="path1313" />
            <path
               d="M -13.268,77.608 V 94.483"
               id="path1315" />
            <path
               d="M -17.263,142.58 V 131.317"
               id="path1317" />
          </g>
          <circle
             transform="scale(-1)"
             cx="-99.766998"
             cy="-176.396"
             r="1.6368001"
             id="circle1321" />
          <path
             d="m 99.761,163.126 -3.9687,-0.0935"
             stroke-linecap="round"
             stroke-linejoin="round"
             id="path1323" />
          <path
             d="M 95.765,162.916 V 146.041"
             stroke-linecap="round"
             stroke-linejoin="round"
             id="path1325" />
          <path
             d="M 113.767,78.49 V 95.997"
             stroke-linecap="round"
             stroke-linejoin="round"
             id="path1329" />
          <circle
             cx="-113.774"
             cy="76.768997"
             r="1.6368001"
             id="circle1331"
             transform="scale(-1,1)" />
          <g
             stroke-linecap="round"
             stroke-linejoin="round"
             id="g1339"
             transform="matrix(-1,0,0,1,96.504,31.816)">
            <path
               d="m -17.264,64.274 3.9687,0.02338"
               id="path1333" />
            <path
               d="M -13.268,64.418 V 94.483"
               id="path1335" />
            <path
               d="M -17.263,162.03 V 144.523"
               id="path1337" />
          </g>
          <circle
             transform="scale(-1)"
             cx="-113.774"
             cy="-195.56599"
             r="1.6368001"
             id="circle1341" />
          <path
             d="m 113.768,176.246 -3.9687,-0.0234"
             stroke-linecap="round"
             stroke-linejoin="round"
             id="path1343" />
          <path
             d="M 109.772,176.106 V 146.041"
             stroke-linecap="round"
             stroke-linejoin="round"
             id="path1345" />
          <path
             d="m 125.457,90.745 v 10.327"
             stroke-linecap="round"
             stroke-linejoin="round"
             id="path1349" />
          <circle
             cx="125.45"
             cy="88.93"
             r="1.6368001"
             id="circle1351" />
          <g
             stroke-linecap="round"
             stroke-linejoin="round"
             id="g1359"
             transform="translate(142.72,31.816)">
            <path
               d="m -17.264,69.63 3.9687,-4e-6"
               id="path1353" />
            <path
               d="m -13.268,69.563 v 24.92"
               id="path1355" />
            <path
               d="M -17.263,149.78 V 139.453"
               id="path1357" />
          </g>
          <circle
             transform="scale(1,-1)"
             cx="125.45"
             cy="-183.40599"
             r="1.6368001"
             id="circle1361" />
          <path
             d="m 125.456,170.896 3.9687,1e-5"
             stroke-linecap="round"
             stroke-linejoin="round"
             id="path1363" />
          <path
             d="m 129.452,170.966 v -24.92"
             stroke-linecap="round"
             stroke-linejoin="round"
             id="path1365" />
          <path
             d="m 141.137,121.442 v 4.8304"
             stroke-linecap="round"
             stroke-linejoin="round"
             id="path1369" />
          <circle
             cx="141.09599"
             cy="119.695"
             r="1.6368001"
             id="circle1371" />
          <path
             d="m 141.137,150.895 v -4.8305"
             stroke-linecap="round"
             stroke-linejoin="round"
             id="path1373" />
          <circle
             transform="scale(1,-1)"
             cx="141.09599"
             cy="-152.645"
             r="1.6368001"
             id="circle1375" />
          <path
             d="m 156.383,104.028 v 10.14"
             stroke-linecap="round"
             stroke-linejoin="round"
             id="path1379" />
          <circle
             cx="-156.39"
             cy="102.12"
             r="1.6368001"
             id="circle1381"
             transform="scale(-1,1)" />
          <g
             stroke-linecap="round"
             stroke-linejoin="round"
             id="g1389"
             transform="matrix(-1,0,0,1,139.12,31.816)">
            <path
               d="m -17.077,82.352 3.7817,-0.02339"
               id="path1383" />
            <path
               d="M -13.268,82.472 V 94.483"
               id="path1385" />
            <path
               d="M -17.263,136.5 V 126.36"
               id="path1387" />
          </g>
          <circle
             transform="scale(-1)"
             cx="-156.39"
             cy="-170.21599"
             r="1.6368001"
             id="circle1391" />
          <path
             d="m 156.197,158.176 -3.7817,0.0234"
             stroke-linecap="round"
             stroke-linejoin="round"
             id="path1393" />
          <path
             d="M 152.388,158.056 V 146.045"
             stroke-linecap="round"
             stroke-linejoin="round"
             id="path1395" />
          <path
             d="m 169.983,114.083 v 10.14"
             stroke-linecap="round"
             stroke-linejoin="round"
             id="path1399" />
          <circle
             cx="-169.99001"
             cy="112.175"
             r="1.6368001"
             id="circle1401"
             transform="scale(-1,1)" />
          <g
             stroke-linecap="round"
             stroke-linejoin="round"
             id="g1409"
             transform="matrix(-1,0,0,1,152.72,41.871)">
            <path
               d="m -17.077,82.352 3.7817,-0.02339"
               id="path1403" />
            <path
               d="M -13.268,82.472 V 94.483"
               id="path1405" />
            <path
               d="M -17.263,116.39 V 106.25"
               id="path1407" />
          </g>
          <circle
             transform="scale(-1)"
             cx="-169.99001"
             cy="-160.17101"
             r="1.6368001"
             id="circle1411" />
          <path
             d="m 169.797,148.121 -3.7817,0.0234"
             stroke-linecap="round"
             stroke-linejoin="round"
             id="path1413" />
          <path
             d="M 165.988,148.001 V 135.99"
             stroke-linecap="round"
             stroke-linejoin="round"
             id="path1415" />
          <path
             d="m 182.407,127.263 v 8.9315"
             stroke-linecap="round"
             stroke-linejoin="round"
             id="path1419" />
          <circle
             cx="182.366"
             cy="125.516"
             r="1.6368001"
             id="circle1421" />
          <path
             d="m 182.407,145.076 v -8.9315"
             stroke-linecap="round"
             stroke-linejoin="round"
             id="path1423" />
          <circle
             transform="scale(1,-1)"
             cx="182.366"
             cy="-146.826"
             r="1.6368001"
             id="circle1425" />
          <path
             d="m 196.697,132.829 v 3.3656"
             stroke-linecap="round"
             stroke-linejoin="round"
             id="path1429" />
          <circle
             cx="196.65601"
             cy="130.427"
             r="1.6368001"
             id="circle1431" />
          <path
             d="m 196.697,139.516 v -3.3656"
             stroke-linecap="round"
             stroke-linejoin="round"
             id="path1433" />
          <circle
             transform="scale(1,-1)"
             cx="196.65601"
             cy="-141.916"
             r="1.6368001"
             id="circle1435" />
          <circle
             cx="69.653"
             cy="124.724"
             r="1.6368001"
             id="circle1439" />
          <circle
             transform="scale(1,-1)"
             cx="69.653"
             cy="-147.61501"
             r="1.6368001"
             id="circle1441" />
          <path
             d="m 40.789,97.948 v 17.083"
             stroke-linecap="round"
             stroke-linejoin="round"
             id="path1445" />
          <circle
             cx="40.781998"
             cy="95.945999"
             r="1.6368001"
             id="circle1447" />
          <g
             stroke-linecap="round"
             stroke-linejoin="round"
             id="g1455"
             transform="translate(58.052,31.816)">
            <path
               d="m -17.264,83.215 3.9687,0.02739"
               id="path1449" />
            <path
               d="m -13.268,83.363 v 21.108"
               id="path1451" />
            <path
               d="M -17.263,142.58 V 125.497"
               id="path1453" />
          </g>
          <circle
             transform="scale(1,-1)"
             cx="40.781998"
             cy="-176.396"
             r="1.6368001"
             id="circle1457" />
          <path
             d="m 40.788,157.306 3.9687,-0.0274"
             stroke-linecap="round"
             stroke-linejoin="round"
             id="path1459" />
          <path
             d="M 44.784,157.166 V 136.057"
             stroke-linecap="round"
             stroke-linejoin="round"
             id="path1461" />
          <path
             d="m 14.132,127.263 v 8.9315"
             stroke-linecap="round"
             stroke-linejoin="round"
             id="path1465" />
          <circle
             cx="14.091"
             cy="125.516"
             r="1.6368001"
             id="circle1467" />
          <path
             d="m 14.132,145.076 v -8.9315"
             stroke-linecap="round"
             stroke-linejoin="round"
             id="path1469" />
          <circle
             transform="scale(1,-1)"
             cx="14.091"
             cy="-146.826"
             r="1.6368001"
             id="circle1471" />
          <path
             d="m 28.419,112.314 v 23.88"
             stroke-linecap="round"
             stroke-linejoin="round"
             id="path1475" />
          <circle
             cx="28.377998"
             cy="110.368"
             r="1.6368001"
             id="circle1477" />
          <path
             d="M 28.419,160.026 V 136.145"
             stroke-linecap="round"
             stroke-linejoin="round"
             id="path1479" />
          <circle
             transform="scale(1,-1)"
             cx="28.377998"
             cy="-161.976"
             r="1.6368001"
             id="circle1481" />
          <path
             d="m 54.547,157.176 v -5.5562"
             stroke-linecap="round"
             stroke-linejoin="round"
             id="path1485" />
          <circle
             transform="scale(1,-1)"
             cx="54.539997"
             cy="-159.552"
             r="1.6368001"
             id="circle1487" />
          <path
             d="m 54.546,151.62 h 3.9687"
             stroke-linecap="round"
             stroke-linejoin="round"
             id="path1489" />
          <path
             d="m 58.542,151.593 v -5.5562"
             stroke-linecap="round"
             stroke-linejoin="round"
             id="path1491" />
          <path
             d="m 83.977,148.751 v -2.6789"
             stroke-linecap="round"
             stroke-linejoin="round"
             id="path1495" />
          <circle
             cx="83.935997"
             cy="-150.49899"
             r="1.6368001"
             id="circle1497"
             transform="scale(1,-1)" />
          <path
             d="m 83.977,148.751 v -2.6789"
             stroke-linecap="round"
             stroke-linejoin="round"
             id="path1499" />
          <circle
             cx="83.935997"
             cy="-150.49899"
             r="1.6368001"
             id="circle1501"
             transform="scale(1,-1)" />
          <path
             d="M 99.761,174.388 V 163.126"
             stroke-linecap="round"
             stroke-linejoin="round"
             id="path1505" />
          <circle
             cx="-99.767998"
             cy="-176.39"
             r="1.6368001"
             id="circle1507"
             transform="scale(-1)" />
          <g
             stroke-linecap="round"
             stroke-linejoin="round"
             id="g1515"
             transform="rotate(180,41.249,120.26)">
            <path
               d="m -17.264,77.394 3.9687,0.09354"
               id="path1509" />
            <path
               d="M -13.268,77.608 V 94.483"
               id="path1511" />
            <path
               d="M -17.263,66.132 V 77.394"
               id="path1513" />
          </g>
          <circle
             cx="-99.767998"
             cy="-176.39"
             r="1.6368001"
             id="circle1517"
             transform="scale(-1)" />
          <path
             d="m 99.762,163.126 -3.9687,-0.0935"
             stroke-linecap="round"
             stroke-linejoin="round"
             id="path1519" />
          <path
             d="M 95.766,162.912 V 146.037"
             stroke-linecap="round"
             stroke-linejoin="round"
             id="path1521" />
          <path
             d="M 113.767,193.846 V 176.339"
             stroke-linecap="round"
             stroke-linejoin="round"
             id="path1525" />
          <circle
             cx="-113.774"
             cy="-195.567"
             r="1.6368001"
             id="circle1527"
             transform="scale(-1)" />
          <g
             stroke-linecap="round"
             stroke-linejoin="round"
             id="g1535"
             transform="rotate(180,48.252,120.26)">
            <path
               d="m -17.264,64.274 3.9687,0.02338"
               id="path1529" />
            <path
               d="M -13.268,64.418 V 94.483"
               id="path1531" />
            <path
               d="M -17.263,46.674 V 64.181"
               id="path1533" />
          </g>
          <circle
             cx="-113.774"
             cy="-195.567"
             r="1.6368001"
             id="circle1537"
             transform="scale(-1)" />
          <path
             d="m 113.768,176.246 -3.9687,-0.0234"
             stroke-linecap="round"
             stroke-linejoin="round"
             id="path1539" />
          <path
             d="M 109.772,176.102 V 146.037"
             stroke-linecap="round"
             stroke-linejoin="round"
             id="path1541" />
          <path
             d="M 125.457,181.591 V 171.264"
             stroke-linecap="round"
             stroke-linejoin="round"
             id="path1545" />
          <circle
             cx="125.45"
             cy="-183.40601"
             r="1.6368001"
             id="circle1547"
             transform="scale(1,-1)" />
          <g
             stroke-linecap="round"
             stroke-linejoin="round"
             id="g1555"
             transform="matrix(1,0,0,-1,142.72,240.52)">
            <path
               d="m -17.264,69.63 3.9687,-4e-6"
               id="path1549" />
            <path
               d="m -13.268,69.563 v 24.92"
               id="path1551" />
            <path
               d="M -17.263,58.929 V 69.256"
               id="path1553" />
          </g>
          <circle
             cx="125.45"
             cy="-183.40601"
             r="1.6368001"
             id="circle1557"
             transform="scale(1,-1)" />
          <path
             d="m 125.456,170.89 h 3.9687"
             stroke-linecap="round"
             stroke-linejoin="round"
             id="path1559" />
          <path
             d="m 129.452,170.957 v -24.92"
             stroke-linecap="round"
             stroke-linejoin="round"
             id="path1561" />
          <path
             d="m 141.137,150.903 v -4.8304"
             stroke-linecap="round"
             stroke-linejoin="round"
             id="path1565" />
          <circle
             cx="141.09599"
             cy="-152.64999"
             r="1.6368001"
             id="circle1567"
             transform="scale(1,-1)" />
          <path
             d="m 141.137,150.903 v -4.8304"
             stroke-linecap="round"
             stroke-linejoin="round"
             id="path1569" />
          <circle
             cx="141.09599"
             cy="-152.64999"
             r="1.6368001"
             id="circle1571"
             transform="scale(1,-1)" />
          <path
             d="m 156.381,168.308 v -10.14"
             stroke-linecap="round"
             stroke-linejoin="round"
             id="path1575" />
          <circle
             cx="-156.388"
             cy="-170.216"
             r="1.6368001"
             id="circle1577"
             transform="scale(-1)" />
          <g
             stroke-linecap="round"
             stroke-linejoin="round"
             id="g1585"
             transform="rotate(180,69.559,120.26)">
            <path
               d="m -17.077,82.352 3.7817,-0.02339"
               id="path1579" />
            <path
               d="M -13.268,82.472 V 94.483"
               id="path1581" />
            <path
               d="m -17.263,72.212 v 10.14"
               id="path1583" />
          </g>
          <circle
             cx="-156.388"
             cy="-170.216"
             r="1.6368001"
             id="circle1587"
             transform="scale(-1)" />
          <path
             d="m 156.195,158.168 -3.7817,0.0234"
             stroke-linecap="round"
             stroke-linejoin="round"
             id="path1589" />
          <path
             d="M 152.386,158.048 V 146.037"
             stroke-linecap="round"
             stroke-linejoin="round"
             id="path1591" />
          <path
             d="m 169.985,158.248 v -10.14"
             stroke-linecap="round"
             stroke-linejoin="round"
             id="path1595" />
          <circle
             cx="-169.992"
             cy="-160.15601"
             r="1.6368001"
             id="circle1597"
             transform="scale(-1)" />
          <g
             stroke-linecap="round"
             stroke-linejoin="round"
             id="g1605"
             transform="rotate(180,76.361,115.23)">
            <path
               d="m -17.077,82.352 3.7817,-0.02339"
               id="path1599" />
            <path
               d="M -13.268,82.472 V 94.483"
               id="path1601" />
            <path
               d="m -17.263,72.212 v 10.14"
               id="path1603" />
          </g>
          <circle
             cx="-169.992"
             cy="-160.15601"
             r="1.6368001"
             id="circle1607"
             transform="scale(-1)" />
          <path
             d="m 169.799,148.108 -3.7817,0.0234"
             stroke-linecap="round"
             stroke-linejoin="round"
             id="path1609" />
          <path
             d="M 165.99,147.988 V 135.977"
             stroke-linecap="round"
             stroke-linejoin="round"
             id="path1611" />
          <path
             d="m 182.407,145.083 v -8.9315"
             stroke-linecap="round"
             stroke-linejoin="round"
             id="path1615" />
          <circle
             cx="182.366"
             cy="-146.83"
             r="1.6368001"
             id="circle1617"
             transform="scale(1,-1)" />
          <path
             d="m 182.407,145.083 v -8.9315"
             stroke-linecap="round"
             stroke-linejoin="round"
             id="path1619" />
          <circle
             cx="182.366"
             cy="-146.83"
             r="1.6368001"
             id="circle1621"
             transform="scale(1,-1)" />
          <path
             d="m 196.697,139.517 v -3.3656"
             stroke-linecap="round"
             stroke-linejoin="round"
             id="path1625" />
          <circle
             cx="196.65601"
             cy="-141.91899"
             r="1.6368001"
             id="circle1627"
             transform="scale(1,-1)" />
          <path
             d="m 196.697,139.517 v -3.3656"
             stroke-linecap="round"
             stroke-linejoin="round"
             id="path1629" />
          <circle
             cx="196.65601"
             cy="-141.91899"
             r="1.6368001"
             id="circle1631"
             transform="scale(1,-1)" />
          <circle
             cx="69.653"
             cy="-147.621"
             r="1.6368001"
             id="circle1635"
             transform="scale(1,-1)" />
          <circle
             cx="69.653"
             cy="-147.621"
             r="1.6368001"
             id="circle1637"
             transform="scale(1,-1)" />
          <path
             d="M 40.789,174.388 V 157.305"
             stroke-linecap="round"
             stroke-linejoin="round"
             id="path1641" />
          <circle
             cx="40.781998"
             cy="-176.39"
             r="1.6368001"
             id="circle1643"
             transform="scale(1,-1)" />
          <g
             stroke-linecap="round"
             stroke-linejoin="round"
             id="g1651"
             transform="matrix(1,0,0,-1,58.052,240.52)">
            <path
               d="m -17.264,83.215 3.9687,0.02739"
               id="path1645" />
            <path
               d="m -13.268,83.363 v 21.108"
               id="path1647" />
            <path
               d="M -17.263,66.132 V 83.215"
               id="path1649" />
          </g>
          <circle
             cx="40.781998"
             cy="-176.39"
             r="1.6368001"
             id="circle1653"
             transform="scale(1,-1)" />
          <path
             d="m 40.788,157.305 3.9687,-0.0274"
             stroke-linecap="round"
             stroke-linejoin="round"
             id="path1655" />
          <path
             d="M 44.784,157.157 V 136.049"
             stroke-linecap="round"
             stroke-linejoin="round"
             id="path1657" />
          <path
             d="m 14.132,145.083 v -8.9315"
             stroke-linecap="round"
             stroke-linejoin="round"
             id="path1661" />
          <circle
             cx="14.091"
             cy="-146.83"
             r="1.6368001"
             id="circle1663"
             transform="scale(1,-1)" />
          <path
             d="m 14.132,145.083 v -8.9315"
             stroke-linecap="round"
             stroke-linejoin="round"
             id="path1665" />
          <circle
             cx="14.091"
             cy="-146.83"
             r="1.6368001"
             id="circle1667"
             transform="scale(1,-1)" />
          <path
             d="m 28.419,160.032 v -23.88"
             stroke-linecap="round"
             stroke-linejoin="round"
             id="path1671" />
          <circle
             cx="28.377998"
             cy="-161.978"
             r="1.6368001"
             id="circle1673"
             transform="scale(1,-1)" />
          <path
             d="m 28.419,160.032 v -23.88"
             stroke-linecap="round"
             stroke-linejoin="round"
             id="path1675" />
          <circle
             cx="28.377998"
             cy="-161.978"
             r="1.6368001"
             id="circle1677"
             transform="scale(1,-1)" />
        </g>
      </g>
    </g>
  </g>
</svg>
