<?xml version="1.0" encoding="UTF-8" standalone="no"?>
<!-- Created with Inkscape (http://www.inkscape.org/) -->

<svg
   width="400mm"
   height="400mm"
   viewBox="0 0 400 400"
   version="1.1"
   id="svg5"
   inkscape:version="1.1.2 (b8e25be833, 2022-02-05)"
   sodipodi:docname="Box_Mechanism.svg"
   xmlns:inkscape="http://www.inkscape.org/namespaces/inkscape"
   xmlns:sodipodi="http://sodipodi.sourceforge.net/DTD/sodipodi-0.dtd"
   xmlns="http://www.w3.org/2000/svg"
   xmlns:svg="http://www.w3.org/2000/svg">
  <sodipodi:namedview
     id="namedview7"
     pagecolor="#ffffff"
     bordercolor="#666666"
     borderopacity="1.0"
     inkscape:pageshadow="2"
     inkscape:pageopacity="0.0"
     inkscape:pagecheckerboard="0"
     inkscape:document-units="mm"
     showgrid="false"
     inkscape:zoom="0.83906433"
     inkscape:cx="1161.4127"
     inkscape:cy="392.69933"
     inkscape:window-width="1920"
     inkscape:window-height="1009"
     inkscape:window-x="-8"
     inkscape:window-y="-8"
     inkscape:window-maximized="1"
     inkscape:current-layer="layer1"
     inkscape:snap-smooth-nodes="true"
     inkscape:snap-intersection-paths="true" />
  <defs
     id="defs2" />
  <g
     inkscape:label="Layer 1"
     inkscape:groupmode="layer"
     id="layer1">
    <rect
       style="fill:none;stroke:#ff0000;stroke-width:0.264999"
       id="rect853"
       width="160"
       height="60"
       x="231.9834"
       y="119.50037" />
    <path
       id="rect935"
       style="fill:none;stroke:#ff0000;stroke-width:0.264999"
       d="m 231.9834,79.500379 h 80 80 v 20.000003 19.999998 h -80 -80 V 99.500382 Z"
       sodipodi:nodetypes="ccccccccc" />
    <path
       id="rect1141"
       style="fill:none;stroke:#ff0000;stroke-width:0.264999"
       d="M 191.9834,179.50039 V 99.500392 19.500394 h 20 20 v 79.999998 79.999998 h -20 z"
       sodipodi:nodetypes="ccccccccc" />
    <path
       style="fill:none;stroke:#82807e;stroke-width:0.265;stroke-linecap:butt;stroke-linejoin:miter;stroke-miterlimit:4;stroke-dasharray:0.265, 0.53;stroke-dashoffset:0;stroke-opacity:1"
       d="m 191.9834,99.500392 200,-1e-5"
       id="path1650" />
    <path
       style="fill:none;stroke:#82807e;stroke-width:0.265;stroke-linecap:butt;stroke-linejoin:miter;stroke-miterlimit:4;stroke-dasharray:0.265, 0.53;stroke-dashoffset:0;stroke-opacity:1"
       d="M 211.9834,19.500394 V 179.50039"
       id="path1652" />
    <path
       style="fill:none;stroke:#82807e;stroke-width:0.265;stroke-linecap:butt;stroke-linejoin:miter;stroke-miterlimit:4;stroke-dasharray:0.265, 0.53;stroke-dashoffset:0;stroke-opacity:1"
       d="M 311.9834,79.500379 V 119.50038"
       id="path1820" />
    <path
       style="fill:none;stroke:#82807e;stroke-width:0.265;stroke-linecap:butt;stroke-linejoin:miter;stroke-miterlimit:4;stroke-dasharray:0.265, 0.53;stroke-dashoffset:0;stroke-opacity:1"
       d="M 251.9834,79.500379 V 119.50038"
       id="path1822"
       sodipodi:nodetypes="cc" />
    <path
       style="fill:none;stroke:#82807e;stroke-width:0.265;stroke-linecap:butt;stroke-linejoin:miter;stroke-miterlimit:4;stroke-dasharray:0.265, 0.53;stroke-dashoffset:0;stroke-opacity:1"
       d="m 191.9834,159.50039 h 40"
       id="path2188"
       sodipodi:nodetypes="cc" />
    <path
       style="fill:none;stroke:#82807e;stroke-width:0.265;stroke-linecap:butt;stroke-linejoin:miter;stroke-miterlimit:4;stroke-dasharray:0.265, 0.53;stroke-dashoffset:0;stroke-opacity:1"
       d="m 251.9834,99.500392 -20,29.999998 -20,30"
       id="path2280"
       sodipodi:nodetypes="ccc" />
    <path
       style="fill:none;stroke:#82807e;stroke-width:0.265;stroke-linecap:butt;stroke-linejoin:miter;stroke-miterlimit:4;stroke-dasharray:0.265, 0.53;stroke-dashoffset:0;stroke-opacity:1"
       d="m 246.9834,139.50039 -15,-10"
       id="path2419"
       sodipodi:nodetypes="cc" />
    <path
       style="fill:none;stroke:#0000ff;stroke-width:0.264583px;stroke-linecap:butt;stroke-linejoin:miter;stroke-opacity:1"
       d="m 251.9834,99.500392 -5,39.999998"
       id="path2587"
       sodipodi:nodetypes="cc" />
    <path
       id="path2611"
       style="fill:none;stroke:#ff0000;stroke-width:0.264999"
       d="m 251.9834,139.50039 c 0,2.76142 -2.23858,5 -5,5 -2.76143,0 -5,-2.23858 -5,-5 0,-2.76142 2.23857,-5 5,-5 2.76142,0 5,2.23858 5,5 z"
       sodipodi:nodetypes="sssss" />
    <circle
       style="fill:none;stroke:#ff0000;stroke-width:0.264999"
       id="circle4612"
       cx="251.9834"
       cy="99.500374"
       r="5" />
    <path
       style="fill:none;stroke:#0000ff;stroke-width:0.264583px;stroke-linecap:butt;stroke-linejoin:miter;stroke-opacity:1"
       d="m 211.9834,99.500392 50,24.999998 50,-25.000008"
       id="path4865"
       sodipodi:nodetypes="ccc" />
    <path
       style="fill:none;stroke:#82807e;stroke-width:0.265;stroke-linecap:butt;stroke-linejoin:miter;stroke-miterlimit:4;stroke-dasharray:0.265, 0.53;stroke-dashoffset:0;stroke-opacity:1"
       d="M 261.9834,99.500392 V 124.50039"
       id="path4938"
       sodipodi:nodetypes="cc" />
    <path
       id="path5381"
       style="fill:none;stroke:#ff0000;stroke-width:0.264999"
       d="m 266.9834,124.50039 c 0,2.76142 -2.23858,5 -5,5 -2.76143,0 -5,-2.23858 -5,-5 0,-2.76142 2.23857,-5 5,-5 2.76142,0 5,2.23858 5,5 z"
       sodipodi:nodetypes="sssss" />
    <path
       id="path6351"
       style="fill:none;stroke:#ff0000;stroke-width:0.264999"
       d="m 316.98339,99.500382 c 0,2.761418 -2.23857,4.999998 -5,4.999998 -2.76142,0 -5,-2.23858 -5,-4.999998 0,-2.76142 2.23858,-5 5,-5 2.76143,0 5,2.23858 5,5 z"
       sodipodi:nodetypes="sssss" />
    <path
       style="fill:none;stroke:#0000ff;stroke-width:0.264583px;stroke-linecap:butt;stroke-linejoin:miter;stroke-opacity:1"
       d="m 211.9834,159.50039 35,-20"
       id="path6855"
       sodipodi:nodetypes="cc" />
    <circle
       style="fill:none;stroke:#ff0000;stroke-width:0.264999"
       id="circle6857"
       cx="211.9834"
       cy="159.50038"
       r="5" />
    <path
       id="path6960"
       style="fill:none;stroke:#ff0000;stroke-width:0.264999"
       d="m 216.98339,99.500392 c 0,2.761418 -2.23857,4.999998 -5,4.999998 -2.76142,0 -5,-2.23858 -5,-4.999998 0,-2.76142 2.23858,-5 5,-5 2.76143,0 5,2.23858 5,5 z"
       sodipodi:nodetypes="sssss" />
  </g>
</svg>
