<?xml version="1.0" encoding="UTF-8" standalone="no"?>
<!-- Created with Inkscape (http://www.inkscape.org/) -->

<svg
   width="210mm"
   height="297mm"
   viewBox="0 0 210 297"
   version="1.1"
   id="svg903"
   sodipodi:docname="Gear.svg"
   inkscape:version="1.1.2 (b8e25be833, 2022-02-05)"
   xmlns:inkscape="http://www.inkscape.org/namespaces/inkscape"
   xmlns:sodipodi="http://sodipodi.sourceforge.net/DTD/sodipodi-0.dtd"
   xmlns="http://www.w3.org/2000/svg"
   xmlns:svg="http://www.w3.org/2000/svg">
  <sodipodi:namedview
     id="namedview905"
     pagecolor="#ffffff"
     bordercolor="#666666"
     borderopacity="1.0"
     inkscape:pageshadow="2"
     inkscape:pageopacity="0.0"
     inkscape:pagecheckerboard="0"
     inkscape:document-units="mm"
     showgrid="false"
     inkscape:zoom="1.6277344"
     inkscape:cx="455.54115"
     inkscape:cy="563.05254"
     inkscape:window-width="1920"
     inkscape:window-height="1009"
     inkscape:window-x="-8"
     inkscape:window-y="-8"
     inkscape:window-maximized="1"
     inkscape:current-layer="layer1"
     inkscape:snap-intersection-paths="true"
     inkscape:object-paths="true"
     inkscape:snap-smooth-nodes="true"
     inkscape:snap-bbox="false" />
  <defs
     id="defs900" />
  <g
     inkscape:label="Layer 1"
     inkscape:groupmode="layer"
     id="layer1">
    <path
       id="path1065"
       style="fill:#ae7100;fill-opacity:1;stroke:#000000;stroke-width:0.755906;stroke-miterlimit:4;stroke-dasharray:none"
       d="m 389.52734,444.36914 -4.58203,0.20508 -2.22461,6.30078 -0.92773,6.23047 -6.02539,0.81641 -2.55469,-5.75782 -3.82031,-5.48242 -4.4707,1.02148 -1.0625,6.59571 0.19726,6.29492 -5.7832,1.87891 -3.53906,-5.20899 -4.73829,-4.71094 -4.21679,1.80079 0.13281,6.68164 1.31836,6.1582 -5.35547,2.88281 -4.41211,-4.49414 -5.50391,-3.79101 -3.82617,2.52734 1.32227,6.54883 2.39648,5.82422 -4.7539,3.79101 -5.14454,-3.63281 -6.09179,-2.74609 -3.31445,3.16796 2.4707,6.20899 3.39844,5.30273 -4,4.57813 -5.71094,-2.65625 -6.48438,-1.61524 -2.69531,3.71094 3.54102,5.66797 4.29101,4.60937 -3.11914,5.22071 -6.09375,-1.59375 -6.66797,-0.43164 -1.99023,4.13086 4.49414,4.94531 5.04687,3.76953 -2.13672,5.69336 -6.28124,-0.48047 -6.63672,0.76758 -1.22071,4.41992 5.30469,4.0625 5.63867,2.80859 -1.08593,5.98243 -6.26563,0.64843 -6.39453,1.93946 -0.41016,4.56836 5.94532,3.04882 6.04882,1.75782 v 6.08008 l -6.04882,1.75781 -5.94532,3.04883 0.41016,4.5664 6.39453,1.93946 6.26563,0.65039 1.08593,5.98242 -5.63867,2.80859 -5.30469,4.0625 1.22071,4.41992 6.63672,0.76563 6.28124,-0.47852 2.13672,5.69141 -5.04687,3.77148 -4.49414,4.94336 1.99023,4.13282 6.66797,-0.43164 6.09375,-1.59376 3.11914,5.21876 -4.29101,4.61132 -3.54102,5.66797 2.69531,3.70899 6.48438,-1.61524 5.71094,-2.65625 4,4.58008 -3.39844,5.30273 -2.4707,6.20899 3.31445,3.16797 6.09179,-2.7461 5.14454,-3.63476 4.7539,3.79101 -2.39648,5.82422 -1.32227,6.55078 3.82617,2.52735 5.50391,-3.79102 4.41211,-4.49414 5.35547,2.88086 -1.31836,6.16016 -0.13281,6.67968 4.21679,1.80274 4.73829,-4.71289 3.53906,-5.20899 5.7832,1.87891 -0.19726,6.29687 1.0625,6.59571 4.4707,1.02148 3.82031,-5.48242 2.55469,-5.75781 6.02539,0.8164 0.92773,6.22852 2.22461,6.30078 4.58203,0.20703 2.7793,-6.07617 1.48438,-6.12305 6.07421,-0.27148 2.02735,5.96289 3.3125,5.80273 4.54492,-0.61523 1.65039,-6.47461 0.36719,-6.28906 5.92773,-1.35156 3.0586,5.50585 4.29687,5.11719 4.36133,-1.41797 0.4668,-6.66601 -0.76172,-6.25195 5.59179,-2.38868 3.99219,4.8711 5.14258,4.26758 4.03711,-2.17188 -0.73047,-6.64258 -1.86523,-6.01562 5.07422,-3.34961 4.79882,4.07812 5.82032,3.28321 3.58593,-2.85938 -1.90429,-6.4043 -2.91016,-5.58593 4.39453,-4.20313 5.45117,3.1582 6.3125,2.18946 3.01758,-3.45313 -3.01758,-5.96289 -3.86132,-4.97656 3.57421,-4.91797 5.92579,2.13281 6.60351,1.02735 2.35156,-3.9375 -4.0332,-5.32617 -4.6875,-4.20704 2.63867,-5.47851 6.21289,1.04101 6.67969,-0.16796 1.61133,-4.29297 -4.91992,-4.52344 -5.36329,-3.30274 1.61719,-5.86132 6.29883,-0.084 6.54102,-1.35742 0.82031,-4.51367 -5.64844,-3.57031 -5.86719,-2.29102 0.54493,-6.05664 6.18164,-1.20703 6.19531,-2.50586 v -4.58594 l -6.19531,-2.50391 -6.18164,-1.20703 -0.54493,-6.05664 5.86719,-2.29297 5.64844,-3.57031 -0.82031,-4.51172 -6.54102,-1.35742 -6.29883,-0.0859 -1.61719,-5.86132 5.36329,-3.30274 4.91992,-4.52148 -1.61133,-4.29297 -6.67969,-0.16797 -6.21289,1.04101 -2.63867,-5.47851 4.6875,-4.20703 4.0332,-5.32813 -2.35156,-3.93554 -6.60351,1.02734 -5.92579,2.13281 -3.57421,-4.91992 3.86132,-4.97656 3.01758,-5.96094 -3.01758,-3.45312 -6.3125,2.18945 -5.45117,3.1582 -4.39453,-4.20312 2.91016,-5.58594 1.90429,-6.4043 -3.58593,-2.85937 -5.82032,3.28125 -4.79882,4.08008 -5.07422,-3.34961 1.86523,-6.01563 0.73047,-6.64258 -4.03711,-2.17187 -5.14258,4.26758 -3.99219,4.87109 -5.59179,-2.39063 0.76172,-6.25195 -0.4668,-6.66601 -4.36133,-1.41602 -4.29687,5.11719 -3.0586,5.50586 -5.92773,-1.35352 -0.36719,-6.28711 -1.65039,-6.47461 -4.54492,-0.61523 -3.3125,5.80078 -2.02735,5.96484 -6.07421,-0.27343 -1.48438,-6.1211 z m -2.77539,22.73633 v 18.01367 l -4.94726,4.94531 v 0.19727 a 68.031494,68.031494 0 0 0 -29.26367,12.22266 l -0.21094,-0.21094 h -6.99414 l -12.78321,-12.78516 a 90.708659,90.708659 0 0 1 54.19922,-22.38281 z m 11.33985,0.0176 a 90.708659,90.708659 0 0 1 54.09375,22.4707 l -12.67969,12.67969 -6.99414,-0.002 -0.30664,0.30664 a 68.031494,68.031494 0 0 0 -29.16797,-12.29687 v -0.2168 l -4.94531,-4.94531 z m -73.56641,30.375 12.79297,12.79297 -0.002,6.99609 0.1914,0.19141 a 68.031494,68.031494 0 0 0 -12.30469,29.28125 h -0.0937 l -4.94532,4.94531 h -18.11914 a 90.708659,90.708659 0 0 1 22.48047,-54.20703 z m 135.66992,0.12304 a 90.708659,90.708659 0 0 1 22.37305,54.08399 h -17.89063 l -4.94531,-4.94531 h -0.32226 a 68.031494,68.031494 0 0 0 -12.21289,-29.14844 l 0.32617,-0.32617 v -6.99219 z m -78.30664,7.88672 4.86328,4.86133 v 17.5 a 30.23622,30.23622 0 0 0 -11.22461,4.59375 l -12.33593,-12.33594 v -6.89648 a 52.913383,52.913383 0 0 1 18.69726,-7.72266 z m 21.01172,0.0527 a 52.913383,52.913383 0 0 1 18.75,7.79297 v 6.77539 l -12.30469,12.30664 a 30.23622,30.23622 0 0 0 -11.2539,-4.72852 v -17.33789 z m -47.72656,22.58593 12.32031,12.32032 a 30.23622,30.23622 0 0 0 -4.67773,11.23828 h -17.40235 l -4.92187,-4.92188 a 52.913383,52.913383 0 0 1 7.72656,-18.63476 z m 74.49609,0 h 6.72266 a 52.913383,52.913383 0 0 1 7.78125,18.8125 l -4.7461,4.7461 H 422 a 30.23622,30.23622 0 0 0 -4.6582,-11.23047 z m -37.36328,19.63086 a 9.5980269,9.5980269 0 0 1 9.59766,9.59766 9.5980269,9.5980269 0 0 1 -9.59766,9.59961 9.5980269,9.5980269 0 0 1 -9.59766,-9.59961 9.5980269,9.5980269 0 0 1 9.59766,-9.59766 z m -90.26172,15.26758 h 18.11914 l 4.94532,4.94727 h 0.0937 a 68.031494,68.031494 0 0 0 12.30665,29.28125 l -0.19336,0.19336 0.002,6.99414 -12.79297,12.79297 a 90.708659,90.708659 0 0 1 -22.48047,-54.20899 z m 43.36914,0 h 17.40235 a 30.23622,30.23622 0 0 0 4.67773,11.24024 l -12.32031,12.32226 -6.95313,-0.002 a 52.913383,52.913383 0 0 1 -7.72851,-18.63672 z m 76.58594,0 h 17.42773 l 4.73633,4.73828 a 52.913383,52.913383 0 0 1 -7.77539,18.82227 h -6.71875 L 417.33984,574.27539 A 30.23622,30.23622 0 0 0 422,563.04492 Z m 42.67773,0 h 18.14258 a 90.708659,90.708659 0 0 1 -22.45508,54.25586 l -12.83984,-12.83984 v -6.99414 l -0.32812,-0.32813 a 68.031494,68.031494 0 0 0 12.21289,-29.14648 h 0.32226 z m -89.14843,19.24219 a 30.23622,30.23622 0 0 0 11.22265,4.59375 v 17.50195 l -4.86133,4.85938 a 52.913383,52.913383 0 0 1 -18.69921,-7.71875 V 594.625 Z m 33.81445,0.0293 12.30859,12.30859 -0.002,6.75195 a 52.913383,52.913383 0 0 1 -18.74414,7.82032 l -4.81445,-4.81446 v -17.33984 a 30.23622,30.23622 0 0 0 11.25195,-4.72656 z m 22.86133,29.85742 0.30664,0.30664 6.99414,-0.002 12.8457,12.8457 a 90.708659,90.708659 0 0 1 -54.25976,22.55664 v -18.24609 l 4.94531,-4.94532 v -0.2207 a 68.031494,68.031494 0 0 0 29.16797,-12.29492 z m -79.66211,0.0937 a 68.031494,68.031494 0 0 0 29.26172,12.2207 v 0.20117 l 4.94726,4.94532 v 18.01171 a 90.708659,90.708659 0 0 1 -54.19922,-22.38281 l 12.78321,-12.7832 h 6.99414 z"
       transform="scale(0.26458333)" />
  </g>
</svg>
