<?xml version="1.0" encoding="UTF-8" standalone="no"?>
<!-- Created with Inkscape (http://www.inkscape.org/) -->

<svg
   sodipodi:docname="Laser_File_5mm_Beachwood.svg"
   inkscape:version="1.1.2 (b8e25be833, 2022-02-05)"
   id="svg5"
   version="1.1"
   viewBox="0 0 400 400"
   height="400mm"
   width="400mm"
   xmlns:inkscape="http://www.inkscape.org/namespaces/inkscape"
   xmlns:sodipodi="http://sodipodi.sourceforge.net/DTD/sodipodi-0.dtd"
   xmlns="http://www.w3.org/2000/svg"
   xmlns:svg="http://www.w3.org/2000/svg">
  <sodipodi:namedview
     id="namedview7"
     pagecolor="#ffffff"
     bordercolor="#666666"
     borderopacity="1.0"
     inkscape:pageshadow="2"
     inkscape:pageopacity="0.0"
     inkscape:pagecheckerboard="0"
     inkscape:document-units="mm"
     showgrid="false"
     inkscape:zoom="0.70710678"
     inkscape:cx="627.20371"
     inkscape:cy="572.04938"
     inkscape:window-width="1920"
     inkscape:window-height="1009"
     inkscape:window-x="-8"
     inkscape:window-y="-8"
     inkscape:window-maximized="1"
     inkscape:current-layer="svg5"
     inkscape:snap-smooth-nodes="true"
     inkscape:snap-intersection-paths="true"
     inkscape:snap-global="true"
     inkscape:snap-center="true"
     inkscape:snap-bbox="false"
     inkscape:object-paths="true"
     inkscape:lockguides="true" />
  <defs
     id="defs2">
    <rect
       x="253.32828"
       y="97.433952"
       width="753.48926"
       height="126.66414"
       id="rect3724" />
  </defs>
  <text
     xml:space="preserve"
     transform="matrix(0.26458333,0,0,0.26458333,-21.584279,17.639035)"
     id="text3722"
     style="font-size:68.0315px;line-height:1.25;font-family:Tool;-inkscape-font-specification:Tool;white-space:pre;shape-inside:url(#rect3724);display:inline"><tspan
       x="253.32812"
       y="158.71327"
       id="tspan21181"><tspan
         style="font-family:Arial;-inkscape-font-specification:Arial"
         id="tspan21179">5mm Beachwood</tspan></tspan></text>
  <path
     id="path36256"
     style="display:inline;fill:#d29200;fill-opacity:1;stroke:#ffff00;stroke-width:0.3;stroke-miterlimit:6;stroke-dasharray:none;stroke-opacity:1"
     inkscape:transform-center-x="7.31207"
     inkscape:transform-center-y="-27.874105"
     d="m 175.8631,68.034504 c -0.65448,0.003 -1.30872,0.0265 -1.96164,0.0718 v 1.49912 c -0.58735,0.0414 -1.17369,0.10094 -1.75803,0.17622 -0.58457,0.0735 -1.16654,0.16756 -1.7446,0.27956 l -0.3886,-1.44952 c -0.64209,0.12742 -1.27968,0.27582 -1.91203,0.44495 -0.63139,0.17227 -1.25739,0.36446 -1.87637,0.57721 l 0.38809,1.44799 c -0.55661,0.19198 -1.10718,0.40145 -1.6521,0.62526 -0.54561,0.22212 -1.08345,0.4636 -1.61282,0.72141 l -0.75034,-1.29966 c -0.58723,0.28927 -1.16465,0.59799 -1.73168,0.92501 -0.56528,0.32983 -1.12011,0.67712 -1.66295,1.04283 l 0.74931,1.2981 c -0.48795,0.32954 -0.9657,0.67461 -1.43402,1.03198 -0.46942,0.35592 -0.92636,0.72813 -1.37097,1.11416 l -1.06092,-1.06093 c -0.49235,0.43141 -0.97044,0.8789 -1.4335,1.34152 -0.46066,0.46493 -0.90668,0.9439 -1.33636,1.43764 l 1.05989,1.0604 c -0.38604,0.44458 -0.75838,0.9009 -1.11828,1.36736 -0.36135,0.46533 -0.70605,0.94348 -1.0356,1.43145 l -1.29966,-0.75035 c -0.36392,0.54414 -0.71011,1.10037 -1.03766,1.66708 -0.32463,0.5683 -0.63104,1.14615 -0.91829,1.73427 l 1.29811,0.74983 c -0.25782,0.52935 -0.49948,1.06658 -0.72657,1.61022 -0.22878,0.54293 -0.43791,1.09392 -0.62994,1.65055 l -1.44952,-0.38809 c -0.21069,0.61979 -0.4008,1.24627 -0.57051,1.87844 -0.16649,0.63293 -0.31349,1.27116 -0.43873,1.91357 l 1.44797,0.38759 c -0.11203,0.57803 -0.20574,1.15964 -0.28422,1.74355 -0.0803,0.58364 -0.13996,1.17017 -0.18138,1.75752 h -1.50069 c -0.0431,0.65318 -0.0648,1.30757 -0.0651,1.96215 0.003,0.65447 0.0265,1.30871 0.0718,1.96165 h 1.49913 c 0.0414,0.587316 0.10091,1.173656 0.17622,1.758016 0.0735,0.58457 0.16756,1.16655 0.27957,1.74459 l -1.44952,0.38862 c 0.12742,0.64209 0.27581,1.27968 0.44493,1.91203 0.1723,0.63138 0.36449,1.25738 0.57723,1.87638 l 1.44797,-0.3881 c 0.192,0.55661 0.40148,1.10715 0.62528,1.65209 0.22211,0.54562 0.46361,1.08347 0.72141,1.61282 l -1.29966,0.75033 c 0.28925,0.58724 0.59798,1.16467 0.925,1.7317 0.32985,0.56528 0.67713,1.12011 1.04284,1.66293 l 1.29811,-0.7493 c 0.32952,0.48795 0.67459,0.96568 1.03198,1.43402 0.3559,0.46942 0.72812,0.92638 1.11414,1.37096 l -1.06092,1.06093 c 0.43139,0.49234 0.87889,0.97044 1.34152,1.43351 0.46492,0.46064 0.94391,0.90668 1.43764,1.33636 l 1.0604,-1.0599 c 0.44458,0.38606 0.90091,0.75838 1.36736,1.11829 0.46532,0.36134 0.9435,0.70604 1.43143,1.03558 l -0.75033,1.29966 c 0.54411,0.36394 1.09984,0.71012 1.66656,1.03767 0.5683,0.32464 1.14667,0.63106 1.73478,0.91829 l 0.74982,-1.2981 c 0.52935,0.25781 1.0666,0.49946 1.61024,0.72657 0.54292,0.22879 1.09393,0.43792 1.65055,0.62992 l -0.3881,1.44952 c 0.61977,0.21069 1.24625,0.40082 1.87844,0.57052 0.63296,0.16648 1.27117,0.31348 1.91358,0.43874 l 0.38758,-1.44799 c 0.57803,0.11205 1.15965,0.20574 1.74356,0.28422 0.58365,0.0803 1.17017,0.13999 1.75751,0.1814 v 1.50069 c 0.65318,0.0431 1.30758,0.0648 1.96216,0.0651 0.65448,-0.003 1.3087,-0.0265 1.96164,-0.0718 v -1.49912 c 0.58733,-0.0414 1.17368,-0.10094 1.75803,-0.17624 0.58458,-0.0735 1.16656,-0.16754 1.74459,-0.27956 l 0.3886,1.44952 c 0.64209,-0.12743 1.27968,-0.2758 1.91203,-0.44493 0.63141,-0.17229 1.25741,-0.36449 1.87638,-0.57724 l -0.38809,-1.44796 c 0.55663,-0.192 1.10717,-0.40147 1.65211,-0.62529 0.54562,-0.22209 1.08347,-0.4636 1.61282,-0.72141 l 0.75033,1.29969 c 0.58722,-0.28927 1.16464,-0.59799 1.73167,-0.92501 0.56528,-0.32986 1.12014,-0.67715 1.66296,-1.04283 l -0.74933,-1.29813 c 0.48797,-0.32953 0.96571,-0.6746 1.43405,-1.03198 0.46942,-0.35591 0.92585,-0.72813 1.37043,-1.11413 l 1.06146,1.0609 c 0.49231,-0.43138 0.97041,-0.87887 1.43348,-1.34152 0.46067,-0.4649 0.9067,-0.9439 1.33636,-1.43764 l -1.05987,-1.06039 c 0.38603,-0.44458 0.75835,-0.90091 1.11826,-1.36734 0.36137,-0.46533 0.70607,-0.94351 1.03561,-1.43145 l 1.29966,0.75033 c 0.36391,-0.54409 0.70959,-1.09982 1.03714,-1.66656 0.32464,-0.5683 0.63159,-1.14668 0.91882,-1.73477 l -1.29813,-0.74983 c 0.25784,-0.52935 0.49948,-1.06661 0.72657,-1.61025 0.22879,-0.5429 0.43794,-1.09392 0.62995,-1.65052 l 1.44952,0.38809 c 0.21069,-0.61976 0.40079,-1.24624 0.5705,-1.87844 0.1665,-0.63296 0.3135,-1.27069 0.43873,-1.91307 l -1.44849,-0.38809 c 0.11205,-0.57806 0.20627,-1.15967 0.28474,-1.74358 0.0803,-0.58364 0.14,-1.17017 0.1814,-1.757486 h 1.50067 c 0.0431,-0.65318 0.0648,-1.30757 0.0651,-1.96218 -0.003,-0.65447 -0.0265,-1.30871 -0.0718,-1.96162 h -1.49913 c -0.0414,-0.58735 -0.10092,-1.17369 -0.17622,-1.75802 -0.0735,-0.5846 -0.16756,-1.16658 -0.27955,-1.74461 l 1.44899,-0.3886 c -0.1274,-0.64209 -0.27581,-1.27965 -0.44493,-1.91203 -0.17229,-0.63141 -0.36396,-1.25744 -0.57671,-1.87638 l -1.44798,0.3881 c -0.19199,-0.55664 -0.40146,-1.10718 -0.62527,-1.65212 -0.22209,-0.54559 -0.4636,-1.08346 -0.72141,-1.61282 l 1.29966,-0.75033 c -0.28924,-0.58721 -0.59796,-1.16461 -0.92501,-1.73167 -0.32983,-0.56528 -0.67715,-1.12014 -1.04283,-1.66296 l -1.2981,0.74933 c -0.32954,-0.48797 -0.67461,-0.96571 -1.03198,-1.43404 -0.35592,-0.46943 -0.72813,-0.92586 -1.11416,-1.37044 l 1.06093,-1.06146 c -0.43138,-0.49231 -0.87887,-0.97041 -1.34152,-1.43348 -0.46493,-0.46067 -0.94393,-0.9067 -1.43764,-1.33636 l -1.0604,1.05987 c -0.4446,-0.38603 -0.9009,-0.75838 -1.36736,-1.11826 -0.4653,-0.36137 -0.94348,-0.70607 -1.43145,-1.03561 l 0.75036,-1.29966 c -0.54412,-0.36391 -1.10033,-0.70958 -1.66709,-1.03714 -0.5683,-0.32464 -1.14618,-0.63158 -1.73427,-0.91882 l -0.74982,1.29813 c -0.52936,-0.25784 -1.06659,-0.49898 -1.61023,-0.72607 -0.54293,-0.22879 -1.09392,-0.43844 -1.65055,-0.63045 l 0.38809,-1.44952 c -0.61976,-0.21069 -1.24622,-0.40079 -1.87844,-0.57049 -0.63296,-0.16651 -1.27119,-0.31301 -1.91357,-0.43823 l -0.38759,1.44798 c -0.57803,-0.11202 -1.16018,-0.20627 -1.74407,-0.28474 -0.58365,-0.0803 -1.16965,-0.13999 -1.75699,-0.1814 v -1.50067 c -0.65318,-0.0431 -1.30757,-0.0648 -1.96216,-0.0651 z m 16.61708,9.91878 3.46437,3.4649 -3.46437,3.46438 -3.46491,-3.46491 z m -36.56677,17.63146 h 4.89945 v 4.900476 h -4.89996 z m 34.99943,0 h 4.89942 v 4.900476 h -4.89995 z m -15.05026,0.4005 a 2.0499999,2.0499999 0 0 1 2.05001,2.04949 2.0499999,2.0499999 0 0 1 -2.05001,2.049986 2.0499999,2.0499999 0 0 1 -2.05,-2.049986 2.0499999,2.0499999 0 0 1 2.05,-2.04949 z m -16.61655,15.201656 3.46438,3.46491 -3.46438,3.4649 -3.46439,-3.46543 z m 32.88016,1.06196 c 0.52464,0 1.04923,0.19968 1.44952,0.59994 0.80058,0.80058 0.80058,2.099 0,2.89957 -4.69778,4.69779 -11.06948,7.33703 -17.71313,7.33703 -1.13217,0 -2.05,-0.91781 -2.05,-2.05002 0,-1.13217 0.91782,-2.04999 2.05,-2.04999 5.55629,0 10.88519,-2.20768 14.81409,-6.13659 0.40029,-0.40026 0.92488,-0.59994 1.44952,-0.59994 z" />
  <g
     id="g16940"
     inkscape:groupmode="layer"
     inkscape:label="Pin Right">
    <path
       id="path25504"
       style="display:inline;fill:#d29200;fill-opacity:1;stroke:#ffff00;stroke-width:0.264583;stroke-miterlimit:10;stroke-opacity:1"
       d="m 125.41354,106.07758 4.99969,-9.999913 h -4.99969 -30.000242 v 9.999913 z m -4.99969,-2.50012 h -5.00021 v -4.999693 h 5.00021 z"
       sodipodi:nodetypes="ccccccccccc"
       inkscape:label="Pin Right" />
  </g>
  <g
     id="g16937"
     inkscape:groupmode="layer"
     inkscape:label="Pin Left">
    <path
       id="path26656"
       style="display:inline;fill:#d29200;fill-opacity:1;stroke:#ffff00;stroke-width:0.264583;stroke-miterlimit:10;stroke-opacity:1"
       d="m 95.413298,85.019417 v 9.99991 h 30.000242 4.99969 l -4.99969,-9.99991 z m 20.000332,2.50012 h 5.00021 v 4.99969 h -5.00021 z"
       sodipodi:nodetypes="ccccccccccc"
       inkscape:label="Pin Left" />
  </g>
  <g
     inkscape:groupmode="layer"
     id="layer1"
     inkscape:label="Short Lever Left">
    <path
       id="path18799"
       style="display:inline;fill:#d29200;fill-opacity:1;stroke:#ffff00;stroke-width:0.3;stroke-linecap:butt;stroke-linejoin:miter;stroke-miterlimit:4;stroke-dasharray:none;stroke-opacity:1"
       d="m 88.860795,193.48481 c -0.706141,0.88715 -1.095708,1.98583 -1.100709,3.11971 1.7e-4,2.76138 2.238823,4.99981 5.000213,4.99969 1.516589,-0.005 2.948865,-0.69888 3.898984,-1.88102 l 18.503777,-23.119 h 13.59711 v 10.00047 c 0,2.76142 2.23879,4.9997 5.00021,4.9997 2.76142,0 4.99969,-2.23828 4.99969,-4.9997 l 5.3e-4,-15.00063 c 0,-2.76142 -2.23879,-5.00021 -5.00021,-5.00021 l -20.99986,-1.2e-4 c -1.51836,0.001 -2.9538,0.69272 -3.90157,1.87895 z m 44.900005,-8.88066 c 1.10467,7e-5 2.0001,0.89572 1.99988,2.00039 -7e-5,1.10448 -0.8954,1.99981 -1.99988,1.99988 -1.10448,-7e-5 -1.99981,-0.8954 -1.99988,-1.99988 -2.2e-4,-1.10467 0.89521,-2.00032 1.99988,-2.00039 z m -41.000081,9.9999 c 1.104475,7e-5 1.999811,0.89541 1.999877,1.99988 -6.6e-5,1.10447 -0.895402,1.99981 -1.999877,1.99988 -1.104475,-7e-5 -1.999813,-0.8954 -1.999879,-1.99988 6.6e-5,-1.10448 0.895404,-1.99981 1.999879,-1.99988 z"
       inkscape:transform-center-x="20.500002"
       inkscape:transform-center-y="-2.5004056"
       sodipodi:nodetypes="ccccccsscccccccccccccccc" />
    <path
       id="path66640"
       style="display:inline;fill:#8f5200;fill-opacity:1;stroke:#000000;stroke-width:0.3;stroke-linecap:butt;stroke-linejoin:miter;stroke-miterlimit:4;stroke-dasharray:none;stroke-opacity:1"
       d="m 108.85896,168.48265 -0.003,-0.002 m 0,0 -19.885095,24.8667 c 0.94882,-1.10549 2.332602,-1.74218 3.789434,-1.74356 0.251356,0.002 0.50218,0.0236 0.750339,0.0636 l 13.221422,-16.51062 c 0.87012,1.4773 2.25216,2.58389 3.88399,3.10989 l -13.20436,16.52199 c 0.227921,0.57822 0.346039,1.19387 0.3483,1.81539 -0.0011,1.07118 -0.346194,2.1137 -0.984433,2.97398 l 18.387503,-22.97379 h 13.59711 v 10.00047 c 0.0217,-1.76447 0.97182,-3.38685 2.5001,-4.26899 v -4.19509 c 0.79808,0.30585 1.64543,0.46295 2.50011,0.46354 0.85451,-6.5e-4 1.70167,-0.15776 2.49959,-0.46354 v 4.1336 c 1.54715,0.89321 2.5002,2.54401 2.5001,4.33048 l 5.3e-4,-15.00063 m -5e-4,0 c 1e-4,2.76138 -2.23832,5.00003 -4.9997,5.00021 -2.76158,1e-4 -5.00031,-2.23863 -5.00021,-5.00021 1.8e-4,-2.76138 2.23883,-4.9998 5.00021,-4.9997 1.05523,7e-5 2.08339,0.33398 2.93729,0.95395 -0.8248,-0.5999 -1.83942,-0.95446 -2.93729,-0.95446 l -20.99987,9e-5 c 2.76138,1.6e-4 5.00003,2.23858 5.00021,4.99996 1e-4,2.76158 -2.23863,5.00031 -5.00021,5.00021 -2.76158,1e-4 -5.00031,-2.23863 -5.00021,-5.00021 0.001,-1.17107 0.36682,-2.2389 1.09564,-3.12326 m 3.90457,0.62367 c -1.3806,-6e-5 -2.49988,1.119 -2.50011,2.49959 -6e-5,1.38079 1.11932,2.50016 2.50011,2.5001 1.38079,6e-5 2.50016,-1.11931 2.50011,-2.5001 -2.3e-4,-1.38059 -1.11952,-2.49965 -2.50011,-2.49959 z m 6.5381,0 h 7.92562 c -0.30578,0.79792 -0.46289,1.64508 -0.46354,2.49959 5.9e-4,0.85468 0.1577,1.70202 0.46354,2.5001 h -7.92769 c 0.30602,-0.79805 0.4633,-1.64539 0.46406,-2.5001 -1.6e-4,-0.85441 -0.15674,-1.70157 -0.46199,-2.49959 z m 14.46217,0 c -1.38059,-6e-5 -2.49988,1.119 -2.50011,2.49959 -6e-5,1.38079 1.11932,2.50016 2.50011,2.5001 1.38079,6e-5 2.50016,-1.11931 2.5001,-2.5001 -2.3e-4,-1.38059 -1.11951,-2.49965 -2.5001,-2.49959 z"
       inkscape:transform-center-x="20.488602"
       inkscape:transform-center-y="-2.5117496"
       sodipodi:nodetypes="ccccccccccccccccccccccccscccccccccccccccccccccccc" />
  </g>
  <g
     inkscape:groupmode="layer"
     id="g16673"
     inkscape:label="Short Lever Right">
    <path
       id="path16669"
       style="display:inline;fill:#d29200;fill-opacity:1;stroke:#ffff00;stroke-width:0.3;stroke-linecap:butt;stroke-linejoin:miter;stroke-miterlimit:4;stroke-dasharray:none;stroke-opacity:1"
       d="m 277.34947,197.45356 c 0.70615,0.88715 1.09571,1.98583 1.10071,3.11971 -1.7e-4,2.76138 -2.23882,4.99981 -5.00021,4.99969 -1.51659,-0.005 -2.94886,-0.69888 -3.89898,-1.88102 l -18.50378,-23.119 H 237.4501 v 10.00047 c 0,2.76142 -2.23879,4.9997 -5.00021,4.9997 -2.76142,0 -4.99969,-2.23828 -4.99969,-4.9997 l -5.3e-4,-15.00063 c 0,-2.76142 2.23879,-5.00021 5.00021,-5.00021 l 20.99986,-1.2e-4 c 1.51836,0.001 2.9538,0.69272 3.90157,1.87895 z m -44.9,-8.88066 c -1.10467,7e-5 -2.0001,0.89572 -1.99988,2.00039 7e-5,1.10448 0.8954,1.99981 1.99988,1.99988 1.10448,-7e-5 1.99981,-0.8954 1.99988,-1.99988 2.2e-4,-1.10467 -0.89521,-2.00032 -1.99988,-2.00039 z m 41.00008,9.9999 c -1.10447,7e-5 -1.99981,0.89541 -1.99988,1.99988 7e-5,1.10447 0.89541,1.99981 1.99988,1.99988 1.10448,-7e-5 1.99981,-0.8954 1.99988,-1.99988 -7e-5,-1.10448 -0.8954,-1.99981 -1.99988,-1.99988 z"
       inkscape:transform-center-x="-20.499998"
       inkscape:transform-center-y="-2.5004056"
       sodipodi:nodetypes="ccccccsscccccccccccccccc" />
    <path
       id="path16671"
       style="display:inline;fill:#8f5200;fill-opacity:1;stroke:#000000;stroke-width:0.3;stroke-linecap:butt;stroke-linejoin:miter;stroke-miterlimit:4;stroke-dasharray:none;stroke-opacity:1"
       d="m 257.35131,172.4514 0.003,-0.002 m 0,0 19.8851,24.8667 c -0.94882,-1.10549 -2.33261,-1.74218 -3.78944,-1.74356 -0.25135,0.002 -0.50218,0.0236 -0.75034,0.0636 l -13.22142,-16.51062 c -0.87012,1.4773 -2.25216,2.58389 -3.88399,3.10989 l 13.20436,16.52199 c -0.22792,0.57822 -0.34604,1.19387 -0.3483,1.81539 10e-4,1.07118 0.34619,2.1137 0.98443,2.97398 l -18.3875,-22.97379 H 237.4501 v 10.00047 c -0.0217,-1.76447 -0.97182,-3.38685 -2.5001,-4.26899 v -4.19509 c -0.79808,0.30585 -1.64543,0.46295 -2.50011,0.46354 -0.85451,-6.5e-4 -1.70167,-0.15776 -2.49959,-0.46354 v 4.1336 c -1.54715,0.89321 -2.5002,2.54401 -2.5001,4.33048 l -5.3e-4,-15.00063 m 5e-4,0 c -1e-4,2.76138 2.23832,5.00003 4.9997,5.00021 2.76158,1e-4 5.00031,-2.23863 5.00021,-5.00021 -1.8e-4,-2.76138 -2.23883,-4.9998 -5.00021,-4.9997 -1.05523,7e-5 -2.08339,0.33398 -2.93729,0.95395 0.8248,-0.5999 1.83942,-0.95446 2.93729,-0.95446 l 20.99987,9e-5 c -2.76138,1.6e-4 -5.00003,2.23858 -5.00021,4.99996 -1e-4,2.76158 2.23863,5.00031 5.00021,5.00021 2.76158,1e-4 5.00031,-2.23863 5.00021,-5.00021 -10e-4,-1.17107 -0.36682,-2.2389 -1.09564,-3.12326 m -3.90457,0.62367 c 1.3806,-6e-5 2.49988,1.119 2.50011,2.49959 6e-5,1.38079 -1.11932,2.50016 -2.50011,2.5001 -1.38079,6e-5 -2.50017,-1.11931 -2.50011,-2.5001 2.3e-4,-1.38059 1.11952,-2.49965 2.50011,-2.49959 z m -6.5381,0 h -7.92562 c 0.30578,0.79792 0.46289,1.64508 0.46354,2.49959 -5.9e-4,0.85468 -0.1577,1.70202 -0.46354,2.5001 h 7.92769 c -0.30602,-0.79805 -0.4633,-1.64539 -0.46406,-2.5001 1.6e-4,-0.85441 0.15674,-1.70157 0.46199,-2.49959 z m -14.46217,0 c 1.38059,-6e-5 2.49988,1.119 2.50011,2.49959 6e-5,1.38079 -1.11932,2.50016 -2.50011,2.5001 -1.38079,6e-5 -2.50016,-1.11931 -2.5001,-2.5001 2.3e-4,-1.38059 1.11951,-2.49965 2.5001,-2.49959 z"
       inkscape:transform-center-x="-20.488603"
       inkscape:transform-center-y="-2.5117496"
       sodipodi:nodetypes="ccccccccccccccccccccccccscccccccccccccccccccccccc" />
  </g>
  <g
     inkscape:groupmode="layer"
     id="layer2"
     inkscape:label="Long Lever Left">
    <path
       id="path25762"
       style="display:inline;fill:#d29200;fill-opacity:1;stroke:#ffff00;stroke-width:0.365001;stroke-linecap:butt;stroke-linejoin:miter;stroke-miterlimit:4;stroke-dasharray:none;stroke-opacity:1"
       d="m 40.516972,150.10043 c -0.904825,0.90483 -1.464566,2.15497 -1.464553,3.53569 -1e-5,2.76143 2.238436,4.99987 4.999867,4.99986 l 13.245292,1e-5 0.577346,0.86382 -0.545519,0.4345 -0.407795,0.52985 -0.553592,1.41375 0.633985,0.63399 1.413759,-0.55359 0.530195,-0.40744 0.434079,-0.54595 1.304513,0.87187 -0.337643,0.61023 -0.173935,0.6453 0.0296,1.51827 0.828377,0.34312 1.094429,-1.05271 0.333613,-0.57918 0.192566,-0.67051 1.538736,0.30657 -0.07857,0.69245 0.0866,0.66322 0.608041,1.39073 0.897078,3.7e-4 0.607674,-1.3911 0.0866,-0.66322 -0.07857,-0.69245 1.539095,-0.30621 0.192213,0.67016 0.333606,0.57917 1.094432,1.05271 0.828375,-0.34311 0.0296,-1.51828 -0.173927,-0.64531 -0.337637,-0.61022 1.304499,-0.87187 0.434432,0.54559 0.529843,0.4078 1.413761,0.55359 0.633984,-0.63398 -0.553593,-1.41376 -0.407796,-0.52985 -0.545589,-0.43443 0.577345,-0.86382 21.738094,-10e-6 9.986838,5.01302 10.01301,-5.01302 h 21.68585 l -0.49659,1.3173 0.59123,0.59123 1.44591,-0.54482 0.38698,-0.31826 0.5134,-0.69025 1.23763,0.71437 0.0724,0.15932 -0.30037,0.69574 -0.0822,0.4944 0.2514,1.52447 0.80755,0.21633 0.42169,-0.51447 14.68866,32.31445 c 1.14267,2.51391 4.10691,3.62562 6.62082,2.48294 2.51391,-1.14267 3.62563,-4.10691 2.48295,-6.62082 l -15.43701,-33.96097 0.23274,0.1005 0.49513,0.0822 1.52411,-0.25104 0.21668,-0.80791 -1.19451,-0.97966 -0.46992,-0.17613 -0.85396,-0.0998 v -1.55957 l 0.85432,-0.0994 0.46919,-0.17613 1.19452,-0.97966 -0.21633,-0.80755 -1.52447,-0.2514 -0.4944,0.0822 -0.78964,0.34092 -0.77979,-1.35054 0.6899,-0.51304 0.31861,-0.38734 0.54483,-1.44592 -0.59123,-0.59123 -1.44592,0.54482 -0.38735,0.31861 -0.51303,0.6899 -1.35055,-0.77978 0.34092,-0.78964 0.0822,-0.49441 -0.25141,-1.52448 -0.80754,-0.21631 -0.97966,1.1945 -0.17613,0.4692 -0.0994,0.85431 -1.55956,1e-5 -0.0998,-0.85396 -0.17575,-0.46955 -0.97966,-1.19451 -0.80828,0.21631 -0.25103,1.52412 0.0822,0.49512 0.34129,0.78929 -1.35091,0.77941 -0.5134,-0.68952 -0.38735,-0.31862 -1.44519,-0.54482 -0.59159,0.59159 0.53422,1.41779 -21.72348,1.2e-4 -10.01298,-5.01296 -10.012936,5.01307 -21.697407,1.3e-4 -0.591961,-0.88575 0.545943,-0.43408 0.40744,-0.53019 0.553594,-1.41376 -0.633985,-0.63398 -1.413761,0.55359 -0.52984,0.40779 -0.434503,0.54552 -1.304506,-0.87187 0.338004,-0.60986 0.173571,-0.64567 -0.02924,-1.5179 -0.828744,-0.34349 -1.094422,1.05271 -0.33362,0.57917 -0.192567,0.67053 -1.538728,-0.30585 0.07856,-0.69318 -0.08624,-0.66285 -0.608402,-1.3911 -0.896703,-1e-5 -0.608409,1.39111 -0.08623,0.66285 0.07892,0.69281 -1.539096,0.30622 -0.192566,-0.67053 -0.33362,-0.57917 -1.093986,-1.05241 -0.829118,0.34312 -0.02923,1.51791 0.173934,0.6453 0.337636,0.61023 -1.304506,0.87187 -0.434432,-0.54559 -0.529842,-0.4078 -1.413761,-0.55359 -0.633985,0.63398 0.553594,1.41376 0.407795,0.52985 0.54559,0.43443 -0.591962,0.88575 H 44.05227 c -1.380718,-1e-5 -2.630493,0.55936 -3.535317,1.46418 z m 2.121186,2.12119 c 0.78103,-0.78093 2.04723,-0.78093 2.828255,0 0.78128,0.78097 0.781444,2.04745 3.7e-4,2.82862 -0.781173,0.78108 -2.047651,0.78091 -2.828624,-3.7e-4 -0.780932,-0.78102 -0.780934,-2.04722 -1e-6,-2.82825 z m 116.672802,38.89142 c 0.78103,-0.78093 2.04722,-0.78093 2.82826,0 0.78093,0.78104 0.78093,2.04723 0,2.82826 -0.78103,0.78093 -2.04723,0.78094 -2.82826,0 -0.78093,-0.78103 -0.78093,-2.04723 0,-2.82826 z"
       sodipodi:nodetypes="scccccccccccccccccccccccccccccccccccccccccccccccccccccccccccccscccccccccccccccccccccccccccccccccccccccccccccccccccccccccccccccccccccccccccccccccccccccccccccscccccccccc"
       inkscape:transform-center-x="58.335641"
       inkscape:transform-center-y="-23.010024" />
    <path
       id="path74581"
       style="fill:#8f5200;fill-opacity:1;stroke:#000000;stroke-width:0.365001"
       d="m 44.116598,148.63624 c 1.303651,0.0169 2.549149,0.54227 3.471004,1.46419 0.306814,0.30823 0.572198,0.65507 0.789287,1.03191 l 3.118015,-0.003 c -0.300619,1.65302 -0.301227,3.34664 -0.0018,4.99988 l -3.112907,0.003 c -0.217472,0.37957 -0.48382,0.72896 -0.792208,1.03922 -0.946444,0.94503 -2.232229,1.47121 -3.569664,1.46127 0.01138,-7e-5 0.02232,0.003 0.03401,0.003 h 10.159792 l -0.325949,-0.78709 1.052779,-1.09436 0.57917,-0.33362 0.670521,-0.19255 -0.306213,-1.53838 -0.692816,0.0782 -0.662849,-0.0862 -1.391105,-0.60841 v -0.89671 l 1.390744,-0.60803 0.663217,-0.0866 0.692809,0.0789 0.306213,-1.53909 -0.670521,-0.19258 -0.579177,-0.33361 -1.052345,-1.09406 0.316812,-0.76553 z m 11.975137,0 0.3011,0.0811 0.610226,0.33764 0.279887,-0.41877 z m 4.213147,0.0395 a 6.9999999,6.9999999 0 0 0 3.68e-4,9.89926 6.9999999,6.9999999 0 0 0 9.899254,3.7e-4 6.9999999,6.9999999 0 0 0 0,-9.89963 6.9999999,6.9999999 0 0 0 -9.899622,0 z m 2.828258,2.82826 a 3,3 0 0 1 4.243107,0 3,3 0 0 1 -3.61e-4,4.24275 3,3 0 0 1 -4.242386,0 3,3 0 0 1 -3.6e-4,-4.24275 z m -7.121959,7.13186 1.286235,1e-5 -0.294517,-0.44069 -0.609866,0.33801 z m 17.215081,-9.99974 0.279894,0.41877 0.610226,-0.33763 0.301093,-0.0811 z m 3.079653,0 0.317172,0.76517 -1.052774,1.09435 -0.579169,0.33362 -0.670522,0.19257 0.306213,1.5391 0.692809,-0.0789 0.663217,0.0866 1.390737,0.60804 3.75e-4,0.89707 -1.391473,0.60804 -0.662849,0.0862 -0.692455,-0.0786 -0.306213,1.5391 0.670168,0.19221 0.579162,0.33361 1.052783,1.09436 -0.325947,0.78709 h 18.65259 l 9.986951,5.01303 10.01254,-5.01302 21.68621,-1e-5 0.0483,-0.12859 0.31825,-0.38698 0.69026,-0.5134 -0.77978,-1.35054 -0.78964,0.34092 -0.49441,0.0822 -1.52448,-0.25141 -0.21632,-0.80755 1.19451,-0.97965 0.4692,-0.17613 0.85431,-0.0994 1e-5,-1.55956 -0.85433,-0.0994 -0.46918,-0.17613 -1.19451,-0.97965 0.21631,-0.80828 1.52412,-0.25104 0.49476,0.0826 0.78965,0.34093 0.77941,-1.35091 -0.68989,-0.51304 -0.31862,-0.38734 -0.0102,-0.0278 H 114.9496 l -10.0129,-5.01266 -10.013265,5.01302 z m 2.73069,2.49975 10.913267,10e-6 -4.97393,2.49354 4.993291,2.50632 H 79.036968 c 0.299891,-1.65315 0.299783,-3.34676 -3.63e-4,-4.99987 z m -5.530435,7.05931 -0.294524,0.44069 1.286969,-1e-5 -0.382219,-0.10304 z m 21.450146,-4.56248 9.980384,-5.00352 9.98037,5.0101 -9.98074,5.00316 z m 8.565884,-1.4112 a 2,2 0 0 0 3.7e-4,2.82861 2,2 0 0 0 2.82825,1e-5 2,2 0 0 0 0,-2.82826 2,2 0 0 0 -2.82862,-3.6e-4 z m 16.39474,-1.07905 h 12.42459 c -0.38289,1.64487 -0.38189,3.35582 0.003,5.00024 l -12.43372,-3.6e-4 4.98672,-2.49976 z m 19.64504,-1.09256 a 5,5 0 0 0 3.7e-4,7.07099 5,5 0 0 0 7.071,3.7e-4 5,5 0 0 0 0,-7.07136 5,5 0 0 0 -7.07137,0 z m 2.07114,2.17197 a 2,2 0 0 1 2.82862,-3.6e-4 2,2 0 0 1 -3.6e-4,2.82861 2,2 0 0 1 -2.82826,0 2,2 0 0 1 0,-2.82825 z m -1.31876,7.48391 0.072,0.15896 0.0406,-0.0939 z m 2.00353,0.57187 -0.0994,0.85431 -0.17614,0.46919 -0.55798,0.68003 14.68866,32.31445 0.0318,-0.0143 c -0.74153,-1.61624 -0.56888,-3.50471 0.45348,-4.95967 l -11.4559,-25.20253 c 1.65581,-0.3319 3.21296,-1.04058 4.55079,-2.07113 l 11.45589,25.20253 c 1.15341,0.11213 2.23205,0.62143 3.05152,1.4408 0.4152,0.42991 0.74997,0.93075 0.98843,1.47881 l 0.0277,-0.0125 -15.43701,-33.96097 -0.55615,-0.24044 -0.77978,1.35055 0.68953,0.5134 0.31861,0.38734 0.54482,1.4452 -0.59159,0.59159 -1.44556,-0.54446 -0.38734,-0.31861 -0.51304,-0.6899 -1.35054,0.77978 0.34056,0.78928 0.0826,0.49477 -0.25104,1.52411 -0.80791,0.21668 -0.97966,-1.19451 -0.17649,-0.46955 -0.0994,-0.85432 z"
       inkscape:transform-center-x="56.077431"
       inkscape:transform-center-y="-23.417675" />
  </g>
  <g
     inkscape:groupmode="layer"
     id="g16667"
     inkscape:label="Long Lever Right">
    <path
       id="path16663"
       style="display:inline;fill:#d29200;fill-opacity:1;stroke:#ffff00;stroke-width:0.365001;stroke-linecap:butt;stroke-linejoin:miter;stroke-miterlimit:4;stroke-dasharray:none;stroke-opacity:1"
       d="m 326.93129,153.80459 c 0.90482,0.90482 1.46456,2.15497 1.46455,3.53569 10e-6,2.76143 -2.23844,4.99987 -4.99987,4.99986 h -13.24529 l -0.57735,0.86383 0.54552,0.4345 0.4078,0.52984 0.55359,1.41376 -0.63399,0.63399 -1.41376,-0.5536 -0.53019,-0.40744 -0.43408,-0.54594 -1.30451,0.87186 0.33764,0.61023 0.17393,0.64531 -0.0296,1.51827 -0.82837,0.34312 -1.09443,-1.05271 -0.33362,-0.57918 -0.19256,-0.67052 -1.53874,0.30658 0.0786,0.69245 -0.0866,0.66321 -0.60804,1.39074 -0.89708,3.7e-4 -0.60767,-1.39111 -0.0866,-0.66321 0.0786,-0.69245 -1.53909,-0.30621 -0.19221,0.67016 -0.33361,0.57917 -1.09443,1.05271 -0.82838,-0.34312 -0.0296,-1.51827 0.17393,-0.64531 0.33764,-0.61023 -1.3045,-0.87186 -0.43443,0.54559 -0.52985,0.40779 -1.41376,0.5536 -0.63398,-0.63399 0.55359,-1.41376 0.4078,-0.52984 0.54559,-0.43443 -0.57735,-0.86383 h -21.73809 l -9.98683,5.01302 -10.01302,-5.01302 h -21.68585 l 0.49659,1.3173 -0.59123,0.59123 -1.44591,-0.54482 -0.38698,-0.31826 -0.5134,-0.69025 -1.23763,0.71437 -0.0724,0.15932 0.30037,0.69574 0.0822,0.4944 -0.2514,1.52447 -0.80755,0.21633 -0.42169,-0.51447 -14.68866,32.31445 c -1.14267,2.51391 -4.10691,3.62562 -6.62082,2.48295 -2.51391,-1.14268 -3.62563,-4.10692 -2.48295,-6.62083 l 15.43701,-33.96097 -0.23274,0.1005 -0.49513,0.0822 -1.52411,-0.25104 -0.21668,-0.80791 1.19451,-0.97966 0.46992,-0.17613 0.85396,-0.0998 v -1.55957 l -0.85432,-0.0994 -0.46919,-0.17613 -1.19452,-0.97966 0.21633,-0.80755 1.52447,-0.2514 0.4944,0.0822 0.78964,0.34092 0.77979,-1.35054 -0.6899,-0.51304 -0.31861,-0.38734 -0.54483,-1.44592 0.59123,-0.59123 1.44592,0.54482 0.38735,0.31861 0.51303,0.6899 1.35055,-0.77978 -0.34092,-0.78964 -0.0822,-0.49441 0.2514,-1.52448 0.80755,-0.21631 0.97966,1.19451 0.17613,0.46919 0.0994,0.85431 1.55956,1e-5 0.0998,-0.85396 0.17575,-0.46955 0.97966,-1.19451 0.80828,0.21631 0.25103,1.52412 -0.0822,0.49512 -0.34129,0.78929 1.35091,0.77941 0.5134,-0.68952 0.38735,-0.31862 1.44519,-0.54482 0.59159,0.59159 -0.53422,1.41779 21.72348,1.2e-4 10.01298,-5.01296 10.01294,5.01307 21.6974,1.3e-4 0.59196,-0.88575 -0.54594,-0.43408 -0.40744,-0.53019 -0.55359,-1.41376 0.63399,-0.63398 1.41376,0.55359 0.52983,0.40779 0.43451,0.54552 1.3045,-0.87187 -0.338,-0.60986 -0.17357,-0.64567 0.0292,-1.5179 0.82874,-0.34349 1.09442,1.0527 0.33362,0.57917 0.19257,0.67053 1.53872,-0.30584 -0.0786,-0.69318 0.0862,-0.66286 0.60841,-1.3911 h 0.8967 l 0.60841,1.3911 0.0862,0.66285 -0.0789,0.69282 1.53909,0.30621 0.19257,-0.67053 0.33362,-0.57917 1.09399,-1.05241 0.82912,0.34313 0.0292,1.5179 -0.17394,0.64531 -0.33763,0.61022 1.3045,0.87187 0.43443,-0.54559 0.52985,-0.40779 1.41376,-0.5536 0.63398,0.63399 -0.55359,1.41376 -0.4078,0.52984 -0.54559,0.43443 0.59197,0.88575 h 13.23067 c 1.38072,0 2.63049,0.55937 3.53532,1.4642 z m -2.12119,2.12119 c -0.78103,-0.78094 -2.04723,-0.78094 -2.82825,0 -0.78129,0.78097 -0.78145,2.04745 -3.7e-4,2.82862 0.78117,0.78108 2.04765,0.78091 2.82862,-3.7e-4 0.78093,-0.78102 0.78093,-2.04722 0,-2.82825 z M 208.1373,194.8172 c -0.78103,-0.78093 -2.04722,-0.78093 -2.82826,0 -0.78093,0.78104 -0.78093,2.04723 0,2.82826 0.78103,0.78093 2.04723,0.78094 2.82826,0 0.78093,-0.78103 0.78093,-2.04723 0,-2.82826 z"
       sodipodi:nodetypes="scccccccccccccccccccccccccccccccccccccccccccccccccccccccccccccscccccccccccccccccccccccccccccccccccccccccccccccccccccccccccccccccccccccccccccccccccccccccccccscccccccccc"
       inkscape:transform-center-x="-58.335673"
       inkscape:transform-center-y="-23.010023" />
    <path
       id="path16665"
       style="fill:#8f5200;fill-opacity:1;stroke:#000000;stroke-width:0.365001"
       d="m 323.33166,152.3404 c -1.30365,0.0169 -2.54915,0.54226 -3.47101,1.46419 -0.30681,0.30822 -0.5722,0.65507 -0.78928,1.03191 l -3.11802,-0.003 c 0.30062,1.65301 0.30123,3.34663 0.002,4.99988 l 3.11291,0.003 c 0.21748,0.37958 0.48382,0.72896 0.79221,1.03922 0.94644,0.94503 2.23223,1.47121 3.56966,1.46127 -0.0113,0 -0.0223,0.003 -0.034,0.003 l -10.15979,1e-5 0.32595,-0.7871 -1.05278,-1.09436 -0.57917,-0.33362 -0.67052,-0.19256 0.30621,-1.53837 0.69281,0.0782 0.66285,-0.0862 1.39111,-0.60841 v -0.89671 l -1.39075,-0.60803 -0.66321,-0.0866 -0.69281,0.0789 -0.30621,-1.5391 0.67052,-0.19257 0.57917,-0.33361 1.05235,-1.09407 -0.31681,-0.76553 z m -11.97514,-10e-6 -0.3011,0.0811 -0.61023,0.33764 -0.27988,-0.41876 z m -4.21315,0.0395 a 6.9999999,6.9999999 0 0 1 -3.6e-4,9.89925 6.9999999,6.9999999 0 0 1 -9.89926,3.7e-4 6.9999999,6.9999999 0 0 1 0,-9.89962 6.9999999,6.9999999 0 0 1 9.89962,0 z m -2.82825,2.82826 a 3,3 0 0 0 -4.24311,0 3,3 0 0 0 3.6e-4,4.24274 3,3 0 0 0 4.24238,0 3,3 0 0 0 3.7e-4,-4.24274 z m 7.12195,7.13185 -1.28623,1e-5 0.29452,-0.44069 0.60986,0.33801 z m -17.21508,-9.99973 -0.27989,0.41877 -0.61023,-0.33764 -0.30109,-0.0811 z m -3.07964,0 -0.31718,0.76517 1.05277,1.09434 0.57917,0.33362 0.67052,0.19258 -0.30621,1.53909 -0.69281,-0.0789 -0.66322,0.0866 -1.39073,0.60805 -3.8e-4,0.89707 1.39147,0.60804 0.66285,0.0862 0.69246,-0.0786 0.30621,1.5391 -0.67017,0.1922 -0.57916,0.33361 -1.05278,1.09437 0.32595,0.78709 h -18.65259 l -9.98695,5.01303 -10.01254,-5.01302 -21.68621,-1e-5 -0.0483,-0.12859 -0.31825,-0.38698 -0.69026,-0.5134 0.77978,-1.35054 0.78964,0.34092 0.49441,0.0822 1.52448,-0.25141 0.21632,-0.80755 -1.19451,-0.97965 -0.4692,-0.17613 -0.85431,-0.0994 -1e-5,-1.55956 0.85433,-0.0994 0.46918,-0.17613 1.19451,-0.97965 -0.21631,-0.80828 -1.52412,-0.25104 -0.49476,0.0826 -0.78965,0.34093 -0.77941,-1.35091 0.68989,-0.51304 0.31862,-0.38734 0.0102,-0.0278 h 21.72348 l 10.0129,-5.01266 10.01326,5.01302 z m -2.7307,2.49975 -10.91326,1e-5 4.97393,2.49354 -4.99329,2.50632 h 10.93226 c -0.29989,-1.65316 -0.29978,-3.34676 3.6e-4,-4.99987 z m 5.53044,7.05931 0.29452,0.44068 -1.28697,-1e-5 0.38222,-0.10304 z m -21.45015,-4.56248 -9.98038,-5.00352 -9.98037,5.0101 9.98074,5.00316 z m -8.56588,-1.4112 a 2,2 0 0 1 -3.7e-4,2.82862 2,2 0 0 1 -2.82825,0 2,2 0 0 1 0,-2.82826 2,2 0 0 1 2.82862,-3.6e-4 z m -16.39474,-1.07905 h -12.42459 c 0.38289,1.64487 0.38189,3.35582 -0.003,5.00024 l 12.43372,-3.6e-4 -4.98672,-2.49976 z m -19.64504,-1.09256 a 5,5 0 0 1 -3.7e-4,7.07099 5,5 0 0 1 -7.071,3.7e-4 5,5 0 0 1 0,-7.07136 5,5 0 0 1 7.07137,0 z m -2.07114,2.17197 a 2,2 0 0 0 -2.82862,-3.6e-4 2,2 0 0 0 3.6e-4,2.82862 2,2 0 0 0 2.82826,0 2,2 0 0 0 0,-2.82826 z m 1.31876,7.48391 -0.072,0.15896 -0.0406,-0.0939 z m -2.00353,0.57187 0.0994,0.85431 0.17614,0.46919 0.55798,0.68003 -14.68866,32.31445 -0.0318,-0.0143 c 0.74153,-1.61624 0.56888,-3.50471 -0.45348,-4.95967 l 11.4559,-25.20253 c -1.65581,-0.3319 -3.21296,-1.04058 -4.55079,-2.07113 l -11.45589,25.20253 c -1.15341,0.11213 -2.23205,0.62143 -3.05152,1.4408 -0.4152,0.42991 -0.74997,0.93075 -0.98843,1.47881 l -0.0277,-0.0125 15.43701,-33.96097 0.55615,-0.24044 0.77978,1.35055 -0.68953,0.5134 -0.31861,0.38734 -0.54482,1.4452 0.59159,0.59159 1.44556,-0.54446 0.38734,-0.31861 0.51304,-0.6899 1.35054,0.77978 -0.34056,0.78928 -0.0826,0.49477 0.25104,1.52411 0.80791,0.21668 0.97966,-1.19451 0.17649,-0.46955 0.0994,-0.85432 z"
       inkscape:transform-center-x="-56.07753"
       inkscape:transform-center-y="-23.417684" />
  </g>
</svg>
