<?xml version="1.0" encoding="UTF-8" standalone="no"?>
<!-- Created with Inkscape (http://www.inkscape.org/) -->

<svg
   sodipodi:docname="Laser_File_3mm_Beachwood.svg"
   inkscape:version="1.1.2 (b8e25be833, 2022-02-05)"
   id="svg5"
   version="1.1"
   viewBox="0 0 400 400"
   height="400mm"
   width="400mm"
   xmlns:inkscape="http://www.inkscape.org/namespaces/inkscape"
   xmlns:sodipodi="http://sodipodi.sourceforge.net/DTD/sodipodi-0.dtd"
   xmlns="http://www.w3.org/2000/svg"
   xmlns:svg="http://www.w3.org/2000/svg">
  <sodipodi:namedview
     id="namedview7"
     pagecolor="#ffffff"
     bordercolor="#666666"
     borderopacity="1.0"
     inkscape:pageshadow="2"
     inkscape:pageopacity="0.0"
     inkscape:pagecheckerboard="0"
     inkscape:document-units="mm"
     showgrid="false"
     inkscape:zoom="0.5"
     inkscape:cx="679"
     inkscape:cy="595"
     inkscape:window-width="1920"
     inkscape:window-height="1009"
     inkscape:window-x="-8"
     inkscape:window-y="-8"
     inkscape:window-maximized="1"
     inkscape:current-layer="g3761"
     inkscape:snap-smooth-nodes="true"
     inkscape:snap-intersection-paths="true"
     inkscape:snap-global="true"
     inkscape:snap-center="true"
     inkscape:snap-bbox="false"
     inkscape:object-paths="true"
     inkscape:lockguides="true" />
  <defs
     id="defs2">
    <rect
       x="253.32828"
       y="97.433952"
       width="753.48926"
       height="126.66414"
       id="rect3724" />
  </defs>
  <text
     xml:space="preserve"
     transform="matrix(0.26458333,0,0,0.26458333,-21.584279,17.639035)"
     id="text3722"
     style="font-size:68.0315px;line-height:1.25;font-family:Tool;-inkscape-font-specification:Tool;white-space:pre;shape-inside:url(#rect3724);display:inline"><tspan
       x="253.32812"
       y="158.71327"
       id="tspan3883"><tspan
         style="font-family:Arial;-inkscape-font-specification:Arial"
         id="tspan3881">3mm Beachwood</tspan></tspan></text>
  <g
     id="g3761"
     inkscape:label="Lock Wheel Cover">
    <path
       id="path3590"
       style="display:inline;fill:#b97a00;fill-opacity:1;stroke:#ffff00;stroke-width:0.4;stroke-miterlimit:6;stroke-opacity:1;stroke-dasharray:none"
       d="m 140.31677,94.73353 a 26.5,26.5 0 0 0 -26.50019,26.49966 26.5,26.5 0 0 0 26.50019,26.50019 26.5,26.5 0 0 0 26.49966,-26.50019 26.5,26.5 0 0 0 -26.49966,-26.49966 z m 0,7.00937 c 0.47872,0 0.95751,0.0116 1.32188,0.0367 1.51455,0.10448 3.01187,0.38586 4.46122,0.83767 0.69739,0.21741 0.95234,0.94906 0.58706,1.58181 l -3.24167,5.61464 0.0104,-0.29453 -0.3483,-1.46865 -0.90434,-0.15968 -0.82941,1.2609 -0.23306,0.7152 -0.0444,0.61444 h -1.55908 l -0.0444,-0.61444 -0.23306,-0.7152 -0.82941,-1.2609 -0.90433,0.15968 -0.34779,1.46865 0.01,0.29453 -3.23029,-5.59498 c -0.36533,-0.63273 -0.11075,-1.36605 0.58601,-1.58544 1.44581,-0.45527 2.93955,-0.74033 4.45141,-0.84958 0.36429,-0.0262 0.84316,-0.0401 1.32188,-0.0408 z m 12.56358,4.87878 c 0.23159,0.0138 0.46389,0.11018 0.66506,0.2961 2.89618,2.67671 4.91342,6.16998 5.78363,10.01646 0.16121,0.71247 -0.34425,1.29913 -1.07487,1.29913 h -6.48383 l 0.26043,-0.13901 1.09813,-1.03558 -0.31419,-0.86302 -1.50688,-0.0878 -0.73586,0.15555 -0.55449,0.26871 -0.77928,-1.34977 0.51004,-0.34573 0.50281,-0.55965 0.67697,-1.34877 -0.59016,-0.70331 -1.44589,0.43304 -0.25117,0.15658 3.24218,-5.61567 c 0.22833,-0.39545 0.61137,-0.60034 0.99737,-0.57722 z m -25.1163,0.0201 c 0.38584,-0.0233 0.76851,0.18127 0.99684,0.57669 l 3.23081,5.59604 -0.25063,-0.15658 -1.44591,-0.43304 -0.59014,0.70331 0.67747,1.34877 0.50282,0.55964 0.50952,0.34574 -0.77928,1.34977 -0.55449,-0.26871 -0.73587,-0.15555 -1.50637,0.0878 -0.31419,0.86302 1.09761,1.03558 0.26097,0.13901 h -6.46111 c -0.73062,0 -1.23595,-0.58674 -1.07435,-1.29913 0.87055,-3.8377 2.88315,-7.32332 5.77122,-9.9963 0.20104,-0.18609 0.43357,-0.28213 0.66508,-0.2961 z m -5.36195,17.59167 h 6.46111 l -0.26097,0.13901 -1.09761,1.03561 0.31419,0.86299 1.50637,0.0878 0.73587,-0.15605 0.55449,-0.26871 0.77928,1.3503 -0.50952,0.3457 -0.50282,0.55915 -0.67747,1.34877 0.59014,0.70381 1.44591,-0.43304 0.25063,-0.15605 -3.2303,5.59501 c -0.3653,0.6327 -1.12578,0.77676 -1.66191,0.28059 -2.88815,-2.67282 -4.90099,-6.15818 -5.77174,-9.99577 -0.16164,-0.71237 0.34373,-1.29916 1.07435,-1.29916 z m 29.36824,0 h 6.48333 c 0.73062,0 1.23608,0.58669 1.07487,1.29916 -0.87019,3.84622 -2.88724,7.33927 -5.78313,10.01593 -0.53645,0.49583 -1.29715,0.35163 -1.66243,-0.28112 l -3.24165,-5.61464 0.25064,0.15605 1.44589,0.43304 0.59016,-0.70381 -0.67697,-1.34877 -0.50281,-0.55915 -0.51004,-0.3457 0.77928,-1.3503 0.55449,0.26871 0.73586,0.15605 1.50688,-0.0878 0.31419,-0.86299 -1.09813,-1.03561 z m -12.23337,7.752 h 1.55908 l 0.0444,0.61442 0.23306,0.71522 0.82941,1.2609 0.90434,-0.15968 0.3483,-1.46865 -0.0104,-0.29506 3.24168,5.61514 c 0.36528,0.63276 0.11033,1.36441 -0.58706,1.58182 -1.44936,0.4518 -2.94668,0.73268 -4.46123,0.83716 -0.72875,0.0503 -1.91518,0.0486 -2.64376,-0.004 -1.51186,-0.10925 -3.0056,-0.39431 -4.45141,-0.84958 -0.69676,-0.21939 -0.95133,-0.95271 -0.58601,-1.58543 l 3.23029,-5.59499 -0.01,0.29507 0.34778,1.46864 0.90434,0.15968 0.8294,-1.2609 0.23306,-0.71522 z" />
    <path
       id="circle21635"
       style="display:inline;fill:#8f5200;fill-opacity:1;stroke:#000000;stroke-width:0.18;stroke-miterlimit:6;stroke-opacity:1"
       inkscape:transform-center-x="23.000023"
       inkscape:transform-center-y="-0.00011666333"
       d="m 118.31649,121.23334 c 0,0.55228 -0.44772,1 -1,1 -0.55228,0 -1,-0.44772 -1,-1 0,-0.55228 0.44772,-1 1,-1 0.55228,0 1,0.44772 1,1 z m 10.99992,19.05264 c 0.47829,0.27614 0.64217,0.88774 0.36602,1.36603 -0.27614,0.47829 -0.88773,0.64216 -1.36602,0.36602 -0.47829,-0.27614 -0.64217,-0.88773 -0.36603,-1.36602 0.27614,-0.4783 0.88774,-0.64217 1.36603,-0.36603 z m 22.00002,1e-4 c 0.47829,-0.27614 1.08988,-0.11227 1.36602,0.36602 0.27615,0.47829 0.11227,1.08989 -0.36602,1.36603 -0.47829,0.27614 -1.08989,0.11227 -1.36603,-0.36603 -0.27614,-0.47829 -0.11226,-1.08988 0.36603,-1.36602 z m 11.00007,-19.05252 c 0,-0.55228 0.44772,-1 1,-1 0.55228,0 1,0.44772 1,1 0,0.55228 -0.44772,1 -1,1 -0.55228,0 -1,-0.44772 -1,-1 z m -10.99991,-19.05259 c -0.47829,-0.27614 -0.64217,-0.88774 -0.36602,-1.36603 0.27614,-0.47829 0.88773,-0.64216 1.36602,-0.36602 0.47829,0.27614 0.64217,0.88773 0.36603,1.36602 -0.27614,0.4783 -0.88774,0.64217 -1.36603,0.36603 z m -21.99998,-1.2e-4 c -0.47829,0.27614 -1.08988,0.11227 -1.36602,-0.36602 -0.27615,-0.47829 -0.11227,-1.08989 0.36602,-1.36603 0.47829,-0.27614 1.08989,-0.11227 1.36603,0.36603 0.27614,0.47829 0.11226,1.08988 -0.36603,1.36602 z m 11.00016,-7.44732 c -14.63549,-1e-4 -26.50001,11.86418 -26.50019,26.49967 -1e-4,14.63569 11.8645,26.50029 26.50019,26.50019 14.63549,-1.9e-4 26.49976,-11.8647 26.49966,-26.50019 -1.8e-4,-14.63528 -11.86438,-26.49948 -26.49966,-26.49967 z m 0,1.99986 c 13.53083,1e-4 24.49971,10.96898 24.49981,24.49981 1.7e-4,13.53102 -10.96879,24.50021 -24.49981,24.50031 -13.53122,1.7e-4 -24.50048,-10.96909 -24.50031,-24.50031 10e-5,-13.53102 10.96929,-24.49998 24.50031,-24.49981 z m -9.41234,5.19866 3.25303,5.63428 c -0.4582,0.2031 -0.90594,0.42904 -1.34152,0.67696 -0.43364,0.25043 -0.85447,0.52242 -1.26091,0.81494 l -3.23856,-5.60948 c -5.46004,3.70152 -8.9187,9.70464 -9.38237,16.28479 h 6.4673 c -0.0533,0.49816 -0.0815,0.99867 -0.0847,1.49966 0.003,0.50115 0.0314,1.00184 0.0847,1.50016 h -6.4673 c 0.46382,6.57997 3.92246,12.58287 9.38237,16.28428 l 3.24321,-5.61724 c 0.4049,0.2954 0.82435,0.57032 1.25677,0.82373 0.43375,0.25023 0.87977,0.47858 1.33636,0.68419 l -3.24838,5.62655 c 2.92993,1.43766 6.14871,2.18942 9.41234,2.19831 3.26315,-0.009 6.48139,-0.76123 9.41081,-2.19884 l -3.25305,-5.63428 c 0.4582,-0.20293 0.90594,-0.42869 1.34154,-0.67643 0.43242,-0.25341 0.85187,-0.52833 1.25677,-0.82373 l 3.24321,5.61827 c 5.46025,-3.70142 8.91911,-9.70456 9.38289,-16.28481 h -6.46731 c 0.0533,-0.49832 0.0815,-0.99901 0.0847,-1.50016 -1.1e-4,-0.50083 -0.0253,-1.00135 -0.0755,-1.49966 h 6.45803 c -0.46379,-6.58024 -3.92265,-12.58338 -9.38289,-16.28479 l -3.24321,5.61774 c -0.40491,-0.29522 -0.82436,-0.56996 -1.25677,-0.8232 -0.4356,-0.24774 -0.88334,-0.4735 -1.34154,-0.67643 l 3.25355,-5.63481 c -2.92958,-1.43769 -6.14799,-2.18963 -9.41144,-2.18971 -3.26346,-8e-5 -6.48224,0.75187 -9.41213,2.18971 z m 10.73422,-0.15245 c 1.51455,0.10448 3.0119,0.38587 4.46123,0.83767 0.69738,0.21741 0.95234,0.94906 0.58705,1.58181 l -3.24167,5.61465 -0.0155,0.45683 -0.16846,0.59272 1.46502,0.53332 0.25217,-0.56224 0.46355,-0.59222 1.21026,-0.90125 0.79531,0.45889 -0.17518,1.49913 -0.28112,0.69763 -0.36071,0.49921 1.19425,1.00201 0.42889,-0.44183 0.38706,-0.24135 3.24218,-5.61568 c 0.22833,-0.39544 0.61137,-0.60034 0.99737,-0.57721 0.23159,0.0138 0.4639,0.11017 0.66506,0.29609 2.89618,2.67671 4.91342,6.16998 5.78363,10.01647 0.16121,0.71247 -0.34425,1.29913 -1.07487,1.29913 h -6.48382 l -0.4031,0.21497 -0.59737,0.15039 0.27077,1.5353 0.61291,-0.063 0.74464,0.10543 1.38544,0.59788 v 0.91829 l -1.38544,0.59791 -0.74464,0.10541 -0.61291,-0.0631 -0.27077,1.53532 0.59737,0.15036 0.4031,0.21498 h 6.48332 c 0.73062,0 1.23608,0.58668 1.07487,1.29915 -0.87019,3.84623 -2.88724,7.33928 -5.78313,10.01594 -0.53644,0.49583 -1.29715,0.35163 -1.66243,-0.28112 l -3.24165,-5.61464 -0.38759,-0.24186 -0.42889,-0.44183 -1.19425,1.00148 0.36071,0.49972 0.28112,0.69762 0.17518,1.49913 -0.79531,0.45889 -1.21026,-0.90122 -0.46355,-0.59222 -0.25217,-0.56224 -1.46502,0.5333 0.16846,0.59272 0.0155,0.45633 3.24167,5.61514 c 0.36529,0.63275 0.11033,1.3644 -0.58705,1.58181 -1.44933,0.45181 -2.94667,0.73269 -4.46123,0.83717 -0.72875,0.0503 -1.91517,0.0491 -2.64376,-0.004 -1.51186,-0.10925 -3.0056,-0.39431 -4.45141,-0.84958 -0.69676,-0.21939 -0.95133,-0.95271 -0.58601,-1.58544 l 3.23029,-5.59498 0.0155,-0.45633 0.16846,-0.59272 -1.46502,-0.53329 -0.25167,0.56224 -0.46353,0.59222 -1.21078,0.90122 -0.7953,-0.45889 0.17518,-1.49913 0.28112,-0.69763 0.3607,-0.49972 -1.19372,-1.00147 -0.42944,0.44182 -0.38757,0.24186 -3.23029,5.59501 c -0.3653,0.63257 -1.12579,0.77677 -1.66192,0.28059 -2.88814,-2.67282 -4.90099,-6.15818 -5.77174,-9.99577 -0.16164,-0.71237 0.34373,-1.29916 1.07436,-1.29916 h 6.4611 l 0.40308,-0.21497 0.59738,-0.15036 -0.27079,-1.53533 -0.61288,0.0631 -0.74466,-0.10541 -1.38596,-0.5979 v -0.91829 l 1.38596,-0.59788 0.74466,-0.10544 0.61288,0.063 0.27079,-1.5353 -0.59738,-0.15039 -0.40308,-0.21497 h -6.4611 c -0.73063,0 -1.23596,-0.58674 -1.07436,-1.29913 0.87056,-3.8377 2.88315,-7.32332 5.77123,-9.9963 0.20104,-0.18608 0.43356,-0.28213 0.66507,-0.2961 0.38585,-0.0233 0.76851,0.1814 0.99684,0.57669 l 3.23081,5.59604 0.38757,0.24135 0.42944,0.44183 1.19372,-1.002 -0.3607,-0.49922 -0.28112,-0.69762 -0.17518,-1.49913 0.7953,-0.4589 1.21078,0.90125 0.46353,0.59222 0.25167,0.56224 1.46502,-0.53332 -0.16846,-0.59272 -0.0155,-0.45683 -3.23029,-5.59498 c -0.36532,-0.63273 -0.11075,-1.36605 0.58601,-1.58544 1.44581,-0.45527 2.93955,-0.74033 4.45141,-0.84958 0.36429,-0.0262 0.84316,-0.0401 1.32188,-0.0405 0.47872,-4.3e-4 0.95751,0.0112 1.32188,0.0363 z m -1.32241,9.95392 c -5.24666,1.8e-4 -9.49979,4.25354 -9.49968,9.5002 1.9e-4,5.24645 4.25323,9.49948 9.49968,9.49966 5.24665,1.2e-4 9.50002,-4.25301 9.50021,-9.49966 1.1e-4,-5.24687 -4.25334,-9.50032 -9.50021,-9.5002 z m 0,0.99994 c 4.69463,-1.5e-4 8.50041,3.80563 8.50027,8.50026 -1.4e-4,4.69442 -3.80585,8.49989 -8.50027,8.49974 -4.69422,-1.4e-4 -8.4996,-3.80552 -8.49974,-8.49974 -1.4e-4,-4.69442 3.80532,-8.50012 8.49974,-8.50026 z m 0,0.49971 c -1.38059,2.3e-4 -2.49965,1.11952 -2.49959,2.50011 -6e-5,1.38059 1.119,2.49987 2.49959,2.5001 1.38079,6e-5 2.50017,-1.11931 2.50011,-2.5001 6e-5,-1.3808 -1.11931,-2.50017 -2.50011,-2.50011 z m 0,1.25006 c 0.6904,-3e-5 1.25009,0.55965 1.25006,1.25005 3e-5,0.6904 -0.55966,1.25008 -1.25006,1.25005 -0.6904,3e-5 -1.25008,-0.55965 -1.25005,-1.25005 -3e-5,-0.6904 0.55965,-1.25008 1.25005,-1.25005 z m -5.49992,4.24986 c -1.38039,2.3e-4 -2.49936,1.11919 -2.49959,2.49958 -7e-5,1.3806 1.11899,2.49989 2.49959,2.50012 1.3808,6e-5 2.50018,-1.11932 2.50011,-2.50012 -2.3e-4,-1.38059 -1.11952,-2.49964 -2.50011,-2.49958 z m 11.00037,0 c -1.3808,-6e-5 -2.50017,1.11931 -2.50011,2.50011 -6e-5,1.38079 1.11932,2.50016 2.50011,2.5001 1.38059,-2.2e-4 2.49966,-1.11951 2.4996,-2.5001 6e-5,-1.3806 -1.119,-2.49989 -2.4996,-2.50011 z m -5.49993,0.50023 c -1.10468,-2.2e-4 -2.00033,0.8952 -2.0004,1.99988 -2.1e-4,1.10487 0.89553,2.0006 2.0004,2.00038 1.10467,-7e-5 2.00009,-0.89571 1.99988,-2.00038 -7e-5,-1.10448 -0.8954,-1.99981 -1.99988,-1.99988 z m -5.50044,0.7493 c 0.6904,-3e-5 1.25008,0.55965 1.25005,1.25005 4e-5,0.6904 -0.55965,1.2501 -1.25005,1.25007 -0.6902,-2.5e-4 -1.24958,-0.55987 -1.24954,-1.25007 -3e-5,-0.6902 0.55934,-1.2498 1.24954,-1.25005 z m 11.00037,0 c 0.6904,-3e-5 1.25008,0.55965 1.25005,1.25005 4e-5,0.6904 -0.55965,1.2501 -1.25005,1.25007 -0.69041,3e-5 -1.2501,-0.55966 -1.25006,-1.25007 -3e-5,-0.6904 0.55966,-1.25008 1.25006,-1.25005 z m -5.49992,4.25039 c -1.38079,-6e-5 -2.50016,1.11932 -2.5001,2.50011 -6e-5,1.38079 1.11931,2.50016 2.5001,2.5001 1.38079,6e-5 2.50017,-1.11931 2.50011,-2.5001 6e-5,-1.3808 -1.11931,-2.50017 -2.50011,-2.50011 z m 0,1.25006 c 0.6904,-3e-5 1.25008,0.55965 1.25005,1.25005 3e-5,0.6904 -0.55965,1.25008 -1.25005,1.25005 -0.6904,3e-5 -1.25008,-0.55965 -1.25005,-1.25005 -3e-5,-0.6904 0.55965,-1.25008 1.25005,-1.25005 z"
       sodipodi:nodetypes="ssssssssssssssssssssssssssssssssssssssssccccccccccccccccccccccccccccccccccsccccccccccccccccssssccccccccccccccssscccccccccccccccssscsscccccccccccccccsssccccccccccccccsssscccccccccccccccsscccsssssssssscccccsssssccccccccccccccccscscssssscccccsssss" />
  </g>
</svg>
