<?xml version="1.0" encoding="UTF-8" standalone="no"?>
<!-- Created with Inkscape (http://www.inkscape.org/) -->

<svg
   width="400mm"
   height="400mm"
   viewBox="0 0 400 400"
   version="1.1"
   id="svg26859"
   inkscape:version="1.1.2 (b8e25be833, 2022-02-05)"
   sodipodi:docname="Lock_Gear_Laser_File.svg"
   xmlns:inkscape="http://www.inkscape.org/namespaces/inkscape"
   xmlns:sodipodi="http://sodipodi.sourceforge.net/DTD/sodipodi-0.dtd"
   xmlns="http://www.w3.org/2000/svg"
   xmlns:svg="http://www.w3.org/2000/svg">
  <sodipodi:namedview
     id="namedview26861"
     pagecolor="#ffffff"
     bordercolor="#666666"
     borderopacity="1.0"
     inkscape:pageshadow="2"
     inkscape:pageopacity="0.0"
     inkscape:pagecheckerboard="0"
     inkscape:document-units="mm"
     showgrid="false"
     inkscape:zoom="1.6277344"
     inkscape:cx="568.5817"
     inkscape:cy="448.16894"
     inkscape:window-width="1920"
     inkscape:window-height="1009"
     inkscape:window-x="-8"
     inkscape:window-y="-8"
     inkscape:window-maximized="1"
     inkscape:current-layer="layer1" />
  <defs
     id="defs26856" />
  <g
     inkscape:label="Layer 1"
     inkscape:groupmode="layer"
     id="layer1">
    <path
       id="path36256"
       style="display:inline;fill:none;fill-opacity:1;stroke:#ff0000;stroke-width:0.3;stroke-miterlimit:6;stroke-dasharray:none;stroke-opacity:1"
       inkscape:transform-center-x="7.31207"
       inkscape:transform-center-y="-27.874105"
       d="m 126.8914,81.26011 c -0.65448,0.003 -1.30872,0.0265 -1.96164,0.0718 v 1.49912 c -0.58735,0.0414 -1.17369,0.10094 -1.75803,0.17622 -0.58457,0.0735 -1.16654,0.16756 -1.7446,0.27956 l -0.3886,-1.44952 c -0.64209,0.12742 -1.27968,0.27582 -1.91203,0.44495 -0.63139,0.17227 -1.25739,0.36446 -1.87637,0.57721 l 0.38809,1.44799 c -0.55661,0.19198 -1.10718,0.40145 -1.6521,0.62526 -0.54561,0.22212 -1.08345,0.4636 -1.61282,0.72141 l -0.75034,-1.29966 c -0.58723,0.28927 -1.16465,0.59799 -1.73168,0.92501 -0.56528,0.32983 -1.12011,0.67712 -1.66295,1.04283 l 0.74931,1.2981 c -0.48795,0.32954 -0.9657,0.67461 -1.43402,1.03198 -0.46942,0.35592 -0.92636,0.72813 -1.37097,1.11416 l -1.06092,-1.06093 c -0.49235,0.43141 -0.97044,0.8789 -1.4335,1.34152 -0.46066,0.46493 -0.90668,0.9439 -1.33636,1.43764 l 1.05989,1.0604 c -0.38604,0.44458 -0.75838,0.9009 -1.11828,1.36736 -0.36135,0.46533 -0.70605,0.94348 -1.0356,1.43145 l -1.29966,-0.75035 c -0.36392,0.54414 -0.71011,1.10037 -1.03766,1.66708 -0.32463,0.5683 -0.63104,1.14615 -0.91829,1.73427 l 1.29811,0.74983 c -0.25782,0.52935 -0.49948,1.06658 -0.72657,1.61022 -0.22878,0.54293 -0.43791,1.09392 -0.62994,1.65055 l -1.44952,-0.38809 c -0.21069,0.61979 -0.4008,1.24627 -0.57051,1.87844 -0.16649,0.63293 -0.31349,1.27116 -0.43873,1.91357 l 1.44797,0.38759 c -0.11203,0.57803 -0.20574,1.15964 -0.28422,1.74355 -0.0803,0.58364 -0.13996,1.17017 -0.18138,1.75752 h -1.50069 c -0.0431,0.65318 -0.0648,1.30757 -0.0651,1.96215 0.003,0.65447 0.0265,1.30871 0.0718,1.96165 h 1.49913 c 0.0414,0.58732 0.10091,1.17366 0.17622,1.75802 0.0735,0.58457 0.16756,1.16655 0.27957,1.74459 l -1.44952,0.38862 c 0.12742,0.64209 0.27581,1.27968 0.44493,1.91203 0.1723,0.63138 0.36449,1.25738 0.57723,1.87638 l 1.44797,-0.3881 c 0.192,0.55661 0.40148,1.10715 0.62528,1.65209 0.22211,0.54562 0.46361,1.08347 0.72141,1.61282 l -1.29966,0.75033 c 0.28925,0.58724 0.59798,1.16467 0.925,1.7317 0.32985,0.56528 0.67713,1.12011 1.04284,1.66293 l 1.29811,-0.7493 c 0.32952,0.48795 0.67459,0.96568 1.03198,1.43402 0.3559,0.46942 0.72812,0.92638 1.11414,1.37096 l -1.06092,1.06093 c 0.43139,0.49234 0.87889,0.97044 1.34152,1.43351 0.46492,0.46064 0.94391,0.90668 1.43764,1.33636 l 1.0604,-1.0599 c 0.44458,0.38606 0.90091,0.75838 1.36736,1.11829 0.46532,0.36134 0.9435,0.70604 1.43143,1.03558 l -0.75033,1.29966 c 0.54411,0.36394 1.09984,0.71012 1.66656,1.03767 0.5683,0.32464 1.14667,0.63106 1.73478,0.91829 l 0.74982,-1.2981 c 0.52935,0.25781 1.0666,0.49946 1.61024,0.72657 0.54292,0.22879 1.09393,0.43792 1.65055,0.62992 l -0.3881,1.44952 c 0.61977,0.21069 1.24625,0.40082 1.87844,0.57052 0.63296,0.16648 1.27117,0.31348 1.91358,0.43874 l 0.38758,-1.44799 c 0.57803,0.11205 1.15965,0.20574 1.74356,0.28422 0.58365,0.0803 1.17017,0.13999 1.75751,0.1814 v 1.50069 c 0.65318,0.0431 1.30758,0.0648 1.96216,0.0651 0.65448,-0.003 1.3087,-0.0265 1.96164,-0.0718 v -1.49912 c 0.58733,-0.0414 1.17368,-0.10094 1.75803,-0.17624 0.58458,-0.0735 1.16656,-0.16754 1.74459,-0.27956 l 0.3886,1.44952 c 0.64209,-0.12743 1.27968,-0.2758 1.91203,-0.44493 0.63141,-0.17229 1.25741,-0.36449 1.87638,-0.57724 l -0.38809,-1.44796 c 0.55663,-0.192 1.10717,-0.40147 1.65211,-0.62529 0.54562,-0.22209 1.08347,-0.4636 1.61282,-0.72141 l 0.75033,1.29969 c 0.58722,-0.28927 1.16464,-0.59799 1.73167,-0.92501 0.56528,-0.32986 1.12014,-0.67715 1.66296,-1.04283 l -0.74933,-1.29813 c 0.48797,-0.32953 0.96571,-0.6746 1.43405,-1.03198 0.46942,-0.35591 0.92585,-0.72813 1.37043,-1.11413 l 1.06146,1.0609 c 0.49231,-0.43138 0.97041,-0.87887 1.43348,-1.34152 0.46067,-0.4649 0.9067,-0.9439 1.33636,-1.43764 l -1.05987,-1.06039 c 0.38603,-0.44458 0.75835,-0.90091 1.11826,-1.36734 0.36137,-0.46533 0.70607,-0.94351 1.03561,-1.43145 l 1.29966,0.75033 c 0.36391,-0.54409 0.70959,-1.09982 1.03714,-1.66656 0.32464,-0.5683 0.63159,-1.14668 0.91882,-1.73477 l -1.29813,-0.74983 c 0.25784,-0.52935 0.49948,-1.06661 0.72657,-1.61025 0.22879,-0.5429 0.43794,-1.09392 0.62995,-1.65052 l 1.44952,0.38809 c 0.21069,-0.61976 0.40079,-1.24624 0.5705,-1.87844 0.1665,-0.63296 0.3135,-1.27069 0.43873,-1.91307 l -1.44849,-0.38809 c 0.11205,-0.57806 0.20627,-1.15967 0.28474,-1.74358 0.0803,-0.58364 0.14,-1.17017 0.1814,-1.75749 h 1.50067 c 0.0431,-0.65318 0.0648,-1.30757 0.0651,-1.96218 -0.003,-0.65447 -0.0265,-1.30871 -0.0718,-1.96162 h -1.49913 c -0.0414,-0.58735 -0.10092,-1.17369 -0.17622,-1.75802 -0.0735,-0.5846 -0.16756,-1.16658 -0.27955,-1.74461 l 1.44899,-0.3886 c -0.1274,-0.64209 -0.27581,-1.27965 -0.44493,-1.91203 -0.17229,-0.63141 -0.36396,-1.25744 -0.57671,-1.87638 l -1.44798,0.3881 c -0.19199,-0.55664 -0.40146,-1.10718 -0.62527,-1.65212 -0.22209,-0.54559 -0.4636,-1.08346 -0.72141,-1.61282 l 1.29966,-0.75033 c -0.28924,-0.58721 -0.59796,-1.16461 -0.92501,-1.73167 -0.32983,-0.56528 -0.67715,-1.12014 -1.04283,-1.66296 l -1.2981,0.74933 c -0.32954,-0.48797 -0.67461,-0.96571 -1.03198,-1.43404 -0.35592,-0.46943 -0.72813,-0.92586 -1.11416,-1.37044 l 1.06093,-1.06146 c -0.43138,-0.49231 -0.87887,-0.97041 -1.34152,-1.43348 -0.46493,-0.46067 -0.94393,-0.9067 -1.43764,-1.33636 l -1.0604,1.05987 c -0.4446,-0.38603 -0.9009,-0.75838 -1.36736,-1.11826 -0.4653,-0.36137 -0.94348,-0.70607 -1.43145,-1.03561 l 0.75036,-1.29966 c -0.54412,-0.36391 -1.10033,-0.70958 -1.66709,-1.03714 -0.5683,-0.32464 -1.14618,-0.63158 -1.73427,-0.91882 l -0.74982,1.29813 c -0.52936,-0.25784 -1.06659,-0.49898 -1.61023,-0.72607 -0.54293,-0.22879 -1.09392,-0.43844 -1.65055,-0.63045 l 0.38809,-1.44952 c -0.61976,-0.21069 -1.24622,-0.40079 -1.87844,-0.57049 -0.63296,-0.16651 -1.27119,-0.31301 -1.91357,-0.43823 l -0.38759,1.44798 c -0.57803,-0.11202 -1.16018,-0.20627 -1.74407,-0.28474 -0.58365,-0.0803 -1.16965,-0.13999 -1.75699,-0.1814 v -1.50067 c -0.65318,-0.0431 -1.30757,-0.0648 -1.96216,-0.0651 z m 16.61708,9.91878 3.46437,3.4649 -3.46437,3.46438 -3.46491,-3.46491 z m -36.56677,17.63146 h 4.89945 v 4.90048 h -4.89996 z m 34.99943,0 h 4.89942 v 4.90048 h -4.89995 z m -15.05026,0.4005 a 2.0499999,2.0499999 0 0 1 2.05001,2.04949 2.0499999,2.0499999 0 0 1 -2.05001,2.04999 2.0499999,2.0499999 0 0 1 -2.05,-2.04999 2.0499999,2.0499999 0 0 1 2.05,-2.04949 z m -16.61655,15.20166 3.46438,3.46491 -3.46438,3.4649 -3.46439,-3.46543 z m 32.88016,1.06196 c 0.52464,0 1.04923,0.19968 1.44952,0.59994 0.80058,0.80058 0.80058,2.099 0,2.89957 -4.69778,4.69779 -11.06948,7.33703 -17.71313,7.33703 -1.13217,0 -2.05,-0.91781 -2.05,-2.05002 0,-1.13217 0.91782,-2.04999 2.05,-2.04999 5.55629,0 10.88519,-2.20768 14.81409,-6.13659 0.40029,-0.40026 0.92488,-0.59994 1.44952,-0.59994 z" />
    <path
       id="path3590"
       style="display:inline;fill:none;fill-opacity:1;stroke:#ff0000;stroke-width:0.3;stroke-miterlimit:6;stroke-opacity:1"
       d="m 190.68203,84.76068 a 26.5,26.5 0 0 0 -26.50019,26.49966 26.5,26.5 0 0 0 26.50019,26.50019 26.5,26.5 0 0 0 26.49966,-26.50019 26.5,26.5 0 0 0 -26.49966,-26.49966 z m 0,7.00937 c 0.47872,0 0.95751,0.0116 1.32188,0.0367 1.51455,0.10448 3.01187,0.38586 4.46122,0.83767 0.69739,0.21741 0.95234,0.94906 0.58706,1.58181 l -3.24167,5.61464 0.0104,-0.29453 -0.3483,-1.46865 -0.90434,-0.15968 -0.82941,1.2609 -0.23306,0.7152 -0.0444,0.61444 h -1.55908 l -0.0444,-0.61444 -0.23306,-0.7152 -0.82941,-1.2609 -0.90433,0.15968 -0.34779,1.46865 0.01,0.29453 -3.23029,-5.59498 c -0.36533,-0.63273 -0.11075,-1.36605 0.58601,-1.58544 1.44581,-0.45527 2.93955,-0.74033 4.45141,-0.84958 0.36429,-0.0262 0.84316,-0.0401 1.32188,-0.0408 z m 12.56358,4.87878 c 0.23159,0.0138 0.46389,0.11018 0.66506,0.2961 2.89618,2.67671 4.91342,6.16998 5.78363,10.01646 0.16121,0.71247 -0.34425,1.29913 -1.07487,1.29913 h -6.48383 l 0.26043,-0.13901 1.09813,-1.03558 -0.31419,-0.86302 -1.50688,-0.0878 -0.73586,0.15555 -0.55449,0.26871 -0.77928,-1.34977 0.51004,-0.34573 0.50281,-0.55965 0.67697,-1.34877 -0.59016,-0.70331 -1.44589,0.43304 -0.25117,0.15658 3.24218,-5.61567 c 0.22833,-0.39545 0.61137,-0.60034 0.99737,-0.57722 z m -25.1163,0.0201 c 0.38584,-0.0233 0.76851,0.18127 0.99684,0.57669 l 3.23081,5.59604 -0.25063,-0.15658 -1.44591,-0.43304 -0.59014,0.70331 0.67747,1.34877 0.50282,0.55964 0.50952,0.34574 -0.77928,1.34977 -0.55449,-0.26871 -0.73587,-0.15555 -1.50637,0.0878 -0.31419,0.86302 1.09761,1.03558 0.26097,0.13901 h -6.46111 c -0.73062,0 -1.23595,-0.58674 -1.07435,-1.29913 0.87055,-3.8377 2.88315,-7.32332 5.77122,-9.9963 0.20104,-0.18609 0.43357,-0.28213 0.66508,-0.2961 z m -5.36195,17.59167 h 6.46111 l -0.26097,0.13901 -1.09761,1.03561 0.31419,0.86299 1.50637,0.0878 0.73587,-0.15605 0.55449,-0.26871 0.77928,1.3503 -0.50952,0.3457 -0.50282,0.55915 -0.67747,1.34877 0.59014,0.70381 1.44591,-0.43304 0.25063,-0.15605 -3.2303,5.59501 c -0.3653,0.6327 -1.12578,0.77676 -1.66191,0.28059 -2.88815,-2.67282 -4.90099,-6.15818 -5.77174,-9.99577 -0.16164,-0.71237 0.34373,-1.29916 1.07435,-1.29916 z m 29.36824,0 h 6.48333 c 0.73062,0 1.23608,0.58669 1.07487,1.29916 -0.87019,3.84622 -2.88724,7.33927 -5.78313,10.01593 -0.53645,0.49583 -1.29715,0.35163 -1.66243,-0.28112 l -3.24165,-5.61464 0.25064,0.15605 1.44589,0.43304 0.59016,-0.70381 -0.67697,-1.34877 -0.50281,-0.55915 -0.51004,-0.3457 0.77928,-1.3503 0.55449,0.26871 0.73586,0.15605 1.50688,-0.0878 0.31419,-0.86299 -1.09813,-1.03561 z m -12.23337,7.752 h 1.55908 l 0.0444,0.61442 0.23306,0.71522 0.82941,1.2609 0.90434,-0.15968 0.3483,-1.46865 -0.0104,-0.29506 3.24168,5.61514 c 0.36528,0.63276 0.11033,1.36441 -0.58706,1.58182 -1.44936,0.4518 -2.94668,0.73268 -4.46123,0.83716 -0.72875,0.0503 -1.91518,0.0486 -2.64376,-0.004 -1.51186,-0.10925 -3.0056,-0.39431 -4.45141,-0.84958 -0.69676,-0.21939 -0.95133,-0.95271 -0.58601,-1.58543 l 3.23029,-5.59499 -0.01,0.29507 0.34778,1.46864 0.90434,0.15968 0.8294,-1.2609 0.23306,-0.71522 z" />
    <path
       id="circle21635"
       style="display:inline;fill:#000000;fill-opacity:1;stroke:#000000;stroke-width:0.18;stroke-miterlimit:6;stroke-opacity:1"
       inkscape:transform-center-x="23.000023"
       inkscape:transform-center-y="-0.00011666333"
       d="m 168.68175,111.26049 c 0,0.55228 -0.44772,1 -1,1 -0.55228,0 -1,-0.44772 -1,-1 0,-0.55228 0.44772,-1 1,-1 0.55228,0 1,0.44772 1,1 z m 10.99992,19.05264 c 0.47829,0.27614 0.64217,0.88774 0.36602,1.36603 -0.27614,0.47829 -0.88773,0.64216 -1.36602,0.36602 -0.47829,-0.27614 -0.64217,-0.88773 -0.36603,-1.36602 0.27614,-0.4783 0.88774,-0.64217 1.36603,-0.36603 z m 22.00002,1e-4 c 0.47829,-0.27614 1.08988,-0.11227 1.36602,0.36602 0.27615,0.47829 0.11227,1.08989 -0.36602,1.36603 -0.47829,0.27614 -1.08989,0.11227 -1.36603,-0.36603 -0.27614,-0.47829 -0.11226,-1.08988 0.36603,-1.36602 z m 11.00007,-19.05252 c 0,-0.55228 0.44772,-1 1,-1 0.55228,0 1,0.44772 1,1 0,0.55228 -0.44772,1 -1,1 -0.55228,0 -1,-0.44772 -1,-1 z M 201.68185,92.20812 c -0.47829,-0.27614 -0.64217,-0.88774 -0.36602,-1.36603 0.27614,-0.47829 0.88773,-0.64216 1.36602,-0.36602 0.47829,0.27614 0.64217,0.88773 0.36603,1.36602 -0.27614,0.4783 -0.88774,0.64217 -1.36603,0.36603 z M 179.68187,92.208 c -0.47829,0.27614 -1.08988,0.11227 -1.36602,-0.36602 -0.27615,-0.47829 -0.11227,-1.08989 0.36602,-1.36603 0.47829,-0.27614 1.08989,-0.11227 1.36603,0.36603 0.27614,0.47829 0.11226,1.08988 -0.36603,1.36602 z m 11.00016,-7.44732 c -14.63549,-10e-5 -26.50001,11.86418 -26.50019,26.49967 -1e-4,14.63569 11.8645,26.50029 26.50019,26.50019 14.63549,-1.9e-4 26.49976,-11.8647 26.49966,-26.50019 -1.8e-4,-14.63528 -11.86438,-26.49948 -26.49966,-26.49967 z m 0,1.99986 c 13.53083,10e-5 24.49971,10.96898 24.49981,24.49981 1.7e-4,13.53102 -10.96879,24.50021 -24.49981,24.50031 -13.53122,1.7e-4 -24.50048,-10.96909 -24.50031,-24.50031 10e-5,-13.53102 10.96929,-24.49998 24.50031,-24.49981 z m -9.41234,5.19866 3.25303,5.63428 c -0.4582,0.2031 -0.90594,0.42904 -1.34152,0.67696 -0.43364,0.25043 -0.85447,0.52242 -1.26091,0.81494 l -3.23856,-5.60948 c -5.46004,3.70152 -8.9187,9.70464 -9.38237,16.28479 h 6.4673 c -0.0533,0.49816 -0.0815,0.99867 -0.0847,1.49966 0.003,0.50115 0.0314,1.00184 0.0847,1.50016 h -6.4673 c 0.46382,6.57997 3.92246,12.58287 9.38237,16.28428 l 3.24321,-5.61724 c 0.4049,0.2954 0.82435,0.57032 1.25677,0.82373 0.43375,0.25023 0.87977,0.47858 1.33636,0.68419 l -3.24838,5.62655 c 2.92993,1.43766 6.14871,2.18942 9.41234,2.19831 3.26315,-0.009 6.48139,-0.76123 9.41081,-2.19884 l -3.25305,-5.63428 c 0.4582,-0.20293 0.90594,-0.42869 1.34154,-0.67643 0.43242,-0.25341 0.85187,-0.52833 1.25677,-0.82373 l 3.24321,5.61827 c 5.46025,-3.70142 8.91911,-9.70456 9.38289,-16.28481 h -6.46731 c 0.0533,-0.49832 0.0815,-0.99901 0.0847,-1.50016 -1.1e-4,-0.50083 -0.0253,-1.00135 -0.0755,-1.49966 h 6.45803 c -0.46379,-6.58024 -3.92265,-12.58338 -9.38289,-16.28479 l -3.24321,5.61774 c -0.40491,-0.29522 -0.82436,-0.56996 -1.25677,-0.8232 -0.4356,-0.24774 -0.88334,-0.4735 -1.34154,-0.67643 l 3.25355,-5.63481 c -2.92958,-1.43769 -6.14799,-2.18963 -9.41144,-2.18971 -3.26346,-8e-5 -6.48224,0.75187 -9.41213,2.18971 z m 10.73422,-0.15245 c 1.51455,0.10448 3.0119,0.38587 4.46123,0.83767 0.69738,0.21741 0.95234,0.94906 0.58705,1.58181 l -3.24167,5.61465 -0.0155,0.45683 -0.16846,0.59272 1.46502,0.53332 0.25217,-0.56224 0.46355,-0.59222 1.21026,-0.90125 0.79531,0.45889 -0.17518,1.49913 -0.28112,0.69763 -0.36071,0.49921 1.19425,1.00201 0.42889,-0.44183 0.38706,-0.24135 3.24218,-5.61568 c 0.22833,-0.39544 0.61137,-0.60034 0.99737,-0.57721 0.23159,0.0138 0.4639,0.11017 0.66506,0.29609 2.89618,2.67671 4.91342,6.16998 5.78363,10.01647 0.16121,0.71247 -0.34425,1.29913 -1.07487,1.29913 h -6.48382 l -0.4031,0.21497 -0.59737,0.15039 0.27077,1.5353 0.61291,-0.063 0.74464,0.10543 1.38544,0.59788 v 0.91829 l -1.38544,0.59791 -0.74464,0.10541 -0.61291,-0.0631 -0.27077,1.53532 0.59737,0.15036 0.4031,0.21498 h 6.48332 c 0.73062,0 1.23608,0.58668 1.07487,1.29915 -0.87019,3.84623 -2.88724,7.33928 -5.78313,10.01594 -0.53644,0.49583 -1.29715,0.35163 -1.66243,-0.28112 l -3.24165,-5.61464 -0.38759,-0.24186 -0.42889,-0.44183 -1.19425,1.00148 0.36071,0.49972 0.28112,0.69762 0.17518,1.49913 -0.79531,0.45889 -1.21026,-0.90122 -0.46355,-0.59222 -0.25217,-0.56224 -1.46502,0.5333 0.16846,0.59272 0.0155,0.45633 3.24167,5.61514 c 0.36529,0.63275 0.11033,1.3644 -0.58705,1.58181 -1.44933,0.45181 -2.94667,0.73269 -4.46123,0.83717 -0.72875,0.0503 -1.91517,0.0491 -2.64376,-0.004 -1.51186,-0.10925 -3.0056,-0.39431 -4.45141,-0.84958 -0.69676,-0.21939 -0.95133,-0.95271 -0.58601,-1.58544 l 3.23029,-5.59498 0.0155,-0.45633 0.16846,-0.59272 -1.46502,-0.53329 -0.25167,0.56224 -0.46353,0.59222 -1.21078,0.90122 -0.7953,-0.45889 0.17518,-1.49913 0.28112,-0.69763 0.3607,-0.49972 -1.19372,-1.00147 -0.42944,0.44182 -0.38757,0.24186 -3.23029,5.59501 c -0.3653,0.63257 -1.12579,0.77677 -1.66192,0.28059 -2.88814,-2.67282 -4.90099,-6.15818 -5.77174,-9.99577 -0.16164,-0.71237 0.34373,-1.29916 1.07436,-1.29916 h 6.4611 l 0.40308,-0.21497 0.59738,-0.15036 -0.27079,-1.53533 -0.61288,0.0631 -0.74466,-0.10541 -1.38596,-0.5979 v -0.91829 l 1.38596,-0.59788 0.74466,-0.10544 0.61288,0.063 0.27079,-1.5353 -0.59738,-0.15039 -0.40308,-0.21497 h -6.4611 c -0.73063,0 -1.23596,-0.58674 -1.07436,-1.29913 0.87056,-3.8377 2.88315,-7.32332 5.77123,-9.9963 0.20104,-0.18608 0.43356,-0.28213 0.66507,-0.2961 0.38585,-0.0233 0.76851,0.1814 0.99684,0.57669 l 3.23081,5.59604 0.38757,0.24135 0.42944,0.44183 1.19372,-1.002 -0.3607,-0.49922 -0.28112,-0.69762 -0.17518,-1.49913 0.7953,-0.4589 1.21078,0.90125 0.46353,0.59222 0.25167,0.56224 1.46502,-0.53332 -0.16846,-0.59272 -0.0155,-0.45683 -3.23029,-5.59498 c -0.36532,-0.63273 -0.11075,-1.36605 0.58601,-1.58544 1.44581,-0.45527 2.93955,-0.74033 4.45141,-0.84958 0.36429,-0.0262 0.84316,-0.0401 1.32188,-0.0405 0.47872,-4.3e-4 0.95751,0.0112 1.32188,0.0363 z m -1.32241,9.95392 c -5.24666,1.8e-4 -9.49979,4.25354 -9.49968,9.5002 1.9e-4,5.24645 4.25323,9.49948 9.49968,9.49966 5.24665,1.2e-4 9.50002,-4.25301 9.50021,-9.49966 1.1e-4,-5.24687 -4.25334,-9.50032 -9.50021,-9.5002 z m 0,0.99994 c 4.69463,-1.5e-4 8.50041,3.80563 8.50027,8.50026 -1.4e-4,4.69442 -3.80585,8.49989 -8.50027,8.49974 -4.69422,-1.4e-4 -8.4996,-3.80552 -8.49974,-8.49974 -1.4e-4,-4.69442 3.80532,-8.50012 8.49974,-8.50026 z m 0,0.49971 c -1.38059,2.3e-4 -2.49965,1.11952 -2.49959,2.50011 -6e-5,1.38059 1.119,2.49987 2.49959,2.5001 1.38079,6e-5 2.50017,-1.11931 2.50011,-2.5001 6e-5,-1.3808 -1.11931,-2.50017 -2.50011,-2.50011 z m 0,1.25006 c 0.6904,-3e-5 1.25009,0.55965 1.25006,1.25005 3e-5,0.6904 -0.55966,1.25008 -1.25006,1.25005 -0.6904,3e-5 -1.25008,-0.55965 -1.25005,-1.25005 -3e-5,-0.6904 0.55965,-1.25008 1.25005,-1.25005 z m -5.49992,4.24986 c -1.38039,2.3e-4 -2.49936,1.11919 -2.49959,2.49958 -7e-5,1.3806 1.11899,2.49989 2.49959,2.50012 1.3808,6e-5 2.50018,-1.11932 2.50011,-2.50012 -2.3e-4,-1.38059 -1.11952,-2.49964 -2.50011,-2.49958 z m 11.00037,0 c -1.3808,-6e-5 -2.50017,1.11931 -2.50011,2.50011 -6e-5,1.38079 1.11932,2.50016 2.50011,2.5001 1.38059,-2.2e-4 2.49966,-1.11951 2.4996,-2.5001 6e-5,-1.3806 -1.119,-2.49989 -2.4996,-2.50011 z m -5.49993,0.50023 c -1.10468,-2.2e-4 -2.00033,0.8952 -2.0004,1.99988 -2.1e-4,1.10487 0.89553,2.0006 2.0004,2.00038 1.10467,-7e-5 2.00009,-0.89571 1.99988,-2.00038 -7e-5,-1.10448 -0.8954,-1.99981 -1.99988,-1.99988 z m -5.50044,0.7493 c 0.6904,-3e-5 1.25008,0.55965 1.25005,1.25005 4e-5,0.6904 -0.55965,1.2501 -1.25005,1.25007 -0.6902,-2.5e-4 -1.24958,-0.55987 -1.24954,-1.25007 -3e-5,-0.6902 0.55934,-1.2498 1.24954,-1.25005 z m 11.00037,0 c 0.6904,-3e-5 1.25008,0.55965 1.25005,1.25005 4e-5,0.6904 -0.55965,1.2501 -1.25005,1.25007 -0.69041,3e-5 -1.2501,-0.55966 -1.25006,-1.25007 -3e-5,-0.6904 0.55966,-1.25008 1.25006,-1.25005 z m -5.49992,4.25039 c -1.38079,-6e-5 -2.50016,1.11932 -2.5001,2.50011 -6e-5,1.38079 1.11931,2.50016 2.5001,2.5001 1.38079,6e-5 2.50017,-1.11931 2.50011,-2.5001 6e-5,-1.3808 -1.11931,-2.50017 -2.50011,-2.50011 z m 0,1.25006 c 0.6904,-3e-5 1.25008,0.55965 1.25005,1.25005 3e-5,0.6904 -0.55965,1.25008 -1.25005,1.25005 -0.6904,3e-5 -1.25008,-0.55965 -1.25005,-1.25005 -3e-5,-0.6904 0.55965,-1.25008 1.25005,-1.25005 z"
       sodipodi:nodetypes="ssssssssssssssssssssssssssssssssssssssssccccccccccccccccccccccccccccccccccsccccccccccccccccssssccccccccccccccssscccccccccccccccssscsscccccccccccccccsssccccccccccccccsssscccccccccccccccsscccsssssssssscccccsssssccccccccccccccccscscssssscccccsssss"
       inkscape:label="Engrave" />
  </g>
</svg>
