<?xml version="1.0" encoding="UTF-8"?>
<!-- Created with Inkscape (http://www.inkscape.org/) -->
<svg width="210mm" height="297mm" version="1.1" viewBox="0 0 210 297" xml:space="preserve" xmlns="http://www.w3.org/2000/svg"><g display="none"><text x="-201.49345" y="165.41911" fill="#000000" font-family="Sans" font-size="14.111px" stroke-width=".26458" xml:space="preserve"><tspan x="-201.49345" y="165.41911" font-family="'Digital Cards Demo'" font-size="14.111px" stroke-width=".26458" style="font-variant-caps:normal;font-variant-east-asian:normal;font-variant-ligatures:normal;font-variant-numeric:normal">SKTEK</tspan></text><path d="m-35.647 55.634h7.2223v16.512h-7.2223zm-14.232 21.346h7.2223v-26.181h-7.2223zm-13.993 13.542h7.2223v-53.264h-7.2223zm-13.302 10.449h7.2223v-73.675h-7.2223v73.658zm-14.241-17.992h7.2223v-38.179h-7.2223zm-14.467 28.889h7.2223v-97.59h-7.245v97.59zm-14.237 13.992h7.2223v-123.94h-7.2223zm-13.993-19.134h7.2223v-85.672h-7.2223v85.673zm-14.476-24.329h7.2223v-36.111h-7.2223zm-13.993-8.6085h7.2223v-19.828h-7.2223v19.861zm-13.993 10.608h7.2223v-41.027h-7.2223v41.04zm-13.767 19.86h7.2223v-83.081h-7.2219v83.096zm-13.993-12.693h7.2223v-56.062h-7.2223v56.076zm-14.259-14.584h7.2223v-26.181h-7.2223z" stroke-width=".41341"/><g fill="none" stroke="#000" stroke-width="1.5"><path d="m-17.263 83.344v5.5562" stroke-linecap="round" stroke-linejoin="round"/><circle transform="translate(-52.759 18.802)" cx="35.489" cy="62.166" r="1.6368"/><path d="m-17.264 88.9h3.9687" stroke-linecap="round" stroke-linejoin="round"/><path d="m-13.268 88.927v5.5562" stroke-linecap="round" stroke-linejoin="round"/></g><path d="m193.3 128.02h7.2223v16.512h-7.2223zm-14.232 21.346h7.2223v-26.181h-7.2223zm-13.993 13.542h7.2223v-53.264h-7.2223zm-13.302 10.449h7.2223v-73.675h-7.2223v73.658zm-14.241-17.992h7.2223v-38.179h-7.2223zm-14.467 28.889h7.2223v-97.59h-7.245v97.59zm-14.237 13.992h7.2223v-123.94h-7.2223zm-13.993-19.134h7.2223v-85.672h-7.2223v85.673zm-14.476-24.329h7.2223v-36.111h-7.2223zm-13.993-8.6085h7.2223v-19.828h-7.2223v19.861zm-13.993 10.608h7.2223v-41.027h-7.2223v41.04zm-13.767 19.86h7.2223v-83.081h-7.2219v83.096zm-13.993-12.693h7.2223v-56.062h-7.2223v56.076zm-14.259-14.584h7.2223v-26.181h-7.2223z" opacity=".30771" stroke-width=".41341"/><rect x="45.103" y="127.05" width="120.67" height="18.451" opacity=".30771" stroke-width=".26458"/><path d="m8.4667 136.28h192.62" fill="none" opacity=".44316" stroke="#b90000" stroke-linecap="round" stroke-linejoin="round" stroke-width="1.5"/></g><g stroke="#4ca2a8"><path d="m68.568 140.22q0.254 0 0.47977-0.0988t0.39511-0.26811q0.16933-0.16933 0.26811-0.39511 0.09878-0.22577 0.09878-0.47977 0-0.26811-0.09878-0.49388-0.09878-0.22578-0.26811-0.39511-0.16933-0.16933-0.39511-0.26811-0.22578-0.0988-0.47977-0.0988h-16.312q-0.86077 0-1.6228-0.32455-0.76199-0.33867-1.3264-0.90311t-0.9031-1.3264q-0.32455-0.76199-0.32455-1.6369 0-0.86077 0.32455-1.6228 0.33866-0.76199 0.9031-1.3264t1.3264-0.889q0.76199-0.33862 1.6228-0.33862h20.546v2.9774h-20.546q-0.49388 0-0.84666 0.35277-0.33866 0.35278-0.33866 0.84666 0 0.508 0.33866 0.86078 0.35278 0.35277 0.84666 0.35277h16.312q0.87488 0 1.6369 0.33866 0.7761 0.32456 1.3547 0.90311 0.57855 0.56444 0.9031 1.3405 0.33866 0.77611 0.33866 1.651t-0.33866 1.651q-0.32455 0.76199-0.9031 1.3405t-1.3547 0.91722q-0.76199 0.32455-1.6369 0.32455h-20.489v-2.9915zm6.9426 2.9633v-13.829h2.9774v8.2973l12.643-8.2973h5.4468q-0.60677 0.39511-1.2559 0.83255-0.635 0.42333-1.3405 0.87488-1.1994 0.80433-2.7658 1.8344-1.5663 1.016-3.3443 2.1731l9.4403 8.142h-4.572l-7.4788-6.4346zm41.599-8.4384h19.939v2.9774h-16.947v2.4976h18.147v2.9915h-21.138zm-17.596-2.413v-2.9774h15.056v13.857h-2.9774v-10.88zm17.596-2.9774h21.138v2.9774h-21.138zm23.89 13.829v-13.829h2.9774v8.2973l12.643-8.2973h5.4468q-0.60677 0.39511-1.2559 0.83255-0.63499 0.42333-1.3405 0.87488-1.1994 0.80433-2.7658 1.8344-1.5663 1.016-3.3443 2.1731l9.4403 8.142h-4.572l-7.4788-6.4346z" fill="#4378cd" stroke-width=".26458" aria-label="SKTEK"/><g fill="none" stroke-width="1.5"><g transform="translate(71.81 31.816)"><path d="m-17.263 83.344v5.5562" stroke-linecap="round" stroke-linejoin="round"/><circle transform="translate(-52.759 18.802)" cx="35.489" cy="62.166" r="1.6368"/><path d="m-17.264 88.9h3.9687" stroke-linecap="round" stroke-linejoin="round"/><path d="m-13.268 88.927v5.5562" stroke-linecap="round" stroke-linejoin="round"/></g><g transform="translate(101.24 31.585)"><path d="m-17.263 92.009v2.6789" stroke-linecap="round" stroke-linejoin="round"/><circle cx="-17.304" cy="90.261" r="1.6368"/><path d="m-17.263 117.16v-2.6789" stroke-linecap="round" stroke-linejoin="round"/><circle transform="scale(1,-1)" cx="-17.304" cy="-118.91" r="1.6368"/></g><g transform="matrix(-1 0 0 1 82.497 31.816)"><path d="m-17.263 66.132v11.262" stroke-linecap="round" stroke-linejoin="round"/><circle cx="-17.27" cy="64.13" r="1.6368"/><g stroke-linecap="round" stroke-linejoin="round"><path d="m-17.264 77.394 3.9687 0.09354"/><path d="m-13.268 77.608v16.875"/><path d="m-17.263 142.58v-11.263"/></g><circle transform="scale(1,-1)" cx="-17.27" cy="-144.58" r="1.6368"/><path d="m-17.264 131.31 3.9687-0.0935" stroke-linecap="round" stroke-linejoin="round"/><path d="m-13.268 131.1v-16.875" stroke-linecap="round" stroke-linejoin="round"/></g><g transform="matrix(-1 0 0 1 96.504 31.816)"><path d="m-17.263 46.674v17.507" stroke-linecap="round" stroke-linejoin="round"/><circle cx="-17.27" cy="44.953" r="1.6368"/><g stroke-linecap="round" stroke-linejoin="round"><path d="m-17.264 64.274 3.9687 0.02338"/><path d="m-13.268 64.418v30.065"/><path d="m-17.263 162.03v-17.507"/></g><circle transform="scale(1,-1)" cx="-17.27" cy="-163.75" r="1.6368"/><path d="m-17.264 144.43 3.9687-0.0234" stroke-linecap="round" stroke-linejoin="round"/><path d="m-13.268 144.29v-30.065" stroke-linecap="round" stroke-linejoin="round"/></g><g transform="translate(142.72 31.816)"><path d="m-17.263 58.929v10.327" stroke-linecap="round" stroke-linejoin="round"/><circle cx="-17.27" cy="57.114" r="1.6368"/><g stroke-linecap="round" stroke-linejoin="round"><path d="m-17.264 69.63 3.9687-4e-6"/><path d="m-13.268 69.563v24.92"/><path d="m-17.263 149.78v-10.327"/></g><circle transform="scale(1,-1)" cx="-17.27" cy="-151.59" r="1.6368"/><path d="m-17.264 139.08 3.9687 1e-5" stroke-linecap="round" stroke-linejoin="round"/><path d="m-13.268 139.15v-24.92" stroke-linecap="round" stroke-linejoin="round"/></g><g transform="translate(158.4 31.585)"><path d="m-17.263 89.857v4.8304" stroke-linecap="round" stroke-linejoin="round"/><circle cx="-17.304" cy="88.11" r="1.6368"/><path d="m-17.263 119.31v-4.8305" stroke-linecap="round" stroke-linejoin="round"/><circle transform="scale(1,-1)" cx="-17.304" cy="-121.06" r="1.6368"/></g><g transform="matrix(-1 0 0 1 139.12 31.816)"><path d="m-17.263 72.212v10.14" stroke-linecap="round" stroke-linejoin="round"/><circle cx="-17.27" cy="70.304" r="1.6368"/><g stroke-linecap="round" stroke-linejoin="round"><path d="m-17.077 82.352 3.7817-0.02339"/><path d="m-13.268 82.472v12.011"/><path d="m-17.263 136.5v-10.14"/></g><circle transform="scale(1,-1)" cx="-17.27" cy="-138.4" r="1.6368"/><path d="m-17.077 126.36 3.7817 0.0234" stroke-linecap="round" stroke-linejoin="round"/><path d="m-13.268 126.24v-12.011" stroke-linecap="round" stroke-linejoin="round"/></g><g transform="matrix(-1 0 0 1 152.72 41.871)"><path d="m-17.263 72.212v10.14" stroke-linecap="round" stroke-linejoin="round"/><circle cx="-17.27" cy="70.304" r="1.6368"/><g stroke-linecap="round" stroke-linejoin="round"><path d="m-17.077 82.352 3.7817-0.02339"/><path d="m-13.268 82.472v12.011"/><path d="m-17.263 116.39v-10.14"/></g><circle transform="scale(1,-1)" cx="-17.27" cy="-118.3" r="1.6368"/><path d="m-17.077 106.25 3.7817 0.0234" stroke-linecap="round" stroke-linejoin="round"/><path d="m-13.268 106.13v-12.011" stroke-linecap="round" stroke-linejoin="round"/></g><g transform="translate(199.67 37.406)"><path d="m-17.263 89.857v8.9315" stroke-linecap="round" stroke-linejoin="round"/><circle cx="-17.304" cy="88.11" r="1.6368"/><path d="m-17.263 107.67v-8.9315" stroke-linecap="round" stroke-linejoin="round"/><circle transform="scale(1,-1)" cx="-17.304" cy="-109.42" r="1.6368"/></g><g transform="translate(213.96 37.406)"><path d="m-17.263 95.423v3.3656" stroke-linecap="round" stroke-linejoin="round"/><circle cx="-17.304" cy="93.021" r="1.6368"/><path d="m-17.263 102.11v-3.3656" stroke-linecap="round" stroke-linejoin="round"/><circle transform="scale(1,-1)" cx="-17.304" cy="-104.51" r="1.6368"/></g><g transform="translate(86.957 31.585)"><circle cx="-17.304" cy="93.139" r="1.6368"/><circle transform="scale(1,-1)" cx="-17.304" cy="-116.03" r="1.6368"/></g><g transform="translate(58.052 31.816)"><path d="m-17.263 66.132v17.083" stroke-linecap="round" stroke-linejoin="round"/><circle cx="-17.27" cy="64.13" r="1.6368"/><g stroke-linecap="round" stroke-linejoin="round"><path d="m-17.264 83.215 3.9687 0.02739"/><path d="m-13.268 83.363v21.108"/><path d="m-17.263 142.58v-17.083"/></g><circle transform="scale(1,-1)" cx="-17.27" cy="-144.58" r="1.6368"/><path d="m-17.264 125.49 3.9687-0.0274" stroke-linecap="round" stroke-linejoin="round"/><path d="m-13.268 125.35v-21.109" stroke-linecap="round" stroke-linejoin="round"/></g><g transform="translate(31.395 37.406)"><path d="m-17.263 89.857v8.9315" stroke-linecap="round" stroke-linejoin="round"/><circle cx="-17.304" cy="88.11" r="1.6368"/><path d="m-17.263 107.67v-8.9315" stroke-linecap="round" stroke-linejoin="round"/><circle transform="scale(1,-1)" cx="-17.304" cy="-109.42" r="1.6368"/></g><g transform="translate(45.682 37.406)"><path d="m-17.263 74.908v23.88" stroke-linecap="round" stroke-linejoin="round"/><circle cx="-17.304" cy="72.962" r="1.6368"/><path d="m-17.263 122.62v-23.881" stroke-linecap="round" stroke-linejoin="round"/><circle transform="scale(1,-1)" cx="-17.304" cy="-124.57" r="1.6368"/></g><g transform="matrix(1 0 0 -1 71.81 240.52)"><path d="m-17.263 83.344v5.5562" stroke-linecap="round" stroke-linejoin="round"/><circle transform="translate(-52.759 18.802)" cx="35.489" cy="62.166" r="1.6368"/><path d="m-17.264 88.9h3.9687" stroke-linecap="round" stroke-linejoin="round"/><path d="m-13.268 88.927v5.5562" stroke-linecap="round" stroke-linejoin="round"/></g><g transform="matrix(1 0 0 -1 101.24 240.76)"><path d="m-17.263 92.009v2.6789" stroke-linecap="round" stroke-linejoin="round"/><circle cx="-17.304" cy="90.261" r="1.6368"/><path d="m-17.263 92.009v2.6789" stroke-linecap="round" stroke-linejoin="round"/><circle cx="-17.304" cy="90.261" r="1.6368"/></g><g transform="rotate(180 41.249 120.26)"><path d="m-17.263 66.132v11.262" stroke-linecap="round" stroke-linejoin="round"/><circle cx="-17.27" cy="64.13" r="1.6368"/><g stroke-linecap="round" stroke-linejoin="round"><path d="m-17.264 77.394 3.9687 0.09354"/><path d="m-13.268 77.608v16.875"/><path d="m-17.263 66.132v11.262"/></g><circle cx="-17.27" cy="64.13" r="1.6368"/><path d="m-17.264 77.394 3.9687 0.09354" stroke-linecap="round" stroke-linejoin="round"/><path d="m-13.268 77.608v16.875" stroke-linecap="round" stroke-linejoin="round"/></g><g transform="rotate(180 48.252 120.26)"><path d="m-17.263 46.674v17.507" stroke-linecap="round" stroke-linejoin="round"/><circle cx="-17.27" cy="44.953" r="1.6368"/><g stroke-linecap="round" stroke-linejoin="round"><path d="m-17.264 64.274 3.9687 0.02338"/><path d="m-13.268 64.418v30.065"/><path d="m-17.263 46.674v17.507"/></g><circle cx="-17.27" cy="44.953" r="1.6368"/><path d="m-17.264 64.274 3.9687 0.02338" stroke-linecap="round" stroke-linejoin="round"/><path d="m-13.268 64.418v30.065" stroke-linecap="round" stroke-linejoin="round"/></g><g transform="matrix(1 0 0 -1 142.72 240.52)"><path d="m-17.263 58.929v10.327" stroke-linecap="round" stroke-linejoin="round"/><circle cx="-17.27" cy="57.114" r="1.6368"/><g stroke-linecap="round" stroke-linejoin="round"><path d="m-17.264 69.63 3.9687-4e-6"/><path d="m-13.268 69.563v24.92"/><path d="m-17.263 58.929v10.327"/></g><circle cx="-17.27" cy="57.114" r="1.6368"/><path d="m-17.264 69.63 3.9687-4e-6" stroke-linecap="round" stroke-linejoin="round"/><path d="m-13.268 69.563v24.92" stroke-linecap="round" stroke-linejoin="round"/></g><g transform="matrix(1 0 0 -1 158.4 240.76)"><path d="m-17.263 89.857v4.8304" stroke-linecap="round" stroke-linejoin="round"/><circle cx="-17.304" cy="88.11" r="1.6368"/><path d="m-17.263 89.857v4.8304" stroke-linecap="round" stroke-linejoin="round"/><circle cx="-17.304" cy="88.11" r="1.6368"/></g><g transform="rotate(180 69.559 120.26)"><path d="m-17.263 72.212v10.14" stroke-linecap="round" stroke-linejoin="round"/><circle cx="-17.27" cy="70.304" r="1.6368"/><g stroke-linecap="round" stroke-linejoin="round"><path d="m-17.077 82.352 3.7817-0.02339"/><path d="m-13.268 82.472v12.011"/><path d="m-17.263 72.212v10.14"/></g><circle cx="-17.27" cy="70.304" r="1.6368"/><path d="m-17.077 82.352 3.7817-0.02339" stroke-linecap="round" stroke-linejoin="round"/><path d="m-13.268 82.472v12.011" stroke-linecap="round" stroke-linejoin="round"/></g><g transform="rotate(180 76.361 115.23)"><path d="m-17.263 72.212v10.14" stroke-linecap="round" stroke-linejoin="round"/><circle cx="-17.27" cy="70.304" r="1.6368"/><g stroke-linecap="round" stroke-linejoin="round"><path d="m-17.077 82.352 3.7817-0.02339"/><path d="m-13.268 82.472v12.011"/><path d="m-17.263 72.212v10.14"/></g><circle cx="-17.27" cy="70.304" r="1.6368"/><path d="m-17.077 82.352 3.7817-0.02339" stroke-linecap="round" stroke-linejoin="round"/><path d="m-13.268 82.472v12.011" stroke-linecap="round" stroke-linejoin="round"/></g><g transform="matrix(1 0 0 -1 199.67 234.94)"><path d="m-17.263 89.857v8.9315" stroke-linecap="round" stroke-linejoin="round"/><circle cx="-17.304" cy="88.11" r="1.6368"/><path d="m-17.263 89.857v8.9315" stroke-linecap="round" stroke-linejoin="round"/><circle cx="-17.304" cy="88.11" r="1.6368"/></g><g transform="matrix(1 0 0 -1 213.96 234.94)"><path d="m-17.263 95.423v3.3656" stroke-linecap="round" stroke-linejoin="round"/><circle cx="-17.304" cy="93.021" r="1.6368"/><path d="m-17.263 95.423v3.3656" stroke-linecap="round" stroke-linejoin="round"/><circle cx="-17.304" cy="93.021" r="1.6368"/></g><g transform="matrix(1 0 0 -1 86.957 240.76)"><circle cx="-17.304" cy="93.139" r="1.6368"/><circle cx="-17.304" cy="93.139" r="1.6368"/></g><g transform="matrix(1 0 0 -1 58.052 240.52)"><path d="m-17.263 66.132v17.083" stroke-linecap="round" stroke-linejoin="round"/><circle cx="-17.27" cy="64.13" r="1.6368"/><g stroke-linecap="round" stroke-linejoin="round"><path d="m-17.264 83.215 3.9687 0.02739"/><path d="m-13.268 83.363v21.108"/><path d="m-17.263 66.132v17.083"/></g><circle cx="-17.27" cy="64.13" r="1.6368"/><path d="m-17.264 83.215 3.9687 0.02739" stroke-linecap="round" stroke-linejoin="round"/><path d="m-13.268 83.363v21.108" stroke-linecap="round" stroke-linejoin="round"/></g><g transform="matrix(1 0 0 -1 31.395 234.94)"><path d="m-17.263 89.857v8.9315" stroke-linecap="round" stroke-linejoin="round"/><circle cx="-17.304" cy="88.11" r="1.6368"/><path d="m-17.263 89.857v8.9315" stroke-linecap="round" stroke-linejoin="round"/><circle cx="-17.304" cy="88.11" r="1.6368"/></g><g transform="matrix(1 0 0 -1 45.682 234.94)"><path d="m-17.263 74.908v23.88" stroke-linecap="round" stroke-linejoin="round"/><circle cx="-17.304" cy="72.962" r="1.6368"/><path d="m-17.263 74.908v23.88" stroke-linecap="round" stroke-linejoin="round"/><circle cx="-17.304" cy="72.962" r="1.6368"/></g></g></g></svg>
