<svg xmlns="http://www.w3.org/2000/svg" version="1.0" width="300mm" height="200mm" viewBox="0 0 300 200"><path fill="none" stroke="DarkBlue" stroke-width="0.1" d="M 0,50 C 10 51.53 24.62 56.92 18.92 45.92 C 13.23 34.92 35.23 34.92 29.92 45.92 C 24.62 56.92 40 48.39 50 50 C 60 51.61 72.88 53.73 67.73 42.73 C 62.59 31.73 84.59 31.73 78.73 42.73 C 72.88 53.73 90 49.85 100 50 C 110 50.15 125.82 55.6 120.73 44.6 C 115.64 33.6 137.64 33.6 131.73 44.6 C 125.82 55.6 140 48.32 150 50 C 160 51.68 173.91 56.38 169.2 45.38 C 164.5 34.38 186.5 34.38 180.2 45.38 C 173.91 56.38 190 51.79 200 50 C 210 48.21 221.64 54.64 217.53 43.64 C 213.42 32.64 235.42 32.64 228.53 43.64 C 221.64 54.64 240 51.33 250 50 C 260 48.67 275.31 45.4 270.9 56.4 C 266.49 67.4 288.49 67.4 281.9 56.4 C 275.31 45.4 290 48.65 300 50 M 0,100 C 10 100.11 24.1 105.46 18.9 94.46 C 13.7 83.46 35.7 83.46 29.9 94.46 C 24.1 105.46 40 101.13 50 100 C 60 98.87 76.72 104.51 70.31 93.51 C 63.9 82.51 85.9 82.51 81.31 93.51 C 76.72 104.51 90 99.34 100 100 C 110 100.66 126.06 107.46 119.58 96.46 C 113.1 85.46 135.1 85.46 130.58 96.46 C 126.06 107.46 140 99.28 150 100 C 160 100.72 175.43 95.54 169.36 106.54 C 163.29 117.54 185.29 117.54 180.36 106.54 C 175.43 95.54 190 101.45 200 100 C 210 98.55 222.88 96.09 218.71 107.09 C 214.54 118.09 236.54 118.09 229.71 107.09 C 222.88 96.09 240 101.23 250 100 C 260 98.77 275.01 107.38 270.83 96.38 C 266.65 85.38 288.65 85.38 281.83 96.38 C 275.01 107.38 290 98.57 300 100 M 0,150 C 10 148.18 27.2 145.15 21.43 156.15 C 15.66 167.15 37.66 167.15 32.43 156.15 C 27.2 145.15 40 148.78 50 150 C 60 151.22 75.95 143.63 71.31 154.63 C 66.68 165.63 88.68 165.63 82.31 154.63 C 75.95 143.63 90 151.2 100 150 C 110 148.8 124.04 155.29 119.72 144.29 C 115.39 133.29 137.39 133.29 130.72 144.29 C 124.04 155.29 140 149.25 150 150 C 160 150.75 175.83 143.57 169.52 154.57 C 163.2 165.57 185.2 165.57 180.52 154.57 C 175.83 143.57 190 148.74 200 150 C 210 151.26 225.79 157.33 221.12 146.33 C 216.45 135.33 238.45 135.33 232.12 146.33 C 225.79 157.33 240 150.23 250 150 C 260 149.77 274.11 157.31 269.22 146.31 C 264.33 135.31 286.33 135.31 280.22 146.31 C 274.11 157.31 290 148.93 300 150 "></path><path fill="none" stroke="DarkRed" stroke-width="0.1" d="M 50,0 C 49.6 10 56.79 25.49 45.79 18.16 C 34.79 10.83 34.79 32.83 45.79 29.16 C 56.79 25.49 50.44 40 50 50 C 49.56 60 44.13 75.89 55.13 70.33 C 66.13 64.76 66.13 86.76 55.13 81.33 C 44.13 75.89 51.93 90 50 100 C 48.07 110 44.42 124.03 55.42 117.78 C 66.42 111.53 66.42 133.53 55.42 128.78 C 44.42 124.03 51.89 140 50 150 C 48.11 160 56.87 177.61 45.87 171.45 C 34.87 165.29 34.87 187.29 45.87 182.45 C 56.87 177.61 49.49 190 50 200 M 100,0 C 98.52 10 104.95 23.45 93.95 19.91 C 82.95 16.36 82.95 38.36 93.95 30.91 C 104.95 23.45 101.63 40 100 50 C 98.37 60 95.57 72.73 106.57 68.91 C 117.57 65.08 117.57 87.08 106.57 79.91 C 95.57 72.73 99.44 90 100 100 C 100.56 110 94.45 125.81 105.45 120.46 C 116.45 115.12 116.45 137.12 105.45 131.46 C 94.45 125.81 100.9 140 100 150 C 99.1 160 92.94 174.91 103.94 170.03 C 114.94 165.14 114.94 187.14 103.94 181.03 C 92.94 174.91 101.85 190 100 200 M 150,0 C 151.35 10 145.86 24.46 156.86 18.32 C 167.86 12.18 167.86 34.18 156.86 29.32 C 145.86 24.46 151.52 40 150 50 C 148.48 60 156.12 76.27 145.12 69.5 C 134.12 62.72 134.12 84.72 145.12 80.5 C 156.12 76.27 150.48 90 150 100 C 149.52 110 155.33 126.74 144.33 120.04 C 133.33 113.34 133.33 135.34 144.33 131.04 C 155.33 126.74 150.2 140 150 150 C 149.8 160 156.58 173.52 145.58 169.18 C 134.58 164.83 134.58 186.83 145.58 180.18 C 156.58 173.52 148.7 190 150 200 M 200,0 C 199.39 10 206.38 24.88 195.38 20.67 C 184.38 16.47 184.38 38.47 195.38 31.67 C 206.38 24.88 201.63 40 200 50 C 198.37 60 192.56 75.75 203.56 68.96 C 214.56 62.17 214.56 84.17 203.56 79.96 C 192.56 75.75 198.42 90 200 100 C 201.58 110 194.6 125.18 205.6 118.63 C 216.6 112.08 216.6 134.08 205.6 129.63 C 194.6 125.18 200.45 140 200 150 C 199.55 160 206.09 173.74 195.09 169.59 C 184.09 165.44 184.09 187.44 195.09 180.59 C 206.09 173.74 199.25 190 200 200 M 250,0 C 250.79 10 256.01 24.95 245.01 19.18 C 234.01 13.42 234.01 35.42 245.01 30.18 C 256.01 24.95 250.9 40 250 50 C 249.1 60 244.4 73.86 255.4 68.57 C 266.4 63.28 266.4 85.28 255.4 79.57 C 244.4 73.86 250.17 90 250 100 C 249.83 110 256 128.54 245 121.14 C 234 113.73 234 135.73 245 132.14 C 256 128.54 251.85 140 250 150 C 248.15 160 244.63 171.71 255.63 167.59 C 266.63 163.47 266.63 185.47 255.63 178.59 C 244.63 171.71 249.38 190 250 200 "></path><path fill="none" stroke="Black" stroke-width="0.1" d="M 0 0 L 300 0 A 0 0 0 0 1 300 0 L 300 200 A 0 0 0 0 1 300 200 L 0 200 A 0 0 0 0 1 0 200 L 0 0 A 0 0 0 0 1 0 0 "></path></svg>