<svg xmlns="http://www.w3.org/2000/svg" version="1.0" width="280mm" height="210mm" viewBox="0 0 280 210"><path fill="none" stroke="DarkBlue" stroke-width="0.1" d="M 0,70 C 14 67.86 34.47 79.69 26.49 64.29 C 18.52 48.89 49.32 48.89 41.89 64.29 C 34.47 79.69 56 67.75 70 70 C 84 72.25 102.03 75.23 94.82 59.83 C 87.62 44.43 118.42 44.43 110.22 59.83 C 102.03 75.23 126 69.78 140 70 C 154 70.22 176.15 77.85 169.02 62.45 C 161.9 47.05 192.7 47.05 184.42 62.45 C 176.15 77.85 196 67.65 210 70 C 224 72.35 243.48 78.93 236.89 63.53 C 230.3 48.13 261.1 48.13 252.29 63.53 C 243.48 78.93 266 72.5 280 70 M 0,140 C 14 139.58 34.38 149.23 28.56 133.83 C 22.75 118.43 53.55 118.43 43.96 133.83 C 34.38 149.23 56 141.81 70 140 C 84 138.19 101.99 129.82 94.87 145.22 C 87.75 160.62 118.55 160.62 110.27 145.22 C 101.99 129.82 126 139.85 140 140 C 154 140.15 173.74 147.65 166.46 132.25 C 159.17 116.85 189.97 116.85 181.86 132.25 C 173.74 147.65 196 141.58 210 140 C 224 138.42 247.41 146.31 238.43 130.91 C 229.45 115.51 260.25 115.51 253.83 130.91 C 247.41 146.31 266 139.07 280 140 "></path><path fill="none" stroke="DarkRed" stroke-width="0.1" d="M 70,0 C 68.31 14 63.1 38.49 78.5 28.76 C 93.9 19.03 93.9 49.83 78.5 44.16 C 63.1 38.49 67.93 56 70 70 C 72.07 84 60.44 108.95 75.84 99.53 C 91.24 90.11 91.24 120.91 75.84 114.93 C 60.44 108.95 70.72 126 70 140 C 69.28 154 79.55 174.37 64.15 164.67 C 48.75 154.96 48.75 185.76 64.15 180.07 C 79.55 174.37 67.97 196 70 210 M 140,0 C 141.52 14 147.32 34.2 131.92 28.21 C 116.52 22.23 116.52 53.03 131.92 43.61 C 147.32 34.2 140.36 56 140 70 C 139.64 84 148.92 105.45 133.52 96.08 C 118.12 86.71 118.12 117.51 133.52 111.48 C 148.92 105.45 139.34 126 140 140 C 140.66 154 149.35 176.34 133.95 167.6 C 118.55 158.86 118.55 189.66 133.95 183 C 149.35 176.34 141.83 196 140 210 M 210,0 C 212.27 14 201.97 35.63 217.37 26.14 C 232.77 16.65 232.77 47.45 217.37 41.54 C 201.97 35.63 209.61 56 210 70 C 210.39 84 203.8 105.58 219.2 96.45 C 234.6 87.32 234.6 118.12 219.2 111.85 C 203.8 105.58 211.44 126 210 140 C 208.56 154 202.98 171.79 218.38 164.65 C 233.78 157.51 233.78 188.31 218.38 180.05 C 202.98 171.79 211.26 196 210 210 "></path><path fill="none" stroke="Black" stroke-width="0.1" d="M 0 0 L 280 0 A 0 0 0 0 1 280 0 L 280 210 A 0 0 0 0 1 280 210 L 0 210 A 0 0 0 0 1 0 210 L 0 0 A 0 0 0 0 1 0 0 "></path></svg>