<?xml version="1.0" encoding="UTF-8" standalone="no"?>
<svg
   viewBox="0 0 793.7007874015749 1122.5196850393702"
   width="793.7007874015749"
   height="1122.5196850393702"
   version="1.1"
   id="svg166"
   sodipodi:docname="Box Template.svg"
   inkscape:version="1.4.2 (f4327f4, 2025-05-13)"
   xmlns:inkscape="http://www.inkscape.org/namespaces/inkscape"
   xmlns:sodipodi="http://sodipodi.sourceforge.net/DTD/sodipodi-0.dtd"
   xmlns="http://www.w3.org/2000/svg"
   xmlns:svg="http://www.w3.org/2000/svg">
  <sodipodi:namedview
     id="namedview166"
     pagecolor="#ffffff"
     bordercolor="#000000"
     borderopacity="0.25"
     inkscape:showpageshadow="2"
     inkscape:pageopacity="0.0"
     inkscape:pagecheckerboard="0"
     inkscape:deskcolor="#d1d1d1"
     inkscape:zoom="16"
     inkscape:cx="-16.625"
     inkscape:cy="1121.2812"
     inkscape:window-width="2560"
     inkscape:window-height="1494"
     inkscape:window-x="-11"
     inkscape:window-y="-11"
     inkscape:window-maximized="1"
     inkscape:current-layer="g166" />
  <desc
     id="desc1">laser-cut-craft-paper-box-hamper-box-paper-craft-gift-box-id.dxf - scale = 1.000000, origin = (0.000000, 0.000000), method = manual</desc>
  <defs
     id="defs4">
    <marker
       id="DistanceX"
       orient="auto"
       refX="0.0"
       refY="0.0"
       style="overflow:visible">
      <path
         d="M 3,-3 L -3,3 M 0,-5 L  0,5"
         style="stroke:#000000; stroke-width:0.5"
         id="path1" />
    </marker>
    <pattern
       id="Hatch"
       patternUnits="userSpaceOnUse"
       width="8"
       height="8"
       x="0"
       y="0">
      <path
         d="M8 4 l-4,4"
         stroke="#000000"
         stroke-width="0.25"
         linecap="square"
         id="path2" />
      <path
         d="M6 2 l-4,4"
         stroke="#000000"
         stroke-width="0.25"
         linecap="square"
         id="path3" />
      <path
         d="M4 0 l-4,4"
         stroke="#000000"
         stroke-width="0.25"
         linecap="square"
         id="path4" />
    </pattern>
    <symbol
       id="*Model_Space" />
    <symbol
       id="*Paper_Space" />
    <symbol
       id="*Paper_Space0" />
  </defs>
  <g
     inkscape:groupmode="layer"
     inkscape:label="0"
     id="g4" />
  <g
     inkscape:groupmode="layer"
     inkscape:label="Layer 1"
     id="g166">
    <path
       d="m -23.507843,1134.8522 h 12.688038 l -3.934191,2.8253 h -1.003122 c -1.448854,0 -2.623245,1.1741 -2.623245,2.623 v 1.9904 c 0,1.4487 1.174391,2.6231 2.623245,2.6231 h 1.00394 l 4.024498,2.817 v 9.7446 c 0,0.011 0.0046,0.023 0.01268,0.03 0.0081,0.01 0.01918,0.013 0.03061,0.013 h 7.423915 v 0.2554 c -1.34e-4,0.4477 0.085887,0.7881 0.244717,1.0452 0.11898,0.1932 0.278822,0.3387 0.469599,0.4465 0.286455,0.1623 0.641537,0.2411 1.042271,0.281 0.400853,0.04 0.847909,0.04 1.318862,0.04 h 0.568625 c 0.837493,-4e-4 1.598696,0 2.160372,-0.2243 0.280608,-0.113 0.511769,-0.2853 0.67048,-0.543 0.158918,-0.2571 0.244836,-0.5975 0.244717,-1.0452 v -0.2554 h 7.423899 c 0.01121,0 0.02254,0 0.03073,-0.013 0.0079,-0.01 0.01257,-0.019 0.01257,-0.03 v -9.7448 l 4.024617,-2.8168 h 1.003598 c 1.448839,0 2.623454,-1.1744 2.623454,-2.6231 v -1.9904 c 0,-1.4489 -1.174615,-2.623 -2.623454,-2.623 h -1.002691 l -3.934517,-2.8253 h 12.688037 l 3.309802,-0.3377 c 0.965592,-0.099 1.749193,-0.8461 1.749639,-1.8064 v -15.3318 c -4.46e-4,-0.9603 -0.786466,-1.6869 -1.749639,-1.8067 l -3.306258,-0.4113 H 11.118953 l 3.831623,-2.7514 h 1.003003 c 1.448839,0 2.623454,-1.1744 2.623454,-2.6232 v -1.9901 c 0,-1.4489 -1.174615,-2.6233 -2.623454,-2.6233 h -1.003598 l -4.024617,-2.817 v -19.6219 -5e-4 -0.7735 c 0,-1.1231 -0.910494,-2.0335 -2.033743,-2.0335 H -8.695175 c -1.123115,0 -2.033505,0.9104 -2.033505,2.0335 v 0.7735 5e-4 19.6217 l -4.024512,2.8172 h -1.003926 c -1.448854,0 -2.623245,1.1744 -2.623245,2.6233 v 1.9901 c 0,1.4488 1.174391,2.6232 2.623245,2.6232 h 1.003449 l 3.831281,2.7514 H -23.51131 l -3.306209,0.4114 c -0.963147,0.1198 -1.749177,0.8464 -1.749519,1.8067 v 15.3318 c 3.42e-4,0.9603 0.783997,1.7077 1.749519,1.8064 l 3.301857,0.3377 c 0.0026,3e-4 0.0053,3e-4 0.0078,0 z"
       style="fill:none;stroke:#000000;stroke-width:0.186;stroke-dasharray:none"
       id="path5"
       sodipodi:nodetypes="cccssssccscscsccsscccscsssccsssscccsccscccssssccccssssccccsssscccsccsccc" />
    <path
       d="m -13.85804,1130.0898 c -0.221147,0.7675 -0.923692,0.8578 -1.724759,0.8578 h -3.030898 c -0.8087,0 -1.570141,-0.1572 -1.697901,-0.8591"
       style="fill:none;stroke:#000000;stroke-width:0.186;stroke-dasharray:none"
       id="path162"
       sodipodi:nodetypes="cssc" />
    <path
       d="m 20.521957,1130.0729 c -0.221147,0.7675 -0.923693,0.8578 -1.724759,0.8578 h -3.030884 c -0.808715,0 -1.570156,-0.1572 -1.697915,-0.8592"
       style="fill:none;stroke:#000000;stroke-width:0.186;stroke-dasharray:none"
       id="path163"
       sodipodi:nodetypes="cssc" />
    <path
       d="m 20.523832,1119.7205 c -0.221147,-0.7675 -0.923693,-0.8578 -1.724774,-0.8578 h -3.030884 c -0.8087,0 -1.570156,0.1572 -1.697901,0.8592"
       style="fill:none;stroke:#000000;stroke-width:0.186;stroke-dasharray:none"
       id="path164"
       sodipodi:nodetypes="cssc" />
    <path
       d="m -13.871432,1119.7205 c -0.221147,-0.7675 -0.923692,-0.8578 -1.724759,-0.8578 h -3.030883 c -0.808715,0 -1.570156,0.1572 -1.697901,0.8592"
       style="fill:none;stroke:#000000;stroke-width:0.186;stroke-dasharray:none"
       id="path165"
       sodipodi:nodetypes="cssc" />
    <path
       d="m -3.371473,1092.5843 6.974032,-0.034"
       style="fill:none;stroke:#000000;stroke-width:0.186;stroke-dasharray:none"
       id="path166"
       sodipodi:nodetypes="cc" />
    <path
       id="path19"
       style="fill:none;stroke:#06ba00;stroke-width:0.186;stroke-dasharray:none;stroke-opacity:1"
       d="m 9.276151,1082.7051 c 0,0 0.431923,0 0.431923,0 m -1.871655,0 c 0,0 0.431922,0 0.431922,0 m -1.871669,0 c 0,0 0.431922,0 0.431922,0 m -1.871669,0 c 0,0 0.431922,0 0.431922,0 m -1.871654,0 c 0,0 0.431922,0 0.431922,0 m -1.871669,0 c 0,0 0.431922,0 0.431922,0 m -1.871655,0 c 0,0 0.431923,0 0.431923,0 m -1.87167,0 c 0,0 0.431923,0 0.431923,0 m -1.87167,0 c 0,0 0.431923,0 0.431923,0 m -1.871655,0 c 0,0 0.431923,0 0.431923,0 m -1.87167,0 c 0,0 0.431923,0 0.431923,0 m -1.871655,0 c 0,0 0.431923,0 0.431923,0 m -1.87167,0 c 0,0 0.431923,0 0.431923,0 m -1.87167,0 c 0,0 0.431923,0 0.431923,0" />
    <path
       id="path33"
       style="fill:none;stroke:#06ba00;stroke-width:0.186;stroke-dasharray:none;stroke-opacity:1"
       d="m 9.644625,1102.2676 c 0,0 0.431923,0 0.431923,0 m -1.871655,0 c 0,0 0.431923,0 0.431923,0 m -1.87167,0 c 0,0 0.431923,0 0.431923,0 m -1.87167,0 c 0,0 0.431923,0 0.431923,0 m -1.871655,0 c 0,0 0.431922,0 0.431922,0 m -1.871669,0 c 0,0 0.431922,0 0.431922,0 m -1.871654,0 c 0,0 0.431922,0 0.431922,0 m -1.871669,0 c 0,0 0.431922,0 0.431922,0 m -1.871669,0 c 0,0 0.431922,0 0.431922,0 m -1.871655,0 c 0,0 0.431923,0 0.431923,0 m -1.87167,0 c 0,0 0.431923,0 0.431923,0 m -1.871655,0 c 0,0 0.431923,0 0.431923,0 m -1.87167,0 c 0,0 0.431923,0 0.431923,0 m -1.87167,0 c 0,0 0.431923,0 0.431923,0" />
    <path
       id="path47"
       style="fill:none;stroke:#06ba00;stroke-width:0.186;stroke-dasharray:none;stroke-opacity:1"
       d="m 9.540212,1115.1659 c 0,0 0.431923,0 0.431923,0 m -1.871655,0 c 0,0 0.431923,0 0.431923,0 m -1.87167,0 c 0,0 0.431922,0 0.431922,0 m -1.871654,0 c 0,0 0.431922,0 0.431922,0 m -1.871669,0 c 0,0 0.431922,0 0.431922,0 m -1.871669,0 c 0,0 0.431922,0 0.431922,0 m -1.871655,0 c 0,0 0.431923,0 0.431923,0 m -1.87167,0 c 0,0 0.431923,0 0.431923,0 m -1.871655,0 c 0,0 0.431923,0 0.431923,0 m -1.87167,0 c 0,0 0.431923,0 0.431923,0 m -1.87167,0 c 0,0 0.431923,0 0.431923,0 m -1.871655,0 c 0,0 0.431923,0 0.431923,0 m -1.87167,0 c 0,0 0.431923,0 0.431923,0 m -1.871655,0 c 0,0 0.431922,0 0.431922,0" />
    <path
       id="path61"
       style="fill:none;stroke:#06ba00;stroke-width:0.186;stroke-dasharray:none;stroke-opacity:1"
       d="m 9.054751,1134.6953 c 0,0 0.431923,0 0.431923,0 m -1.87167,0 c 0,0 0.431923,0 0.431923,0 m -1.871655,0 c 0,0 0.431922,0 0.431922,0 m -1.871669,0 c 0,0 0.431922,0 0.431922,0 m -1.871654,0 c 0,0 0.431922,0 0.431922,0 m -1.871669,0 c 0,0 0.431922,0 0.431922,0 m -1.871669,0 c 0,0 0.431922,0 0.431922,0 m -1.871655,0 c 0,0 0.431923,0 0.431923,0 m -1.87167,0 c 0,0 0.431923,0 0.431923,0 m -1.871655,0 c 0,0 0.431923,0 0.431923,0 m -1.87167,0 c 0,0 0.431923,0 0.431923,0 m -1.87167,0 c 0,0 0.431923,0 0.431923,0 m -1.871655,0 c 0,0 0.431923,0 0.431923,0 m -1.87167,0 c 0,0 0.431923,0 0.431923,0" />
    <path
       id="path75"
       style="fill:none;stroke:#06ba00;stroke-width:0.186;stroke-dasharray:none;stroke-opacity:1"
       d="m 9.325984,1147.6003 c 0,0 0.431923,0 0.431923,0 m -1.87167,0 c 0,0 0.431923,0 0.431923,0 m -1.871655,0 c 0,0 0.431923,0 0.431923,0 m -1.87167,0 c 0,0 0.431923,0 0.431923,0 m -1.871655,0 c 0,0 0.431922,0 0.431922,0 m -1.871669,0 c 0,0 0.431922,0 0.431922,0 m -1.871669,0 c 0,0 0.431922,0 0.431922,0 m -1.871654,0 c 0,0 0.431922,0 0.431922,0 m -1.871669,0 c 0,0 0.431922,0 0.431922,0 m -1.871655,0 c 0,0 0.431923,0 0.431923,0 m -1.87167,0 c 0,0 0.431923,0 0.431923,0 m -1.87167,0 c 0,0 0.431923,0 0.431923,0 m -1.871655,0 c 0,0 0.431923,0 0.431923,0 m -1.87167,0 c 0,0 0.431923,0 0.431923,0" />
    <path
       id="path79"
       style="fill:none;stroke:#06ba00;stroke-width:0.186;stroke-dasharray:none;stroke-opacity:1"
       d="m 2.015634,1157.3664 c 0,0 0.431923,0 0.431923,0 m -1.87167,0 c 0,0 0.431923,0 0.431923,0 m -1.87167,0 c 0,0 0.431922,0 0.431922,0 m -1.871654,0 c 0,0 0.431922,0 0.431922,0" />
    <path
       id="path92"
       style="fill:none;stroke:#06ba00;stroke-width:0.186;stroke-dasharray:none;stroke-opacity:1"
       d="m -10.657077,1115.9619 c 0,0 0,-0.4682 0,-0.4682 m 0,2.029 c 0,0 0,-0.4683 0,-0.4683 m 0,2.0291 c 0,0 0,-0.4683 0,-0.4683 m 0,2.0291 c 0,0 0,-0.4683 0,-0.4683 m 0,2.029 c 0,0 0,-0.4682 0,-0.4682 m 0,2.029 c 0,0 0,-0.4682 0,-0.4682 m 0,2.029 c 0,0 0,-0.4682 0,-0.4682 m 0,2.029 c 0,0 0,-0.4683 0,-0.4683 m 0,2.0291 c 0,0 0,-0.4683 0,-0.4683 m 0,2.0291 c 0,0 0,-0.4683 0,-0.4683 m 0,2.029 c 0,0 0,-0.4682 0,-0.4682 m 0,2.029 c 0,0 0,-0.4682 0,-0.4682 m 0,2.029 c 0,0 0,-0.4682 0,-0.4682" />
    <path
       id="path100"
       style="fill:none;stroke:#06ba00;stroke-width:0.186;stroke-dasharray:none;stroke-opacity:1"
       d="m -10.657077,1103.4756 c 0,0 0,-0.4682 0,-0.4682 m 0,2.029 c 0,0 0,-0.4682 0,-0.4682 m 0,2.029 c 0,0 0,-0.4682 0,-0.4682 m 0,2.029 c 0,0 0,-0.4682 0,-0.4682 m 0,2.029 c 0,0 0,-0.4682 0,-0.4682 m 0,2.029 c 0,0 0,-0.4683 0,-0.4683 m 0,2.029 c 0,0 0,-0.4682 0,-0.4682 m 0,2.029 c 0,0 0,-0.4682 0,-0.4682" />
    <path
       id="path113"
       style="fill:none;stroke:#06ba00;stroke-width:0.186;stroke-dasharray:none;stroke-opacity:1"
       d="m -23.483008,1115.7654 c 0,0 0,-0.4682 0,-0.4682 m 0,2.029 c 0,0 0,-0.4683 0,-0.4683 m 0,2.029 c 0,0 0,-0.4682 0,-0.4682 m 0,2.029 c 0,0 0,-0.4682 0,-0.4682 m 0,2.029 c 0,0 0,-0.4682 0,-0.4682 m 0,2.029 c 0,0 0,-0.4682 0,-0.4682 m 0,2.029 c 0,0 0,-0.4682 0,-0.4682 m 0,2.029 c 0,0 0,-0.4683 0,-0.4683 m 0,2.0291 c 0,0 0,-0.4683 0,-0.4683 m 0,2.029 c 0,0 0,-0.4682 0,-0.4682 m 0,2.029 c 0,0 0,-0.4682 0,-0.4682 m 0,2.029 c 0,0 0,-0.4682 0,-0.4682 m 0,2.029 c 0,0 0,-0.4683 0,-0.4683" />
    <path
       id="path120"
       style="fill:none;stroke:#06ba00;stroke-width:0.186;stroke-dasharray:none;stroke-opacity:1"
       d="m -10.699872,1137.0568 c 0,0 0,-0.4682 0,-0.4682 m 0,2.029 c 0,0 0,-0.4682 0,-0.4682 m 0,2.029 c 0,0 0,-0.4682 0,-0.4682 m 0,2.029 c 0,0 0,-0.4683 0,-0.4683 m 0,2.0291 c 0,0 0,-0.4683 0,-0.4683 m 0,2.0291 c 0,0 0,-0.4683 0,-0.4683 m 0,2.029 c 0,0 0,-0.4682 0,-0.4682" />
    <path
       id="path133"
       style="fill:none;stroke:#06ba00;stroke-width:0.186;stroke-dasharray:none;stroke-opacity:1"
       d="m 23.723499,1115.9206 c 0,0 0,-0.4682 0,-0.4682 m 0,2.029 c 0,0 0,-0.4682 0,-0.4682 m 0,2.029 c 0,0 0,-0.4682 0,-0.4682 m 0,2.029 c 0,0 0,-0.4683 0,-0.4683 m 0,2.0291 c 0,0 0,-0.4683 0,-0.4683 m 0,2.0291 c 0,0 0,-0.4683 0,-0.4683 m 0,2.029 c 0,0 0,-0.4682 0,-0.4682 m 0,2.029 c 0,0 0,-0.4682 0,-0.4682 m 0,2.029 c 0,0 0,-0.4682 0,-0.4682 m 0,2.029 c 0,0 0,-0.4683 0,-0.4683 m 0,2.0291 c 0,0 0,-0.4683 0,-0.4683 m 0,2.0291 c 0,0 0,-0.4683 0,-0.4683 m 0,2.029 c 0,0 0,-0.4682 0,-0.4682" />
    <path
       id="path146"
       style="fill:none;stroke:#06ba00;stroke-width:0.186;stroke-dasharray:none;stroke-opacity:1"
       d="m 10.924769,1115.8447 c 0,0 0,-0.4682 0,-0.4682 m 0,2.029 c 0,0 0,-0.4682 0,-0.4682 m 0,2.029 c 0,0 0,-0.4682 0,-0.4682 m 0,2.029 c 0,0 0,-0.4682 0,-0.4682 m 0,2.029 c 0,0 0,-0.4683 0,-0.4683 m 0,2.029 c 0,0 0,-0.4682 0,-0.4682 m 0,2.029 c 0,0 0,-0.4682 0,-0.4682 m 0,2.029 c 0,0 0,-0.4682 0,-0.4682 m 0,2.029 c 0,0 0,-0.4682 0,-0.4682 m 0,2.029 c 0,0 0,-0.4683 0,-0.4683 m 0,2.0291 c 0,0 0,-0.4683 0,-0.4683 m 0,2.0291 c 0,0 0,-0.4683 0,-0.4683 m 0,2.029 c 0,0 0,-0.4682 0,-0.4682" />
    <path
       id="path154"
       style="fill:none;stroke:#06ba00;stroke-width:0.186;stroke-dasharray:none;stroke-opacity:1"
       d="m 10.924769,1103.3585 c 0,0 0,-0.4683 0,-0.4683 m 0,2.0291 c 0,0 0,-0.4683 0,-0.4683 m 0,2.029 c 0,0 0,-0.4682 0,-0.4682 m 0,2.029 c 0,0 0,-0.4682 0,-0.4682 m 0,2.029 c 0,0 0,-0.4682 0,-0.4682 m 0,2.029 c 0,0 0,-0.4682 0,-0.4682 m 0,2.029 c 0,0 0,-0.4683 0,-0.4683 m 0,2.0291 c 0,0 0,-0.4683 0,-0.4683" />
    <path
       id="path161"
       style="fill:none;stroke:#06ba00;stroke-width:0.186;stroke-dasharray:none;stroke-opacity:1"
       d="m 10.881974,1136.9397 c 0,0 0,-0.4682 0,-0.4682 m 0,2.029 c 0,0 0,-0.4683 0,-0.4683 m 0,2.029 c 0,0 0,-0.4682 0,-0.4682 m 0,2.029 c 0,0 0,-0.4682 0,-0.4682 m 0,2.029 c 0,0 0,-0.4682 0,-0.4682 m 0,2.029 c 0,0 0,-0.4682 0,-0.4682 m 0,2.029 c 0,0 0,-0.4683 0,-0.4683" />
  </g>
</svg>
