<?xml version="1.0" encoding="UTF-8" standalone="no"?>
<!-- Created with Inkscape (http://www.inkscape.org/) -->

<svg
   width="400mm"
   height="400mm"
   viewBox="0 0 400 400"
   version="1.1"
   id="svg1"
   sodipodi:docname="Hook.svg"
   inkscape:version="1.4.2 (f4327f4, 2025-05-13)"
   xmlns:inkscape="http://www.inkscape.org/namespaces/inkscape"
   xmlns:sodipodi="http://sodipodi.sourceforge.net/DTD/sodipodi-0.dtd"
   xmlns="http://www.w3.org/2000/svg"
   xmlns:svg="http://www.w3.org/2000/svg">
  <sodipodi:namedview
     id="namedview1"
     pagecolor="#ffffff"
     bordercolor="#000000"
     borderopacity="0.25"
     inkscape:showpageshadow="2"
     inkscape:pageopacity="0.0"
     inkscape:pagecheckerboard="0"
     inkscape:deskcolor="#d1d1d1"
     inkscape:document-units="mm"
     inkscape:zoom="2.8284271"
     inkscape:cx="881.05505"
     inkscape:cy="819.00643"
     inkscape:window-width="2560"
     inkscape:window-height="1494"
     inkscape:window-x="-11"
     inkscape:window-y="-11"
     inkscape:window-maximized="1"
     inkscape:current-layer="layer1" />
  <defs
     id="defs1" />
  <g
     inkscape:label="Layer 1"
     inkscape:groupmode="layer"
     id="layer1">
    <path
       id="path7"
       style="fill:none;stroke:#ff0000;stroke-width:0.176973;stroke-dasharray:none;stroke-opacity:1"
       d="m 208.29737,220.45507 c 1.49172,-0.68444 3.15566,-0.50291 4.12262,-0.12944 2.11388,0.81644 3.05475,2.30489 2.85126,4.21098 -0.13582,1.27224 -0.58046,2.94016 -3.11125,2.82243 1.51852,-3.03422 -1.77819,-4.1957 -2.19993,-1.62861 -0.0286,0.17412 -0.007,0.10388 -0.0252,0.27834 -0.33115,3.16328 -2.15542,6.00671 -4.94583,7.61775 -3.09401,1.78633 -6.9059,1.78633 -9.99991,0 -3.09401,-1.78633 -5.00021,-5.0878 -5.00021,-8.66046 0,-4.25471 1.64594,-8.70748 6.25802,-13.11599 4.16691,-3.98299 5.2498,-7.46706 5.2498,-11.82409 3e-5,-0.63368 -0.42557,-1.18837 -1.03766,-1.35237 -0.7469,-0.20009 -1.51458,0.24321 -1.71462,0.99012 -0.15348,0.57331 0.0712,1.18109 0.56069,1.51671 -0.65278,1.26148 -1.5464,1.89375 -2.52949,1.60558 -1.46596,-0.42969 -1.89406,-1.55808 -1.77568,-2.78587 0.26501,-2.74867 2.2388,-5.00022 5.00022,-5.00022 2.76142,0 4.99969,2.2388 4.99969,5.00022 0,4.35703 -0.0789,8.17554 -4.74493,13.76815 -4.08733,4.89897 -5.26583,7.60451 -5.26583,11.19776 0,1.78633 0.9531,3.43733 2.50011,4.33049 1.54701,0.89316 3.45268,0.89316 4.99969,0 1.30139,-0.75135 2.15456,-2.10158 2.41356,-3.64798 0.5589,-3.33696 1.7254,-4.42751 3.39488,-5.1935 z"
       sodipodi:nodetypes="ssscsssssscsccssssssssss" />
  </g>
</svg>
