<?xml version="1.0" encoding="UTF-8" standalone="no"?>
<!-- Created with Inkscape (http://www.inkscape.org/) -->

<svg
   width="400mm"
   height="400mm"
   viewBox="0 0 400 400"
   version="1.1"
   id="svg1"
   inkscape:version="1.4.2 (f4327f4, 2025-05-13)"
   sodipodi:docname="Hook.svg"
   xmlns:inkscape="http://www.inkscape.org/namespaces/inkscape"
   xmlns:sodipodi="http://sodipodi.sourceforge.net/DTD/sodipodi-0.dtd"
   xmlns="http://www.w3.org/2000/svg"
   xmlns:svg="http://www.w3.org/2000/svg">
  <sodipodi:namedview
     id="namedview1"
     pagecolor="#ffffff"
     bordercolor="#000000"
     borderopacity="0.25"
     inkscape:showpageshadow="2"
     inkscape:pageopacity="0.0"
     inkscape:pagecheckerboard="0"
     inkscape:deskcolor="#d1d1d1"
     inkscape:document-units="mm"
     inkscape:zoom="2.8284271"
     inkscape:cx="817.41544"
     inkscape:cy="804.86429"
     inkscape:window-width="2560"
     inkscape:window-height="1494"
     inkscape:window-x="-11"
     inkscape:window-y="-11"
     inkscape:window-maximized="1"
     inkscape:current-layer="layer1" />
  <defs
     id="defs1" />
  <g
     inkscape:label="Layer 1"
     inkscape:groupmode="layer"
     id="layer1">
    <path
       id="path7"
       style="fill:none;stroke:#ff0000;stroke-width:0.2;stroke-dasharray:none;stroke-opacity:1"
       d="M 200.0002 194.99998 C 197.23878 194.99998 195.26499 197.25153 194.99998 200.0002 C 194.8816 201.22799 195.36044 202.8288 196.4185 203.9307 C 197.23628 203.08516 198.16239 201.9898 198.66229 200.67819 A 1.5 1.5 0 0 1 198.55119 199.61159 A 1.5 1.5 0 0 1 200.38829 198.55119 A 1.5 1.5 0 0 1 201.44869 200.38829 C 201.44869 204.74532 199.17439 208.94289 196.24694 211.85012 C 191.71989 216.3459 189.98892 220.7114 189.98892 224.96611 C 189.98892 228.53877 191.89512 231.84024 194.98913 233.62657 C 198.08314 235.4129 201.89503 235.4129 204.98904 233.62657 C 208.08305 231.84024 209.98925 228.53877 209.98925 224.96611 C 209.98925 223.16766 209.92532 221.73511 208.92627 220.31265 C 208.21314 219.29724 206.99402 218.45747 205.82258 218.45747 C 203.99332 218.45747 202.51012 219.89048 202.51012 221.6583 C 202.51012 223.14199 203.55482 224.38987 204.97198 224.75269 C 204.97198 226.66764 204.03594 228.40344 202.48893 229.2966 C 200.94192 230.18976 199.03625 230.18976 197.48924 229.2966 C 195.94223 228.40344 194.98913 226.75244 194.98913 224.96611 C 194.98913 221.37286 195.88498 218.41695 200.25496 213.76835 C 203.05012 210.79498 204.99989 204.35723 204.99989 200.0002 C 204.99989 197.23878 202.76162 194.99998 200.0002 194.99998 z " />
  </g>
</svg>
