<?xml version="1.0" encoding="UTF-8" standalone="no"?>
<!-- Created with Inkscape (http://www.inkscape.org/) -->

<svg
   width="400mm"
   height="400mm"
   viewBox="0 0 400 400"
   version="1.1"
   id="svg1"
   sodipodi:docname="Hook.svg"
   inkscape:version="1.4.2 (f4327f4, 2025-05-13)"
   xmlns:inkscape="http://www.inkscape.org/namespaces/inkscape"
   xmlns:sodipodi="http://sodipodi.sourceforge.net/DTD/sodipodi-0.dtd"
   xmlns="http://www.w3.org/2000/svg"
   xmlns:svg="http://www.w3.org/2000/svg">
  <sodipodi:namedview
     id="namedview1"
     pagecolor="#ffffff"
     bordercolor="#000000"
     borderopacity="0.25"
     inkscape:showpageshadow="2"
     inkscape:pageopacity="0.0"
     inkscape:pagecheckerboard="0"
     inkscape:deskcolor="#d1d1d1"
     inkscape:document-units="mm"
     inkscape:zoom="5.6568543"
     inkscape:cx="756.07392"
     inkscape:cy="787.09823"
     inkscape:window-width="2560"
     inkscape:window-height="1494"
     inkscape:window-x="-11"
     inkscape:window-y="-11"
     inkscape:window-maximized="1"
     inkscape:current-layer="layer1" />
  <defs
     id="defs1" />
  <g
     inkscape:label="Layer 1"
     inkscape:groupmode="layer"
     id="layer1">
    <path
       style="fill:none;stroke:#ff0000;stroke-width:0.2;stroke-dasharray:none;stroke-opacity:1"
       d="m 204.90249,225.6486 c -0.24314,1.54899 -1.11217,2.89665 -2.41356,3.648 -1.54701,0.89316 -3.45268,0.89316 -4.99969,0 -1.54701,-0.89316 -2.50011,-2.54416 -2.50011,-4.33049 0,-3.59325 1.1785,-6.29879 5.26583,-11.19776 4.66607,-5.59261 4.74493,-9.41112 4.74493,-13.76815 0,-2.76142 -2.23827,-5.00022 -4.99969,-5.00022 -2.76142,0 -4.73521,2.25155 -5.00022,5.00022 -0.11838,1.22779 0.47725,2.89888 1.53531,4.00078 0.87316,-0.53583 2.11708,-1.55901 2.76986,-2.82049 -0.48949,-0.33562 -0.71417,-0.9434 -0.56069,-1.51671 0.20004,-0.74691 0.96772,-1.19021 1.71462,-0.99012 0.61209,0.164 1.03769,0.71869 1.03766,1.35237 0,4.35703 -1.08289,7.8411 -5.2498,11.82409 -4.61208,4.40851 -6.25802,8.86128 -6.25802,13.11599 0,3.57266 1.9062,6.87413 5.00021,8.66046 3.09401,1.78633 6.9059,1.78633 9.99991,0 2.79041,-1.61104 4.61468,-4.45447 4.94583,-7.61775 0.0183,-0.17446 0.0161,-0.10212 0.0252,-0.27837"
       id="path9"
       sodipodi:nodetypes="cssssssscccscsssssc" />
    <path
       style="fill:none;stroke:#ff0000;stroke-width:0.176973;stroke-dasharray:none;stroke-opacity:1"
       d="m 204.90249,225.6486 c 0.57474,-3.3343 1.7254,-4.42754 3.39488,-5.19353 1.49172,-0.68444 3.15566,-0.50291 4.12262,-0.12944 2.11388,0.81644 3.05475,2.30489 2.85126,4.21098 -0.13582,1.27224 -0.58046,2.94016 -3.11125,2.82243 1.51852,-3.03422 -1.75887,-4.19245 -2.19993,-1.62859"
       id="path7"
       sodipodi:nodetypes="cssscc" />
  </g>
</svg>
