<?xml version="1.0" encoding="UTF-8" standalone="no"?>
<!-- Created with Inkscape (http://www.inkscape.org/) -->

<svg
   width="400mm"
   height="400mm"
   viewBox="0 0 400 400"
   version="1.1"
   id="svg1"
   sodipodi:docname="Leather Tag LaserFile.svg"
   inkscape:version="1.1.2 (b8e25be833, 2022-02-05)"
   xmlns:inkscape="http://www.inkscape.org/namespaces/inkscape"
   xmlns:sodipodi="http://sodipodi.sourceforge.net/DTD/sodipodi-0.dtd"
   xmlns="http://www.w3.org/2000/svg"
   xmlns:svg="http://www.w3.org/2000/svg">
  <sodipodi:namedview
     id="namedview1"
     pagecolor="#ffffff"
     bordercolor="#000000"
     borderopacity="0.25"
     inkscape:showpageshadow="2"
     inkscape:pageopacity="0.0"
     inkscape:pagecheckerboard="0"
     inkscape:deskcolor="#d1d1d1"
     inkscape:document-units="mm"
     inkscape:zoom="1.4142136"
     inkscape:cx="686.95424"
     inkscape:cy="719.48115"
     inkscape:window-width="1920"
     inkscape:window-height="1009"
     inkscape:window-x="-8"
     inkscape:window-y="-8"
     inkscape:window-maximized="1"
     inkscape:current-layer="layer2"
     inkscape:pageshadow="2"
     showgrid="false"
     inkscape:snap-smooth-nodes="false"
     inkscape:snap-intersection-paths="true" />
  <defs
     id="defs1" />
  <g
     inkscape:groupmode="layer"
     id="layer2"
     inkscape:label="Layer 2">
    <path
       id="path23841"
       style="color:#000000;display:inline;fill:none;fill-opacity:1;stroke:#ff0000;stroke-width:0.382001;stroke-miterlimit:4;stroke-dasharray:none;stroke-opacity:1"
       d="m 237.83602,171.47298 c -1.08997,0.012 -2.18301,0.13161 -3.14387,0.68906 -1.07476,-0.53931 -2.3928,-0.55315 -3.47858,-0.036 -1.46319,-0.85114 -3.37084,-0.85009 -4.83254,0.003 -1.07427,-0.51302 -2.38141,-0.50385 -3.44894,0.0223 -1.06716,-0.52888 -2.37414,-0.5323 -3.44895,-0.0223 -1.45988,-0.85826 -3.37178,-0.85175 -4.83299,0 -1.07428,-0.51302 -2.38141,-0.50385 -3.44895,0.0223 -1.06716,-0.52868 -2.37286,-0.53225 -3.44849,-0.0242 -1.46114,-0.85281 -3.37241,-0.85249 -4.83299,0.002 -1.07464,-0.51093 -2.38142,-0.50531 -3.44894,0.0223 -1.06793,-0.5297 -2.37316,-0.52994 -3.45077,-0.0255 -1.46267,-0.84964 -3.37071,-0.85094 -4.83117,0.003 -1.07553,-0.51405 -2.38017,-0.50089 -3.45032,0.021 -1.06758,-0.52832 -2.37508,-0.53282 -3.45077,-0.0228 -0.82558,-0.47857 -1.79769,-0.69378 -2.74894,-0.63069 h -4.6e-4 c -0.73351,0.0414 -1.45652,0.29399 -2.09227,0.62248 -1.08291,-0.5113 -2.39432,-0.49651 -3.46445,0.041 -1.28254,-0.73873 -2.79638,-0.70591 -4.22601,-0.67401 -0.0357,1.43151 -0.0576,2.94879 0.67036,4.23149 -0.53454,1.07694 -0.54493,2.39149 -0.031,3.47813 -0.84888,1.45996 -0.84686,3.36541 0.002,4.82616 -0.51959,1.08181 -0.48428,2.38953 0.0155,3.46445 -0.51894,1.06781 -0.5233,2.36629 -0.0141,3.43845 -0.85746,1.46104 -0.84497,3.37174 -0.003,4.83299 -0.52009,1.08388 -0.49879,2.40018 0.036,3.47449 -0.74115,1.28155 -0.70389,2.79725 -0.67355,4.22647 1.42995,0.0322 2.9478,0.0636 4.22784,-0.67401 1.07427,0.53694 2.3925,0.55237 3.47631,0.0328 1.46153,0.85333 3.36946,0.85025 4.83117,0 1.08022,0.52173 2.38894,0.48458 3.46262,-0.0155 1.06744,0.51861 2.36727,0.52449 3.43846,0.0137 1.45859,0.853 3.36797,0.8548 4.82615,0 1.08143,0.52232 2.39117,0.48781 3.46627,-0.0137 1.0686,0.51846 2.36621,0.52321 3.43983,0.0155 1.45964,0.85262 3.3671,0.84946 4.82798,0 1.08022,0.52173 2.38895,0.48458 3.46262,-0.0155 1.06799,0.5189 2.36824,0.52416 3.44028,0.0137 1.45751,0.85391 3.36686,0.85407 4.82433,0 1.08143,0.52228 2.39072,0.48792 3.46582,-0.0137 1.0686,0.51841 2.36666,0.52322 3.44028,0.0155 1.46145,0.85824 3.37134,0.84015 4.83299,0.003 1.08517,0.51475 2.39902,0.49853 3.47312,-0.0378 1.2816,0.73998 2.79682,0.70487 4.22601,0.67401 0.0313,-1.42949 0.0651,-2.94696 -0.67355,-4.22647 0.53652,-1.07512 0.55187,-2.39275 0.0342,-3.47813 0.85063,-1.46271 0.84807,-3.36822 0,-4.83117 0.51876,-1.08185 0.48265,-2.38837 -0.0173,-3.46263 0.52006,-1.06712 0.52282,-2.36581 0.016,-3.43845 0.86012,-1.46202 0.84009,-3.37147 0.005,-4.83436 0.51461,-1.08573 0.49873,-2.40032 -0.0379,-3.47494 0.74263,-1.28213 0.7033,-2.79617 0.67401,-4.22602 -0.35757,-0.008 -0.72066,-0.0159 -1.08398,-0.0119 z m -55.9602,4.01716 0.25036,0.24945 -0.25036,0.24945 -0.24945,-0.24945 z m 5.86544,0 0.25036,0.24945 -0.25036,0.24945 -0.24945,-0.24945 z m 5.86499,0 0.25035,0.24945 -0.25035,0.24945 -0.24945,-0.24945 z m 5.86544,0 0.25036,0.24945 -0.25036,0.24945 -0.24945,-0.24945 z m 5.86498,4.7e-4 0.25036,0.24945 -0.25036,0.24944 -0.24945,-0.24944 z m 5.86681,4.7e-4 0.25036,0.24944 -0.25036,0.24945 -0.24944,-0.24945 z m 5.86499,0 0.25036,0.24944 -0.25036,0.24945 -0.24945,-0.24945 z m 5.86498,4.6e-4 0.25036,0.24945 -0.25036,0.24945 -0.24944,-0.24945 z m 5.86499,0 0.25036,0.24945 -0.25036,0.24945 -0.24945,-0.24945 z m -52.79536,0.007 c 0.0756,0.0792 0.1572,0.16393 0.24534,0.25493 l -0.22527,0.22573 c -0.091,-0.0882 -0.17534,-0.16973 -0.25447,-0.24534 z m 58.66901,0 0.23622,0.23532 c -0.0792,0.0758 -0.16386,0.15752 -0.25492,0.2458 l -0.22664,-0.22665 c 0.0882,-0.091 0.16969,-0.17533 0.24534,-0.25447 z m -58.66171,5.85952 0.24944,0.24944 -0.24944,0.25037 -0.24945,-0.25037 z m 58.65487,4.7e-4 0.24945,0.24944 -0.24945,0.25036 -0.24945,-0.25036 z m -58.65487,5.86498 0.24944,0.24945 -0.24944,0.25036 -0.24945,-0.25036 z m 58.65487,4.7e-4 0.24945,0.24945 -0.24945,0.25036 -0.24945,-0.25036 z m -58.65487,5.86453 0.24944,0.24945 -0.24944,0.25035 -0.24945,-0.25035 z m 58.65487,4.7e-4 0.24945,0.2499 -0.24945,0.2499 -0.24945,-0.2499 z m -52.78989,5.86498 0.25036,0.24945 -0.25036,0.24945 -0.24945,-0.24945 z m 5.86544,0 0.25036,0.24945 -0.25036,0.24945 -0.24944,-0.24945 z m 5.86499,0 0.25036,0.24945 -0.25036,0.24945 -0.24945,-0.24945 z m 5.86544,0 0.25036,0.24945 -0.25036,0.24945 -0.24945,-0.24945 z m 5.86499,0 0.25036,0.24945 -0.25036,0.24945 -0.24945,-0.24945 z m 5.86681,9.3e-4 0.25036,0.24945 -0.25036,0.24945 -0.24945,-0.24945 z m 5.86498,0 0.25036,0.24945 -0.25036,0.24945 -0.24945,-0.24945 z m 5.86499,4.7e-4 0.25036,0.24945 -0.25036,0.24945 -0.24945,-0.24945 z m 5.86498,0 0.25036,0.24945 -0.25036,0.24945 -0.24945,-0.24945 z m -52.77483,0.011 0.22527,0.22573 c -0.0879,0.0908 -0.16897,0.17507 -0.24443,0.25402 l -0.23485,-0.23486 c 0.079,-0.0754 0.16325,-0.15699 0.25401,-0.24489 z m 58.62979,0 c 0.0908,0.088 0.17504,0.1694 0.254,0.24489 l -0.23485,0.23486 c -0.0754,-0.079 -0.15695,-0.16325 -0.24489,-0.25402 z" />
    <path
       id="path28590"
       style="font-size:22px;line-height:1.25;font-family:'Solid Edge ANSI';-inkscape-font-specification:'Solid Edge ANSI';text-align:center;text-anchor:middle;fill:#000000;stroke:none;stroke-width:0.382;stroke-miterlimit:4;stroke-dasharray:none;stroke-opacity:1;fill-opacity:1"
       d="m 219.31704,192.89208 h -0.9385 v -1.25527 q -0.97566,1.34051 -3.09425,1.34051 -2.28585,0 -3.27081,-1.9139 -0.47389,-0.92208 -0.47389,-2.05336 0,-1.47998 0.40885,-2.22384 0.55752,-1.01506 1.25443,-1.41024 0.88274,-0.50365 2.20221,-0.50365 0.95709,0 1.58895,0.2557 0.87345,0.35643 1.38451,0.94532 v -1.13129 h 0.9385 z m -0.94779,-3.9905 q 0,-1.65819 -0.97567,-2.59577 -0.6969,-0.66637 -1.9885,-0.66637 -2.94558,0 -2.94558,3.37836 0,1.52647 0.92921,2.51828 0.63186,0.67413 1.93274,0.67413 1.2916,0 2.00709,-0.68962 1.04071,-0.99957 1.04071,-2.61901 z m -9.3664,3.99825 h -0.97567 v -10.93321 h 0.97567 z m -4.18144,-9.9104 h -0.97567 v -1.02281 h 0.97567 z m 0,9.9259 h -0.97567 v -8.05075 h 0.97567 z m -3.59602,-10.92546 -0.009,10.90221 h -1.05002 l -0.009,-7.72531 -3.85621,7.68657 -3.95842,-7.60908 v 7.64782 l -0.98495,0.008 0.009,-10.90997 h 0.52036 l 4.41372,8.96508 4.32081,-8.96508 z m 5.02829,-7.72883 c -0.2146,0.46754 -0.32148,0.9722 -0.32148,1.47798 0,0.506 0.10754,1.01299 0.32239,1.48164 -0.286,0.12451 -0.59728,0.19017 -0.91569,0.19017 -0.3188,0 -0.63039,-0.0662 -0.91708,-0.19107 0.21489,-0.46856 0.32241,-0.97471 0.32241,-1.48074 0,-0.50528 -0.10716,-1.01075 -0.32151,-1.47798 v 0 c 0.28565,-0.12439 0.59628,-0.19062 0.91525,-0.19062 0.31904,0 0.62997,0.0663 0.91571,0.19062 z m -2.08908,-0.46469 c -0.1285,-0.19512 -0.27847,-0.38018 -0.44964,-0.55134 -0.0928,-0.0928 -0.18973,-0.17923 -0.29002,-0.25948 0.57816,-0.32755 1.2358,-0.50391 1.91303,-0.50391 1.03038,0 2.01672,0.40922 2.74485,1.13733 l 0.99963,0.99916 -0.37396,0.37486 -0.3744,0.37348 -0.99915,-0.99779 c -0.52969,-0.52969 -1.24694,-0.82723 -1.99697,-0.82723 -0.40956,0 -0.80885,0.0885 -1.17337,0.25492 z m -1.22351,-1.13551 c -0.41336,-0.22988 -0.86451,-0.37085 -1.32385,-0.42229 -0.73305,-0.0821 -1.48679,0.0633 -2.14471,0.43642 -0.4207,-0.23854 -0.88088,-0.38415 -1.3503,-0.43642 -0.72325,-0.0805 -1.46845,0.0594 -2.12008,0.42183 -0.70838,-0.45824 -1.53945,-0.70822 -2.39598,-0.70822 -0.85692,0 -1.68715,0.24996 -2.39552,0.70868 -0.41344,-0.22999 -0.86439,-0.37084 -1.32385,-0.42229 -0.73284,-0.0821 -1.48645,0.0631 -2.14425,0.43597 -0.42086,-0.23926 -0.88155,-0.3855 -1.35121,-0.4378 -0.72337,-0.0806 -1.46884,0.0604 -2.12053,0.4232 -0.70823,-0.45794 -1.53883,-0.70776 -2.39506,-0.70776 v 0 c -0.85665,0 -1.68729,0.24979 -2.39596,0.70821 -0.57063,-0.31912 -1.20274,-0.4668 -1.82687,-0.44782 -0.5843,0.0178 -1.16137,0.18029 -1.67452,0.47929 -0.81037,-0.47899 -1.74166,-0.73786 -2.69834,-0.73786 h -1.05798 v 1.05662 c 0,0.95679 0.25934,1.88807 0.73876,2.69832 -0.61735,1.06117 -0.64833,2.3972 -0.0314,3.5014 v 4.6e-4 c -0.45806,0.70853 -0.70683,1.53917 -0.70683,2.39552 0,0.8571 0.24899,1.68912 0.70774,2.3978 -0.59663,1.0728 -0.59231,2.39802 0.0145,3.4681 -0.6066,1.06925 -0.61234,2.39505 -0.0142,3.46946 -0.45859,0.70858 -0.70821,1.54003 -0.70821,2.39689 0,0.85646 0.24908,1.68694 0.7073,2.39552 -0.61729,1.10419 -0.58461,2.439 0.0328,3.50002 -0.47963,0.81075 -0.73878,1.74233 -0.73878,2.69969 v 1.05844 h 1.05845 c 0.95722,0 1.88787,-0.25984 2.69787,-0.73967 1.06115,0.61764 2.39569,0.64888 3.50003,0.0319 v 4.7e-4 c 0.70873,0.45804 1.54054,0.7073 2.39688,0.7073 0.85673,0 1.68729,-0.24971 2.39553,-0.70821 1.07291,0.59706 2.39866,0.59291 3.469,-0.0141 1.06942,0.60679 2.39588,0.61274 3.47038,0.0141 0.70841,0.45823 1.53948,0.70821 2.39598,0.70821 0.85697,0 1.68718,-0.24995 2.39552,-0.70867 1.07302,0.59718 2.39857,0.59351 3.46901,-0.0137 1.06954,0.60662 2.39642,0.6127 3.47082,0.0146 0.70826,0.45794 1.53884,0.70776 2.39509,0.70776 0.85673,0 1.68727,-0.24971 2.3955,-0.70822 1.07292,0.59707 2.39866,0.59293 3.46901,-0.0141 1.06965,0.60675 2.39632,0.61238 3.47085,0.0141 0.70833,0.4581 1.53914,0.70822 2.3955,0.70822 0.85695,0 1.68717,-0.24995 2.39553,-0.70867 1.07306,0.59722 2.39856,0.5936 3.46901,-0.0137 1.06952,0.60662 2.3964,0.6127 3.47085,0.0146 0.70824,0.45793 1.53884,0.70776 2.39506,0.70776 0.85666,0 1.68727,-0.24981 2.39597,-0.70822 1.10434,0.61748 2.43888,0.5853 3.50001,-0.0324 0.81076,0.47964 1.74233,0.73877 2.69969,0.73877 h 1.05799 v -1.05662 c 0,-0.95718 -0.25987,-1.88828 -0.73968,-2.69877 0.61797,-1.06118 0.64937,-2.39598 0.0324,-3.50049 0.4584,-0.70871 0.70729,-1.53929 0.70729,-2.39597 0,-0.85702 -0.24906,-1.68916 -0.70776,-2.39779 0.59658,-1.0727 0.59214,-2.39764 -0.0145,-3.46765 0.60693,-1.06936 0.61245,-2.39576 0.0142,-3.47038 0.45845,-0.70802 0.7082,-1.53834 0.7082,-2.39506 0,-0.85667 -0.24934,-1.68846 -0.70775,-2.39734 0.61777,-1.10479 0.58674,-2.44005 -0.0314,-3.50139 0.47894,-0.80983 0.73783,-1.73984 0.73783,-2.6965 v -1.06027 h -1.0566 c -0.95786,0 -1.89013,0.2601 -2.70105,0.74059 -0.51916,-0.30195 -1.1029,-0.46404 -1.69416,-0.47837 -0.61671,-0.0149 -1.24089,0.13076 -1.8045,0.44553 v -4.5e-4 c -0.70851,-0.45807 -1.53917,-0.70731 -2.3955,-0.70731 -0.85695,0 -1.68881,0.24996 -2.39735,0.70867 -0.41337,-0.22988 -0.86451,-0.37085 -1.32385,-0.42228 -0.73304,-0.0821 -1.4868,0.0633 -2.14472,0.43641 -0.42069,-0.23854 -0.88132,-0.38415 -1.35075,-0.43641 -0.72306,-0.0805 -1.46647,0.0603 -2.11779,0.42273 -0.70823,-0.45885 -1.53886,-0.70912 -2.39599,-0.70912 -0.85693,0 -1.68878,0.24996 -2.39733,0.70867 -0.41345,-0.22999 -0.86439,-0.37084 -1.32384,-0.42228 -0.73312,-0.0822 -1.48719,0.0632 -2.14518,0.43641 -0.42066,-0.23849 -0.88093,-0.38416 -1.3503,-0.43641 -0.72358,-0.0806 -1.46751,0.0595 -2.11916,0.42228 -0.70802,-0.45845 -1.53832,-0.70867 -2.39599,-0.70867 -0.85783,0 -1.68853,0.24996 -2.39687,0.70867 z m -21.06534,-0.17923 c 1.02945,0 2.01717,0.40922 2.7453,1.13733 l 0.9996,0.99916 -0.37393,0.37486 -0.3744,0.37349 -0.99916,-0.99779 c -0.52971,-0.5297 -1.24831,-0.82724 -1.99741,-0.82724 -0.40932,0 -0.80853,0.0892 -1.17336,0.25629 -0.19995,-0.30401 -0.44846,-0.57863 -0.73922,-0.81173 0.57849,-0.32763 1.23636,-0.50437 1.91258,-0.50437 z m 11.73042,0 c 1.02947,0 2.01764,0.40921 2.74576,1.13733 l 0.9996,0.99962 -0.37393,0.3744 -0.37439,0.37349 -0.99916,-0.99779 c -0.52971,-0.5297 -1.24878,-0.82724 -1.99788,-0.82724 -0.40876,0 -0.80784,0.0884 -1.17245,0.25492 -0.12851,-0.19511 -0.27801,-0.38017 -0.44918,-0.55134 -0.093,-0.093 -0.19002,-0.17958 -0.29048,-0.25993 0.57811,-0.32748 1.23587,-0.50346 1.91211,-0.50346 z m 23.46313,0 c 1.02947,0 2.0158,0.40921 2.74394,1.13733 l 0.99963,0.99962 -0.37396,0.3744 -0.3744,0.37349 -0.99915,-0.99779 c -0.52969,-0.5297 -1.24696,-0.82724 -1.99606,-0.82724 -0.40874,0 -0.80924,0.0884 -1.17425,0.25492 -0.12852,-0.19511 -0.27804,-0.38017 -0.44921,-0.55134 -0.0929,-0.0929 -0.19011,-0.17917 -0.29048,-0.25948 0.57863,-0.32767 1.23751,-0.50391 1.91394,-0.50391 z m 11.73045,0 c 0.67555,0 1.33336,0.17715 1.91166,0.50437 -0.29072,0.23308 -0.53853,0.50772 -0.7383,0.81173 -0.3648,-0.16707 -0.76408,-0.25629 -1.17336,-0.25629 -0.40877,0 -0.8088,0.0884 -1.17384,0.25492 -0.1285,-0.19511 -0.27848,-0.38017 -0.44962,-0.55134 -0.0928,-0.0928 -0.18975,-0.17923 -0.29004,-0.25948 0.57856,-0.32755 1.23716,-0.50391 1.9135,-0.50391 z m 8.59567,0 h 0.52718 v 0.53081 c 0,0.88096 -0.24352,1.73677 -0.69364,2.47716 l -1.2609,1.4301 v 0.002 c -0.0605,0.0581 -0.12383,0.11921 -0.1897,0.18286 l -0.36573,-0.36574 -0.38535,-0.38489 c 0.3543,-0.3432 0.62885,-0.59919 0.75108,-0.72143 0.44288,-0.4429 0.70756,-0.99198 0.87877,-1.55323 l 0.14503,-0.47382 -0.47564,0.14456 c -0.56128,0.17121 -1.11037,0.43453 -1.55325,0.8774 -0.12227,0.12229 -0.37851,0.39713 -0.72189,0.75153 l -0.38626,-0.38579 -0.36391,-0.36437 c 0.0795,-0.0823 0.15379,-0.15964 0.22437,-0.23349 l 1.20164,-1.09766 c 0.78238,-0.52785 1.711,-0.81583 2.66775,-0.81583 z m -64.64435,0.002 h 0.52899 c 0.88152,0 1.73869,0.24387 2.47988,0.69453 l 1.4292,1.26001 v 0 c 0.058,0.0605 0.11927,0.12381 0.18287,0.18971 l -0.36482,0.36528 -0.38488,0.38534 c -0.34327,-0.35435 -0.59918,-0.62882 -0.72146,-0.75108 -0.44285,-0.44287 -0.99194,-0.70757 -1.55322,-0.87877 l -0.47564,-0.14501 0.14502,0.47564 c 0.17122,0.56125 0.43588,1.11034 0.87878,1.55323 0.12228,0.12228 0.39704,0.37845 0.75152,0.72189 l -0.38579,0.38626 -0.36438,0.36391 c -0.0823,-0.0795 -0.15964,-0.15379 -0.23348,-0.22437 l -1.09767,-1.20163 c -0.52785,-0.78239 -0.81583,-1.711 -0.81583,-2.66778 z m 13.21023,0.2613 c 0.78039,-0.009 1.56376,0.28277 2.15521,0.87421 l 0.71367,0.71368 0.28549,0.28548 -0.37487,0.37486 -0.37484,0.37348 -0.45103,-0.44964 -0.54812,-0.54815 c -0.26385,-0.26385 -0.58344,-0.43689 -0.92027,-0.5185 -0.28142,-0.0682 -0.57541,-0.0728 -0.85826,-0.0123 l -0.59284,-0.59284 c -0.0804,-0.0804 -0.1637,-0.15729 -0.24944,-0.23075 0.38454,-0.17466 0.79944,-0.26499 1.2153,-0.26951 z m 11.73089,0 c 0.78039,-0.009 1.56376,0.28277 2.1552,0.87421 l 0.71367,0.71368 0.28458,0.28594 -0.37439,0.3744 -0.37443,0.37348 -0.44962,-0.44964 -0.54953,-0.54815 c -0.26385,-0.26385 -0.58386,-0.43689 -0.92071,-0.5185 -0.28154,-0.0682 -0.57527,-0.0729 -0.85826,-0.0123 l -0.59284,-0.59284 c -0.0804,-0.0804 -0.1637,-0.15728 -0.24944,-0.23075 0.38463,-0.17475 0.79977,-0.26499 1.21577,-0.26951 z m -8.23586,4.7e-4 c 0.78007,-0.008 1.56293,0.28288 2.15381,0.87375 0.58318,0.58317 0.8742,1.34962 0.8742,2.12008 0,0.4144 -0.0853,0.8283 -0.25401,1.21304 -0.0864,-0.0649 -0.16849,-0.13611 -0.24579,-0.21343 l -0.59194,-0.59193 c 0.13421,-0.62111 -0.0456,-1.29328 -0.53034,-1.77805 -0.26368,-0.26369 -0.58367,-0.43682 -0.92026,-0.5185 -0.28182,-0.0683 -0.57525,-0.0727 -0.85825,-0.0118 l -0.59285,-0.59329 c -0.0815,-0.0816 -0.16659,-0.15836 -0.25401,-0.2303 0.38568,-0.17537 0.8021,-0.26524 1.21944,-0.2695 z m 11.73179,0 c 0.77958,-0.008 1.56203,0.28288 2.15291,0.87375 0.58315,0.58317 0.87375,1.34963 0.87375,2.12008 0,0.41393 -0.0848,0.82871 -0.25309,1.21349 -0.0867,-0.065 -0.16923,-0.13639 -0.24673,-0.21388 l -0.59147,-0.59147 c 0.13439,-0.62124 -0.0455,-1.29362 -0.53036,-1.77851 -0.26366,-0.26369 -0.58227,-0.43683 -0.91889,-0.5185 -0.28177,-0.0683 -0.57627,-0.0726 -0.85961,-0.0118 l -0.59331,-0.59329 c -0.0814,-0.0814 -0.16585,-0.15808 -0.25308,-0.22984 0.38584,-0.17565 0.80247,-0.2657 1.21988,-0.26996 z m 11.73042,0 c 0.77958,-0.008 1.56204,0.28288 2.15291,0.87375 0.58318,0.58317 0.87422,1.34962 0.87422,2.12008 0,0.41393 -0.0853,0.82872 -0.25357,1.21349 -0.0867,-0.065 -0.16878,-0.13641 -0.24626,-0.21388 l -0.59191,-0.59147 c 0.13379,-0.62108 -0.0458,-1.294 -0.53037,-1.77851 -0.26367,-0.26369 -0.58182,-0.43682 -0.91843,-0.5185 -0.28182,-0.0683 -0.57667,-0.0727 -0.86008,-0.0118 l -0.59329,-0.59329 c -0.0814,-0.0814 -0.16594,-0.15768 -0.2531,-0.22938 0.38598,-0.1758 0.80229,-0.26615 1.21988,-0.27042 z m 11.73088,0 c 0.77959,-0.008 1.56205,0.28288 2.15292,0.87375 0.58318,0.58318 0.87375,1.34963 0.87375,2.12008 0,0.41393 -0.0848,0.82871 -0.2531,1.21349 -0.0867,-0.065 -0.16923,-0.13639 -0.2467,-0.21388 l -0.59147,-0.59101 c 0.13398,-0.62121 -0.0457,-1.29434 -0.53036,-1.77897 -0.26368,-0.26369 -0.5823,-0.43683 -0.91892,-0.5185 -0.28175,-0.0683 -0.57624,-0.0726 -0.8596,-0.0118 l -0.59329,-0.59329 c -0.0814,-0.0814 -0.16587,-0.15808 -0.2531,-0.22984 0.38584,-0.17565 0.80247,-0.2657 1.21987,-0.26996 z m -13.07161,0.87378 0.7137,0.71368 0.28501,0.28548 -0.37485,0.37485 -0.37396,0.37394 -0.44965,-0.4501 -0.54996,-0.54814 c -0.26383,-0.26385 -0.58341,-0.43689 -0.92025,-0.51851 -0.2819,-0.0683 -0.57492,-0.0727 -0.85782,-0.0118 l -0.59328,-0.5933 c -0.08,-0.08 -0.16316,-0.15663 -0.24853,-0.22983 0.38428,-0.17448 1.21439,-0.68463 1.21439,-0.26906 0.78039,-0.009 1.56378,0.2814 2.1552,0.87284 z m 11.73088,0 0.71324,0.71368 0.28546,0.28548 -0.37485,0.37485 -0.37394,0.37394 -0.4501,-0.4501 -0.54951,-0.54814 c -0.26384,-0.26385 -0.58388,-0.43689 -0.92072,-0.51851 -0.28159,-0.0682 -0.57427,-0.0725 -0.85688,-0.0118 l -0.5942,-0.5933 c -0.0801,-0.0801 -0.16316,-0.15662 -0.24855,-0.22983 0.38437,-0.17457 0.79876,-0.26428 1.39676,-0.27116 0.59802,-0.007 1.38187,0.28351 1.97329,0.87494 z m -45.43095,-0.83636 c 0.47572,-0.004 0.95108,0.10996 1.38815,0.36437 1.17413,0.68338 1.74489,2.08231 1.38406,3.39194 -0.0231,0.0836 -0.0496,0.1651 -0.0793,0.24488 -0.29081,-0.20297 -0.5982,-0.444 -0.90339,-0.70228 0.14313,-0.79656 -0.22146,-1.60565 -0.93212,-2.0193 -0.41036,-0.23885 -0.87698,-0.23573 -1.3193,-0.15368 -0.15826,-0.16601 -0.29055,-0.30515 -0.39036,-0.40495 -0.14995,-0.14995 -0.30821,-0.28945 -0.47335,-0.41909 0.42049,-0.1905 0.87308,-0.29889 1.32567,-0.30189 z m 54.90268,8.8e-4 c 0.45821,4.7e-4 0.91713,0.1086 1.34301,0.30052 -0.16517,0.12971 -0.32342,0.2696 -0.47337,0.41955 -0.10002,0.10004 -0.23292,0.23977 -0.39172,0.40632 -0.44171,-0.0807 -0.90796,-0.0853 -1.31792,0.15368 -0.71015,0.41409 -1.07656,1.22361 -0.93303,2.02021 -0.30466,0.2572 -0.61195,0.49725 -0.9025,0.69955 -0.029,-0.0781 -0.0553,-0.15776 -0.078,-0.23942 -0.0738,-0.26625 -0.10897,-0.53662 -0.10852,-0.80307 0.003,-1.04602 0.55187,-2.04689 1.48756,-2.59252 0.4326,-0.25226 0.90308,-0.36522 1.37447,-0.36482 z m -50.90467,1.28691 c 0.31808,0 0.62909,0.0663 0.91525,0.19062 -0.21408,0.46743 -0.32058,0.97281 -0.32058,1.47799 0,0.50546 0.10708,1.01203 0.32149,1.48027 -0.2863,0.1248 -0.59794,0.19154 -0.91616,0.19154 v 0.002 c -0.017,0 -0.16622,-0.0267 -0.34476,-0.0949 -0.14507,-0.0555 -0.31962,-0.13575 -0.50573,-0.2417 0.0524,-0.12854 0.0974,-0.26135 0.13498,-0.39766 0.22715,-0.82442 0.14042,-1.67836 -0.20064,-2.41741 0.28614,-0.12446 0.59775,-0.19061 0.91615,-0.19061 z m 11.73042,0 c 0.31832,0 0.62983,0.0665 0.91616,0.19108 -0.21446,0.46741 -0.32149,0.9719 -0.32149,1.47753 0,0.50547 0.10752,1.01203 0.32195,1.48027 -0.28634,0.12484 -0.59833,0.19154 -0.91662,0.19154 -0.31854,0 -0.62964,-0.0659 -0.91571,-0.19063 0.21502,-0.46866 0.32289,-0.97502 0.32289,-1.48118 0,-0.50517 -0.10775,-1.01041 -0.32198,-1.47753 0.28593,-0.12466 0.59643,-0.19108 0.9148,-0.19108 z m 23.46313,0 c 0.31799,0 0.62871,0.0664 0.91436,0.19062 -0.2146,0.46752 -0.32151,0.97222 -0.32151,1.47799 0,0.506 0.10754,1.01299 0.32242,1.48163 -0.28597,0.12448 -0.59689,0.19018 -0.91527,0.19018 -0.31878,0 -0.63084,-0.0662 -0.91751,-0.19109 0.21488,-0.46855 0.32286,-0.97469 0.32286,-1.48072 0,-0.50517 -0.10773,-1.01041 -0.32195,-1.47753 0.28637,-0.12466 0.59822,-0.19108 0.9166,-0.19108 z m 11.73045,0 c 0.3185,0 0.62994,0.0666 0.91615,0.19154 -0.21196,0.46012 -0.32578,0.96449 -0.3265,1.47889 0,0.31408 0.041,0.63162 0.12769,0.94444 0.0371,0.13389 0.082,0.26371 0.1336,0.38991 -0.18646,0.10653 -0.36109,0.18732 -0.5062,0.24261 -0.17801,0.0679 -0.32693,0.093 -0.34474,0.093 -0.31846,0 -0.62974,-0.066 -0.91616,-0.19063 0.21444,-0.46851 0.32149,-0.97568 0.32149,-1.48118 0,-0.50529 -0.10717,-1.01076 -0.32149,-1.47799 v 0 c 0.28612,-0.1244 0.59766,-0.19062 0.91572,-0.19062 z m -42.252,0.36756 c 0.16048,0.0697 0.31155,0.17154 0.4451,0.30509 l 0.37396,0.37394 -0.99781,0.99779 -0.92938,0.92802 c -0.16005,-0.0695 -0.3107,-0.17067 -0.44418,-0.30418 -0.13328,-0.13326 -0.23449,-0.284 -0.30416,-0.44371 l 0.92983,-0.92802 z m 11.73089,0 c 0.16019,0.0697 0.31154,0.17154 0.4451,0.30509 l 0.37348,0.37394 -0.99778,0.99779 -0.9294,0.92756 c -0.15998,-0.0694 -0.31093,-0.17046 -0.44418,-0.30372 -0.13328,-0.13328 -0.2343,-0.28399 -0.3037,-0.44371 l 0.92937,-0.92802 z m -8.23543,4.7e-4 c 0.16038,0.0696 0.31152,0.17104 0.4451,0.30463 0.13316,0.13314 0.23414,0.28343 0.30372,0.4428 l -0.92757,0.92893 -0.92984,0.92802 c -0.1599,-0.0695 -0.31042,-0.17088 -0.44372,-0.30417 l -0.37486,-0.37486 0.99872,-0.99688 z m 11.73045,0 c 0.16035,0.0696 0.31196,0.17104 0.44554,0.30463 0.13315,0.13315 0.23414,0.28342 0.30372,0.4428 l -0.92802,0.92893 -0.92849,0.92848 c -0.16023,-0.0695 -0.31152,-0.17107 -0.44509,-0.30463 l -0.37393,-0.37395 0.99779,-0.99779 z m 11.73088,0 c 0.16036,0.0696 0.3115,0.17104 0.44508,0.30463 0.13331,0.1333 0.2346,0.28387 0.30418,0.44371 l -0.92804,0.92802 -0.92893,0.92848 c -0.16022,-0.0695 -0.31107,-0.17108 -0.44463,-0.30463 l -0.37393,-0.37395 0.99778,-0.99779 z m -3.49455,4.7e-4 c 0.15998,0.0694 0.31077,0.17075 0.44417,0.30417 l 0.37486,0.37303 -0.99872,0.9987 -0.92937,0.92757 c -0.16012,-0.0694 -0.31084,-0.17036 -0.44418,-0.30372 -0.13342,-0.13342 -0.23476,-0.28426 -0.30417,-0.44418 l 0.92984,-0.92756 z m 11.73042,0 c 0.15998,0.0694 0.31121,0.17075 0.44463,0.30417 l 0.37531,0.37394 -0.99961,0.99779 -0.92801,0.92802 c -0.16048,-0.0694 -0.31194,-0.17055 -0.44554,-0.30417 -0.1333,-0.13328 -0.23431,-0.28399 -0.30372,-0.44372 l 0.9294,-0.92802 z m 3.4941,0 c 0.16051,0.0694 0.31185,0.17049 0.44555,0.30417 0.13325,0.13327 0.23459,0.28393 0.30416,0.44371 l -0.92802,0.92802 -0.92848,0.92848 c -0.16024,-0.0695 -0.31152,-0.17106 -0.44507,-0.30463 l -0.37396,-0.37394 0.99778,-0.9978 z m -46.92582,0.002 c 0.0541,0.0231 0.10754,0.0495 0.15961,0.0798 0.27383,0.15937 0.47608,0.39541 0.59147,0.66808 l -0.92756,0.92802 -1.74797,1.74568 -0.9271,0.92756 c -0.27197,-0.11558 -0.50768,-0.31796 -0.66717,-0.59148 -0.0304,-0.0522 -0.0567,-0.10541 -0.0798,-0.1596 l 0.92619,-0.92437 1.74569,-1.74751 z m 54.0572,4.6e-4 0.92574,0.92574 1.74749,1.74568 0.92619,0.92665 c -0.0231,0.054 -0.0495,0.10708 -0.0798,0.15915 -0.15939,0.27381 -0.39541,0.47654 -0.66808,0.59193 l -0.92802,-0.92802 -1.74612,-1.7475 -0.92758,-0.92756 c 0.1156,-0.27185 0.31805,-0.50729 0.59147,-0.66672 0.0517,-0.0302 0.10502,-0.0563 0.1587,-0.0793 z m -37.38296,0.0875 c 0.0868,0.065 0.16909,0.13671 0.2467,0.21434 l 0.59194,0.59101 c -0.13419,0.62132 0.0455,1.29372 0.53036,1.77851 0.48444,0.48445 1.15726,0.66438 1.77851,0.53082 l 0.5933,0.59329 c 0.0812,0.0813 0.16561,0.1573 0.25263,0.22893 -1.10649,0.50356 -2.46522,0.30377 -3.37232,-0.60333 -0.58301,-0.58299 -0.87422,-1.3529 -0.87422,-2.12327 0,-0.41379 0.0848,-0.8266 0.2531,-1.2103 z m 11.73089,0 c 0.0867,0.065 0.16909,0.13671 0.24669,0.21434 l 0.59148,0.59147 c -0.13398,0.62118 0.0457,1.29337 0.53036,1.77805 0.48467,0.48467 1.15793,0.66474 1.77942,0.53082 l 0.59239,0.59329 c 0.0812,0.0812 0.16565,0.15733 0.25263,0.22893 -1.10642,0.50341 -2.46529,0.30369 -3.37232,-0.60333 -0.583,-0.58299 -0.87375,-1.35292 -0.87375,-2.12327 0,-0.41379 0.0848,-0.8266 0.2531,-1.2103 z m 11.73041,0 c 0.0867,0.065 0.1691,0.13671 0.24673,0.21434 l 0.59192,0.59147 c -0.13398,0.62119 0.0457,1.29337 0.53036,1.77805 0.48474,0.48476 1.15783,0.66486 1.77942,0.53082 l 0.59238,0.59329 c 0.0813,0.0813 0.16559,0.1573 0.25264,0.22893 -1.10648,0.50356 -2.46523,0.30377 -3.37232,-0.60333 -0.583,-0.58299 -0.87422,-1.3529 -0.87422,-2.12327 0,-0.41379 0.0849,-0.82659 0.25309,-1.2103 z m -35.19219,4.7e-4 c 0.0867,0.065 0.16961,0.13631 0.24717,0.21388 l 0.59194,0.59055 c -0.1344,0.62146 0.045,1.29405 0.5299,1.77897 0.48444,0.48445 1.15725,0.66439 1.77851,0.53083 l 0.59329,0.59329 c 0.0812,0.0812 0.16566,0.15733 0.25263,0.22892 -1.10642,0.5034 -2.46532,0.30368 -3.37232,-0.60333 -0.58299,-0.58299 -0.87375,-1.35291 -0.87375,-2.12326 0,-0.4136 0.0845,-0.8263 0.25263,-1.20985 z m -8.30701,0.14457 c 0.19227,0.11232 0.42415,0.16876 0.5828,0.32742 0.0254,0.0254 0.0649,0.0668 0.10944,0.11355 l -0.25264,0.2531 c -0.0467,-0.0446 -0.0881,-0.084 -0.11353,-0.10945 -0.15868,-0.15867 -0.21374,-0.39235 -0.32607,-0.58462 z m 60.78544,0.002 c -0.11223,0.19201 -0.16759,0.42434 -0.32606,0.58281 -0.0256,0.0256 -0.0669,0.0652 -0.11401,0.11035 l -0.2531,-0.25309 c 0.0451,-0.0472 0.0847,-0.0888 0.11037,-0.11446 0.15839,-0.1584 0.3909,-0.21339 0.5828,-0.32561 z m -47.98927,0.81493 0.25034,0.24944 -0.25034,0.24945 -0.24945,-0.24945 z m 23.46268,0 0.2499,0.25035 -0.2499,0.24991 -0.25037,-0.25036 z m 11.73042,4.6e-4 0.24946,0.25037 -0.24901,0.24945 -0.25035,-0.25037 z m -23.46177,4.7e-4 0.24946,0.24854 -0.24991,0.24945 -0.24899,-0.24899 z m -23.46952,0.007 c 0.0756,0.0792 0.1572,0.16392 0.24534,0.25492 l -0.22527,0.22574 c -0.091,-0.0882 -0.17534,-0.16973 -0.25447,-0.24535 z m 58.66902,0 0.23622,0.23531 c -0.0792,0.0758 -0.16386,0.15752 -0.25492,0.2458 l -0.22665,-0.22665 c 0.0882,-0.091 0.1697,-0.17532 0.24535,-0.25446 z m -2.88622,0.60651 0.38352,0.38352 0.36711,0.36711 c -0.0508,0.0462 -0.10177,0.0925 -0.15323,0.13818 -0.56355,0.50046 -1.16746,0.98408 -1.76848,1.35622 -0.60683,0.37576 -1.17876,0.64984 -1.81498,0.64984 -1.02947,0 -2.01719,-0.40967 -2.74529,-1.13778 l -0.99917,-0.99871 0.37484,-0.37486 0.37396,-0.37393 0.99825,0.99778 c 0.52968,0.5297 1.24831,0.82769 1.99741,0.82769 0.16008,0 0.32027,-0.0468 0.53263,-0.12768 0.2124,-0.0809 0.46244,-0.20099 0.72556,-0.36391 0.51869,-0.32118 1.08588,-0.77153 1.62207,-1.2477 0.0359,-0.032 0.0704,-0.0639 0.1058,-0.0958 z m -52.89567,0.002 c 0.0349,0.0315 0.0699,0.0629 0.10532,0.0944 0.53602,0.47597 1.10136,0.92638 1.62029,1.24769 0.26304,0.16288 0.51283,0.28258 0.72553,0.36392 0.21271,0.0814 0.37353,0.12905 0.53447,0.12905 v -0.002 c 0.4087,0 0.80855,-0.0891 1.17337,-0.25583 0.12858,0.19563 0.27874,0.38089 0.45009,0.55225 0.0926,0.0926 0.18908,0.17892 0.28913,0.25903 -0.57833,0.32746 -1.2365,0.50436 -1.91259,0.50436 -0.63622,0 -1.21018,-0.2742 -1.81682,-0.64984 -0.60083,-0.37203 -1.20291,-0.85741 -1.76666,-1.35805 -0.0512,-0.0454 -0.10151,-0.0909 -0.15186,-0.13636 l 0.36573,-0.36527 z m 8.22768,0.007 0.99869,0.9987 c 0.48427,0.48427 1.15653,0.66334 1.7776,0.5299 l 0.5942,0.5942 c 0.0802,0.0802 0.16344,0.15696 0.24899,0.2303 -1.10598,0.50199 -2.4642,0.30162 -3.37049,-0.60469 l -0.99825,-0.99962 0.37439,-0.37394 z m 3.49454,8.8e-4 0.99778,0.99779 c 0.5297,0.52969 1.24694,0.8277 1.99603,0.8277 0.4087,0 0.80899,-0.0891 1.17384,-0.25583 0.12857,0.19562 0.27827,0.38088 0.44962,0.55225 0.0926,0.0926 0.18954,0.17891 0.2896,0.25902 -0.57837,0.32753 -1.2369,0.50437 -1.91306,0.50437 -1.02944,0 -2.0158,-0.40969 -2.74391,-1.1378 l -0.99871,-0.9987 0.37485,-0.37485 z m 8.23587,0 0.99916,0.99779 c 0.48418,0.48418 1.15615,0.66319 1.77714,0.52991 l 0.5942,0.59421 c 0.0802,0.0802 0.16344,0.15695 0.24899,0.23029 -1.10598,0.50198 -2.46373,0.30162 -3.37005,-0.6047 l -0.99823,-0.99916 0.3744,-0.37439 z m 3.49499,0 0.99781,0.99779 c 0.52968,0.52969 1.24829,0.8277 1.99741,0.8277 0.40864,0 0.80758,-0.0891 1.17199,-0.25583 0.1286,0.19562 0.27873,0.38088 0.45008,0.55225 0.0926,0.0926 0.18908,0.17891 0.28913,0.25902 -0.57792,0.32747 -1.23512,0.50437 -1.9112,0.50437 -1.02947,0 -2.01719,-0.40968 -2.74531,-1.1378 l -0.99914,-0.9987 0.37483,-0.37485 z m 8.23543,0 0.99916,0.99779 c 0.48465,0.48464 1.15749,0.66459 1.77898,0.53082 l 0.59283,0.5933 c 0.0802,0.0802 0.16341,0.15695 0.24899,0.23029 -1.10598,0.50199 -2.4642,0.30162 -3.37051,-0.6047 l -0.9978,-0.99916 0.37395,-0.37439 z m 3.49502,0 0.99778,0.99779 c 0.52968,0.52969 1.24875,0.8277 1.99785,0.8277 0.40891,0 0.80786,-0.0884 1.17246,-0.25492 0.12848,0.19531 0.27808,0.38022 0.4492,0.55134 0.0926,0.0926 0.1895,0.17891 0.28957,0.25902 -0.57797,0.32753 -1.23508,0.50437 -1.91123,0.50437 -1.02944,0 -2.01763,-0.40969 -2.74574,-1.1378 l -0.99871,-0.9987 0.37486,-0.37485 z m 8.23586,0 0.99916,0.99779 c 0.48456,0.48455 1.15714,0.66444 1.77852,0.53082 l 0.59285,0.5933 c 0.0802,0.0802 0.16342,0.15695 0.24899,0.23029 -1.10601,0.50198 -2.46376,0.30162 -3.37006,-0.6047 l -0.9978,-0.99916 0.37348,-0.37439 z m -48.95742,0.16599 c 0.13015,0.16587 0.27038,0.32465 0.42093,0.47519 0.0997,0.0997 0.23862,0.23222 0.40449,0.39037 -0.0811,0.44197 -0.0833,0.90762 0.15595,1.31791 0.41409,0.71014 1.22153,1.07774 2.01794,0.9344 0.25755,0.30469 0.49826,0.61191 0.70092,0.90249 -0.0786,0.0291 -0.15851,0.0553 -0.24033,0.078 -0.26624,0.0738 -0.53527,0.10896 -0.8017,0.10853 -1.04604,-0.002 -2.04644,-0.55185 -2.59207,-1.48757 -0.49747,-0.85313 -0.45545,-1.85526 -0.0661,-2.7193 z m 63.96943,0.002 c 0.39074,0.86244 0.43397,1.86091 -0.0625,2.71382 -0.68341,1.1741 -2.08232,1.74486 -3.39195,1.38405 -0.0838,-0.023 -0.1654,-0.0494 -0.24535,-0.0789 0.20295,-0.29047 0.44402,-0.59716 0.70228,-0.90202 0.79647,0.14309 1.60468,-0.22318 2.01839,-0.93395 0.23875,-0.41017 0.23802,-0.87671 0.15595,-1.31884 0.16573,-0.15842 0.30438,-0.29115 0.40405,-0.39082 0.14995,-0.14994 0.28945,-0.30827 0.41909,-0.47335 z m -59.11316,1.33936 c 0.30993,0.26643 0.63109,0.52613 0.95993,0.76521 -0.0815,0.0437 -0.16496,0.0839 -0.25036,0.11994 l -0.0999,0.0415 -0.0416,0.0981 c -0.0361,0.0859 -0.0765,0.17005 -0.12038,0.25218 -0.23881,-0.32878 -0.49859,-0.65007 -0.76476,-0.95994 0.0154,-0.0937 0.0217,-0.19039 0.0301,-0.28639 0.096,-0.008 0.19303,-0.015 0.28686,-0.0305 z m 54.25693,0.002 c 0.0938,0.0157 0.19072,0.0221 0.28683,0.0305 0.009,0.0964 0.0156,0.19305 0.0319,0.28683 -0.26622,0.30973 -0.52583,0.63044 -0.76476,0.95904 -0.0439,-0.0819 -0.0843,-0.16555 -0.12038,-0.25128 l -0.0415,-0.0999 -0.0999,-0.0415 c -0.0858,-0.0361 -0.16953,-0.0765 -0.25128,-0.12039 0.32842,-0.23852 0.64944,-0.49754 0.95903,-0.7634 z m -55.34047,0.24671 c 0.0456,0.0507 0.0913,0.10151 0.13682,0.15278 0.50044,0.56355 0.9859,1.16746 1.35805,1.76847 0.37575,0.60684 0.64985,1.17877 0.64985,1.815 0,1.02946 -0.40921,2.01719 -1.13735,2.74529 l -0.99962,0.99962 -0.3744,-0.37394 -0.37348,-0.37441 0.99733,-0.99915 c 0.5297,-0.5297 0.8277,-1.24831 0.8277,-1.99741 0,-0.16007 -0.0468,-0.32026 -0.1277,-0.53264 -0.0809,-0.21239 -0.20099,-0.46244 -0.36391,-0.72554 -0.32116,-0.5187 -0.77152,-1.08588 -1.24769,-1.6221 -0.0319,-0.0359 -0.0639,-0.0704 -0.0958,-0.1058 l 0.38352,-0.38352 z m 56.4258,0.002 0.36483,0.36528 0.38443,0.38443 c -0.0318,0.0355 -0.0632,0.071 -0.0948,0.10671 -0.47599,0.53598 -0.92638,1.10133 -1.24771,1.62027 -0.16287,0.26304 -0.28256,0.51101 -0.36391,0.72372 -0.0814,0.21271 -0.12905,0.3749 -0.12905,0.53583 h 0.003 c 0,0.40865 0.0885,0.80794 0.25492,1.17245 -0.19516,0.12847 -0.38028,0.27857 -0.55135,0.44965 -0.0925,0.0925 -0.17853,0.18919 -0.25857,0.28912 -0.32753,-0.5779 -0.50481,-1.23531 -0.50481,-1.91122 0,-0.63622 0.27421,-1.21153 0.64984,-1.81818 0.37203,-0.60083 0.85743,-1.20109 1.35805,-1.76484 0.0455,-0.0513 0.0912,-0.10242 0.1368,-0.15322 z m -2.08951,1.07349 c 0.0682,0.1494 0.14284,0.29576 0.22846,0.43506 -0.0283,0.044 -0.0566,0.0875 -0.0839,0.13178 -0.3932,0.635 -0.72875,1.30843 -0.72875,2.09591 0,0.85673 0.24972,1.68728 0.70822,2.39552 -0.59714,1.07306 -0.59318,2.39904 0.0142,3.46947 -0.60588,1.0691 -0.61116,2.39485 -0.0138,3.46901 -0.45866,0.70862 -0.70866,1.53994 -0.70866,2.39689 0,0.78747 0.33564,1.45929 0.72874,2.09408 0.0273,0.044 0.0552,0.088 0.0835,0.13179 -0.0855,0.13937 -0.15987,0.28567 -0.22802,0.43506 -0.14906,0.068 -0.2951,0.14261 -0.43414,0.22801 -0.0436,-0.0282 -0.0875,-0.0559 -0.13134,-0.083 -0.63499,-0.3932 -1.30841,-0.7292 -2.09589,-0.7292 -0.85714,0 -1.68912,0.2494 -2.3978,0.70822 -0.42363,-0.23545 -0.8865,-0.37733 -1.35761,-0.42548 -0.72225,-0.0739 -1.46294,0.0728 -2.11051,0.44007 -0.42343,-0.24031 -0.88665,-0.38668 -1.35896,-0.43824 -0.72103,-0.0787 -1.46177,0.0621 -2.11096,0.42365 -0.70793,-0.45829 -1.53804,-0.70822 -2.39461,-0.70822 -0.85718,0 -1.68952,0.24935 -2.39824,0.70822 -0.42364,-0.23545 -0.8865,-0.37733 -1.35761,-0.42548 -0.72224,-0.0739 -1.46247,0.0728 -2.11004,0.44007 -0.42345,-0.24031 -0.88711,-0.38668 -1.35943,-0.43824 -0.72121,-0.0788 -1.46165,0.0624 -2.11095,0.4241 -0.70834,-0.45829 -1.53947,-0.70858 -2.39597,-0.70867 -0.85664,2.4e-4 -1.68811,0.24965 -2.39644,0.70822 -0.42361,-0.23545 -0.88648,-0.37733 -1.35758,-0.42548 -0.72204,-0.0739 -1.46261,0.0725 -2.11005,0.43962 -0.42343,-0.24029 -0.88716,-0.38623 -1.35943,-0.43779 -0.72121,-0.0788 -1.46165,0.0624 -2.11095,0.4241 -0.70852,-0.45845 -1.53971,-0.70867 -2.39644,-0.70867 -0.85652,4.7e-4 -1.68821,0.24967 -2.39644,0.70822 -0.42361,-0.23545 -0.88648,-0.37733 -1.35758,-0.42548 -0.72222,-0.0739 -1.46247,0.0728 -2.11005,0.44007 -0.42344,-0.24031 -0.8871,-0.38668 -1.35942,-0.43824 -0.72122,-0.0788 -1.46166,0.0624 -2.11096,0.4241 -0.70835,-0.45829 -1.53949,-0.70858 -2.39597,-0.70867 -0.78687,4.7e-4 -1.45829,0.33635 -2.09272,0.7292 -0.0443,0.0274 -0.0886,0.0555 -0.13271,0.0839 -0.1396,-0.0857 -0.2863,-0.16064 -0.43596,-0.22892 -0.0681,-0.14931 -0.1429,-0.29538 -0.22847,-0.4346 0.0283,-0.044 0.0566,-0.0881 0.0839,-0.13225 0.39317,-0.63499 0.72873,-1.3066 0.72873,-2.09408 h -0.52898 c 0,0.63623 -0.2742,1.20971 -0.64985,1.81636 -0.37203,0.60083 -0.8556,1.20291 -1.35622,1.76665 -0.0456,0.0514 -0.0917,0.10224 -0.13773,0.15278 l -0.36574,-0.36619 -0.38397,-0.38443 c 0.0315,-0.035 0.0629,-0.0699 0.0944,-0.10535 0.47599,-0.536 0.92636,-1.10272 1.24768,-1.62164 0.16289,-0.26304 0.28441,-0.51146 0.36574,-0.72417 0.0814,-0.21271 0.12724,-0.37307 0.12724,-0.53401 h -0.529 c 0,0.0169 -0.0248,0.16621 -0.093,0.34476 -0.0555,0.14513 -0.13709,0.3195 -0.24353,0.50573 -0.12858,-0.0524 -0.26127,-0.0979 -0.39766,-0.13544 -0.82441,-0.22712 -1.67837,-0.14041 -2.4174,0.20065 -0.12444,-0.28612 -0.19017,-0.59734 -0.19017,-0.9157 0,-0.3188 0.0662,-0.63084 0.19108,-0.91753 0.46857,0.21489 0.9747,0.32287 1.48073,0.32287 0.50529,0 1.01076,-0.10763 1.478,-0.32196 v 4.7e-4 c 0.12437,0.28565 0.19017,0.59628 0.19014,0.91433 h 0.52946 c 0,-0.40876 -0.0884,-0.80784 -0.25492,-1.17245 0.1951,-0.12851 0.38018,-0.27802 0.55133,-0.44918 0.093,-0.093 0.17957,-0.19003 0.25994,-0.29049 0.32749,0.57812 0.50347,1.23587 0.50347,1.91212 h 0.52898 c 0,-0.85694 -0.24994,-1.68715 -0.70867,-2.39551 0.59721,-1.07304 0.59355,-2.39857 -0.0138,-3.46902 0.60662,-1.06944 0.61255,-2.39596 0.0145,-3.47038 0.45817,-0.70834 0.70777,-1.53907 0.70777,-2.39552 0,-0.78748 -0.33568,-1.45973 -0.72873,-2.09454 -0.0275,-0.0443 -0.0555,-0.0882 -0.0839,-0.13224 0.0857,-0.13911 0.1602,-0.28499 0.22848,-0.4346 0.1491,-0.068 0.29512,-0.1426 0.43413,-0.22801 0.0438,0.0282 0.0875,0.0562 0.13134,0.0835 0.63499,0.39318 1.30844,0.72873 2.09592,0.72873 0.85654,0 1.68804,-0.25024 2.39643,-0.70867 1.07302,0.59737 2.39897,0.59349 3.46946,-0.0137 1.06867,0.60582 2.39403,0.61053 3.4681,0.0132 0.70835,0.45908 1.53909,0.70913 2.39643,0.70913 0.85647,0 1.68808,-0.25031 2.39643,-0.70867 1.07304,0.59736 2.39896,0.59347 3.46948,-0.0137 1.0693,0.60681 2.39539,0.61241 3.46992,0.0141 0.70853,0.45851 1.53965,0.70822 2.39643,0.70822 0.85713,0 1.68795,-0.24941 2.39642,-0.70822 1.07282,0.59668 2.398,0.5928 3.4681,-0.0141 1.06915,0.60655 2.39512,0.61217 3.46946,0.0141 0.70859,0.45859 1.54003,0.70822 2.39688,0.70822 0.85707,0 1.68755,-0.24948 2.396,-0.70822 1.07299,0.5967 2.39884,0.59282 3.469,-0.0137 1.06917,0.60607 2.39537,0.61156 3.46948,0.0141 0.70842,0.4583 1.53941,0.70776 2.39597,0.70776 0.78749,0 1.45927,-0.33566 2.09408,-0.72873 0.0443,-0.0274 0.0886,-0.0555 0.1328,-0.0839 0.13918,0.0857 0.28509,0.16022 0.43469,0.22848 z m -58.20659,0.74834 c 0.23314,0.29108 0.50797,0.53924 0.81218,0.73923 -0.16671,0.36489 -0.25583,0.76498 -0.25583,1.17381 0,0.40891 0.0884,0.80884 0.25492,1.17382 -0.19533,0.12848 -0.38023,0.27853 -0.55136,0.44965 -0.0926,0.0926 -0.17892,0.18906 -0.259,0.28912 -0.32754,-0.57837 -0.50438,-1.23644 -0.50438,-1.91259 0,-0.67605 0.17619,-1.33446 0.50347,-1.91304 z m 64.16551,4.7e-4 c 0.32763,0.57886 0.50437,1.23773 0.50437,1.91396 0,1.02944 -0.40922,2.01581 -1.13733,2.74392 l -0.99915,0.99916 -0.37487,-0.37485 -0.37395,-0.37441 0.99825,-0.99779 c 0.52971,-0.52969 0.82724,-1.24694 0.82724,-1.99603 0,-0.40934 -0.0892,-0.80948 -0.2563,-1.17473 0.30394,-0.20013 0.5787,-0.44844 0.81174,-0.73923 z m -62.88864,0.99688 c 0.46008,0.21192 0.96456,0.32532 1.4789,0.32606 0.3135,4.7e-4 0.63034,-0.0411 0.94261,-0.12769 0.13397,-0.0372 0.26494,-0.082 0.39172,-0.13361 0.10654,0.18645 0.18733,0.36109 0.24262,0.50619 0.0678,0.17801 0.093,0.3269 0.093,0.34475 0,0.31846 -0.066,0.62973 -0.19062,0.91617 -0.46746,-0.21454 -0.97182,-0.32151 -1.47753,-0.32151 -0.50586,10e-6 -1.01263,0.10767 -1.48117,0.32242 -0.12463,-0.28656 -0.19064,-0.59851 -0.19064,-0.91708 0,-0.3183 0.0664,-0.62966 0.19109,-0.9157 z m 61.80374,0.9171 c 0,0.31825 -0.0657,0.6294 -0.19014,0.91524 -0.46831,-0.21461 -0.97413,-0.32195 -1.47982,-0.32195 -0.5055,0 -1.01151,0.10745 -1.47937,0.32195 -0.12464,-0.28591 -0.19062,-0.59685 -0.19062,-0.91524 h -0.003 c 0,-0.017 0.0267,-0.16759 0.0949,-0.34612 0.0554,-0.14499 0.13585,-0.3193 0.24168,-0.50529 0.12856,0.0529 0.26137,0.0988 0.39768,0.13635 0.82418,0.22708 1.67802,0.14021 2.4172,-0.2011 0.12488,0.28629 0.19087,0.59755 0.19087,0.91616 z m -60.32302,1.12229 c 0.41379,0 0.82615,0.0848 1.20984,0.25309 -0.065,0.0867 -0.13638,0.16922 -0.21387,0.24671 l -0.59147,0.59147 c -0.27706,-0.0598 -0.5643,-0.0576 -0.84046,0.006 -0.34343,0.0797 -0.66938,0.25533 -0.93806,0.52398 -0.48444,0.48444 -0.66392,1.15725 -0.53036,1.77851 l -0.5933,0.59329 c -0.0812,0.0813 -0.1573,0.16562 -0.2289,0.25265 -0.50341,-1.10644 -0.30414,-2.46531 0.60286,-3.37234 0.58299,-0.58299 1.35336,-0.87374 2.12372,-0.87374 z m 58.65306,0 c 0.41393,0 0.82731,0.0847 1.21165,0.25309 -0.0649,0.0866 -0.13637,0.16922 -0.21387,0.24671 l -0.59147,0.59147 c -0.28221,-0.0605 -0.57509,-0.0559 -0.85596,0.0118 -0.33752,0.0814 -0.65764,0.25406 -0.92208,0.51851 -0.48435,0.4843 -0.66418,1.15732 -0.53083,1.77852 l -0.5933,0.59328 c -0.0813,0.0813 -0.15727,0.16556 -0.22891,0.25264 -0.5027,-1.10631 -0.30376,-2.46571 0.60287,-3.37233 0.58318,-0.58317 1.35144,-0.87375 2.1219,-0.87375 z m -59.2085,1.69186 0.92755,0.92984 0.92848,0.92665 c -0.0695,0.16033 -0.17096,0.31143 -0.30462,0.44509 l -0.37393,0.37394 -0.99781,-0.99779 -0.92801,-0.92893 c 0.0695,-0.16033 0.17065,-0.31113 0.30416,-0.44463 0.1335,-0.1335 0.28418,-0.23475 0.44418,-0.30417 z m 58.6535,4.7e-4 0.92893,0.92756 0.92894,0.92847 c -0.0695,0.16044 -0.17137,0.31138 -0.30509,0.44508 l -0.3744,0.37486 -0.99733,-0.9987 -0.92802,-0.92802 c 0.0694,-0.1605 0.17049,-0.31186 0.30417,-0.44553 0.13301,-0.13302 0.28338,-0.23416 0.4428,-0.30372 z m 3.28115,0.0547 c 0.50196,1.10598 0.30206,2.46374 -0.60425,3.37005 l -0.99962,0.99825 -0.3744,-0.3744 -0.37349,-0.37394 0.99779,-0.99962 c 0.48455,-0.48455 0.66443,-1.15714 0.53083,-1.77851 l 0.59282,-0.59283 c 0.0802,-0.0802 0.15698,-0.16346 0.23032,-0.249 z m -58.65535,4.7e-4 c 0.50212,1.10592 0.3026,2.46323 -0.60378,3.36959 l -0.71369,0.71369 -0.28593,0.28456 -0.3744,-0.3744 -0.37348,-0.37394 0.44965,-0.44965 0.54768,-0.54997 c 0.48428,-0.48424 0.66447,-1.15731 0.53128,-1.77851 l 0.59282,-0.59283 c 0.0801,-0.08 0.15665,-0.16315 0.22985,-0.24854 z m 54.8069,1.62163 0.37442,0.37441 0.37393,0.37439 -0.45009,0.45102 -0.54769,0.54814 c -0.4844,0.48437 -0.66465,1.15765 -0.53128,1.77897 l -0.59285,0.59285 c -0.0799,0.0799 -0.15629,0.16284 -0.22938,0.24807 -0.50209,-1.10591 -0.30304,-2.46323 0.60334,-3.3696 l 0.71367,-0.71368 z m -58.65488,4.7e-4 0.37442,0.37395 0.37393,0.37439 -0.99825,0.99916 c -0.48463,0.48465 -0.6641,1.1575 -0.53036,1.77897 l -0.5933,0.59284 c -0.0802,0.0802 -0.15694,0.16341 -0.23028,0.24899 -0.50197,-1.10599 -0.30208,-2.4642 0.60424,-3.3705 z m 1.12275,1.1232 0.24898,0.24945 -0.24943,0.2499 -0.24945,-0.24945 z m 58.65488,4.7e-4 0.24899,0.24944 -0.24899,0.24945 -0.249,-0.24899 z m -0.62293,0.62384 0.99641,0.99825 0.92849,0.92848 c -0.0697,0.1602 -0.17102,0.31147 -0.30464,0.44508 -0.13299,0.13299 -0.28301,0.23406 -0.44234,0.30371 l -0.92939,-0.92938 -0.92802,-0.92711 c 0.0694,-0.16025 0.17077,-0.31168 0.30417,-0.44508 z m -58.65625,4.7e-4 0.99778,0.99779 0.92848,0.92848 c -0.0696,0.16035 -0.17103,0.3115 -0.30462,0.44508 -0.13304,0.13305 -0.28332,0.23415 -0.44281,0.30371 l -0.92893,-0.92756 -0.92846,-0.92847 c 0.0695,-0.16038 0.17096,-0.31189 0.30461,-0.44555 z m 3.34909,0.12039 c 0.50398,1.10655 0.30402,2.46543 -0.60334,3.37279 -0.58318,0.58317 -1.34962,0.8742 -2.12008,0.8742 -0.41395,0 -0.82871,-0.0852 -1.2135,-0.25355 0.065,-0.0867 0.13643,-0.16878 0.21388,-0.24625 l 0.59149,-0.59193 c 0.62107,0.13379 1.29354,-0.0458 1.77804,-0.53036 0.48447,-0.48442 0.66434,-1.15721 0.53082,-1.77851 l 0.59328,-0.5933 c 0.0814,-0.0814 0.15765,-0.16587 0.22941,-0.25309 z m 58.6544,4.7e-4 c 0.50356,1.10648 0.30424,2.46523 -0.60286,3.37233 -0.58299,0.58299 -1.35156,0.87421 -2.1219,0.87421 -0.41378,0 -0.82757,-0.0849 -1.21168,-0.2531 0.065,-0.0867 0.13633,-0.16915 0.21388,-0.24671 l 0.59193,-0.59193 c 0.6211,0.13385 1.29347,-0.0458 1.77805,-0.53035 0.48446,-0.48444 0.66394,-1.15726 0.53036,-1.77851 l 0.59329,-0.5933 c 0.0813,-0.0813 0.15728,-0.16556 0.22893,-0.25264 z m -62.50238,1.62574 0.37486,0.37485 0.37393,0.37395 -0.99825,0.99779 c -0.52968,0.52969 -0.82722,1.24877 -0.82722,1.99786 0,0.40933 0.0892,0.80853 0.25628,1.17337 -0.30412,0.20005 -0.57857,0.44828 -0.81172,0.73921 -0.32763,-0.57846 -0.50438,-1.23635 -0.50438,-1.91258 0,-1.02946 0.40923,-2.01763 1.13734,-2.74574 z m 58.65579,0 0.37395,0.37304 0.3744,0.3753 -0.99825,0.99825 c -0.52971,0.52969 -0.8277,1.24877 -0.8277,1.99786 0,0.16008 0.0468,0.32026 0.12768,0.53264 0.0809,0.21238 0.20098,0.46243 0.36391,0.72555 0.32116,0.51869 0.77154,1.08543 1.24771,1.62163 0.0319,0.036 0.0639,0.0708 0.0958,0.10626 l -0.3835,0.38351 -0.36667,0.3662 c -0.0456,-0.0506 -0.0913,-0.10151 -0.13679,-0.15277 -0.50046,-0.56355 -0.98591,-1.167 -1.35806,-1.76802 -0.37575,-0.60683 -0.64985,-1.17878 -0.64985,-1.815 0,-1.02946 0.40921,-2.01764 1.13735,-2.74574 z m 3.87669,1.83141 c 0.32754,0.57837 0.50437,1.23689 0.50437,1.91304 0,0.67591 -0.17632,1.33409 -0.50346,1.91258 -0.23327,-0.29148 -0.50783,-0.54024 -0.81218,-0.74058 0.16671,-0.36447 0.25583,-0.76318 0.25583,-1.172 0,-0.40891 -0.0884,-0.80929 -0.25492,-1.17427 0.19515,-0.12848 0.38021,-0.27806 0.55133,-0.44919 0.0926,-0.0926 0.17892,-0.18952 0.25903,-0.28958 z m -1.27504,0.99597 c 0.12449,0.28645 0.19014,0.59866 0.19014,0.91707 0,0.31781 -0.0663,0.62865 -0.19061,0.91434 -0.45962,-0.21213 -0.96335,-0.32577 -1.47753,-0.32652 -0.31406,-4.7e-4 -0.63161,0.0424 -0.94443,0.12906 -0.13386,0.0371 -0.26461,0.0824 -0.39127,0.13408 -0.10671,-0.18666 -0.18773,-0.36097 -0.24307,-0.5062 -0.0678,-0.17801 -0.093,-0.32692 -0.093,-0.34476 0,-0.3183 0.0661,-0.62983 0.19062,-0.91615 0.46784,0.2145 0.97369,0.32149 1.47937,0.32149 0.50569,0 1.01188,-0.1078 1.47982,-0.32241 z m -60.07724,2.03571 c 0.24655,0.004 0.49504,0.0391 0.7406,0.10671 0.0835,0.023 0.16527,0.05 0.24532,0.0798 -0.20259,0.29075 -0.44301,0.59783 -0.7009,0.90294 -0.79691,-0.14397 -1.60536,0.22093 -2.01931,0.93212 -0.2385,0.4098 -0.23585,0.87616 -0.15412,1.31792 -0.16662,0.15883 -0.30627,0.29167 -0.40632,0.39173 -0.14996,0.14997 -0.28945,0.30864 -0.41911,0.47381 -0.39085,-0.86251 -0.434,-1.86127 0.0625,-2.71428 0.55528,-0.95396 1.58304,-1.50946 2.65135,-1.49075 z m 58.59742,0 c 1.04602,0.002 2.04644,0.55141 2.59205,1.48711 0.4978,0.85364 0.45614,1.85499 0.0661,2.7193 -0.13002,-0.16571 -0.27048,-0.32476 -0.4209,-0.47518 -0.0998,-0.0998 -0.239,-0.23168 -0.40495,-0.38991 0.081,-0.44211 0.0838,-0.90933 -0.15551,-1.31975 -0.41408,-0.71014 -1.22153,-1.07612 -2.01793,-0.93257 -0.25763,-0.30477 -0.49819,-0.61182 -0.70091,-0.90249 0.0786,-0.0291 0.15899,-0.0553 0.24077,-0.078 0.26627,-0.0738 0.53481,-0.10896 0.80126,-0.10853 z m -53.3202,2.67507 c -0.21237,0.0809 -0.46104,0.20052 -0.72415,0.36345 -0.51872,0.32117 -1.08544,0.77153 -1.62164,1.24769 -0.0359,0.0319 -0.0716,0.064 -0.10717,0.0958 l -0.38399,-0.38353 -0.36618,-0.36664 c 0.0512,-0.0462 0.10266,-0.0925 0.15412,-0.13818 0.56355,-0.50046 1.16566,-0.98454 1.76666,-1.35669 0.60641,-0.37548 1.17934,-0.64945 1.815,-0.64984 h -0.003 0.003 c 1.02898,4.7e-4 2.01614,0.40999 2.74394,1.13779 l 0.99916,0.99871 -0.37486,0.37485 -0.3744,0.37394 -0.99778,-0.99779 c -0.52938,-0.52936 -1.81391,-0.8275 -1.9965,-0.82723 -0.15963,2.3e-4 -0.32087,0.0469 -0.53265,0.12769 z m 12.26118,-1.18796 c 1.02947,0 2.01765,0.40966 2.74576,1.13779 l 0.99869,0.99871 -0.37483,0.37485 -0.37396,0.37394 -0.99778,-0.99779 c -0.52969,-0.52968 -1.24878,-0.82723 -1.99788,-0.82723 -0.40857,2.3e-4 -0.80823,0.0884 -1.1729,0.25491 -0.12843,-0.19523 -0.27768,-0.38027 -0.44873,-0.55134 -0.0926,-0.0926 -0.18952,-0.17893 -0.28958,-0.25902 0.57793,-0.32737 1.23558,-0.5045 1.91121,-0.50482 z m 11.73089,0 v 0 c 1.02928,1.2e-4 2.01681,0.40977 2.74482,1.13779 l 0.99916,0.99871 -0.37486,0.37485 -0.37393,0.37394 -0.99825,-0.99779 c -0.5296,-0.52957 -1.24847,-0.82711 -1.99741,-0.82723 -0.40855,2e-4 -0.80823,0.0881 -1.1729,0.25446 -0.12839,-0.19512 -0.27821,-0.37992 -0.4492,-0.55089 -0.0927,-0.0927 -0.18933,-0.17926 -0.28957,-0.25947 0.57802,-0.32738 1.23594,-0.50413 1.91167,-0.50437 z m 11.73224,0 c 1.02947,0 2.0158,0.40966 2.74394,1.13779 l 0.99869,0.99871 -0.37484,0.37485 -0.37395,0.37394 -0.99778,-0.99779 c -0.52969,-0.52968 -1.24694,-0.82723 -1.99606,-0.82723 -0.40882,0 -0.80889,0.089 -1.17381,0.25583 -0.1286,-0.19562 -0.27827,-0.38088 -0.44965,-0.55226 -0.0926,-0.0926 -0.1895,-0.17893 -0.28957,-0.25902 0.57847,-0.32766 1.23676,-0.50482 1.91303,-0.50482 z m 10.55708,1.31615 c -0.1286,-0.19564 -0.27874,-0.3809 -0.45009,-0.55226 -0.0928,-0.0928 -0.18934,-0.17928 -0.28959,-0.25947 0.57841,-0.32761 1.23682,-0.50438 1.91305,-0.5044 0.63622,-2e-5 1.21015,0.27418 1.8168,0.64982 0.60084,0.37203 1.20293,0.85788 1.76666,1.35852 0.0511,0.0454 0.10154,0.0904 0.15185,0.13589 l -0.36573,0.36528 -0.38397,0.38398 c -0.0349,-0.0315 -0.07,-0.063 -0.10535,-0.0944 -0.53599,-0.47598 -1.10133,-0.92637 -1.62025,-1.24769 -0.26305,-0.16288 -0.51283,-0.28211 -0.72556,-0.36345 -0.21271,-0.0814 -0.37351,-0.12911 -0.53445,-0.12859 -0.4087,0.002 -0.80852,0.09 -1.17337,0.25678 z m -48.96973,-1.21537 c 0.0438,0.0817 0.0839,0.16574 0.11991,0.25128 l 0.0416,0.0999 0.0999,0.041 c 0.0861,0.0363 0.17018,0.0768 0.25219,0.12085 -0.32843,0.23854 -0.649,0.49752 -0.95858,0.76339 -0.0942,-0.0159 -0.19162,-0.0226 -0.28822,-0.031 -0.009,-0.0958 -0.0154,-0.1918 -0.0314,-0.28502 0.26622,-0.30997 0.52584,-0.63141 0.76476,-0.9604 z m 53.36265,0 c 0.23894,0.32903 0.49842,0.65031 0.76475,0.9604 -0.0156,0.0938 -0.0217,0.19073 -0.0301,0.28684 -0.096,0.008 -0.193,0.015 -0.28684,0.0305 -0.31004,-0.26653 -0.63097,-0.52652 -0.95993,-0.76567 0.0815,-0.0437 0.16496,-0.0839 0.25037,-0.11994 l 0.0999,-0.041 0.0415,-0.10033 c 0.0361,-0.0858 0.0766,-0.16911 0.12039,-0.25082 z m -56.56078,0.10945 0.92757,0.92756 1.74612,1.7475 0.92756,0.92757 c -0.11558,0.27191 -0.31801,0.50726 -0.59147,0.66671 -0.0521,0.0304 -0.10561,0.0567 -0.15961,0.0798 l -0.92482,-0.92573 -1.74751,-1.74614 -0.9262,-0.92618 c 0.0231,-0.0541 0.0494,-0.10747 0.0798,-0.15961 0.15944,-0.27394 0.39573,-0.47611 0.66854,-0.59148 z m 59.76029,0 c 0.27185,0.1156 0.50727,0.31806 0.6667,0.59147 0.0304,0.0521 0.0567,0.10514 0.0798,0.15916 l -0.9262,0.92482 -1.74566,1.74795 -0.92619,0.92574 c -0.0542,-0.0231 -0.10792,-0.0494 -0.16008,-0.0798 -0.27386,-0.1594 -0.47609,-0.39537 -0.59147,-0.66809 l 0.92757,-0.92756 1.74795,-1.74613 z m -49.2657,0.0543 c 0.78312,-0.0109 1.57002,0.2799 2.1634,0.87329 l 0.99778,0.99916 -0.37349,0.3744 -0.3744,0.37394 -0.99959,-0.99779 c -0.26536,-0.26536 -0.58632,-0.4393 -0.92529,-0.52032 -0.28014,-0.067 -0.57197,-0.071 -0.85324,-0.0105 l -0.59284,-0.59285 c -0.0802,-0.0802 -0.16344,-0.15696 -0.24899,-0.23028 0.38187,-0.17333 0.7937,-0.26329 1.20666,-0.26907 z m 3.59394,0 c 0.74963,0.0143 1.49498,0.30518 2.06309,0.87329 0.583,0.58299 0.8742,1.35291 0.8742,2.12327 0,0.41378 -0.0849,0.8266 -0.2531,1.2103 -0.0868,-0.065 -0.16913,-0.13632 -0.2467,-0.21387 l -0.59194,-0.59193 c 0.13384,-0.62108 -0.0458,-1.29347 -0.53034,-1.77806 -0.26075,-0.26076 -0.57589,-0.43252 -0.90843,-0.51531 -0.28532,-0.071 -0.5831,-0.077 -0.87008,-0.0155 l -0.59285,-0.59284 c -0.0812,-0.0812 -0.16608,-0.1573 -0.2531,-0.22892 0.41351,-0.1882 0.86196,-0.27894 1.30925,-0.27043 z m 8.13694,0 c 0.7831,-0.0109 1.57,0.2799 2.1634,0.87329 l 0.99779,0.99962 -0.37393,0.37394 -0.37443,0.37394 -0.99915,-0.99779 c -0.26536,-0.26535 -0.58676,-0.43931 -0.92573,-0.52032 -0.28012,-0.067 -0.57198,-0.071 -0.85324,-0.0105 l -0.59284,-0.59285 c -0.0802,-0.0802 -0.16341,-0.15695 -0.24899,-0.23028 0.38186,-0.17333 0.79415,-0.26329 1.20712,-0.26907 z m 3.59395,0 c 0.74963,0.0143 1.49497,0.30518 2.06309,0.87329 0.58299,0.58299 0.87375,1.35291 0.87375,2.12327 0,0.41378 -0.0849,0.82661 -0.25309,1.2103 -0.0867,-0.065 -0.16923,-0.13638 -0.24673,-0.21387 l -0.59147,-0.59193 c 0.13384,-0.62108 -0.0458,-1.29347 -0.53036,-1.77806 -0.26074,-0.26076 -0.57588,-0.43252 -0.90841,-0.51531 -0.28537,-0.071 -0.58353,-0.077 -0.87055,-0.0155 l -0.59285,-0.59284 c -0.0813,-0.0813 -0.16557,-0.15774 -0.25263,-0.22938 0.41338,-0.18806 0.86212,-0.27848 1.30925,-0.26997 z m 8.13647,0 c 0.78312,-0.0109 1.57001,0.2799 2.1634,0.87329 l 0.99824,0.99916 -0.37438,0.3744 -0.3744,0.37394 -0.99917,-0.99779 c -0.26535,-0.26535 -0.5863,-0.43931 -0.92528,-0.52032 -0.28011,-0.067 -0.57197,-0.071 -0.85323,-0.0105 l -0.59284,-0.59285 c -0.0802,-0.0802 -0.16342,-0.15696 -0.24899,-0.23028 0.38186,-0.17333 0.79368,-0.26329 1.20665,-0.26907 z m 3.59397,0 c 0.74961,0.0143 1.49495,0.30518 2.06307,0.87329 0.58299,0.58299 0.87422,1.35291 0.87422,2.12327 0,0.41378 -0.0849,0.82661 -0.2531,1.2103 -0.0867,-0.065 -0.16916,-0.13632 -0.24673,-0.21387 l -0.59191,-0.59193 c 0.13383,-0.62108 -0.0458,-1.29347 -0.53037,-1.77806 -0.26075,-0.26076 -0.57589,-0.43252 -0.9084,-0.51531 -0.28534,-0.071 -0.58313,-0.077 -0.87011,-0.0155 l -0.59329,-0.59284 c -0.0812,-0.0812 -0.16563,-0.1573 -0.25265,-0.22892 0.41352,-0.1882 0.86196,-0.27894 1.30927,-0.27043 z m 8.13692,0 c 0.78311,-0.0109 1.57001,0.2799 2.16339,0.87329 l 0.99778,0.99962 -0.37393,0.37394 -0.37439,0.37394 -0.99916,-0.99779 c -0.26536,-0.26536 -0.58675,-0.4393 -0.92575,-0.52032 -0.27964,-0.0668 -0.57102,-0.0697 -0.85185,-0.009 l -0.5942,-0.59421 c -0.0802,-0.0802 -0.16346,-0.15696 -0.24899,-0.23029 0.38184,-0.17332 0.79413,-0.26329 1.2071,-0.26906 z m 3.59397,0 c 0.74961,0.0143 1.49494,0.30518 2.06307,0.87329 0.58299,0.58299 0.87375,1.35291 0.87375,2.12327 0,0.41378 -0.0849,0.8266 -0.2531,1.2103 -0.0867,-0.065 -0.16923,-0.13638 -0.2467,-0.21387 l -0.59147,-0.59102 c 0.13419,-0.62132 -0.0455,-1.29415 -0.53036,-1.77897 -0.26077,-0.26076 -0.5759,-0.43252 -0.90843,-0.51531 -0.28535,-0.071 -0.58353,-0.077 -0.87056,-0.0155 l -0.59282,-0.59284 c -0.0813,-0.0813 -0.16559,-0.15774 -0.25266,-0.22938 0.41339,-0.18806 0.86213,-0.27848 1.30928,-0.26997 z m 4.06048,1.32293 c 0.017,0 0.16622,0.0267 0.34474,0.0949 0.14511,0.0555 0.3196,0.13618 0.50576,0.24215 -0.0524,0.12854 -0.0975,0.26091 -0.135,0.3972 -0.22717,0.82456 -0.14056,1.67874 0.20065,2.41787 -0.28614,0.12446 -0.59777,0.19016 -0.91615,0.19016 -0.31843,0 -0.62977,-0.066 -0.91616,-0.19062 0.21453,-0.46747 0.32149,-0.97229 0.32149,-1.47799 0,-0.50588 -0.10764,-1.01262 -0.3224,-1.48118 0.28656,-0.12463 0.5985,-0.19062 0.91707,-0.19062 z m -46.00693,0.19295 c -0.2149,0.46855 -0.3224,0.9747 -0.3224,1.48073 0,0.50527 0.10717,1.01077 0.32149,1.47799 v 0 c -0.28567,0.12439 -0.59631,0.19062 -0.91436,0.19062 -0.31864,0 -0.62985,-0.0665 -0.91615,-0.19153 0.21215,-0.45998 0.32622,-0.9647 0.32697,-1.47891 0,-0.3135 -0.0431,-0.63032 -0.12951,-0.94261 v -0.002 c -0.0371,-0.13342 -0.082,-0.2632 -0.13363,-0.38945 0.18651,-0.10656 0.36109,-0.18777 0.5062,-0.24306 0.17638,-0.0673 0.32469,-0.093 0.34454,-0.093 0.31854,-4.6e-4 0.6302,0.0663 0.91685,0.19109 z m 11.73088,0 c -0.2149,0.46856 -0.32286,0.9747 -0.32286,1.48073 0,0.50527 0.10764,1.01077 0.32195,1.47799 v 0 c -0.28564,0.12439 -0.59627,0.19062 -0.91433,0.19062 -0.31829,0 -0.62983,-0.0661 -0.91615,-0.19062 0.2145,-0.46746 0.32151,-0.97232 0.32151,-1.47799 0,-0.50602 -0.10754,-1.01298 -0.32242,-1.48164 0.2859,-0.12428 0.59746,-0.18992 0.91552,-0.19004 0.31805,-1.2e-4 0.63009,0.0661 0.91678,0.19095 z m 10.81336,-0.19107 v 0 c 0.31862,6e-5 0.63007,0.0663 0.91659,0.19107 -0.21489,0.46856 -0.32239,0.9747 -0.32239,1.48073 0,0.50527 0.10717,1.01077 0.32149,1.47799 v 0 c -0.28567,0.12439 -0.59628,0.19062 -0.91434,0.19062 -0.31845,0 -0.62973,-0.066 -0.91617,-0.19062 0.21455,-0.46748 0.32151,-0.97229 0.32151,-1.47799 0,-0.50589 -0.10766,-1.01263 -0.32243,-1.48118 0.28617,-0.12446 0.59762,-0.19044 0.91571,-0.19062 z m 11.73224,0 c 0.31845,0 0.62974,0.066 0.91571,0.19062 -0.21501,0.46866 -0.32286,0.97501 -0.32286,1.48118 0,0.50514 0.10775,1.01042 0.32195,1.47753 -0.2859,0.12465 -0.59637,0.19108 -0.9148,0.19108 -0.31829,0 -0.62983,-0.0661 -0.91616,-0.19062 0.21451,-0.46746 0.32151,-0.97232 0.32151,-1.47799 0,-0.50602 -0.10753,-1.01298 -0.32241,-1.48164 0.28644,-0.12451 0.59865,-0.19016 0.91706,-0.19016 z m -42.1726,0.30645 0.36573,0.36573 0.38535,0.38535 c -0.35425,0.34316 -0.62885,0.5992 -0.75108,0.72144 -0.4429,0.44287 -0.70576,0.99151 -0.87695,1.55277 l -0.14685,0.47563 0.47564,-0.14638 c 0.56128,-0.1712 1.11037,-0.4345 1.55322,-0.87739 0.1223,-0.12228 0.3786,-0.39674 0.7219,-0.75108 l 0.38625,0.38579 0.36438,0.36483 c -0.0763,0.079 -0.14791,0.15361 -0.21616,0.22482 l -1.20575,1.10223 c -0.78279,0.52969 -1.71196,0.81947 -2.6705,0.81947 h -0.52899 v -0.52944 c 0,-0.88117 0.24376,-1.73796 0.69409,-2.47897 l 1.26183,-1.43011 v -0.003 c 0.0603,-0.0578 0.12326,-0.11863 0.1888,-0.18196 z m 60.88072,4.6e-4 c 0.0836,0.0807 0.16193,0.15611 0.23669,0.22756 l 1.09447,1.19845 c 0.52782,0.78237 0.81584,1.71058 0.81584,2.66731 v 0.52763 h -0.529 c -0.88132,0 -1.73831,-0.24406 -2.47942,-0.69453 l -1.42964,-1.26001 v 0 c -0.058,-0.0606 -0.11922,-0.12377 -0.18287,-0.18972 l 0.36437,-0.36528 0.38489,-0.38534 c 0.34316,0.35425 0.5992,0.62839 0.72143,0.75062 0.4429,0.4429 0.99197,0.70803 1.55324,0.87923 l 0.47565,0.14456 -0.14503,-0.47564 c -0.17121,-0.56126 -0.43587,-1.1099 -0.87877,-1.55278 -0.12232,-0.12231 -0.397,-0.37886 -0.75152,-0.72234 l 0.38579,-0.38626 z m -49.22967,0.0606 c 0.16043,0.0695 0.31141,0.17092 0.4451,0.30461 l 0.3744,0.37395 -0.99825,0.99825 -0.92847,0.92847 c -0.16035,-0.0696 -0.31151,-0.17103 -0.44509,-0.30463 -0.133,-0.133 -0.23414,-0.28336 -0.30372,-0.4428 l 0.92757,-0.92938 z m 23.46133,0 c 0.16043,0.0695 0.31138,0.17092 0.44508,0.30461 l 0.37394,0.37395 -0.9978,0.99825 -0.92846,0.92847 c -0.16035,-0.0696 -0.31151,-0.17103 -0.44509,-0.30463 -0.13316,-0.13315 -0.23459,-0.28361 -0.30417,-0.44325 l 0.92802,-0.92893 z m -11.73088,4.5e-4 c 0.16036,0.0695 0.31189,0.17052 0.44554,0.30418 l 0.37393,0.37394 -0.99823,0.99825 -0.92849,0.92847 c -0.16035,-0.0696 -0.31151,-0.17103 -0.44509,-0.30462 -0.13314,-0.13315 -0.23414,-0.28362 -0.3037,-0.44326 l 0.92755,-0.92893 z m 23.4613,0 c 0.16036,0.0695 0.31189,0.17052 0.44554,0.30418 l 0.37395,0.37394 -0.99825,0.99825 -0.92848,0.92847 c -0.16035,-0.0696 -0.3115,-0.17103 -0.44507,-0.30462 -0.13316,-0.13315 -0.23417,-0.28363 -0.30372,-0.44326 l 0.92755,-0.92893 z m 3.49637,0 c 0.16006,0.0694 0.31068,0.17067 0.44419,0.30418 0.13328,0.13327 0.23449,0.28401 0.30416,0.44372 l -0.92984,0.92847 -0.92666,0.92802 c -0.16034,-0.0695 -0.31142,-0.17051 -0.44507,-0.30417 l -0.37396,-0.37394 0.99778,-0.99825 z m -35.19172,4.7e-4 c 0.15996,0.0695 0.31091,0.17047 0.44416,0.30372 0.13339,0.1334 0.23431,0.28431 0.30372,0.44417 l -0.9294,0.92802 -0.92754,0.92756 c -0.16001,-0.0695 -0.31077,-0.17031 -0.44419,-0.30371 l -0.37395,-0.37394 0.99781,-0.99825 z m 11.73042,0 c 0.16012,0.0695 0.31084,0.17036 0.44416,0.30372 0.13344,0.13343 0.23477,0.28426 0.30419,0.44417 l -0.92987,0.92802 -0.92664,0.92802 c -0.16033,-0.0695 -0.31142,-0.17051 -0.44509,-0.30417 l -0.37393,-0.37394 0.99779,-0.99825 z m 11.73088,0 c 0.15985,0.0695 0.31082,0.17035 0.44417,0.30372 0.13338,0.1334 0.2343,0.28431 0.30372,0.44417 l -0.9294,0.92802 -0.92664,0.92802 c -0.16033,-0.0695 -0.31189,-0.17051 -0.44554,-0.30417 l -0.37349,-0.37394 0.99778,-0.99825 z m -30.25294,0.0903 c 0.0867,0.0649 0.16923,0.13595 0.2467,0.21342 l 0.59147,0.59147 c -0.13386,0.62112 0.0458,1.29396 0.53037,1.77851 0.48431,0.48436 1.15732,0.66371 1.77851,0.53036 l 0.59329,0.5933 c 0.0814,0.0815 0.16584,0.15806 0.2531,0.22984 -1.10647,0.50371 -2.46557,0.30344 -3.37279,-0.60379 -0.58318,-0.58317 -0.87375,-1.34963 -0.87375,-2.12007 0,-0.41394 0.0848,-0.82827 0.2531,-1.21304 z m 11.73089,0 c 0.0867,0.0649 0.16878,0.13597 0.24623,0.21342 l 0.59194,0.59147 c -0.13386,0.62112 0.0459,1.29396 0.53036,1.77851 0.48432,0.48436 1.15686,0.66371 1.77805,0.53036 l 0.59376,0.5933 c 0.0814,0.0814 0.16591,0.15765 0.2531,0.22938 -1.10657,0.504 -2.46544,0.30403 -3.37279,-0.60333 -0.58318,-0.58317 -0.87422,-1.34963 -0.87422,-2.12007 0,-0.41394 0.0853,-0.82827 0.25357,-1.21304 z m 11.73042,0 c 0.0867,0.0649 0.16923,0.13595 0.24669,0.21342 l 0.59148,0.59101 c -0.13402,0.62125 0.0456,1.29431 0.53036,1.77897 0.48432,0.48436 1.15733,0.66371 1.77851,0.53036 l 0.5933,0.5933 c 0.0814,0.0815 0.16584,0.15806 0.2531,0.22984 -1.10648,0.50371 -2.46555,0.30344 -3.37279,-0.60379 -0.58318,-0.58317 -0.87375,-1.34964 -0.87375,-2.12007 0,-0.41395 0.0848,-0.82827 0.2531,-1.21304 z m 11.73088,0 c 0.0866,0.0649 0.16879,0.13597 0.24626,0.21342 l 0.59192,0.59147 c -0.13384,0.62112 0.0459,1.29396 0.53036,1.77851 0.48432,0.48436 1.15685,0.66371 1.77804,0.53036 l 0.59376,0.5933 c 0.0815,0.0816 0.16613,0.15839 0.25355,0.23029 -1.10655,0.50318 -2.46626,0.30274 -3.37323,-0.60424 -0.58318,-0.58317 -0.87422,-1.34964 -0.87422,-2.12007 0,-0.41394 0.0852,-0.82827 0.25356,-1.21304 z m 11.66019,0.16827 c 0.29083,0.20299 0.59822,0.44401 0.90341,0.70228 -0.14315,0.79635 0.22143,1.60429 0.93212,2.01794 0.41059,0.23898 0.87765,0.23826 1.32021,0.15596 0.15788,0.16562 0.2898,0.3044 0.38943,0.40403 0.14987,0.14988 0.30783,0.28997 0.4729,0.41956 -0.86233,0.39052 -1.86063,0.43386 -2.71337,-0.0625 -1.17411,-0.6834 -1.74487,-2.08232 -1.38404,-3.39194 0.0229,-0.0835 0.0496,-0.16528 0.0793,-0.24535 z m -49.5343,8.9e-4 c 0.0291,0.0786 0.0553,0.15896 0.078,0.24078 0.0738,0.26625 0.11079,0.53524 0.11037,0.8017 -0.003,1.04602 -0.5537,2.04644 -1.48939,2.59206 -0.85326,0.49757 -1.85389,0.4543 -2.71795,0.0648 0.16529,-0.12982 0.32373,-0.26991 0.47382,-0.42 0.0998,-0.0998 0.23213,-0.23855 0.39036,-0.4045 0.44209,0.0812 0.90892,0.0837 1.3193,-0.15551 0.71023,-0.41414 1.07674,-1.22187 0.93303,-2.01838 0.30489,-0.25773 0.61176,-0.49825 0.90248,-0.70092 z m 7.17105,0.79303 0.24946,0.24945 -0.24946,0.24898 -0.24989,-0.24898 z m 11.73089,0 0.24946,0.24945 -0.24946,0.24944 -0.24991,-0.24944 z m 11.73042,0 0.24946,0.24945 -0.24946,0.24898 -0.24991,-0.24898 z m 11.73135,8.8e-4 0.24899,0.24899 -0.24945,0.249 -0.24944,-0.249 z m -46.91122,0.0101 0.22527,0.22574 c -0.0879,0.0907 -0.16897,0.17505 -0.24443,0.254 l -0.23485,-0.23485 c 0.079,-0.0755 0.16326,-0.157 0.25401,-0.24489 z m 58.62978,0 c 0.0908,0.088 0.17505,0.1694 0.25401,0.24489 l -0.23484,0.23485 c -0.0755,-0.079 -0.15697,-0.16324 -0.24491,-0.254 z m -59.26823,0.61063 0.25311,0.25309 c -0.0448,0.0469 -0.0844,0.0885 -0.10991,0.114 -0.15903,0.15902 -0.39186,0.21494 -0.58462,0.32744 0.11249,-0.19278 0.16886,-0.42517 0.32789,-0.58418 0.0256,-0.0256 0.0665,-0.0655 0.11353,-0.11035 z m 59.90624,0 c 0.0469,0.0448 0.088,0.0848 0.11354,0.11035 0.15867,0.15866 0.21373,0.39189 0.32606,0.58418 -0.19227,-0.11234 -0.42415,-0.16877 -0.5828,-0.32744 -0.0255,-0.0255 -0.0647,-0.0667 -0.10946,-0.11354 z m -48.17352,0.002 0.44964,0.44964 0.54952,0.54815 c 0.48462,0.48465 1.15715,0.66415 1.77851,0.53036 l 0.59329,0.5933 c 0.08,0.08 0.16313,0.15663 0.24855,0.22984 -1.10598,0.50231 -2.46362,0.30268 -3.37005,-0.60379 l -0.71324,-0.71368 -0.28501,-0.28548 0.37439,-0.37439 z m 3.49363,0 0.99916,0.99779 c 0.5297,0.52969 1.24876,0.82724 1.99785,0.82724 0.40863,0 0.8075,-0.0885 1.17202,-0.25492 0.12857,0.19531 0.27831,0.38002 0.44962,0.55134 0.0928,0.0928 0.18975,0.17968 0.29004,0.25994 -0.57805,0.32734 -1.23554,0.50391 -1.91168,0.50391 -1.02944,0 -2.0176,-0.40969 -2.74573,-1.1378 l -0.99916,-0.99916 0.37349,-0.37439 z m 8.23679,0 0.44964,0.44964 0.54998,0.54815 c 0.48425,0.48429 1.1573,0.66403 1.77852,0.53082 l 0.59282,0.59284 c 0.0801,0.08 0.16316,0.15664 0.24855,0.22984 -1.10594,0.50212 -2.46325,0.30259 -3.36961,-0.60379 l -0.71368,-0.71368 -0.28455,-0.28548 0.3744,-0.37439 z m 3.4941,0 0.99916,0.99779 c 0.52968,0.52969 1.24831,0.82724 1.99741,0.82724 0.40844,0 0.80761,-0.0882 1.17199,-0.25446 0.12853,0.19518 0.27887,0.37965 0.45008,0.55088 0.0928,0.0928 0.18976,0.17967 0.29004,0.25994 -0.57811,0.32746 -1.23587,0.50391 -1.91211,0.50391 -1.02947,0 -2.01719,-0.40969 -2.74531,-1.1378 l -0.99961,-0.99916 0.37395,-0.37439 z m 8.23678,0 0.44965,0.44964 0.54951,0.54815 c 0.48436,0.48441 1.15765,0.66421 1.77898,0.53082 l 0.59283,0.59284 c 0.0801,0.08 0.16313,0.15663 0.24854,0.22984 -1.10598,0.50231 -2.46358,0.30268 -3.37006,-0.60379 l -0.71369,-0.71368 -0.28455,-0.28548 0.37439,-0.37439 z m 3.49364,0 0.99916,0.99779 c 0.52968,0.52969 1.24878,0.82724 1.99785,0.82724 0.40865,0 0.80749,-0.0885 1.17201,-0.25492 0.12858,0.19531 0.27832,0.38002 0.44965,0.55134 0.0928,0.0928 0.18973,0.17968 0.29004,0.25994 -0.57804,0.32734 -1.23557,0.50391 -1.9117,0.50391 -1.02944,0 -2.01763,-0.40969 -2.74574,-1.1378 l -0.99915,-0.99916 0.37348,-0.37439 z m 8.23724,0 0.45101,0.44964 0.54815,0.54815 c 0.48426,0.48429 1.15731,0.66403 1.77852,0.53082 l 0.59285,0.59284 c 0.08,0.08 0.16314,0.15664 0.24852,0.22984 -1.10591,0.50212 -2.46321,0.30259 -3.36959,-0.60379 l -0.7137,-0.71368 -0.28502,-0.28548 0.3744,-0.37439 z m 3.49365,0 0.99916,0.99779 c 0.52968,0.52969 1.24831,0.82724 1.99741,0.82724 0.40932,0 0.80852,-0.0888 1.17336,-0.25583 0.19994,0.30395 0.4485,0.5782 0.73922,0.81127 -0.57848,0.32764 -1.23635,0.50483 -1.91258,0.50483 -1.02947,0 -2.01719,-0.40969 -2.74529,-1.1378 l -0.99963,-0.99916 0.37395,-0.37439 z m -45.09988,1.5692 c 0.36501,0.16684 0.76483,0.25583 1.17381,0.25583 0.40844,0 0.80763,-0.0882 1.17201,-0.25446 0.12853,0.19518 0.27888,0.37965 0.45009,0.55088 0.0928,0.0928 0.18974,0.17967 0.29004,0.25994 -0.57813,0.32746 -1.23587,0.50391 -1.91214,0.50391 -0.6759,0 -1.33505,-0.17631 -1.91394,-0.50346 0.29132,-0.23327 0.53985,-0.50826 0.74013,-0.81264 z" />
  </g>
</svg>
