<?xml version="1.0" encoding="UTF-8" standalone="no"?>
<!-- Created with Inkscape (http://www.inkscape.org/) -->

<svg
   width="400mm"
   height="400mm"
   viewBox="0 0 400 400"
   version="1.1"
   id="svg1"
   sodipodi:docname="Leather Tag LaserFile.svg"
   inkscape:version="1.4.2 (f4327f4, 2025-05-13)"
   xmlns:inkscape="http://www.inkscape.org/namespaces/inkscape"
   xmlns:sodipodi="http://sodipodi.sourceforge.net/DTD/sodipodi-0.dtd"
   xmlns="http://www.w3.org/2000/svg"
   xmlns:svg="http://www.w3.org/2000/svg">
  <sodipodi:namedview
     id="namedview1"
     pagecolor="#ffffff"
     bordercolor="#000000"
     borderopacity="0.25"
     inkscape:showpageshadow="2"
     inkscape:pageopacity="0.0"
     inkscape:pagecheckerboard="0"
     inkscape:deskcolor="#d1d1d1"
     inkscape:document-units="mm"
     inkscape:zoom="4.0000001"
     inkscape:cx="662.49998"
     inkscape:cy="725.12498"
     inkscape:window-width="2560"
     inkscape:window-height="1494"
     inkscape:window-x="-11"
     inkscape:window-y="-11"
     inkscape:window-maximized="1"
     inkscape:current-layer="svg1"
     inkscape:pageshadow="2"
     showgrid="false"
     inkscape:snap-smooth-nodes="false"
     inkscape:snap-intersection-paths="true" />
  <defs
     id="defs1" />
  <g
     id="g67"
     transform="translate(550.19966,168.0689)">
    <path
       id="ellipse57"
       style="fill:none;fill-opacity:1;stroke:#ff0000;stroke-width:0.349;stroke-opacity:1;stroke-dasharray:none"
       d="m -363.06431,0.99985058 a 35,15 0 0 0 -34.99993,15.00011842 35,15 0 0 0 34.99993,15.000118 35,15 0 0 0 34.99993,-15.000118 35,15 0 0 0 -34.99993,-15.00011842 z M -392.77102,15.00003 a 1,1 0 0 1 0.99994,0.999939 1,1 0 0 1 -0.99994,0.999939 1,1 0 0 1 -0.99994,-0.999939 1,1 0 0 1 0.99994,-0.999939 z m 59.41394,0 a 1,1 0 0 1 0.99994,0.999939 1,1 0 0 1 -0.99994,0.999939 1,1 0 0 1 -0.99994,-0.999939 1,1 0 0 1 0.99994,-0.999939 z" />
    <path
       id="path70"
       style="fill:#000000;fill-opacity:1;stroke:none;stroke-width:0.3;stroke-dasharray:none;stroke-dashoffset:0;stroke-opacity:1"
       d="m -358.90227,27.657564 c 0.3982,0.0194 0.78001,-0.06916 1.10742,-0.232544 0.28692,-0.142198 0.53108,-0.343653 0.71521,-0.583944 0.19964,-0.260793 0.31717,-0.56464 0.34933,-0.866614 0.0354,-0.336338 -0.0425,-0.657668 -0.19534,-0.91674 -0.17737,-0.299088 -0.44978,-0.495129 -0.72812,-0.58291 -0.4451,-0.136572 -0.92924,-0.05525 -1.16853,0.134884 -0.58456,0.469339 -0.50014,0.961483 -0.34421,1.181417 0.23489,0.331305 0.66931,0.485244 1.15417,0.200056 0.55699,-0.343637 0.22938,-1.151521 0.22938,-1.151521 0,0 0.35711,0.230376 0.46044,0.437699 0.0906,0.180084 0.12523,0.406625 0.0879,0.632003 -0.0333,0.203633 -0.13108,0.409886 -0.27906,0.58446 -0.13718,0.162118 -0.32306,0.296842 -0.53691,0.391707 -0.24448,0.107363 -0.52736,0.159154 -0.80874,0.132809 -0.26311,-0.02428 -0.53113,-0.117408 -0.75758,-0.275435 -0.2145,-0.149192 -0.39739,-0.36044 -0.51159,-0.605648 -0.10949,-0.233976 -0.15968,-0.505811 -0.13333,-0.769979 0.0277,-0.312574 0.17045,-0.628357 0.38602,-0.893486 0.20889,-0.256981 0.4968,-0.464105 0.82166,-0.616499 0.6283,-0.301536 1.38531,-0.345069 2.18901,-0.326079 1.43757,0.04552 2.84926,0.335154 4.36769,0.595313 0.5257,0.09007 1.05391,0.174359 1.5875,0.240295 4.7812,0.591408 8.97962,-0.479131 11.92486,-1.811775 2.84854,-1.288892 4.18313,-2.532747 4.12171,-2.619479 -0.0614,-0.08673 -1.50973,0.970689 -4.34754,2.084628 -1.40564,0.551762 -3.06945,1.053205 -4.9258,1.361674 0.0451,-0.01885 0.0906,-0.03795 0.1354,-0.05788 1.03189,-0.4565 1.88563,-1.220205 2.33681,-2.182814 0.14787,-0.316468 0.24395,-0.654873 0.26355,-1.002522 0.0215,-0.3733 -0.0628,-0.740753 -0.24547,-1.050066 -0.20183,-0.340803 -0.52954,-0.576598 -0.88315,-0.661458 -0.19382,-0.04469 -0.39021,-0.04017 -0.57051,0.0067 -0.19618,0.05124 -0.36651,0.153377 -0.49661,0.284737 -0.15651,0.159326 -0.2456,0.35371 -0.2775,0.541569 -0.0371,0.220879 0.004,0.426195 0.0816,0.587044 0.10013,0.207854 0.22608,0.360295 0.36746,0.440754 0.17357,0.09878 0.28968,0.131522 0.45049,0.149822 0.1608,0.0183 0.46248,-0.0654 0.51787,-0.423143 0.0368,-0.237838 -0.15181,-0.446521 -0.37459,-0.487441 -0.22539,-0.0414 -0.45254,0.119342 -0.67957,0.234162 -0.0567,-0.13039 -0.0546,-0.288125 -0.0148,-0.426285 0.0336,-0.117214 0.10466,-0.235207 0.20774,-0.321427 0.0851,-0.07219 0.19656,-0.124901 0.31729,-0.146761 0.11131,-0.02037 0.23429,-0.01259 0.35192,0.02274 0.21452,0.06119 0.41749,0.237015 0.54053,0.463021 0.11479,0.209762 0.15718,0.473933 0.13488,0.746724 -0.0215,0.257045 -0.11003,0.518635 -0.23823,0.780315 -0.38875,0.7964 -1.14745,1.43309 -2.05827,1.842782 -0.21265,0.09509 -0.43218,0.176406 -0.65681,0.246496 -0.70341,0.219486 -1.45438,0.325943 -2.19108,0.394808 -2.16526,0.19608 -4.07472,0.08337 -5.36867,-0.108003 -1.45928,-0.215825 -2.87166,-0.521573 -4.3558,-0.557589 -0.86061,-0.02736 -1.74646,0.05823 -2.55437,0.439766 -0.41808,0.200953 -0.79267,0.488917 -1.08159,0.853178 -0.30102,0.379561 -0.48686,0.839058 -0.52296,1.316199 -0.0277,0.404304 0.0587,0.800501 0.23306,1.144116 0.18278,0.359061 0.45621,0.652138 0.77566,0.857312 0.33736,0.216152 0.71704,0.330289 1.08986,0.348816 z m -8.32381,0 c -0.3982,0.0194 -0.78001,-0.06916 -1.10742,-0.232544 -0.28692,-0.142198 -0.53108,-0.343653 -0.71521,-0.583944 -0.19964,-0.260793 -0.31717,-0.56464 -0.34933,-0.866614 -0.0354,-0.336338 0.0425,-0.657668 0.19534,-0.91674 0.17737,-0.299088 0.44978,-0.495129 0.72812,-0.58291 0.4451,-0.136572 0.92924,-0.05525 1.16853,0.134884 0.58456,0.469339 0.50014,0.961483 0.34421,1.181417 -0.23489,0.331305 -0.66931,0.485244 -1.15417,0.200056 -0.55699,-0.343637 -0.22938,-1.151521 -0.22938,-1.151521 0,0 -0.35711,0.230376 -0.46044,0.437699 -0.0906,0.180084 -0.12523,0.406625 -0.0879,0.632003 0.0333,0.203633 0.13108,0.409886 0.27906,0.58446 0.13718,0.162118 0.32306,0.296842 0.53691,0.391707 0.24448,0.107363 0.52736,0.159154 0.80874,0.132809 0.26311,-0.02428 0.53113,-0.117408 0.75758,-0.275435 0.2145,-0.149192 0.39739,-0.36044 0.51159,-0.605648 0.10949,-0.233976 0.15968,-0.505811 0.13333,-0.769979 -0.0277,-0.312574 -0.17045,-0.628357 -0.38602,-0.893486 -0.20889,-0.256981 -0.4968,-0.464105 -0.82166,-0.616499 -0.6283,-0.301536 -1.38531,-0.345069 -2.18901,-0.326079 -1.43757,0.04552 -2.84926,0.335154 -4.36769,0.595313 -0.5257,0.09007 -1.05391,0.174359 -1.5875,0.240295 -4.7812,0.591408 -8.97962,-0.479131 -11.92486,-1.811775 -2.84854,-1.288892 -4.18313,-2.532747 -4.12171,-2.619479 0.0614,-0.08673 1.50973,0.970689 4.34754,2.084628 1.40564,0.551762 3.06945,1.053205 4.9258,1.361674 -0.0451,-0.01885 -0.0906,-0.03795 -0.1354,-0.05788 -1.03189,-0.4565 -1.88563,-1.220205 -2.33681,-2.182814 -0.14787,-0.316468 -0.24395,-0.654873 -0.26355,-1.002522 -0.0215,-0.3733 0.0628,-0.740753 0.24547,-1.050066 0.20183,-0.340803 0.52954,-0.576598 0.88315,-0.661458 0.19382,-0.04469 0.39021,-0.04017 0.57051,0.0067 0.19618,0.05124 0.36651,0.153377 0.49661,0.284737 0.15651,0.159326 0.2456,0.35371 0.2775,0.541569 0.0371,0.220879 -0.004,0.426195 -0.0816,0.587044 -0.10013,0.207854 -0.22608,0.360295 -0.36746,0.440754 -0.17357,0.09878 -0.28968,0.131522 -0.45049,0.149822 -0.1608,0.0183 -0.46248,-0.0654 -0.51787,-0.423143 -0.0368,-0.237838 0.15181,-0.446521 0.37459,-0.487441 0.22539,-0.0414 0.45254,0.119342 0.67957,0.234162 0.0567,-0.13039 0.0546,-0.288125 0.0148,-0.426285 -0.0336,-0.117214 -0.10466,-0.235207 -0.20774,-0.321427 -0.0851,-0.07219 -0.19656,-0.124901 -0.31729,-0.146761 -0.11131,-0.02037 -0.23429,-0.01259 -0.35192,0.02274 -0.21452,0.06119 -0.41749,0.237015 -0.54053,0.463021 -0.11479,0.209762 -0.15718,0.473933 -0.13488,0.746724 0.0215,0.257045 0.11003,0.518635 0.23823,0.780315 0.38875,0.7964 1.14745,1.43309 2.05827,1.842782 0.21265,0.09509 0.43218,0.176406 0.65681,0.246496 0.70341,0.219486 1.45438,0.325943 2.19108,0.394808 2.16526,0.19608 4.07472,0.08337 5.36867,-0.108003 1.45928,-0.215825 2.87166,-0.521573 4.3558,-0.557589 0.86061,-0.02736 1.74646,0.05823 2.55437,0.439766 0.41808,0.200953 0.79267,0.488917 1.08159,0.853178 0.30102,0.379561 0.48686,0.839058 0.52296,1.316199 0.0277,0.404304 -0.0587,0.800501 -0.23306,1.144116 -0.18278,0.359061 -0.45621,0.652138 -0.77566,0.857312 -0.33736,0.216152 -0.71704,0.330289 -1.08986,0.348816 z m 8.32381,-23.3151238 c 0.3982,-0.0194 0.78001,0.069165 1.10742,0.2325439 0.28692,0.1421977 0.53108,0.3436532 0.71521,0.5839437 0.19964,0.2607932 0.31717,0.5646397 0.34933,0.8666138 0.0354,0.3363379 -0.0425,0.6576682 -0.19534,0.9167399 -0.17737,0.2990883 -0.44978,0.4951293 -0.72812,0.5829101 -0.4451,0.1365724 -0.92924,0.055254 -1.16853,-0.1348836 -0.58456,-0.4693388 -0.50014,-0.9614834 -0.34421,-1.181417 0.23489,-0.3313051 0.66931,-0.4852446 1.15417,-0.2000558 0.55699,0.3436365 0.22938,1.1515211 0.22938,1.1515211 0,0 0.35711,-0.2303763 0.46044,-0.4376994 0.0906,-0.1800839 0.12523,-0.4066251 0.0879,-0.6320027 -0.0333,-0.2036334 -0.13108,-0.4098864 -0.27906,-0.5844605 -0.13718,-0.1621175 -0.32306,-0.2968417 -0.53691,-0.3917073 -0.24448,-0.1073627 -0.52736,-0.1591539 -0.80874,-0.1328085 -0.26311,0.024276 -0.53113,0.1174084 -0.75758,0.2754354 -0.2145,0.1491919 -0.39739,0.3604392 -0.51159,0.6056478 -0.10949,0.2339758 -0.15968,0.5058112 -0.13333,0.7699788 0.0277,0.3125741 0.17045,0.6283571 0.38602,0.8934856 0.20889,0.2569809 0.4968,0.4641052 0.82166,0.6164998 0.6283,0.3015355 1.38531,0.3450686 2.18901,0.3260783 1.43757,-0.045522 2.84926,-0.3351531 4.36769,-0.5953125 0.5257,-0.090069 1.05391,-0.1743592 1.5875,-0.2402954 4.7812,-0.5914081 8.97962,0.4791318 11.92486,1.8117757 2.84854,1.2888916 4.18313,2.5327466 4.12171,2.6194786 -0.0614,0.08673 -1.50973,-0.970689 -4.34754,-2.0846275 -1.40564,-0.5517629 -3.06945,-1.0532059 -4.9258,-1.361674 0.0451,0.018848 0.0906,0.037948 0.1354,0.057878 1.03189,0.4564992 1.88563,1.2202049 2.33681,2.1828135 0.14787,0.316468 0.24395,0.654873 0.26355,1.002522 0.0215,0.3733 -0.0628,0.740753 -0.24547,1.050066 -0.20183,0.340803 -0.52954,0.576598 -0.88315,0.661458 -0.19382,0.04469 -0.39021,0.04017 -0.57051,-0.0067 -0.19618,-0.05124 -0.36651,-0.153377 -0.49661,-0.284737 -0.15651,-0.159326 -0.2456,-0.35371 -0.2775,-0.541569 -0.0371,-0.220879 0.004,-0.426195 0.0816,-0.587044 0.10013,-0.207854 0.22608,-0.360295 0.36746,-0.440754 0.17357,-0.09878 0.28968,-0.131522 0.45049,-0.149822 0.1608,-0.0183 0.46248,0.0654 0.51787,0.423143 0.0368,0.237838 -0.15181,0.446521 -0.37459,0.487441 -0.22539,0.0414 -0.45254,-0.119342 -0.67957,-0.234162 -0.0567,0.13039 -0.0546,0.288125 -0.0148,0.426285 0.0336,0.117214 0.10466,0.235207 0.20774,0.321427 0.0851,0.07219 0.19656,0.124901 0.31729,0.146761 0.11131,0.02037 0.23429,0.01259 0.35192,-0.02274 0.21452,-0.06119 0.41749,-0.237015 0.54053,-0.463021 0.11479,-0.209762 0.15718,-0.473933 0.13488,-0.746724 -0.0215,-0.257045 -0.11003,-0.518635 -0.23823,-0.780315 -0.38875,-0.7964 -1.14745,-1.4330896 -2.05827,-1.8427818 -0.21265,-0.095093 -0.43218,-0.1764066 -0.65681,-0.2464966 -0.70341,-0.2194855 -1.45438,-0.325943 -2.19108,-0.394808 -2.16526,-0.1960793 -4.07472,-0.08337 -5.36867,0.1080038 -1.45928,0.2158251 -2.87166,0.5215725 -4.3558,0.5575887 -0.86061,0.027358 -1.74646,-0.05823 -2.55437,-0.4397665 -0.41808,-0.2009522 -0.79267,-0.4889166 -1.08159,-0.8531779 -0.30102,-0.3795607 -0.48686,-0.8390579 -0.52296,-1.3161987 -0.0277,-0.4043038 0.0587,-0.8005013 0.23306,-1.1441162 0.18278,-0.3590609 0.45621,-0.652138 0.77566,-0.857312 0.33736,-0.2161517 0.71704,-0.3302893 1.08986,-0.3488159 z m -8.32381,0 c -0.3982,-0.0194 -0.78001,0.069165 -1.10742,0.2325439 -0.28692,0.1421977 -0.53108,0.3436532 -0.71521,0.5839437 -0.19964,0.2607932 -0.31717,0.5646397 -0.34933,0.8666138 -0.0354,0.3363379 0.0425,0.6576682 0.19534,0.9167399 0.17737,0.2990883 0.44978,0.4951293 0.72812,0.5829101 0.4451,0.1365724 0.92924,0.055254 1.16853,-0.1348836 0.58456,-0.4693388 0.50014,-0.9614834 0.34421,-1.181417 -0.23489,-0.3313051 -0.66931,-0.4852446 -1.15417,-0.2000558 -0.55699,0.3436365 -0.22938,1.1515211 -0.22938,1.1515211 0,0 -0.35711,-0.2303763 -0.46044,-0.4376994 -0.0906,-0.1800839 -0.12523,-0.4066251 -0.0879,-0.6320027 0.0333,-0.2036334 0.13108,-0.4098864 0.27906,-0.5844605 0.13718,-0.1621175 0.32306,-0.2968417 0.53691,-0.3917073 0.24448,-0.1073627 0.52736,-0.1591539 0.80874,-0.1328085 0.26311,0.024276 0.53113,0.1174084 0.75758,0.2754354 0.2145,0.1491919 0.39739,0.3604392 0.51159,0.6056478 0.10949,0.2339758 0.15968,0.5058112 0.13333,0.7699788 -0.0277,0.3125741 -0.17045,0.6283571 -0.38602,0.8934856 -0.20889,0.2569809 -0.4968,0.4641052 -0.82166,0.6164998 -0.6283,0.3015355 -1.38531,0.3450686 -2.18901,0.3260783 -1.43757,-0.045522 -2.84926,-0.3351531 -4.36769,-0.5953125 -0.5257,-0.090069 -1.05391,-0.1743592 -1.5875,-0.2402954 -4.7812,-0.5914081 -8.97962,0.4791318 -11.92486,1.8117757 -2.84854,1.2888916 -4.18313,2.5327466 -4.12171,2.6194786 0.0614,0.08673 1.50973,-0.970689 4.34754,-2.0846275 1.40564,-0.5517629 3.06945,-1.0532059 4.9258,-1.361674 -0.0451,0.018848 -0.0906,0.037948 -0.1354,0.057878 -1.03189,0.4564992 -1.88563,1.2202049 -2.33681,2.1828135 -0.14787,0.316468 -0.24395,0.654873 -0.26355,1.002522 -0.0215,0.3733 0.0628,0.740753 0.24547,1.050066 0.20183,0.340803 0.52954,0.576598 0.88315,0.661458 0.19382,0.04469 0.39021,0.04017 0.57051,-0.0067 0.19618,-0.05124 0.36651,-0.153377 0.49661,-0.284737 0.15651,-0.159326 0.2456,-0.35371 0.2775,-0.541569 0.0371,-0.220879 -0.004,-0.426195 -0.0816,-0.587044 -0.10013,-0.207854 -0.22608,-0.360295 -0.36746,-0.440754 -0.17357,-0.09878 -0.28968,-0.131522 -0.45049,-0.149822 -0.1608,-0.0183 -0.46248,0.0654 -0.51787,0.423143 -0.0368,0.237838 0.15181,0.446521 0.37459,0.487441 0.22539,0.0414 0.45254,-0.119342 0.67957,-0.234162 0.0567,0.13039 0.0546,0.288125 0.0148,0.426285 -0.0336,0.117214 -0.10466,0.235207 -0.20774,0.321427 -0.0851,0.07219 -0.19656,0.124901 -0.31729,0.146761 -0.11131,0.02037 -0.23429,0.01259 -0.35192,-0.02274 -0.21452,-0.06119 -0.41749,-0.237015 -0.54053,-0.463021 -0.11479,-0.209762 -0.15718,-0.473933 -0.13488,-0.746724 0.0215,-0.257045 0.11003,-0.518635 0.23823,-0.780315 0.38875,-0.7964 1.14745,-1.4330896 2.05827,-1.8427818 0.21265,-0.095093 0.43218,-0.1764066 0.65681,-0.2464966 0.70341,-0.2194855 1.45438,-0.325943 2.19108,-0.394808 2.16526,-0.1960793 4.07472,-0.08337 5.36867,0.1080038 1.45928,0.2158251 2.87166,0.5215725 4.3558,0.5575887 0.86061,0.027358 1.74646,-0.05823 2.55437,-0.4397665 0.41808,-0.2009522 0.79267,-0.4889166 1.08159,-0.8531779 0.30102,-0.3795607 0.48686,-0.8390579 0.52296,-1.3161987 0.0277,-0.4043038 -0.0587,-0.8005013 -0.23306,-1.1441162 -0.18278,-0.3590609 -0.45621,-0.652138 -0.77566,-0.857312 -0.33736,-0.2161517 -0.71704,-0.3302893 -1.08986,-0.3488159 z m 13.67412,11.1651408 -0.49248,0.492476 0.49248,0.492476 0.49248,-0.492476 z m 1.87344,-5.7e-5 L -336.35749,16 -351.67852,16.492476 -352.171,16 Z m -22.77145,5.7e-5 -15.32103,0.492476 15.32103,0.492476 0.49248,-0.492476 z m 9.81225,3.140885 h -0.81132 v -5.012598 l -2.22725,4.687038 h -0.48058 l -2.22208,-4.687038 v 5.012598 h -0.81649 v -7.410377 h 0.55294 l 2.7285,5.777407 2.72334,-5.777407 h 0.55294 z m 1.74149,0 h -0.81132 v -5.296817 h 0.81132 z m -0.40824,-6.159811 q -0.21188,0 -0.3669,-0.149861 -0.14987,-0.155029 -0.14987,-0.366902 0,-0.21704 0.14987,-0.366901 0.15502,-0.155029 0.3669,-0.155029 0.21704,0 0.3669,0.155029 0.15503,0.149861 0.15503,0.366901 0,0.211873 -0.15503,0.366902 -0.14986,0.149861 -0.3669,0.149861 z m 2.1549,6.159811 h -0.81649 v -7.410377 h 0.81649 z m 6.21665,0 h -0.81648 v -0.738971 q -0.79582,0.738971 -1.83451,0.738971 -0.72864,0 -1.33325,-0.356566 -0.59944,-0.361734 -0.95601,-0.961179 -0.35657,-0.599444 -0.35657,-1.333247 0,-0.728636 0.35657,-1.328081 0.35657,-0.604612 0.95601,-0.961178 0.60461,-0.356566 1.33325,-0.356566 1.03869,0 1.83451,0.73897 v -0.73897 h 0.81648 z m -2.65099,-0.842323 q 0.49609,0 0.90433,-0.242879 0.41341,-0.248046 0.65629,-0.656288 0.24288,-0.408243 0.24288,-0.909502 0,-0.496093 -0.24288,-0.904335 -0.24288,-0.41341 -0.65629,-0.656289 -0.40824,-0.242878 -0.90433,-0.242878 -0.49609,0 -0.9095,0.242878 -0.40825,0.242879 -0.65112,0.656289 -0.24288,0.408242 -0.24288,0.904335 0,0.501259 0.24288,0.909502 0.24287,0.408242 0.65112,0.656288 0.41341,0.242879 0.9095,0.242879 z m -5.48054,-14.8139555 c -8.94163,0 -17.82929,1.6048516 -23.96485,4.234375 -3.06715,1.3144954 -5.43657,2.8670315 -6.93554,4.4179685 -1.49479,1.546605 -2.10743,3.003388 -2.10743,4.355469 0,1.352081 0.61264,2.808864 2.10743,4.355469 1.49897,1.550937 3.86839,3.103473 6.93554,4.417968 6.13556,2.629524 15.02322,4.234376 23.96485,4.234375 8.94162,0 17.82929,-1.604851 23.96484,-4.234375 3.06716,-1.314495 5.43657,-2.867031 6.93555,-4.417968 1.49479,-1.546605 2.10742,-3.003388 2.10742,-4.355469 0,-1.352081 -0.61263,-2.808864 -2.10742,-4.355469 -1.49898,-1.550937 -3.86839,-3.1034731 -6.93555,-4.4179685 -6.13555,-2.6295234 -15.02322,-4.234375 -23.96484,-4.234375 z m 0,0.6015625 c 8.8696,0 17.70309,1.6021085 23.72656,4.1835937 3.01235,1.2910089 5.32645,2.8183283 6.74414,4.2851563 1.42187,1.471161 1.93555,2.763787 1.93555,3.9375 0,1.173713 -0.51368,2.466339 -1.93555,3.9375 -1.41769,1.466828 -3.73179,2.994147 -6.74414,4.285156 -6.02347,2.581486 -14.85696,4.183594 -23.72656,4.183594 -8.86961,0 -17.7031,-1.602108 -23.72657,-4.183594 -3.01235,-1.291009 -5.32645,-2.818328 -6.74414,-4.285156 -1.42187,-1.471161 -1.93554,-2.763787 -1.93554,-3.9375 0,-1.173713 0.51367,-2.466339 1.93554,-3.9375 1.41769,-1.466828 3.73179,-2.9941474 6.74414,-4.2851563 6.02347,-2.5814852 14.85696,-4.1835937 23.72657,-4.1835937 z m -9.51201,11.913831 -0.49248,0.492476 0.49248,0.492476 0.49248,-0.492476 z" />
  </g>
</svg>
