<?xml version="1.0" encoding="UTF-8" standalone="no"?>
<!-- Created with Inkscape (http://www.inkscape.org/) -->

<svg
   width="400mm"
   height="400mm"
   viewBox="0 0 400 400"
   version="1.1"
   id="svg1"
   sodipodi:docname="Link LaserFile.svg"
   inkscape:version="1.4.2 (f4327f4, 2025-05-13)"
   xmlns:inkscape="http://www.inkscape.org/namespaces/inkscape"
   xmlns:sodipodi="http://sodipodi.sourceforge.net/DTD/sodipodi-0.dtd"
   xmlns="http://www.w3.org/2000/svg"
   xmlns:svg="http://www.w3.org/2000/svg">
  <sodipodi:namedview
     id="namedview1"
     pagecolor="#ffffff"
     bordercolor="#000000"
     borderopacity="0.25"
     inkscape:showpageshadow="2"
     inkscape:pageopacity="0.0"
     inkscape:pagecheckerboard="0"
     inkscape:deskcolor="#d1d1d1"
     inkscape:document-units="mm"
     inkscape:zoom="0.70710678"
     inkscape:cx="855.5992"
     inkscape:cy="1160.3622"
     inkscape:window-width="2560"
     inkscape:window-height="1494"
     inkscape:window-x="-11"
     inkscape:window-y="-11"
     inkscape:window-maximized="1"
     inkscape:current-layer="layer1" />
  <defs
     id="defs1" />
  <g
     inkscape:label="Layer 1"
     inkscape:groupmode="layer"
     id="layer1">
    <path
       id="path14"
       style="fill:none;stroke:#ff0000;stroke-width:0.176973;stroke-dasharray:none;stroke-opacity:1"
       inkscape:transform-center-x="-0.73732992"
       inkscape:transform-center-y="-0.0042963356"
       d="m 13.195482,201.44953 c 0.634,1.97797 2.537863,3.32305 4.770957,3.54051 1.22768,0.11956 2.356352,-0.30736 2.787446,-1.77292 0.289125,-0.9828 -0.342002,-1.87676 -1.602846,-2.53076 -0.336101,0.48916 -0.943887,0.71326 -1.517058,0.55919 -0.74672,-0.20072 -1.18972,-0.96897 -0.988923,-1.71567 0.164588,-0.61196 0.720105,-1.03656 1.353794,-1.03656 l 182.002428,10e-4 c 0.63369,1e-5 1.18796,0.42693 1.35137,1.0392 0.19941,0.74708 -0.24454,1.51418 -0.99165,1.71346 -0.57347,0.15292 -1.18091,-0.0724 -1.51605,-0.5622 -1.26211,0.65158 -1.8953,1.5447 -1.60807,2.52805 0.42831,1.46638 1.55625,1.89556 2.78416,1.77836 2.74893,-0.26237 5.00226,-2.23391 5.00491,-4.99533 5e-4,-0.52303 -0.08,-1.02759 -0.22999,-1.50158 l 177.20838,0.001 c 0.63369,1e-5 1.18785,0.42706 1.35124,1.03934 0.1994,0.74708 -0.24455,1.51415 -0.99165,1.71346 -0.57348,0.15292 -1.1814,-0.0722 -1.51655,-0.56206 -1.26211,0.65158 -1.89476,1.54454 -1.60756,2.52791 0.42831,1.46637 1.55624,1.89556 2.78414,1.77836 2.74893,-0.26237 5.00227,-2.23391 5.00492,-4.99533 0.003,-2.76143 -2.25996,-5.00453 -5.02139,-5.00455 l -364.005484,-0.003 c -2.76143,-2e-5 -5.028239,2.23326 -5.030891,4.99468 -4.97e-4,0.51777 0.07806,1.00793 0.224367,1.46439 z"
       sodipodi:nodetypes="ssscsssssscssscssscsssssss" />
  </g>
</svg>
