<?xml version="1.0" encoding="UTF-8" standalone="no"?>
<!-- Created with Inkscape (http://www.inkscape.org/) -->

<svg
   width="400mm"
   height="400mm"
   viewBox="0 0 400 400"
   version="1.1"
   id="svg1"
   sodipodi:docname="Link LaserFile.svg"
   inkscape:version="1.4.2 (f4327f4, 2025-05-13)"
   xmlns:inkscape="http://www.inkscape.org/namespaces/inkscape"
   xmlns:sodipodi="http://sodipodi.sourceforge.net/DTD/sodipodi-0.dtd"
   xmlns="http://www.w3.org/2000/svg"
   xmlns:svg="http://www.w3.org/2000/svg">
  <sodipodi:namedview
     id="namedview1"
     pagecolor="#ffffff"
     bordercolor="#000000"
     borderopacity="0.25"
     inkscape:showpageshadow="2"
     inkscape:pageopacity="0.0"
     inkscape:pagecheckerboard="0"
     inkscape:deskcolor="#d1d1d1"
     inkscape:document-units="mm"
     inkscape:zoom="0.35355339"
     inkscape:cx="118.79394"
     inkscape:cy="666.09459"
     inkscape:window-width="2560"
     inkscape:window-height="1494"
     inkscape:window-x="-11"
     inkscape:window-y="-11"
     inkscape:window-maximized="1"
     inkscape:current-layer="layer1" />
  <defs
     id="defs1" />
  <g
     inkscape:label="Layer 1"
     inkscape:groupmode="layer"
     id="layer1">
    <path
       id="path22"
       style="fill:none;stroke:#ff0000;stroke-width:0.2;stroke-dasharray:none;stroke-opacity:1"
       inkscape:transform-center-x="0.26990199"
       inkscape:transform-center-y="0.63568364"
       d="m 271.42953,19.105619 c -3.92914,-0.0271 -5.8937,3.698504 -5.8937,5.894214 0,2.195709 0.98159,2.921279 2.05,3.210659 0.98882,0.26781 2.40284,-0.79421 3.05563,-2.05569 -0.48949,-0.33562 -0.71417,-0.94338 -0.56069,-1.516704 0.20004,-0.74691 0.96774,-1.190201 1.71463,-0.990121 0.61212,0.164 1.03766,0.718693 1.03766,1.352375 v 1.33532 c 0,30.20561 -8.35102,59.83069 -16.56385,88.575468 -8.33345,29.16695 -18.8467,58.10256 -33.27755,85.14209 -0.1025,0.19206 -0.20516,0.38433 -0.308,0.57619 -0.0111,0.0221 -0.023,0.0438 -0.0351,0.0651 -0.29892,0.52409 -0.90336,0.80042 -1.49965,0.67696 -0.75717,-0.1568 -1.24359,-0.89803 -1.08675,-1.65519 0.12052,-0.58114 0.59427,-1.02336 1.18236,-1.10329 -0.0165,-1.42028 -0.80289,-3.00413 -1.80661,-3.20911 -1.08452,-0.22152 -2.28726,-0.0145 -3.2737,1.94717 -0.98644,1.96164 -0.90456,6.17275 2.61792,7.91373 0.3894,0.19246 0.77397,0.34045 1.15239,0.44803 -14.03109,25.74804 -28.88509,50.37225 -36.65151,77.55444 -8.33351,29.16694 -10.45005,60.18526 -10.45001,91.7329 0,0.63371 -0.42554,1.18837 -1.03766,1.35237 -0.74689,0.20008 -1.51459,-0.24321 -1.71463,-0.99012 -0.15348,-0.57332 0.0712,-1.18108 0.56069,-1.5167 -0.65279,-1.26148 -2.0668,-2.3235 -3.05562,-2.05569 -1.06841,0.28938 -2.05001,1.01495 -2.05001,3.21066 0,2.19571 1.96508,5.92082 5.89422,5.8937 3.92914,-0.0271 5.55777,-3.16666 5.89679,-5.89422 3.77888,-30.40269 8.23039,-60.73093 16.56385,-89.89787 8.07326,-28.25624 18.9693,-55.9941 32.72617,-82.29833 0.0302,-0.0555 0.0596,-0.11133 0.0879,-0.16744 0.41457,-0.7918 0.83222,-1.58169 1.25315,-2.37039 14.85376,-27.83196 30.58557,-54.88221 38.91907,-84.04914 8.3335,-29.166928 10.45001,-59.656118 10.45001,-91.203728 0,-2.761433 -1.96817,-5.880553 -5.89731,-5.907653 z" />
    <path
       id="path1"
       style="fill:none;stroke:#ff0000;stroke-width:0.2;stroke-dasharray:none;stroke-opacity:1"
       inkscape:transform-center-x="0.26990199"
       inkscape:transform-center-y="0.63568364"
       d="m 257.14194,19.105619 c -3.92914,-0.0271 -5.8937,3.698504 -5.8937,5.894214 0,2.195709 0.98159,2.921279 2.05,3.210659 0.98882,0.26781 2.40284,-0.79421 3.05563,-2.05569 -0.48949,-0.33562 -0.71417,-0.94338 -0.56069,-1.516704 0.20004,-0.74691 0.96774,-1.190201 1.71463,-0.990121 0.61212,0.164 1.03766,0.718693 1.03766,1.352375 v 1.33532 c 0,30.20561 -8.35102,59.83069 -16.56385,88.575468 -8.33345,29.16695 -18.8467,58.10256 -33.27755,85.14209 -0.1025,0.19206 -0.20516,0.38433 -0.308,0.57619 -0.0111,0.0221 -0.023,0.0438 -0.0351,0.0651 -0.29892,0.52409 -0.90336,0.80042 -1.49965,0.67696 -0.75717,-0.1568 -1.24359,-0.89803 -1.08675,-1.65519 0.12052,-0.58114 0.59427,-1.02336 1.18236,-1.10329 -0.0165,-1.42028 -0.80289,-3.00413 -1.80661,-3.20911 -1.08452,-0.22152 -2.28726,-0.0145 -3.2737,1.94717 -0.98644,1.96164 -0.90456,6.17275 2.61792,7.91373 0.3894,0.19246 0.77397,0.34045 1.15239,0.44803 -14.03109,25.74804 -28.88509,50.37225 -36.65151,77.55444 -8.33351,29.16694 -10.45005,60.18526 -10.45001,91.7329 0,0.63371 -0.42554,1.18837 -1.03766,1.35237 -0.74689,0.20008 -1.51459,-0.24321 -1.71463,-0.99012 -0.15348,-0.57332 0.0712,-1.18108 0.56069,-1.5167 -0.65279,-1.26148 -2.0668,-2.3235 -3.05562,-2.05569 -1.06841,0.28938 -2.05001,1.01495 -2.05001,3.21066 0,2.19571 1.96508,5.92082 5.89422,5.8937 3.92914,-0.0271 5.55777,-3.16666 5.89679,-5.89422 3.77888,-30.40269 8.23039,-60.73093 16.56385,-89.89787 8.07326,-28.25624 18.9693,-55.9941 32.72617,-82.29833 0.0302,-0.0555 0.0596,-0.11133 0.0879,-0.16744 0.41457,-0.7918 0.83222,-1.58169 1.25315,-2.37039 14.85376,-27.83196 30.58557,-54.88221 38.91907,-84.04914 8.3335,-29.166928 10.45001,-59.656118 10.45001,-91.203728 0,-2.761433 -1.96817,-5.880553 -5.89731,-5.907653 z" />
    <path
       id="path2"
       style="fill:none;stroke:#ff0000;stroke-width:0.2;stroke-dasharray:none;stroke-opacity:1"
       inkscape:transform-center-x="0.26990199"
       inkscape:transform-center-y="0.63568364"
       d="m 242.85435,19.105619 c -3.92914,-0.0271 -5.8937,3.698504 -5.8937,5.894214 0,2.195709 0.98159,2.921279 2.05,3.210659 0.98882,0.26781 2.40284,-0.79421 3.05563,-2.05569 -0.48949,-0.33562 -0.71417,-0.94338 -0.56069,-1.516704 0.20004,-0.74691 0.96774,-1.190201 1.71463,-0.990121 0.61212,0.164 1.03766,0.718693 1.03766,1.352375 v 1.33532 c 0,30.20561 -8.35102,59.83069 -16.56385,88.575468 -8.33345,29.16695 -18.8467,58.10256 -33.27755,85.14209 -0.1025,0.19206 -0.20516,0.38433 -0.308,0.57619 -0.0111,0.0221 -0.023,0.0438 -0.0351,0.0651 -0.29892,0.52409 -0.90336,0.80042 -1.49965,0.67696 -0.75717,-0.1568 -1.24359,-0.89803 -1.08675,-1.65519 0.12052,-0.58114 0.59427,-1.02336 1.18236,-1.10329 -0.0165,-1.42028 -0.80289,-3.00413 -1.80661,-3.20911 -1.08452,-0.22152 -2.28726,-0.0145 -3.2737,1.94717 -0.98644,1.96164 -0.90456,6.17275 2.61792,7.91373 0.3894,0.19246 0.77397,0.34045 1.15239,0.44803 -14.03109,25.74804 -28.88509,50.37225 -36.65151,77.55444 -8.33351,29.16694 -10.45005,60.18526 -10.45001,91.7329 0,0.63371 -0.42554,1.18837 -1.03766,1.35237 -0.74689,0.20008 -1.51459,-0.24321 -1.71463,-0.99012 -0.15348,-0.57332 0.0712,-1.18108 0.56069,-1.5167 -0.65279,-1.26148 -2.0668,-2.3235 -3.05562,-2.05569 -1.06841,0.28938 -2.05001,1.01495 -2.05001,3.21066 0,2.19571 1.96508,5.92082 5.89422,5.8937 3.92914,-0.0271 5.55777,-3.16666 5.89679,-5.89422 3.77888,-30.40269 8.23039,-60.73093 16.56385,-89.89787 8.07326,-28.25624 18.9693,-55.9941 32.72617,-82.29833 0.0302,-0.0555 0.0596,-0.11133 0.0879,-0.16744 0.41457,-0.7918 0.83222,-1.58169 1.25315,-2.37039 14.85376,-27.83196 30.58557,-54.88221 38.91907,-84.04914 8.3335,-29.166928 10.45001,-59.656118 10.45001,-91.203728 0,-2.761433 -1.96817,-5.880553 -5.89731,-5.907653 z" />
    <path
       id="path3"
       style="fill:none;stroke:#ff0000;stroke-width:0.2;stroke-dasharray:none;stroke-opacity:1"
       inkscape:transform-center-x="0.26990199"
       inkscape:transform-center-y="0.63568364"
       d="m 228.56676,19.105619 c -3.92914,-0.0271 -5.8937,3.698504 -5.8937,5.894214 0,2.195709 0.98159,2.921279 2.05,3.210659 0.98882,0.26781 2.40284,-0.79421 3.05563,-2.05569 -0.48949,-0.33562 -0.71417,-0.94338 -0.56069,-1.516704 0.20004,-0.74691 0.96774,-1.190201 1.71463,-0.990121 0.61212,0.164 1.03766,0.718693 1.03766,1.352375 v 1.33532 c 0,30.20561 -8.35102,59.83069 -16.56385,88.575468 -8.33345,29.16695 -18.8467,58.10256 -33.27755,85.14209 -0.1025,0.19206 -0.20516,0.38433 -0.308,0.57619 -0.0111,0.0221 -0.023,0.0438 -0.0351,0.0651 -0.29892,0.52409 -0.90336,0.80042 -1.49965,0.67696 -0.75717,-0.1568 -1.24359,-0.89803 -1.08675,-1.65519 0.12052,-0.58114 0.59427,-1.02336 1.18236,-1.10329 -0.0165,-1.42028 -0.80289,-3.00413 -1.80661,-3.20911 -1.08452,-0.22152 -2.28726,-0.0145 -3.2737,1.94717 -0.98644,1.96164 -0.90456,6.17275 2.61792,7.91373 0.3894,0.19246 0.77397,0.34045 1.15239,0.44803 -14.03109,25.74804 -28.88509,50.37225 -36.65151,77.55444 -8.33349,29.16694 -10.45002,60.18526 -10.44998,91.7329 0,0.63371 -0.42554,1.18837 -1.03765,1.35237 -0.74689,0.20008 -1.51458,-0.24321 -1.71462,-0.99012 -0.15348,-0.57332 0.0712,-1.18108 0.56068,-1.5167 -0.65278,-1.26148 -2.06679,-2.3235 -3.0556,-2.05569 -1.0684,0.28938 -2.05,1.01495 -2.05,3.21066 0,2.19571 1.96507,5.92082 5.89419,5.8937 3.92912,-0.0271 5.55774,-3.16666 5.89675,-5.89422 3.77888,-30.40269 8.23039,-60.73093 16.56385,-89.89787 8.07326,-28.25624 18.9693,-55.9941 32.72617,-82.29833 0.0302,-0.0555 0.0596,-0.11133 0.0879,-0.16744 0.41457,-0.7918 0.83222,-1.58169 1.25315,-2.37039 14.85376,-27.83196 30.58557,-54.88221 38.91907,-84.04914 8.3335,-29.166928 10.45001,-59.656118 10.45001,-91.203728 0,-2.761433 -1.96817,-5.880553 -5.89731,-5.907653 z" />
  </g>
</svg>
