<?xml version="1.0" encoding="UTF-8" standalone="no"?>
<!-- Created with Inkscape (http://www.inkscape.org/) -->

<svg
   width="400mm"
   height="400mm"
   viewBox="0 0 400 400"
   version="1.1"
   id="svg1"
   sodipodi:docname="Link LaserFile.svg"
   inkscape:version="1.4.2 (f4327f4, 2025-05-13)"
   xmlns:inkscape="http://www.inkscape.org/namespaces/inkscape"
   xmlns:sodipodi="http://sodipodi.sourceforge.net/DTD/sodipodi-0.dtd"
   xmlns="http://www.w3.org/2000/svg"
   xmlns:svg="http://www.w3.org/2000/svg">
  <sodipodi:namedview
     id="namedview1"
     pagecolor="#ffffff"
     bordercolor="#000000"
     borderopacity="0.25"
     inkscape:showpageshadow="2"
     inkscape:pageopacity="0.0"
     inkscape:pagecheckerboard="0"
     inkscape:deskcolor="#d1d1d1"
     inkscape:document-units="mm"
     inkscape:zoom="0.35355339"
     inkscape:cx="1385.9293"
     inkscape:cy="1302.4907"
     inkscape:window-width="2560"
     inkscape:window-height="1494"
     inkscape:window-x="-11"
     inkscape:window-y="-11"
     inkscape:window-maximized="1"
     inkscape:current-layer="layer1" />
  <defs
     id="defs1" />
  <g
     inkscape:label="Layer 1"
     inkscape:groupmode="layer"
     id="layer1">
    <path
       id="path14"
       style="fill:none;stroke:#ff0000;stroke-width:0.176973;stroke-dasharray:none;stroke-opacity:1"
       inkscape:transform-center-x="-0.0042996272"
       inkscape:transform-center-y="0.73732751"
       d="m 198.55047,13.195483 c -1.97797,0.634 -3.32305,2.537863 -3.54051,4.770957 -0.11956,1.22768 0.30736,2.356352 1.77292,2.787446 0.9828,0.289125 1.87676,-0.342002 2.53076,-1.602846 -0.48916,-0.336101 -0.71326,-0.943887 -0.55919,-1.517058 0.20072,-0.74672 0.96897,-1.18972 1.71567,-0.988923 0.61196,0.164588 1.03656,0.720105 1.03656,1.353794 l -10e-4,182.002427 c -1e-5,0.63369 -0.42693,1.18796 -1.0392,1.35137 -0.74708,0.19941 -1.51418,-0.24454 -1.71346,-0.99165 -0.15292,-0.57347 0.0724,-1.18091 0.5622,-1.51605 -0.65158,-1.26211 -1.5447,-1.8953 -2.52805,-1.60807 -1.46638,0.42831 -1.89556,1.55625 -1.77836,2.78416 0.26237,2.74893 2.23391,5.00226 4.99533,5.00491 0.52303,5e-4 1.02759,-0.08 1.50158,-0.22999 l -0.001,177.20838 c -1e-5,0.63369 -0.42706,1.18785 -1.03934,1.35124 -0.74708,0.1994 -1.51415,-0.24455 -1.71346,-0.99165 -0.15292,-0.57348 0.0722,-1.1814 0.56206,-1.51655 -0.65158,-1.26211 -1.54454,-1.89476 -2.52791,-1.60756 -1.46637,0.42831 -1.89556,1.55624 -1.77836,2.78414 0.26237,2.74893 2.23391,5.00227 4.99533,5.00492 2.76143,0.003 5.00453,-2.25996 5.00455,-5.02139 l 0.003,-364.005483 c 2e-5,-2.76143 -2.23326,-5.028239 -4.99468,-5.030891 -0.51777,-4.97e-4 -1.00793,0.07806 -1.46439,0.224367 z"
       sodipodi:nodetypes="ssscsssssscssscssscsssssss" />
  </g>
</svg>
