<?xml version="1.0" encoding="UTF-8" standalone="no"?>
<!-- Created with Inkscape (http://www.inkscape.org/) -->

<svg
   width="200mm"
   height="200mm"
   viewBox="0 0 200 200"
   version="1.1"
   id="svg5"
   inkscape:version="1.4.2 (f4327f4, 2025-05-13)"
   sodipodi:docname="Paper Box Laserfile.svg"
   xml:space="preserve"
   xmlns:inkscape="http://www.inkscape.org/namespaces/inkscape"
   xmlns:sodipodi="http://sodipodi.sourceforge.net/DTD/sodipodi-0.dtd"
   xmlns="http://www.w3.org/2000/svg"
   xmlns:svg="http://www.w3.org/2000/svg"><sodipodi:namedview
     id="namedview7"
     pagecolor="#505050"
     bordercolor="#eeeeee"
     borderopacity="1"
     inkscape:pageshadow="0"
     inkscape:pageopacity="0"
     inkscape:pagecheckerboard="0"
     inkscape:document-units="mm"
     showgrid="false"
     inkscape:zoom="0.70710678"
     inkscape:cx="49.497475"
     inkscape:cy="557.90725"
     inkscape:window-width="2560"
     inkscape:window-height="1494"
     inkscape:window-x="-11"
     inkscape:window-y="-11"
     inkscape:window-maximized="1"
     inkscape:current-layer="layer1"
     inkscape:showpageshadow="2"
     inkscape:deskcolor="#d1d1d1" /><defs
     id="defs2"><inkscape:path-effect
       effect="bspline"
       id="path-effect14289"
       is_visible="true"
       lpeversion="1"
       weight="33.333333"
       steps="2"
       helper_size="0"
       apply_no_weight="true"
       apply_with_weight="true"
       only_selected="false" /><inkscape:path-effect
       effect="bspline"
       id="path-effect8760"
       is_visible="true"
       lpeversion="1"
       weight="33.333333"
       steps="2"
       helper_size="0"
       apply_no_weight="true"
       apply_with_weight="true"
       only_selected="false" /><inkscape:path-effect
       effect="bspline"
       id="path-effect7132"
       is_visible="true"
       lpeversion="1"
       weight="33.333333"
       steps="2"
       helper_size="0"
       apply_no_weight="true"
       apply_with_weight="true"
       only_selected="false" /><inkscape:path-effect
       effect="bspline"
       id="path-effect5765"
       is_visible="true"
       lpeversion="1"
       weight="33.333333"
       steps="2"
       helper_size="0"
       apply_no_weight="true"
       apply_with_weight="true"
       only_selected="false" /><inkscape:path-effect
       effect="spiro"
       id="path-effect5049"
       is_visible="true"
       lpeversion="1" /><inkscape:path-effect
       effect="spiro"
       id="path-effect5043"
       is_visible="true"
       lpeversion="1" /><inkscape:path-effect
       effect="spiro"
       id="path-effect5036"
       is_visible="true"
       lpeversion="1" /><inkscape:path-effect
       effect="spiro"
       id="path-effect4605"
       is_visible="true"
       lpeversion="1" /><rect
       x="429.03998"
       y="-140.31496"
       width="202.95265"
       height="110.52543"
       id="rect3657" /><inkscape:path-effect
       effect="spiro"
       id="path-effect1255"
       is_visible="true"
       lpeversion="1" /><inkscape:path-effect
       effect="spiro"
       id="path-effect1249"
       is_visible="true"
       lpeversion="1" /><inkscape:path-effect
       effect="spiro"
       id="path-effect1243"
       is_visible="true"
       lpeversion="1" /><inkscape:path-effect
       effect="spiro"
       id="path-effect1237"
       is_visible="true"
       lpeversion="1" /><inkscape:path-effect
       effect="spiro"
       id="path-effect1193"
       is_visible="true"
       lpeversion="1" /><inkscape:path-effect
       effect="spiro"
       id="path-effect1168"
       is_visible="true"
       lpeversion="1" /><inkscape:path-effect
       effect="spiro"
       id="path-effect1063"
       is_visible="true"
       lpeversion="1" /><inkscape:path-effect
       effect="spiro"
       id="path-effect859"
       is_visible="true"
       lpeversion="1" /><rect
       x="429.03998"
       y="-140.31496"
       width="202.95265"
       height="110.52543"
       id="rect3657-1" /><rect
       x="429.03998"
       y="-140.31496"
       width="202.95265"
       height="110.52543"
       id="rect36575" /><rect
       x="429.03998"
       y="-140.31496"
       width="202.95265"
       height="110.52543"
       id="rect38901" /><rect
       x="429.03998"
       y="-140.31496"
       width="202.95265"
       height="110.52543"
       id="rect38907" /><rect
       x="429.03998"
       y="-140.31496"
       width="202.95265"
       height="110.52543"
       id="rect38913" /><rect
       x="429.03998"
       y="-140.31496"
       width="202.95265"
       height="110.52543"
       id="rect38919" /><rect
       x="429.03998"
       y="-140.31496"
       width="202.95265"
       height="110.52543"
       id="rect42399" /><rect
       x="429.03998"
       y="-140.31496"
       width="202.95265"
       height="110.52543"
       id="rect42405" /><rect
       x="429.03998"
       y="-140.31496"
       width="202.95265"
       height="110.52543"
       id="rect44385" /><rect
       x="429.03998"
       y="-140.31496"
       width="342.23898"
       height="125.78969"
       id="rect69546" /><rect
       x="429.03998"
       y="-140.31496"
       width="202.95265"
       height="110.52543"
       id="rect38907-4" /><rect
       x="429.03998"
       y="-140.31496"
       width="202.95265"
       height="110.52543"
       id="rect69546-8" /></defs><g
     inkscape:label="Layer 1"
     inkscape:groupmode="layer"
     id="layer1"><path
       id="path105927"
       style="fill:none;stroke:#00ff00;stroke-width:1;stroke-linecap:butt;stroke-linejoin:miter;stroke-opacity:1;stroke-miterlimit:4;stroke-dasharray:none"
       d="m 75,24.999855 50,2.91e-4 M 75,175 h 50 m 0,-100 v 50 M 75,75 v 50 m -50,-1e-5 V 74.999992 L 175,75 v 50 l -150,-1e-5" /><path
       id="path31-7"
       style="fill:none;stroke:#ff0000;stroke-width:0.224114;stroke-opacity:1"
       d="m 118.93703,217.79227 c -0.44998,-0.51131 -4.5182,-2.87512 -5.00871,-2.91027 -0.35346,-0.0253 -0.33696,0.10219 0.16477,1.27417 0.76105,1.7777 1.18595,2.56193 1.63756,3.02244 0.44503,0.45379 0.65018,0.52641 1.17574,0.41617 0.46208,-0.0969 1.85143,-0.78918 2.04459,-1.01874 0.21507,-0.2556 0.2102,-0.52907 -0.014,-0.78377 z m -1.28285,-4.34175 c -0.16801,-0.64504 -0.5266,-1.23323 -1.05475,-1.73007 -1.44448,-1.35886 -3.49745,-2.90297 -5.16991,-3.88844 -2.12509,-1.25219 -4.35475,-2.21214 -5.30879,-2.28564 -0.78722,-0.0607 -0.69143,0.28515 0.34061,1.22947 3.60745,3.30083 5.41334,4.75959 7.57724,6.12076 1.03198,0.64915 2.98056,1.64711 3.2161,1.64711 0.16932,0 0.37882,-0.16635 0.44807,-0.35578 0.0583,-0.15948 0.0435,-0.38386 -0.0486,-0.73741 z m -3.88464,5.77109 c -0.21466,-0.6372 -0.64239,-1.19701 -1.09166,-1.42878 -0.49529,-0.2555 -1.31724,-0.005 -1.85825,0.56761 -0.38484,0.40691 -0.44702,0.62605 -0.36536,1.2876 0.0736,0.59674 0.14922,0.89861 0.29781,1.18988 0.22897,0.44882 0.80328,0.75324 1.2963,0.68711 0.8226,-0.11033 1.84196,-1.07719 1.84196,-1.74707 0,-0.10877 -0.0544,-0.35913 -0.1208,-0.55635 z m -2.85181,-5.31207 c -0.0651,-0.13682 -0.22999,-0.36058 -0.36655,-0.49727 -0.35214,-0.35247 -3.33683,-2.98424 -5.22755,-4.60944 l -1.59932,-1.37473 h -0.30914 c -0.40866,0 -0.58788,0.0753 -0.70125,0.29453 -0.19405,0.37525 -0.16173,0.4734 0.92181,2.79971 1.70168,3.65341 2.83447,5.83399 3.22968,6.21704 0.12245,0.11868 0.35294,0.24062 0.62049,0.32825 0.555,0.18179 0.81969,0.13552 1.69457,-0.29621 0.69618,-0.34355 1.3638,-0.88367 1.63533,-1.32302 0.3001,-0.48557 0.3371,-1.04414 0.10193,-1.53886 z m -2.0613,7.32878 c -0.19013,-0.38376 -0.41849,-0.50072 -0.97778,-0.50084 -0.31603,-7e-5 -0.48072,0.0323 -0.67845,0.13332 -0.4369,0.22325 -0.50219,0.36451 -0.52492,1.13585 -0.0312,1.06013 0.14581,1.31877 0.88994,1.30006 0.7279,-0.0183 1.15718,-0.21428 1.40665,-0.64218 0.0429,-0.0735 0.0617,-0.31162 0.0495,-0.62571 -0.0152,-0.39137 -0.0528,-0.57407 -0.16497,-0.8005 z m -4.27631,-3.11176 c -0.52568,-2.15684 -1.23526,-3.97107 -2.00659,-5.1303 -0.44251,-0.66505 -1.12641,-1.39234 -1.30927,-1.39234 -0.19384,0 -0.53777,0.31774 -0.62281,0.57539 -0.20726,0.62802 0.2102,2.60391 1.36924,6.48084 0.39886,1.33418 0.44608,1.44609 0.75391,1.78682 0.2719,0.30097 0.59432,0.46654 0.90848,0.46654 0.68848,0 1.299,-0.73581 1.20538,-1.45277 -0.017,-0.13045 -0.15129,-0.73083 -0.29834,-1.33418 z m -5.476232,-2.9441 c -0.13933,-1.82141 -0.25529,-2.83976 -0.36479,-3.20328 -0.12802,-0.42498 -0.37395,-0.65355 -0.7032,-0.65355 -0.31107,0 -0.51829,0.19378 -0.69987,0.65448 -0.11748,0.29807 -0.13401,0.57588 -0.26237,4.4097 -0.0754,2.25038 -0.14409,5.04238 -0.15275,6.20446 -0.0153,2.042 -0.0115,2.12337 0.11208,2.42575 0.1777,0.4349 0.30603,0.49941 0.69181,0.34779 0.23075,-0.0907 0.41502,-0.24298 0.742,-0.61319 0.48275,-0.54659 0.64415,-0.88451 0.7208,-1.50914 0.0877,-0.7148 0.0264,-6.62385 -0.0837,-8.06302 z m -6.340235,-8.76207 c -0.314785,-0.15336 -0.494414,-0.0476 -1.402221,0.82532 -3.437848,3.30584 -5.719647,6.6151 -7.27969,10.55762 -0.191466,0.48386 -0.390644,1.03458 -0.442636,1.22384 -0.152722,0.55595 -0.450736,2.04957 -0.4253,2.13155 0.04378,0.14111 0.442604,0.32893 0.655428,0.30866 0.2215,-0.0211 1.052466,-0.42693 1.560462,-0.76213 0.516539,-0.34084 0.712833,-0.59903 1.48085,-1.94797 1.658886,-2.91361 5.98465,-10.84258 6.110043,-11.19947 0.07383,-0.21016 0.07256,-0.5628 -0.0029,-0.81577 -0.05259,-0.17623 -0.113397,-0.2531 -0.253982,-0.32165 z m 2.475881,5.75659 c -0.21878,-0.55609 -0.59083,-0.33871 -0.98486,0.57546 -0.36954,0.85737 -0.55624,1.6048 -0.7432,2.97551 -0.0991,0.72671 -0.29916,2.16722 -0.44451,3.20115 -0.44358,3.15549 -0.56699,4.28017 -0.60196,5.48608 -0.0305,1.05062 -0.0237,1.16588 0.0779,1.32248 0.11052,0.17038 0.1143,0.17073 0.556,0.0517 0.88845,-0.23939 1.45593,-0.73488 1.7161,-1.4984 0.11808,-0.34651 0.2825,-1.6004 0.42138,-3.21348 0.1217,-1.41361 0.16549,-3.3422 0.13676,-6.0232 -0.0247,-2.30511 -0.0403,-2.64003 -0.13361,-2.87732 z m -4.081825,5.42689 c -0.0408,-0.27935 -0.11754,-0.52467 -0.19988,-0.63885 l -0.13367,-0.18536 -0.33958,0.24405 c -0.50565,0.36339 -1.02821,1.06291 -1.34756,1.80392 -0.52726,1.22344 -0.75872,2.46532 -0.75912,4.07297 -4.4e-4,1.44116 0.20166,2.51778 0.59349,3.16297 0.19716,0.32464 0.39401,0.46673 0.74213,0.53566 0.20229,0.0401 0.25852,0.0223 0.36718,-0.11562 0.42596,-0.54085 0.88595,-2.75485 1.0771,-5.18429 0.0752,-0.95542 0.0751,-3.1803 -9e-5,-3.69545 z m -4.008508,8.585 c -0.0506,-0.22829 -0.11284,-0.43737 -0.13821,-0.4646 -0.16252,-0.17443 -1.34146,0.96774 -1.95004,1.88919 -0.72003,1.09022 -0.96389,1.86246 -0.73091,2.31471 0.16539,0.32106 0.47144,0.59615 0.74548,0.67005 0.5948,0.16039 1.55212,-0.30276 1.91871,-0.92829 0.1373,-0.23429 0.17028,-0.38716 0.23228,-1.07656 0.0832,-0.92537 0.0548,-1.80896 -0.0773,-2.4045 z m -1.801243,-2.9652 c -0.11972,-0.1392 -0.18144,-0.16091 -0.44054,-0.155 -0.6413,0.0146 -1.91239,0.72888 -2.70135,1.518 -0.81643,0.81658 -1.10491,1.77411 -0.81505,2.7054 0.14682,0.47176 0.38296,0.80919 0.71305,1.01889 0.34241,0.21754 0.73173,0.23311 0.85186,0.0341 0.0443,-0.0734 0.40187,-0.6413 0.79464,-1.26206 0.83801,-1.32446 1.20836,-1.99325 1.50936,-2.72564 0.26211,-0.63778 0.28301,-0.90698 0.088,-1.13365 z M 110.93185,202.132 c 2.5559,0 4.02126,1.77225 5.96899,3.92504 0.53906,0.59581 1.42759,2.57665 1.74925,3.184 0.72306,1.36525 0.61164,1.44278 1.68874,3.53424 0.38095,0.73972 1.15931,1.59978 1.40848,1.90959 0.73096,0.9089 1.00432,1.50406 1.22593,2.16247 0.22569,0.67055 0.11608,1.11105 -0.40991,1.64735 -0.40809,0.41609 -0.47838,0.62392 -0.53068,1.5693 -0.0633,1.14394 -0.19192,1.38731 -1.0256,1.941 -0.57052,0.3789 -0.99687,0.88356 -1.38513,1.63952 -0.36141,0.70365 -0.66048,1.08066 -0.95509,1.204 -0.12441,0.0521 -0.44429,0.0802 -0.91911,0.0808 -1.25813,0.002 -1.72694,0.17439 -2.42475,0.89414 -0.48771,0.503 -0.63523,0.5874 -1.02728,0.5874 -0.71874,0 -2.02105,0.34344 -3.13728,0.82735 -1.21654,0.5274 -1.91276,0.70733 -2.91489,0.75323 -0.64065,0.0293 -0.82977,0.0114 -1.89751,-0.17955 -1.41453,-0.25305 -1.92296,-0.38885 -2.48865,-0.66469 -0.76559,-0.37331 -1.30437,-0.92552 -1.64412,-1.68509 -0.38542,-0.86169 -0.41333,-0.90495 -0.51699,-0.80129 -0.0771,0.0771 -0.0942,0.25575 -0.0982,0.99615 -0.006,1.42388 -0.27015,2.20151 -1.02078,3.01226 -0.851925,0.92016 -1.524165,1.2336 -3.662495,1.70767 -2.69663,0.59785 -2.81273,0.61165 -3.79195,0.45076 -0.66197,-0.10846 -1.44717,-0.11168 -1.8382,-0.007 -0.35202,0.094 -0.73384,0.28158 -1.08731,0.53406 -0.2484,0.17743 -0.28473,0.18503 -1.06734,0.22263 -1.11914,0.0538 -1.35518,0.15115 -2.75836,1.1376 -1.42614,1.00261 -2.67098,1.68128 -4.10009,2.23536 -0.5289,0.20501 -0.74806,0.25841 -1.15874,0.28211 -0.43042,0.0248 -0.54172,0.011 -0.7412,-0.0917 -0.54248,-0.27944 -0.83757,-0.78928 -1.13093,-1.95395 -0.35815,-1.42189 -0.45858,-2.28477 -0.46068,-3.9588 -0.002,-1.62315 0.0672,-2.2953 0.3755,-3.64675 0.91236,-3.99874 0.412389,-5.74635 1.884644,-10.656 0.880315,-2.93565 1.869877,-5.58525 2.656585,-7.35871 1.010911,-2.27888 3.417932,-5.39881 4.944,-5.43496 L 100,202.132 v -1.00046 l -12.045006,4.4e-4 M 118.93703,-17.792421 c -0.44998,0.511306 -4.5182,2.875123 -5.00871,2.910275 -0.35346,0.02531 -0.33696,-0.102192 0.16477,-1.274173 0.76105,-1.777704 1.18595,-2.561933 1.63756,-3.022436 0.44503,-0.453796 0.65018,-0.52641 1.17574,-0.416178 0.46208,0.09693 1.85143,0.789182 2.04459,1.018748 0.21507,0.255599 0.2102,0.529061 -0.014,0.783764 z m -1.28285,4.341746 c -0.16801,0.64505 -0.5266,1.233238 -1.05475,1.73008 -1.44448,1.358857 -3.49745,2.9029647 -5.16991,3.8884347 -2.12509,1.252188 -4.35475,2.212137 -5.30879,2.285638 -0.78722,0.06067 -0.69143,-0.285149 0.34061,-1.229464 3.60745,-3.3008317 5.41334,-4.7595957 7.57724,-6.1207657 1.03198,-0.649152 2.98056,-1.647103 3.2161,-1.647103 0.16932,0 0.37882,0.166345 0.44807,0.35578 0.0583,0.159474 0.0435,0.38385 -0.0486,0.7374 z m -3.88464,-5.771089 c -0.21466,0.6372 -0.64239,1.197017 -1.09166,1.428785 -0.49529,0.255498 -1.31724,0.0046 -1.85825,-0.56761 -0.38484,-0.406913 -0.44702,-0.626054 -0.36536,-1.287605 0.0736,-0.596741 0.14922,-0.89861 0.29781,-1.189872 0.22897,-0.448825 0.80328,-0.753244 1.2963,-0.687118 0.8226,0.110334 1.84196,1.077191 1.84196,1.747075 0,0.108771 -0.0544,0.359125 -0.1208,0.556345 z m -2.85181,5.312076 c -0.0651,0.136813 -0.22999,0.360577 -0.36655,0.497271 -0.35214,0.352464 -3.33683,2.984233 -5.22755,4.6094337 l -1.59932,1.374729 h -0.30914 c -0.40866,0 -0.58788,-0.07529 -0.70125,-0.294523 -0.19405,-0.375252 -0.16173,-0.473405 0.92181,-2.7997137 1.70168,-3.653404 2.83447,-5.83399 3.22968,-6.217036 0.12245,-0.118685 0.35294,-0.240623 0.62049,-0.32825 0.555,-0.181796 0.81969,-0.135524 1.69457,0.296205 0.69618,0.343554 1.3638,0.883671 1.63533,1.323021 0.3001,0.485567 0.3371,1.044141 0.10193,1.538863 z m -2.0613,-7.328783 c -0.19013,0.383758 -0.41849,0.500716 -0.97778,0.500844 -0.31603,6.4e-5 -0.48072,-0.03226 -0.67845,-0.133323 -0.4369,-0.223252 -0.50219,-0.364506 -0.52492,-1.135852 -0.0312,-1.06013 0.14581,-1.318772 0.88994,-1.300058 0.7279,0.01827 1.15718,0.214279 1.40665,0.64218 0.0429,0.07346 0.0617,0.311619 0.0495,0.625706 -0.0152,0.39137 -0.0528,0.574071 -0.16497,0.800503 z m -4.27631,3.111757 c -0.52568,2.156847 -1.23526,3.971072 -2.00659,5.130307 -0.44251,0.665051 -1.12641,1.392337 -1.30927,1.392337 -0.19384,0 -0.53777,-0.317742 -0.62281,-0.575387 -0.20726,-0.628018 0.2102,-2.60391 1.36924,-6.480841 0.39886,-1.334177 0.44608,-1.446091 0.75391,-1.786822 0.2719,-0.300965 0.59432,-0.466543 0.90848,-0.466543 0.68848,0 1.299,0.735811 1.20538,1.452771 -0.017,0.130454 -0.15129,0.730831 -0.29834,1.334178 z m -5.476235,2.944104 c -0.13933,1.821412 -0.25529,2.839762 -0.36479,3.203278 -0.12802,0.424983 -0.37395,0.653553 -0.7032,0.653553 -0.31107,0 -0.51829,-0.193778 -0.69987,-0.654483 -0.11748,-0.298069 -0.13401,-0.575878 -0.26237,-4.409702 -0.0754,-2.250375 -0.14409,-5.042375 -0.15275,-6.204457 -0.0153,-2.042002 -0.0115,-2.123367 0.11208,-2.425746 0.1777,-0.434905 0.30603,-0.499412 0.69181,-0.347794 0.23075,0.09065 0.41502,0.242977 0.742,0.613191 0.48275,0.546586 0.64415,0.88451 0.7208,1.509142 0.0877,0.714794 0.0264,6.62385 -0.0837,8.063018 z m -6.340235,8.7620683 c -0.314785,0.1533605 -0.494414,0.04764 -1.402221,-0.8253184 -3.437848,-3.3058389 -5.719647,-6.6151019 -7.27969,-10.5576239 -0.191466,-0.483857 -0.390644,-1.034581 -0.442636,-1.223837 -0.152722,-0.555949 -0.450736,-2.049566 -0.4253,-2.131547 0.04378,-0.141114 0.442604,-0.328931 0.655428,-0.308666 0.2215,0.02109 1.052466,0.426938 1.560462,0.762137 0.516539,0.340834 0.712833,0.599031 1.48085,1.947972 1.658886,2.91361 5.98465,10.8425792 6.110043,11.1994655 0.07383,0.2101624 0.07256,0.5628024 -0.0029,0.8157736 -0.05259,0.1762306 -0.113397,0.2531 -0.253982,0.3216441 z m 2.475881,-5.7565883 c -0.21878,0.556093 -0.59083,0.338707 -0.98486,-0.57546 -0.36954,-0.857368 -0.55624,-1.604802 -0.7432,-2.975509 -0.0991,-0.726707 -0.29916,-2.167221 -0.44451,-3.201148 -0.44358,-3.155498 -0.56699,-4.28017 -0.60196,-5.486083 -0.0305,-1.050622 -0.0237,-1.165878 0.0779,-1.32248 0.11052,-0.170376 0.1143,-0.170731 0.556,-0.05167 0.88845,0.239389 1.45593,0.734876 1.7161,1.498401 0.11808,0.346511 0.2825,1.600403 0.42138,3.21348 0.1217,1.413604 0.16549,3.342202 0.13676,6.0232 -0.0247,2.305105 -0.0403,2.640029 -0.13361,2.877314 z m -4.081825,-5.426889 c -0.0408,0.279353 -0.11754,0.524668 -0.19988,0.638845 l -0.13367,0.185361 -0.33958,-0.244051 c -0.50565,-0.363385 -1.02821,-1.062906 -1.34756,-1.803919 -0.52726,-1.223439 -0.75872,-2.465317 -0.75912,-4.072966 -4.4e-4,-1.441157 0.20166,-2.517784 0.59349,-3.162973 0.19716,-0.324639 0.39401,-0.46673 0.74213,-0.535655 0.20229,-0.04011 0.25852,-0.02234 0.36718,0.115619 0.42596,0.540843 0.88595,2.754848 1.0771,5.184285 0.0752,0.955419 0.0751,3.180302 -9e-5,3.695456 z m -4.008508,-8.585003 c -0.0506,0.228296 -0.11284,0.437368 -0.13821,0.464597 -0.16252,0.174431 -1.34146,-0.967734 -1.95004,-1.889188 -0.72003,-1.09022 -0.96389,-1.862461 -0.73091,-2.314704 0.16539,-0.321067 0.47144,-0.596156 0.74548,-0.670049 0.5948,-0.160397 1.55212,0.302756 1.91871,0.928288 0.1373,0.23429 0.17028,0.387158 0.23228,1.07656 0.0832,0.925364 0.0548,1.808953 -0.0773,2.404496 z m -1.801243,2.9652 c -0.11972,0.139198 -0.18144,0.160909 -0.44054,0.155006 -0.6413,-0.01462 -1.91239,-0.728885 -2.70135,-1.518002 -0.81643,-0.816585 -1.10491,-1.774113 -0.81505,-2.705398 0.14682,-0.47176 0.38296,-0.809193 0.71305,-1.018894 0.34241,-0.217542 0.73173,-0.233112 0.85186,-0.03408 0.0443,0.07337 0.40187,0.641303 0.79464,1.262056 0.83801,1.324465 1.20836,1.993253 1.50936,2.725646 0.26211,0.637776 0.28301,0.90698 0.088,1.13365 z m 25.583895,21.0916679 c 2.5559,0 4.02126,-1.7722505 5.96899,-3.9250405 0.53906,-0.59581 1.42759,-2.57665 1.74925,-3.184 0.72306,-1.3652504 0.61164,-1.4427804 1.68874,-3.5342404 0.38095,-0.73972 1.15931,-1.59978 1.40848,-1.90959 0.73096,-0.9089 1.00432,-1.50406 1.22593,-2.16247 0.22569,-0.67055 0.11608,-1.11105 -0.40991,-1.64735 -0.40809,-0.41609 -0.47838,-0.62392 -0.53068,-1.5693 -0.0633,-1.14394 -0.19192,-1.38731 -1.0256,-1.941 -0.57052,-0.3789 -0.99687,-0.88356 -1.38513,-1.63952 -0.36141,-0.70365 -0.66048,-1.08066 -0.95509,-1.204 -0.12441,-0.0521 -0.44429,-0.0802 -0.91911,-0.0808 -1.25813,-0.002 -1.72694,-0.17439 -2.42475,-0.89414 -0.48771,-0.503 -0.63523,-0.5874 -1.02728,-0.5874 -0.71874,0 -2.02105,-0.34344 -3.13728,-0.82735 -1.21654,-0.5274 -1.91276,-0.70733 -2.91489,-0.75323 -0.64065,-0.0293 -0.82977,-0.0114 -1.89751,0.17955 -1.41453,0.25305 -1.92296,0.38885 -2.48865,0.66469 -0.76559,0.37331 -1.30437,0.92552 -1.64412,1.68509 -0.38542,0.86169 -0.41333,0.90495 -0.51699,0.80129 -0.0771,-0.0771 -0.0942,-0.25575 -0.0982,-0.99615 -0.006,-1.42388 -0.27015,-2.20151 -1.02078,-3.01226 -0.851927,-0.92016 -1.524167,-1.2336 -3.662497,-1.70767 -2.69663,-0.59785 -2.81273,-0.61165 -3.79195,-0.45076 -0.66197,0.10846 -1.44717,0.11168 -1.8382,0.007 -0.35202,-0.094 -0.73384,-0.28158 -1.08731,-0.53406 -0.2484,-0.17743 -0.28473,-0.18503 -1.06734,-0.22263 -1.11914,-0.0538 -1.35518,-0.15115 -2.75836,-1.1376 -1.42614,-1.00261 -2.67098,-1.68128 -4.10009,-2.23536 -0.5289,-0.20501 -0.74806,-0.25841 -1.15874,-0.28211 -0.43042,-0.0248 -0.54172,-0.011 -0.7412,0.0917 -0.54248,0.27944 -0.83757,0.78928 -1.13093,1.95395 -0.35815,1.42189 -0.45858,2.28477 -0.46068,3.9588 -0.002,1.62315 0.0672,2.2953 0.3755,3.64675 0.91236,3.99874 0.412389,5.74635 1.884644,10.656 0.880315,2.93565 1.869877,5.5852504 2.656585,7.3587104 1.010911,2.27888 3.417932,5.3988105 4.944,5.4349605 m 22.291148,-4.6e-4 H 99.999998 v 1.00046 l 12.085062,-4.4e-4 M 75.000001,75 75,24.999855 C 75.04898,16.171874 81.638644,4.049588 88.640702,-2.1316941 m 23.444358,0.99956 C 119.08712,5.0491476 124.95102,16.17202 125,25.000001 V 75 M 50,150.00001 75.000001,150 c 2e-6,13.80711 -11.192879,24.99999 -24.999998,24.99999 -13.807119,0 -25,-11.19288 -25,-25 l -3e-6,-25 c -11.107229,-2.5294 -28,-16.71755 -28,-24.999998 0,-8.282447 16.892771,-22.4706 28,-25 V 49.999996 C 25,36.192881 36.192881,25 50,25 63.807119,25 75,36.192881 75,49.999997 L 50,50 m 75,3e-6 c 0,-13.807119 11.19288,-25 25,-25 13.80712,0 25,11.192881 25,24.999998 V 75 c 11.10723,2.5294 28,16.717553 28,25 0,8.28245 -16.89277,22.4706 -28,25 v 25 c 0,13.80711 -11.19288,24.99999 -25,24.99999 -13.80712,0 -25,-11.19288 -25,-25 M 110.93185,202.132 c 7.00206,-6.18128 14.02032,-18.30402 14.0693,-27.132 L 125,125 M 87.954994,201.13198 C 80.952934,194.9507 75.04898,183.82798 75,175 l 10e-7,-50 M 150,50 l 25,3e-6 M 150,150 l 25,1e-5"
       sodipodi:nodetypes="csssssccssscsssssscsccsssccsscssssssscssssssssssssssssssssssccssssssscsssssssssssssssssssssssscsscsscssssssssssscssssssscccsssssssssscsssscssscssccssssscsscsscccccssssscccssssssscccsccsssccsscsssscssccsccccsccssscssscsssssccccssssccssssscsccccscccscsssccsscsscscscsssssssscsscssssssscccssscssssssccssccssscssccscscccsccsscccccccccccccsscscsscccsscscssccccccccccc" /></g><style
     type="text/css"
     id="style19042">
	.st0{fill:#F9C7F5;}
	.st1{fill:none;stroke:#0A0A0A;stroke-miterlimit:10;}
</style><style
     type="text/css"
     id="style19042-2">
	.st0{fill:#F9C7F5;}
	.st1{fill:none;stroke:#0A0A0A;stroke-miterlimit:10;}
</style></svg>
