<?xml version="1.0" encoding="UTF-8" standalone="no"?>
<!-- Created with Inkscape (http://www.inkscape.org/) -->

<svg
   width="400mm"
   height="400mm"
   viewBox="0 0 400 400"
   version="1.1"
   id="svg1"
   sodipodi:docname="Top LaserFile.svg"
   inkscape:version="1.4.2 (f4327f4, 2025-05-13)"
   xmlns:inkscape="http://www.inkscape.org/namespaces/inkscape"
   xmlns:sodipodi="http://sodipodi.sourceforge.net/DTD/sodipodi-0.dtd"
   xmlns="http://www.w3.org/2000/svg"
   xmlns:svg="http://www.w3.org/2000/svg">
  <sodipodi:namedview
     id="namedview1"
     pagecolor="#ffffff"
     bordercolor="#000000"
     borderopacity="0.25"
     inkscape:showpageshadow="2"
     inkscape:pageopacity="0.0"
     inkscape:pagecheckerboard="0"
     inkscape:deskcolor="#d1d1d1"
     inkscape:document-units="mm"
     inkscape:zoom="0.5"
     inkscape:cx="602"
     inkscape:cy="971"
     inkscape:window-width="2560"
     inkscape:window-height="1494"
     inkscape:window-x="-11"
     inkscape:window-y="-11"
     inkscape:window-maximized="1"
     inkscape:current-layer="layer1" />
  <defs
     id="defs1">
    <inkscape:path-effect
       effect="bspline"
       id="path-effect39"
       is_visible="true"
       lpeversion="1.3"
       weight="33.333333"
       steps="2"
       helper_size="0"
       apply_no_weight="true"
       apply_with_weight="true"
       only_selected="false"
       uniform="false" />
    <inkscape:path-effect
       effect="bspline"
       id="path-effect37"
       is_visible="true"
       lpeversion="1.3"
       weight="33.333333"
       steps="2"
       helper_size="0"
       apply_no_weight="true"
       apply_with_weight="true"
       only_selected="false"
       uniform="false" />
    <inkscape:path-effect
       effect="bspline"
       id="path-effect34"
       is_visible="true"
       lpeversion="1.3"
       weight="33.333333"
       steps="2"
       helper_size="0"
       apply_no_weight="true"
       apply_with_weight="true"
       only_selected="false"
       uniform="false" />
    <inkscape:path-effect
       effect="bspline"
       id="path-effect33"
       is_visible="true"
       lpeversion="1.3"
       weight="33.333333"
       steps="2"
       helper_size="0"
       apply_no_weight="true"
       apply_with_weight="true"
       only_selected="false"
       uniform="false" />
    <inkscape:path-effect
       effect="bspline"
       id="path-effect31"
       is_visible="true"
       lpeversion="1.3"
       weight="33.333333"
       steps="2"
       helper_size="0"
       apply_no_weight="true"
       apply_with_weight="true"
       only_selected="false"
       uniform="false" />
    <inkscape:path-effect
       effect="bspline"
       id="path-effect30"
       is_visible="true"
       lpeversion="1.3"
       weight="33.333333"
       steps="2"
       helper_size="0"
       apply_no_weight="true"
       apply_with_weight="true"
       only_selected="false"
       uniform="false" />
    <inkscape:path-effect
       effect="bspline"
       id="path-effect28"
       is_visible="true"
       lpeversion="1.3"
       weight="33.333333"
       steps="2"
       helper_size="0"
       apply_no_weight="true"
       apply_with_weight="true"
       only_selected="false"
       uniform="false" />
  </defs>
  <g
     inkscape:label="Layer 1"
     inkscape:groupmode="layer"
     id="layer1">
    <path
       id="path34"
       style="fill:none;stroke:#ff0000;stroke-width:0.7;stroke-dasharray:none;stroke-opacity:1"
       d="m 178.34699,64.242399 a 35,35 0 0 0 -15.91789,3.829224 l 4.97644,8.620146 -3.11764,1.79989 -4.97644,-8.620146 a 35,35 0 0 0 -15.9184,27.570912 h 9.95339 v 3.599765 h -9.95339 a 35,35 0 0 0 15.9184,27.57092 l 4.97644,-8.61963 3.11764,1.79989 -4.97644,8.61963 a 35,35 0 0 0 15.91789,3.82922 35,35 0 0 0 15.9179,-3.82922 l -4.97644,-8.61963 3.11763,-1.79989 4.97644,8.61963 a 35,35 0 0 0 15.91841,-27.57092 h -9.9534 v -3.599765 h 9.9534 A 35,35 0 0 0 197.38304,69.87203 l -4.97696,8.619629 -3.11763,-1.79989 4.97644,-8.620146 a 35,35 0 0 0 -15.9179,-3.829224 z" />
    <path
       id="path38"
       style="fill:none;stroke:#ff0000;stroke-width:0.7;stroke-dasharray:none;stroke-opacity:1"
       d="m 283.78732,164.42088 c -15.16697,16.90127 -45.49909,27.66485 -60.66607,51.97975 -15.16697,24.31489 -15.16701,62.17893 -15.16697,100.04374 0,0.63369 -0.42554,1.18838 -1.03766,1.35238 -0.74688,0.20008 -1.51456,-0.24321 -1.7146,-0.99012 -0.15348,-0.57332 0.0712,-1.18109 0.56069,-1.51671 -0.65279,-1.26148 -2.06685,-2.32358 -3.05567,-2.05577 -1.06841,0.28938 -2.0499,1.01492 -2.0499,3.21063 0,2.19571 1.96484,5.9211 5.89398,5.89398 3.92914,-0.0271 5.89715,-3.14584 5.89715,-5.90727 3e-5,-34.46932 2e-5,-68.93794 16.35135,-92.56717 16.35132,-23.62923 49.05201,-36.41691 65.40334,-55.01381 16.35133,-18.59689 16.39597,-43.00131 16.35133,-67.40613 -0.0155,-8.449386 0.27847,-17.456526 -4,-19.999996 v 10 l -3.6,3.4e-4 v -10.00034 c -4.27848,2.54347 -3.98388,11.55061 -4,19.999996 -0.044,23.0378 0,46.07523 -15.16697,62.9765 z"
       sodipodi:nodetypes="ssssccsssssssccccss" />
    <path
       id="path43"
       style="fill:none;stroke:#ff0000;stroke-width:0.7;stroke-dasharray:none;stroke-opacity:1"
       d="m 268.44139,158.60001 c -15.16697,16.90127 -45.49909,27.66485 -60.66607,51.97975 -15.16697,24.31489 -15.16701,62.17893 -15.16697,100.04374 0,0.63369 -0.42554,1.18838 -1.03766,1.35238 -0.74688,0.20008 -1.51456,-0.24321 -1.7146,-0.99012 -0.15348,-0.57332 0.0712,-1.18109 0.56069,-1.51671 -0.65279,-1.26148 -2.06685,-2.32358 -3.05567,-2.05577 -1.06841,0.28938 -2.0499,1.01492 -2.0499,3.21063 0,2.19571 1.96484,5.9211 5.89398,5.89398 3.92914,-0.0271 5.89715,-3.14584 5.89715,-5.90727 3e-5,-34.46932 2e-5,-68.93794 16.35135,-92.56717 16.35132,-23.62923 49.05201,-36.41691 65.40334,-55.01381 16.35133,-18.59689 16.39597,-43.00131 16.35133,-67.406103 -0.0155,-8.44938 0.27847,-17.45652 -4,-19.99999 v 10 l -3.6,3.4e-4 v -10.00034 c -4.27848,2.54347 -3.98388,11.55061 -4,19.99999 -0.044,23.037773 0,46.075203 -15.16697,62.976473 z"
       sodipodi:nodetypes="ssssccsssssssccccss" />
    <path
       id="path45"
       style="fill:none;stroke:#ff0000;stroke-width:0.7;stroke-dasharray:none;stroke-opacity:1"
       d="m 253.09546,152.77917 c -15.16697,16.90127 -45.49909,27.66485 -60.66607,51.97975 -15.16697,24.31489 -15.16701,62.17893 -15.16697,100.04374 0,0.63369 -0.42554,1.18838 -1.03766,1.35238 -0.74688,0.20008 -1.51456,-0.24321 -1.7146,-0.99012 -0.15348,-0.57332 0.0712,-1.18109 0.56069,-1.51671 -0.65279,-1.26148 -2.06685,-2.32358 -3.05567,-2.05577 -1.06841,0.28938 -2.0499,1.01492 -2.0499,3.21063 0,2.19571 1.96484,5.9211 5.89398,5.89398 3.92914,-0.0271 5.89715,-3.14584 5.89715,-5.90727 3e-5,-34.46932 2e-5,-68.93794 16.35135,-92.56717 16.35132,-23.62923 49.05201,-36.41691 65.40334,-55.01381 16.35133,-18.59689 16.39597,-43.00131 16.35133,-67.406106 -0.0155,-8.44938 0.27847,-17.45652 -4,-19.99999 v 10 l -3.6,3.4e-4 v -10.00034 c -4.27848,2.54347 -3.98388,11.55061 -4,19.99999 -0.044,23.037776 0,46.075206 -15.16697,62.976476 z"
       sodipodi:nodetypes="ssssccsssssssccccss" />
    <path
       id="path44"
       style="fill:none;stroke:#ff0000;stroke-width:0.7;stroke-dasharray:none;stroke-opacity:1"
       d="m 237.74953,146.95836 c -15.16697,16.90127 -45.49909,27.66485 -60.66607,51.97975 -15.16697,24.31489 -15.16701,62.17893 -15.16697,100.04374 0,0.63369 -0.42554,1.18838 -1.03766,1.35238 -0.74688,0.20008 -1.51456,-0.24321 -1.7146,-0.99012 -0.15348,-0.57332 0.0712,-1.18109 0.56069,-1.51671 -0.65279,-1.26148 -2.06685,-2.32358 -3.05567,-2.05577 -1.06841,0.28938 -2.0499,1.01492 -2.0499,3.21063 0,2.19571 1.96484,5.9211 5.89398,5.89398 3.92914,-0.0271 5.89715,-3.14584 5.89715,-5.90727 3e-5,-34.46932 2e-5,-68.93794 16.35135,-92.56717 16.35132,-23.62923 49.05201,-36.41691 65.40334,-55.01381 16.35133,-18.59689 16.39597,-43.00131 16.35133,-67.406133 -0.0155,-8.449386 0.27847,-17.456526 -4,-19.999996 v 10 l -3.6,3.4e-4 v -10.00034 c -4.27848,2.54347 -3.98388,11.55061 -4,19.999996 -0.044,23.037803 0,46.075233 -15.16697,62.976503 z"
       sodipodi:nodetypes="ssssccsssssssccccss" />
    <path
       id="path46"
       style="fill:none;stroke:#ff0000;stroke-width:0.7;stroke-dasharray:none;stroke-opacity:1"
       d="m 222.4036,141.13752 c -15.16697,16.90127 -45.49909,27.66485 -60.66607,51.97975 -15.16697,24.31489 -15.16701,62.17893 -15.16697,100.04374 0,0.63369 -0.42554,1.18838 -1.03766,1.35238 -0.74688,0.20008 -1.51456,-0.24321 -1.7146,-0.99012 -0.15348,-0.57332 0.0712,-1.18109 0.56069,-1.51671 -0.65279,-1.26148 -2.06685,-2.32358 -3.05567,-2.05577 -1.06841,0.28938 -2.0499,1.01492 -2.0499,3.21063 0,2.19571 1.96484,5.9211 5.89398,5.89398 3.92914,-0.0271 5.89715,-3.14584 5.89715,-5.90727 3e-5,-34.46932 2e-5,-68.93794 16.35135,-92.56717 16.35132,-23.62923 49.05201,-36.41691 65.40334,-55.01381 16.35133,-18.59689 16.39597,-43.00131 16.35133,-67.406136 -0.0155,-8.449386 0.27847,-17.456526 -4,-19.999996 v 10 l -3.6,3.4e-4 v -10.00034 c -4.27848,2.54347 -3.98388,11.55061 -4,19.999996 -0.044,23.037806 0,46.075236 -15.16697,62.976506 z"
       sodipodi:nodetypes="ssssccsssssssccccss" />
    <path
       id="path49"
       style="fill:none;stroke:#ff0000;stroke-width:0.7;stroke-dasharray:none;stroke-opacity:1"
       d="m 207.05767,135.31668 c -15.16697,16.90127 -45.49909,27.66485 -60.66607,51.97975 -15.16697,24.31489 -15.16701,62.17893 -15.16697,100.04374 0,0.63369 -0.42554,1.18838 -1.03766,1.35238 -0.74688,0.20008 -1.51456,-0.24321 -1.7146,-0.99012 -0.15348,-0.57332 0.0712,-1.18109 0.56069,-1.51671 -0.65279,-1.26148 -2.06685,-2.32358 -3.05567,-2.05577 -1.06841,0.28938 -2.0499,1.01492 -2.0499,3.21063 0,2.19571 1.96484,5.9211 5.89398,5.89398 3.92914,-0.0271 5.89715,-3.14584 5.89715,-5.90727 3e-5,-34.46932 2e-5,-68.93794 16.35135,-92.56717 16.35132,-23.62923 49.05201,-36.41691 65.40334,-55.01381 16.35133,-18.59689 16.39597,-43.001313 16.35133,-67.406139 -0.0155,-8.449386 0.27847,-17.456526 -4,-19.999996 v 10 l -3.6,3.4e-4 v -10.00034 c -4.27848,2.54347 -3.98388,11.55061 -4,19.999996 -0.044,23.037806 0,46.075239 -15.16697,62.976509 z"
       sodipodi:nodetypes="ssssccsssssssccccss" />
  </g>
</svg>
