<?xml version="1.0" encoding="UTF-8" standalone="no"?>
<!-- Created with Inkscape (http://www.inkscape.org/) -->

<svg
   width="400mm"
   height="400mm"
   viewBox="0 0 400 400"
   version="1.1"
   id="svg1"
   sodipodi:docname="Top.svg"
   inkscape:version="1.4.2 (f4327f4, 2025-05-13)"
   xmlns:inkscape="http://www.inkscape.org/namespaces/inkscape"
   xmlns:sodipodi="http://sodipodi.sourceforge.net/DTD/sodipodi-0.dtd"
   xmlns="http://www.w3.org/2000/svg"
   xmlns:svg="http://www.w3.org/2000/svg">
  <sodipodi:namedview
     id="namedview1"
     pagecolor="#ffffff"
     bordercolor="#000000"
     borderopacity="0.25"
     inkscape:showpageshadow="2"
     inkscape:pageopacity="0.0"
     inkscape:pagecheckerboard="0"
     inkscape:deskcolor="#d1d1d1"
     inkscape:document-units="mm"
     inkscape:zoom="0.35355339"
     inkscape:cx="149.90664"
     inkscape:cy="592.55548"
     inkscape:window-width="2560"
     inkscape:window-height="1494"
     inkscape:window-x="-11"
     inkscape:window-y="-11"
     inkscape:window-maximized="1"
     inkscape:current-layer="layer1" />
  <defs
     id="defs1">
    <inkscape:path-effect
       effect="bspline"
       id="path-effect39"
       is_visible="true"
       lpeversion="1.3"
       weight="33.333333"
       steps="2"
       helper_size="0"
       apply_no_weight="true"
       apply_with_weight="true"
       only_selected="false"
       uniform="false" />
    <inkscape:path-effect
       effect="bspline"
       id="path-effect37"
       is_visible="true"
       lpeversion="1.3"
       weight="33.333333"
       steps="2"
       helper_size="0"
       apply_no_weight="true"
       apply_with_weight="true"
       only_selected="false"
       uniform="false" />
    <inkscape:path-effect
       effect="bspline"
       id="path-effect34"
       is_visible="true"
       lpeversion="1.3"
       weight="33.333333"
       steps="2"
       helper_size="0"
       apply_no_weight="true"
       apply_with_weight="true"
       only_selected="false"
       uniform="false" />
    <inkscape:path-effect
       effect="bspline"
       id="path-effect33"
       is_visible="true"
       lpeversion="1.3"
       weight="33.333333"
       steps="2"
       helper_size="0"
       apply_no_weight="true"
       apply_with_weight="true"
       only_selected="false"
       uniform="false" />
    <inkscape:path-effect
       effect="bspline"
       id="path-effect31"
       is_visible="true"
       lpeversion="1.3"
       weight="33.333333"
       steps="2"
       helper_size="0"
       apply_no_weight="true"
       apply_with_weight="true"
       only_selected="false"
       uniform="false" />
    <inkscape:path-effect
       effect="bspline"
       id="path-effect30"
       is_visible="true"
       lpeversion="1.3"
       weight="33.333333"
       steps="2"
       helper_size="0"
       apply_no_weight="true"
       apply_with_weight="true"
       only_selected="false"
       uniform="false" />
    <inkscape:path-effect
       effect="bspline"
       id="path-effect28"
       is_visible="true"
       lpeversion="1.3"
       weight="33.333333"
       steps="2"
       helper_size="0"
       apply_no_weight="true"
       apply_with_weight="true"
       only_selected="false"
       uniform="false" />
  </defs>
  <g
     inkscape:label="Layer 1"
     inkscape:groupmode="layer"
     id="layer1">
    <path
       id="path7"
       style="fill:none;stroke:#ff0000;stroke-width:0.176973;stroke-dasharray:none;stroke-opacity:1"
       d="m 379.68818,154.19859 c 1.49172,-0.68443 3.15565,-0.5029 4.12261,-0.12944 2.11388,0.81645 3.05475,2.3049 2.85126,4.21099 -0.13581,1.27224 -0.58046,2.94015 -3.11125,2.82242 1.51852,-3.03421 -1.77818,-4.1957 -2.19992,-1.62861 -0.0286,0.17412 -0.007,0.10387 -0.0252,0.27834 -0.33115,3.16329 -2.15541,6.00671 -4.94583,7.61775 -3.094,1.78633 -6.9059,1.78633 -9.99991,0 -3.094,-1.78633 -5.0002,-5.0878 -5.0002,-8.66045 -1e-5,-4.25471 1.64593,-8.70749 6.25802,-13.116 4.1669,-3.98299 5.24979,-7.46706 5.24979,-11.82408 4e-5,-0.63369 -0.42554,-1.18838 -1.03766,-1.35238 -0.74689,-0.20008 -1.51457,0.24321 -1.71461,0.99012 -0.15348,0.57332 0.0712,1.18109 0.56069,1.51671 -0.65279,1.26148 -1.54641,1.89376 -2.52949,1.60558 -1.46597,-0.42969 -1.89407,-1.55807 -1.77569,-2.78586 0.26501,-2.74868 2.2388,-5.00022 5.00022,-5.00022 2.76143,0 4.99968,2.26462 4.99968,5.02605 0,4.35702 -0.0789,8.17553 -4.74492,13.76814 -4.08733,4.89897 -5.26583,7.57869 -5.26582,11.17193 0,1.78633 0.95308,3.43733 2.5001,4.33049 1.54701,0.89316 3.45268,0.89317 4.99969,0 1.3014,-0.75135 2.15456,-2.10158 2.41356,-3.64798 0.5589,-3.33695 1.7254,-4.42751 3.39489,-5.1935 z"
       sodipodi:nodetypes="ssscsssssscsccsssssssssss" />
    <path
       style="fill:#17ff00;fill-opacity:1;stroke:#000000;stroke-width:0.591;stroke-dasharray:none;stroke-opacity:1"
       d="M -250,100 H 250"
       id="path9"
       sodipodi:nodetypes="cc" />
    <path
       style="fill:#17ff00;fill-opacity:1;stroke:#000000;stroke-width:0.591;stroke-dasharray:none;stroke-opacity:1"
       d="M -200,275 H 200"
       id="path10"
       sodipodi:nodetypes="cc" />
    <path
       style="fill:#17ff00;fill-opacity:1;stroke:#000000;stroke-width:0.591;stroke-dasharray:none;stroke-opacity:1"
       d="M -150,450 H 150"
       id="path11"
       sodipodi:nodetypes="cc" />
    <path
       style="display:none;fill:#17ff00;fill-opacity:1;stroke:#000000;stroke-width:0.591;stroke-dasharray:none;stroke-opacity:1"
       d="m 250,100 -25,87.5 -25,87.5 -25,87.49999 -25,87.5"
       id="path12"
       sodipodi:nodetypes="ccccc" />
    <path
       style="fill:#17ff00;stroke:#000000;stroke-width:0.591"
       d="m 372.88755,133.76951 h 3.50314"
       id="path3" />
    <path
       id="path4"
       style="fill:none;stroke:#ff0000;stroke-width:0.176973;stroke-dasharray:none;stroke-opacity:1"
       d="m 353.53989,117.99373 c 4e-5,-0.63369 -0.42554,-1.18838 -1.03766,-1.35238 -0.74689,-0.20008 -1.51457,0.24321 -1.71461,0.99012 -0.15348,0.57332 0.0712,1.18109 0.56069,1.51671 -0.65279,1.26148 -1.54641,1.89376 -2.52949,1.60558 -1.46597,-0.42969 -1.89407,-1.55807 -1.77569,-2.78586 0.26501,-2.74868 2.2388,-5.00022 5.00022,-5.00022 2.76143,0 4.99968,2.26462 4.99968,5.02605"
       sodipodi:nodetypes="csccsssc"
       inkscape:transform-center-x="0.10613762"
       inkscape:transform-center-y="-1.0985941" />
    <circle
       style="fill:none;stroke:#000000;stroke-width:0.191;stroke-dasharray:none"
       id="path5"
       cx="352.13989"
       cy="117.99373"
       r="1.4" />
    <path
       style="fill:none;stroke:#000000;stroke-width:0.191;stroke-dasharray:none"
       d="m 361.21781,114.64974 2.75228,0.36226"
       id="path6" />
    <path
       id="path8"
       style="fill:none;stroke:#ff0000;stroke-width:0.176973;stroke-dasharray:none;stroke-opacity:1"
       d="m 338.52102,123.27178 c 4e-5,0.63369 -0.42554,1.18838 -1.03766,1.35238 -0.74689,0.20008 -1.51457,-0.24321 -1.71461,-0.99012 -0.15348,-0.57332 0.0712,-1.18109 0.56069,-1.51671 -0.65279,-1.26148 -1.54641,-1.89376 -2.52949,-1.60558 -1.46597,0.42969 -1.89407,1.55807 -1.77569,2.78586 0.26501,2.74868 2.2388,5.00022 5.00022,5.00022 2.76143,0 4.99968,-2.26462 4.99968,-5.02605"
       sodipodi:nodetypes="csccsssc"
       inkscape:transform-center-x="0.10613762"
       inkscape:transform-center-y="1.0985968" />
    <path
       id="path14"
       style="fill:none;stroke:#ff0000;stroke-width:0.176973;stroke-dasharray:none;stroke-opacity:1"
       inkscape:transform-center-x="0.15049442"
       inkscape:transform-center-y="0.71458979"
       d="m 514.36637,204.21523 c -2.07604,0.0662 -3.89239,1.52733 -4.71495,3.61476 -0.45222,1.14761 -0.35179,2.35013 0.93896,3.16725 0.86556,0.54799 1.89851,0.18673 2.87372,-0.84594 -0.37801,-0.45755 -0.42652,-1.10351 -0.12092,-1.61231 0.39813,-0.66285 1.25852,-0.87775 1.92133,-0.47955 0.5432,0.32637 0.79886,0.97716 0.62477,1.58646 l -50.00005,174.99965 c -0.17409,0.60931 -0.73685,1.02498 -1.37046,1.0139 -0.77311,-0.0135 -1.38874,-0.6511 -1.37511,-1.42421 0.0105,-0.59342 0.39401,-1.11559 0.95705,-1.30328 -0.27979,-1.39255 -0.9646,-2.24673 -1.98903,-2.24069 -1.52762,0.009 -2.25015,0.97564 -2.47478,2.1885 -0.5029,2.71524 0.77376,5.42349 3.42821,6.18464 0.50277,0.14416 1.01003,0.20539 1.50699,0.19136 l -48.68282,170.39012 c -0.17409,0.60931 -0.73695,1.02483 -1.37056,1.01373 -0.77311,-0.0135 -1.38871,-0.6511 -1.37511,-1.42421 0.0105,-0.59342 0.39401,-1.1161 0.95705,-1.30379 -0.27979,-1.39255 -0.9646,-2.24617 -1.98903,-2.24017 -1.52762,0.009 -2.25015,0.97563 -2.47478,2.18849 -0.5029,2.71524 0.77376,5.42349 3.42821,6.18464 2.65446,0.76116 5.43283,-0.79819 6.19145,-3.45337 l 100,-349.99999 c 0.75862,-2.65518 -0.76601,-5.44829 -3.42046,-6.20944 -0.49771,-0.14272 -0.99059,-0.20184 -1.46968,-0.18655 z"
       sodipodi:nodetypes="ssscsssssscssscssscsssssss" />
    <path
       id="path1"
       style="fill:none;stroke:#ff0000;stroke-width:0.2;stroke-dasharray:none;stroke-opacity:1"
       d="m 288.05551,134.57294 c 4e-5,-0.63369 -0.42554,-1.18838 -1.03766,-1.35238 -0.74689,-0.20008 -1.51457,0.24321 -1.71461,0.99012 -0.15348,0.57332 0.0712,1.18109 0.56069,1.51671 -0.65279,1.26148 -2.06685,2.32358 -3.05567,2.05577 -1.06841,-0.28938 -2.0499,-1.01492 -2.0499,-3.21063 0,-2.19571 1.96484,-5.9211 5.89398,-5.89398 3.92914,0.0271 5.89714,3.14584 5.89714,5.90727"
       sodipodi:nodetypes="csccszzc"
       inkscape:transform-center-x="0.0015975781"
       inkscape:transform-center-y="-1.3213143" />
    <path
       style="fill:none;stroke:#000000;stroke-width:0.103069"
       d="m 288.0555,134.58582 h 4.49398"
       id="path13" />
    <circle
       style="fill:none;stroke:#000000;stroke-width:0.2;stroke-dasharray:none"
       id="circle13"
       cx="286.65552"
       cy="134.57294"
       r="1.4" />
    <path
       style="fill:none;stroke:#000000;stroke-width:0.103069"
       d="m 285.25234,134.57253 h -4.49398"
       id="path17"
       sodipodi:nodetypes="cc" />
    <path
       id="path20"
       style="fill:none;stroke:#ff0000;stroke-width:0.2;stroke-dasharray:none;stroke-opacity:1"
       d="m 287.86842,143.92737 c 4e-5,0.63369 -0.42554,1.18838 -1.03766,1.35238 -0.74689,0.20008 -1.51457,-0.24321 -1.71461,-0.99012 -0.15348,-0.57332 0.0712,-1.18109 0.56069,-1.51671 -0.65279,-1.26148 -2.06685,-2.32358 -3.05567,-2.05577 -1.06841,0.28938 -2.0499,1.01492 -2.0499,3.21063 0,2.19571 1.96484,5.9211 5.89398,5.89398 3.92914,-0.0271 5.89714,-3.14584 5.89714,-5.90727"
       sodipodi:nodetypes="csccszzc"
       inkscape:transform-center-x="0.0015975781"
       inkscape:transform-center-y="1.3213102" />
    <path
       id="path22"
       style="display:none;fill:none;stroke:#ff0000;stroke-width:0.2;stroke-dasharray:none;stroke-opacity:1"
       inkscape:transform-center-x="0.26990199"
       inkscape:transform-center-y="0.63568364"
       d="m 249.99663,94.105367 c -3.92914,-0.0271 -5.8937,3.698504 -5.8937,5.894214 0,2.195709 0.98159,2.921279 2.05,3.210659 0.98882,0.26781 2.40284,-0.79421 3.05563,-2.05569 -0.48949,-0.33562 -0.71417,-0.94338 -0.56069,-1.516704 0.20004,-0.74691 0.96774,-1.190201 1.71463,-0.990121 0.61212,0.164 1.03766,0.718693 1.03766,1.352375 v 1.33532 c 0,30.20561 -8.35102,59.83069 -16.56385,88.57547 -8.33345,29.16695 -18.8467,58.10256 -33.27755,85.14209 -0.1025,0.19206 -0.20516,0.38433 -0.308,0.57619 -0.0111,0.0221 -0.023,0.0438 -0.0351,0.0651 -0.29892,0.52409 -0.90336,0.80042 -1.49965,0.67696 -0.75717,-0.1568 -1.24359,-0.89803 -1.08675,-1.65519 0.12052,-0.58114 0.59427,-1.02336 1.18236,-1.10329 -0.0165,-1.42028 -0.80289,-3.00413 -1.80661,-3.20911 -1.08452,-0.22152 -2.28726,-0.0145 -3.2737,1.94717 -0.98644,1.96164 -0.90456,6.17275 2.61792,7.91373 0.3894,0.19246 0.77397,0.34045 1.15239,0.44803 -14.03109,25.74804 -28.88509,50.37225 -36.65151,77.55444 -8.33351,29.16694 -10.45005,60.18526 -10.45001,91.7329 0,0.63371 -0.42554,1.18837 -1.03766,1.35237 -0.74689,0.20008 -1.51459,-0.24321 -1.71463,-0.99012 -0.15348,-0.57332 0.0712,-1.18108 0.56069,-1.5167 -0.65279,-1.26148 -2.0668,-2.3235 -3.05562,-2.05569 -1.06841,0.28938 -2.05001,1.01495 -2.05001,3.21066 0,2.19571 1.96508,5.92082 5.89422,5.8937 3.92914,-0.0271 5.55777,-3.16666 5.89679,-5.89422 3.77888,-30.40269 8.23039,-60.73093 16.56385,-89.89787 8.07326,-28.25624 18.9693,-55.9941 32.72617,-82.29833 0.0302,-0.0555 0.0596,-0.11133 0.0879,-0.16744 0.41457,-0.7918 0.83222,-1.58169 1.25315,-2.37039 14.85376,-27.83196 30.58557,-54.88221 38.91907,-84.04914 8.3335,-29.16693 10.45001,-59.65612 10.45001,-91.20373 0,-2.761433 -1.96817,-5.880553 -5.89731,-5.907653 z" />
    <path
       d="m 312.5,212.5 -87.5,-25 -87.5,-25"
       style="display:none;fill:#17ff00;fill-opacity:1;stroke:#000000;stroke-width:0.591;stroke-dasharray:none;stroke-opacity:1"
       id="path1-8"
       sodipodi:nodetypes="ccc" />
    <path
       id="path34"
       style="fill:none;stroke:#000000;stroke-width:0.2"
       d="M 0 -33.200041 A 35 35 0 0 0 -15.917891 -29.370817 L -10.941451 -20.750671 L -14.05909 -18.950781 L -19.035531 -27.570927 A 35 35 0 0 0 -34.953939 0 L -25.000541 0 L -25.000541 3.5997803 L -34.953939 3.5997803 A 35 35 0 0 0 -19.035531 31.170707 L -14.05909 22.551078 L -10.941451 24.350968 L -15.917891 32.970597 A 35 35 0 0 0 0 36.799821 A 35 35 0 0 0 15.917891 32.970597 L 10.941451 24.350968 L 14.05909 22.551078 L 19.035531 31.170707 A 35 35 0 0 0 34.953939 3.5997803 L 25.000541 3.5997803 L 25.000541 0 L 34.953939 0 A 35 35 0 0 0 19.036047 -27.57041 L 14.05909 -18.950781 L 10.941451 -20.750671 L 15.917891 -29.370817 A 35 35 0 0 0 0 -33.200041 z " />
    <path
       id="path36"
       style="display:inline;fill:none;stroke:#ff0000;stroke-width:0.2;stroke-dasharray:none;stroke-opacity:1"
       inkscape:transform-center-x="-0.63568313"
       inkscape:transform-center-y="0.26989702"
       d="m -113.15946,136.51702 c -0.0271,3.92914 3.69851,5.8937 5.89422,5.8937 2.19571,0 2.92128,-0.98159 3.21066,-2.05 0.26781,-0.98882 -0.79421,-2.40284 -2.05569,-3.05563 -0.33562,0.48949 -0.94338,0.71417 -1.51671,0.56069 -0.74691,-0.20004 -1.1902,-0.96774 -0.99012,-1.71463 0.164,-0.61212 0.71869,-1.03766 1.35238,-1.03766 h 1.33532 c 30.205611,0 59.83069,8.35102 88.57547,16.56385 29.16695,8.33345 58.10256,18.8467 85.14209,33.27755 0.19206,0.1025 0.38433,0.20516 0.57619,0.308 0.0221,0.0111 0.0438,0.023 0.0651,0.0351 0.52409,0.29892 0.80042,0.90336 0.67696,1.49965 -0.1568,0.75717 -0.89803,1.24359 -1.65519,1.08675 -0.58114,-0.12052 -1.02336,-0.59427 -1.10329,-1.18236 -1.42028,0.0165 -3.00413,0.80289 -3.20911,1.80661 -0.22152,1.08452 -0.0145,2.28726 1.94717,3.2737 1.96164,0.98644 6.17275,0.90456 7.91373,-2.61792 0.19246,-0.3894 0.34045,-0.77397 0.44803,-1.15239 25.748041,14.03109 50.37225,28.88509 77.55444,36.65151 29.16694,8.33351 60.18526,10.45005 91.7329,10.45001 0.63371,0 1.18837,0.42554 1.35237,1.03766 0.20008,0.74689 -0.24321,1.51459 -0.99012,1.71463 -0.57332,0.15348 -1.18108,-0.0712 -1.5167,-0.56069 -1.26148,0.65279 -2.3235,2.0668 -2.05569,3.05562 0.28938,1.06841 1.01495,2.05001 3.21066,2.05001 2.19571,0 5.92082,-1.96508 5.8937,-5.89422 -0.0271,-3.92914 -3.16666,-5.55777 -5.89422,-5.89679 -30.40269,-3.77888 -60.73093,-8.23039 -89.89787,-16.56385 -28.25624,-8.07326 -55.994099,-18.9693 -82.29833,-32.72617 -0.0555,-0.0302 -0.11133,-0.0596 -0.16744,-0.0879 -0.7918,-0.41457 -1.58169,-0.83222 -2.37039,-1.25315 -27.83196,-14.85376 -54.88221,-30.58557 -84.049141,-38.91907 -29.166929,-8.3335 -59.656118,-10.45001 -91.203729,-10.45001 -2.76144,0 -5.88056,1.96817 -5.90766,5.89731 z" />
    <path
       id="path38"
       style="fill:none;stroke:#000000;stroke-width:0.2;stroke-dasharray:none"
       transform="translate(-1e-6,11.6)"
       d="m 97.9765,11.166971 c 16.90127,15.16697 27.66485,45.499091 51.97975,60.666062 24.31489,15.166971 62.17893,15.16701 100.04374,15.166971 0.63369,-10e-7 1.18838,0.42554 1.35238,1.03766 0.20008,0.746886 -0.24321,1.514566 -0.99012,1.714606 -0.57332,0.15348 -1.18109,-0.0712 -1.51671,-0.56069 -1.26148,0.65279 -2.32358,2.06685 -2.05577,3.05567 0.28938,1.06841 1.01492,2.0499 3.21063,2.0499 2.19571,0 5.9211,-1.96484 5.89398,-5.89398 -0.0271,-3.929139 -3.14584,-5.897152 -5.90727,-5.897154 C 215.51779,82.505987 181.04917,82.506 157.41994,66.154672 133.79071,49.803345 121.00303,17.102653 102.40613,0.75132629 83.809234,-15.6 59.404818,-15.644644 34.999999,-15.6 c -8.449392,0.01546 -17.456533,-0.278478 -19.999997,4 h 9.999999 l 3.33e-4,3.6 H 15.000001 c 2.543464,4.2784776 11.550607,3.9838725 19.999997,4 23.037804,0.043973 46.075234,0 62.976502,15.166971 z"
       sodipodi:nodetypes="ssssccsssssssccccss" />
  </g>
</svg>
