<?xml version="1.0" encoding="UTF-8" standalone="no"?>
<!-- Created with Inkscape (http://www.inkscape.org/) -->

<svg
   width="700mm"
   height="700mm"
   viewBox="0 0 700 700"
   version="1.1"
   id="svg4689"
   inkscape:version="1.4.2 (f4327f4, 2025-05-13)"
   sodipodi:docname="Welcome Sign Paths.svg"
   xmlns:inkscape="http://www.inkscape.org/namespaces/inkscape"
   xmlns:sodipodi="http://sodipodi.sourceforge.net/DTD/sodipodi-0.dtd"
   xmlns="http://www.w3.org/2000/svg"
   xmlns:svg="http://www.w3.org/2000/svg">
  <sodipodi:namedview
     id="namedview4691"
     pagecolor="#505050"
     bordercolor="#eeeeee"
     borderopacity="1"
     inkscape:pageshadow="0"
     inkscape:pageopacity="0"
     inkscape:pagecheckerboard="0"
     inkscape:document-units="mm"
     showgrid="false"
     inkscape:zoom="0.33540614"
     inkscape:cx="1147.8621"
     inkscape:cy="1471.3505"
     inkscape:window-width="2560"
     inkscape:window-height="1494"
     inkscape:window-x="-11"
     inkscape:window-y="-11"
     inkscape:window-maximized="1"
     inkscape:current-layer="layer1"
     inkscape:showpageshadow="2"
     inkscape:deskcolor="#d1d1d1" />
  <defs
     id="defs4686">
    <rect
       x="363.73812"
       y="763.25377"
       width="1705.3951"
       height="1210.4728"
       id="rect6097" />
    <rect
       x="363.73813"
       y="763.25378"
       width="1705.3951"
       height="1210.4728"
       id="rect6097-3" />
    <rect
       x="363.73813"
       y="763.25378"
       width="1705.3951"
       height="1210.4728"
       id="rect6097-3-0" />
  </defs>
  <g
     inkscape:label="Layer 1"
     inkscape:groupmode="layer"
     id="layer1">
    <g
       aria-label="Welkom"
       transform="matrix(0.62582174,0,0,0.62582174,-421.70839,-417.08132)"
       id="text6095"
       style="font-size:136.063px;line-height:1.25;font-family:'Neon Sans';-inkscape-font-specification:'Neon Sans';text-align:center;white-space:pre;shape-inside:url(#rect6097);fill:#ffffff"
       inkscape:label="text6095">
      <path
         id="path32989"
         style="font-family:'Catchland PERSONAL USE ONLY';-inkscape-font-specification:'Catchland PERSONAL USE ONLY';display:inline;stroke-width:1"
         d="m 1248.5007,742.95158 c -24.2008,0.78727 -52.0569,57.75086 -57.6695,100.48314 -0.024,0.18157 -0.041,0.35466 -0.064,0.53508 -5.3607,14.56903 -26.4253,31.11654 -45.2438,26.94958 -2.7213,-0.54425 -4.899,-2.31353 -6.6679,-4.6266 43.9484,-15.64726 51.2964,-56.19372 31.7034,-62.18049 -18.9128,-5.5786 -37.0095,9.38874 -48.5748,29.66213 -5.1628,8.93567 -7.8033,17.50817 -8.3862,25.20645 -5.5444,0.56683 -10.9165,0.007 -15.7947,-1.07428 23.9417,-39.67809 46.3495,-95.70008 91.5809,-99.38491 -14.1505,-16.05543 -42.3153,-15.51126 -62.1805,5.44243 -26.1241,27.34867 -49.3911,121.50365 -66.8071,109.66617 -12.7899,-8.57197 -11.293,-26.53188 9.3886,-56.60181 30.4781,-44.49261 3.8093,-58.6431 -13.1986,-28.70924 -9.3883,16.59969 -22.8587,49.66317 -27.6209,71.70538 -6.2589,11.0211 -12.1089,17.1433 -17.2793,13.60567 -18.36853,-12.38173 40.8189,-76.05852 21.498,-112.65946 -6.4885,-12.26269 -19.7223,-17.91058 -33.1839,-18.01429 -17.30776,-0.13334 -34.99241,8.89816 -39.20186,24.81753 -5.57858,20.68157 5.85056,35.91994 26.80426,30.06923 -5.03433,-20.27339 13.1984,-34.15129 22.8589,-25.3072 15.1029,13.74236 -37.41784,76.87535 -31.56713,105.04038 3.40157,15.78331 17.55211,22.45061 32.38293,18.50478 6.2589,-1.76883 12.2458,-6.93941 17.8244,-13.6065 4.8983,12.24567 17.6884,17.14414 30.7504,13.6065 10.0808,-2.73022 18.7322,-10.8517 26.8629,-21.64505 8.0488,1.17586 17.6611,0.21681 28.1849,-2.26253 3.4844,11.45733 13.1239,18.88297 27.085,18.88297 21.6165,0 37.8219,-12.38799 48.1265,-25.64245 1.6249,16.6857 9.1343,24.40077 19.4973,25.09829 7.159,0.50239 14.5198,-2.10547 21.5228,-8.27389 l -2.2022,7.32098 21.7697,-2.31289 8.7082,-28.30132 c 3.6737,0.68032 7.8915,1.22512 12.1095,0.40875 -6.1228,17.68818 -2.7215,34.69573 11.5652,35.23998 13.5368,0.54459 23.5098,-10.1677 30.6415,-22.56822 2.7036,6.51108 7.9093,11.61032 16.1646,13.99624 22.7226,6.66709 43.2678,-15.23927 51.1594,-38.09786 2.9896,-0.0427 5.6247,-0.16006 8.0171,-0.34103 -5.8151,18.77443 -11.8409,38.28275 -12.9154,41.97635 l 22.5864,-1.76872 c 1.3606,-5.1704 5.8503,-19.45669 11.2928,-36.46456 7.2113,-19.8652 14.1512,-25.85245 19.4577,-24.2197 8.8441,2.72126 -7.3478,29.79786 -18.641,62.45298 l 22.5863,-1.76872 c 3.9459,-17.55214 16.5996,-38.36937 21.906,-55.37725 3.8097,-5.30646 7.3476,-6.66764 10.477,-5.30701 7.3474,3.26551 -15.6472,31.02251 -14.6948,49.66314 0.4082,8.57197 5.8508,13.74275 14.831,13.74275 25.7159,0 37.6894,-28.43705 43.4041,-45.17279 -1.7688,-2.99339 -7.7557,-2.44922 -10.477,-1.90497 -4.8982,14.69481 -11.7012,23.94656 -20.001,24.08262 -4.6262,0.13607 -4.8984,-5.9866 -0.1362,-14.55857 7.8917,-14.42267 18.3684,-28.1649 14.5586,-39.04994 -3.2655,-9.66047 -18.5048,-11.4291 -35.6488,5.03452 0,-1.76882 -0.2713,-3.40176 -0.6795,-5.03452 -2.9935,-10.20472 -19.4571,-11.56544 -37.2813,6.667 l 4.3533,-14.15066 c -5.0344,-1.22457 -17.6882,0.40866 -23.2668,3.40204 0,0 -4.3549,14.03857 -7.9717,25.69777 -2.5614,0.39353 -5.4636,0.6361 -8.8998,0.69857 1.9049,-13.87842 -1.7681,-26.39662 -13.6056,-30.8867 -17.9603,-6.80315 -37.6898,6.53068 -49.2552,24.21888 -3.9486,6.1023 -6.8343,12.89419 -8.3631,19.61868 -5.188,12.72924 -13.552,24.48367 -20.8904,24.60202 -8.0276,0.13607 -10.6128,-7.2109 -10.3407,-16.19106 23.6751,-10.34078 34.1519,-29.79811 28.1651,-41.2274 -5.0343,-9.66049 -20.6816,-13.33445 -38.642,5.30618 8.8441,-28.70928 18.3689,-59.05142 22.8589,-73.4741 -5.1704,-1.0885 -17.8245,0.54471 -23.4031,3.40204 l -27.6473,91.91694 c -5.0322,14.65121 -11.9615,24.00831 -20.2471,24.00831 -5.8507,0 -10.8842,-4.62542 -13.4694,-11.70069 32.1108,-35.64851 68.167,-105.17711 44.2199,-112.25238 -1.5733,-0.46771 -3.1701,-0.66518 -4.7835,-0.61269 z m -11.9013,28.53913 c 0.9364,-0.0118 1.8306,0.24067 2.6704,0.7828 8.2998,5.30646 -11.5656,42.17996 -31.9751,67.62375 1.3797,-31.35828 18.255,-68.26755 29.3047,-68.40655 z m 120.6814,44.35943 c 1.6444,-0.0159 3.4254,0.38036 5.1262,1.18823 6.2589,2.85732 9.1155,10.20494 8.027,18.50478 -10.3408,-1.76882 -19.7285,-6.80335 -19.7285,-13.6065 0,-4.02237 2.9578,-6.05143 6.5753,-6.08651 z m -194.6147,1.86864 c 10.8851,0 -2.1762,27.89278 -27.6201,36.60081 -0.2721,-5.57859 1.0878,-11.9732 4.3533,-18.09604 4.7622,-8.57197 14.8309,-18.09659 23.2668,-18.50477 z m 123.2479,9.9683 c 1.4305,0.0226 2.6104,0.38951 3.4268,1.05282 6.9392,5.30645 -3.6737,24.08299 -26.9405,21.90598 6.4119,-16.69323 17.315,-23.05683 23.5137,-22.9588 z m 55.5391,3.77362 c 5.0343,8.57197 14.8305,13.74284 25.4434,15.64772 -4.7622,10.20473 -13.6057,18.36862 -22.858,16.5998 -11.8375,-2.44913 -10.0689,-19.72972 -2.5854,-32.24752 z" />
    </g>
    <path
       style="font-size:136.063px;line-height:1.25;font-family:'Catchland PERSONAL USE ONLY';-inkscape-font-specification:'Catchland PERSONAL USE ONLY';text-align:center;white-space:pre;fill:#ffffff"
       d="m 1061.1876,908.47807 c 45.8532,-6.25889 78.7805,-68.43969 95.5162,-115.65355 3.8098,24.62741 -7.0753,57.96284 -35.1042,101.91119 39.1861,-2.04094 52.5203,-65.58237 99.0538,-90.20977 -42.7238,39.7304 -49.799,91.84253 -17.416,91.84253 26.8044,0 43.4041,-34.69607 49.3908,-51.43182 -1.7688,-2.99338 -7.8916,-2.44913 -10.4768,-1.90488 -4.7622,14.55874 -14.967,30.34205 -26.8044,29.38961 -7.7556,-0.95244 -7.6196,-11.0211 2.177,-30.06992 18.7767,-36.0567 48.3023,-88.44096 11.8375,-93.0671 -1.4967,20.68158 -20.8177,43.81229 -52.9286,69.25607 7.0753,-21.63402 8.4359,-64.49386 -38.0976,-69.25607 19.457,37.1452 -40.5468,132.3893 -76.1953,135.65482 -23.9471,2.31307 -23.1307,-22.99465 -6.3949,-34.9682 13.3341,-9.66047 27.7568,-8.4359 37.6894,-2.85732 0,-34.28788 -30.342,-38.50583 -53.7449,-20.40945 -30.342,23.26677 -29.1175,88.71308 21.498,81.77386 z m 189.6719,-18.3685 c 20.5455,1.63276 34.6961,-28.43717 40.4107,-45.17292 -1.7688,-2.99338 -8.0277,-2.44913 -10.4768,-1.90488 -4.8983,14.6948 -12.2457,26.53229 -19.457,25.44378 -3.2655,-0.54425 -5.4425,-4.62614 -3.1295,-13.19811 2.4492,-9.38835 7.3474,-17.82425 17.28,-49.25481 -5.1704,-1.22456 -17.8242,0.40819 -23.4028,3.40158 0,0 -12.1096,39.32221 -14.2866,47.0778 -5.5786,19.59307 -0.6803,32.51906 13.062,33.60756 z m 15.2391,-126.67466 c 2.5852,1.76882 3.9458,3.94583 4.4901,5.98678 -22.1783,5.57858 -15.6473,29.52567 4.8982,23.67496 17.4161,-4.89827 15.7833,-34.83213 -9.3883,-29.66174 z m 33.3355,126.67466 c 15.5112,1.0885 31.9748,-12.38173 43.6762,-45.17292 -1.7688,-2.99338 -7.8917,-2.44913 -10.4768,-1.90488 -5.0344,14.6948 -11.9736,24.08315 -20.2734,24.08315 -5.8507,0 -10.8851,-4.62614 -13.4703,-11.70142 32.1109,-35.6485 68.1676,-105.1767 44.2205,-112.25197 -25.1717,-7.48347 -56.4661,54.28913 -62.4529,99.87024 -4.218,32.11087 4.6261,46.12536 18.7767,47.0778 z m -2.3131,-50.61544 c 1.4967,-34.01575 21.2258,-74.56252 31.9748,-67.62331 8.2999,5.30646 -11.5653,42.17953 -31.9748,67.62331 z m 46.9418,50.61544 c 8.4359,0 15.6472,-3.80976 23.675,-14.96693 1.2245,8.29984 5.5785,14.55874 13.8784,14.96693 18.2324,0.95244 33.7436,-23.40284 41.4992,-45.17292 -1.7688,-2.99338 -7.8917,-2.44913 -10.4768,-1.90488 -4.7623,14.55874 -11.8375,25.30772 -20.4095,25.44378 -3.2655,0 -4.4901,-3.40157 -2.177,-11.97354 2.5852,-9.38835 7.3474,-19.04882 17.28,-50.47938 -5.1704,-1.22456 -17.9603,0.40819 -23.4028,3.40158 l -1.3607,4.21795 c -2.0409,-5.17039 -5.9867,-8.02772 -11.7014,-8.02772 -10.4768,0 -28.029,8.16378 -40.2746,42.3156 -8.2999,23.26677 -1.6328,42.17953 13.4702,42.17953 z m 8.8441,-46.12536 c 5.5786,-15.23906 15.5112,-25.71591 20.8176,-23.5389 5.3065,2.17701 3.8098,8.29984 -0.4082,23.5389 l -2.9933,10.06866 c -3.9459,10.06867 -9.6605,16.1915 -15.2391,16.1915 -5.7146,0 -7.7556,-11.15717 -2.177,-26.26016 z"
       id="text6095-5"
       transform="matrix(0.62582174,0,0,0.62582174,-414.11655,90.56575)"
       aria-label="Mila" />
    <path
       style="fill:#ffffff;fill-opacity:1;stroke-width:3.09572"
       d="m 281.52763,543.63268 c -10.0937,-0.89158 -15.09289,-3.94986 -14.96435,-9.15449 0.0363,-1.46376 0.16437,-5.61009 0.28479,-9.21401 0.15572,-4.66097 -0.46192,-9.98131 -2.13964,-18.42928 -3.27527,-16.49215 -3.32719,-28.20851 -0.17676,-39.87613 2.2813,-8.4485 2.80005,-12.92887 1.58393,-13.68045 -0.36769,-0.22723 -3.35433,-0.0156 -6.63697,0.47266 -9.39312,1.39416 -13.84227,0.0656 -19.72403,-5.88967 -4.22016,-4.27291 -5.39749,-4.96269 -11.80715,-6.91776 -5.96447,-1.81929 -7.7769,-2.80518 -11.17102,-6.07668 -5.38865,-5.19397 -5.35515,-6.92556 0.34207,-17.68988 11.51385,-21.75417 33.58251,-50.56426 44.32165,-57.86082 1.58906,-1.07968 3.0776,-2.54439 3.30778,-3.25493 0.23034,-0.71053 -0.32318,-5.63091 -1.22984,-10.93417 -2.97031,-17.37451 -2.03441,-31.28907 2.95118,-43.87719 1.21837,-3.07629 2.09488,-6.90367 2.07809,-9.07418 -0.0278,-3.5635 -0.33862,-4.06329 -6.13596,-9.86068 -6.85839,-6.85836 -8.73252,-11.07895 -8.73252,-19.66579 0,-4.69192 -1.17137,-6.86921 -2.53626,-4.7143 -1.88067,2.96916 -0.7328,7.9202 4.08558,17.62242 7.08844,14.27319 8.01384,19.06208 5.21293,26.97636 l -1.42855,4.03655 -0.49557,-8.63442 c -0.32179,-5.60614 -1.14298,-10.57987 -2.34153,-14.18145 -2.19532,-6.59699 -3.02767,-6.62198 -1.66332,-0.0498 0.61449,2.9599 0.7694,7.18819 0.41802,11.40696 -0.33182,3.98295 -0.16904,9.36659 0.40095,13.26492 0.81253,5.55708 0.75833,7.36257 -0.35425,11.79698 -1.45177,5.78645 -4.8366,9.82606 -8.06833,9.62908 l -1.82998,-0.1114 1.8631,-0.35761 c 1.02468,-0.19658 2.41651,-1.2022 3.09289,-2.23449 1.7176,-2.62141 3.09553,-11.06153 2.20035,-13.47774 -0.69027,-1.86308 -0.84953,-1.74273 -3.25207,2.45724 -2.98728,5.22216 -5.42,8.50542 -4.63774,6.25923 0.80198,-2.30293 -0.83338,-1.64948 -2.36625,0.94543 -2.07056,3.50517 -1.73311,5.64789 1.37964,8.76063 3.00598,3.00599 2.62769,3.50805 -1.1654,1.54659 -1.95383,-1.01037 -2.3144,-1.02946 -1.9592,-0.10405 0.23929,0.62394 1.24309,1.5248 2.23047,2.00192 0.98731,0.47713 1.42653,0.89107 0.97603,0.91986 -2.29319,0.14673 -6.04158,-3.31618 -7.17867,-6.63172 -0.66929,-1.95153 -1.53939,-3.50109 -1.93356,-3.44347 -0.39419,0.0576 -2.09888,0.35076 -3.78824,0.65143 -3.19945,0.56938 -4.36762,-0.64397 -1.49711,-1.55505 3.96483,-1.25838 10.31212,-11.68747 8.7004,-14.29531 -0.2455,-0.39737 -2.62503,-0.52495 -5.28759,-0.28357 -2.66261,0.24146 -5.88759,0.16592 -7.16665,-0.16809 -2.31385,-0.60409 -2.30794,-0.61245 1.17716,-1.66529 4.90324,-1.48128 7.09656,-3.103 8.66402,-6.4062 1.58931,-3.34918 1.30843,-4.34112 -2.95715,-10.44329 -3.941,-5.6378 -4.73522,-11.33159 -2.7567,-19.762 1.83492,-7.81864 4.28115,-12.53082 8.90619,-17.1558 l 4.03023,-4.03025 -2.11816,-1.66615 c -3.85131,-3.02942 -1.99024,-6.85242 3.2633,-6.70351 1.94683,0.0553 4.04313,1.0848 6.99686,3.4366 2.31948,1.84678 4.54125,3.35782 4.93731,3.35782 0.39609,0 1.36153,-0.82932 2.14549,-1.84295 4.52846,-5.85504 11.5531,-11.89066 15.36985,-13.20585 11.99215,-4.13234 25.60292,-1.49752 35.71869,6.91456 2.08713,1.73559 5.77298,4.03194 8.19081,5.10295 2.41777,1.07103 4.94887,2.63435 5.62458,3.47409 1.18616,1.47391 1.15861,1.47851 -0.79655,0.13242 -3.1309,-2.15557 -3.22203,-1.74435 -0.71493,3.22606 1.28182,2.5412 2.33055,5.32664 2.33055,6.18991 0,3.81018 -2.0528,9.17063 -4.50947,11.77548 -2.54057,2.69379 -5.32384,3.95027 -3.94694,1.78184 0.35756,-0.56312 0.65573,-1.2696 0.66265,-1.56991 0.005,-0.30028 0.34805,-0.85321 0.75817,-1.22863 0.43321,-0.39657 0.49874,-0.25355 0.15634,0.34131 -0.32407,0.56311 -0.23776,1.02384 0.19162,1.02384 0.42945,0 0.799,-0.82931 0.82126,-1.84294 0.0215,-1.01359 0.26716,-3.13298 0.54446,-4.70968 0.49819,-2.83386 0.48443,-2.82543 -1.19669,0.73555 -0.93537,1.9813 -2.98432,5.02318 -4.55323,6.75975 -3.13642,3.47167 -3.43166,5.0955 -1.68605,9.27337 1.016,2.43161 1.01158,2.92033 -0.0343,3.78835 -0.66044,0.54813 -3.25856,3.91653 -5.77357,7.48535 -2.51501,3.56879 -5.11078,6.69519 -5.76842,6.94755 -0.65767,0.25231 -3.24159,-0.0318 -5.74216,-0.63182 -4.39673,-1.05476 -4.59669,-1.02855 -6.07381,0.79559 -2.88776,3.56622 -2.05461,5.65004 4.94834,12.37633 3.79466,3.64475 7.20429,7.76981 8.2354,9.96338 1.76916,3.76375 8.26214,9.06111 18.35886,14.97815 l 3.81066,2.23323 7.91506,-3.47132 c 12.08203,-5.29874 17.29783,-8.67838 24.00682,-15.55551 3.37872,-3.46339 7.34101,-7.11246 8.8051,-8.10909 l 2.66201,-1.81204 -0.69725,-18.74492 0.69725,-18.74496 -2.31928,1.33111 c -2.51682,1.44447 -5.05243,0.9911 -5.05243,-0.90337 0,-0.65208 1.47435,-2.76672 3.27631,-4.69915 1.80198,-1.93246 3.2763,-3.60473 3.2763,-3.71621 0,-0.11153 -1.70146,-0.95534 -3.78109,-1.87525 -9.11546,-4.03222 -21.84581,-15.63768 -28.79731,-26.25274 -1.91757,-2.92821 -4.63015,-8.27272 -6.0279,-11.87665 -8.74817,-22.55603 -5.23105,-43.45524 9.8496,-58.52763 9.60264,-9.5974 17.91689,-13.1417 30.82784,-13.1417 19.45824,0 36.0826,12.28245 42.68219,31.53449 2.01309,5.87258 2.24665,7.70019 2.2504,17.6102 0.003,9.79591 -0.24487,11.8067 -2.17894,17.62365 -5.30091,15.94354 -19.1778,32.82717 -33.56243,40.83465 -3.94181,2.19427 -7.16695,4.27351 -7.16695,4.62053 0,0.34699 1.4566,2.39357 3.23687,4.54798 1.78029,2.15437 3.04858,4.22173 2.81844,4.59411 -0.6298,1.01906 -3.19484,0.86239 -4.30014,-0.24294 -0.53308,-0.5331 -1.13375,-0.80476 -1.33476,-0.60374 -0.20092,0.20094 0.68975,4.53771 1.01392,10.036 0.71686,12.15921 0.24021,13.69135 -0.22602,20.51074 -0.28829,4.21669 0.59111,4.91853 1.55801,6.04068 3.63428,4.21803 3.25974,16.55854 -0.65232,19.1218 -1.91918,1.25748 -1.98983,2.12121 -1.73012,16.51448 l 0.29376,16.28059 0.47529,3.14484 c 0.49211,3.25615 3.26703,6.95582 3.84879,8.98306 0.79126,2.7574 2.40932,4.99479 6.42356,8.88232 2.95123,2.85805 6.42169,5.74589 7.71211,6.41739 3.35397,1.74527 11.06331,0.7465 14.61587,-1.8936 1.48267,-1.10184 3.98581,-2.83082 5.56253,-3.84227 1.57671,-1.01139 2.97577,-2.58845 3.10899,-3.50457 0.35935,-2.47148 -3.20963,-5.53365 -8.33108,-7.14803 -5.01928,-1.5822 -5.26826,-2.01595 -5.01655,-8.74018 0.41225,-11.01582 0.21235,-10.26551 3.07107,-11.52407 3.25371,-1.43242 3.6964,-3.24052 1.53093,-6.25276 -3.90477,-5.4317 -2.41592,-12.21463 3.39029,-15.44568 1.69272,-0.94192 2.88125,-1.90903 2.64121,-2.14904 -0.79464,-0.79466 11.67422,-2.40884 18.75978,-2.42855 11.76945,-0.0327 19.34358,3.29241 25.07406,11.00808 3.07623,4.14188 6.14159,5.10021 8.23712,2.57518 4.69273,-5.65436 15.02879,-4.38743 18.46823,2.26372 2.0765,4.0155 2.49824,12.81044 0.77416,16.14445 -0.76353,1.4765 -1.57523,2.4976 -1.80377,2.26907 -0.22847,-0.22847 -0.0186,-1.16 0.46994,-2.06995 1.21979,-2.27928 1.06031,-6.67462 -0.33146,-9.13386 -1.10251,-1.94814 -1.15487,-1.82864 -1.07642,2.45723 0.0455,2.4777 -0.19193,6.08417 -0.52704,8.01432 -0.41144,2.36903 -0.28573,3.89943 0.38665,4.70972 0.80599,0.97117 0.74023,1.20027 -0.3448,1.20027 -0.73753,0 -2.07132,-1.1979 -2.96401,-2.66198 -1.47748,-2.42322 -1.62334,-2.49189 -1.62612,-0.76523 -0.005,2.89533 1.49957,5.08749 4.2987,6.26442 l 2.53458,1.06571 -2.59625,0.57022 c -5.08096,1.11599 -11.6118,-2.8845 -11.6118,-7.11284 0,-1.41152 -0.38396,-1.5348 -3.26439,-1.04814 l -3.26438,0.5515 2.85484,-2.85486 c 2.13339,-2.13339 2.85486,-3.55395 2.85486,-5.62129 0,-3.27766 -1.96106,-6.40723 -4.01492,-6.40723 -2.65717,0 -3.93765,2.62132 -4.45824,9.1269 -0.44188,5.52179 -0.30277,6.51196 1.17877,8.39555 1.21156,1.54025 1.36636,2.13542 0.55549,2.13542 -0.61835,0 -1.56041,-0.43614 -2.09351,-0.96923 -1.17539,-1.17539 -2.22813,-0.36087 -1.3565,1.04949 1.29336,2.09271 1.69422,11.1993 0.54363,12.34988 -0.51956,0.51958 -1.16749,-0.15384 -1.85175,-1.92484 -1.01143,-2.61778 -1.06428,-2.64417 -1.35489,-0.67634 -0.62319,4.22001 -1.12667,5.73353 -1.90708,5.73353 -0.44193,0 -0.80351,-0.71542 -0.80351,-1.58981 0,-0.87439 -0.36859,-1.81761 -0.81908,-2.09603 -0.49056,-0.30306 -0.82409,0.74499 -0.8316,2.61368 -0.005,1.71591 -0.40531,3.67273 -0.88535,4.34849 -0.66144,0.93115 -0.74245,0.6337 -0.33445,-1.22863 l 0.53833,-2.45724 -2.3598,2.25246 c -2.71492,2.59141 -5.46173,3.23586 -3.2162,0.75459 1.47029,-1.62466 1.81101,-4.67654 0.60527,-5.42175 -0.41264,-0.25506 -1.85863,0.6447 -3.2133,1.99936 -2.58721,2.5872 -4.86415,3.05655 -7.63488,1.57369 -1.42754,-0.76398 -1.59638,-0.6774 -1.19765,0.61428 1.83851,5.95568 2.91608,12.51364 3.23905,19.71242 l 0.37596,8.3798 6.02392,6.50067 c 3.31317,3.57534 8.27326,10.12487 11.02243,14.5544 5.65664,9.11418 14.56815,25.25309 15.41169,27.91073 0.77107,2.42951 -1.82845,4.85667 -6.44717,6.01969 -2.38042,0.59938 -5.29348,2.33934 -8.25421,4.93021 -4.83391,4.23004 -5.11327,4.30605 -14.77941,4.02104 -6.7122,-0.19781 -7.86123,3.46391 -3.26586,10.408 4.2663,6.44682 5.50076,11.87425 6.29169,27.66205 0.40626,8.10887 0.82675,16.19816 0.93445,17.97622 0.17213,2.83859 -0.13242,3.45537 -2.49609,5.05776 -4.07689,2.76391 -9.83788,3.71984 -16.62054,2.75785 -8.91068,-1.26376 -12.28397,-3.50859 -12.50834,-8.324 -0.11947,-2.56518 0.0249,-2.68461 4.79123,-3.96805 5.47578,-1.4744 9.43203,-3.35034 10.96744,-5.20042 1.38067,-1.66361 -2.53311,-15.74637 -8.67707,-31.22225 -5.71428,-14.39355 -6.07225,-14.81167 -11.65609,-13.61414 -7.47719,1.60358 -10.16391,1.22692 -13.978,-1.95966 -2.79748,-2.33725 -4.10778,-2.86677 -7.09351,-2.86677 -7.44236,0 -8.14954,-2.01681 -5.1187,-14.59829 4.53634,-18.83085 10.233,-36.16969 13.60396,-41.40608 1.69496,-2.63293 5.45696,-11.84916 4.91198,-12.03348 -0.0882,-0.0309 -2.38395,-0.16562 -5.10133,-0.30183 -6.81855,-0.34153 -10.59468,-2.51848 -17.41372,-10.03906 -3.18123,-3.50854 -5.95556,-6.19862 -6.16518,-5.978 -0.30679,0.32296 -1.24112,15.21949 -1.351,21.54077 -0.0156,0.81494 -0.39435,1.25392 -0.84486,0.97551 -0.4611,-0.28511 -1.6279,-3.92416 -1.68179,-9.31506 0,0 -2.13753,1.26367 -2.85796,0.54324 -0.24455,-0.24458 0.37887,-4.02915 1.38527,-8.41039 l 1.82985,-7.96583 -1.9849,-1.49721 c -1.83925,-1.38732 -1.99683,-2.0839 -2.14709,-9.49297 -0.14578,-7.19349 0.0413,-8.34297 1.86535,-11.45547 1.11512,-1.90287 1.86645,-3.69551 2.52177,-4.2394 0.95354,-0.79139 1.19152,-3.6582 1.19152,-14.35502 0,-7.35139 -0.33235,-13.57158 -0.73858,-13.82265 -1.25829,-0.77769 -8.38588,3.68489 -18.11924,11.02498 -16.49069,12.43597 -22.60926,14.50121 -31.22781,10.54066 l -3.68582,-1.69381 -0.2684,1.65682 c -0.14768,0.91124 1.2431,4.15836 3.09044,7.21579 8.1597,13.50479 17.57764,42.37609 23.35778,71.6047 3.18113,16.08608 3.1501,16.20414 -4.63556,17.63724 -2.56638,0.47238 -6.53607,1.80644 -8.82149,2.96457 -4.00697,2.03045 -4.50563,2.08588 -13.96382,1.55135 -8.06395,-0.45574 -10.75781,-0.29751 -15.14602,0.89047 -5.88603,1.59329 -5.86507,1.57399 -8.03514,7.40085 -4.46188,11.98056 -4.91389,14.83656 -4.99096,31.5345 -0.11648,25.24903 1.7389,28.85459 17.45672,33.92252 4.77402,1.53928 10.07223,3.05682 11.7738,3.37225 6.88991,1.27721 6.13944,8.06449 -1.13796,10.2915 -3.70067,1.13244 -21.90777,2.0867 -28.57585,1.4977 z m -48.99555,-263.7378 c -0.14337,-4.53732 0.14088,-10.12067 0.6313,-12.40749 1.246,-5.80997 0.42452,-5.88375 -1.29379,-0.11612 -1.43915,4.83045 -1.86979,14.41367 -0.8333,18.54336 1.13056,4.50458 1.74938,2.01429 1.49579,-6.01968 z"
       id="path1"
       sodipodi:nodetypes="scsssscssssscsscssssscssscsscccssssssscscsssssscssssscscsssssscssssscsssccsssssscsssscssscccssssssssssccsssssssscsscsssssssscsssssscssscsccssscscssscsssssssssssssscsscssssssscsssssssscsssssssssssccsscccsscscssssssccssssscsssssssssssss" />
  </g>
</svg>
