<?xml version="1.0" encoding="UTF-8" standalone="no"?>
<!-- Created with Inkscape (http://www.inkscape.org/) -->

<svg
   width="700mm"
   height="700mm"
   viewBox="0 0 700 700"
   version="1.1"
   id="svg4689"
   inkscape:version="1.1 (c68e22c387, 2021-05-23)"
   sodipodi:docname="Welkomsbord_Paths.svg"
   xmlns:inkscape="http://www.inkscape.org/namespaces/inkscape"
   xmlns:sodipodi="http://sodipodi.sourceforge.net/DTD/sodipodi-0.dtd"
   xmlns="http://www.w3.org/2000/svg"
   xmlns:svg="http://www.w3.org/2000/svg">
  <sodipodi:namedview
     id="namedview4691"
     pagecolor="#505050"
     bordercolor="#eeeeee"
     borderopacity="1"
     inkscape:pageshadow="0"
     inkscape:pageopacity="0"
     inkscape:pagecheckerboard="0"
     inkscape:document-units="mm"
     showgrid="false"
     inkscape:zoom="0.16770307"
     inkscape:cx="512.81112"
     inkscape:cy="1279.0464"
     inkscape:window-width="1920"
     inkscape:window-height="1017"
     inkscape:window-x="-8"
     inkscape:window-y="-8"
     inkscape:window-maximized="1"
     inkscape:current-layer="layer1" />
  <defs
     id="defs4686">
    <rect
       x="363.73812"
       y="763.25377"
       width="1705.3951"
       height="1210.4728"
       id="rect6097" />
    <rect
       x="363.73813"
       y="763.25378"
       width="1705.3951"
       height="1210.4728"
       id="rect6097-3" />
  </defs>
  <g
     inkscape:label="Layer 1"
     inkscape:groupmode="layer"
     id="layer1">
    <rect
       style="fill:#929f73;fill-opacity:1;stroke:none;stroke-width:0.499999;stroke-linecap:square"
       id="rect18027"
       width="700"
       height="700"
       x="0"
       y="0" />
    <g
       aria-label="Welkom"
       transform="matrix(0.62582174,0,0,0.62582174,-422.49723,-374.48371)"
       id="text6095"
       style="font-size:136.063px;line-height:1.25;font-family:'Neon Sans';-inkscape-font-specification:'Neon Sans';text-align:center;white-space:pre;shape-inside:url(#rect6097);fill:#ffffff"
       inkscape:label="text6095">
      <path
         id="path32989"
         style="font-family:'Catchland PERSONAL USE ONLY';-inkscape-font-specification:'Catchland PERSONAL USE ONLY';display:inline;stroke-width:1"
         d="m 1248.5007,742.95158 c -24.2008,0.78727 -52.0569,57.75086 -57.6695,100.48314 -0.024,0.18157 -0.041,0.35466 -0.064,0.53508 -5.3607,14.56903 -26.4253,31.11654 -45.2438,26.94958 -2.7213,-0.54425 -4.899,-2.31353 -6.6679,-4.6266 43.9484,-15.64726 51.2964,-56.19372 31.7034,-62.18049 -18.9128,-5.5786 -37.0095,9.38874 -48.5748,29.66213 -5.1628,8.93567 -7.8033,17.50817 -8.3862,25.20645 -5.5444,0.56683 -10.9165,0.007 -15.7947,-1.07428 23.9417,-39.67809 46.3495,-95.70008 91.5809,-99.38491 -14.1505,-16.05543 -42.3153,-15.51126 -62.1805,5.44243 -26.1241,27.34867 -49.3911,121.50365 -66.8071,109.66617 -12.7899,-8.57197 -11.293,-26.53188 9.3886,-56.60181 30.4781,-44.49261 3.8093,-58.6431 -13.1986,-28.70924 -9.3883,16.59969 -22.8587,49.66317 -27.6209,71.70538 -6.2589,11.0211 -12.1089,17.1433 -17.2793,13.60567 -18.36853,-12.38173 40.8189,-76.05852 21.498,-112.65946 -6.4885,-12.26269 -19.7223,-17.91058 -33.1839,-18.01429 -17.30776,-0.13334 -34.99241,8.89816 -39.20186,24.81753 -5.57858,20.68157 5.85056,35.91994 26.80426,30.06923 -5.03433,-20.27339 13.1984,-34.15129 22.8589,-25.3072 15.1029,13.74236 -37.41784,76.87535 -31.56713,105.04038 3.40157,15.78331 17.55211,22.45061 32.38293,18.50478 6.2589,-1.76883 12.2458,-6.93941 17.8244,-13.6065 4.8983,12.24567 17.6884,17.14414 30.7504,13.6065 10.0808,-2.73022 18.7322,-10.8517 26.8629,-21.64505 8.0488,1.17586 17.6611,0.21681 28.1849,-2.26253 3.4844,11.45733 13.1239,18.88297 27.085,18.88297 21.6165,0 37.8219,-12.38799 48.1265,-25.64245 1.6249,16.6857 9.1343,24.40077 19.4973,25.09829 7.159,0.50239 14.5198,-2.10547 21.5228,-8.27389 l -2.2022,7.32098 21.7697,-2.31289 8.7082,-28.30132 c 3.6737,0.68032 7.8915,1.22512 12.1095,0.40875 -6.1228,17.68818 -2.7215,34.69573 11.5652,35.23998 13.5368,0.54459 23.5098,-10.1677 30.6415,-22.56822 2.7036,6.51108 7.9093,11.61032 16.1646,13.99624 22.7226,6.66709 43.2678,-15.23927 51.1594,-38.09786 2.9896,-0.0427 5.6247,-0.16006 8.0171,-0.34103 -5.8151,18.77443 -11.8409,38.28275 -12.9154,41.97635 l 22.5864,-1.76872 c 1.3606,-5.1704 5.8503,-19.45669 11.2928,-36.46456 7.2113,-19.8652 14.1512,-25.85245 19.4577,-24.2197 8.8441,2.72126 -7.3478,29.79786 -18.641,62.45298 l 22.5863,-1.76872 c 3.9459,-17.55214 16.5996,-38.36937 21.906,-55.37725 3.8097,-5.30646 7.3476,-6.66764 10.477,-5.30701 7.3474,3.26551 -15.6472,31.02251 -14.6948,49.66314 0.4082,8.57197 5.8508,13.74275 14.831,13.74275 25.7159,0 37.6894,-28.43705 43.4041,-45.17279 -1.7688,-2.99339 -7.7557,-2.44922 -10.477,-1.90497 -4.8982,14.69481 -11.7012,23.94656 -20.001,24.08262 -4.6262,0.13607 -4.8984,-5.9866 -0.1362,-14.55857 7.8917,-14.42267 18.3684,-28.1649 14.5586,-39.04994 -3.2655,-9.66047 -18.5048,-11.4291 -35.6488,5.03452 0,-1.76882 -0.2713,-3.40176 -0.6795,-5.03452 -2.9935,-10.20472 -19.4571,-11.56544 -37.2813,6.667 l 4.3533,-14.15066 c -5.0344,-1.22457 -17.6882,0.40866 -23.2668,3.40204 0,0 -4.3549,14.03857 -7.9717,25.69777 -2.5614,0.39353 -5.4636,0.6361 -8.8998,0.69857 1.9049,-13.87842 -1.7681,-26.39662 -13.6056,-30.8867 -17.9603,-6.80315 -37.6898,6.53068 -49.2552,24.21888 -3.9486,6.1023 -6.8343,12.89419 -8.3631,19.61868 -5.188,12.72924 -13.552,24.48367 -20.8904,24.60202 -8.0276,0.13607 -10.6128,-7.2109 -10.3407,-16.19106 23.6751,-10.34078 34.1519,-29.79811 28.1651,-41.2274 -5.0343,-9.66049 -20.6816,-13.33445 -38.642,5.30618 8.8441,-28.70928 18.3689,-59.05142 22.8589,-73.4741 -5.1704,-1.0885 -17.8245,0.54471 -23.4031,3.40204 l -27.6473,91.91694 c -5.0322,14.65121 -11.9615,24.00831 -20.2471,24.00831 -5.8507,0 -10.8842,-4.62542 -13.4694,-11.70069 32.1108,-35.64851 68.167,-105.17711 44.2199,-112.25238 -1.5733,-0.46771 -3.1701,-0.66518 -4.7835,-0.61269 z m -11.9013,28.53913 c 0.9364,-0.0118 1.8306,0.24067 2.6704,0.7828 8.2998,5.30646 -11.5656,42.17996 -31.9751,67.62375 1.3797,-31.35828 18.255,-68.26755 29.3047,-68.40655 z m 120.6814,44.35943 c 1.6444,-0.0159 3.4254,0.38036 5.1262,1.18823 6.2589,2.85732 9.1155,10.20494 8.027,18.50478 -10.3408,-1.76882 -19.7285,-6.80335 -19.7285,-13.6065 0,-4.02237 2.9578,-6.05143 6.5753,-6.08651 z m -194.6147,1.86864 c 10.8851,0 -2.1762,27.89278 -27.6201,36.60081 -0.2721,-5.57859 1.0878,-11.9732 4.3533,-18.09604 4.7622,-8.57197 14.8309,-18.09659 23.2668,-18.50477 z m 123.2479,9.9683 c 1.4305,0.0226 2.6104,0.38951 3.4268,1.05282 6.9392,5.30645 -3.6737,24.08299 -26.9405,21.90598 6.4119,-16.69323 17.315,-23.05683 23.5137,-22.9588 z m 55.5391,3.77362 c 5.0343,8.57197 14.8305,13.74284 25.4434,15.64772 -4.7622,10.20473 -13.6057,18.36862 -22.858,16.5998 -11.8375,-2.44913 -10.0689,-19.72972 -2.5854,-32.24752 z" />
    </g>
    <g
       aria-label="Marie"
       transform="matrix(0.62582174,0,0,0.62582174,-414.31315,40.415585)"
       id="text6095-5"
       style="font-size:136.063px;line-height:1.25;font-family:'Neon Sans';-inkscape-font-specification:'Neon Sans';text-align:center;white-space:pre;shape-inside:url(#rect6097-3);fill:#ffffff">
      <path
         id="path31383"
         style="font-family:'Catchland PERSONAL USE ONLY';-inkscape-font-specification:'Catchland PERSONAL USE ONLY';stroke-width:2.36531"
         d="m 1025.3926,1925.9941 c 46.0218,87.86 -95.90486,313.1413 -180.22463,320.8653 -56.64226,5.4711 -54.71232,-54.3879 -15.12695,-82.709 31.53928,-22.85 65.65475,-19.9548 89.14843,-6.7598 0,-81.1014 -71.76797,-91.077 -127.12304,-48.2734 -71.76837,55.0331 -68.87363,209.8333 50.84765,193.4199 108.45706,-14.8042 186.34064,-161.8812 225.92574,-273.5566 9.0114,58.2514 -16.7339,137.0993 -83.03121,241.0507 92.68751,-4.8274 124.22681,-155.1215 234.29301,-213.373 -101.0551,93.9747 -117.791,217.2363 -41.1954,217.2363 33.724,0 60.6172,-23.2211 80.5372,-50.916 4.7636,22.0493 18.5152,36.1113 38.541,36.1113 19.9535,0 37.01,-9.0121 55.998,-35.4023 2.8966,19.6317 13.1946,34.4368 32.8262,35.4023 43.1255,2.2529 79.8157,-55.3546 98.1602,-106.8476 5.1492,-13.5169 9.9761,-31.54 12.5507,-46.666 9.655,4.5056 21.2398,5.7923 33.791,3.8613 -55.9984,69.5155 -54.3893,149.6523 0,149.6523 24.1793,0 46.6231,-16.4424 64.8555,-37.8437 2.2068,22.3826 14.53,36.1527 35.8789,37.8437 26.2489,2.0861 48.0743,-17.7158 64.7363,-42.5976 8.4188,26.7084 31.2514,43.8848 63.9942,43.8848 78.205,0 126.48,-68.5496 140.6406,-108.1348 -4.184,-7.0803 -18.6664,-5.7932 -24.7812,-4.5059 -11.9077,34.7578 -62.4339,74.9866 -107.4903,65.0098 -6.4367,-1.2873 -11.5857,-5.4703 -15.7695,-10.9414 103.9514,-37.0106 121.3299,-132.9176 74.9863,-147.0781 -44.7346,-13.1951 -87.539,22.2073 -114.8945,70.1601 -7.4368,12.8714 -12.7055,25.4441 -16.0098,37.4238 -11.2334,27.6244 -26.0436,47.8093 -40.6308,45.6075 -7.7239,-1.2874 -12.8733,-10.9415 -7.4024,-31.2168 5.7931,-22.2064 17.3774,-42.1609 40.8711,-116.5039 -12.2296,-2.8965 -42.1584,0.9666 -55.3535,8.0468 0,0 -16.7403,54.3653 -26.9199,88.1504 -9.8651,21.8894 -29.6248,45.4102 -52.8945,45.4102 -37.9761,0 -16.0913,-71.7689 35.08,-121.9746 -5.7931,-9.0113 -25.7461,-30.5742 -25.7461,-30.5742 -19.9535,21.2408 -53.1033,25.1017 -65.9765,6.4355 l -26.711,25.4258 c 2.5747,17.057 -2.5745,44.0909 -11.5859,66.6191 -11.2641,34.436 -27.9999,59.8598 -48.2754,60.1817 -7.7239,0 -10.6196,-8.045 -5.1484,-28.3203 6.1148,-22.2064 17.3774,-45.0574 40.8711,-119.4004 -12.2296,-2.8965 -42.4803,0.9666 -55.3536,8.0468 l -3.2187,9.9766 c -4.8276,-12.2296 -14.1607,-18.9883 -27.6777,-18.9883 -24.7809,0 -66.2969,19.3102 -95.2618,100.0899 -0.7107,1.9924 -1.3617,3.9659 -1.9804,5.9297 -12.7632,28.4121 -33.3309,53.8715 -56.5918,52 -18.3444,-2.2529 -18.0236,-26.0687 5.1484,-71.125 44.4127,-85.2853 114.2489,-209.1906 27.9981,-220.1329 -3.54,48.9184 -49.2392,103.6301 -125.1914,163.8125 16.7352,-51.1711 19.9529,-152.5484 -90.1133,-163.8125 z m 655.6367,32.0567 c -3.9769,0.01 -8.288,0.4586 -12.9395,1.414 6.1148,4.1839 9.3337,9.3327 10.6211,14.1602 -52.4585,13.1951 -37.0125,69.8387 11.584,56 37.9762,-10.6808 37.6615,-71.6885 -9.2656,-71.5742 z m 128.666,128.8594 c 25.7464,0 -5.1495,65.975 -65.332,86.5722 -0.6436,-13.1951 2.5749,-28.3203 10.2988,-42.8027 11.2641,-20.2754 35.0797,-42.8041 55.0332,-43.7695 z m -445.3535,6.7265 c 1.3515,-0.028 2.6241,0.1931 3.8008,0.6758 12.5513,5.1493 9.0118,19.6307 -0.9649,55.6758 l -7.08,23.8164 c -9.3331,23.8155 -22.8498,38.2969 -36.045,38.2969 -13.5168,0 -18.3455,-26.39 -5.1504,-62.1133 11.9581,-32.6659 32.3746,-56.081 45.4395,-56.3516 z"
         transform="matrix(0.42277747,0,0,0.42277747,662.03074,-64.57993)" />
    </g>
    <path
       style="fill:#ffffff;fill-opacity:1;stroke-width:1.07781"
       d="m 466.45982,492.05707 c -11.16934,-4.36992 -23.2341,-15.64711 -29.05631,-27.15951 -4.40857,-8.7171 -5.48458,-19.01139 -2.73866,-26.20136 4.73356,-12.39464 32.75507,-30.68224 57.22324,-37.34543 4.74237,-1.29143 8.79608,-2.50714 9.00819,-2.70158 0.21219,-0.19431 -2.71569,-1.75968 -6.50622,-3.47838 -6.38499,-2.8951 -8.19667,-3.17944 -24.63646,-3.86677 -26.13812,-1.09278 -28.50443,-0.43149 -66.86514,18.68632 -23.26162,11.59288 -31.44877,14.86801 -43.57171,17.43031 -7.46792,1.57836 -37.37254,1.89244 -55.06102,0.57821 -11.80178,-0.87682 -11.9881,-0.85434 -15.18133,1.83261 -1.77809,1.49614 -4.16158,2.74746 -5.29665,2.78065 -1.13507,0.0325 -4.0038,0.32346 -6.37502,0.6454 -2.3712,0.32181 -5.52441,0.72207 -7.0071,0.88963 -1.48269,0.16748 -3.75464,0.87123 -5.04876,1.56383 -2.83076,1.51499 -5.72808,1.64132 -5.72808,0.24973 0,-1.39608 -14.02382,3.58105 -38.26248,13.57944 l -20.47849,8.44742 -14.55054,0.24484 c -14.77688,0.24848 -14.95303,0.16529 -6.57236,-3.10884 4.10268,-1.60281 1.35843,-2.92308 -6.81442,-3.27846 -4.76366,-0.20698 -7.61968,-0.81119 -7.90398,-1.67163 -0.32142,-0.97286 1.45184,-1.3898 6.38096,-1.50024 5.92623,-0.13287 6.25782,-0.23951 2.51493,-0.80837 -5.65597,-0.85983 -3.86419,-1.82894 5.10827,-2.76293 3.9952,-0.41589 7.54019,-1.20312 7.8778,-1.7494 0.3377,-0.54626 4.29436,-0.99323 8.79279,-0.99323 7.10204,0 9.99576,-0.67406 21.97806,-5.1196 13.21215,-4.90187 13.81291,-5.25721 14.12216,-8.35308 0.19191,-1.9217 -0.33281,-3.74945 -1.29376,-4.50537 -1.38958,-1.09324 -1.09492,-1.81243 2.09761,-5.11962 2.04289,-2.11627 3.13418,-3.84772 2.42511,-3.84772 -2.33083,0 -1.3458,-4.22455 1.40529,-6.0271 1.482,-0.97102 2.69457,-2.3854 2.69457,-3.14297 0,-0.75761 0.83515,-1.69798 1.85593,-2.0897 1.49898,-0.57519 1.57244,-0.88738 0.3817,-1.62321 -0.97678,-0.6037 -1.17601,-1.58416 -0.59057,-2.90605 0.48601,-1.09719 0.92044,-3.43816 0.96545,-5.20208 0.1239,-4.84905 3.89041,-6.2513 13.18333,-4.90786 9.54377,1.37973 13.60559,1.3897 12.76607,0.0325 -0.36623,-0.59279 -2.27565,-1.07781 -4.24291,-1.07781 -4.60972,0 -6.615,-2.21914 -4.90033,-5.42304 1.05556,-1.97231 0.88939,-2.57687 -1.08937,-3.9628 -1.75806,-1.23143 -2.16724,-2.30344 -1.65634,-4.33904 0.50331,-2.0054 0.10788,-3.10318 -1.53042,-4.25079 -1.21493,-0.851 -2.20895,-2.73228 -2.20895,-4.18067 0,-1.80488 -0.60269,-2.6334 -1.91561,-2.6334 -3.42361,0 -11.69402,-10.69576 -10.55849,-13.65485 0.29574,-0.77094 -0.45971,-1.93561 -1.67895,-2.58809 l -2.21684,-1.18637 2.35385,-2.50554 2.3538,-2.50554 -2.2525,-2.25251 c -1.23889,-1.23886 -3.1939,-2.2525 -4.34454,-2.2525 -2.47876,0 -3.73384,-1.69551 -3.98922,-5.38907 -0.34708,-5.01722 -0.92032,-7.0031 -2.27184,-7.86773 -2.0557,-1.31513 -1.61302,-3.53989 1.07784,-5.41701 l 2.42509,-1.6916 -2.90039,-0.0565 c -3.70633,-0.0722 -5.00007,-2.12582 -2.49383,-3.95843 1.81093,-1.32417 1.74506,-1.49371 -0.98331,-2.53102 -1.60834,-0.61153 -3.28495,-1.11185 -3.7259,-1.11185 -0.44089,0 -1.71525,-0.66806 -2.83183,-1.48454 -1.90842,-1.39546 -1.77896,-1.61342 2.15846,-3.63346 3.76565,-1.9319 3.95887,-2.22183 1.91304,-2.87113 -4.09169,-1.29868 -8.0347,-5.03098 -6.83811,-6.47276 0.79611,-0.9593 -0.19845,-1.93159 -3.73176,-3.64822 -5.15914,-2.50648 -5.94177,-3.85102 -2.93105,-5.03541 1.54128,-0.6063 1.14711,-1.12478 -2.15563,-2.83555 -4.33569,-2.24585 -5.14165,-3.82744 -2.23623,-4.38821 1.16131,-0.22406 -0.6457,-1.86142 -5.06418,-4.58842 -3.77832,-2.33196 -6.33201,-4.41915 -5.67476,-4.63825 3.93028,1.41561 32.68742,10.01151 40.38516,8.03299 0,0 -5.62965,-3.14769 -12.4373,-6.33962 -15.0791,-7.07021 -26.91363,-15.29426 -33.48754,-22.3223 -6.50605,-6.9555 -4.5716,-11.42138 1.81484,-6.19684 12.10192,9.90013 20.55192,15.05264 30.96551,20.75232 12.50902,6.84658 16.51979,8.67875 24.66516,11.00138 0,0 -2.24668,-1.56067 -5.94898,-4.11289 -13.37439,-9.21979 -18.79296,-15.10739 -27.744,-27.50474 -5.91066,-8.18636 -8.88716,-14.04159 -9.88797,-19.45085 -0.74339,-4.01812 -0.17273,-3.49281 10.00582,9.21159 13.38506,16.70651 27.58727,30.37213 37.8045,36.37625 4.28731,2.51943 6.28973,4.36172 6.28973,4.36172 0,0 -4.30874,-4.18859 -8.72995,-9.43946 -16.01257,-19.0175 -22.12147,-30.01257 -22.03796,-45.31014 l 0.0441,-8.0836 2.05348,4.31124 c 1.12942,2.3712 4.45057,9.50372 7.38039,15.85008 6.25774,13.55525 13.51956,24.35698 23.40032,34.80731 3.92344,4.14954 6.36009,6.33211 5.41477,4.85012 -12.0668,-18.91737 -15.7873,-28.87248 -16.57486,-44.35022 -0.59474,-11.68888 0.44277,-21.81395 1.95788,-19.10665 0.51234,0.91556 1.94206,7.39625 3.17714,14.4016 2.71999,15.42757 8.12363,30.39552 15.26684,42.28876 3.31785,5.52414 4.52031,7.37444 4.52031,7.37444 0,0 -1.37383,-3.35879 -2.05739,-6.14001 -3.33098,-13.55316 -4.93797,-29.08997 -2.74673,-40.27508 l 0.84463,-4.31125 0.81016,3.23345 c 0.44558,1.77839 0.99147,3.96096 1.21303,4.85016 0.2216,0.88919 1.36332,7.92194 2.53729,15.62834 2.43262,15.96892 5.50752,26.93068 9.52371,33.95121 7.19715,12.58107 16.60589,21.80264 31.16437,30.54445 6.77189,4.06626 13.2957,10.43293 13.2957,12.97551 0,1.88952 9.04386,13.90028 21.55628,28.6279 9.7326,11.45566 19.47243,19.7901 20.28355,17.35674 0.2061,-0.61804 1.3496,-1.12375 2.54131,-1.12375 1.25118,0 2.40193,-0.89955 2.72342,-2.12881 0.30634,-1.17079 2.17184,-2.71283 4.14596,-3.42665 1.97407,-0.71385 3.49695,-1.80571 3.38421,-2.42633 -0.11276,-0.62066 0.98848,-1.30838 2.44721,-1.52826 1.45877,-0.21998 3.1572,-1.09024 3.77433,-1.93418 0.61708,-0.84389 2.69643,-1.64553 4.6208,-1.78143 1.92434,-0.13616 3.49978,-0.82062 3.50096,-1.52168 0.002,-1.72689 3.87904,-2.84042 7.08571,-2.03559 2.13325,0.53541 2.61679,0.24851 2.61679,-1.55324 0,-3.14805 2.38942,-3.66174 8.31298,-1.78718 2.83786,0.89807 5.00623,1.17366 8.41481,1.55885 7.22567,0.81644 8.4399,-1.19202 6.44524,-5.37898 -1.13405,-2.38048 -2.6927,-5.0824 -2.6905,-6.44765 0.005,-3.25029 4.0021,-9.75581 5.68675,-9.25616 0.72326,0.21458 2.84386,3.52396 4.71242,7.35431 1.86857,3.83038 3.90515,5.3739 6.6231,5.13359 5.46533,-1.37201 4.78425,-8.20149 5.93983,-11.49385 4.63756,-13.36861 6.79978,-17.20475 11.47217,-20.35348 5.03321,-3.39185 5.81551,-3.10572 5.14645,1.88251 -0.31814,2.37119 -0.42574,4.31127 -0.23951,4.31127 0.18668,0 2.31091,-3.59304 4.72109,-7.98455 2.41021,-4.39147 5.72789,-9.04754 7.3727,-10.3468 l 2.99048,-2.36225 0.33529,3.8951 c 0.18451,2.1423 -0.41217,7.85883 -1.32588,12.70343 -0.91377,4.84456 -1.42847,9.0412 -1.1438,9.32583 0.28475,0.28465 0.51749,-0.12894 0.51749,-0.91881 0,-0.79003 2.7522,-7.1891 6.116,-14.22016 4.02583,-8.41499 6.4144,-12.31345 6.9893,-11.4076 0.60953,0.96056 0.87833,0.70468 0.88986,-0.84723 0.0125,-1.92319 5.04367,-8.01581 6.617,-8.01581 0.58777,0 -0.91555,14.68725 -1.73761,16.97561 -1.09197,3.03965 1.24589,1.02383 3.75961,-3.24176 l 2.69454,-4.57241 0.34179,4.16594 c 0.4049,4.93385 -2.22626,18.93697 -5.3662,28.55882 -2.72146,8.33941 -13.21378,24.33522 -19.71797,30.06039 -3.82554,3.36739 -7.76718,5.19721 -19.97632,9.27355 -8.65525,2.88975 -19.94779,5.78321 -26.20292,6.71391 -6.04589,0.89958 -12.20509,1.90992 -13.6871,2.24528 -3.9244,0.888 -15.08942,5.91242 -15.08942,6.79048 0,0.41242 2.54635,0.59917 5.65857,0.41499 3.11217,-0.18406 10.50867,-0.51581 16.43666,-0.737 8.54755,-0.31896 12.78894,-1.09651 20.49405,-3.75703 10.93324,-3.77526 23.59433,-6.66552 29.19887,-6.66552 4.85354,0 10.78384,3.10533 15.51493,8.12411 2.07485,2.20099 7.40999,6.34878 11.85599,9.21734 l 8.08365,5.21552 0.53889,-7.45561 c 0.29657,-4.10055 1.11255,-8.02775 1.8137,-8.72706 1.68369,-1.67919 5.05306,-0.34831 4.2719,1.6872 -0.69656,1.81518 1.95796,4.87227 4.23065,4.87227 0.84681,0 1.5397,1.00274 1.5397,2.22829 0,1.70514 0.48479,2.07437 2.06493,1.57287 5.89626,-1.87137 1.96092,5.49436 -4.32702,8.09891 -1.71983,0.71239 -3.12611,1.60016 -3.12505,1.97285 10e-4,0.37277 2.06241,1.98683 4.58072,3.58707 2.51831,1.60019 6.27634,4.34147 8.35117,6.0917 l 3.77232,3.18228 -5.66442,-1.022 c -3.11543,-0.56206 -7.66282,-1.72706 -10.10529,-2.58883 -2.4425,-0.86175 -4.50116,-1.5661 -4.57483,-1.56524 -0.0737,8.4e-4 -0.14041,7.88235 -0.14872,17.5145 -0.0157,18.76493 -1.13451,25.71078 -6.58276,40.8783 -6.32544,17.60953 -12.95415,27.50565 -20.55002,30.67942 -4.84211,2.02315 -14.9873,1.74442 -20.91472,-0.57468 z"
       id="path20637"
       sodipodi:nodetypes="csssssssssscsssssccscsscssssssssssssscscssssssssscccsscsscsssssssssssssccsssscssssscsscsssssssscsscssssssssssssssccssssscssccsssssccssssscssscsssssssssssssccssssssssscssscsscc" />
  </g>
</svg>
