<?xml version="1.0" standalone="no"?>
<!DOCTYPE svg PUBLIC "-//W3C//DTD SVG 1.1//EN" "http://www.w3.org/Graphics/SVG/1.1/DTD/svg11.dtd">
<svg xmlns="http://www.w3.org/2000/svg" width="1477.4mm" height="943.6mm" viewBox="0 0 1477.4 943.6" version="1.1">
<polyline points="-137.408,1048.6 -137.408,1052.4 -157.454,1052.4 -157.454,1048.6 -137.408,1048.6" fill="none" stroke="black" stroke-width="0.1mm" />
<polyline points="-37.177,1048.6 -17.131,1048.6 -17.131,1052.4 -37.177,1052.4 -37.177,1048.6" fill="none" stroke="black" stroke-width="0.1mm" />
<polyline points="-57.223,1048.6 -57.223,1052.4 -77.269,1052.4 -77.269,1048.6 -57.223,1048.6" fill="none" stroke="black" stroke-width="0.1mm" />
<polyline points="2.915,1048.6 22.961,1048.6 22.961,1052.4 2.915,1052.4 2.915,1048.6" fill="none" stroke="black" stroke-width="0.1mm" />
<polyline points="43.008,1048.6 63.054,1048.6 63.054,1052.4 43.008,1052.4 43.008,1048.6" fill="none" stroke="black" stroke-width="0.1mm" />
<polyline points="-97.315,1048.6 -97.315,1052.4 -117.362,1052.4 -117.362,1048.6 -97.315,1048.6" fill="none" stroke="black" stroke-width="0.1mm" />
<polyline points="-95.854,1095.4 -95.854,1099.2 -115.315,1099.2 -115.315,1095.4 -134.777,1095.4 -134.777,1099.2 -154.238,1099.2 -154.238,1095.4 -173.7,1095.4 -173.7,1078.707 -177.5,1078.707 -177.5,1058.213 -173.7,1058.213 -173.7,1037.72 -177.5,1037.72 -177.5,1017.227 -173.7,1017.227 -173.7,996.733 -177.5,996.733 -177.5,976.24 -173.7,976.24 -173.7,955.747 -177.5,955.747 -177.5,935.253 -173.7,935.253 -173.7,914.76 -177.5,914.76 -177.5,894.267 -173.7,894.267 -173.7,873.773 -177.5,873.773 -177.5,853.28 -173.7,853.28 -173.7,832.787 -177.5,832.787 -177.5,812.293 -173.7,812.293 -173.7,795.6 -154.238,795.6 -154.238,791.8 -134.777,791.8 -134.777,795.6 -115.315,795.6 -115.315,791.8 -95.854,791.8 -95.854,795.6 -76.392,795.6 -76.392,791.8 -56.931,791.8 -56.931,795.6 -37.469,795.6 -37.469,791.8 -18.008,791.8 -18.008,795.6 1.454,795.6 1.454,791.8 20.915,791.8 20.915,795.6 40.377,795.6 40.377,791.8 59.838,791.8 59.838,795.6 79.3,795.6 79.3,812.293 83.1,812.293 83.1,832.787 79.3,832.787 79.3,853.28 83.1,853.28 83.1,873.773 79.3,873.773 79.3,894.267 83.1,894.267 83.1,914.76 79.3,914.76 79.3,935.253 83.1,935.253 83.1,955.747 79.3,955.747 79.3,976.24 83.1,976.24 83.1,996.733 79.3,996.733 79.3,1017.227 83.1,1017.227 83.1,1037.72 79.3,1037.72 79.3,1058.213 83.1,1058.213 83.1,1078.707 79.3,1078.707 79.3,1095.4 59.838,1095.4 59.838,1099.2 40.377,1099.2 40.377,1095.4 20.915,1095.4 20.915,1099.2 1.454,1099.2 1.454,1095.4 -18.008,1095.4 -18.008,1099.2 -37.469,1099.2 -37.469,1095.4 -56.931,1095.4 -56.931,1099.2 -76.392,1099.2 -76.392,1095.4 -95.854,1095.4" fill="none" stroke="black" stroke-width="0.1mm" />
<polyline points="-37.177,1364.8 -17.131,1364.8 -17.131,1368.6 -37.177,1368.6 -37.177,1364.8" fill="none" stroke="black" stroke-width="0.1mm" />
<polyline points="2.915,1364.8 22.961,1364.8 22.961,1368.6 2.915,1368.6 2.915,1364.8" fill="none" stroke="black" stroke-width="0.1mm" />
<polyline points="43.008,1364.8 63.054,1364.8 63.054,1368.6 43.008,1368.6 43.008,1364.8" fill="none" stroke="black" stroke-width="0.1mm" />
<polyline points="-137.408,1364.8 -137.408,1368.6 -157.454,1368.6 -157.454,1364.8 -137.408,1364.8" fill="none" stroke="black" stroke-width="0.1mm" />
<polyline points="-77.269,1364.8 -57.223,1364.8 -57.223,1368.6 -77.269,1368.6 -77.269,1364.8" fill="none" stroke="black" stroke-width="0.1mm" />
<polyline points="-97.315,1364.8 -97.315,1368.6 -117.362,1368.6 -117.362,1364.8 -97.315,1364.8" fill="none" stroke="black" stroke-width="0.1mm" />
<polyline points="-95.854,1411.6 -95.854,1415.4 -115.315,1415.4 -115.315,1411.6 -134.777,1411.6 -134.777,1415.4 -154.238,1415.4 -154.238,1411.6 -173.7,1411.6 -173.7,1394.907 -177.5,1394.907 -177.5,1374.413 -173.7,1374.413 -173.7,1353.92 -177.5,1353.92 -177.5,1333.427 -173.7,1333.427 -173.7,1312.933 -177.5,1312.933 -177.5,1292.44 -173.7,1292.44 -173.7,1271.947 -177.5,1271.947 -177.5,1251.453 -173.7,1251.453 -173.7,1230.96 -177.5,1230.96 -177.5,1210.467 -173.7,1210.467 -173.7,1189.973 -177.5,1189.973 -177.5,1169.48 -173.7,1169.48 -173.7,1148.987 -177.5,1148.987 -177.5,1128.493 -173.7,1128.493 -173.7,1111.8 -154.238,1111.8 -154.238,1108 -134.777,1108 -134.777,1111.8 -115.315,1111.8 -115.315,1108 -95.854,1108 -95.854,1111.8 -76.392,1111.8 -76.392,1108 -56.931,1108 -56.931,1111.8 -37.469,1111.8 -37.469,1108 -18.008,1108 -18.008,1111.8 1.454,1111.8 1.454,1108 20.915,1108 20.915,1111.8 40.377,1111.8 40.377,1108 59.838,1108 59.838,1111.8 79.3,1111.8 79.3,1128.493 83.1,1128.493 83.1,1148.987 79.3,1148.987 79.3,1169.48 83.1,1169.48 83.1,1189.973 79.3,1189.973 79.3,1210.467 83.1,1210.467 83.1,1230.96 79.3,1230.96 79.3,1251.453 83.1,1251.453 83.1,1271.947 79.3,1271.947 79.3,1292.44 83.1,1292.44 83.1,1312.933 79.3,1312.933 79.3,1333.427 83.1,1333.427 83.1,1353.92 79.3,1353.92 79.3,1374.413 83.1,1374.413 83.1,1394.907 79.3,1394.907 79.3,1411.6 59.838,1411.6 59.838,1415.4 40.377,1415.4 40.377,1411.6 20.915,1411.6 20.915,1415.4 1.454,1415.4 1.454,1411.6 -18.008,1411.6 -18.008,1415.4 -37.469,1415.4 -37.469,1411.6 -56.931,1411.6 -56.931,1415.4 -76.392,1415.4 -76.392,1411.6 -95.854,1411.6" fill="none" stroke="black" stroke-width="0.1mm" />
<polyline points="-182.5,1391.462 -186.3,1391.462 -186.3,1415.4 -447.9,1415.4 -447.9,1391.462 -451.7,1391.462 -451.7,1367.523 -447.9,1367.523 -447.9,1343.585 -451.7,1343.585 -451.7,1319.646 -447.9,1319.646 -447.9,1295.708 -451.7,1295.708 -451.7,1271.769 -447.9,1271.769 -447.9,1247.831 -451.7,1247.831 -451.7,1223.892 -447.9,1223.892 -447.9,1199.954 -451.7,1199.954 -451.7,1176.015 -447.9,1176.015 -447.9,1152.077 -451.7,1152.077 -451.7,1128.138 -447.9,1128.138 -447.9,1108 -427.777,1108 -427.777,1104.2 -407.654,1104.2 -407.654,1108 -387.531,1108 -387.531,1104.2 -367.408,1104.2 -367.408,1108 -347.285,1108 -347.285,1104.2 -327.162,1104.2 -327.162,1108 -307.038,1108 -307.038,1104.2 -286.915,1104.2 -286.915,1108 -266.792,1108 -266.792,1104.2 -246.669,1104.2 -246.669,1108 -226.546,1108 -226.546,1104.2 -206.423,1104.2 -206.423,1108 -186.3,1108 -186.3,1128.138 -182.5,1128.138 -182.5,1152.077 -186.3,1152.077 -186.3,1176.015 -182.5,1176.015 -182.5,1199.954 -186.3,1199.954 -186.3,1223.892 -182.5,1223.892 -182.5,1247.831 -186.3,1247.831 -186.3,1271.769 -182.5,1271.769 -182.5,1295.708 -186.3,1295.708 -186.3,1319.646 -182.5,1319.646 -182.5,1343.585 -186.3,1343.585 -186.3,1367.523 -182.5,1367.523 -182.5,1391.462" fill="none" stroke="black" stroke-width="0.1mm" />
<polyline points="108.146,1368.6 108.146,1364.8 128.192,1364.8 128.192,1368.6 108.146,1368.6" fill="none" stroke="black" stroke-width="0.1mm" />
<polyline points="188.331,1368.6 188.331,1364.8 208.377,1364.8 208.377,1368.6 188.331,1368.6" fill="none" stroke="black" stroke-width="0.1mm" />
<polyline points="228.423,1368.6 228.423,1364.8 248.469,1364.8 248.469,1368.6 228.423,1368.6" fill="none" stroke="black" stroke-width="0.1mm" />
<polyline points="268.515,1368.6 268.515,1364.8 288.561,1364.8 288.561,1368.6 268.515,1368.6" fill="none" stroke="black" stroke-width="0.1mm" />
<polyline points="308.608,1368.6 308.608,1364.8 328.654,1364.8 328.654,1368.6 308.608,1368.6" fill="none" stroke="black" stroke-width="0.1mm" />
<polyline points="168.285,1368.6 148.238,1368.6 148.238,1364.8 168.285,1364.8 168.285,1368.6" fill="none" stroke="black" stroke-width="0.1mm" />
<polyline points="169.746,1411.6 169.746,1415.4 150.285,1415.4 150.285,1411.6 130.823,1411.6 130.823,1415.4 111.362,1415.4 111.362,1411.6 91.9,1411.6 91.9,1394.907 88.1,1394.907 88.1,1374.413 91.9,1374.413 91.9,1353.92 88.1,1353.92 88.1,1333.427 91.9,1333.427 91.9,1312.933 88.1,1312.933 88.1,1292.44 91.9,1292.44 91.9,1271.947 88.1,1271.947 88.1,1251.453 91.9,1251.453 91.9,1230.96 88.1,1230.96 88.1,1210.467 91.9,1210.467 91.9,1189.973 88.1,1189.973 88.1,1169.48 91.9,1169.48 91.9,1148.987 88.1,1148.987 88.1,1128.493 91.9,1128.493 91.9,1111.8 111.362,1111.8 111.362,1108 130.823,1108 130.823,1111.8 150.285,1111.8 150.285,1108 169.746,1108 169.746,1111.8 189.208,1111.8 189.208,1108 208.669,1108 208.669,1111.8 228.131,1111.8 228.131,1108 247.592,1108 247.592,1111.8 267.054,1111.8 267.054,1108 286.515,1108 286.515,1111.8 305.977,1111.8 305.977,1108 325.438,1108 325.438,1111.8 344.9,1111.8 344.9,1128.493 348.7,1128.493 348.7,1148.987 344.9,1148.987 344.9,1169.48 348.7,1169.48 348.7,1189.973 344.9,1189.973 344.9,1210.467 348.7,1210.467 348.7,1230.96 344.9,1230.96 344.9,1251.453 348.7,1251.453 348.7,1271.947 344.9,1271.947 344.9,1292.44 348.7,1292.44 348.7,1312.933 344.9,1312.933 344.9,1333.427 348.7,1333.427 348.7,1353.92 344.9,1353.92 344.9,1374.413 348.7,1374.413 348.7,1394.907 344.9,1394.907 344.9,1411.6 325.438,1411.6 325.438,1415.4 305.977,1415.4 305.977,1411.6 286.515,1411.6 286.515,1415.4 267.054,1415.4 267.054,1411.6 247.592,1411.6 247.592,1415.4 228.131,1415.4 228.131,1411.6 208.669,1411.6 208.669,1415.4 189.208,1415.4 189.208,1411.6 169.746,1411.6" fill="none" stroke="black" stroke-width="0.1mm" />
<polyline points="373.7,1368.6 373.7,1364.8 393.7,1364.8 393.7,1368.6 373.7,1368.6" fill="none" stroke="black" stroke-width="0.1mm" />
<polyline points="409.9,1374.413 409.9,1394.907 413.7,1394.907 413.7,1415.4 393.7,1415.4 393.7,1411.6 373.7,1411.6 373.7,1415.4 353.7,1415.4 353.7,1108 373.7,1108 373.7,1111.8 393.7,1111.8 393.7,1108 413.7,1108 413.7,1128.493 409.9,1128.493 409.9,1148.987 413.7,1148.987 413.7,1169.48 409.9,1169.48 409.9,1189.973 413.7,1189.973 413.7,1210.467 409.9,1210.467 409.9,1230.96 413.7,1230.96 413.7,1251.453 409.9,1251.453 409.9,1271.947 413.7,1271.947 413.7,1292.44 409.9,1292.44 409.9,1312.933 413.7,1312.933 413.7,1333.427 409.9,1333.427 409.9,1353.92 413.7,1353.92 413.7,1374.413 409.9,1374.413" fill="none" stroke="black" stroke-width="0.1mm" />
<polyline points="438.7,1368.6 438.7,1364.8 458.7,1364.8 458.7,1368.6 438.7,1368.6" fill="none" stroke="black" stroke-width="0.1mm" />
<polyline points="474.9,1374.413 474.9,1394.907 478.7,1394.907 478.7,1415.4 458.7,1415.4 458.7,1411.6 438.7,1411.6 438.7,1415.4 418.7,1415.4 418.7,1108 438.7,1108 438.7,1111.8 458.7,1111.8 458.7,1108 478.7,1108 478.7,1128.493 474.9,1128.493 474.9,1148.987 478.7,1148.987 478.7,1169.48 474.9,1169.48 474.9,1189.973 478.7,1189.973 478.7,1210.467 474.9,1210.467 474.9,1230.96 478.7,1230.96 478.7,1251.453 474.9,1251.453 474.9,1271.947 478.7,1271.947 478.7,1292.44 474.9,1292.44 474.9,1312.933 478.7,1312.933 478.7,1333.427 474.9,1333.427 474.9,1353.92 478.7,1353.92 478.7,1374.413 474.9,1374.413" fill="none" stroke="black" stroke-width="0.1mm" />
<polyline points="503.7,1368.6 503.7,1364.8 523.7,1364.8 523.7,1368.6 503.7,1368.6" fill="none" stroke="black" stroke-width="0.1mm" />
<polyline points="539.9,1374.413 539.9,1394.907 543.7,1394.907 543.7,1415.4 523.7,1415.4 523.7,1411.6 503.7,1411.6 503.7,1415.4 483.7,1415.4 483.7,1108 503.7,1108 503.7,1111.8 523.7,1111.8 523.7,1108 543.7,1108 543.7,1128.493 539.9,1128.493 539.9,1148.987 543.7,1148.987 543.7,1169.48 539.9,1169.48 539.9,1189.973 543.7,1189.973 543.7,1210.467 539.9,1210.467 539.9,1230.96 543.7,1230.96 543.7,1251.453 539.9,1251.453 539.9,1271.947 543.7,1271.947 543.7,1292.44 539.9,1292.44 539.9,1312.933 543.7,1312.933 543.7,1333.427 539.9,1333.427 539.9,1353.92 543.7,1353.92 543.7,1374.413 539.9,1374.413" fill="none" stroke="black" stroke-width="0.1mm" />
<polyline points="568.7,1368.6 568.7,1364.8 588.7,1364.8 588.7,1368.6 568.7,1368.6" fill="none" stroke="black" stroke-width="0.1mm" />
<polyline points="604.9,1374.413 604.9,1394.907 608.7,1394.907 608.7,1415.4 588.7,1415.4 588.7,1411.6 568.7,1411.6 568.7,1415.4 548.7,1415.4 548.7,1108 568.7,1108 568.7,1111.8 588.7,1111.8 588.7,1108 608.7,1108 608.7,1128.493 604.9,1128.493 604.9,1148.987 608.7,1148.987 608.7,1169.48 604.9,1169.48 604.9,1189.973 608.7,1189.973 608.7,1210.467 604.9,1210.467 604.9,1230.96 608.7,1230.96 608.7,1251.453 604.9,1251.453 604.9,1271.947 608.7,1271.947 608.7,1292.44 604.9,1292.44 604.9,1312.933 608.7,1312.933 608.7,1333.427 604.9,1333.427 604.9,1353.92 608.7,1353.92 608.7,1374.413 604.9,1374.413" fill="none" stroke="black" stroke-width="0.1mm" />
<polyline points="640.331,1333.2 640.331,1237 644.131,1237 644.131,1333.2 640.331,1333.2" fill="none" stroke="black" stroke-width="0.1mm" />
<polyline points="617.5,1333.754 613.7,1333.754 613.7,1314.292 617.5,1314.292 617.5,1294.831 613.7,1294.831 613.7,1275.369 617.5,1275.369 617.5,1255.908 613.7,1255.908 613.7,1236.446 617.5,1236.446 617.5,1216.985 613.7,1216.985 613.7,1197.523 617.5,1197.523 617.5,1178.062 613.7,1178.062 613.7,1158.6 633.7,1158.6 633.7,1154.8 653.7,1154.8 653.7,1158.6 673.7,1158.6 673.7,1411.6 653.7,1411.6 653.7,1415.4 633.7,1415.4 633.7,1411.6 613.7,1411.6 613.7,1392.138 617.5,1392.138 617.5,1372.677 613.7,1372.677 613.7,1353.215 617.5,1353.215 617.5,1333.754" fill="none" stroke="black" stroke-width="0.1mm" />
<polyline points="705.331,1333.2 705.331,1237 709.131,1237 709.131,1333.2 705.331,1333.2" fill="none" stroke="black" stroke-width="0.1mm" />
<polyline points="682.5,1333.754 678.7,1333.754 678.7,1314.292 682.5,1314.292 682.5,1294.831 678.7,1294.831 678.7,1275.369 682.5,1275.369 682.5,1255.908 678.7,1255.908 678.7,1236.446 682.5,1236.446 682.5,1216.985 678.7,1216.985 678.7,1197.523 682.5,1197.523 682.5,1178.062 678.7,1178.062 678.7,1158.6 698.7,1158.6 698.7,1154.8 718.7,1154.8 718.7,1158.6 738.7,1158.6 738.7,1411.6 718.7,1411.6 718.7,1415.4 698.7,1415.4 698.7,1411.6 678.7,1411.6 678.7,1392.138 682.5,1392.138 682.5,1372.677 678.7,1372.677 678.7,1353.215 682.5,1353.215 682.5,1333.754" fill="none" stroke="black" stroke-width="0.1mm" />
<polyline points="652.731,1017 648.931,1017 648.931,920.8 652.731,920.8 652.731,1017" fill="none" stroke="black" stroke-width="0.1mm" />
<polyline points="626.1,1017.554 622.3,1017.554 622.3,998.092 626.1,998.092 626.1,978.631 622.3,978.631 622.3,959.169 626.1,959.169 626.1,939.708 622.3,939.708 622.3,920.246 626.1,920.246 626.1,900.785 622.3,900.785 622.3,881.323 626.1,881.323 626.1,861.862 622.3,861.862 622.3,842.4 642.3,842.4 642.3,838.6 662.3,838.6 662.3,842.4 682.3,842.4 682.3,1095.4 662.3,1095.4 662.3,1099.2 642.3,1099.2 642.3,1095.4 622.3,1095.4 622.3,1075.938 626.1,1075.938 626.1,1056.477 622.3,1056.477 622.3,1037.015 626.1,1037.015 626.1,1017.554" fill="none" stroke="black" stroke-width="0.1mm" />
<polyline points="587.731,1017 583.931,1017 583.931,920.8 587.731,920.8 587.731,1017" fill="none" stroke="black" stroke-width="0.1mm" />
<polyline points="561.1,1017.554 557.3,1017.554 557.3,998.092 561.1,998.092 561.1,978.631 557.3,978.631 557.3,959.169 561.1,959.169 561.1,939.708 557.3,939.708 557.3,920.246 561.1,920.246 561.1,900.785 557.3,900.785 557.3,881.323 561.1,881.323 561.1,861.862 557.3,861.862 557.3,842.4 577.3,842.4 577.3,838.6 597.3,838.6 597.3,842.4 617.3,842.4 617.3,1095.4 597.3,1095.4 597.3,1099.2 577.3,1099.2 577.3,1095.4 557.3,1095.4 557.3,1075.938 561.1,1075.938 561.1,1056.477 557.3,1056.477 557.3,1037.015 561.1,1037.015 561.1,1017.554" fill="none" stroke="black" stroke-width="0.1mm" />
<polyline points="552.3,1019.015 552.3,1039.062 548.5,1039.062 548.5,1059.108 552.3,1059.108 552.3,1079.154 548.5,1079.154 548.5,1095.4 532.3,1095.4 532.3,1099.2 512.3,1099.2 512.3,1095.4 492.3,1095.4 492.3,842.4 512.3,842.4 512.3,838.6 532.3,838.6 532.3,842.4 548.5,842.4 548.5,858.646 552.3,858.646 552.3,878.692 548.5,878.692 548.5,898.738 552.3,898.738 552.3,918.785 548.5,918.785 548.5,938.831 552.3,938.831 552.3,958.877 548.5,958.877 548.5,978.923 552.3,978.923 552.3,998.969 548.5,998.969 548.5,1019.015 552.3,1019.015" fill="none" stroke="black" stroke-width="0.1mm" />
<polyline points="487.3,1019.015 487.3,1039.062 483.5,1039.062 483.5,1059.108 487.3,1059.108 487.3,1079.154 483.5,1079.154 483.5,1095.4 467.3,1095.4 467.3,1099.2 447.3,1099.2 447.3,1095.4 427.3,1095.4 427.3,842.4 447.3,842.4 447.3,838.6 467.3,838.6 467.3,842.4 483.5,842.4 483.5,858.646 487.3,858.646 487.3,878.692 483.5,878.692 483.5,898.738 487.3,898.738 487.3,918.785 483.5,918.785 483.5,938.831 487.3,938.831 487.3,958.877 483.5,958.877 483.5,978.923 487.3,978.923 487.3,998.969 483.5,998.969 483.5,1019.015 487.3,1019.015" fill="none" stroke="black" stroke-width="0.1mm" />
<polyline points="422.3,1019.015 422.3,1039.062 418.5,1039.062 418.5,1059.108 422.3,1059.108 422.3,1079.154 418.5,1079.154 418.5,1095.4 402.3,1095.4 402.3,1099.2 382.3,1099.2 382.3,1095.4 362.3,1095.4 362.3,842.4 382.3,842.4 382.3,838.6 402.3,838.6 402.3,842.4 418.5,842.4 418.5,858.646 422.3,858.646 422.3,878.692 418.5,878.692 418.5,898.738 422.3,898.738 422.3,918.785 418.5,918.785 418.5,938.831 422.3,938.831 422.3,958.877 418.5,958.877 418.5,978.923 422.3,978.923 422.3,998.969 418.5,998.969 418.5,1019.015 422.3,1019.015" fill="none" stroke="black" stroke-width="0.1mm" />
<polyline points="132.146,1084 132.146,1087.8 112.023,1087.8 112.023,1084 132.146,1084" fill="none" stroke="black" stroke-width="0.1mm" />
<polyline points="132.146,828.6 112.023,828.6 112.023,824.8 132.146,824.8 132.146,828.6" fill="none" stroke="black" stroke-width="0.1mm" />
<polyline points="152.269,1084 172.392,1084 172.392,1087.8 152.269,1087.8 152.269,1084" fill="none" stroke="black" stroke-width="0.1mm" />
<polyline points="152.269,828.6 152.269,824.8 172.392,824.8 172.392,828.6 152.269,828.6" fill="none" stroke="black" stroke-width="0.1mm" />
<polyline points="192.515,1084 212.638,1084 212.638,1087.8 192.515,1087.8 192.515,1084" fill="none" stroke="black" stroke-width="0.1mm" />
<polyline points="273.008,1084 293.131,1084 293.131,1087.8 273.008,1087.8 273.008,1084" fill="none" stroke="black" stroke-width="0.1mm" />
<polyline points="273.008,828.6 273.008,824.8 293.131,824.8 293.131,828.6 273.008,828.6" fill="none" stroke="black" stroke-width="0.1mm" />
<polyline points="313.254,1084 333.377,1084 333.377,1087.8 313.254,1087.8 313.254,1084" fill="none" stroke="black" stroke-width="0.1mm" />
<polyline points="313.254,828.6 313.254,824.8 333.377,824.8 333.377,828.6 313.254,828.6" fill="none" stroke="black" stroke-width="0.1mm" />
<polyline points="132.146,889.6 132.146,893.4 112.023,893.4 112.023,889.6 132.146,889.6" fill="none" stroke="black" stroke-width="0.1mm" />
<polyline points="152.269,889.6 172.392,889.6 172.392,893.4 152.269,893.4 152.269,889.6" fill="none" stroke="black" stroke-width="0.1mm" />
<polyline points="273.008,889.6 293.131,889.6 293.131,893.4 273.008,893.4 273.008,889.6" fill="none" stroke="black" stroke-width="0.1mm" />
<polyline points="313.254,889.6 333.377,889.6 333.377,893.4 313.254,893.4 313.254,889.6" fill="none" stroke="black" stroke-width="0.1mm" />
<polyline points="132.146,954.4 132.146,958.2 112.023,958.2 112.023,954.4 132.146,954.4" fill="none" stroke="black" stroke-width="0.1mm" />
<polyline points="152.269,954.4 172.392,954.4 172.392,958.2 152.269,958.2 152.269,954.4" fill="none" stroke="black" stroke-width="0.1mm" />
<polyline points="273.008,954.4 293.131,954.4 293.131,958.2 273.008,958.2 273.008,954.4" fill="none" stroke="black" stroke-width="0.1mm" />
<polyline points="313.254,954.4 333.377,954.4 333.377,958.2 313.254,958.2 313.254,954.4" fill="none" stroke="black" stroke-width="0.1mm" />
<polyline points="212.638,828.6 192.515,828.6 192.515,824.8 212.638,824.8 212.638,828.6" fill="none" stroke="black" stroke-width="0.1mm" />
<polyline points="212.638,889.6 212.638,893.4 192.515,893.4 192.515,889.6 212.638,889.6" fill="none" stroke="black" stroke-width="0.1mm" />
<polyline points="212.638,954.4 212.638,958.2 192.515,958.2 192.515,954.4 212.638,954.4" fill="none" stroke="black" stroke-width="0.1mm" />
<polyline points="132.146,1019.2 132.146,1023 112.023,1023 112.023,1019.2 132.146,1019.2" fill="none" stroke="black" stroke-width="0.1mm" />
<polyline points="152.269,1019.2 172.392,1019.2 172.392,1023 152.269,1023 152.269,1019.2" fill="none" stroke="black" stroke-width="0.1mm" />
<polyline points="192.515,1019.2 212.638,1019.2 212.638,1023 192.515,1023 192.515,1019.2" fill="none" stroke="black" stroke-width="0.1mm" />
<polyline points="273.008,1019.2 293.131,1019.2 293.131,1023 273.008,1023 273.008,1019.2" fill="none" stroke="black" stroke-width="0.1mm" />
<polyline points="313.254,1019.2 333.377,1019.2 333.377,1023 313.254,1023 313.254,1019.2" fill="none" stroke="black" stroke-width="0.1mm" />
<polyline points="252.885,1084 252.885,1087.8 232.761,1087.8 232.761,1084 252.885,1084" fill="none" stroke="black" stroke-width="0.1mm" />
<polyline points="252.885,893.4 232.761,893.4 232.761,889.6 252.885,889.6 252.885,893.4" fill="none" stroke="black" stroke-width="0.1mm" />
<polyline points="252.885,954.4 252.885,958.2 232.761,958.2 232.761,954.4 252.885,954.4" fill="none" stroke="black" stroke-width="0.1mm" />
<polyline points="252.885,828.6 232.761,828.6 232.761,824.8 252.885,824.8 252.885,828.6" fill="none" stroke="black" stroke-width="0.1mm" />
<polyline points="252.885,1019.2 252.885,1023 232.761,1023 232.761,1019.2 252.885,1019.2" fill="none" stroke="black" stroke-width="0.1mm" />
<polyline points="290.72,1095.598 290.609,1095.654 290.514,1095.713 290.432,1095.777 290.358,1095.845 290.292,1095.919 290.237,1095.994 290.189,1096.074 290.144,1096.166 290.103,1096.273 290.066,1096.401 290.036,1096.56 290.013,1096.766 290.004,1096.943 289.994,1097.716 289.971,1097.996 289.938,1098.18 289.904,1098.304 289.866,1098.41 289.823,1098.503 289.774,1098.588 289.718,1098.668 289.656,1098.741 289.583,1098.811 289.497,1098.878 289.406,1098.937 289.298,1098.994 289.166,1099.049 289.002,1099.1 288.791,1099.147 288.507,1099.183 288.1,1099.2 157.3,1099.2 156.877,1099.182 156.615,1099.148 156.412,1099.104 156.251,1099.055 156.12,1099.002 156.009,1098.946 155.914,1098.887 155.832,1098.823 155.758,1098.755 155.692,1098.681 155.638,1098.606 155.589,1098.526 155.544,1098.434 155.503,1098.327 155.466,1098.199 155.436,1098.04 155.413,1097.834 155.404,1097.657 155.394,1096.884 155.371,1096.604 155.338,1096.42 155.305,1096.296 155.266,1096.19 155.223,1096.096 155.174,1096.012 155.118,1095.932 155.056,1095.859 154.983,1095.789 154.897,1095.722 154.806,1095.663 154.698,1095.606 154.567,1095.551 154.402,1095.5 154.191,1095.453 153.907,1095.416 153.5,1095.4 91.9,1095.4 91.9,1087.8 88.1,1087.8 88.1,1072.329 91.9,1072.329 91.9,1056.859 88.1,1056.859 88.1,1041.388 91.9,1041.388 91.9,1025.918 88.1,1025.918 88.1,1010.447 91.9,1010.447 91.9,994.976 88.1,994.976 88.1,979.506 91.9,979.506 91.9,964.035 88.1,964.035 88.1,948.565 91.9,948.565 91.9,933.094 88.1,933.094 88.1,917.624 91.9,917.624 91.9,902.153 88.1,902.153 88.1,886.682 91.9,886.682 91.9,871.212 88.1,871.212 88.1,855.741 91.9,855.741 91.9,840.271 88.1,840.271 88.1,824.8 91.9,824.8 91.9,817.2 151.3,817.2 151.954,817.226 152.372,817.278 152.664,817.341 152.88,817.407 153.044,817.474 153.174,817.542 153.281,817.609 153.369,817.678 153.451,817.754 153.519,817.831 153.577,817.911 153.627,817.996 153.671,818.088 153.709,818.189 153.741,818.304 153.772,818.47 153.794,818.71 153.804,819.444 153.813,819.594 153.836,819.777 153.865,819.92 153.9,820.037 153.94,820.138 153.986,820.228 154.037,820.309 154.1,820.392 154.151,820.448 154.23,820.521 154.32,820.591 154.426,820.658 154.553,820.724 154.71,820.789 154.908,820.852 155.167,820.911 155.598,820.97 156.291,821 288.6,821 289.254,820.974 289.672,820.922 289.965,820.859 290.18,820.793 290.344,820.726 290.474,820.658 290.581,820.591 290.669,820.522 290.751,820.446 290.819,820.369 290.877,820.289 290.927,820.204 290.971,820.112 291.009,820.011 291.041,819.896 291.072,819.73 291.093,819.49 291.104,818.756 291.113,818.606 291.136,818.423 291.165,818.28 291.2,818.163 291.241,818.062 291.286,817.972 291.337,817.891 291.4,817.808 291.452,817.752 291.53,817.679 291.62,817.609 291.726,817.542 291.853,817.476 292.01,817.411 292.208,817.348 292.467,817.289 292.898,817.23 293.591,817.2 353.5,817.2 353.5,824.8 357.3,824.8 357.3,840.271 353.5,840.271 353.5,855.741 357.3,855.741 357.3,871.212 353.5,871.212 353.5,886.682 357.3,886.682 357.3,902.153 353.5,902.153 353.5,917.624 357.3,917.624 357.3,933.094 353.5,933.094 353.5,948.565 357.3,948.565 357.3,964.035 353.5,964.035 353.5,979.506 357.3,979.506 357.3,994.976 353.5,994.976 353.5,1010.447 357.3,1010.447 357.3,1025.918 353.5,1025.918 353.5,1041.388 357.3,1041.388 357.3,1056.859 353.5,1056.859 353.5,1072.329 357.3,1072.329 357.3,1087.8 353.5,1087.8 353.5,1095.4 291.9,1095.4 291.477,1095.418 291.215,1095.452 291.013,1095.496 290.851,1095.545 290.72,1095.598" fill="none" stroke="black" stroke-width="0.1mm" />
<polyline points="204.177,736.2 184.131,736.2 184.131,732.4 204.177,732.4 204.177,736.2" fill="none" stroke="black" stroke-width="0.1mm" />
<polyline points="224.223,736.2 224.223,732.4 244.269,732.4 244.269,736.2 224.223,736.2" fill="none" stroke="black" stroke-width="0.1mm" />
<polyline points="304.408,736.2 304.408,732.4 324.454,732.4 324.454,736.2 304.408,736.2" fill="none" stroke="black" stroke-width="0.1mm" />
<polyline points="123.992,736.2 103.946,736.2 103.946,732.4 123.992,732.4 123.992,736.2" fill="none" stroke="black" stroke-width="0.1mm" />
<polyline points="264.315,736.2 264.315,732.4 284.362,732.4 284.362,736.2 264.315,736.2" fill="none" stroke="black" stroke-width="0.1mm" />
<polyline points="164.085,736.2 144.038,736.2 144.038,732.4 164.085,732.4 164.085,736.2" fill="none" stroke="black" stroke-width="0.1mm" />
<polyline points="165.546,779.2 165.546,783 146.085,783 146.085,779.2 126.623,779.2 126.623,783 107.162,783 107.162,779.2 87.7,779.2 87.7,762.507 83.9,762.507 83.9,742.013 87.7,742.013 87.7,721.52 83.9,721.52 83.9,701.027 87.7,701.027 87.7,680.533 83.9,680.533 83.9,660.04 87.7,660.04 87.7,639.547 83.9,639.547 83.9,619.053 87.7,619.053 87.7,598.56 83.9,598.56 83.9,578.067 87.7,578.067 87.7,557.573 83.9,557.573 83.9,537.08 87.7,537.08 87.7,516.587 83.9,516.587 83.9,496.093 87.7,496.093 87.7,479.4 107.162,479.4 107.162,475.6 126.623,475.6 126.623,479.4 146.085,479.4 146.085,475.6 165.546,475.6 165.546,479.4 185.008,479.4 185.008,475.6 204.469,475.6 204.469,479.4 223.931,479.4 223.931,475.6 243.392,475.6 243.392,479.4 262.854,479.4 262.854,475.6 282.315,475.6 282.315,479.4 301.777,479.4 301.777,475.6 321.238,475.6 321.238,479.4 340.7,479.4 340.7,496.093 344.5,496.093 344.5,516.587 340.7,516.587 340.7,537.08 344.5,537.08 344.5,557.573 340.7,557.573 340.7,578.067 344.5,578.067 344.5,598.56 340.7,598.56 340.7,619.053 344.5,619.053 344.5,639.547 340.7,639.547 340.7,660.04 344.5,660.04 344.5,680.533 340.7,680.533 340.7,701.027 344.5,701.027 344.5,721.52 340.7,721.52 340.7,742.013 344.5,742.013 344.5,762.507 340.7,762.507 340.7,779.2 321.238,779.2 321.238,783 301.777,783 301.777,779.2 282.315,779.2 282.315,783 262.854,783 262.854,779.2 243.392,779.2 243.392,783 223.931,783 223.931,779.2 204.469,779.2 204.469,783 185.008,783 185.008,779.2 165.546,779.2" fill="none" stroke="black" stroke-width="0.1mm" />
<polyline points="78.9,759.062 75.1,759.062 75.1,783 -186.5,783 -186.5,759.062 -190.3,759.062 -190.3,735.123 -186.5,735.123 -186.5,711.185 -190.3,711.185 -190.3,687.246 -186.5,687.246 -186.5,663.308 -190.3,663.308 -190.3,639.369 -186.5,639.369 -186.5,615.431 -190.3,615.431 -190.3,591.492 -186.5,591.492 -186.5,567.554 -190.3,567.554 -190.3,543.615 -186.5,543.615 -186.5,519.677 -190.3,519.677 -190.3,495.738 -186.5,495.738 -186.5,475.6 -166.377,475.6 -166.377,471.8 -146.254,471.8 -146.254,475.6 -126.131,475.6 -126.131,471.8 -106.008,471.8 -106.008,475.6 -85.885,475.6 -85.885,471.8 -65.762,471.8 -65.762,475.6 -45.638,475.6 -45.638,471.8 -25.515,471.8 -25.515,475.6 -5.392,475.6 -5.392,471.8 14.731,471.8 14.731,475.6 34.854,475.6 34.854,471.8 54.977,471.8 54.977,475.6 75.1,475.6 75.1,495.738 78.9,495.738 78.9,519.677 75.1,519.677 75.1,543.615 78.9,543.615 78.9,567.554 75.1,567.554 75.1,591.492 78.9,591.492 78.9,615.431 75.1,615.431 75.1,639.369 78.9,639.369 78.9,663.308 75.1,663.308 75.1,687.246 78.9,687.246 78.9,711.185 75.1,711.185 75.1,735.123 78.9,735.123 78.9,759.062" fill="none" stroke="black" stroke-width="0.1mm" />
<polyline points="-182.5,811.938 -182.5,835.877 -186.3,835.877 -186.3,859.815 -182.5,859.815 -182.5,883.754 -186.3,883.754 -186.3,907.692 -182.5,907.692 -182.5,931.631 -186.3,931.631 -186.3,955.569 -182.5,955.569 -182.5,979.508 -186.3,979.508 -186.3,1003.446 -182.5,1003.446 -182.5,1027.385 -186.3,1027.385 -186.3,1051.323 -182.5,1051.323 -182.5,1075.262 -186.3,1075.262 -186.3,1099.2 -447.9,1099.2 -447.9,1075.262 -451.7,1075.262 -451.7,1051.323 -447.9,1051.323 -447.9,1027.385 -451.7,1027.385 -451.7,1003.446 -447.9,1003.446 -447.9,979.508 -451.7,979.508 -451.7,955.569 -447.9,955.569 -447.9,931.631 -451.7,931.631 -451.7,907.692 -447.9,907.692 -447.9,883.754 -451.7,883.754 -451.7,859.815 -447.9,859.815 -447.9,835.877 -451.7,835.877 -451.7,811.938 -447.9,811.938 -447.9,791.8 -427.777,791.8 -427.777,788 -407.654,788 -407.654,791.8 -387.531,791.8 -387.531,788 -367.408,788 -367.408,791.8 -347.285,791.8 -347.285,788 -327.162,788 -327.162,791.8 -307.038,791.8 -307.038,788 -286.915,788 -286.915,791.8 -266.792,791.8 -266.792,788 -246.669,788 -246.669,791.8 -226.546,791.8 -226.546,788 -206.423,788 -206.423,791.8 -186.3,791.8 -186.3,811.938 -182.5,811.938" fill="none" stroke="black" stroke-width="0.1mm" />
<polyline points="-199.1,783 -460.7,783 -460.7,759.062 -464.5,759.062 -464.5,735.123 -460.7,735.123 -460.7,711.185 -464.5,711.185 -464.5,687.246 -460.7,687.246 -460.7,663.308 -464.5,663.308 -464.5,639.369 -460.7,639.369 -460.7,615.431 -464.5,615.431 -464.5,591.492 -460.7,591.492 -460.7,567.554 -464.5,567.554 -464.5,543.615 -460.7,543.615 -460.7,519.677 -464.5,519.677 -464.5,495.738 -460.7,495.738 -460.7,475.6 -440.577,475.6 -440.577,471.8 -420.454,471.8 -420.454,475.6 -400.331,475.6 -400.331,471.8 -380.208,471.8 -380.208,475.6 -360.085,475.6 -360.085,471.8 -339.962,471.8 -339.962,475.6 -319.838,475.6 -319.838,471.8 -299.715,471.8 -299.715,475.6 -279.592,475.6 -279.592,471.8 -259.469,471.8 -259.469,475.6 -239.346,475.6 -239.346,471.8 -219.223,471.8 -219.223,475.6 -199.1,475.6 -199.1,495.738 -195.3,495.738 -195.3,519.677 -199.1,519.677 -199.1,543.615 -195.3,543.615 -195.3,567.554 -199.1,567.554 -199.1,591.492 -195.3,591.492 -195.3,615.431 -199.1,615.431 -199.1,639.369 -195.3,639.369 -195.3,663.308 -199.1,663.308 -199.1,687.246 -195.3,687.246 -195.3,711.185 -199.1,711.185 -199.1,735.123 -195.3,735.123 -195.3,759.062 -199.1,759.062 -199.1,783" fill="none" stroke="black" stroke-width="0.1mm" />
<polyline points="-468.1,1003.446 -468.1,1027.385 -471.9,1027.385 -471.9,1003.446 -468.1,1003.446" fill="none" stroke="black" stroke-width="0.1mm" />
<polyline points="-468.1,883.754 -471.9,883.754 -471.9,859.815 -468.1,859.815 -468.1,883.754" fill="none" stroke="black" stroke-width="0.1mm" />
<polyline points="-597.7,1003.446 -597.7,1027.385 -601.5,1027.385 -601.5,1003.446 -597.7,1003.446" fill="none" stroke="black" stroke-width="0.1mm" />
<polyline points="-597.7,883.754 -601.5,883.754 -601.5,859.815 -597.7,859.815 -597.7,883.754" fill="none" stroke="black" stroke-width="0.1mm" />
<polyline points="-662.5,1003.446 -662.5,1027.385 -666.3,1027.385 -666.3,1003.446 -662.5,1003.446" fill="none" stroke="black" stroke-width="0.1mm" />
<polyline points="-662.5,883.754 -666.3,883.754 -666.3,859.815 -662.5,859.815 -662.5,883.754" fill="none" stroke="black" stroke-width="0.1mm" />
<polyline points="-471.9,955.569 -468.1,955.569 -468.1,979.508 -471.9,979.508 -471.9,955.569" fill="none" stroke="black" stroke-width="0.1mm" />
<polyline points="-471.9,931.631 -471.9,907.692 -468.1,907.692 -468.1,931.631 -471.9,931.631" fill="none" stroke="black" stroke-width="0.1mm" />
<polyline points="-597.7,955.569 -597.7,979.508 -601.5,979.508 -601.5,955.569 -597.7,955.569" fill="none" stroke="black" stroke-width="0.1mm" />
<polyline points="-597.7,931.631 -601.5,931.631 -601.5,907.692 -597.7,907.692 -597.7,931.631" fill="none" stroke="black" stroke-width="0.1mm" />
<polyline points="-662.5,955.569 -662.5,979.508 -666.3,979.508 -666.3,955.569 -662.5,955.569" fill="none" stroke="black" stroke-width="0.1mm" />
<polyline points="-662.5,931.631 -666.3,931.631 -666.3,907.692 -662.5,907.692 -662.5,931.631" fill="none" stroke="black" stroke-width="0.1mm" />
<polyline points="-471.9,1051.323 -468.1,1051.323 -468.1,1075.262 -471.9,1075.262 -471.9,1051.323" fill="none" stroke="black" stroke-width="0.1mm" />
<polyline points="-471.9,835.877 -471.9,811.938 -468.1,811.938 -468.1,835.877 -471.9,835.877" fill="none" stroke="black" stroke-width="0.1mm" />
<polyline points="-597.7,1051.323 -597.7,1075.262 -601.5,1075.262 -601.5,1051.323 -597.7,1051.323" fill="none" stroke="black" stroke-width="0.1mm" />
<polyline points="-597.7,835.877 -601.5,835.877 -601.5,811.938 -597.7,811.938 -597.7,835.877" fill="none" stroke="black" stroke-width="0.1mm" />
<polyline points="-662.5,1051.323 -662.5,1075.262 -666.3,1075.262 -666.3,1051.323 -662.5,1051.323" fill="none" stroke="black" stroke-width="0.1mm" />
<polyline points="-662.5,835.877 -666.3,835.877 -666.3,811.938 -662.5,811.938 -662.5,835.877" fill="none" stroke="black" stroke-width="0.1mm" />
<polyline points="-536.7,955.569 -532.9,955.569 -532.9,979.508 -536.7,979.508 -536.7,955.569" fill="none" stroke="black" stroke-width="0.1mm" />
<polyline points="-536.7,931.631 -536.7,907.692 -532.9,907.692 -532.9,931.631 -536.7,931.631" fill="none" stroke="black" stroke-width="0.1mm" />
<polyline points="-727.3,955.569 -727.3,979.508 -731.1,979.508 -731.1,955.569 -727.3,955.569" fill="none" stroke="black" stroke-width="0.1mm" />
<polyline points="-727.3,931.631 -731.1,931.631 -731.1,907.692 -727.3,907.692 -727.3,931.631" fill="none" stroke="black" stroke-width="0.1mm" />
<polyline points="-536.7,1003.446 -532.9,1003.446 -532.9,1027.385 -536.7,1027.385 -536.7,1003.446" fill="none" stroke="black" stroke-width="0.1mm" />
<polyline points="-536.7,883.754 -536.7,859.815 -532.9,859.815 -532.9,883.754 -536.7,883.754" fill="none" stroke="black" stroke-width="0.1mm" />
<polyline points="-727.3,1003.446 -727.3,1027.385 -731.1,1027.385 -731.1,1003.446 -727.3,1003.446" fill="none" stroke="black" stroke-width="0.1mm" />
<polyline points="-727.3,883.754 -731.1,883.754 -731.1,859.815 -727.3,859.815 -727.3,883.754" fill="none" stroke="black" stroke-width="0.1mm" />
<polyline points="-536.7,1051.323 -532.9,1051.323 -532.9,1075.262 -536.7,1075.262 -536.7,1051.323" fill="none" stroke="black" stroke-width="0.1mm" />
<polyline points="-536.7,835.877 -536.7,811.938 -532.9,811.938 -532.9,835.877 -536.7,835.877" fill="none" stroke="black" stroke-width="0.1mm" />
<polyline points="-727.3,1051.323 -727.3,1075.262 -731.1,1075.262 -731.1,1051.323 -727.3,1051.323" fill="none" stroke="black" stroke-width="0.1mm" />
<polyline points="-727.3,835.877 -731.1,835.877 -731.1,811.938 -727.3,811.938 -727.3,835.877" fill="none" stroke="black" stroke-width="0.1mm" />
<polyline points="-738.7,863.4 -738.7,788 -731.1,788 -731.1,791.8 -715.629,791.8 -715.629,788 -700.159,788 -700.159,791.8 -684.688,791.8 -684.688,788 -669.218,788 -669.218,791.8 -653.747,791.8 -653.747,788 -638.276,788 -638.276,791.8 -622.806,791.8 -622.806,788 -607.335,788 -607.335,791.8 -591.865,791.8 -591.865,788 -576.394,788 -576.394,791.8 -560.924,791.8 -560.924,788 -545.453,788 -545.453,791.8 -529.982,791.8 -529.982,788 -514.512,788 -514.512,791.8 -499.041,791.8 -499.041,788 -483.571,788 -483.571,791.8 -468.1,791.8 -468.1,788 -460.5,788 -460.5,863.9 -460.482,864.323 -460.448,864.585 -460.404,864.787 -460.355,864.949 -460.302,865.08 -460.246,865.191 -460.187,865.286 -460.123,865.368 -460.055,865.442 -459.981,865.508 -459.906,865.562 -459.826,865.611 -459.734,865.656 -459.627,865.697 -459.499,865.734 -459.34,865.764 -459.134,865.787 -458.957,865.796 -458.184,865.806 -457.904,865.829 -457.72,865.862 -457.596,865.895 -457.49,865.934 -457.396,865.977 -457.312,866.026 -457.232,866.082 -457.159,866.144 -457.089,866.217 -457.022,866.303 -456.963,866.394 -456.906,866.502 -456.851,866.633 -456.8,866.798 -456.753,867.009 -456.717,867.293 -456.7,867.7 -456.7,1019.5 -456.717,1019.907 -456.753,1020.191 -456.8,1020.402 -456.851,1020.567 -456.906,1020.698 -456.963,1020.806 -457.022,1020.897 -457.089,1020.983 -457.159,1021.056 -457.232,1021.118 -457.312,1021.174 -457.396,1021.223 -457.49,1021.266 -457.596,1021.304 -457.72,1021.338 -457.904,1021.371 -458.184,1021.394 -458.957,1021.404 -459.134,1021.413 -459.34,1021.436 -459.499,1021.466 -459.627,1021.503 -459.734,1021.544 -459.826,1021.589 -459.906,1021.637 -459.981,1021.692 -460.055,1021.758 -460.123,1021.832 -460.187,1021.914 -460.246,1022.009 -460.302,1022.12 -460.355,1022.251 -460.404,1022.412 -460.448,1022.615 -460.482,1022.877 -460.5,1023.3 -460.5,1099.2 -738.7,1099.2 -738.7,1023.8 -738.682,1023.377 -738.648,1023.115 -738.604,1022.912 -738.555,1022.751 -738.502,1022.62 -738.446,1022.509 -738.387,1022.414 -738.323,1022.332 -738.255,1022.258 -738.181,1022.192 -738.106,1022.137 -738.026,1022.089 -737.934,1022.044 -737.827,1022.003 -737.699,1021.966 -737.54,1021.936 -737.334,1021.913 -737.157,1021.904 -736.384,1021.894 -736.104,1021.871 -735.92,1021.838 -735.796,1021.804 -735.69,1021.766 -735.596,1021.723 -735.512,1021.674 -735.432,1021.618 -735.359,1021.556 -735.289,1021.483 -735.222,1021.397 -735.163,1021.306 -735.106,1021.198 -735.051,1021.067 -735,1020.902 -734.953,1020.691 -734.917,1020.407 -734.9,1020 -734.9,867.2 -734.917,866.793 -734.953,866.509 -735,866.298 -735.051,866.134 -735.106,866.002 -735.163,865.894 -735.222,865.803 -735.289,865.717 -735.359,865.644 -735.432,865.582 -735.512,865.525 -735.596,865.477 -735.69,865.434 -735.796,865.395 -735.92,865.362 -736.104,865.329 -736.384,865.306 -737.157,865.296 -737.334,865.287 -737.54,865.264 -737.699,865.234 -737.827,865.197 -737.934,865.156 -738.026,865.111 -738.106,865.062 -738.181,865.008 -738.255,864.942 -738.323,864.868 -738.387,864.785 -738.446,864.691 -738.502,864.58 -738.555,864.449 -738.604,864.287 -738.648,864.085 -738.682,863.823 -738.7,863.4" fill="none" stroke="black" stroke-width="0.1mm" />
<polyline points="-734.9,783 -734.9,759.062 -738.7,759.062 -738.7,735.123 -734.9,735.123 -734.9,711.185 -738.7,711.185 -738.7,687.246 -734.9,687.246 -734.9,663.308 -738.7,663.308 -738.7,639.369 -734.9,639.369 -734.9,615.431 -738.7,615.431 -738.7,591.492 -734.9,591.492 -734.9,567.554 -738.7,567.554 -738.7,543.615 -734.9,543.615 -734.9,519.677 -738.7,519.677 -738.7,495.738 -734.9,495.738 -734.9,475.6 -714.777,475.6 -714.777,471.8 -694.654,471.8 -694.654,475.6 -674.531,475.6 -674.531,471.8 -654.408,471.8 -654.408,475.6 -634.285,475.6 -634.285,471.8 -614.162,471.8 -614.162,475.6 -594.038,475.6 -594.038,471.8 -573.915,471.8 -573.915,475.6 -553.792,475.6 -553.792,471.8 -533.669,471.8 -533.669,475.6 -513.546,475.6 -513.546,471.8 -493.423,471.8 -493.423,475.6 -473.3,475.6 -473.3,495.738 -469.5,495.738 -469.5,519.677 -473.3,519.677 -473.3,543.615 -469.5,543.615 -469.5,567.554 -473.3,567.554 -473.3,591.492 -469.5,591.492 -469.5,615.431 -473.3,615.431 -473.3,639.369 -469.5,639.369 -469.5,663.308 -473.3,663.308 -473.3,687.246 -469.5,687.246 -469.5,711.185 -473.3,711.185 -473.3,735.123 -469.5,735.123 -469.5,759.062 -473.3,759.062 -473.3,783 -734.9,783" fill="none" stroke="black" stroke-width="0.1mm" />
<polyline points="-471.9,1128.138 -468.1,1128.138 -468.1,1152.077 -471.9,1152.077 -471.9,1128.138" fill="none" stroke="black" stroke-width="0.1mm" />
<polyline points="-471.9,1176.015 -468.1,1176.015 -468.1,1199.954 -471.9,1199.954 -471.9,1176.015" fill="none" stroke="black" stroke-width="0.1mm" />
<polyline points="-471.9,1271.769 -468.1,1271.769 -468.1,1295.708 -471.9,1295.708 -471.9,1271.769" fill="none" stroke="black" stroke-width="0.1mm" />
<polyline points="-471.9,1319.646 -468.1,1319.646 -468.1,1343.585 -471.9,1343.585 -471.9,1319.646" fill="none" stroke="black" stroke-width="0.1mm" />
<polyline points="-471.9,1367.523 -468.1,1367.523 -468.1,1391.462 -471.9,1391.462 -471.9,1367.523" fill="none" stroke="black" stroke-width="0.1mm" />
<polyline points="-597.7,1152.077 -601.5,1152.077 -601.5,1128.138 -597.7,1128.138 -597.7,1152.077" fill="none" stroke="black" stroke-width="0.1mm" />
<polyline points="-597.7,1176.015 -597.7,1199.954 -601.5,1199.954 -601.5,1176.015 -597.7,1176.015" fill="none" stroke="black" stroke-width="0.1mm" />
<polyline points="-597.7,1271.769 -597.7,1295.708 -601.5,1295.708 -601.5,1271.769 -597.7,1271.769" fill="none" stroke="black" stroke-width="0.1mm" />
<polyline points="-597.7,1319.646 -597.7,1343.585 -601.5,1343.585 -601.5,1319.646 -597.7,1319.646" fill="none" stroke="black" stroke-width="0.1mm" />
<polyline points="-597.7,1367.523 -597.7,1391.462 -601.5,1391.462 -601.5,1367.523 -597.7,1367.523" fill="none" stroke="black" stroke-width="0.1mm" />
<polyline points="-662.5,1152.077 -666.3,1152.077 -666.3,1128.138 -662.5,1128.138 -662.5,1152.077" fill="none" stroke="black" stroke-width="0.1mm" />
<polyline points="-662.5,1176.015 -662.5,1199.954 -666.3,1199.954 -666.3,1176.015 -662.5,1176.015" fill="none" stroke="black" stroke-width="0.1mm" />
<polyline points="-662.5,1271.769 -662.5,1295.708 -666.3,1295.708 -666.3,1271.769 -662.5,1271.769" fill="none" stroke="black" stroke-width="0.1mm" />
<polyline points="-662.5,1319.646 -662.5,1343.585 -666.3,1343.585 -666.3,1319.646 -662.5,1319.646" fill="none" stroke="black" stroke-width="0.1mm" />
<polyline points="-662.5,1367.523 -662.5,1391.462 -666.3,1391.462 -666.3,1367.523 -662.5,1367.523" fill="none" stroke="black" stroke-width="0.1mm" />
<polyline points="-471.9,1247.831 -471.9,1223.892 -468.1,1223.892 -468.1,1247.831 -471.9,1247.831" fill="none" stroke="black" stroke-width="0.1mm" />
<polyline points="-597.7,1247.831 -601.5,1247.831 -601.5,1223.892 -597.7,1223.892 -597.7,1247.831" fill="none" stroke="black" stroke-width="0.1mm" />
<polyline points="-662.5,1247.831 -666.3,1247.831 -666.3,1223.892 -662.5,1223.892 -662.5,1247.831" fill="none" stroke="black" stroke-width="0.1mm" />
<polyline points="-536.7,1152.077 -536.7,1128.138 -532.9,1128.138 -532.9,1152.077 -536.7,1152.077" fill="none" stroke="black" stroke-width="0.1mm" />
<polyline points="-536.7,1176.015 -532.9,1176.015 -532.9,1199.954 -536.7,1199.954 -536.7,1176.015" fill="none" stroke="black" stroke-width="0.1mm" />
<polyline points="-536.7,1223.892 -532.9,1223.892 -532.9,1247.831 -536.7,1247.831 -536.7,1223.892" fill="none" stroke="black" stroke-width="0.1mm" />
<polyline points="-536.7,1271.769 -532.9,1271.769 -532.9,1295.708 -536.7,1295.708 -536.7,1271.769" fill="none" stroke="black" stroke-width="0.1mm" />
<polyline points="-536.7,1319.646 -532.9,1319.646 -532.9,1343.585 -536.7,1343.585 -536.7,1319.646" fill="none" stroke="black" stroke-width="0.1mm" />
<polyline points="-536.7,1367.523 -532.9,1367.523 -532.9,1391.462 -536.7,1391.462 -536.7,1367.523" fill="none" stroke="black" stroke-width="0.1mm" />
<polyline points="-727.3,1152.077 -731.1,1152.077 -731.1,1128.138 -727.3,1128.138 -727.3,1152.077" fill="none" stroke="black" stroke-width="0.1mm" />
<polyline points="-727.3,1176.015 -727.3,1199.954 -731.1,1199.954 -731.1,1176.015 -727.3,1176.015" fill="none" stroke="black" stroke-width="0.1mm" />
<polyline points="-727.3,1223.892 -727.3,1247.831 -731.1,1247.831 -731.1,1223.892 -727.3,1223.892" fill="none" stroke="black" stroke-width="0.1mm" />
<polyline points="-727.3,1271.769 -727.3,1295.708 -731.1,1295.708 -731.1,1271.769 -727.3,1271.769" fill="none" stroke="black" stroke-width="0.1mm" />
<polyline points="-727.3,1319.646 -727.3,1343.585 -731.1,1343.585 -731.1,1319.646 -727.3,1319.646" fill="none" stroke="black" stroke-width="0.1mm" />
<polyline points="-727.3,1367.523 -727.3,1391.462 -731.1,1391.462 -731.1,1367.523 -727.3,1367.523" fill="none" stroke="black" stroke-width="0.1mm" />
<polyline points="-738.7,1340 -738.682,1339.577 -738.648,1339.315 -738.604,1339.113 -738.555,1338.951 -738.502,1338.82 -738.446,1338.709 -738.387,1338.614 -738.323,1338.532 -738.255,1338.458 -738.181,1338.392 -738.106,1338.337 -738.026,1338.289 -737.934,1338.244 -737.827,1338.203 -737.699,1338.166 -737.54,1338.136 -737.334,1338.113 -737.157,1338.104 -736.384,1338.094 -736.104,1338.071 -735.92,1338.038 -735.796,1338.004 -735.69,1337.966 -735.596,1337.923 -735.512,1337.874 -735.432,1337.818 -735.359,1337.756 -735.289,1337.683 -735.222,1337.597 -735.163,1337.506 -735.106,1337.398 -735.051,1337.267 -735,1337.103 -734.953,1336.891 -734.917,1336.607 -734.9,1336.2 -734.9,1183.4 -734.917,1182.993 -734.953,1182.709 -735,1182.497 -735.051,1182.333 -735.106,1182.202 -735.163,1182.094 -735.222,1182.003 -735.289,1181.917 -735.359,1181.844 -735.432,1181.782 -735.512,1181.726 -735.596,1181.677 -735.69,1181.634 -735.796,1181.595 -735.92,1181.562 -736.104,1181.529 -736.384,1181.506 -737.157,1181.496 -737.334,1181.487 -737.54,1181.464 -737.699,1181.434 -737.827,1181.397 -737.934,1181.356 -738.026,1181.311 -738.106,1181.262 -738.181,1181.208 -738.255,1181.142 -738.323,1181.068 -738.387,1180.986 -738.446,1180.891 -738.502,1180.78 -738.555,1180.649 -738.604,1180.487 -738.648,1180.285 -738.682,1180.023 -738.7,1179.6 -738.7,1104.2 -460.5,1104.2 -460.5,1180.1 -460.482,1180.523 -460.448,1180.785 -460.404,1180.987 -460.355,1181.149 -460.302,1181.28 -460.246,1181.391 -460.187,1181.486 -460.123,1181.568 -460.055,1181.642 -459.981,1181.708 -459.906,1181.762 -459.826,1181.811 -459.734,1181.856 -459.627,1181.897 -459.499,1181.934 -459.34,1181.964 -459.134,1181.987 -458.957,1181.996 -458.184,1182.006 -457.904,1182.029 -457.72,1182.062 -457.596,1182.095 -457.49,1182.134 -457.396,1182.177 -457.312,1182.226 -457.232,1182.282 -457.159,1182.344 -457.089,1182.417 -457.022,1182.503 -456.963,1182.594 -456.906,1182.702 -456.851,1182.833 -456.8,1182.997 -456.753,1183.209 -456.717,1183.493 -456.7,1183.9 -456.7,1335.7 -456.717,1336.107 -456.753,1336.391 -456.8,1336.603 -456.851,1336.767 -456.906,1336.898 -456.963,1337.006 -457.022,1337.097 -457.089,1337.183 -457.159,1337.256 -457.232,1337.318 -457.312,1337.374 -457.396,1337.423 -457.49,1337.466 -457.596,1337.504 -457.72,1337.538 -457.904,1337.571 -458.184,1337.594 -458.957,1337.604 -459.134,1337.613 -459.34,1337.636 -459.499,1337.666 -459.627,1337.703 -459.734,1337.744 -459.826,1337.789 -459.906,1337.837 -459.981,1337.892 -460.055,1337.958 -460.123,1338.032 -460.187,1338.114 -460.246,1338.209 -460.302,1338.32 -460.355,1338.451 -460.404,1338.613 -460.448,1338.815 -460.482,1339.077 -460.5,1339.5 -460.5,1415.4 -468.1,1415.4 -468.1,1411.6 -483.571,1411.6 -483.571,1415.4 -499.041,1415.4 -499.041,1411.6 -514.512,1411.6 -514.512,1415.4 -529.982,1415.4 -529.982,1411.6 -545.453,1411.6 -545.453,1415.4 -560.924,1415.4 -560.924,1411.6 -576.394,1411.6 -576.394,1415.4 -591.865,1415.4 -591.865,1411.6 -607.335,1411.6 -607.335,1415.4 -622.806,1415.4 -622.806,1411.6 -638.276,1411.6 -638.276,1415.4 -653.747,1415.4 -653.747,1411.6 -669.218,1411.6 -669.218,1415.4 -684.688,1415.4 -684.688,1411.6 -700.159,1411.6 -700.159,1415.4 -715.629,1415.4 -715.629,1411.6 -731.1,1411.6 -731.1,1415.4 -738.7,1415.4 -738.7,1340" fill="none" stroke="black" stroke-width="0.1mm" />
<polyline points="369.5,736.2 369.5,732.4 389.5,732.4 389.5,736.2 369.5,736.2" fill="none" stroke="black" stroke-width="0.1mm" />
<polyline points="353.3,742.013 349.5,742.013 349.5,721.52 353.3,721.52 353.3,701.027 349.5,701.027 349.5,680.533 353.3,680.533 353.3,660.04 349.5,660.04 349.5,639.547 353.3,639.547 353.3,619.053 349.5,619.053 349.5,598.56 353.3,598.56 353.3,578.067 349.5,578.067 349.5,557.573 353.3,557.573 353.3,537.08 349.5,537.08 349.5,516.587 353.3,516.587 353.3,496.093 349.5,496.093 349.5,475.6 369.5,475.6 369.5,479.4 389.5,479.4 389.5,475.6 409.5,475.6 409.5,783 389.5,783 389.5,779.2 369.5,779.2 369.5,783 349.5,783 349.5,762.507 353.3,762.507 353.3,742.013" fill="none" stroke="black" stroke-width="0.1mm" />
<polyline points="434.5,736.2 434.5,732.4 454.5,732.4 454.5,736.2 434.5,736.2" fill="none" stroke="black" stroke-width="0.1mm" />
<polyline points="418.3,742.013 414.5,742.013 414.5,721.52 418.3,721.52 418.3,701.027 414.5,701.027 414.5,680.533 418.3,680.533 418.3,660.04 414.5,660.04 414.5,639.547 418.3,639.547 418.3,619.053 414.5,619.053 414.5,598.56 418.3,598.56 418.3,578.067 414.5,578.067 414.5,557.573 418.3,557.573 418.3,537.08 414.5,537.08 414.5,516.587 418.3,516.587 418.3,496.093 414.5,496.093 414.5,475.6 434.5,475.6 434.5,479.4 454.5,479.4 454.5,475.6 474.5,475.6 474.5,783 454.5,783 454.5,779.2 434.5,779.2 434.5,783 414.5,783 414.5,762.507 418.3,762.507 418.3,742.013" fill="none" stroke="black" stroke-width="0.1mm" />
<polyline points="499.5,736.2 499.5,732.4 519.5,732.4 519.5,736.2 499.5,736.2" fill="none" stroke="black" stroke-width="0.1mm" />
<polyline points="483.3,742.013 479.5,742.013 479.5,721.52 483.3,721.52 483.3,701.027 479.5,701.027 479.5,680.533 483.3,680.533 483.3,660.04 479.5,660.04 479.5,639.547 483.3,639.547 483.3,619.053 479.5,619.053 479.5,598.56 483.3,598.56 483.3,578.067 479.5,578.067 479.5,557.573 483.3,557.573 483.3,537.08 479.5,537.08 479.5,516.587 483.3,516.587 483.3,496.093 479.5,496.093 479.5,475.6 499.5,475.6 499.5,479.4 519.5,479.4 519.5,475.6 539.5,475.6 539.5,783 519.5,783 519.5,779.2 499.5,779.2 499.5,783 479.5,783 479.5,762.507 483.3,762.507 483.3,742.013" fill="none" stroke="black" stroke-width="0.1mm" />
<polyline points="564.5,736.2 564.5,732.4 584.5,732.4 584.5,736.2 564.5,736.2" fill="none" stroke="black" stroke-width="0.1mm" />
<polyline points="548.3,742.013 544.5,742.013 544.5,721.52 548.3,721.52 548.3,701.027 544.5,701.027 544.5,680.533 548.3,680.533 548.3,660.04 544.5,660.04 544.5,639.547 548.3,639.547 548.3,619.053 544.5,619.053 544.5,598.56 548.3,598.56 548.3,578.067 544.5,578.067 544.5,557.573 548.3,557.573 548.3,537.08 544.5,537.08 544.5,516.587 548.3,516.587 548.3,496.093 544.5,496.093 544.5,475.6 564.5,475.6 564.5,479.4 584.5,479.4 584.5,475.6 604.5,475.6 604.5,783 584.5,783 584.5,779.2 564.5,779.2 564.5,783 544.5,783 544.5,762.507 548.3,762.507 548.3,742.013" fill="none" stroke="black" stroke-width="0.1mm" />
<polyline points="609.5,779.2 609.5,526.2 629.5,526.2 629.5,522.4 649.5,522.4 649.5,526.2 665.7,526.2 665.7,542.446 669.5,542.446 669.5,562.492 665.7,562.492 665.7,582.538 669.5,582.538 669.5,602.585 665.7,602.585 665.7,622.631 669.5,622.631 669.5,642.677 665.7,642.677 665.7,662.723 669.5,662.723 669.5,682.769 665.7,682.769 665.7,702.815 669.5,702.815 669.5,722.862 665.7,722.862 665.7,742.908 669.5,742.908 669.5,762.954 665.7,762.954 665.7,779.2 649.5,779.2 649.5,783 629.5,783 629.5,779.2 609.5,779.2" fill="none" stroke="black" stroke-width="0.1mm" />
<polyline points="674.5,779.2 674.5,526.2 694.5,526.2 694.5,522.4 714.5,522.4 714.5,526.2 734.5,526.2 734.5,545.662 730.7,545.662 730.7,565.123 734.5,565.123 734.5,584.585 730.7,584.585 730.7,604.046 734.5,604.046 734.5,623.508 730.7,623.508 730.7,642.969 734.5,642.969 734.5,662.431 730.7,662.431 730.7,681.892 734.5,681.892 734.5,701.354 730.7,701.354 730.7,720.815 734.5,720.815 734.5,740.277 730.7,740.277 730.7,759.738 734.5,759.738 734.5,779.2 714.5,779.2 714.5,783 694.5,783 694.5,779.2 674.5,779.2" fill="none" stroke="black" stroke-width="0.1mm" />
</svg>