<?xml version="1.0" encoding="UTF-8" standalone="no"?>
<svg
   width="228.8mm"
   height="377.8mm"
   viewBox="0 0 228.8 377.8"
   version="1.1"
   id="svg34"
   sodipodi:docname="Laser-Layout-1x1x1.svg"
   inkscape:version="1.4.2 (f4327f4, 2025-05-13)"
   xmlns:inkscape="http://www.inkscape.org/namespaces/inkscape"
   xmlns:sodipodi="http://sodipodi.sourceforge.net/DTD/sodipodi-0.dtd"
   xmlns="http://www.w3.org/2000/svg"
   xmlns:svg="http://www.w3.org/2000/svg">
  <defs
     id="defs34" />
  <sodipodi:namedview
     id="namedview34"
     pagecolor="#ffffff"
     bordercolor="#000000"
     borderopacity="0.25"
     inkscape:showpageshadow="2"
     inkscape:pageopacity="0.0"
     inkscape:pagecheckerboard="0"
     inkscape:deskcolor="#d1d1d1"
     inkscape:document-units="mm"
     inkscape:zoom="0.60068439"
     inkscape:cx="556.03243"
     inkscape:cy="773.28462"
     inkscape:window-width="2560"
     inkscape:window-height="1494"
     inkscape:window-x="-11"
     inkscape:window-y="-11"
     inkscape:window-maximized="1"
     inkscape:current-layer="svg34" />
  <polyline
     points="2.557,372.892 2.696,372.948 2.866,372.999 3.079,373.045 3.355,373.081 3.8,373.1 12.8,373.1 12.8,384.9 -38.8,384.9 -38.8,373.1 -29.8,373.1 -29.372,373.083 -29.073,373.044 -28.85,372.995 -28.677,372.941 -28.539,372.883 -28.425,372.823 -28.329,372.761 -28.239,372.69 -28.163,372.617 -28.037,372.456 -27.941,372.268 -27.865,372.027 -27.831,371.832 -27.806,371.538 -27.796,370.724 -27.786,370.538 -27.762,370.321 -27.73,370.154 -27.692,370.019 -27.649,369.907 -27.55,369.725 -27.423,369.568 -27.345,369.496 -27.159,369.367 -27.043,369.308 -26.904,369.252 -26.734,369.201 -26.521,369.155 -26.245,369.119 -25.8,369.1 -0.2,369.1 0.228,369.117 0.527,369.156 0.75,369.205 0.923,369.259 1.061,369.317 1.175,369.377 1.271,369.439 1.361,369.51 1.437,369.583 1.563,369.744 1.659,369.932 1.735,370.173 1.769,370.368 1.794,370.662 1.804,371.476 1.814,371.662 1.838,371.879 1.87,372.046 1.908,372.181 1.951,372.293 2.05,372.475 2.177,372.632 2.255,372.704 2.441,372.833 2.557,372.892"
     fill="none"
     stroke="#000000"
     stroke-width="0.1mm"
     id="polyline1"
     transform="translate(114.4,-188.90001)" />
  <polyline
     points="-0.6,448.7 -0.6,452.5 -17.8,452.5 -17.8,448.7 -0.6,448.7"
     fill="none"
     stroke="#000000"
     stroke-width="0.1mm"
     id="polyline2"
     transform="translate(114.4,-188.90001)" />
  <polyline
     points="-0.6,405.7 -17.8,405.7 -17.8,401.9 -0.6,401.9 -0.6,405.7"
     fill="none"
     stroke="#000000"
     stroke-width="0.1mm"
     id="polyline3"
     transform="translate(114.4,-188.90001)" />
  <polyline
     points="6.225,393.623 6.339,393.683 6.477,393.741 6.65,393.795 6.873,393.844 7.172,393.883 7.6,393.9 16.6,393.9 16.6,418.767 20.4,418.767 20.4,435.633 16.6,435.633 16.6,460.5 12.6,460.5 11.242,460.452 10.498,460.365 10.019,460.269 9.695,460.174 9.464,460.084 9.292,459.999 9.159,459.917 9.046,459.832 8.96,459.755 8.883,459.67 8.819,459.585 8.723,459.409 8.655,459.204 8.626,459.057 8.606,458.85 8.587,458.061 8.561,457.87 8.498,457.641 8.457,457.548 8.351,457.373 8.203,457.21 8.109,457.132 7.949,457.025 7.796,456.944 7.601,456.86 7.341,456.774 6.899,456.669 6.169,456.567 4.795,456.501 -22.5,456.5 -23.858,456.548 -24.602,456.635 -25.081,456.731 -25.405,456.826 -25.636,456.916 -25.808,457.001 -25.941,457.083 -26.054,457.168 -26.14,457.245 -26.217,457.33 -26.281,457.415 -26.377,457.591 -26.445,457.796 -26.474,457.943 -26.494,458.15 -26.513,458.939 -26.539,459.13 -26.602,459.359 -26.643,459.452 -26.749,459.627 -26.897,459.79 -27,459.875 -27.151,459.975 -27.304,460.056 -27.499,460.14 -27.759,460.226 -28.201,460.331 -28.931,460.433 -30.305,460.499 -35,460.5 -35,435.633 -38.8,435.633 -38.8,418.767 -35,418.767 -35,393.9 -26,393.9 -25.555,393.881 -25.279,393.845 -25.066,393.799 -24.896,393.748 -24.757,393.692 -24.641,393.633 -24.455,393.504 -24.377,393.432 -24.25,393.275 -24.151,393.093 -24.108,392.981 -24.07,392.846 -24.038,392.679 -24.014,392.462 -24.004,392.276 -23.994,391.462 -23.969,391.168 -23.935,390.973 -23.859,390.732 -23.763,390.544 -23.637,390.383 -23.561,390.31 -23.471,390.239 -23.375,390.177 -23.261,390.117 -23.123,390.059 -22.95,390.005 -22.727,389.956 -22.428,389.917 -22,389.9 3.6,389.9 4.045,389.919 4.321,389.955 4.534,390.001 4.704,390.052 4.843,390.108 4.959,390.167 5.145,390.296 5.223,390.368 5.35,390.525 5.449,390.707 5.492,390.819 5.53,390.954 5.562,391.121 5.586,391.338 5.596,391.524 5.606,392.338 5.631,392.632 5.665,392.827 5.741,393.068 5.837,393.256 5.963,393.417 6.039,393.49 6.129,393.561 6.225,393.623"
     fill="none"
     stroke="#000000"
     stroke-width="0.1mm"
     id="polyline4"
     transform="translate(114.4,-188.90001)" />
  <polyline
     points="25.4,413.7 39.4,413.7 39.4,409.9 53.4,409.9 53.4,413.7 67.4,413.7 67.4,428.033 63.6,428.033 63.6,442.367 67.4,442.367 67.4,456.7 53.4,456.7 53.4,460.5 39.4,460.5 39.4,456.7 25.4,456.7 25.4,413.7"
     fill="none"
     stroke="#000000"
     stroke-width="0.1mm"
     id="polyline5"
     transform="translate(114.4,-188.90001)" />
  <polyline
     points="74.586,422.139 74.63,421.963 74.691,421.792 74.768,421.628 74.862,421.472 74.97,421.326 75.092,421.192 75.226,421.07 75.372,420.962 75.528,420.868 75.692,420.791 75.863,420.73 76.039,420.686 76.219,420.659 76.4,420.65 110.4,420.65 110.581,420.659 110.761,420.686 110.937,420.73 111.108,420.791 111.272,420.868 111.428,420.962 111.574,421.07 111.708,421.192 111.83,421.326 111.938,421.472 112.032,421.628 112.109,421.792 112.17,421.963 112.214,422.139 112.241,422.319 112.25,422.5 112.25,456.5 112.241,456.681 112.214,456.861 112.17,457.037 112.109,457.208 112.032,457.372 111.938,457.528 111.83,457.674 111.708,457.808 111.574,457.93 111.428,458.038 111.272,458.132 111.108,458.209 110.937,458.27 110.761,458.314 110.581,458.341 110.4,458.35 76.4,458.35 76.219,458.341 76.039,458.314 75.863,458.27 75.692,458.209 75.528,458.132 75.372,458.038 75.226,457.93 75.092,457.808 74.97,457.674 74.862,457.528 74.768,457.372 74.691,457.208 74.63,457.037 74.586,456.861 74.559,456.681 74.55,456.5 74.55,422.5 74.559,422.319 74.586,422.139"
     fill="none"
     stroke="#000000"
     stroke-width="0.1mm"
     id="polyline6"
     transform="translate(114.4,-188.90001)" />
  <polyline
     points="72.477,421.72 72.572,421.339 72.704,420.969 72.872,420.614 73.074,420.278 73.308,419.962 73.572,419.672 73.862,419.408 74.178,419.174 74.514,418.972 74.869,418.804 75.239,418.672 75.62,418.577 76.008,418.519 76.4,418.5 110.4,418.5 110.792,418.519 111.18,418.577 111.561,418.672 111.931,418.804 112.286,418.972 112.622,419.174 112.938,419.408 113.228,419.672 113.492,419.962 113.726,420.278 113.928,420.614 114.096,420.969 114.228,421.339 114.323,421.72 114.381,422.108 114.4,422.5 114.4,456.5 114.381,456.892 114.323,457.28 114.228,457.661 114.096,458.031 113.928,458.386 113.726,458.722 113.492,459.038 113.228,459.328 112.938,459.592 112.622,459.826 112.286,460.028 111.931,460.196 111.561,460.328 111.18,460.423 110.792,460.481 110.4,460.5 76.4,460.5 76.008,460.481 75.62,460.423 75.239,460.328 74.869,460.196 74.514,460.028 74.178,459.826 73.862,459.592 73.572,459.328 73.308,459.038 73.074,458.722 72.872,458.386 72.704,458.031 72.572,457.661 72.477,457.28 72.419,456.892 72.4,456.5 72.4,422.5 72.419,422.108 72.477,421.72"
     fill="none"
     stroke="#000000"
     stroke-width="0.1mm"
     id="polyline7"
     transform="translate(114.4,-188.90001)" />
  <polyline
     points="66.4,354.3 66.4,350.5 52.4,350.5 52.4,307.5 66.4,307.5 66.4,303.7 80.4,303.7 80.4,307.5 90.6,307.5 90.6,320.567 94.4,320.567 94.4,337.433 90.6,337.433 90.6,350.5 80.4,350.5 80.4,354.3 66.4,354.3"
     fill="none"
     stroke="#000000"
     stroke-width="0.1mm"
     id="polyline8"
     transform="translate(114.4,-188.90001)" />
  <polyline
     points="33.4,307.5 19.4,307.5 19.4,303.7 33.4,303.7 33.4,307.5"
     fill="none"
     stroke="#000000"
     stroke-width="0.1mm"
     id="polyline9"
     transform="translate(114.4,-188.90001)" />
  <polyline
     points="9.2,315.34 5.4,315.34 5.4,295.86 9.2,295.86 9.2,276.38 5.4,276.38 5.4,256.9 19.4,256.9 19.4,260.7 33.4,260.7 33.4,256.9 47.4,256.9 47.4,354.3 33.4,354.3 33.4,350.5 19.4,350.5 19.4,354.3 5.4,354.3 5.4,334.82 9.2,334.82 9.2,315.34"
     fill="none"
     stroke="#000000"
     stroke-width="0.1mm"
     id="polyline10"
     transform="translate(114.4,-188.90001)" />
  <polyline
     points="-16.467,307.5 -33.333,307.5 -33.333,303.7 -16.467,303.7 -16.467,307.5"
     fill="none"
     stroke="#000000"
     stroke-width="0.1mm"
     id="polyline11"
     transform="translate(114.4,-188.90001)" />
  <polyline
     points="-3.4,315.34 0.4,315.34 0.4,334.82 -3.4,334.82 -3.4,350.5 -17.733,350.5 -17.733,354.3 -32.067,354.3 -32.067,350.5 -46.4,350.5 -46.4,334.82 -50.2,334.82 -50.2,315.34 -46.4,315.34 -46.4,295.86 -50.2,295.86 -50.2,276.38 -46.4,276.38 -46.4,260.7 -32.067,260.7 -32.067,256.9 -17.733,256.9 -17.733,260.7 -3.4,260.7 -3.4,276.38 0.4,276.38 0.4,295.86 -3.4,295.86 -3.4,315.34"
     fill="none"
     stroke="#000000"
     stroke-width="0.1mm"
     id="polyline12"
     transform="translate(114.4,-188.90001)" />
  <polyline
     points="-55.2,313.82 -55.2,334.06 -59,334.06 -59,350.5 -77.633,350.5 -77.633,354.3 -91.967,354.3 -91.967,350.5 -110.6,350.5 -110.6,334.06 -114.4,334.06 -114.4,313.82 -110.6,313.82 -110.6,293.58 -114.4,293.58 -114.4,273.34 -110.6,273.34 -110.6,256.9 -93.4,256.9 -93.4,253.1 -76.2,253.1 -76.2,256.9 -59,256.9 -59,273.34 -55.2,273.34 -55.2,293.58 -59,293.58 -59,313.82 -55.2,313.82"
     fill="none"
     stroke="#000000"
     stroke-width="0.1mm"
     id="polyline13"
     transform="translate(114.4,-188.90001)" />
  <polyline
     points="-55.8,379.54 -55.8,399.78 -59.6,399.78 -59.6,379.54 -55.8,379.54"
     fill="none"
     stroke="#000000"
     stroke-width="0.1mm"
     id="polyline14"
     transform="translate(114.4,-188.90001)" />
  <polyline
     points="-55.8,420.02 -55.8,440.26 -59.6,440.26 -59.6,420.02 -55.8,420.02"
     fill="none"
     stroke="#000000"
     stroke-width="0.1mm"
     id="polyline15"
     transform="translate(114.4,-188.90001)" />
  <polyline
     points="-102.6,399.78 -106.4,399.78 -106.4,379.54 -102.6,379.54 -102.6,399.78"
     fill="none"
     stroke="#000000"
     stroke-width="0.1mm"
     id="polyline16"
     transform="translate(114.4,-188.90001)" />
  <polyline
     points="-102.6,420.02 -102.6,440.26 -106.4,440.26 -106.4,420.02 -102.6,420.02"
     fill="none"
     stroke="#000000"
     stroke-width="0.1mm"
     id="polyline17"
     transform="translate(114.4,-188.90001)" />
  <polyline
     points="-110.4,433.7 -110.4,386.1 -110.417,385.672 -110.456,385.373 -110.505,385.15 -110.559,384.977 -110.617,384.839 -110.677,384.725 -110.739,384.629 -110.81,384.539 -110.883,384.463 -111.044,384.337 -111.232,384.241 -111.473,384.165 -111.668,384.131 -111.962,384.106 -112.776,384.096 -112.962,384.086 -113.179,384.062 -113.346,384.03 -113.481,383.992 -113.593,383.949 -113.775,383.85 -113.932,383.723 -114.004,383.645 -114.133,383.459 -114.192,383.343 -114.248,383.204 -114.299,383.034 -114.345,382.821 -114.381,382.545 -114.4,382.1 -114.4,359.3 -47.8,359.3 -47.8,382.6 -47.781,383.045 -47.745,383.321 -47.699,383.534 -47.648,383.704 -47.592,383.843 -47.533,383.959 -47.404,384.145 -47.332,384.223 -47.175,384.35 -46.993,384.449 -46.881,384.492 -46.746,384.53 -46.579,384.562 -46.362,384.586 -46.176,384.596 -45.362,384.606 -45.068,384.631 -44.873,384.665 -44.632,384.741 -44.444,384.837 -44.283,384.963 -44.21,385.039 -44.139,385.129 -44.077,385.225 -44.017,385.339 -43.959,385.477 -43.905,385.65 -43.856,385.873 -43.817,386.172 -43.8,386.6 -43.8,433.2 -43.817,433.628 -43.856,433.927 -43.905,434.15 -43.959,434.323 -44.017,434.461 -44.077,434.575 -44.139,434.671 -44.21,434.761 -44.283,434.837 -44.444,434.963 -44.632,435.059 -44.873,435.135 -45.068,435.169 -45.362,435.194 -46.176,435.204 -46.362,435.214 -46.579,435.238 -46.746,435.27 -46.881,435.308 -46.993,435.351 -47.175,435.45 -47.332,435.577 -47.404,435.655 -47.533,435.841 -47.592,435.957 -47.648,436.096 -47.699,436.266 -47.745,436.479 -47.781,436.755 -47.8,437.2 -47.8,460.5 -72.667,460.5 -72.667,456.7 -89.533,456.7 -89.533,460.5 -114.4,460.5 -114.4,437.7 -114.381,437.255 -114.345,436.979 -114.299,436.766 -114.248,436.596 -114.192,436.457 -114.133,436.341 -114.004,436.155 -113.932,436.077 -113.775,435.95 -113.593,435.851 -113.481,435.808 -113.346,435.77 -113.179,435.738 -112.962,435.714 -112.776,435.704 -111.962,435.694 -111.668,435.669 -111.473,435.635 -111.232,435.559 -111.044,435.463 -110.883,435.337 -110.81,435.261 -110.739,435.171 -110.677,435.075 -110.617,434.961 -110.559,434.823 -110.505,434.65 -110.456,434.427 -110.417,434.128 -110.4,433.7"
     fill="none"
     stroke="#000000"
     stroke-width="0.1mm"
     id="polyline18"
     transform="translate(114.4,-188.90001)" />
  <polyline
     points="-59.6,485.74 -55.8,485.74 -55.8,505.98 -59.6,505.98 -59.6,485.74"
     fill="none"
     stroke="#000000"
     stroke-width="0.1mm"
     id="polyline19"
     transform="translate(114.4,-188.90001)" />
  <polyline
     points="-59.6,526.22 -55.8,526.22 -55.8,546.46 -59.6,546.46 -59.6,526.22"
     fill="none"
     stroke="#000000"
     stroke-width="0.1mm"
     id="polyline20"
     transform="translate(114.4,-188.90001)" />
  <polyline
     points="-102.6,505.98 -106.4,505.98 -106.4,485.74 -102.6,485.74 -102.6,505.98"
     fill="none"
     stroke="#000000"
     stroke-width="0.1mm"
     id="polyline21"
     transform="translate(114.4,-188.90001)" />
  <polyline
     points="-102.6,526.22 -102.6,546.46 -106.4,546.46 -106.4,526.22 -102.6,526.22"
     fill="none"
     stroke="#000000"
     stroke-width="0.1mm"
     id="polyline22"
     transform="translate(114.4,-188.90001)" />
  <polyline
     points="-110.4,539.9 -110.4,492.3 -110.417,491.872 -110.456,491.573 -110.505,491.35 -110.559,491.177 -110.617,491.039 -110.677,490.925 -110.739,490.829 -110.81,490.739 -110.883,490.663 -111.044,490.537 -111.232,490.441 -111.473,490.365 -111.668,490.331 -111.962,490.306 -112.776,490.296 -112.962,490.286 -113.179,490.262 -113.346,490.23 -113.481,490.192 -113.593,490.149 -113.775,490.05 -113.932,489.923 -114.004,489.845 -114.133,489.659 -114.192,489.543 -114.248,489.404 -114.299,489.234 -114.345,489.021 -114.381,488.745 -114.4,488.3 -114.4,465.5 -89.533,465.5 -89.533,469.3 -72.667,469.3 -72.667,465.5 -47.8,465.5 -47.8,488.8 -47.781,489.245 -47.745,489.521 -47.699,489.734 -47.648,489.904 -47.592,490.043 -47.533,490.159 -47.404,490.345 -47.332,490.423 -47.175,490.55 -46.993,490.649 -46.881,490.692 -46.746,490.73 -46.579,490.762 -46.362,490.786 -46.176,490.796 -45.362,490.806 -45.068,490.831 -44.873,490.865 -44.632,490.941 -44.444,491.037 -44.283,491.163 -44.21,491.239 -44.139,491.329 -44.077,491.425 -44.017,491.539 -43.959,491.677 -43.905,491.85 -43.856,492.073 -43.817,492.372 -43.8,492.8 -43.8,539.4 -43.817,539.828 -43.856,540.127 -43.905,540.35 -43.959,540.523 -44.017,540.661 -44.077,540.775 -44.139,540.871 -44.21,540.961 -44.283,541.037 -44.444,541.163 -44.632,541.259 -44.873,541.335 -45.068,541.369 -45.362,541.394 -46.176,541.404 -46.362,541.414 -46.579,541.438 -46.746,541.47 -46.881,541.508 -46.993,541.551 -47.175,541.65 -47.332,541.777 -47.404,541.855 -47.533,542.041 -47.592,542.157 -47.648,542.296 -47.699,542.466 -47.745,542.679 -47.781,542.955 -47.8,543.4 -47.8,566.7 -114.4,566.7 -114.4,543.9 -114.381,543.455 -114.345,543.179 -114.299,542.966 -114.248,542.796 -114.192,542.657 -114.133,542.541 -114.004,542.355 -113.932,542.277 -113.775,542.15 -113.593,542.051 -113.481,542.008 -113.346,541.97 -113.179,541.938 -112.962,541.914 -112.776,541.904 -111.962,541.894 -111.668,541.869 -111.473,541.835 -111.232,541.759 -111.044,541.663 -110.883,541.537 -110.81,541.461 -110.739,541.371 -110.677,541.275 -110.617,541.161 -110.559,541.023 -110.505,540.85 -110.456,540.627 -110.417,540.328 -110.4,539.9"
     fill="none"
     stroke="#000000"
     stroke-width="0.1mm"
     id="polyline23"
     transform="translate(114.4,-188.90001)" />
  <polyline
     points="-32.85,524.9 -32.841,524.719 -32.814,524.539 -32.77,524.363 -32.709,524.192 -32.632,524.028 -32.538,523.872 -32.43,523.726 -32.308,523.592 -32.174,523.47 -32.028,523.362 -31.872,523.268 -31.708,523.191 -31.537,523.13 -31.361,523.086 -31.181,523.059 -31,523.05 3,523.05 3.181,523.059 3.361,523.086 3.537,523.13 3.708,523.191 3.872,523.268 4.028,523.362 4.174,523.47 4.308,523.592 4.43,523.726 4.538,523.872 4.632,524.028 4.709,524.192 4.77,524.363 4.814,524.539 4.841,524.719 4.85,524.9 4.85,558.9 4.841,559.081 4.814,559.261 4.77,559.437 4.709,559.608 4.632,559.772 4.538,559.928 4.43,560.074 4.308,560.208 4.174,560.33 4.028,560.438 3.872,560.532 3.708,560.609 3.537,560.67 3.361,560.714 3.181,560.741 3,560.75 -31,560.75 -31.181,560.741 -31.361,560.714 -31.537,560.67 -31.708,560.609 -31.872,560.532 -32.028,560.438 -32.174,560.33 -32.308,560.208 -32.43,560.074 -32.538,559.928 -32.632,559.772 -32.709,559.608 -32.77,559.437 -32.814,559.261 -32.841,559.081 -32.85,558.9 -32.85,524.9"
     fill="none"
     stroke="#000000"
     stroke-width="0.1mm"
     id="polyline24"
     transform="translate(114.4,-188.90001)" />
  <polyline
     points="-31.361,518.714 -31.537,518.67 -31.708,518.609 -31.872,518.532 -32.028,518.438 -32.174,518.33 -32.308,518.208 -32.43,518.074 -32.538,517.928 -32.632,517.772 -32.709,517.608 -32.77,517.437 -32.814,517.261 -32.841,517.081 -32.85,516.9 -32.85,482.9 -32.841,482.719 -32.814,482.539 -32.77,482.363 -32.709,482.192 -32.632,482.028 -32.538,481.872 -32.43,481.726 -32.308,481.592 -32.174,481.47 -32.028,481.362 -31.872,481.268 -31.708,481.191 -31.537,481.13 -31.361,481.086 -31.181,481.059 -31,481.05 3,481.05 3.181,481.059 3.361,481.086 3.537,481.13 3.708,481.191 3.872,481.268 4.028,481.362 4.174,481.47 4.308,481.592 4.43,481.726 4.538,481.872 4.632,482.028 4.709,482.192 4.77,482.363 4.814,482.539 4.841,482.719 4.85,482.9 4.85,516.9 4.841,517.081 4.814,517.261 4.77,517.437 4.709,517.608 4.632,517.772 4.538,517.928 4.43,518.074 4.308,518.208 4.174,518.33 4.028,518.438 3.872,518.532 3.708,518.609 3.537,518.67 3.361,518.714 3.181,518.741 3,518.75 -31,518.75 -31.181,518.741 -31.361,518.714"
     fill="none"
     stroke="#000000"
     stroke-width="0.1mm"
     id="polyline25"
     transform="translate(114.4,-188.90001)" />
  <polyline
     points="-38.8,479.1 -38.781,478.708 -38.723,478.32 -38.628,477.939 -38.496,477.569 -38.328,477.214 -38.126,476.878 -37.892,476.562 -37.628,476.272 -37.338,476.008 -37.022,475.774 -36.686,475.572 -36.331,475.404 -35.961,475.272 -35.58,475.177 -35.192,475.119 -34.8,475.1 6.8,475.1 7.192,475.119 7.58,475.177 7.961,475.272 8.331,475.404 8.686,475.572 9.022,475.774 9.338,476.008 9.628,476.272 9.892,476.562 10.126,476.878 10.328,477.214 10.496,477.569 10.628,477.939 10.723,478.32 10.781,478.708 10.8,479.1 10.8,562.7 10.781,563.092 10.723,563.48 10.628,563.861 10.496,564.231 10.328,564.586 10.126,564.922 9.892,565.238 9.628,565.528 9.338,565.792 9.022,566.026 8.686,566.228 8.331,566.396 7.961,566.528 7.58,566.623 7.192,566.681 6.8,566.7 -34.8,566.7 -35.192,566.681 -35.58,566.623 -35.961,566.528 -36.331,566.396 -36.686,566.228 -37.022,566.026 -37.338,565.792 -37.628,565.528 -37.892,565.238 -38.126,564.922 -38.328,564.586 -38.496,564.231 -38.628,563.861 -38.723,563.48 -38.781,563.092 -38.8,562.7 -38.8,479.1"
     fill="none"
     stroke="#000000"
     stroke-width="0.1mm"
     id="polyline26"
     transform="translate(114.4,-188.90001)" />
  <polyline
     points="34.459,528.3 38.259,528.3 38.259,554.5 34.459,554.5 34.459,528.3"
     fill="none"
     stroke="#000000"
     stroke-width="0.1mm"
     id="polyline27"
     transform="translate(114.4,-188.90001)" />
  <polyline
     points="29.8,519.9 29.8,516.1 43.8,516.1 43.8,519.9 57.8,519.9 57.8,562.9 43.8,562.9 43.8,566.7 29.8,566.7 29.8,562.9 15.8,562.9 15.8,548.567 19.6,548.567 19.6,534.233 15.8,534.233 15.8,519.9 29.8,519.9"
     fill="none"
     stroke="#000000"
     stroke-width="0.1mm"
     id="polyline28"
     transform="translate(114.4,-188.90001)" />
  <polyline
     points="64.986,528.339 65.03,528.163 65.091,527.992 65.168,527.828 65.262,527.672 65.37,527.526 65.492,527.392 65.626,527.27 65.772,527.162 65.928,527.068 66.092,526.991 66.263,526.93 66.439,526.886 66.619,526.859 66.8,526.85 100.8,526.85 100.981,526.859 101.161,526.886 101.337,526.93 101.508,526.991 101.672,527.068 101.828,527.162 101.974,527.27 102.108,527.392 102.23,527.526 102.338,527.672 102.432,527.828 102.509,527.992 102.57,528.163 102.614,528.339 102.641,528.519 102.65,528.7 102.65,562.7 102.641,562.881 102.614,563.061 102.57,563.237 102.509,563.408 102.432,563.572 102.338,563.728 102.23,563.874 102.108,564.008 101.974,564.13 101.828,564.238 101.672,564.332 101.508,564.409 101.337,564.47 101.161,564.514 100.981,564.541 100.8,564.55 66.8,564.55 66.619,564.541 66.439,564.514 66.263,564.47 66.092,564.409 65.928,564.332 65.772,564.238 65.626,564.13 65.492,564.008 65.37,563.874 65.262,563.728 65.168,563.572 65.091,563.408 65.03,563.237 64.986,563.061 64.959,562.881 64.95,562.7 64.95,528.7 64.959,528.519 64.986,528.339"
     fill="none"
     stroke="#000000"
     stroke-width="0.1mm"
     id="polyline29"
     transform="translate(114.4,-188.90001)" />
  <polyline
     points="62.877,527.92 62.972,527.539 63.104,527.169 63.272,526.814 63.474,526.478 63.708,526.162 63.972,525.872 64.262,525.608 64.578,525.374 64.914,525.172 65.269,525.004 65.639,524.872 66.02,524.777 66.408,524.719 66.8,524.7 100.8,524.7 101.192,524.719 101.58,524.777 101.961,524.872 102.331,525.004 102.686,525.172 103.022,525.374 103.338,525.608 103.628,525.872 103.892,526.162 104.126,526.478 104.328,526.814 104.496,527.169 104.628,527.539 104.723,527.92 104.781,528.308 104.8,528.7 104.8,562.7 104.781,563.092 104.723,563.48 104.628,563.861 104.496,564.231 104.328,564.586 104.126,564.922 103.892,565.238 103.628,565.528 103.338,565.792 103.022,566.026 102.686,566.228 102.331,566.396 101.961,566.528 101.58,566.623 101.192,566.681 100.8,566.7 66.8,566.7 66.408,566.681 66.02,566.623 65.639,566.528 65.269,566.396 64.914,566.228 64.578,566.026 64.262,565.792 63.972,565.528 63.708,565.238 63.474,564.922 63.272,564.586 63.104,564.231 62.972,563.861 62.877,563.48 62.819,563.092 62.8,562.7 62.8,528.7 62.819,528.308 62.877,527.92"
     fill="none"
     stroke="#000000"
     stroke-width="0.1mm"
     id="polyline30"
     transform="translate(114.4,-188.90001)" />
  <polyline
     points="42.4,234.1 38.6,234.1 38.6,220.1 42.4,220.1 42.4,234.1"
     fill="none"
     stroke="#000000"
     stroke-width="0.1mm"
     id="polyline31"
     transform="translate(114.4,-188.90001)" />
  <polyline
     points="50.24,244.3 50.24,248.1 30.76,248.1 30.76,244.3 11.28,244.3 11.28,248.1 -8.2,248.1 -8.2,234.1 -4.4,234.1 -4.4,220.1 -8.2,220.1 -8.2,206.1 89.2,206.1 89.2,220.1 85.4,220.1 85.4,234.1 89.2,234.1 89.2,248.1 69.72,248.1 69.72,244.3 50.24,244.3"
     fill="none"
     stroke="#000000"
     stroke-width="0.1mm"
     id="polyline32"
     transform="translate(114.4,-188.90001)" />
  <polyline
     points="43.4,201.1 38.705,201.099 37.331,201.033 36.601,200.931 36.159,200.826 35.899,200.74 35.704,200.656 35.551,200.575 35.391,200.468 35.297,200.39 35.149,200.227 35.043,200.053 35.002,199.959 34.939,199.73 34.913,199.539 34.894,198.75 34.874,198.543 34.845,198.396 34.777,198.191 34.681,198.015 34.617,197.93 34.54,197.845 34.454,197.768 34.341,197.683 34.208,197.601 34.036,197.516 33.805,197.426 33.481,197.331 33.002,197.235 32.258,197.148 30.9,197.1 3.605,197.101 2.231,197.167 1.501,197.269 1.059,197.374 0.799,197.46 0.604,197.544 0.451,197.625 0.291,197.732 0.197,197.81 0.049,197.973 -0.057,198.148 -0.098,198.241 -0.161,198.47 -0.187,198.661 -0.206,199.45 -0.226,199.657 -0.255,199.804 -0.323,200.009 -0.42,200.185 -0.483,200.27 -0.56,200.355 -0.646,200.432 -0.759,200.517 -0.892,200.599 -1.064,200.684 -1.295,200.774 -1.619,200.869 -2.098,200.965 -2.842,201.052 -4.2,201.1 -8.2,201.1 -8.2,189.3 10.433,189.3 10.433,193.1 24.767,193.1 24.767,189.3 43.4,189.3 43.4,201.1"
     fill="none"
     stroke="#000000"
     stroke-width="0.1mm"
     id="polyline33"
     transform="translate(114.4,-188.90001)" />
  <polyline
     points="-13.2,192.7 -13.2,244.3 -33.44,244.3 -33.44,248.1 -53.68,248.1 -53.68,244.3 -73.92,244.3 -73.92,248.1 -94.16,248.1 -94.16,244.3 -110.6,244.3 -110.6,227.1 -114.4,227.1 -114.4,209.9 -110.6,209.9 -110.6,192.7 -94.16,192.7 -94.16,188.9 -73.92,188.9 -73.92,192.7 -53.68,192.7 -53.68,188.9 -33.44,188.9 -33.44,192.7 -13.2,192.7"
     fill="none"
     stroke="#000000"
     stroke-width="0.1mm"
     id="polyline34"
     transform="translate(114.4,-188.90001)" />
</svg>
